<?xml version="1.0" encoding="UTF-8"?>
<svg width="30px" height="30px" viewBox="0 0 30 30" version="1.1" xmlns="http://www.w3.org/2000/svg" xmlns:xlink="http://www.w3.org/1999/xlink">
    <!-- Generator: Sketch 52.6 (67491) - http://www.bohemiancoding.com/sketch -->
    <title>Fill 1</title>
    <desc>Created with Sketch.</desc>
    <g id="main" stroke="none" stroke-width="1" fill="#d1d5db" fill-rule="evenodd">
        <g id="Tech" transform="translate(-428.000000, -216.000000)">
            <path d="M457.932489,230.514568 L453.675133,220.547543 C453.588915,220.342397 453.423508,220.181307 453.217018,220.0986 L443.15877,216.060544 C442.952281,215.978107 442.721197,215.979458 442.516059,216.067031 L432.548082,220.324288 C432.342674,220.410779 432.181591,220.575923 432.098887,220.782691 L428.061263,230.841073 C427.977208,231.049192 427.979911,231.278664 428.06775,231.48408 L432.324836,241.452457 C432.411324,241.657603 432.576731,241.818693 432.78295,241.9014 L442.841198,245.939186 C442.940659,245.979458 443.047958,246 443.153635,246 C443.265799,246 443.378233,245.978107 443.485261,245.931618 L453.451887,241.674361 C453.657295,241.58787 453.818378,241.422455 453.901082,241.216228 L457.938706,231.157576 C458.022761,230.949457 458.020058,230.719985 457.932489,230.514568" id="Fill-1"></path>
        </g>
    </g>
</svg>