<svg viewBox="0 0 24 24" fill="none" xmlns="http://www.w3.org/2000/svg"><path d="M12.068.243a.92.92 0 0 0-.355.071L4.007 3.507a.922.922 0 0 0-.5.501L.314 11.714a.926.926 0 0 0 0 .71l3.193 7.704a.923.923 0 0 0 .5.502l7.706 3.192a.93.93 0 0 0 .71 0l7.705-3.192a.927.927 0 0 0 .5-.502l3.193-7.706a.926.926 0 0 0 0-.71l-3.193-7.704a.926.926 0 0 0-.5-.501L12.422.314a.922.922 0 0 0-.354-.07z" fill="none" style="stroke-width:1.18244"/><g opacity=".2" fill="#000"><path d="m15.887 6.67-1.364.256 1.092 1.287.818 1.542.546 1.8 1.637-1.286V8.213l-1.091-1.286-1.637-.256Zm-7.639 0 1.09.256-.818 1.205-.818 1.46-.546 1.706-1.638-1.218V8.13l1.093-1.218 1.636-.243Z" fill-opacity=".4"/><path d="M16.121 6.155a3.155 3.155 0 0 0-1.733.523 5.378 5.378 0 0 0-2.32-.523c-.808 0-1.604.18-2.32.523a3.16 3.16 0 0 0-1.736-.523c-.972-.002-1.886.425-2.46 1.148a2.613 2.613 0 0 0-.431 2.508c.301.852 1.027 1.519 1.952 1.794.166.914.627 1.76 1.32 2.431a3.204 3.204 0 0 0-.043.52c0 1.223.708 2.354 1.858 2.965a3.995 3.995 0 0 0 3.716 0c1.15-.611 1.859-1.74 1.859-2.964a3.204 3.204 0 0 0-.044-.52 4.5 4.5 0 0 0 1.32-2.432c.925-.275 1.651-.941 1.953-1.794a2.613 2.613 0 0 0-.432-2.508c-.573-.723-1.487-1.15-2.459-1.148Zm-9.117 4.763c-.652-.282-1.129-.824-1.293-1.472A2.044 2.044 0 0 1 6.16 7.6a2.443 2.443 0 0 1 1.852-.822c.385 0 .764.09 1.1.26A4.795 4.795 0 0 0 7.56 8.695 4.366 4.366 0 0 0 7 10.824c0 .03.004.062.004.094zm8.136 2.793a.292.292 0 0 0-.094.284c.042.184.062.372.062.562 0 1-.58 1.925-1.52 2.425a3.267 3.267 0 0 1-3.041 0c-.94-.5-1.52-1.425-1.52-2.424 0-.19.02-.379.06-.564a.292.292 0 0 0-.091-.284 3.9 3.9 0 0 1-1.313-2.651 3.826 3.826 0 0 1 .97-2.773c.153-.169.354-.296.58-.366.226-.073.47-.086.703-.04a4.34 4.34 0 0 1 1.732.68.685.685 0 0 0 .8 0 4.338 4.338 0 0 1 1.73-.678c.234-.048.477-.035.704.036.225.071.426.199.58.367a3.824 3.824 0 0 1 .969 2.775 3.9 3.9 0 0 1-1.311 2.651zm1.99-2.793c0-.032.005-.064.005-.094a4.37 4.37 0 0 0-.56-2.129 4.791 4.791 0 0 0-1.554-1.656 2.448 2.448 0 0 1 1.1-.26 2.44 2.44 0 0 1 1.853.82c.45.52.615 1.2.45 1.847-.164.648-.64 1.19-1.293 1.472zm-6.077.528c0 .165-.07.322-.197.44a.706.706 0 0 1-.478.182.706.706 0 0 1-.478-.183.598.598 0 0 1-.197-.44c0-.165.07-.323.197-.44a.706.706 0 0 1 .478-.183c.18 0 .351.067.478.184a.598.598 0 0 1 .198.44zm3.38 0c0 .165-.072.322-.2.44a.706.706 0 0 1-.477.182.706.706 0 0 1-.478-.183.598.598 0 0 1-.197-.44c0-.165.07-.323.197-.44a.706.706 0 0 1 .478-.183c.18 0 .351.067.478.184a.598.598 0 0 1 .198.44Z"/></g></svg>