<svg viewBox="0 0 24 24" fill="none" xmlns="http://www.w3.org/2000/svg"><path d="M12.03.12a.918.924 0 0 0-.355.072L3.985 3.4a.92.927 0 0 0-.5.504L.3 11.645a.924.93 0 0 0 0 .712l3.186 7.74a.922.928 0 0 0 .5.505l7.69 3.207a.928.934 0 0 0 .709 0l7.69-3.207a.925.931 0 0 0 .5-.504l3.186-7.742a.924.93 0 0 0 0-.712l-3.186-7.74a.924.93 0 0 0-.5-.505L12.384.192a.92.927 0 0 0-.354-.071Z" fill="none" style="stroke-width:1.18401"/><g opacity=".25" filter="url(#a)" transform="matrix(1.18013 0 0 1.19316 -2.132 -2.213)"><path fill-rule="evenodd" clip-rule="evenodd" d="M15.997 7.255s.006 7.616 0 7.606c0 .61-.96 1.42-1.915 1.51-.955.09-1.79-.44-1.86-1.189-.08-.749.636-1.438 1.591-1.528.299-.03.878.115 1.24.194l-.015-4.308-4.478.66v5.222c.08.749-.739 1.478-1.694 1.568-.955.09-1.79-.44-1.86-1.188-.08-.74.637-1.429 1.592-1.519.298-.03.745.125 1.004.205V8.264c0-.173.142-.337.317-.365l5.761-.895c.178-.027.317.085.317.251z" fill="url(#b)" style="fill:url(#b)"/></g><path opacity=".3" fill-rule="evenodd" clip-rule="evenodd" d="M16.253 7.225a.47.476 0 0 1-.39.542l-2.005.295a.464.469 0 0 1-.527-.4.47.476 0 0 1 .39-.544l2.006-.294a.464.469 0 0 1 .526.4Zm-.838 8.699c-.528-.174-.782-.222-1.239-.215a.466.471 0 0 1-.467-.471.467.472 0 0 1 .455-.485c.581-.008.936.065 1.532.263a.48.48 0 0 1 .3.599.46.465 0 0 1-.58.31zm-7.574.502c.457-.006.71.042 1.24.216a.46.465 0 0 0 .58-.309.474.48 0 0 0-.3-.6c-.596-.197-.951-.27-1.532-.261a.467.472 0 0 0-.455.484.469.469 0 0 0 .467.47z" fill="#fff" style="stroke-width:1.18664"/><defs><linearGradient id="b" x1="11.5" y1="7" x2="11.5" y2="17" gradientUnits="userSpaceOnUse"><stop stop-color="#888"/><stop offset="1"/></linearGradient><filter id="a" x="7" y="6" width="9" height="11" filterUnits="userSpaceOnUse" color-interpolation-filters="sRGB"><feFlood flood-opacity="0" result="BackgroundImageFix"/><feBlend in="SourceGraphic" in2="BackgroundImageFix" result="shape"/><feColorMatrix in="SourceAlpha" values="0 0 0 0 0 0 0 0 0 0 0 0 0 0 0 0 0 0 127 0" result="hardAlpha"/><feOffset dy="-1"/><feGaussianBlur stdDeviation="1"/><feComposite in2="hardAlpha" operator="arithmetic" k2="-1" k3="1"/><feColorMatrix values="0 0 0 0 0 0 0 0 0 0 0 0 0 0 0 0 0 0 0.15 0"/><feBlend in2="shape" result="effect1_innerShadow_409_5007"/></filter></defs></svg>