<svg viewBox="0 0 24 24" fill="none" xmlns="http://www.w3.org/2000/svg"><path d="M12.023.186a.921.921 0 0 0-.355.07L3.953 3.454a.923.923 0 0 0-.5.502L.257 11.669a.927.927 0 0 0 0 .71l3.196 7.714a.925.925 0 0 0 .5.502l7.715 3.196a.93.93 0 0 0 .71 0l7.715-3.196a.928.928 0 0 0 .5-.502l3.197-7.715a.927.927 0 0 0 0-.71l-3.196-7.713a.927.927 0 0 0-.501-.502L12.378.257a.923.923 0 0 0-.355-.071z" fill="none" style="stroke-width:1.18377"/><path opacity=".25" fill-rule="evenodd" clip-rule="evenodd" d="M8.472 7.288a2.368 2.368 0 0 0-2.368 2.368v4.735a2.368 2.368 0 0 0 2.368 2.367h7.103a2.368 2.368 0 0 0 2.367-2.367V9.656a2.368 2.368 0 0 0-2.367-2.368Zm-.494 1.353a.592.592 0 0 1 .592.592v.17a.592.592 0 0 1-.592.591h-.296a.592.592 0 0 1-.592-.592v-.169a.592.592 0 0 1 .592-.592Zm0 2.706a.592.592 0 0 1 .592.592v.168a.592.592 0 0 1-.592.592h-.296a.592.592 0 0 1-.592-.592v-.168a.592.592 0 0 1 .592-.592Zm-.296 2.705a.592.592 0 0 0-.592.592v.17a.592.592 0 0 0 .592.591h.296a.592.592 0 0 0 .592-.592v-.169a.592.592 0 0 0-.592-.592Zm8.682-5.41a.592.592 0 0 1 .592.591v.17a.592.592 0 0 1-.592.591h-.296a.592.592 0 0 1-.592-.592v-.169a.592.592 0 0 1 .592-.592zm-.296 2.705a.592.592 0 0 0-.592.592v.168a.592.592 0 0 0 .592.592h.296a.592.592 0 0 0 .592-.592v-.168a.592.592 0 0 0-.592-.592zm.296 2.705a.592.592 0 0 1 .592.592v.17a.592.592 0 0 1-.592.591h-.296a.592.592 0 0 1-.592-.592v-.169a.592.592 0 0 1 .592-.592Z" fill="url(#a)" style="fill:url(#a);stroke-width:1.18377"/><path opacity=".7" fill-rule="evenodd" clip-rule="evenodd" d="m11.422 9.76 2.727 1.864c.322.22.322.578 0 .798l-2.727 1.865c-.32.219-.583.081-.583-.308v-3.91c0-.39.26-.53.583-.308z" fill="#fff" style="stroke-width:1.18377"/><defs><linearGradient id="a" x1="12" y1="8" x2="12" y2="16" gradientUnits="userSpaceOnUse" gradientTransform="translate(-2.182 -2.182) scale(1.18377)"><stop stop-color="#888"/><stop offset="1"/></linearGradient></defs></svg>