<svg xmlns="http://www.w3.org/2000/svg" xmlns:svgjs="http://svgjs.com/svgjs" xmlns:xlink="http://www.w3.org/1999/xlink" width="288" height="288"><svg xmlns="http://www.w3.org/2000/svg" width="288" height="288" enable-background="new 0 0 1417.3 1417.3" viewBox="0 0 1417.3 1417.3"><defs><linearGradient id="a" x1="221.06" x2="316.775" y1="1266.04" y2="1266.04" gradientTransform="rotate(179.899 496.251 848.76) scale(1.09098)" gradientUnits="userSpaceOnUse"><stop class="stopColorffeabd svgShape" offset="0" stop-color="#bde9ff"/><stop class="stopColorffc027 svgShape" offset="1" stop-color="#27b7ff"/></linearGradient><linearGradient id="d" x1="629.244" x2="772.494" y1="500.892" y2="500.892" gradientTransform="translate(-66.042 -60.229) scale(1.09098)" gradientUnits="userSpaceOnUse"><stop class="stopColorffeabd svgShape" offset="0" stop-color="#bde9ff"/><stop class="stopColorffc027 svgShape" offset="1" stop-color="#27b7ff"/></linearGradient></defs><path fill="#0af" d="M701.4 835.3c-76.9 0-149.2-29.9-203.5-84.3-54.4-54.4-84.3-126.7-84.3-203.5s29.9-149.2 84.3-203.5c54.4-54.4 126.7-84.3 203.5-84.3s149.2 29.9 203.5 84.3c54.4 54.4 84.3 126.7 84.3 203.5S959.3 696.7 904.9 751c-54.4 54.3-126.7 84.3-203.5 84.3zm0-560.4c-72.8 0-141.2 28.3-192.7 79.8s-79.8 119.9-79.8 192.7c0 72.8 28.3 141.2 79.8 192.7s119.9 79.8 192.7 79.8c72.8 0 141.2-28.3 192.7-79.8s79.8-119.9 79.8-192.7c0-72.8-28.4-141.2-79.9-192.7-51.4-51.5-119.9-79.8-192.6-79.8z" class="st0 colorffae00 svgShape" transform="translate(-1006.921 -630.064) scale(2.44871)"/><g class="color000 svgShape" transform="translate(-975.933 -606.787) scale(2.4122)"><g class="color000 svgShape" transform="translate(-66.042 -60.229) scale(1.09098)"><path d="M701.4 788.8c-60.1 0-106.9-34.7-129.4-55.3-31.5-28.9-53.5-65-53.5-87.8 0-13 7.4-18.5 24.8-18.5 13.1 0 30.9 3.1 51.5 6.8 29.8 5.2 66.9 11.8 106.7 11.8s76.9-6.5 106.7-11.8c20.6-3.6 38.4-6.8 51.5-6.8 17.4 0 24.8 5.5 24.8 18.5 0 22.8-22 58.9-53.5 87.8-22.7 20.7-69.5 55.3-129.6 55.3z" class="color000 svgShape"/><path d="M859.6 628.9c8.2 0 13.9 1.2 17.6 3.8 3.7 2.6 5.5 6.7 5.5 13 0 18.3-16.6 53.2-53 86.6-22.3 20.5-68.7 54.9-128.3 54.9-59.6 0-106-34.4-128.3-54.9-36.4-33.4-53-68.3-53-86.6 0-6.3 1.7-10.4 5.5-13 3.7-2.6 9.4-3.8 17.6-3.8 12.9 0 30.7 3.1 51.2 6.7 29.9 5.3 67.1 11.8 107 11.8 39.9 0 77.1-6.5 107-11.8 20.5-3.6 38.2-6.7 51.2-6.7m0-3.3c-32.3 0-91.1 18.5-158.2 18.5s-125.9-18.5-158.2-18.5c-16.8 0-26.4 5-26.4 20.2 0 44.4 82.7 144.8 184.6 144.8 101.9 0 184.6-100.5 184.6-144.9 0-15.1-9.7-20.1-26.4-20.1z" class="color000 svgShape"/></g><path fill="#0af" d="M857.798 623.924c0 38.184-71.023 124.48-158.737 124.48-87.715 0-158.629-86.405-158.629-124.48s71.023-1.419 158.738-1.419 158.628-36.766 158.628 1.419z" class="st0 colorffae00 svgShape"/><path fill="#fff" d="M701.4 747.6c-68.2 0-122.2-52.9-141.8-88.5-1.7-3.1-.6-7.1 2.5-8.8 3.1-1.7 7.1-.6 8.8 2.5 10.9 19.8 29.3 39.6 50.5 54.5 17.7 12.4 46 27.3 79.9 27.3 3.6 0 6.5 2.9 6.5 6.5s-2.9 6.5-6.4 6.5z" class="colorfff svgShape" transform="translate(-66.042 -60.229) scale(1.09098)"/><g class="color000 svgShape" transform="translate(-66.042 -60.229) scale(1.09098)"><path d="M701.4 663.2c-30.1 0-50.8-1.7-67.1-5.4-18.6-4.3-32-11.4-42.2-22.3-20.5-22.1-28.9-61.3-28.9-135.1 0-78.5 62-142.4 138.2-142.4 76.2 0 138.2 63.9 138.2 142.4 0 73.8-8.4 113-28.9 135.1-21.4 23.1-57.7 27.7-109.3 27.7z" class="color000 svgShape"/><path d="M701.4 359.5c36.5 0 70.8 14.6 96.6 41.2 25.8 26.6 40.1 62 40.1 99.6 0 73.4-8.2 112.3-28.5 134.1-9.9 10.7-23.1 17.7-41.4 21.9-16.2 3.7-36.8 5.4-66.8 5.4s-50.6-1.7-66.8-5.4c-18.3-4.2-31.5-11.2-41.4-21.9-20.2-21.8-28.5-60.7-28.5-134.1 0-37.6 14.2-73 40.1-99.6 25.7-26.5 60.1-41.2 96.6-41.2m0-3c-77.2 0-139.7 64.4-139.7 143.9 0 143.9 31.5 164.3 139.7 164.3 108.2 0 139.7-20.4 139.7-164.3 0-79.5-62.6-143.9-139.7-143.9z" class="color000 svgShape"/></g><ellipse cx="699.17" cy="485.697" fill="#0af" stroke="#000" stroke-linecap="round" stroke-linejoin="round" stroke-miterlimit="10" stroke-width="3.273" class="st2 colorffae00 svgShape colorStroke000 svgStroke" rx="152.41" ry="156.992"/><path stroke="#000" stroke-linecap="round" stroke-linejoin="round" stroke-miterlimit="10" stroke-width="3.273" d="M606.873 360.67c6.982-5.127 19.856-10.145 38.839-.108l-15.492-14.729zM791.14 360.67c-6.983-5.127-20.184-10.036-39.167.11l14.838-14.947z" class="st3 colorStroke000 svgStroke"/><path fill="#0af" stroke="#000" stroke-linecap="round" stroke-linejoin="round" stroke-miterlimit="10" stroke-width="3.273" d="M772.374 323.905c0-17.892-32.838-32.293-73.313-32.293-40.476 0-73.314 14.51-73.314 32.293v14.51c0 17.892 32.838 32.293 73.314 32.293 40.475 0 73.313-14.51 73.313-32.293v-14.51z" class="st2 colorffae00 svgShape colorStroke000 svgStroke"/><path fill="#bde9ff" d="M607.5 643.5c-5.8 0-10.4-4.7-10.4-10.4s4.7-10.4 10.4-10.4 10.4 4.7 10.4 10.4-4.7 10.4-10.4 10.4zm0-15.9c-3 0-5.4 2.4-5.4 5.4 0 3 2.4 5.4 5.4 5.4 3 0 5.4-2.4 5.4-5.4 0-3-2.4-5.4-5.4-5.4zM794.7 645.3c-5.8 0-10.4-4.7-10.4-10.4s4.7-10.4 10.4-10.4 10.4 4.7 10.4 10.4-4.6 10.4-10.4 10.4zm0-15.9c-3 0-5.4 2.4-5.4 5.4 0 3 2.4 5.4 5.4 5.4 3 0 5.4-2.4 5.4-5.4 0-3-2.4-5.4-5.4-5.4z" class="st4 colorffeabd svgShape" transform="translate(-66.042 -60.229) scale(1.09098)"/><ellipse cx="699.17" cy="316.268" fill="url(#a)" stroke="#000" stroke-miterlimit="10" stroke-width="3.273" class="colorStroke000 svgStroke" rx="52.258" ry="23.02"/><path d="M701.4 367.9c-36.2 0-64.5-10-64.5-22.8s28.3-22.8 64.5-22.8 64.5 10 64.5 22.8-28.4 22.8-64.5 22.8zm0-42.2c-36.5 0-61 10-61 19.4 0 9.4 24.5 19.4 61 19.4s61-10 61-19.4c0-9.4-24.5-19.4-61-19.4z" class="color000 svgShape" transform="translate(-66.042 -60.229) scale(1.09098)"/><path d="M744.6 355c-28.2-9.6-60.5-9.6-86.5 0l-1-2.8c26.6-9.9 59.7-9.9 88.5 0zM745.9 339.3c-28.1-9.6-63-9.6-89 0l-1-2.8c26.5-9.8 62.3-9.8 91 0z" class="color000 svgShape" transform="translate(-66.042 -60.229) scale(1.09098)"/><path d="M682.8 366c-4.7-12.6-4.7-28.8 0-42.4l2.8 1c-4.4 13-4.4 28.5 0 40.4zM719.9 365.9l-2.8-1c4.4-13 4.4-28.5 0-40.4l2.8-1c4.6 12.6 4.6 28.8 0 42.4z" class="color000 svgShape" transform="translate(-66.042 -60.229) scale(1.09098)"/><path stroke="#000" stroke-linecap="round" stroke-linejoin="round" stroke-miterlimit="10" stroke-width="3.273" d="M587.563 378.78c.327-.545-21.82 33.167-21.82 33.167l19.638 19.528c-.11 0-14.62-25.092 2.182-52.694zM810.34 378.78c-.327-.545 21.82 33.167 21.82 33.167l-19.638 19.528c.11 0 14.62-25.092-2.181-52.694zM574.471 552.574c-6.219 7.527-11.455 20.51-6.982 27.929l-11.783-18.11s-.218-16.474.546-16.474c.763 0 18.219 6.655 18.219 6.655zM824.087 553.883c6.218 7.528 11.128 19.092 6.655 26.62l11.782-18.11s.219-16.474-.545-16.474-17.892 7.964-17.892 7.964z" class="st3 colorStroke000 svgStroke"/><g class="color000 svgShape" transform="translate(-66.042 -60.229) scale(1.09098)"><path fill="#0af" stroke="#000" stroke-linecap="round" stroke-linejoin="round" stroke-miterlimit="10" stroke-width="3" d="M570.6 432.4c-16.4 0-29.6 30.1-29.6 67.2s13.3 67.2 29.6 67.2h6c16.4 0 29.6-30.1 29.6-67.2s-13.3-67.2-29.6-67.2h-6z" class="st2 colorffae00 svgShape colorStroke000 svgStroke"/><linearGradient id="b" x1="-3619.201" x2="-3523.486" y1="879.72" y2="879.72" gradientTransform="rotate(90 -1315.372 2755.511)" gradientUnits="userSpaceOnUse"><stop class="stopColorffeabd svgShape" offset="0" stop-color="#bde9ff"/><stop class="stopColorffc027 svgShape" offset="1" stop-color="#27b7ff"/></linearGradient><ellipse cx="560.4" cy="499.5" fill="url(#b)" stroke="#000" stroke-miterlimit="10" stroke-width="3" class="colorStroke000 svgStroke" rx="21.1" ry="47.9"/><path d="M564.8 567.2v-3.4c9.7 0 17.6-28.8 17.6-64.2 0-16.7-2.1-33.2-5.7-45.3-3.5-11.7-8.2-18.4-12.9-18.4v-3.4c6.5 0 12.1 7.2 16.2 20.8 3.8 12.5 5.9 28.9 5.9 46.3-.1 33.5-7.3 67.6-21.1 67.6z" class="color000 svgShape"/><path d="M567.5 543.8c-9.9-26.6-9.9-59.7 0-88.5l2.8 1c-9.6 28.2-9.6 60.5 0 86.5z" class="color000 svgShape"/><path d="M555.8 547.4c-10.5-28.3-10.5-65 0-95.6l2.8 1c-10.3 30-10.3 65.9 0 93.6z" class="color000 svgShape"/><path d="M560.9 521.6c-7 0-14.2-1.2-21-3.5l1-2.8c13 4.4 27.3 4.4 39.3 0l1 2.8c-6.3 2.3-13.2 3.5-20.3 3.5zM580.2 483.8c-13-4.4-27.3-4.4-39.3 0l-1-2.8c12.6-4.7 27.7-4.7 41.3 0z" class="color000 svgShape"/></g><g class="color000 svgShape" transform="translate(-66.042 -60.229) scale(1.09098)"><path fill="#0af" stroke="#000" stroke-linecap="round" stroke-linejoin="round" stroke-miterlimit="10" stroke-width="3" d="M831.7 432.4c16.4 0 29.6 30.1 29.6 67.2s-13.3 67.2-29.6 67.2h-6c-16.4 0-29.6-30.1-29.6-67.2s13.3-67.2 29.6-67.2h6z" class="st2 colorffae00 svgShape colorStroke000 svgStroke"/><linearGradient id="c" x1="-3619.201" x2="-3523.486" y1="-3300.154" y2="-3300.154" gradientTransform="matrix(0 1 1 0 4141.96 4070.883)" gradientUnits="userSpaceOnUse"><stop class="stopColorffeabd svgShape" offset="0" stop-color="#bde9ff"/><stop class="stopColorffc027 svgShape" offset="1" stop-color="#27b7ff"/></linearGradient><ellipse cx="841.8" cy="499.5" fill="url(#c)" stroke="#000" stroke-miterlimit="10" stroke-width="3" class="colorStroke000 svgStroke" rx="21.1" ry="47.9"/><path d="M841.8 564.4c-12.8 0-22.8-28.5-22.8-64.9 0-36.4 10-64.9 22.8-64.9v3.4c-9.4 0-19.4 24.7-19.4 61.4s10 61.4 19.4 61.4z" class="color000 svgShape"/><path d="m834.7 543.8-2.8-1c9.6-26 9.6-58.3 0-86.5l2.8-1c9.9 28.8 9.9 61.9 0 88.5z" class="color000 svgShape"/><path d="m846.4 547.4-2.8-1c10.3-27.7 10.3-63.6 0-93.6l2.8-1c10.5 30.6 10.5 67.3 0 95.6z" class="color000 svgShape"/><path d="M841.3 521.6c-7.1 0-14-1.2-20.3-3.5l1-2.8c12 4.4 26.3 4.4 39.3 0l1 2.8c-6.8 2.3-14 3.5-21 3.5zM822 483.8l-1-2.8c13.7-4.7 28.7-4.7 41.3 0l-1 2.8c-12-4.4-26.3-4.4-39.3 0z" class="color000 svgShape"/></g><path stroke="#000" stroke-linecap="round" stroke-linejoin="round" stroke-miterlimit="10" stroke-width="3.273" d="M646.366 301.43c3.71-1.09 6.11 1.746 5.564 4.364 7.2-7.418 18.874-10.146 18.874-10.146zM751.973 301.43c-3.71-1.09-6.982 2.4-5.127 5.455-8.183-6.327-17.456-11.237-17.456-11.237z" class="st3 colorStroke000 svgStroke"/><circle cx="698.624" cy="486.242" r="91.969" stroke="#000" stroke-miterlimit="10" stroke-width="8.222" class="colorStroke000 svgStroke"/><circle cx="698.624" cy="486.242" r="78.114" fill="url(#d)" stroke="#000" stroke-miterlimit="10" stroke-width="3.273" class="colorStroke000 svgStroke"/><g class="color000 svgShape" transform="translate(-66.042 -60.229) scale(1.09098)"><path d="M726.9 565.6c-5 0-10-1.9-13.8-5.7l-71.2-71.2c-7.6-7.6-7.6-20 0-27.7l19.1-19.1c7.6-7.6 20-7.6 27.7 0l71.2 71.2c7.6 7.6 7.6 20 0 27.7l-19.1 19.1c-3.8 3.8-8.8 5.7-13.9 5.7zm-52.1-123.1c-3.6 0-6.9 1.4-9.4 3.9l-19.1 19.1c-2.5 2.5-3.9 5.8-3.9 9.4 0 3.6 1.4 6.9 3.9 9.4l71.2 71.2c5.2 5.2 13.6 5.2 18.8 0l19.1-19.1c5.2-5.2 5.2-13.6 0-18.8l-71.2-71.2c-2.5-2.6-5.8-3.9-9.4-3.9z" class="color000 svgShape"/><path d="M674.8 565.6c-5 0-10-1.9-13.8-5.7l-19.1-19.1c-7.6-7.6-7.6-20 0-27.7l71.2-71.2c7.6-7.6 20-7.6 27.7 0l19.1 19.1c7.6 7.6 7.6 20 0 27.7l-71.2 71.2c-3.9 3.8-8.9 5.7-13.9 5.7zm-9.4-10.2c2.5 2.5 5.8 3.9 9.4 3.9 3.6 0 6.9-1.4 9.4-3.9l71.2-71.2c5.2-5.2 5.2-13.6 0-18.8l-19.1-19.1c-5.2-5.2-13.6-5.2-18.8 0l-71.2 71.2c-5.2 5.2-5.2 13.6 0 18.8z" class="color000 svgShape"/></g></g></svg></svg>