<svg viewBox="0 0 1417.3 1417.3" style="enable-background:new 0 0 1417.3 1417.3" xml:space="preserve" xmlns="http://www.w3.org/2000/svg"><defs><linearGradient id="c" gradientUnits="userSpaceOnUse" x1="221.06" y1="1266.04" x2="316.77" y2="1266.04" gradientTransform="rotate(179.9 496.25 848.76) scale(1.09098)"><stop offset="0" style="stop-color:#ffeabd"/><stop offset="1" style="stop-color:#ffc027"/></linearGradient><linearGradient y2="500.89" x2="772.49" y1="500.89" x1="629.24" gradientUnits="userSpaceOnUse" id="f" gradientTransform="translate(-66.04 -60.23) scale(1.09098)"><stop style="stop-color:#ffeabd" offset="0"/><stop style="stop-color:#ffc027" offset="1"/></linearGradient><filter style="color-interpolation-filters:sRGB" id="a" x="0" y="0" width="1" height="1"><feColorMatrix type="hueRotate" values="172" result="color1"/><feColorMatrix type="saturate" values=".32" result="color2"/></filter><filter style="color-interpolation-filters:sRGB" id="b" x="0" y="0" width="1" height="1"><feColorMatrix type="hueRotate" values="172" result="color1"/><feColorMatrix type="saturate" values=".32" result="color2"/></filter></defs><g style="fill:#00222b;filter:url(#a)"><path class="st0" d="M701.4 835.3c-76.9 0-149.2-29.9-203.5-84.3-54.4-54.4-84.3-126.7-84.3-203.5s29.9-149.2 84.3-203.5c54.4-54.4 126.7-84.3 203.5-84.3s149.2 29.9 203.5 84.3c54.4 54.4 84.3 126.7 84.3 203.5S959.3 696.7 904.9 751c-54.4 54.3-126.7 84.3-203.5 84.3zm0-560.4c-72.8 0-141.2 28.3-192.7 79.8s-79.8 119.9-79.8 192.7c0 72.8 28.3 141.2 79.8 192.7s119.9 79.8 192.7 79.8c72.8 0 141.2-28.3 192.7-79.8s79.8-119.9 79.8-192.7c0-72.8-28.4-141.2-79.9-192.7-51.4-51.5-119.9-79.8-192.6-79.8z" style="fill:#00222b" transform="translate(-1006.92 -630.06) scale(2.44871)"/></g><g transform="translate(-975.93 -606.79) scale(2.4122)" style="filter:url(#b)"><path d="M699.17 800.34c-65.57 0-116.62-37.86-141.17-60.34-34.37-31.52-58.37-70.9-58.37-95.78 0-14.19 8.07-20.19 27.06-20.19 14.29 0 33.7 3.39 56.18 7.42 32.51 5.68 72.99 12.88 116.41 12.88s83.9-7.1 116.4-12.88c22.48-3.93 41.9-7.42 56.2-7.42 18.98 0 27.05 6 27.05 20.19 0 24.87-24 64.26-58.37 95.78-24.76 22.59-75.82 60.34-141.39 60.34z"/><path d="M871.76 625.89c8.95 0 15.17 1.3 19.2 4.14 4.04 2.84 6 7.31 6 14.19 0 19.96-18.1 58.04-57.82 94.48-24.32 22.36-74.95 59.89-139.97 59.89s-115.64-37.53-139.97-59.9c-39.71-36.43-57.82-74.5-57.82-94.47 0-6.88 1.85-11.35 6-14.19 4.03-2.83 10.25-4.14 19.2-4.14 14.07 0 33.5 3.38 55.86 7.3 32.62 5.79 73.2 12.88 116.73 12.88s84.12-7.09 116.74-12.87c22.36-3.93 41.67-7.31 55.85-7.31m0-3.6c-35.23 0-99.38 20.18-172.59 20.18s-137.35-20.18-172.6-20.18c-18.32 0-28.8 5.45-28.8 22.04 0 48.44 90.23 157.97 201.4 157.97s201.4-109.64 201.4-158.08c0-16.48-10.59-21.93-28.8-21.93z"/><path style="fill:#ffae00;stroke-width:1.09098" d="M857.8 623.92c0 38.19-71.02 124.48-158.74 124.48-87.71 0-158.63-86.4-158.63-124.48s71.03-1.41 158.74-1.41 158.63-36.77 158.63 1.41z" class="st0"/><path style="fill:#fff" d="M701.4 747.6c-68.2 0-122.2-52.9-141.8-88.5-1.7-3.1-.6-7.1 2.5-8.8 3.1-1.7 7.1-.6 8.8 2.5 10.9 19.8 29.3 39.6 50.5 54.5 17.7 12.4 46 27.3 79.9 27.3 3.6 0 6.5 2.9 6.5 6.5s-2.9 6.5-6.4 6.5z" transform="translate(-66.04 -60.23) scale(1.09098)"/><path d="M699.17 663.3c-32.84 0-55.42-1.85-73.2-5.88-20.3-4.7-34.91-12.44-46.04-24.33-22.37-24.11-31.53-66.88-31.53-147.4 0-85.63 67.64-155.35 150.77-155.35 83.13 0 150.77 69.72 150.77 155.36 0 80.51-9.16 123.28-31.52 147.39-23.35 25.2-62.95 30.22-119.25 30.22z"/><path d="M699.17 331.98c39.82 0 77.24 15.93 105.39 44.95 28.15 29.02 43.75 67.64 43.75 108.66 0 80.08-8.95 122.52-31.1 146.3-10.8 11.67-25.2 19.3-45.16 23.9-17.68 4.03-40.15 5.88-72.88 5.88s-55.2-1.85-72.88-5.89c-19.96-4.58-34.36-12.22-45.16-23.9-22.04-23.77-31.1-66.21-31.1-146.3 0-41.01 15.5-79.63 43.75-108.65 28.04-28.91 65.57-44.95 105.4-44.95m0-3.27c-84.23 0-152.42 70.25-152.42 156.99 0 156.99 34.37 179.25 152.41 179.25 118.05 0 152.41-22.26 152.41-179.25 0-86.74-68.3-157-152.4-157z"/><ellipse style="fill:#ffae00;stroke:#000;stroke-width:3.27293;stroke-linecap:round;stroke-linejoin:round;stroke-miterlimit:10" ry="156.99" rx="152.41" cy="485.7" cx="699.17" class="st2"/><path style="stroke:#000;stroke-width:3.27293;stroke-linecap:round;stroke-linejoin:round;stroke-miterlimit:10" d="M606.87 360.67c6.99-5.13 19.86-10.14 38.84-.1l-15.49-14.74zM791.14 360.67c-6.98-5.13-20.18-10.04-39.17.11l14.84-14.95z" class="st3"/><path style="fill:#ffae00;stroke:#000;stroke-width:3.27293;stroke-linecap:round;stroke-linejoin:round;stroke-miterlimit:10" d="M772.37 323.9c0-17.89-32.83-32.29-73.3-32.29-40.49 0-73.32 14.51-73.32 32.3v14.5c0 17.9 32.84 32.3 73.31 32.3 40.48 0 73.31-14.51 73.31-32.3v-14.5z" class="st2"/><path style="fill:#ffeabd" d="M607.5 643.5a10.4 10.4 0 1 1-.02-20.78 10.4 10.4 0 0 1 .02 20.78zm0-15.9c-3 0-5.4 2.4-5.4 5.4 0 3 2.4 5.4 5.4 5.4 3 0 5.4-2.4 5.4-5.4 0-3-2.4-5.4-5.4-5.4zM794.7 645.3a10.4 10.4 0 1 1-.02-20.78 10.4 10.4 0 0 1 .02 20.78zm0-15.9c-3 0-5.4 2.4-5.4 5.4 0 3 2.4 5.4 5.4 5.4 3 0 5.4-2.4 5.4-5.4 0-3-2.4-5.4-5.4-5.4z" class="st4" transform="translate(-66.04 -60.23) scale(1.09098)"/><ellipse style="fill:url(#c);stroke:#000;stroke-width:3.27293;stroke-miterlimit:10" ry="23.02" rx="52.26" cy="316.27" cx="699.17"/><path d="M699.17 341.14c-39.5 0-70.37-10.9-70.37-24.87s30.88-24.88 70.37-24.88 70.37 10.91 70.37 24.88-30.98 24.87-70.37 24.87zm0-46.04c-39.82 0-66.55 10.91-66.55 21.17 0 10.25 26.73 21.16 66.55 21.16s66.55-10.9 66.55-21.16S739 295.1 699.17 295.1z"/><path d="M746.3 327.07c-30.76-10.47-66-10.47-94.37 0l-1.09-3.06c29.02-10.8 65.13-10.8 96.55 0zM747.72 309.94c-30.66-10.47-68.73-10.47-97.1 0l-1.09-3.05c28.91-10.7 67.97-10.7 99.28 0z"/><path d="M678.88 339.07c-5.13-13.75-5.13-31.42 0-46.26l3.05 1.1c-4.8 14.18-4.8 31.09 0 44.07zM719.35 338.96l-3.05-1.09c4.8-14.18 4.8-31.1 0-44.08l3.05-1.09c5.02 13.75 5.02 31.42 0 46.26z"/><path style="stroke:#000;stroke-width:3.27293;stroke-linecap:round;stroke-linejoin:round;stroke-miterlimit:10" d="M587.56 378.78c.33-.55-21.82 33.17-21.82 33.17l19.64 19.53c-.1 0-14.62-25.1 2.18-52.7zM810.34 378.78c-.33-.55 21.82 33.17 21.82 33.17l-19.64 19.53c.11 0 14.62-25.1-2.18-52.7zM574.47 552.57c-6.22 7.53-11.45 20.51-6.98 27.93l-11.78-18.1s-.22-16.48.54-16.48c.77 0 18.22 6.65 18.22 6.65zM824.09 553.88c6.21 7.53 11.12 19.1 6.65 26.62l11.78-18.1s.22-16.48-.54-16.48-17.9 7.96-17.9 7.96z" class="st3"/><g transform="translate(-66.04 -60.23) scale(1.09098)"><path style="fill:#ffae00;stroke:#000;stroke-width:3;stroke-linecap:round;stroke-linejoin:round;stroke-miterlimit:10" d="M570.6 432.4c-16.4 0-29.6 30.1-29.6 67.2s13.3 67.2 29.6 67.2h6c16.4 0 29.6-30.1 29.6-67.2s-13.3-67.2-29.6-67.2h-6z" class="st2"/><linearGradient gradientTransform="rotate(90 -1315.37 2755.51)" y2="879.72" x2="-3523.49" y1="879.72" x1="-3619.2" gradientUnits="userSpaceOnUse" id="d"><stop style="stop-color:#ffeabd" offset="0"/><stop style="stop-color:#ffc027" offset="1"/></linearGradient><ellipse ry="47.9" rx="21.1" cy="499.5" cx="560.4" style="fill:url(#d);stroke:#000;stroke-width:3;stroke-miterlimit:10"/><path d="M564.8 567.2v-3.4c9.7 0 17.6-28.8 17.6-64.2 0-16.7-2.1-33.2-5.7-45.3-3.5-11.7-8.2-18.4-12.9-18.4v-3.4c6.5 0 12.1 7.2 16.2 20.8 3.8 12.5 5.9 28.9 5.9 46.3-.1 33.5-7.3 67.6-21.1 67.6z"/><path d="M567.5 543.8c-9.9-26.6-9.9-59.7 0-88.5l2.8 1c-9.6 28.2-9.6 60.5 0 86.5z"/><path d="M555.8 547.4c-10.5-28.3-10.5-65 0-95.6l2.8 1c-10.3 30-10.3 65.9 0 93.6z"/><path d="M560.9 521.6c-7 0-14.2-1.2-21-3.5l1-2.8c13 4.4 27.3 4.4 39.3 0l1 2.8c-6.3 2.3-13.2 3.5-20.3 3.5zM580.2 483.8c-13-4.4-27.3-4.4-39.3 0l-1-2.8c12.6-4.7 27.7-4.7 41.3 0z"/></g><g transform="translate(-66.04 -60.23) scale(1.09098)"><path style="fill:#ffae00;stroke:#000;stroke-width:3;stroke-linecap:round;stroke-linejoin:round;stroke-miterlimit:10" d="M831.7 432.4c16.4 0 29.6 30.1 29.6 67.2s-13.3 67.2-29.6 67.2h-6c-16.4 0-29.6-30.1-29.6-67.2s13.3-67.2 29.6-67.2h6z" class="st2"/><linearGradient gradientTransform="matrix(0 1 1 0 4141.96 4070.88)" y2="-3300.15" x2="-3523.49" y1="-3300.15" x1="-3619.2" gradientUnits="userSpaceOnUse" id="e"><stop style="stop-color:#ffeabd" offset="0"/><stop style="stop-color:#ffc027" offset="1"/></linearGradient><ellipse ry="47.9" rx="21.1" cy="499.5" cx="841.8" style="fill:url(#e);stroke:#000;stroke-width:3;stroke-miterlimit:10"/><path d="M841.8 564.4c-12.8 0-22.8-28.5-22.8-64.9 0-36.4 10-64.9 22.8-64.9v3.4c-9.4 0-19.4 24.7-19.4 61.4s10 61.4 19.4 61.4z"/><path d="m834.7 543.8-2.8-1c9.6-26 9.6-58.3 0-86.5l2.8-1c9.9 28.8 9.9 61.9 0 88.5z"/><path d="m846.4 547.4-2.8-1c10.3-27.7 10.3-63.6 0-93.6l2.8-1c10.5 30.6 10.5 67.3 0 95.6z"/><path d="M841.3 521.6c-7.1 0-14-1.2-20.3-3.5l1-2.8c12 4.4 26.3 4.4 39.3 0l1 2.8c-6.8 2.3-14 3.5-21 3.5zM822 483.8l-1-2.8c13.7-4.7 28.7-4.7 41.3 0l-1 2.8c-12-4.4-26.3-4.4-39.3 0z"/></g><path style="stroke:#000;stroke-width:3.27293;stroke-linecap:round;stroke-linejoin:round;stroke-miterlimit:10" d="M646.37 301.43c3.7-1.09 6.1 1.75 5.56 4.36 7.2-7.41 18.87-10.14 18.87-10.14zM751.97 301.43c-3.7-1.09-6.98 2.4-5.12 5.46-8.19-6.33-17.46-11.24-17.46-11.24z" class="st3"/><circle cx="698.62" cy="486.24" r="91.97" style="stroke:#000;stroke-width:8.22194;stroke-miterlimit:10"/><circle style="fill:url(#f);stroke:#000;stroke-width:3.27293;stroke-miterlimit:10" cx="698.62" cy="486.24" r="78.11"/><path d="M727 556.83a21.23 21.23 0 0 1-15.06-6.22l-77.68-77.68a21.47 21.47 0 0 1 0-30.22l20.84-20.83c8.29-8.3 21.82-8.3 30.22 0l77.67 77.67c8.3 8.3 8.3 21.82 0 30.22l-20.83 20.84a21.29 21.29 0 0 1-15.17 6.22zm-56.85-134.3c-3.93 0-7.53 1.53-10.25 4.25l-20.84 20.84a14.35 14.35 0 0 0-4.26 10.26c0 3.92 1.53 7.53 4.26 10.25l77.68 77.68a14.49 14.49 0 0 0 20.5 0l20.84-20.84a14.49 14.49 0 0 0 0-20.5l-77.67-77.69a13.92 13.92 0 0 0-10.26-4.25z"/><path d="M670.15 556.83a21.23 21.23 0 0 1-15.05-6.22l-20.84-20.84a21.47 21.47 0 0 1 0-30.22l77.68-77.67c8.29-8.3 21.82-8.3 30.22 0l20.83 20.83c8.3 8.3 8.3 21.82 0 30.22l-77.67 77.68a21.66 21.66 0 0 1-15.17 6.22zM659.9 545.7a14.35 14.35 0 0 0 10.25 4.26c3.93 0 7.53-1.53 10.26-4.26l77.67-77.68a14.49 14.49 0 0 0 0-20.5l-20.83-20.84a14.49 14.49 0 0 0-20.51 0l-77.68 77.67a14.49 14.49 0 0 0 0 20.51z"/></g></svg>