<svg viewBox="0 0 1417.3 1417.3" style="enable-background:new 0 0 1417.3 1417.3" xml:space="preserve" xmlns="http://www.w3.org/2000/svg"><defs><linearGradient id="c" gradientUnits="userSpaceOnUse" x1="221.06" y1="1266.04" x2="316.775" y2="1266.04" gradientTransform="rotate(179.899 496.251 848.76) scale(1.09098)"><stop offset="0" style="stop-color:#ffeabd"/><stop offset="1" style="stop-color:#ffc027"/></linearGradient><linearGradient y2="500.892" x2="772.494" y1="500.892" x1="629.244" gradientUnits="userSpaceOnUse" id="f" gradientTransform="translate(-66.042 -60.229) scale(1.09098)"><stop style="stop-color:#ffeabd" offset="0"/><stop style="stop-color:#ffc027" offset="1"/></linearGradient><filter style="color-interpolation-filters:sRGB" id="b" x="0" y="-.003" width="1" height="1.003"><feColorMatrix type="hueRotate" values="180" result="color1"/><feColorMatrix type="saturate" values="1" result="color2"/></filter><filter style="color-interpolation-filters:sRGB" id="a" x="0" y="0" width="1" height="1"><feColorMatrix type="hueRotate" values="180" result="color1"/><feColorMatrix type="saturate" values="1" result="color2"/></filter></defs><g style="filter:url(#a)"><path class="st0" d="M701.4 835.3c-76.9 0-149.2-29.9-203.5-84.3-54.4-54.4-84.3-126.7-84.3-203.5s29.9-149.2 84.3-203.5c54.4-54.4 126.7-84.3 203.5-84.3s149.2 29.9 203.5 84.3c54.4 54.4 84.3 126.7 84.3 203.5S959.3 696.7 904.9 751c-54.4 54.3-126.7 84.3-203.5 84.3zm0-560.4c-72.8 0-141.2 28.3-192.7 79.8s-79.8 119.9-79.8 192.7c0 72.8 28.3 141.2 79.8 192.7s119.9 79.8 192.7 79.8c72.8 0 141.2-28.3 192.7-79.8s79.8-119.9 79.8-192.7c0-72.8-28.4-141.2-79.9-192.7-51.4-51.5-119.9-79.8-192.6-79.8z" style="fill:#ffae00" transform="translate(-1006.921 -630.064) scale(2.44871)"/></g><g transform="translate(-975.933 -606.787) scale(2.4122)" style="filter:url(#b)"><path d="M699.171 800.336c-65.568 0-116.625-37.857-141.172-60.331-34.366-31.53-58.368-70.914-58.368-95.788 0-14.183 8.073-20.183 27.056-20.183 14.292 0 33.712 3.382 56.186 7.418 32.511 5.673 72.986 12.874 116.407 12.874s83.897-7.091 116.408-12.874c22.474-3.927 41.894-7.418 56.186-7.418 18.983 0 27.056 6 27.056 20.183 0 24.874-24.002 64.259-58.368 95.788-24.765 22.583-75.823 60.331-141.39 60.331z"/><path d="M871.764 625.888c8.946 0 15.165 1.31 19.202 4.146 4.036 2.837 6 7.31 6 14.183 0 19.965-18.11 58.04-57.822 94.479-24.329 22.365-74.95 59.894-139.973 59.894-65.022 0-115.644-37.53-139.972-59.894-39.712-36.44-57.822-74.514-57.822-94.48 0-6.872 1.854-11.345 6-14.182 4.037-2.837 10.255-4.146 19.201-4.146 14.074 0 33.493 3.382 55.859 7.31 32.62 5.782 73.204 12.873 116.734 12.873s84.115-7.09 116.735-12.873c22.365-3.928 41.676-7.31 55.858-7.31m0-3.6c-35.238 0-99.388 20.183-172.593 20.183s-137.354-20.183-172.593-20.183c-18.328 0-28.802 5.455-28.802 22.038 0 48.44 90.225 157.974 201.395 157.974 111.171 0 201.395-109.644 201.395-158.083 0-16.474-10.582-21.929-28.802-21.929z"/><path style="fill:#ffae00;stroke-width:1.09098" d="M857.798 623.924c0 38.184-71.023 124.48-158.737 124.48-87.715 0-158.629-86.405-158.629-124.48s71.023-1.419 158.738-1.419 158.628-36.766 158.628 1.419z" class="st0"/><path style="fill:#fff" d="M701.4 747.6c-68.2 0-122.2-52.9-141.8-88.5-1.7-3.1-.6-7.1 2.5-8.8 3.1-1.7 7.1-.6 8.8 2.5 10.9 19.8 29.3 39.6 50.5 54.5 17.7 12.4 46 27.3 79.9 27.3 3.6 0 6.5 2.9 6.5 6.5s-2.9 6.5-6.4 6.5z" transform="translate(-66.042 -60.229) scale(1.09098)"/><path d="M699.171 663.309c-32.838 0-55.421-1.855-73.204-5.891-20.293-4.692-34.912-12.438-46.04-24.33-22.365-24.11-31.53-66.876-31.53-147.39 0-85.643 67.642-155.356 150.774-155.356 83.133 0 150.774 69.713 150.774 155.355 0 80.515-9.164 123.281-31.53 147.392-23.346 25.201-62.95 30.22-119.244 30.22z"/><path d="M699.171 331.978c39.821 0 77.242 15.929 105.389 44.949 28.147 29.02 43.748 67.64 43.748 108.661 0 80.078-8.946 122.517-31.093 146.3-10.8 11.674-25.201 19.311-45.166 23.893-17.674 4.037-40.148 5.891-72.878 5.891s-55.203-1.854-72.877-5.89c-19.965-4.583-34.366-12.22-45.167-23.893-22.037-23.784-31.093-66.223-31.093-146.3 0-41.022 15.492-79.642 43.749-108.662 28.038-28.911 65.568-44.949 105.388-44.949m0-3.273c-84.223 0-152.41 70.26-152.41 156.992 0 156.992 34.366 179.248 152.41 179.248s152.41-22.256 152.41-179.248c0-86.733-68.295-156.992-152.41-156.992z"/><ellipse style="fill:#ffae00;stroke:#000;stroke-width:3.27293;stroke-linecap:round;stroke-linejoin:round;stroke-miterlimit:10" ry="156.992" rx="152.41" cy="485.697" cx="699.17" class="st2"/><path style="stroke:#000;stroke-width:3.27293;stroke-linecap:round;stroke-linejoin:round;stroke-miterlimit:10" d="M606.873 360.67c6.982-5.127 19.856-10.145 38.839-.108l-15.492-14.729zM791.14 360.67c-6.983-5.127-20.184-10.036-39.167.11l14.838-14.947z" class="st3"/><path style="fill:#ffae00;stroke:#000;stroke-width:3.27293;stroke-linecap:round;stroke-linejoin:round;stroke-miterlimit:10" d="M772.374 323.905c0-17.892-32.838-32.293-73.313-32.293-40.476 0-73.314 14.51-73.314 32.293v14.51c0 17.892 32.838 32.293 73.314 32.293 40.475 0 73.313-14.51 73.313-32.293v-14.51z" class="st2"/><path style="fill:#ffeabd" d="M607.5 643.5c-5.8 0-10.4-4.7-10.4-10.4s4.7-10.4 10.4-10.4 10.4 4.7 10.4 10.4-4.7 10.4-10.4 10.4zm0-15.9c-3 0-5.4 2.4-5.4 5.4 0 3 2.4 5.4 5.4 5.4 3 0 5.4-2.4 5.4-5.4 0-3-2.4-5.4-5.4-5.4zM794.7 645.3c-5.8 0-10.4-4.7-10.4-10.4s4.7-10.4 10.4-10.4 10.4 4.7 10.4 10.4-4.6 10.4-10.4 10.4zm0-15.9c-3 0-5.4 2.4-5.4 5.4 0 3 2.4 5.4 5.4 5.4 3 0 5.4-2.4 5.4-5.4 0-3-2.4-5.4-5.4-5.4z" class="st4" transform="translate(-66.042 -60.229) scale(1.09098)"/><ellipse style="fill:url(#c);stroke:#000;stroke-width:3.27293;stroke-miterlimit:10" ry="23.02" rx="52.258" cy="316.268" cx="699.17"/><path d="M699.171 341.143c-39.493 0-70.368-10.91-70.368-24.875s30.875-24.874 70.368-24.874 70.369 10.91 70.369 24.874-30.984 24.875-70.369 24.875zm0-46.04c-39.82 0-66.55 10.91-66.55 21.165 0 10.255 26.73 21.165 66.55 21.165s66.55-10.91 66.55-21.165c0-10.255-26.729-21.165-66.55-21.165z"/><path d="M746.302 327.069c-30.766-10.474-66.005-10.474-94.37 0l-1.091-3.055c29.02-10.8 65.131-10.8 96.552 0zM747.72 309.94c-30.657-10.473-68.732-10.473-97.097 0l-1.091-3.054c28.91-10.692 67.968-10.692 99.279 0z"/><path d="M678.88 339.07c-5.128-13.747-5.128-31.42 0-46.258l3.054 1.091c-4.8 14.183-4.8 31.093 0 44.076zM719.355 338.96l-3.055-1.09c4.8-14.183 4.8-31.093 0-44.076l3.055-1.091c5.018 13.746 5.018 31.42 0 46.258z"/><path style="stroke:#000;stroke-width:3.27293;stroke-linecap:round;stroke-linejoin:round;stroke-miterlimit:10" d="M587.563 378.78c.327-.545-21.82 33.167-21.82 33.167l19.638 19.528c-.11 0-14.62-25.092 2.182-52.694zM810.34 378.78c-.327-.545 21.82 33.167 21.82 33.167l-19.638 19.528c.11 0 14.62-25.092-2.181-52.694zM574.471 552.574c-6.219 7.527-11.455 20.51-6.982 27.929l-11.783-18.11s-.218-16.474.546-16.474c.763 0 18.219 6.655 18.219 6.655zM824.087 553.883c6.218 7.528 11.128 19.092 6.655 26.62l11.782-18.11s.219-16.474-.545-16.474-17.892 7.964-17.892 7.964z" class="st3"/><g transform="translate(-66.042 -60.229) scale(1.09098)"><path style="fill:#ffae00;stroke:#000;stroke-width:3;stroke-linecap:round;stroke-linejoin:round;stroke-miterlimit:10" d="M570.6 432.4c-16.4 0-29.6 30.1-29.6 67.2s13.3 67.2 29.6 67.2h6c16.4 0 29.6-30.1 29.6-67.2s-13.3-67.2-29.6-67.2h-6z" class="st2"/><linearGradient gradientTransform="rotate(90 -1315.372 2755.511)" y2="879.72" x2="-3523.486" y1="879.72" x1="-3619.201" gradientUnits="userSpaceOnUse" id="d"><stop style="stop-color:#ffeabd" offset="0"/><stop style="stop-color:#ffc027" offset="1"/></linearGradient><ellipse ry="47.9" rx="21.1" cy="499.5" cx="560.4" style="fill:url(#d);stroke:#000;stroke-width:3;stroke-miterlimit:10"/><path d="M564.8 567.2v-3.4c9.7 0 17.6-28.8 17.6-64.2 0-16.7-2.1-33.2-5.7-45.3-3.5-11.7-8.2-18.4-12.9-18.4v-3.4c6.5 0 12.1 7.2 16.2 20.8 3.8 12.5 5.9 28.9 5.9 46.3-.1 33.5-7.3 67.6-21.1 67.6z"/><path d="M567.5 543.8c-9.9-26.6-9.9-59.7 0-88.5l2.8 1c-9.6 28.2-9.6 60.5 0 86.5z"/><path d="M555.8 547.4c-10.5-28.3-10.5-65 0-95.6l2.8 1c-10.3 30-10.3 65.9 0 93.6z"/><path d="M560.9 521.6c-7 0-14.2-1.2-21-3.5l1-2.8c13 4.4 27.3 4.4 39.3 0l1 2.8c-6.3 2.3-13.2 3.5-20.3 3.5zM580.2 483.8c-13-4.4-27.3-4.4-39.3 0l-1-2.8c12.6-4.7 27.7-4.7 41.3 0z"/></g><g transform="translate(-66.042 -60.229) scale(1.09098)"><path style="fill:#ffae00;stroke:#000;stroke-width:3;stroke-linecap:round;stroke-linejoin:round;stroke-miterlimit:10" d="M831.7 432.4c16.4 0 29.6 30.1 29.6 67.2s-13.3 67.2-29.6 67.2h-6c-16.4 0-29.6-30.1-29.6-67.2s13.3-67.2 29.6-67.2h6z" class="st2"/><linearGradient gradientTransform="matrix(0 1 1 0 4141.96 4070.883)" y2="-3300.154" x2="-3523.486" y1="-3300.154" x1="-3619.201" gradientUnits="userSpaceOnUse" id="e"><stop style="stop-color:#ffeabd" offset="0"/><stop style="stop-color:#ffc027" offset="1"/></linearGradient><ellipse ry="47.9" rx="21.1" cy="499.5" cx="841.8" style="fill:url(#e);stroke:#000;stroke-width:3;stroke-miterlimit:10"/><path d="M841.8 564.4c-12.8 0-22.8-28.5-22.8-64.9 0-36.4 10-64.9 22.8-64.9v3.4c-9.4 0-19.4 24.7-19.4 61.4s10 61.4 19.4 61.4z"/><path d="m834.7 543.8-2.8-1c9.6-26 9.6-58.3 0-86.5l2.8-1c9.9 28.8 9.9 61.9 0 88.5z"/><path d="m846.4 547.4-2.8-1c10.3-27.7 10.3-63.6 0-93.6l2.8-1c10.5 30.6 10.5 67.3 0 95.6z"/><path d="M841.3 521.6c-7.1 0-14-1.2-20.3-3.5l1-2.8c12 4.4 26.3 4.4 39.3 0l1 2.8c-6.8 2.3-14 3.5-21 3.5zM822 483.8l-1-2.8c13.7-4.7 28.7-4.7 41.3 0l-1 2.8c-12-4.4-26.3-4.4-39.3 0z"/></g><path style="stroke:#000;stroke-width:3.27293;stroke-linecap:round;stroke-linejoin:round;stroke-miterlimit:10" d="M646.366 301.43c3.71-1.09 6.11 1.746 5.564 4.364 7.2-7.418 18.874-10.146 18.874-10.146zM751.973 301.43c-3.71-1.09-6.982 2.4-5.127 5.455-8.183-6.327-17.456-11.237-17.456-11.237z" class="st3"/><circle cx="698.624" cy="486.242" r="91.969" style="stroke:#000;stroke-width:8.22194;stroke-miterlimit:10"/><circle style="fill:url(#f);stroke:#000;stroke-width:3.27293;stroke-miterlimit:10" cx="698.624" cy="486.242" r="78.114"/><g><path d="M726.991 556.83c-5.455 0-10.91-2.074-15.055-6.22l-77.678-77.677c-8.291-8.292-8.291-21.82 0-30.22l20.838-20.838c8.291-8.291 21.82-8.291 30.22 0l77.678 77.678c8.291 8.291 8.291 21.82 0 30.22l-20.838 20.838c-4.146 4.145-9.6 6.218-15.165 6.218zm-56.84-134.3c-3.927 0-7.527 1.527-10.255 4.254l-20.838 20.838c-2.727 2.728-4.254 6.328-4.254 10.255 0 3.928 1.527 7.528 4.254 10.256l77.678 77.677a14.486 14.486 0 0 0 20.51 0l20.838-20.837a14.486 14.486 0 0 0 0-20.51l-77.677-77.679c-2.728-2.836-6.328-4.254-10.256-4.254z"/><path d="M670.151 556.83c-5.455 0-10.91-2.074-15.055-6.22l-20.838-20.837c-8.291-8.291-8.291-21.82 0-30.22l77.678-77.678c8.291-8.291 21.82-8.291 30.22 0l20.838 20.838c8.291 8.291 8.291 21.82 0 30.22l-77.678 77.678c-4.255 4.145-9.71 6.218-15.165 6.218zM659.896 545.7c2.728 2.728 6.328 4.255 10.255 4.255 3.928 0 7.528-1.527 10.256-4.255l77.677-77.677a14.486 14.486 0 0 0 0-20.51l-20.837-20.839a14.486 14.486 0 0 0-20.51 0l-77.679 77.678a14.486 14.486 0 0 0 0 20.51z"/></g></g></svg>