<svg width="800" height="800" fill="none" xmlns="http://www.w3.org/2000/svg"><g clip-path="url(#a)" transform="matrix(1.28984 0 0 1.28984 -71.294 -54.531)"><path d="M561.607 241.069s-.031.057-.056.088a88.144 88.144 0 0 1-10.429 10.532c-22.35 18.024-51.723 29.727-84.268 31.785h-.41a2.279 2.279 0 0 1-.437 0c-3.16.177-6.213.266-9.341.266H205.735v.114h-8.603v-106.76h232.26a22.414 22.414 0 0 0 4.779 8.511c6.092 6.833 18.626 13.349 44.345 13.236 25.624-.121 37.576-6.517 43.05-13.236a20.404 20.404 0 0 0 2.813-4.49c.411-.089.853-.146 1.264-.209.411-.063.967-.146 1.441-.203 1.403-.177 2.781-.354 4.127-.468 9.608-1.026 17.161-1.089 17.161-1.089-8.217 1.557-11.946 4.141-13.678 6.459-2.048 2.818-1.049 5.281-1.049 5.281.67-2.026 3.628-3.755 7.932-5.281a69.243 69.243 0 0 1 5.689-1.672 71.046 71.046 0 0 1 3.223-.766c5.506-1.229 11.833-2.229 18.217-3.053a.323.323 0 0 1 .145 0 61.894 61.894 0 0 1 2.345 5.516c.354.994.702 1.995.998 3.021.203.589.38 1.172.557 1.761a80.483 80.483 0 0 1 1.024 4.401 69.21 69.21 0 0 1 1.315 10.006c.284 11.039-2.997 23.571-13.483 36.25z" fill="url(#b)" style="fill:url(#b)"/><path d="M434.171 185.605H205.71v98.306h-8.578V177.094h232.26a22.414 22.414 0 0 0 4.779 8.511zM548.365 179.146c-8.217 1.557-11.945 4.141-13.677 6.459h-13.103a20.4 20.4 0 0 0 2.812-4.49v-.032l1.264-.177c.475-.089.968-.146 1.442-.203 1.403-.177 2.78-.354 4.127-.468 9.583-1.027 17.135-1.089 17.135-1.089zM571.181 185.605h-29.612a69.214 69.214 0 0 1 5.688-1.672 71.367 71.367 0 0 1 3.223-.766c5.506-1.229 11.833-2.23 18.217-3.053a.297.297 0 0 1 .145 0 60.936 60.936 0 0 1 2.339 5.491z" fill="#fff" style="mix-blend-mode:overlay" opacity=".5"/><path opacity=".1" d="M561.607 241.067s-.031.057-.057.089c-41.008 44.527-87.895 41.448-106.964 42.886l-2.838-.089-2.673-.171c-3.749.292-4.072.197-4.072.197l-243.876.145 1.081-49.542s.354.146.942.411c.587.267 1.523.76 2.572 1.349 13.564 7.745 57.91 38.384 128.436 42.583 15.612.906 28.968 1.204 40.421 1.026h.088c47.86-.558 61.772-8.6 61.772-8.6-43.878 9.949-90.537-4.433-90.537-4.433s156.872 2.584 164.52-31.31c4.217-18.84 28.38-30.316 48.973-36.832 5.151-1.641 10.044-2.933 14.38-3.99a69.192 69.192 0 0 1 1.315 10.006c.284 11.063-2.997 23.596-13.483 36.275z" fill="#fff"/><path d="M566.734 120.515c-.209-.146-.379-.298-.557-.412-12.565-8.777-26.654-14.293-41.798-17.226-1.991-.411-3.337-1.266-2.459-4.053a146.379 146.379 0 0 0 3.893-14.844 7.306 7.306 0 0 1 4.046-5.37c2.838-1.527 5.271-6.08 4.74-8.867a23.223 23.223 0 0 0-6.352-12.178 45.293 45.293 0 0 0-20.473-11.83c-11.573-3.166-22.754-2.026-33.36 3.642-4.57 2.432-7.85 6.333-7.737 11.944.063 4.103 3.547 6.922 6.321 5.307 7.553-4.37 15.46-6.51 24.309-5.7 6.65.589 12.566 2.438 17.926 6.333.903.678 1.934 1.47 1.403 2.26-.582.938-1.668-.177-2.37-.557a40.264 40.264 0 0 0-18.924-4.78 39.259 39.259 0 0 0-16.548 3.375c-2.75 1.228-5.916 2.463-7.029 6.13-2.345 7.6-22.52 65.412-24.865 73.158-.506 1.672-.677 3.407 2.08 2.938 2.604-.443 20.415-4.052 38.808 3.8.734.311 1.84.975 1.783 1.849-5.739.469-65.95-11.798-53.378 25.11.354 1.045 2.395 1.128 2.3-.519-.353-6.332 10.499-16.51 36.995-10.303-24.568-3.009-57.638 15.99-4.153 22.658 11.277 1.413 24.512.906 31.193-2.532 5.202-2.667 12.288-14.092 4.368-22.571-1.03-1.102-1.024-2.496-.5-4.224 1.789-5.751 3.161-11.652 4.482-17.517.322-1.444.632-2.907.935-4.376 1.498-7.131 2.901-14.319 5.689-21.013 1.137 1.001 1.112 2.407.904 3.699-.734 5.015-1.492 10.069-2.402 15.053-.632 3.496.12 5.491 2.579 5.87 16.313 2.534 30.402 9.158 41.412 21.894 0 0 .734.791 1.846 2.286.323.412.632.88 1.024 1.38.241.324.474.678.733 1.027a41.662 41.662 0 0 1 3.192 4.876c.347.527.662 1.075.942 1.64.422.734.801 1.469 1.138 2.204a61.938 61.938 0 0 1 2.345 5.516c.354.994.701 1.995.999 3.021.202.589.379 1.171.556 1.76a54.536 54.536 0 0 1 2.338 14.408c.298 11.063-2.983 23.596-13.469 36.274 0 0-.032.057-.057.089a88.069 88.069 0 0 1-10.429 10.532c-22.35 18.023-51.722 29.727-84.268 31.785h-.41a2.442 2.442 0 0 1-.436 0c-3.16.178-6.214.266-9.342.266H205.766v.114h-8.634v11.272h215.655l.323.089h.031l.259.089h54.991c7.006.022 14.007-.408 20.958-1.286h.089a151.915 151.915 0 0 0 56.121-18.84 134.613 134.613 0 0 0 21.294-15.231 119.442 119.442 0 0 0 23.286-27.232 79.962 79.962 0 0 0 7.641-18.315 102.333 102.333 0 0 0 2.611-22.241c.202-41.899-26.919-66.236-33.657-71.631z" fill="url(#c)" style="fill:url(#c)"/><path d="m377.177 354.581-178.774-59.2 217.431.025 187.029 59.163z" fill="url(#d)" style="fill:url(#d)"/><path d="m377.177 354.582-178.774-59.2 109.12-.02-8.527 4.75 170.76 54.457z" fill="#322f84" style="mix-blend-mode:multiply" opacity=".3"/><g style="mix-blend-mode:multiply" opacity=".3"><path d="M427.774 300.156H212.82l-14.417-4.775 214.518.019z" fill="#252855"/><path d="m602.862 354.568-225.685.013-27.072-8.968h224.46z" fill="#322f84"/></g><path d="M604.337 536.761 249.26 415.004l-24.113 30.487-.031.063-29.291 27.935-.056.088.113.057a.218.218 0 0 1 .12.032l172.921 63.095z" fill="url(#e)" style="fill:url(#e)"/><path d="m368.943 536.75 118.936-.05-200.732-61.569 21.427-1.539-83.427-28.055-29.435 28.03z" fill="#e94c40" style="mix-blend-mode:multiply" opacity=".5"/><g style="mix-blend-mode:multiply" opacity=".4" fill="#991c1f"><path d="m579.838 528.281-233.94.07 23.044 8.41h235.395zM438.33 479.834l-189.058-64.83-53.58 58.542 25.232 9.227z"/></g><path d="M602.863 354.568a98.772 98.772 0 0 1-.961 13.66 100.28 100.28 0 0 1-1.941 9.956 83.249 83.249 0 0 1-.865 3.255 183.772 183.772 0 0 1-1.056 3.419 2.12 2.12 0 0 1-.145.387 71.254 71.254 0 0 1-1.157 3.274 101.115 101.115 0 0 1-2.863 6.966 131.818 131.818 0 0 1-2.667 5.402 83.56 83.56 0 0 1-1.442 2.647 106.533 106.533 0 0 1-2.338 3.907 117.815 117.815 0 0 1-2.472 3.8 115.884 115.884 0 0 1-2.888 4.021c-.677.944-1.397 1.857-2.117 2.775a93.737 93.737 0 0 1-2.718 3.299 93.343 93.343 0 0 1-1.897 2.172c-.632.703-1.321 1.47-1.991 2.192a118.759 118.759 0 0 1-4.424 4.502c-.5.481-1.005.969-1.536 1.469-1.372 1.305-2.788 2.534-4.235 3.8-.84.747-1.707 1.47-2.598 2.192-.72.582-1.441 1.159-2.187 1.735-1.131.918-2.307 1.785-3.489 2.679-.044 0-.069.044-.12.069-1.08.798-2.162 1.564-3.267 2.337a3.106 3.106 0 0 1-.361.241c-1.226.842-2.528 1.685-3.792 2.533-1.265.849-2.573 1.64-3.868 2.406-1.296.767-2.649 1.571-3.995 2.318-1.201.672-2.409 1.349-3.634 1.976a37.05 37.05 0 0 1-1.562.817 139.978 139.978 0 0 1-7.168 3.445 2.328 2.328 0 0 1-.36.171c-1.371.633-2.768 1.204-4.134 1.78a155.358 155.358 0 0 1-4.019 1.614c-.386.147-.747.292-1.107.412-1.264.482-2.528.937-3.849 1.4-1.517.525-3.053 1.057-4.595 1.539-1.542.481-3.123.962-4.69 1.424-1.568.462-3.16.868-4.734 1.268-1.574.398-3.224.823-4.835 1.183-1.612.361-3.161.697-4.741 1.014-.095 0-.215 0-.309.044-1.587.317-3.161.602-4.785.867-1.625.267-3.009.508-4.551.723-.575.076-1.15.171-1.706.221a72.375 72.375 0 0 1-3.054.387c-1.971.24-3.944.43-5.916.601-1.706.146-3.413.266-5.145.361h-.101c-1.467.07-2.933.146-4.424.19a157.76 157.76 0 0 1-6.011.095H195.679V371.458a145.252 145.252 0 0 1 1.991 15.763c.48 8.822 4.74 19.689 7.288 25.47v-1.588c-7.718-25.111-6.808-50.943-6.492-56.535z" fill="url(#f)" style="fill:url(#f)"/><path d="M197.686 387.221c.481 8.822 4.728 19.683 7.275 25.465v49.302h-9.272v-90.523a151.753 151.753 0 0 1 1.997 15.756z" fill="#fff" style="mix-blend-mode:overlay" opacity=".5"/><path d="M589.47 354.568c0 .12 0 .24-.051.361 0 .361-.069.747-.12 1.204a.677.677 0 0 0-.05.24c-.045.342-.121.678-.165 1.013-.29 1.9-.632 3.8-1.062 5.738H204.99v47.979c-7.718-25.111-6.808-50.943-6.492-56.535z" fill="#fff" style="mix-blend-mode:overlay" opacity=".5"/><path d="M589.48 354.556c-7.326 60.22-70.842 107.273-148.169 107.273H195.702v11.653h258.301c82.225 0 148.877-53.241 148.877-118.926z" fill="#253b7b" style="mix-blend-mode:multiply" opacity=".3"/><path opacity=".07" d="M206.328 401.122s53.549-27.815 97.737-10.766c44.187 17.048 75.133 45.661 119.328 23.66 0 0 19.556-11.399 25.282-20.899 0 0 4.57 10.133-11.238 24.597-15.808 14.464-46.861 18.524-46.861 18.524s45.021 3.318 48.574-8.093c0 0-4.38 15.255-40.952 15.718 0 0 52.948 4.774 87.687-.57 39.112-6.016 92.282-47.269 102.149-80.131 0 0-14.077 84.229-129.075 97.983l-253.99.881s.089-61.733 1.359-60.904z" fill="#fff"/><path d="M605.019 537.787H488.118l-118.943.507-7.996-2.964-14.935-5.965-110.656-40.759h-.177l-3.982-1.494-3.248-1.216h-.09l-6.32-2.35-12.237-4.522h-.151v-.031h-.064l-9.045-3.319 88.831.437 10.284.063s35.497 1.141 63.289 7.6c18.248 4.287 33.158 10.861 32.545 20.899a24.344 24.344 0 0 0 .113 4.667c.999 8.657 6.447 15.529 15.802 20.075 7.408 3.636 17.249 5.84 29.315 6.333h.209c2.225.12 4.539.146 6.953.089a182.228 182.228 0 0 0 26.186-2.35c2.902-.436 5.828-.968 8.849-1.551 5.651-1.114 11.378-1.9 17.193-2.496 17.748-1.792 35.762-1.348 51.697 0a379.729 379.729 0 0 1 51.582 7.911h.178c.631.145 1.111.265 1.403.322z" fill="#fff" style="mix-blend-mode:hard-light" opacity=".1"/><path opacity=".07" d="M599.725 354.574H377.239c6.522-.076 47.79-.601 86.921-3.109l-2.857.355c18.709-1.204 36.919-2.869 50.603-5.156l1.264-.215c44.397-7.689-39.636-8.797-109.486-14.242a144.59 144.59 0 0 1-5.291-.508h-.044c-13.273-1.443-19.942-4.002-22.223-7.111-5.727-7.682 15.296-18.746 28.354-24.648 5.556-2.533 9.671-4.097 9.671-4.097l12.938 4.097 61.81 19.544 3.539 1.133z" fill="#fff"/><path d="M383.868 536.716c-.613.096-1.217.24-1.808.43-4.589.412-9.127-.842-13.495 1.856h-.208c-.379 0-1.732.165-2.212.684l-.196.063c-.928.294-1.872.537-2.826.728-.512.096-.708.14-.986.634v.063c0 .025 0 0 0 0 0-.101.039-.323-.108.387-.309 1.443-.846 1.557 1.758 1.108 2.731-.469 6.428-.096 9.424-.146 2.275-.044 4.716.045 7.01 0-.19.038-.468.076-.632.095h-.393c-1.263 0-3.406 0-5.194.064-5.848.145-25.915 1.513-32.343 1.614a4.95 4.95 0 0 0-2.194.475c2.427.045 4.987.272 7.382.253 9.134-.063 13.325-.101 22.451-.924 2.472-.222 5.007-.07 7.49-.279 3.117-.037 6.226-.05 9.343-.063a.522.522 0 0 0-.241.209h-.044a.78.78 0 0 0-.389-.102.776.776 0 0 0-.388.102c.05 0-.038.114-.67.507a7.068 7.068 0 0 1-2.782.804c-.826.098-1.663.098-2.489 0a5.525 5.525 0 0 1-2.213-.677l-.101.063h-.152a14.59 14.59 0 0 0-3.16.595c-.228.082-.449.158-.632.253-.633-.076-1.334-.184-2.01-.253a10.114 10.114 0 0 0-1.953 0h-.196c-1.264.24-2.415 1.405-3.546 1.767-.79.247-.556-.051-1.176-.336-.221-1.995-11.251-1.317-12.078-1.266-1.094.044 1.124 2.235-2.718 2.134a2.095 2.095 0 0 1-1.442-.938v-.037c-.063-.14.152.208-.044-.127-.417-.747-2.219-.488-2.97-.228 0 0-.057-.038-.077-.044-.341-.133-.682-.286-1.023-.431a3.575 3.575 0 0 0-1.954.494 2.524 2.524 0 0 0-1.055.481h-.101c-.392-.127.632.171-.43-.158a11.718 11.718 0 0 0-2.054-.361c-1.751-.165-3.957-.076-5.259.741a13.463 13.463 0 0 1-3.994.468h-.076a6.69 6.69 0 0 0-2.876.494l.088.077a3.883 3.883 0 0 0 1.725.405 3.269 3.269 0 0 1 1.063 0c.29.101.436.355.265.962.758.76.891.913 1.998.735 1.896-.317 4.133-.849 6.061.095l.063.291c.221.931 1.005 1.222-1.264.893-1.093-.152-3.445.329-4.728.767 2.297.377 4.628.515 6.952.411 1.076 0 2.15-.089 3.237-.146a.217.217 0 0 0 0 .051c.063.177-.045-.165.095.26.139.424.436 1.665 1.068 1.501h.467c1.043.044 3.275-.222 4.741-.064 1.094.121 2.838 1.406 3.792-.044 0-.057.083-.184.36-.431.74-.671 8.059-2.121 8.691-1.336 1.082 1.355 1.897.937 3.161.918 1.264-.018 2.617-.044 3.894-.095 1.276-.05-.5-.994 1.649-.633 1.897.323 4.665.697 6.757.082 0 0-.031-.057 0-.038.354.228 1.441.843 1.751.672 1.827-1.026 4.21-.773 5.796-.805 1.169 0 1.479.089 2.099-.842-.07 0-.032 0 0-.032 1.181-.848 2.294-.791 3.615-.861.431.004.859-.071 1.264-.221 2.377-1.014.93-1.438-.385-1.704-1.056-.209-5.057.944-4.318-1.71a8.03 8.03 0 0 0 4.52.146c.549-.14 1.536-.431 1.896-.526 2.49.145 4.747-.304 7.162-.139a7.44 7.44 0 0 0-2.643-1.267 11.502 11.502 0 0 0-2.439-.272 1.501 1.501 0 0 0-.532.272c-.47.362-.987.66-1.536.887v.038l-.145-.057a1.578 1.578 0 0 1-.992-.868 1.14 1.14 0 0 1-.088-.241 1.832 1.832 0 0 0-.911-1.222h5.266c3.21-.044 6.434-.076 9.644-.088a.33.33 0 0 0 .114.057.64.64 0 0 0 .689-.057h22.445c.075.046.156.08.24.101.274.096.567.122.853.076.203-.051.191-.12.348-.177h10.745a17.536 17.536 0 0 0 3.73-.298c-4.501-.107-9.027-.045-13.539-.063 1.511-.374 3.027-.633 4.519-1.134h11.206a4.145 4.145 0 0 0-1.46.488l28.298.95a.727.727 0 0 1-.044.158c-.746.158-1.751.393-2.433.526-.582.12-.632.088-1.037.582v.051a3.328 3.328 0 0 1-.468.323h122.545l-.05.146c-1.776 5.851-4.59 11.101-7.736 16.085l.29-.127a44.839 44.839 0 0 0 4.526-2.21l.158-.088v.07a.474.474 0 0 1 .101-.077h.075a.089.089 0 0 1 .051 0v-.057h.044c.999-.545 1.953-1.089 2.851-1.691.632-.411 1.264-.823 1.82-1.266.556-.444 1.264-.899 1.814-1.381l.822-.684c.279-.22.547-.455.802-.703a49.965 49.965 0 0 0 1.67-1.557v-.045l.05-.044.044-.051c.436-.436.847-.874 1.214-1.31.214-.223.411-.438.581-.634.171-.196.366-.437.531-.634.367-.436.702-.848 1.018-1.266.316-.418.632-.867.898-1.266.265-.399.467-.69.682-1.039a32.703 32.703 0 0 0 3.097-6.169c.095-.247.19-.487.265-.709.146-.437.241-.798.316-1.063v-.052a.354.354 0 0 0 0-.145.32.32 0 0 0 0-.107v-.096c0-.038 0-.075.051-.108a.14.14 0 0 1 0-.05.254.254 0 0 0 .044-.101zm-15.872 13.54c-4.993-.216-15.119.911-16.357-1.165 1.339.081 5.732-.254 8.849.101 2.232.248 4.49.169 6.7-.235 3.729-.221 7.231-.322 10.649-2.735.039.044.102 0 .127.057.025.056 0 .221.044.291a.237.237 0 0 1-.057.07l-.265.316c-.676.842-.278 2.071 1.264 1.697-3.685 1.204-7.288 1.001-10.954 1.603zm108.438-7.296-.095.038-.152.076h-.063l-.038-.038c-.195-.12-.493 0-.726.032a11.97 11.97 0 0 1-2.175 0l-.973-.203c-2.977-.589-8.489-.291-12.445-.354-3.161-.045-7.617-.343-10.929-.298 2.25-.039 4.633 0 6.915 0a14.883 14.883 0 0 0 2.951-.361h1.549c.428.15.871.253 1.321.31h14.822a7.4 7.4 0 0 0 1.315-.304c-.076 0-.196-.095.316.057.233.07.594.228.992.399-.885.128-1.756.345-2.598.646zm5.966-1.146a.123.123 0 0 0-.037-.058c.091-.137.197-.264.316-.379.72-.735 4.165-.729 4.968.582-1.119-.335-3.173-.335-5.247-.145zm-20.302 12.235h1.726-1.732zm44.878 46.591h.195-.031c-.032 0-.133-.012-.164 0zm-50.49-43.817h.113zm-14.538-11.71-.347-.082a15.72 15.72 0 0 0-4.81-.203h-.044a2.864 2.864 0 0 1-.74 0c-.392-.076-.847-.455-1.17 0-4.373.101-25.32.196-29.706.292-.74-.273-1.265-.349-1.84.215h43.234a38.358 38.358 0 0 1-1.644-.222c-.977.07-1.956.07-2.933 0zm2.048 15.199h-.075z" fill="url(#g)" style="fill:url(#g)"/><path d="M367.628 614.655a.271.271 0 0 1 0 .057c.176 0 .34 0 .373-.044zm133.132 36.864a163.24 163.24 0 0 0 7.312-1.9c1.113-.31 2.226-.633 3.319-.968a1.58 1.58 0 0 0 .486-.146c1.113-.336 2.226-.703 3.319-1.064 1.093-.361 2.345-.779 3.508-1.19a176.947 176.947 0 0 0 9.108-3.541 160.953 160.953 0 0 0 8.742-4.009h.075c1.6-.779 3.192-1.577 4.741-2.444a74.365 74.365 0 0 0 3.42-1.849.476.476 0 0 0 .145-.096 25.838 25.838 0 0 0 2.156-1.266c.457-.242.902-.509 1.333-.798l1.213-.728c1.063-.633 2.105-1.336 3.161-2.014.196-.12.411-.24.632-.387.462-.291.897-.582 1.358-.924l1.935-1.336c1.144-.773 2.225-1.577 3.344-2.375a111.967 111.967 0 0 0 4.114-3.166c1.188-.969 2.377-1.938 3.539-2.933a55.184 55.184 0 0 0 2.087-1.823 157.652 157.652 0 0 0 3.988-3.712c.112-.099.217-.204.316-.316.537-.507 1.068-1.045 1.606-1.577a27.917 27.917 0 0 0 1.567-1.653c.758-.747 1.454-1.526 2.155-2.299a63.822 63.822 0 0 0 1.555-1.729c.436-.481.872-.994 1.265-1.5.391-.508.821-.976 1.232-1.483a117.258 117.258 0 0 0 3.299-4.198c.215-.266.43-.558.632-.849a86.814 86.814 0 0 0 3.792-5.579c.632-.969 1.265-1.945 1.897-2.939-.095.146-.171.266-.266.393a.992.992 0 0 1-.215.31l-.164.254-.322.431a21.65 21.65 0 0 1-2.08 2.532 8.979 8.979 0 0 1-.947.944l-1.018.95c-.361.31-.721.633-1.113.944a51.226 51.226 0 0 1-4.31 3.223c-.361.273-.727.513-1.113.76-.759.507-1.523.988-2.3 1.475-.778.488-1.581.944-2.377 1.406a134.464 134.464 0 0 1-3.9 2.166 184.563 184.563 0 0 1-7.585 3.831 131.824 131.824 0 0 1-4.987 2.28c-.461.197-.898.368-1.334.532l.107-.05c.955-.494 1.897-.981 2.845-1.526.828-.463 1.65-.951 2.446-1.431.582-.337 1.163-.729 1.726-1.09v-.051a57.372 57.372 0 0 0 3.919-2.792c.392-.292.828-.633 1.263-.969a.074.074 0 0 0 .051 0s.045 0 .07-.051c.026-.051 0 0 0-.045.417-.291.803-.633 1.194-.924a69.786 69.786 0 0 0 4.02-3.54c.632-.633 1.264-1.267 1.896-1.843.633-.576 1.208-1.216 1.815-1.849a79.288 79.288 0 0 0 2.756-3.059c.417-.456.802-.918 1.194-1.381a97.492 97.492 0 0 0 5.688-7.403c.43-.602.848-1.209 1.265-1.817.417-.608.897-1.267 1.308-1.945.411-.677.822-1.266 1.264-1.899.778-1.267 1.53-2.534 2.257-3.737a67.429 67.429 0 0 0 1.548-2.723c.487-.899.968-1.741 1.403-2.59a101.952 101.952 0 0 0 2.396-4.762l.633-1.432c.119-.265.239-.506.36-.747.41-.848.751-1.653 1.067-2.381.096-.197.171-.361.241-.532.069-.171.152-.368.221-.532a60.613 60.613 0 0 0 1.138-2.863 54.39 54.39 0 0 1-2.529 1.901 26.558 26.558 0 0 1-2.68 1.659 11.4 11.4 0 0 1-.966.582c-.538.317-1.043.602-1.574.868a49.667 49.667 0 0 1-4.773 2.235c-.726.292-1.409.583-2.111.824a.191.191 0 0 1-.095 0c-.511.196-.992.361-1.479.513a3.414 3.414 0 0 1-.461.164c-.48.146-.942.317-1.428.462v-.044c-.089.036-.18.065-.272.089a.217.217 0 0 0 0 .051h-.158c-.632.183-1.264.348-1.896.513-1.688.43-3.337.797-4.981 1.064-.164.007-.327.03-.487.069-1.011.146-1.985.317-2.977.437h-.044a66.7 66.7 0 0 1-16.136 0 84.305 84.305 0 0 0 11.623-1.431 66.347 66.347 0 0 0 11.333-3.262c.284-.126.556-.228.828-.335 3.161-4.984 5.96-10.234 7.736-16.086l.051-.146H469.043c-.323.222-.633.495-.525.697-4.633 0-9.216-.158-13.855-.272-2.706-.07-5.448-.108-8.16-.425H403.27l-.202.222h-.114c-.348.076-1.442-.177-1.682.387.392.205.823.326 1.265.354 8.709.564 33.935.259 42.639.684 10.966.539 21.945 1.071 32.949 1.191 5.436.063 10.954.741 16.434-.045.108.029.218.051.329.063a37.67 37.67 0 0 0 11.301.324c2.579-.336-47.025-.064-44.434.057.771.037.392.171.24.703-1.663-.077 49.623-.304 47.948-.203-5.89.374-11.838.709-17.754.931-7.314.273-14.645.082-21.958 0-3.546-.045-7.067-.399-10.619-.171a7.276 7.276 0 0 1-.91.069 8.702 8.702 0 0 0-3.255-.354c-1.612 0-3.211 0-4.816-.038.729.15 1.404.501 1.947 1.013h.068a.766.766 0 0 1 .095.457c1.126.576 1.897 1.354 3.161.835 1.036.564 1.896.411 2.996 0 .632.418 1.264.07 1.947-.101h.062c.275.041.552.056.829.044h.082c.341.142.689.267 1.043.374h.037v.044a118.852 118.852 0 0 1-3.368-.177 1.36 1.36 0 0 1-1.036.715c-2.03-.551-4.602-.437-6.542-.266-1.941.171-2.972.444-4.476-1.013a6.883 6.883 0 0 0-1.896 1.203 86.445 86.445 0 0 1-12.287-.241c-2.63.444-21.85.767-24.486 1.134.424-.308.888-.56 1.378-.747a46.128 46.128 0 0 1-10.158-.159c-.809.881-1.789 1.154-2.711 1.73 2.361-.067 4.712.34 6.914 1.196a25.583 25.583 0 0 0-3.672-.12c4.152.469 24.847 0 29.012-.367-.071.28-.231.528-.455.709-6.239.222-29.075.444-35.149.709a7.357 7.357 0 0 0-.677-.379 10.165 10.165 0 0 1-1.814-1.147.19.19 0 0 1-.069-.057c-.038-.057-.127-.133-.19-.215a1.278 1.278 0 0 1-.177-.342 6.192 6.192 0 0 1-.12-.633 1.12 1.12 0 0 0 .202-.14c.462-.399.633-2.013-.511-1.266l-1.897.475c0 .139 0 .285-.037.424l-.14.076c-.569.329-2.06.988-2.635 1.266l-.146.07h-.038c-.246.063-.588-.038-.79 0a2.366 2.366 0 0 0-.916.57 4.686 4.686 0 0 1-3.003.956 24.466 24.466 0 0 1-3.084-.867c-1.707-.741-3.629-2.046-5.019.12a1.413 1.413 0 0 1-.164.235c-.341.405-1.574-.248-2.023-.564-1.782-1.267-3.16-1.108-4.98-.057-2.023.678-12.224 1.4-14.039 2.85.032.038.044.082.083.107.909 0 10.353-.095 11.194-.076.291.023.568.133.796.317a9.734 9.734 0 0 0-2.199.342l-.93.127h-5.638c-11.44 0-17.874.151-19.544.5-.631.057-1.048.127-1.454.203-.404.075-.783.151-1.264.221-.916.145-2.047.285-2.711.45-.859.209-2.446.405-1.795.678-.405 0-.784.05-1.125.075-1.644.146-2.529.342-2.529.565 0 .101.184.195.557.303.145.038.145.089.209.133-.683 0-1.265.057-1.985.057h-.304v.14c.375.012.749.046 1.119.101.168.04.331.1.487.177.189.158 1.372.304 1.005.462-.366.158-.196.272.537.393-.31.076-1.157.152-.038.234l.948.096c.778.094 1.164.158 1.164.221s-.393.127-1.164.202l-.467.039c-1.429.139-.98.285-.089.43.082.076.057.152.177.222a.987.987 0 0 0 .379.114c.234.04.471.065.708.076l.386.05s0 .057-.114.064l-.98.069c-1.864.153-2.225.342-1.346.634.44.125.891.206 1.346.24l.6.089c.083.051.519.095.519.152 0 .057-.164.063-.689.095l-.43.032c-1.346.12-1.359.304-.138.513.498.126-.829.139-.993.215.35.049.703.068 1.055.057h1.378c1.012 0 .784.108-.746.228h-1.403a9.694 9.694 0 0 0-1.896.076c-.234.095.695.12 1.22.164 1.188.083 1.1.172.152.267-2.466.221-2.472.259-.139.443.131.01.261.035.385.076-.53.202-1.511.399-.677.633-.182.089.178.158.519.235.695.158 1.492.323.632.506a5.06 5.06 0 0 0-1.138.102c-.682.151-1.403.31.121.449 1.523.14 1.264.266-.083.399a4.061 4.061 0 0 0-.922 0c.434.106.882.14 1.327.101l1.353.102c.575.057.84.095.84.145 0 .051-.252.101-.695.178H326.075a18.656 18.656 0 0 0-2.218.063c-.057.108 1.453.076 2.25.121.101.037.632.088.101.113-1.366.064-.701.127-.088.191l.985.094h.19c0 .222 1.327.285 2.826.33.414.063.823.154 1.226.272.284.082.524.152.373.235-.708.101 0 .17.594.202 2.035.102 1.732.273 1.081.462a3.945 3.945 0 0 1-.67 0 2.846 2.846 0 0 0-.632.045c-.405.051-.601.114-.601.164 0 .051.208.121.632.178.423.057 0 .322 1.176.436l.752.089s.032.038 0 .045c-2.851.19-3.533.431-2.319.791l.316.045c.415.097.838.16 1.264.189 0 .089 1.567.159.271.267-1.896.158-2.086.335-.701.576.277.057-7.054.094 3.014.12 10.07.026 20.075.057 20.075.108h.917a9.757 9.757 0 0 1 2.028.076c.077.127-1.264.133-2.092.171h-.593a9.86 9.86 0 0 0-1.897.07c-.252.094.632.126 1.157.164 1.163.082 1.264.165.277.266-.227 0-.505 0-.682.051-1.694.202-1.7.215.278.38.494.044.399.088.404.145-.865.229-1.087.463-.334.703.582.133 1.365.267 1.365.405 0 .14-.151.134-.537.21a4.716 4.716 0 0 0-1.359.151v.033c-.911.189-.184.316 1.201.423.512.102.423.197-.336.286a6.242 6.242 0 0 0-1.352.051c-.12.088.632.12 1.296.132.512 0 1.005.063 1.422.108.315.023.626.078.93.165-.705.118-1.417.172-2.131.158-.872 0-1.84 0-2.692.063a53.18 53.18 0 0 0 2.85.114c.12.02.238.049.354.083h-.107c-1.852.101-.582.158.202.228 1.781.182 3.57.273 5.36.272 2.667.07 5.531.12 6.535.146.73.052 1.456.15 2.175.291.74.166 1.497.255 2.256.266h.317c.884.031 1.82.05 2.635.094 2.345.127 12.964.261 15.643.28.632 0 1.359 0 1.359.132-.512 0-1.036 0-1.542.039-.505.037-1.637 0-1.346.114a9.345 9.345 0 0 0 1.77 0 96.066 96.066 0 0 1 3.065-.077l-2.812.152c-11.688.634-41.155 1.178-52.873.874a7.908 7.908 0 0 1-5.511 1.343c-1.012-.095-2.036-.298-3.11-.5-1.429.493-2.895.443-4.317 1.007 1.435.184 2.838.164 4.19.867.045.779.045 1.076-.518 1.419-1.858-.095-3.71-.241-5.568-.317a42.894 42.894 0 0 0-5.007.044c1.675.254 3.338.576 5.007.874 1.264.228 2.528.438 3.792.596-.221.341-.632 1.082-.076 1.178.683-1.369 1.992-1.039 3.041-1.229a2.33 2.33 0 0 1 1.203.399c.357.241.641.576.819.969-2.13.741 2.465 1.153.316 1.754.765 1.216-4.974 1.033-3.894.887 1.391.177 2.765.31 4.122.398 2.635.166 12.009.159 14.759.039 4.158-.184-2.788-.431 1.39-.241.86 0 .922.5 1.896.437 4.349-.266 6.321-.52 10.745.279-.451.004-.9.04-1.346.108a9.717 9.717 0 0 1 1.896.151h.24l.221.038c2.169.355 4.867.836 7.206.115a47.758 47.758 0 0 1-5.36-.298c1.966.051 3.938.165 5.91.285.834-.786 1.706-.729 2.667-.697-.246.342-.138.57 0 .944a16.12 16.12 0 0 0-3.097.462l.518.146c-1.447 0-2.907-.045-4.355-.064a3.55 3.55 0 0 0-.998 0h-2.377c-3.894-.05-16.073-.526-19.967-.31-6.257.354 9.797.26 3.565.266a20.87 20.87 0 0 0-5.575.526c-.385.031-.77.044-1.15.05-3.161.07-6.258-.348-9.329.374a12.285 12.285 0 0 0-2.997 1.133h-.031.031l-.145-.107c-.518-.349-1.712 0-2.256.722l-.221.057c-.632.145-2.074.469-2.813.633.158 0 3.615.051 8.451.076l9.329.051c10.859.07 11.333.184 11.333.436a.092.092 0 0 1 0 .033.236.236 0 0 1 0 .075c0-.088.031-.355-.095.33-.038.189-.884.355-2.307.493 17.648 0 21.832 0 35.067-.044.531 0 1.087-.05 1.612-.044 0 0-.063 0 0 0s.132 0 .196-.038c.332-.035.66-.103.98-.203.135-.038.276-.064.417-.076h1.314c.433.126.874.215 1.321.267 4.937 0 9.861 0 14.791-.045.237-.013.472-.052.701-.114 2.27.114 21.105.209 23.387.26 1.264 0 2.528 0 3.792.044a8.461 8.461 0 0 0-.518.424.853.853 0 0 0-.127.165c-2.882-.152-22.343-.399-25.238-.215-6.277.405-12.571.285-18.836.322a20.607 20.607 0 0 0-5.593.552 27.288 27.288 0 0 1-3.66-.165c-.543-.045-1.081-.102-1.618-.139-2.825-.228-5.607-.191-8.267 1.899h-.045c-.133-.095.222.109-.17-.132s-9.905-.083-10.328.76l-.247.069c-.6.165-2.086.488-2.819.634-.499.094-.702.101-1.005.576 0 .05 0 0 0 0a.314.314 0 0 0 0 .075c0-.101 0-.252-.119.343-.367 1.532-.677 1.266 1.82.937 2.616-.38 14.537-.139 17.533-.177 2.996-.039 6.321 0 9.418 0v.272l-7.844.488c.354.211.752.334 1.163.36 6.472-.101 12.907-.094 19.372-.171 1.991 0 3.983-.05 5.98-.063v.057s.038 0 0 .057-1.207.868-.961 1.039c-.062.051-.126.082-.183.126 5.53.177 27.641.361 33.177.532l-2.755.177c.354.209.752.331 1.162.355 4.425-.057 8.849-.082 13.274-.088-.05.88.284 1.146.866 1.304h-.196l-.86.063c-3.3.233-6.597.495-9.892.786a.782.782 0 0 0-.29-.164.624.624 0 0 1 0 .183c-.165 0-.316.044-.481.044-2.528-.056-4.974-.126-7.503-.19-3.261-.076-23.133-.127-26.382-.633-.973 0-2.01.057-2.945 0h-.133l-.209-.044a20.712 20.712 0 0 0-4.804-.216h-.05a2.864 2.864 0 0 1-.74 0c-.379-.075-.834-.449-1.163 0l-9.998.254-3.091.076-.215-.076a1.442 1.442 0 0 0-1.264 0 1.72 1.72 0 0 0-.317.247 1.96 1.96 0 0 0-.24.259h-.113c-.342.057-1.448-.184-1.675.399.388.215.82.338 1.264.361 7.236.444 14.455.311 21.679.488 1.448 0 2.895.076 4.342.145.677 0 1.353.045 2.017.089-.063 0-1.264.064-.43.14 1.069.101 1.353.145 2.8.202 1.448.057 20.953.121 22.685.165.301.117.566.309.771.557a1.153 1.153 0 0 0-.347-.545c1.98.051 3.959.123 5.935.215-.26 0-.519 0-.733.21a3.995 3.995 0 0 0 1.099-.26l1.018.038a.62.62 0 0 1 .099.292.607.607 0 0 1-.049.303 28.576 28.576 0 0 1 5.942.07c1.555.184 2.016.405 3.356.633h-9.651c.114.197.303.355.189.633h-2.099c-.075 0-.132-.075-.202-.107.468-.101 1.081.107 1.391-.5a58.07 58.07 0 0 0-6.011.373c.121.015.242.036.361.063h-1.297c-3.356 0-23.222-.031-26.546-.208-5.733-.304-11.472-.78-17.249-.184a7.675 7.675 0 0 1-2.611-.184c-1.131-.379-1.536-.221-2.528.279.157.223.331.435.518.634l.063.063-1.365-.076c.17.122.294.299.355.5a1.79 1.79 0 0 0-.854-.526c-1.896-.057-5.126-.12-6.706-.177-1.581-.057-1.897-.088-3.072-.178-.582-.057-.265-.101.057-.126l-2.035-.102c-4.557-.202-.544-.227-5.101-.259l.329-.196c-1.745-.235-2.94-.69-2.712-1.558 1.346.386-.304.481 2.927.266.407-.019.815-.059 1.219-.121h.184c.594-.145 1.264 0 1.953-.595a.73.73 0 0 0 .113-.095c1.776-.975 5.057-1.463 6.82.057-1.536-1.362-3.002-1.545-4.993-1.564-.253 0-1.555 1.33-2.047 1.14-.039 0-.033-.001 0 .051a.677.677 0 0 0-.127-.089 1.96 1.96 0 0 1-1.087-1.096c-.512-1.564-1.985-1.374-3.085-1.02h-.171a9.852 9.852 0 0 1-1.517.039l-.057-.039a.819.819 0 0 0-.777 0c.082 0 .051.083-.632.565-1.498 1.038 2.964 1.411 1.043.132l-.127.076-.277.032a20.55 20.55 0 0 0-2.352.399 6.17 6.17 0 0 0-.55.152h-22.413a6.82 6.82 0 0 0-.809.044c-1.1.127-2.086.976-3.047 1.502l5.689.075a8.791 8.791 0 0 0-2.44.405 12.11 12.11 0 0 1-3.995.52 6.662 6.662 0 0 0-2.957.513l.081.069c.541.27 1.136.406 1.739.4.601-.039 1.34-.19 1.397.43.632-.07 1.264-.165 1.966-.285 3.198-.209 24.714-.342 27.665-1.9h.48a1.301 1.301 0 0 0-.43-.056 12.812 12.812 0 0 0 1.473-.913c.038.05.095 0 .127.063.031.064 0 .21.051.279l-.051.045h-.032c-.04.04-.082.078-.126.114-1.631 1.418-.259 1.855 1.112 1.963-.878.398-1.804.68-2.756.836-1.675-.076-21.825-.184-23.5-.336-2.003.24-4.007.386-6.011.532a.531.531 0 0 1 0 .126c.632.59.81.824 1.416.793.2-.008.398-.034.595-.077.277-.044.568-.107.852-.164 1.714-.342 22.053-.697 23.709.228a.21.21 0 0 0 0 .05c.035.237.107.465.215.678.278.551.544.696-1.447.462a13.793 13.793 0 0 0-4.469.703l-.297.102c.132 0 .202.044.202.069a4.956 4.956 0 0 1-1.548.159c-.999.044-2.421.075-4.109.101-2.61.037-5.853.057-9.152.057a3.196 3.196 0 0 0-1.157-.064.623.623 0 0 0-.126.064h-5.468c-4.234 0-7.837-.07-9.329-.121h-.392c.089.038.234.101.392.184.456.209 1.024.551.898 1.02.284 0 3.723.038 8.431.063l12.041.045h6.41a2.62 2.62 0 0 0-.948.474c-.222.172-.19.33-.051.457.334.221.724.342 1.125.348.063 0 .392.044.487 0-1.6.753-3.192.241-4.836.139-1.169 1.311-3.394.266-4.702.297-3.205.09 11.061.634 7.907 1.159 1.677.205 3.369.257 5.056.159h1.195a3.308 3.308 0 0 1-.183.336 1.648 1.648 0 0 1-.272.329c-.23.204-.496.365-.784.475a2.223 2.223 0 0 0-2.421.735c1.34-.06 2.683.014 4.008.221.341.051.682.108 1.023.178-2.604.766-5.056 1.126-7.654.589h-.133a40.102 40.102 0 0 1-7.648.823 4.112 4.112 0 0 1-1.675.918c-1.264.329-2.527.082-3.836 0a9.274 9.274 0 0 1-3.293 1.855c.771.089 1.542.045 2.306.209a6.742 6.742 0 0 1-4.474 2.096c.266-.265.569-.456.847-.708-1.643.16-3.248.588-4.753 1.266a4.163 4.163 0 0 0-.443-.07c-.758-.063-1.51.083 0 .324.228.037.506.069.841.114 2.048.24 3.938.329 5.783.474 2.389.128 4.75.571 7.022 1.318l.468.17h-1.46l.114.064-1.194-.089h.063a37.46 37.46 0 0 0-7.433.19c.22.032.442.076.663.089.044 0 .031-.076.07-.07.183 0 .36.121.549.133 1.517.089 3.016.001 4.476.52l.22.088c-.827 0-1.655 0-2.49-.064a237.5 237.5 0 0 0 4.21.305l1.264.082-.17-.038h1.757c-.076.063.234.076-.121.133 2.845-.038 5.607 0 8.331.038h.101l.133.051c1.536.031 2.301.038 2.528 0 5.36.158 1.568.45-2.743.759-4.924.361-10.517.742-3.843 1.001h.335l3.495.12c3.072.108 6.404.203 9.798.311 2.895.088-11.466.184-8.577.285h9.158l-10.379.05h-6.421 16.288-6.699c1.434.057 2.843.108 4.215.171l-.582.045c-3.28.329 11.706.601 9.728.842-4.127.494-6.763.843-13.596 1.266.032 0 0-.044-.259.057-.467.197 1.39.305 2.225.273-6.321.633-1.498 1.223 7.338 1.267h1.315c-.772.094-1.55.115-2.326.063h-.202l-.759.095c-1.839.222-8.849.545-14.62.779l-7.306.298c-.891.107 5.157.265 4.507.348a85.893 85.893 0 0 1-3.49.379c-1.131.102-2.414.228-3.665.374a.55.55 0 0 1-.184.152 1.545 1.545 0 0 1-.36.14c-.752.104-1.51.161-2.269.171-.335.044.752.988-2.459 1.767a20.649 20.649 0 0 0-4.058.734h.032l-.385.108c-.93.273-.728.576.385.519 1.371.38 2.737.792 4.153 1.108a8.02 8.02 0 0 0 1.434.133c1.365.064-.303.387.803.279h.038c.417.108.822.209 1.264.285.232.046.466.078.702.095.366.038.746.057 1.124.077.26 0 .532-.001.797.037l2.118.07c8.431.728 1.188.367 9.638.633.88 0 1.771 0 2.656.044h2.11c-.935 0-21.775.089-21.224.101h.84c.999 0 1.998.052 2.997.07 1.478.039 2.964.064 4.424.114l2.276.057c11.313.171 6.902.526 18.215.742 1.789 0 3.312.088 5.107.107l1.72.031h.84c.405 0 .815-.031 1.22-.057 1.467-.076 2.927 0 4.393 0-.386.14-.272.261.038.381 0-.127.05-.254.07-.381h.556c.335-.031.632-.088.985-.145 1.724.236 3.466.309 5.203.215a28.6 28.6 0 0 1 3.735.203c2.712.19 5.43.266 8.148.304.281.053.566.084.853.095.161-.014.321-.037.48-.07h1.978a1.533 1.533 0 0 0 0 .532h-.082c.064 0 .088 0 0 0h-.246l-.632.07c-4.198.462-8.418.686-12.642.671a1.968 1.968 0 0 1-1.523-.918v-.152c0-.095-2.446-.823-3.065-.209 0 0-.051-.051-.07-.063-.348-.121-.683-.279-1.024-.419a7.104 7.104 0 0 0-1.965.508h-.083c-.196.031-.777.158-.961.468h-.113l-.487-.038c-1.346-.101-5.385-.494-7.281.234a10 10 0 0 1-3.717.507 6.876 6.876 0 0 0-2.946.494l.083.076a3.72 3.72 0 0 0 1.726.405c.739-.044 1.668-.253 1.333.969.234.234 1.201.405 2.452.532h.254c2.799.266-1.732.304-.981.165.279-.045.57-.108.867-.165h4.689c.176.072.347.155.512.247 0 0 0 .139.057.279.19.88 1.15 1.222-1.264.899-1.156-.152-3.445.342-4.76.785 3.363.596 6.789.425 10.215.21l.082.081a7.327 7.327 0 0 1 1.144 1.673h-.12l.493.05c1.061.102 3.274-.215 4.76-.102 1.106.083 2.843 1.4 3.792-.069 0 .076.202-.038.082-.126a.878.878 0 0 1-.082.12c0-.045.082-.171.36-.431.739-.671 3.47-.703 4.772-1.019.389-.029.78-.029 1.17 0 1.561.949 2.338.278 3.861-.298h.152-.044a.868.868 0 0 0 .189-.045c.632-.171 2.99-.848 3.616-.069 1.075 1.349 1.896.931 3.16.905 1.265-.025 2.762 0 3.932-.107 1.846-.108-1.719-1.203 1.264-.697 2.642.443 21.187.596 23.766.139-.045 0-.083 0-.063-.057.347.241 1.447.843 1.75.672 1.833-1.026 4.216-.786 5.809-.817 1.176 0 1.473.095 2.105-.849-.076 0-.031 0 0-.031 1.182-.849 2.3-.792 3.615-.861.432.004.861-.073 1.265-.228.229-.095.452-.203.669-.324.145-.082-29.037-.164-28.949-.234H449a2.332 2.332 0 0 0-.329-.405c1.176 0 2.351.032 3.534 0a8.834 8.834 0 0 1 3.248.354c.305-.008.608-.03.91-.07a72.358 72.358 0 0 1 7.667.096h-37.253a.273.273 0 0 0 .101.234h31.072c2.711 0 5.398-.051 8.065-.171a226.48 226.48 0 0 0 5.954-.342 91.98 91.98 0 0 0 2.983-.24c.993-.102 1.96-.166 2.927-.292a271.49 271.49 0 0 0 3.906-.456m-109.209-97.673a44.05 44.05 0 0 1-2.098.589c-.24.057-.525.14-.765.222a6.09 6.09 0 0 0 .051-.633c.208-.988.853 0 1.378-.146a3.339 3.339 0 0 0 2.187-.634c-.095.52-.323.475-.753.602zm15.012-.766a1.6 1.6 0 0 1 .19.855l-.689.032-.917.05a17.691 17.691 0 0 1 1.542-1.114c.253-.158.386-.235.279-.583v-.031c.366.392-.108.62-.405.791zm17.932 49.581-.196.051c-.632.145-2.061.462-2.857.633a2.171 2.171 0 0 0-.752.24 5.157 5.157 0 0 1-1.972-.481 20.42 20.42 0 0 1-4.703.469c-.255.016-.51.016-.764 0a19.032 19.032 0 0 0-6.322-.101c-.789.113-2.604.297-2.566-.76h-.075.309c.759-.051 1.934 0 2.971 0 5.626 0 11.377-.033 17.066-.045a.804.804 0 0 1-.139-.006zm-31.66 52.563a7.589 7.589 0 0 0-.803-.247 21.913 21.913 0 0 0-2.396-.291 5.117 5.117 0 0 0-1.378.152c.215-1.66 1.846-1.21 3.053-1.204 1.075.073 2.156.038 3.224-.107h.632c-.828.512-1.757.683-2.332 1.697zm89.955-104.126h-1.725c.569 0 1.15-.007 1.725 0zm48.037 1.975c2.927-.633-46.431-.633-43.663-.975 2.029-.221 2.92 1.014 4.759 1.001a13.553 13.553 0 0 0 1.897-.184c1.384-.031 2.768-.031 4.159-.031 1.883.314 3.805.314 5.689 0h1.099c2.036.044 4.103 0 6.15 0 .259.028.52-.002.765-.089a3.628 3.628 0 0 0-.765-.057c.101-.038.355-.083.355-.114s-.178-.057-.784-.063h-5.341l.474-.108.701-.152h.992l-.726-.038.632-.114h3.457c.347.089.702.254 1.005.311 1.942.311 3.92.327 5.866.044h2.604c1.839 0 2.863-.077 2.97-.298h3.072c.72.38 1.505.621 2.313.709.962.051.828 0 .468-.709 1.688 0 3.369 0 5.057.07-.992.088-2.098.044-3.116.07-.398 0-.822 0-.778.088.254.054.513.073.771.057 1.328 0 2.674.05 3.932 0 1.903.396 3.848.556 5.79.475-.883.107-1.774.134-2.661.083a27.65 27.65 0 0 0-5.272.151c-.329-.057-.632-.114-.979-.145h-.556l-.051-.38c-.31.114-.449.234-.063.38H509.697c-.442 0-1.422 0-2.035-.063a17.917 17.917 0 0 0-1.22-.057h-2.567c-1.8 0-3.621.114-5.422.138-4.115.057-8.217.153-12.345.254a125.253 125.253 0 0 0-11.959-.07c-2.312.101-4.544.121-6.876.114l-6.03-.044c-.139 0 52.462 0 52.348-.044a14.054 14.054 0 0 0-1.934-.096h-.329zm-25.655-3.774h1.776c-.802.215-1.605.425-2.415.634.259-.254.468-.469.683-.634zm-2.092 3.117c2.199 0 4.425-.052 6.618 0l-1.214.379a4.74 4.74 0 0 1-1.719.108c-.373 0-.784-.082-1.176-.076a11.428 11.428 0 0 1-2.32-.196 9.95 9.95 0 0 0-.631-.114c.17-.057.328-.07.486-.101zm-4.046.702c.041-.245.164-.468.348-.634h1.751c.089 0 .183.064.265.102a2.473 2.473 0 0 0-.36.152l-.284.146h-.456c-.379 0-.815.044-.771.095.297.06.601.08.905.057a2.98 2.98 0 0 1-.443.171h-1.39a5.15 5.15 0 0 1-1.221-.405c.595.076 1.157.183 1.701.316zm-4.209-1.754c-.534.206-1.083.366-1.644.481-2.888 0-5.783.209-8.671.361h-.127c3.477-.5 6.953-.703 10.442-.842zm-19.367 2.533h.108zm-12.515 3.477h-.044.076s-.025.006-.038.012zm-9.165-4.604h-1.984l-1.366.044a26.567 26.567 0 0 0 3.262-.5c4.785.319 9.588.319 14.373 0 3.363-.178 6.656-.222 10.012-.095h-.044l-3.603.063c-6.953.152-13.81.349-20.656.5zM402.03 656.433h-.259c-.372.033-.682.07-.922.102-5.025-.196-10.037.272-15.062.583-.375.08-.743.187-1.1.323-1.466-.158-3.104 0-4.336-1.008h-.032a3.582 3.582 0 0 1-.79-.943c1.356.076 2.715.076 4.071 0a58.16 58.16 0 0 1 9.734 0c2.24.239 4.504.148 6.718-.266 3.211-.215 22.919-.5 26.048-1.798h.771c-.828 1.386.765 1.38 1.479 1.52-3.325 1.095-20.707 1.064-26.307 1.5z" fill="url(#h)" style="fill:url(#h)"/><path style="mix-blend-mode:multiply;fill:url(#i)" opacity=".3" d="M558.974 611.206c-.037 0-.114.057-.151.088l.284-.114c1.858-.754 3.926-1.722 6.226-2.799 9.708-4.579 22.122-11.437 26.781-18.245.334-.444.632-.919.929-1.393l-.633 1c-9.481 15.453-23.14 29.037-39.668 39.822a143.685 143.685 0 0 1-16.142 9.176h-.07c-22.837 11.291-49.732 17.802-78.554 17.802h-31.085a.246.246 0 0 1-.07-.089l14.228-.336a1.473 1.473 0 0 1-.512.425h-38.498c5.606-.437 22.982-.412 26.299-1.463-.707-.14-2.307-.127-1.478-1.52h-.772c-3.128 1.305-22.829 1.584-26.047 1.805a22.908 22.908 0 0 1-6.719.259 58.16 58.16 0 0 0-9.734 0 33.294 33.294 0 0 1-4.07 0c.209.36.478.682.796.95h-20.908c-1.264-.127-2.213-.304-2.453-.538.342-1.222-.594-1.013-1.333-.969a3.745 3.745 0 0 1-1.726-.405l-.083-.07a6.786 6.786 0 0 1 2.952-.5 10.04 10.04 0 0 0 3.717-.507c1.896-.721 5.929-.335 7.275-.234l.487.038c.04.006.08.006.119 0 .178-.31.759-.431.962-.468h.082a7.19 7.19 0 0 1 1.966-.507c.34.139.682.297 1.03.424 0 0 .05.07.063.057.632-.633 3.065.209 3.065.209a1.042 1.042 0 0 0 0 .158 1.901 1.901 0 0 0 1.523.918c4.224.022 8.445-.202 12.642-.67l.633-.064c-.039 0-.045 0 0 0H390.566c.108 0 .077 0 0 0a.231.231 0 0 1 .083 0 1.486 1.486 0 0 1 0-.532c-.671 0-1.296-.05-1.979 0-.16.032-.323.056-.486.07a4.808 4.808 0 0 1-.847-.096c-2.718-.037-5.436-.107-8.148-.303a29.425 29.425 0 0 0-3.742-.203 27.422 27.422 0 0 1-5.202-.209c-.328.057-.632.108-.979.139-.183 0-.373 0-.556.032 0 .127-.044.253-.07.38-.316-.127-.424-.241-.044-.38-1.467 0-2.927-.063-4.387 0-.41 0-.815.044-1.226.051h-2.56c-1.795 0-3.318-.076-5.107-.114-11.307-.216-6.902-.57-18.209-.741l-2.283-.058c-1.479-.044-2.957-.075-4.424-.107-1.005 0-1.997-.044-2.996-.075h-.841c-.549 0 20.289-.077 21.219-.102H345.671c-.892 0-1.776 0-2.661-.045-8.445-.247-1.201.121-9.633-.633l-2.118-.076h-.795c-.38 0-.766-.044-1.132-.075-.24-.026-.475-.057-.701-.096-.43-.076-.841-.177-1.265-.285h-.038c-1.1.108.569-.208-.802-.272a8.668 8.668 0 0 1-1.429-.139c-1.416-.317-2.781-.722-4.153-1.102-1.118.05-1.314-.254-.385-.519a3.28 3.28 0 0 1 .379-.108h-.032a20.119 20.119 0 0 1 4.065-.741c3.204-.773 2.123-1.723 2.452-1.767a19.782 19.782 0 0 0 2.269-.164c.127-.031.248-.08.36-.146H445.24c3.268 0 6.542-.089 9.778-.266.16-.016.321-.016.48 0 14.065-.709 34.215-3.028 46.932-6.713h.189c.135-.048.272-.088.411-.12.297-.09.594-.146.854-.235 13.722-4.04 19.72-9.658 31.21-16.548 18.672-11.203 34-25.819 44.448-42.696a100.639 100.639 0 0 0 7.148-13.876v-.038h.039c.101-.023.2-.055.296-.095a52.52 52.52 0 0 0 5.525-1.957 48.887 48.887 0 0 0 12.49-7.308c-.01.028-.02.056-.032.082-2.453 6.441-14.835 35.939-38.942 51.791v.031a66.73 66.73 0 0 1-7.092 4.124z" fill="url(#i)"/><path d="m250.601 645.964 67.219 6.282-.227-13.141-30.902-.754 30.909-.57.006-2.66-50.028-.804 34.372-.316-15.252-.298 30.908-.57.019-6.244-46.369-.792 42.368-.418-2.983-.145 6.99-.628.019-7.39-5.044-.253 3.584-.165-43.486-.463 34.328-.145-9.286-.146 19.904-.285.012-5.414-30.901-.754 19.07-.285-19.07-.38 27.786-.412-3.862-.19 3.565-.474 3.419-.21.006-2.304-7.091-.469 4.057-.254-27.867-.69 30.908-.57.013-5.889-30.903-.76 30.909-.571.006-2.659-50.028-.804 34.372-.311-15.246-.304 30.902-.57.019-6.238-46.369-.797 42.368-.418-2.983-.147 6.99-.626.019-7.391-5.044-.253 3.585-.165-43.487-.462 34.328-.146-9.286-.145 19.904-.285.013-5.415-30.902-.754 19.07-.285-19.07-.379 27.786-.412-3.862-.19 3.559-.475 3.425-.209.006-2.306-7.091-.468 4.057-.247-27.867-.697 30.908-.57.037-15.82-67.219 5.884z" fill="#e9603e"/><path d="m273.627 550.554-23.026 1.836v93.594l51.298 4.332c.76-3.844 1.3-7.728 1.618-11.633l-16.844-.33 16.895-.253c.088-1.096.145-2.191.176-3.274l-36.191-.513 34.371-.31-15.239-.298 17.066-.254a56.013 56.013 0 0 0-.303-6.877l-32.236-.475 32.134-.316a37.687 37.687 0 0 0-.916-4.864 41.226 41.226 0 0 0-1.264-4.022l-28.532-.26 28.399-.126c0-.038 0-.069-.044-.114l-3.313-.051h3.288a49.016 49.016 0 0 0-2.769-6.193l-11.504-.235 11.289-.165c-.05-.088-.101-.189-.152-.272l-11.143-.221 10.929-.165a61.392 61.392 0 0 0-2.939-4.68l-7.971-.158 7.774-.12c-1.731-2.49-3.59-4.794-5.442-7.056l-2.313-.044 2.251-.038c-1.025-1.266-2.055-2.483-3.06-3.743l-18.33-.253 17.97-.165a74.462 74.462 0 0 1-5.689-7.922l-8.622-.133 8.496-.082a43.776 43.776 0 0 1-4.254-9.354l-2.794-.032h2.788a44.307 44.307 0 0 1-1.391-5.56 70.414 70.414 0 0 1-.461-19.201z" fill="#5c5c5c"/><path d="M262.505 592.557c-2.187.824-5.088 8.72-7.275 8.543a767.839 767.839 0 0 0-37.627-2.115 650.1 650.1 0 0 0-35.491-.12c-7.502.171-14.866 1.387-22.293 2.013-9.556.804-32.804-16.788-33.847-20.898-.196-.785-.246-1.646-.821-2.305-.633.519-.74 1.266-.968 1.995a24.597 24.597 0 0 0 1.017 17.705 24.53 24.53 0 0 0 12.655 12.402c6.953 3.084 14.24 3.235 21.648 2.374 8.988-1.045 17.565-3.996 26.408-5.699 4.21-.811 8.413-1.603 12.705-1.704 9.139-.215 21.844 2.254 25.351 11.937 8.578 20.367 25.384 35.351 32.666 35.838 1.65.114 2.421-.234 2.528-2.083.31-4.433.866-8.796 1.265-13.198.821-8.321 1.921-39.891 2.079-44.685z" fill="#bf1e61"/><path d="M259.451 546.899c-.234-.634-.158-1.267-1.049-1.463-7.415-1.672-14.304-1.121-20.17 4.433-3.824 3.597-5.903 8.271-8.217 12.824-3.754 7.372-8.021 14.331-15.801 18.239-3.003 1.096-8.078 3.964-17.016.753-7.287-2.615-36.306-20.619-56.203-16.136-7.231 1.628-12.894 5.104-15.865 12.166.531 20.677 25.118 23.995 34.675 23.191 7.427-.633 14.791-1.842 22.293-2.013a683.876 683.876 0 0 1 35.491.12c12.565.379 25.062 2.114 37.627 2.114 6.466 0 7.06-.955 7.06-1.266.069-7.618 2.161-39.182-2.825-52.962z" fill="#9b1b47"/><path d="M419.635 537.222c-.608.093-1.209.235-1.795.423-4.571.412-9.096-.841-13.444 1.844h-.209c-.373 0-1.719.171-2.2.683l-.195.07c-.93.3-1.876.551-2.832.747a1.065 1.065 0 0 0-.986.634.167.167 0 0 0 0 .063c0-.101.038-.329-.114.38-.303 1.438-.841 1.558 1.75 1.109 2.725-.469 6.404-.096 9.387-.153 2.27-.038 4.702.045 6.985 0-.19.039-.462.07-.632.089h-.393c-1.264 0-3.4 0-5.176.064-5.822.138-20.1.633-26.029.898-6.39.26-27.905.634-34.295.703a4.93 4.93 0 0 0-2.182.482c2.415.038 4.963.266 7.352.247 9.101-.063 41.381-.101 50.471-.918 2.464-.222 4.986-.076 7.458-.279 3.103-.044 6.206-.051 9.303-.064a.643.643 0 0 0-.239.203h-.051a.768.768 0 0 0-.771 0c.051 0-.038.114-.664.507a7.177 7.177 0 0 1-2.775.798c-.823.098-1.654.098-2.477 0a5.601 5.601 0 0 1-2.206-.671l-.095.056h-.183a14.943 14.943 0 0 0-3.116.596 5.947 5.947 0 0 0-.632.253c-.632-.076-1.328-.183-2.004-.253a10.073 10.073 0 0 0-1.941-.032l-.202.032c-1.264.241-2.402 1.4-3.527 1.754-.784.248-.556-.044-1.169-.33-.228-1.982-11.213-1.31-12.01-1.266-1.087.044-2.313-.158-2.23 1.406h-.253l-.456.044c-3.261.342-24.05.742-27.88.634a2.078 2.078 0 0 1-1.435-.932v-.037c-.063-.134.158.209-.038-.127-.417-.741-2.212-.487-2.958-.228 0 0-.056-.031-.076-.044a20.111 20.111 0 0 1-1.017-.431 3.624 3.624 0 0 0-1.953.494 2.52 2.52 0 0 0-1.05.482h-.094c-.399-.127.632.171-.437-.159a12.052 12.052 0 0 0-2.041-.361c-1.745-.165-3.938-.076-5.24.741-1.295.35-2.635.507-3.976.469h-.075a6.5 6.5 0 0 0-2.864.487l.089.083a3.94 3.94 0 0 0 1.713.399c.352-.058.71-.058 1.062 0 .284.101.435.354.265.956.752.76.885.912 1.991.728 1.896-.31 4.115-.835 6.03.096l.063.291c.215.924.999 1.209-1.264.886-1.087-.152-3.432.323-4.709.76 48.245 0 4.601.475 6.952.411 1.069-.031 2.143-.081 3.218-.145v.051c.042.083.073.169.095.26.158.493.43 1.658 1.068 1.494h.468c1.036.044 3.261-.221 4.722-.063 1.087.12 2.825 1.406 3.792-.038 0-.057.082-.184.36-.431.739-.633 7.483-.684 8.773-.994h12.117c1.542.95 2.313.291 3.83-.279h.051l.177-.038c.631-.171 11.212-.836 11.838-.057 1.081 1.349 1.896.937 3.161.919 1.264-.02 2.61-.045 3.881-.096 1.27-.051-.494-.988 1.643-.633 1.896.33 4.646.696 6.732.083 0 0-.033-.051 0-.038.353.228 1.434.842 1.744.671 1.821-1.026 4.19-.773 5.771-.804 1.163 0 1.472.088 2.092-.843-.076 0-.032 0 0 0 1.182-.836 2.287-.778 3.609-.855.432.011.861-.062 1.264-.215 2.371-1.007.929-1.438-.379-1.697-1.056-.21-5.057.937-4.299-1.704a7.988 7.988 0 0 0 4.495.139c.55-.139 1.536-.424 1.896-.519 2.478.146 4.721-.304 7.13-.139a7.383 7.383 0 0 0-2.636-1.267 11.391 11.391 0 0 0-2.427-.272 1.548 1.548 0 0 0-.531.272 6.598 6.598 0 0 1-1.523.887 1.227 1.227 0 0 1-.146-.057 1.557 1.557 0 0 1-.992-.861 1.248 1.248 0 0 1-.089-.241 1.805 1.805 0 0 0-.91-1.216h5.253c3.16-.044 6.409-.076 9.607-.089a.274.274 0 0 0 .108.057.628.628 0 0 0 .689-.057h22.115a1.816 1.816 0 0 0 1.094.177c.202-.05.19-.12.342-.177h10.744a17.35 17.35 0 0 0 3.71-.297c-4.474-.108-8.987-.045-13.481-.063 1.504-.368 3.014-.634 4.5-1.128h11.163a3.967 3.967 0 0 0-1.454.488l28.171 1.032a.791.791 0 0 1-.045.158c-.746.158-1.744.393-2.427.526-.575.114-.663.082-1.03.582l-.031.051a3.387 3.387 0 0 1-.468.323h86.29c0 .051-.032.095-.044.146-1.771 5.832-4.571 11.057-7.705 16.022l.29-.133a45.184 45.184 0 0 0 4.507-2.197 1.13 1.13 0 0 1 .158-.083v.064a.381.381 0 0 1 .101-.077h.12v-.057h.038c.998-.544 1.947-1.082 2.844-1.684.633-.412 1.265-.817 1.808-1.266.544-.45 1.264-.894 1.808-1.375l.821-.684c.277-.219.543-.451.797-.696.581-.513 1.131-1.045 1.662-1.552v-.045l.051-.044.044-.05c.436-.437.847-.874 1.207-1.305.215-.222.411-.437.582-.633.17-.196.36-.437.531-.633.36-.437.695-.849 1.011-1.267.316-.418.632-.867.891-1.267.26-.399.468-.69.683-1.032a32.753 32.753 0 0 0 3.085-6.149c.094-.24.189-.481.265-.697.139-.437.24-.798.31-1.063v-.216a.3.3 0 0 0 0-.146.955.955 0 0 0 0-.107.66.66 0 0 0 0-.089.39.39 0 0 1 .044-.108v-.05c.05-.077.05-.095.05-.095zm-15.802 13.476c-4.974-.209-18.216.234-23.203.513-.367.083-11.681.184-12.041.323-1.814-.209-7.926.082-9.159-1.995 1.334.076 6.744.114 8.078.038 3.205-.19 25.744-.291 28.866.057 2.223.249 4.47.17 6.669-.234 3.717-.215 7.205-.317 10.612-2.723.032.044.095 0 .127.063.031.063 0 .222.044.285a.299.299 0 0 1-.063.07 5.842 5.842 0 0 1-.259.316c-.676.836-.279 2.058 1.264 1.691-3.698 1.222-7.281 1.007-10.948 1.596zm107.995-7.264-.095.044-.151.076h-.057l-.038-.031c-.197-.12-.493 0-.721 0-.721.07-1.447.07-2.168 0l-.967-.197c-2.971-.595-8.457-.297-12.401-.361-3.16-.044-7.585-.335-10.884-.291 2.243-.038 4.614 0 6.89 0a14.681 14.681 0 0 0 2.938-.361H495.717c.427.151.871.255 1.321.31h14.759a7.248 7.248 0 0 0 1.308-.291c-.083 0-.196-.101.31.05.24.07.593.228.992.4-.883.134-1.751.353-2.592.652zm5.96-1.133a.113.113 0 0 0-.037-.064 2.57 2.57 0 0 1 .309-.374c.721-.734 4.153-.728 4.955.576-1.131-.36-3.172-.341-5.227-.138zm-40.319 3.28-.348-.082a15.784 15.784 0 0 0-4.791-.203h-.044a2.81 2.81 0 0 1-.733 0c-.386-.076-.841-.45-1.163 0-4.355.102-25.22.196-29.575.291-.739-.272-1.264-.348-1.826.216h43.056a35.382 35.382 0 0 1-1.637-.222c-.982.074-1.969.074-2.952 0z" fill="url(#j)" style="fill:url(#j)"/><path style="mix-blend-mode:hard-light;fill:url(#k)" opacity=".66" d="M585.704 564.917c-1.371 3.236-32.065 73.272-130.951 80.029-11.093.45-95.222-.677-95.222-.677l.272-.038c.632-.057.879-.089.961-.089h.089c1.13.037 2.261-.022 3.381-.178-.631-.12-.701-.398 1.347-.734.79-.127 1.896-.266 3.413-.405.784 0 8.369-.083 8.811-.26a.85.85 0 0 1 .291-.057l2.907-.158h.088l1.005-.07c7.143-.462 8.268-.931 17.762-1.786.176 0 .379 0 .632-.057l-4.608-.177c-7.844.031-8.723.031-13.621.031 3.641-.031 4.14-.088 10.966-.088-8.337-.26-17.104-.462-24.094-.716h-.38c-7.705-.266-6.522-.633-6.257-1.032a.11.11 0 0 0 0-.057c.044-.114-.044-.222-.581-.317a42.247 42.247 0 0 0-5.089-.323h5.796a.251.251 0 0 0-.151-.057 287.424 287.424 0 0 0-5.221-.051h-3.945c.38-.063.033-.063.147-.12h-1.954a.218.218 0 0 0 .095 0c-1.972-.114-3.925-.202-5.897-.373.904.057 1.833.057 2.711.057-1.662-.633-3.387-.469-5.139-.583a5.233 5.233 0 0 1-.632-.114c-.063 0-.031.057-.063.057a5.118 5.118 0 0 1-.727-.089 43.605 43.605 0 0 1 8.021-.177l1.315.089c-.031-.032-.057-.032-.12-.064h1.606a26.741 26.741 0 0 0-2.972-.785 34.05 34.05 0 0 0-1.934-.323c-3.115-.424-6.193-.431-9.683-.817a6.205 6.205 0 0 1-.96-.12v-.203c.178.006.355.026.531.057a17.04 17.04 0 0 1 5.126-1.197c-.291.235-.632.437-.898.703.864-.09 1.714-.29 2.528-.595a6.542 6.542 0 0 0 2.25-1.482c-.846-.146-1.693-.114-2.528-.203a9.545 9.545 0 0 0 3.527-1.811c2.067.114 4.203.583 6.011-.905a53.554 53.554 0 0 0 7.086-.583c-2.655-.032-7.086-.323-5.278-.817-1.605-.297-.518-.468.91-.411.758-.881 1.574-.881 2.598-.736a1.885 1.885 0 0 0 1.264-1.108h-1.403c-1.808 0 4.955.121 3.16-.158 3.407-.525-8.261-1.051-4.791-1.14 1.46-.032 3.913.994 5.139-.298 1.454.096-5.689.437-4.304.172.35-.064.691-.168 1.017-.311h-.556a1.193 1.193 0 0 1-.189 0 3.005 3.005 0 0 1-1.006-.329c-.183-.127-.246-.279 0-.45 1.265-.905 2.889-.557 4.286-.355a2.13 2.13 0 0 1-.437.355c3.293-.088 6.561-.234 9.861-.412l3.16-.177c.203-.664-1.264-1.076-1.517-1.222-1.037.063-2.073.127-3.11.171a41.434 41.434 0 0 1-8.065-.342 21.53 21.53 0 0 1 2.661-.633 11.131 11.131 0 0 1 2.485-.184c2.742.291 1.636 0 1.37-.905v-.121a1.075 1.075 0 0 1 0-.139h-.031c-2.155-1.052-4.551-.412-6.649-.057-1.226.203-1.34 0-2.219-.703.322-1.197-.67-.995-1.485-.938-.379 0 6.99-.145 6.668-.411-.057 0-.088-.057-.113-.057 1.074-.469-6.498-.494-5.361-.494a13.89 13.89 0 0 0 4.349-.525c-.55.905.702 1.196 1.928 1.266-.234.089 1.631.177 4.633.234a.769.769 0 0 0 .032-.265c.379.057 2.162.088 3.969.12a2.073 2.073 0 0 1-.967-.355.855.855 0 0 1-.291-.348l1.732.108c1.675.101 3.451.183 5.227.259 1.953.082 3.919.152 5.758.216a4.366 4.366 0 0 0-1.22.443v.057h2.301-2.244c.183.197.377.383.582.557-.582-.032-1.226-.032-1.808-.058.096-.166.174-.342.234-.525h-1.005 1.049c-.758-.12-1.517-.234-2.275-.386a1.313 1.313 0 0 0-.38.412h-.764c-2.263-.032-4.425-.083-6.384-.108.327.059.648.145.96.259l1.897.089a31.863 31.863 0 0 1-3.3 0c.255.349.56.658.904.918l.228.165h-.278a19.219 19.219 0 0 1-3.704-.235 9.59 9.59 0 0 0 2.143.4l1.264.126a1.178 1.178 0 0 0-.411.88c.49-.094.987-.144 1.485-.151.882.044 1.76.144 2.63.298.306.049.609.126.904.227.227-.405-.632-.696-1.897-.899.815.114 1.662.114 2.478.171.411-.114.79-.235 1.201-.323 3.792-.234 7.585-.494 11.377-.672-1.807.033-3.616.09-5.398.033 1.315-.147 2.623-.267 3.938-.381a.547.547 0 0 0 .145-.057h.935c2.301-.177 4.672-.291 7.004-.5l-4.494-.089c.632-.057 1.308-.114 1.985-.228 1.017-.063-.632-.12-3.59-.208 5.6-.324 11.169.088 16.743.348 3.672.177 7.269.209 10.941.209h1.397l-.373-.057a60.625 60.625 0 0 1 6.53-.38c-.292.583-.993.38-1.486.493.071.046.15.076.234.09h2.275c.114-.267-.088-.406-.233-.634h10.555c-1.486-.177-1.978-.411-3.704-.582a33.814 33.814 0 0 0-6.473-.057.637.637 0 0 0-.088-.589h-1.106c-.39.128-.792.215-1.201.259.234-.234.5-.202.79-.234-1.712-.064-3.432-.114-5.151-.165a5.007 5.007 0 0 1-.519-.633c1.005-.5 1.41-.633 2.529-.278a7.966 7.966 0 0 0 2.598.183c5.752-.589 11.465-.12 17.179.183 3.344.178 23.127.21 26.471.203h1.264l-.354-.063a57.746 57.746 0 0 1 5.98-.368c-.303.634-.917.4-1.378.501.063 0 .12.108.195.108h2.093c.113-.266-.076-.425-.19-.633h9.614c-1.333-.197-1.795-.419-3.344-.602a28.73 28.73 0 0 0-5.922-.07.585.585 0 0 0 .055-.3.577.577 0 0 0-.1-.289l-1.017-.038c-.35.136-.719.222-1.093.254.22-.216.473-.178.733-.203a271.856 271.856 0 0 0-5.916-.215c.167.143.29.333.354.544a1.835 1.835 0 0 0-.778-.557c-1.719-.044-21.149-.108-22.59-.165-1.441-.057-1.719-.101-2.787-.203-.829-.075.367-.132.429-.139-.632-.044-1.339-.057-2.009-.089a164.437 164.437 0 0 0-4.324-.145 1.237 1.237 0 0 1-.215-.849c-4.848 0-9.627 0-14.468.083a3.552 3.552 0 0 1-1.264-.349l3.009-.177-7.876-.228-8.501-.298H439.659c.929.057 1.966 0 2.939 0 3.229.507 23.02.557 26.268.633 2.529.064 4.975.134 7.478.184.158 0 .316 0 .48-.037a1.412 1.412 0 0 0 0-.184.829.829 0 0 1 .285.164c3.287-.287 6.571-.549 9.853-.785h-32.033c16.434 0 32.514-4.902 45.143-14.408v-.031a62.819 62.819 0 0 0 5.372-4.522c3.464-3.242 6.384-6.725 8.109-10.279l1.423-.322c-.904 3.204-3.666 8.6-11.219 17.226-1.839 2.127-4.001 4.433-6.498 6.965a81.99 81.99 0 0 0 10.499-4.698c8.602-4.586 19.442-12.311 20.03-22.425.057-.977.016-1.957-.12-2.926-2.56-18.638-11.314-21.494-11.314-21.494s8.065-.963 15.346 15.484a30.343 30.343 0 0 1 2.263 7.536c2.307 14.92-8.786 25.686-14.904 30.323a43.626 43.626 0 0 1-3.748 2.532c.31-.088 2.155-.671 5.126-1.779 10.505-3.939 34.852-14.471 52.417-33.166a88.964 88.964 0 0 0 6.814-8.195c.847-.171 1.7-.367 2.529-.594a.258.258 0 0 0 .068 0l.633-.166c.316-.088.632-.177.961-.278.549-.158 1.1-.336 1.655-.52h.222z" fill="url(#k)"/><path style="mix-blend-mode:hard-light;fill:url(#l)" opacity=".66" d="M592.693 537.471s0 .348-.063 1.019a.242.242 0 0 1 0 .146c-.101 1.342-.36 3.831-.954 7.175a105.747 105.747 0 0 1-1.852 8.41 114.954 114.954 0 0 1-1.473 5.117.11.11 0 0 0-.057 0 .244.244 0 0 0-.069.101h-.076v-.051a49.695 49.695 0 0 1-5.126 2.559l.05-.075c3.161-4.966 5.936-10.191 7.705-16.023 0-.051 0-.095.044-.145.808-2.7 1.432-5.45 1.871-8.233z" fill="url(#l)"/></g><defs><linearGradient id="b" x1="197.132" y1="230.506" x2="575.096" y2="230.506" gradientUnits="userSpaceOnUse"><stop stop-color="#80CBD6"/><stop offset=".13" stop-color="#7BC4D1"/><stop offset=".32" stop-color="#6EAFC4"/><stop offset=".56" stop-color="#598DAF"/><stop offset=".82" stop-color="#3C5F92"/><stop offset="1" stop-color="#253B7B"/></linearGradient><linearGradient id="c" x1="197.132" y1="169.671" x2="600.359" y2="169.671" gradientUnits="userSpaceOnUse"><stop stop-color="#5E9AB5"/><stop offset=".14" stop-color="#5993B0"/><stop offset=".35" stop-color="#4D7EA4"/><stop offset=".4" stop-color="#4978A0"/><stop offset=".74" stop-color="#2A457C"/><stop offset=".75" stop-color="#29437B"/><stop offset="1" stop-color="#263469"/></linearGradient><linearGradient id="d" x1="198.397" y1="324.981" x2="602.863" y2="324.981" gradientUnits="userSpaceOnUse"><stop stop-color="#8461A6"/><stop offset=".14" stop-color="#7D5CA3"/><stop offset=".36" stop-color="#68509A"/><stop offset=".61" stop-color="#473C8D"/><stop offset=".75" stop-color="#322F84"/><stop offset="1" stop-color="#253B7B"/></linearGradient><linearGradient id="e" x1="555.819" y1="600.844" x2="227.771" y2="400.125" gradientUnits="userSpaceOnUse"><stop stop-color="#F8E820"/><stop offset=".05" stop-color="#F7E221"/><stop offset=".11" stop-color="#F6D224"/><stop offset=".19" stop-color="#F3B82A"/><stop offset=".27" stop-color="#F09332"/><stop offset=".35" stop-color="#EB633B"/><stop offset=".39" stop-color="#E94C40"/><stop offset=".54" stop-color="#C65363"/><stop offset=".72" stop-color="#A25B87"/><stop offset=".86" stop-color="#8C5F9E"/><stop offset=".96" stop-color="#8461A6"/></linearGradient><linearGradient id="f" x1="195.679" y1="414.028" x2="602.863" y2="414.028" gradientUnits="userSpaceOnUse"><stop stop-color="#8461A6"/><stop offset=".19" stop-color="#7D5CA3"/><stop offset=".48" stop-color="#68509A"/><stop offset=".82" stop-color="#473C8D"/><stop offset="1" stop-color="#322F84"/></linearGradient><linearGradient id="g" x1="325.686" y1="568.678" x2="863.259" y2="568.678" gradientUnits="userSpaceOnUse"><stop stop-color="#E94C40"/><stop offset=".22" stop-color="#EE7C36"/><stop offset=".47" stop-color="#F2AA2D"/><stop offset=".7" stop-color="#F5CC26"/><stop offset=".88" stop-color="#F7E122"/><stop offset="1" stop-color="#F8E820"/></linearGradient><linearGradient id="h" x1="317.075" y1="603.301" x2="605.095" y2="603.301" gradientUnits="userSpaceOnUse"><stop stop-color="#E94C40"/><stop offset=".22" stop-color="#EE7C36"/><stop offset=".47" stop-color="#F2AA2D"/><stop offset=".7" stop-color="#F5CC26"/><stop offset=".88" stop-color="#F7E122"/><stop offset="1" stop-color="#F8E820"/></linearGradient><linearGradient id="i" x1="320.002" y1="605.842" x2="605.09" y2="605.842" gradientUnits="userSpaceOnUse"><stop stop-color="#E94C40"/><stop offset=".22" stop-color="#EE7C36"/><stop offset=".47" stop-color="#F2AA2D"/><stop offset=".7" stop-color="#F5CC26"/><stop offset=".88" stop-color="#F7E122"/><stop offset="1" stop-color="#F8E820"/></linearGradient><linearGradient id="j" x1="333.585" y1="549.596" x2="854.174" y2="549.596" gradientUnits="userSpaceOnUse"><stop stop-color="#E94C40"/><stop offset=".22" stop-color="#EE7C36"/><stop offset=".47" stop-color="#F2AA2D"/><stop offset=".7" stop-color="#F5CC26"/><stop offset=".88" stop-color="#F7E122"/><stop offset="1" stop-color="#F8E820"/></linearGradient><linearGradient id="k" x1="337.15" y1="599.418" x2="589.579" y2="599.418" gradientUnits="userSpaceOnUse"><stop stop-color="#E94C40"/><stop offset=".22" stop-color="#EE7C36"/><stop offset=".47" stop-color="#F2AA2D"/><stop offset=".7" stop-color="#F5CC26"/><stop offset=".88" stop-color="#F7E122"/><stop offset="1" stop-color="#F8E820"/></linearGradient><linearGradient id="l" x1="186.382" y1="549.763" x2="592.693" y2="549.763" gradientUnits="userSpaceOnUse"><stop stop-color="#E94C40"/><stop offset=".22" stop-color="#EE7C36"/><stop offset=".47" stop-color="#F2AA2D"/><stop offset=".7" stop-color="#F5CC26"/><stop offset=".88" stop-color="#F7E122"/><stop offset="1" stop-color="#F8E820"/></linearGradient><clipPath id="a"><path fill="#fff" d="M123 44h485v617H123z"/></clipPath></defs></svg>