<svg xmlns="http://www.w3.org/2000/svg" width="500" height="500"><path d="M264 68c2.676.268 3.745.709 5.532 2.754 1.53 2.34 2.301 4.323 3.081 7l.835 2.812c.285.989.57 1.978.865 2.996.616 2.076 1.233 4.152 1.851 6.227l.93 3.153c1.335 4.508 2.702 9.005 4.094 13.496l.682 2.27c6.417 20.641 23.677 32.707 41.204 43.772 4.498 2.854 9.104 5.786 12.926 9.52v2l1.75.75c2.55 1.417 4.268 3.126 6.25 5.25l1.137-1.574c5.682-7.743 11.18-14.398 21.113-15.926 3.51.638 4.486 1.788 6.75 4.5.802 2.368.802 2.368 1.238 5.016l.535 3.005.54 3.229c1.614 8.821 3.547 17.41 6.125 26l.9 3.013c1.147 3.801 2.31 7.596 3.48 11.39 6.471 21.115 12.52 44.1 10.972 66.376-.518 10.532 2.452 18.339 6.46 27.846a950.666 950.666 0 0 1 3.516 8.617l.856 2.13c8.142 20.763 11.432 45.903 3.312 67.171-3.182 6.94-7.512 12.827-13.809 17.207-7.128 2.281-12.655 1.213-19.375-1.832C376 395 376 395 375 392a89.47 89.47 0 0 0-4-2l-1-2c-3.007 1.337-4.957 2.78-7.188 5.188-5.061 5.213-10.788 9.463-16.812 13.5-3.1 2.389-3.399 2.74-4 6.312l3.063-.188c6.008.287 11.03 2.768 15.937 6.188v2l1.742.742c2.64 1.47 4.31 3.188 6.383 5.383 6.644 6.797 14.087 12.457 21.875 17.875.083 3.33-.46 5.391-2.684 7.898-2.368 2.137-4.809 4.13-7.316 6.102l-2.48 2.043c-34.61 27.07-93.58 35.824-136.082 31.207-21.483-2.696-43.098-9.798-62.938-18.375-6.603-2.792-13.43-4.478-20.363-6.238-34.41-8.748-34.41-8.748-42.137-19.637-1.318-3.112-1.285-4.47-1-8 5.265-7.989 17.507-9.865 26.155-12.708C153.377 424.4 153.377 424.4 163 419l-1.582-.96c-5.908-3.746-10.943-8.08-16.035-12.868-2.38-2.279-2.38-2.279-5.383-4.172v-2h-2c-1.621-1.645-1.621-1.645-3.438-3.813-2.107-2.498-4.214-4.911-6.562-7.187l-1.031 1.828c-3.446 5.682-6.467 9.278-12.969 11.172-6.755.815-11.09-1.405-16.375-5.375-11.84-10.711-15.685-26.4-16.535-41.77L81 351l-.121-2.95c-.343-15.412 2.51-36.263 11.629-49.187 2.178-4.18 2.613-8.421 3.305-13.05A371.81 371.81 0 0 1 101 259.688l.78-3.325c.94-3.992 1.888-7.982 2.847-11.97 2.19-9.143 3.91-18.077 4.602-27.471.372-4.374 1.002-7.462 3.771-10.922 4.23-2.92 9.063-2.426 14-2a87.607 87.607 0 0 1 5 2c2.037-.11 2.037-.11 4-1 1.35-1.71 1.35-1.71 2.332-3.902l1.219-2.434 1.262-2.601c5.33-10.538 11.52-19.437 19.074-28.52a155.992 155.992 0 0 0 4.258-5.367L166 160h2c.235-.529.47-1.057.71-1.602 1.688-3.138 3.802-5.916 5.915-8.773 6.773-9.323 12.402-19.181 17.27-29.637 1.975-3.553 4.343-5.475 8.105-6.988 6.693-1.082 11.256.658 17 4l.816-1.777C223.69 104.195 237.6 90.237 249 85v-2h2l.813-1.938C253 79 253 79 256 78l.875-1.75c1.507-3.015 3.695-4.945 6.125-7.25l1-1Z" fill="#F96825"/><path d="M268 171c1.738.098 1.738.098 4 1a74.09 74.09 0 0 1 4.188 6.438c7.391 11.929 16.123 19.45 27.5 27.476C322.878 219.522 334.365 238.481 343 260a852.64 852.64 0 0 0 4.313-.438c.8-.08 1.6-.162 2.425-.246 2.423-.269 2.423-.269 5.262-1.316 1.209-2 1.209-2 2-4h4c3.81 10.955 1.816 22.226-.772 33.305-2.328 10.1-2.5 19.62-2.228 29.945.262 10.078.489 19.121-3 28.75l-.912 2.703c-2.221 6.421-5.8 11.102-10.088 16.297-2.312 3.22-3.375 6.159-4.438 9.938C337.495 382.12 334.096 386.61 328 391c-4.449 1.743-8.763 2.515-13.488 3.148l-4.33.61c-2.244.31-4.488.616-6.734.914-15.612 1.762-15.612 1.762-27.692 10.948l-1.256 1.692c-10.067 12.531-10.067 12.531-17.164 14.383-8.989.751-15.922-3.555-23.534-7.72-9.329-5.045-17.213-6.268-27.614-3.975-5.76 1.15-11.458 1.297-17.313 1.375l-2.82.078c-9.253.026-16.05-2.922-22.809-9.191-21.361-21.51-21.361-21.51-21.559-34.575.1-5.326.676-10.185 1.848-15.363 1.74-8.698.157-14.855-4.535-22.324a340.22 340.22 0 0 0-4-5v-3l6-2c1.15-6.09.928-9.304-1.75-15.063-6.488-14.937-9.528-32.625-3.508-48.203 10.618-23.083 30.4-37.619 50.964-51.17C194.779 201.21 201.96 195.63 208 188c4.633 2.317 6.187 10.256 7.75 14.938 1.469 5.057 1.55 9.832 1.25 15.062h2l.445-1.652c2.778-9.34 7.631-17.475 16.344-22.349 1.932-.949 3.88-1.853 5.836-2.749C251.961 186.287 260.95 180.204 268 171Z" fill="#FEBD00"/><path d="M264 68c2.676.268 3.745.709 5.532 2.754 1.53 2.34 2.301 4.323 3.081 7l.835 2.812c.285.989.57 1.978.865 2.996.616 2.076 1.233 4.152 1.851 6.227l.93 3.153c1.335 4.508 2.702 9.005 4.094 13.496l.682 2.27c6.417 20.641 23.677 32.707 41.204 43.772 4.498 2.854 9.104 5.786 12.926 9.52v2l1.75.75c2.55 1.417 4.268 3.126 6.25 5.25l1.137-1.574c5.682-7.743 11.18-14.398 21.113-15.926 3.51.638 4.486 1.788 6.75 4.5.802 2.368.802 2.368 1.238 5.016l.535 3.005.54 3.229c1.614 8.821 3.547 17.41 6.125 26l.9 3.013c1.147 3.801 2.31 7.596 3.48 11.39 6.471 21.115 12.52 44.1 10.972 66.376-.518 10.532 2.452 18.339 6.46 27.846a950.666 950.666 0 0 1 3.516 8.617l.856 2.13c8.142 20.763 11.432 45.903 3.312 67.171-3.182 6.94-7.512 12.827-13.809 17.207-7.128 2.281-12.655 1.213-19.375-1.832C376 395 376 395 375 392a89.47 89.47 0 0 0-4-2l-1-2c-3.007 1.337-4.957 2.78-7.188 5.188-5.061 5.213-10.788 9.463-16.812 13.5-3.1 2.389-3.399 2.74-4 6.312l3.063-.188c6.008.287 11.03 2.768 15.937 6.188v2l1.742.742c2.64 1.47 4.31 3.188 6.383 5.383 6.644 6.797 14.087 12.457 21.875 17.875.083 3.33-.46 5.391-2.684 7.898-2.368 2.137-4.809 4.13-7.316 6.102l-2.48 2.043c-34.61 27.07-93.58 35.824-136.082 31.207-21.483-2.696-43.098-9.798-62.938-18.375-6.603-2.792-13.43-4.478-20.363-6.238-34.41-8.748-34.41-8.748-42.137-19.637-1.318-3.112-1.285-4.47-1-8 5.265-7.989 17.507-9.865 26.155-12.708C153.377 424.4 153.377 424.4 163 419l-1.582-.96c-5.908-3.746-10.943-8.08-16.035-12.868-2.38-2.279-2.38-2.279-5.383-4.172v-2h-2c-1.621-1.645-1.621-1.645-3.438-3.813-2.107-2.498-4.214-4.911-6.562-7.187l-1.031 1.828c-3.446 5.682-6.467 9.278-12.969 11.172-6.755.815-11.09-1.405-16.375-5.375-11.84-10.711-15.685-26.4-16.535-41.77L81 351l-.121-2.95c-.343-15.412 2.51-36.263 11.629-49.187 2.178-4.18 2.613-8.421 3.305-13.05A371.81 371.81 0 0 1 101 259.688l.78-3.325c.94-3.992 1.888-7.982 2.847-11.97 2.19-9.143 3.91-18.077 4.602-27.471.372-4.374 1.002-7.462 3.771-10.922 4.23-2.92 9.063-2.426 14-2a87.607 87.607 0 0 1 5 2c2.037-.11 2.037-.11 4-1 1.35-1.71 1.35-1.71 2.332-3.902l1.219-2.434 1.262-2.601c5.33-10.538 11.52-19.437 19.074-28.52a155.992 155.992 0 0 0 4.258-5.367L166 160h2c.235-.529.47-1.057.71-1.602 1.688-3.138 3.802-5.916 5.915-8.773 6.773-9.323 12.402-19.181 17.27-29.637 1.975-3.553 4.343-5.475 8.105-6.988 6.693-1.082 11.256.658 17 4l.816-1.777C223.69 104.195 237.6 90.237 249 85v-2h2l.813-1.938C253 79 253 79 256 78l.875-1.75c1.507-3.015 3.695-4.945 6.125-7.25l1-1Zm-1.563 9.375C260.78 78.888 260.78 78.888 261 81h-2a268.05 268.05 0 0 0-2.781 4.34c-1.323 1.801-2.72 3.028-4.469 4.41L249 92v2l-1.785.824c-4.527 2.404-8.176 6.137-11.778 9.739a67.481 67.481 0 0 1-5.75 5.124L227 112v2l-1.797.781c-2.38 1.317-3.713 2.645-5.453 4.719l-1.578 1.844c-1.365 1.59-1.365 1.59-1.172 3.656-2.41-.415-3.683-.64-5.332-2.508-2.794-2.5-5.637-2.086-9.238-1.96-2.723.31-2.723.31-5.18 2.906A88.123 88.123 0 0 0 195 127l-1.488 2.156c-2.27 3.29-4.377 6.602-6.325 10.094-6.02 10.69-13.716 19.929-21.759 29.117-9.444 10.798-16.287 21.195-21.248 34.7-1.6 3.978-3.292 6.756-6.18 9.933-3.98 1.34-6.088.85-9.813-.938-4.726-2.051-8.069-2.527-13.187-2.062-1.887 1.887-1.543 5.16-1.813 7.688-.175 1.55-.352 3.101-.53 4.652l-.31 2.679c-2.134 18.302-4.685 36.145-9.347 53.981-1.233 4.768-1.113 9.42-1.063 14.313l.014 2.533c.012 2.051.03 4.103.049 6.154l-2 1 1 1c.274 1.632.491 3.274.684 4.918l.373 3.053.75 6.375c.629 5.126 1.317 9.81 3.193 14.654l1.227 3.742c4.395 13.12 9.907 25.804 17.773 37.258l1.344 2.027c1.158 1.7 2.4 3.344 3.656 4.973h2l.688 1.75c1.641 2.814 3.748 4.277 6.312 6.25l1 2h2l.25 1.75c.986 2.957 2.475 4.094 4.75 6.25a703.41 703.41 0 0 1 3.188 3.813c12.062 13.746 27.247 17.877 44.453 21.65 3.84.874 7.619 1.95 11.398 3.057 2.11.599 2.11.599 4.961.48v2c3.497.989 6.998 1.964 10.5 2.938l2.977.841c5.513 1.526 10.82 2.761 16.523 3.221l2.591.229c15.776 1.267 29.968 1.307 44.325-6.152 3.643-1.883 7.37-3.59 11.084-5.327l2.348-1.102L307 422v-2l2.375-.688C320.043 415.45 330 409.325 340 404v-2l2.125-.727c3.365-1.49 5.957-3.408 8.875-5.648l3.063-2.336L357 391l2.875-2.164L362 387v-2h2c2.012-2.103 2.012-2.103 4.063-4.75l2.16-2.672c1.606-2.33 2.358-3.822 2.777-6.578h2c4.596-9.086 7.913-18.01 10-28l.55-2.543c1.702-8.79 1.647-17.428 1.512-26.332-.355-27.916-.355-27.916 1.96-33.662 1.135-2.859 1.236-5.043 1.244-8.111l.012-3.275-.028-3.452-.018-3.548c-.098-8.53-.666-16.68-2.232-25.077l-.625-3.602c-1.443-7.788-3.372-15.366-5.573-22.97-1.046-3.618-1.992-7.217-2.767-10.905-.818-3.794-1.943-7.39-3.21-11.055-2.006-6-3.65-12.12-5.395-18.2l-.907-3.14c-.268-.937-.537-1.875-.815-2.84-.64-2.287-.64-2.287-1.708-4.288-5.462.223-8.375 1.434-12.355 5.2-3.968 4.344-6.936 8.244-6.957 14.3L348 183c-3.249-2.569-6.142-5.026-8.75-8.25-1.956-2.774-1.956-2.774-4.25-3.75l-1-3c-3.055-3.033-3.055-3.033-7-4v-2c-6.332-6.713-14.488-11.798-21.973-17.11-4.7-3.365-9.138-6.58-13.027-10.89l-1.895-2.023c-11.478-12.48-15.868-26.8-20.918-42.79A4413.757 4413.757 0 0 1 265 76c-1.22-.11-1.22-.11-2.561 1.376Z" fill="#090400"/><path d="M264 76c2.206 3.31 3.221 6.548 4.355 10.309l1.39 4.455c.718 2.32 1.433 4.643 2.137 6.97 7.37 24.27 21.01 38.443 41.118 53.266 10.05 7.445 10.05 7.445 14 11v2l1.813.875c5.003 2.573 5.003 2.573 6.187 6.125a188.536 188.536 0 0 0 4.375 3.598c1.666 1.437 2.996 2.94 4.375 4.652 1.956 2.774 1.956 2.774 4.25 3.75l-.438-3.375c-.025-7.09 5.236-12.368 9.938-17.188 3.148-1.81 5.908-2.155 9.5-2.437 2.783 6.92 4.684 13.975 6.563 21.188.602 2.306 1.207 4.612 1.816 6.917l.799 3.068c.785 2.698 1.776 5.221 2.822 7.827.428 1.545.822 3.099 1.184 4.66l.618 2.638.635 2.764 1.329 5.676.642 2.753c.73 3.094 1.498 6.177 2.28 9.259L387 232l.625 2.438c1.212 4.983 1.562 9.432 1.375 14.562h-1v-7h-4v2h2v2h-6v4h-3l-1-2-5 1v2h-3l-1-2h-7l-2-4 5 1-1-6-3-1v-2l-8-1 1 3 2 1-1 4h-2v-2l-2.938.563L345 243c-1-1-1-1-1.063-3.563L344 237l-2.375-.313C339 236 339 236 337 233c-3.066-.733-3.066-.733-6-1v-5l2-1 2 1v-2l-1.875-.938L329 222l1 5-5 1-2.02-2.527c-7.373-9.069-15.268-16.319-24.973-22.888-10.342-7.004-16.815-14.266-23.24-24.946l-1.349-2.202-1.195-2.003L271 172h-3c-1.423 1.439-1.423 1.439-2.813 3.375-7.628 9.033-18.057 15.058-28.769 19.762-7.384 3.376-10.865 9.121-14.23 16.238l-.944 1.941c-.755 1.558-1.5 3.12-2.244 4.684h-2l-.262-2.895c-1.066-9.81-3.174-17.76-8.738-26.105l-1.582 1.906C201.092 197.1 195.385 203.274 188 207c-2.828-.293-2.828-.293-5-1l3-6v-5l10-1v-5l-4-2-1 5-2-1v-2l-3-1-1-3c1.875-2.563 1.875-2.563 4-5l1-2h-2v-3l3-1 1-2h-2c-.143-7.429-.143-7.429 1-11h2v2h2v3h5l1 3 2 1v3l4-1v2h4v-5l5-1 2 4 .938-1.875L221 166h-4v-3l-1 1.438c-3.088 2.412-6.126 2.193-10 2.562l-2 1v-2h-2v-2l3-1v-5h-6v-3l-6 1 5-5 2 2c2.57.648 2.57.648 5 1v2l5-1 1 3 2 1v-3c2.169.506 4 1 6 2v-2l2-1v-2l-2-2 5-1v6h-2l-1 8 5 1 1.367 6.055c.538 2.152.538 2.152 2.633 3.945 6.366.659 10.663-.467 16-4 2.963-2.592 2.993-3.944 3.5-7.938-.112-3.535-.453-4.008-2.938-6.875L244 154l-1-3h-2c-2.915-3.804-3.343-6.59-3.188-11.313l.083-3.238L238 134l-1.215 2.266c-3.447 5.97-6.074 9.887-12.695 12.23-2.434.587-4.6.825-7.09.504v3l-4-1-1-4-2 2v3l-4-1 1-4h-2l-1-2-.875 2.438C202 150 202 150 200 151l1-7-3 1a294.16 294.16 0 0 1 1.563-6.063c.547-2.094.547-2.094.437-4.937l-2.688 2.563c-2.913 2.463-2.913 2.463-6.187 2.25L189 138c1.373-3.825 3.141-6.884 5.5-10.188l1.844-2.605C198 123 198 123 200 121c2.277-.3 2.277-.3 4.938-.313l2.652-.05c2.857.43 3.562 1.23 5.41 3.363 2.103.714 2.103.714 4 1l.625-2.125c1.758-3.677 4.18-6.348 7.375-8.875h2v-2c1.61-1.586 1.61-1.586 3.75-3.375C232.904 106.795 235 105 237 103c1.988-1.988 4.032-3.874 6.125-5.75l2.07-1.86C247 94 247 94 249 94v-2c1.935-1.827 3.99-3.469 6.055-5.148 1.951-1.858 2.913-3.387 3.945-5.852h2l.938-1.938C263 77 263 77 264 76Z" fill="#FB4318"/><path d="M342 413c7.361-.45 12.99 1.812 19 6v2l1.742.742c2.64 1.47 4.31 3.188 6.383 5.383 6.644 6.797 14.087 12.457 21.875 17.875.083 3.33-.46 5.391-2.684 7.898-2.368 2.137-4.809 4.13-7.316 6.102l-2.48 2.043c-34.61 27.07-93.58 35.824-136.082 31.207-21.483-2.696-43.098-9.798-62.938-18.375-6.603-2.792-13.43-4.478-20.363-6.238-34.41-8.748-34.41-8.748-42.137-19.637-1.318-3.112-1.285-4.47-1-8 5.247-7.96 17.393-9.829 26.019-12.633 6.493-2.135 12.763-4.662 19.04-7.363C164 419 164 419 167 420c.438 2.125.438 2.125 0 5-1.64 1.722-3.382 3.13-5.273 4.57-3.088 2.557-3.71 4.26-4.102 8.243.146 4.413 1.359 6.87 4.375 10.187 10.128 6.688 22.635 7.269 34.438 7.375l2.797.042c7.223-.05 12.706-1.314 18.765-5.48 2.88-4.23 2.434-7.967 2-12.937l3.508.84 4.617 1.098 2.305.552c18.166 4.307 36.357 3.43 54.375-1.213L287 438c2.313 2.313 2.496 3.479 3.125 6.625l.508 2.477L291 449c14.587 4.981 35.2 5.593 49.453-.469a159.734 159.734 0 0 0 6.219-3.289C349 444 349 444 351 444c.706-5.155 1.015-9.323-1.746-13.887-2.01-2.453-4.1-4.787-6.254-7.113-1.607-3.215-1.057-6.436-1-10Z" fill="#870000"/><path d="M271.313 283.625c2.687.375 2.687.375 5 2.625C278 289 278 289 278 293l-6 3c-.48 3.202-.396 5.328 1.266 8.145 2.838 4.024 2.838 4.024 6.734 6.855a76.926 76.926 0 0 1 1.625 4.5c4.407 11.266 13.681 17.098 23.375 23.5 9.76 6.8 9.76 6.8 12 11 .314 3.692.233 7.305 0 11-3 1-3 1-5.375 0-3.168-1.207-4.45-1.139-7.625 0-1.623 2.41-1.623 2.41-2.688 5.375-1.282 3.166-2.409 5.77-4.312 8.625-4.274-1.583-6.265-4.506-9-8-4.808 1.41-7.484 4.272-10.688 7.938l-1.47 1.63c-2.14 2.394-4.058 4.756-5.842 7.432l-5-1v-2l-1.86-.742c-2.566-1.509-3.179-2.7-4.39-5.383l-1.016-2.195L257 371c-6.465.166-10.304 4.003-15 8-3.232-2.957-5.197-5.932-7.313-9.75-2.581-4.42-2.581-4.42-7.25-6.125-3.53.899-6.34 1.957-9.437 3.875l-1 2c-4.011 2.469-7.59 4.236-12 6l-8-16c-4.627-.373-4.627-.373-7 1-.283-12.215-.423-29.573 5.902-40.367 4.177-3.251 9.717-3.389 14.832-3.985 4.714-.592 8.387-2.28 12.48-4.66C225 310 225 310 227 310v-2l5-5c1.053-1.634 2.073-3.292 3-5 1.065 3.398.98 6.336.813 9.875 0 5.374.298 8.145 4.187 12.125 6.834 6.165 6.834 6.165 15.375 8.875 4.88-1.178 5.898-2.743 8.625-6.875 1.77-3.54 1.654-7.144 1-11-1.307-2.488-2.784-4.63-4.492-6.86-1.614-2.29-2.562-4.512-3.508-7.14l8-1 .621-2.371.817-3.067.808-3.058c1.02-3.385 1.02-3.385 4.067-3.879Z" fill="#FDDA7A"/><path d="M291 134c2.841 1.543 5.028 3.028 7.313 5.336 2.688 2.665 5.453 4.861 8.5 7.101l3.183 2.356L313 151c10.027 7.424 10.027 7.424 14 11v2l1.813.875c5.003 2.573 5.003 2.573 6.187 6.125a188.536 188.536 0 0 0 4.375 3.598c1.666 1.437 2.996 2.94 4.375 4.652 1.956 2.774 1.956 2.774 4.25 3.75l-.438-3.375c-.025-7.09 5.236-12.368 9.938-17.188 3.148-1.81 5.908-2.155 9.5-2.437 2.783 6.92 4.684 13.975 6.563 21.188.602 2.306 1.207 4.612 1.816 6.917l.799 3.068c.785 2.698 1.776 5.221 2.822 7.827.428 1.545.822 3.099 1.184 4.66l.618 2.638.635 2.764 1.329 5.676.642 2.753c.73 3.094 1.498 6.177 2.28 9.259L387 232l.625 2.438c1.212 4.983 1.562 9.432 1.375 14.562h-1v-7h-4v2h2v2h-6v4h-3l-1-2-5 1v2h-3l-1-2h-7l-2-4 5 1-1-6-3-1v-2l-8-1 1 3 2 1-1 4h-2v-2l-2.938.563L345 243c-1-1-1-1-1.063-3.563L344 237l-2.375-.313C339 236 339 236 337 233c-3.066-.733-3.066-.733-6-1v-5l2-1 2 1v-2l-1.875-.938L329 222l1 5-5 1-2.02-2.527c-7.373-9.069-15.268-16.32-24.973-22.888C284.693 193.568 275.005 181.547 268 167h6l1-4h2l1-3 4 1v2h-2l1.5 1.375C283 166 283 166 283 168h-3l1 2c2.527.656 2.527.656 5 1v-2c3.127-1.564 6.58-1.4 10-1l3 2-1 4h2v2h2l-1-4h2v2h2l-2 9 4 2v-4c3 1 3 1 4 3l2-1v-5l-5 1-1-4 4 1-1-5 7-1v-2h3v2h3l-1-8-3.375.063C315 162 315 162 313 161l1 4h-2v2l-3 1v3c-2.438-.813-2.438-.813-5-2l-1-3 2-3h-3v-5h-3l-1 8-8-1 2-6h-8v-2h2l1-5 6-2-1-4 2-1 2 1-1-3c-2.015-.733-2.015-.733-4-1l.563-1.75c.477-2.457.194-3.894-.563-6.25Z" fill="#FD240C"/><path d="m193 364 3 1c.95 2.066.95 2.066 1.688 4.563.25.826.502 1.652.761 2.503L199 374h2l2 6c4.545-.501 7.28-1.524 10.938-4.25l2.597-1.89a330.468 330.468 0 0 0 4.524-3.47c4.45-3.406 4.45-3.406 6.964-3.324 2.836 1.34 3.422 3.065 4.727 5.872l1.297 2.714C235 378 235 378 235 380h2v3c2.862.243 5.194.438 8 0 2.834-2.333 2.834-2.333 5-5l3-1v-2h2c3 5.75 3 5.75 3 8l1.688.688C262 385 262 385 264.5 387.563c2.36 2.3 3.316 3.083 6.5 3.437v-2a186.058 186.058 0 0 1 3.496-3.426c2.344-2.454 4.228-5.225 6.172-8L282 376h2v-2l3-1c2.48 1.652 2.48 1.652 5.188 3.938l2.73 2.277L297 381c-2.037 2.075-3.99 3.993-6.313 5.75-2.326 1.948-4.109 3.827-6.062 6.125-5.979 6.964-12.242 12.706-21.625 14.125-15.696 1.034-28.184-.977-42.441-7.785-2.39-1.134-4.802-2.146-7.246-3.152-10.543-4.726-17.24-12.418-21.625-23.016-.837-2.49-1.16-4.45-.688-7.047l2-2Z" fill="#FBD979"/><path d="m358 185.875 2.063-.008C362 186 362 186 365 187l-2 5h-2v-4h-4l1 3c-2.375 1.063-2.375 1.063-5 2l-2-1v2h-2v2h-3l-1 4 1.828-.508 2.422-.617 2.39-.633c3.963-.407 6.138 1.61 9.36 3.758-3.371 1.498-5.204 2-9 2v-2h-2l-1 2-4-1-1 6h4v-2l3.25.063c2.898-.049 5.036-.195 7.75-1.063v-2h2v3h3l-1-2.75c-1-3.25-1-3.25-1-7.25 3 1 3 1 4 3 .583 7.223.583 7.223-1.875 10.5C362 212 362 212 360 212v-4l-2 1c-.656 2.527-.656 2.527-1 5l3-1 3 2 .188-1.813c1.155-3.11 2.88-3.791 5.812-5.187h3l-1-6-4-1-1-5c5.75-.125 5.75-.125 8 1v5l2 1-1 1c-.333 2.458-.333 2.458 0 5l3 2v-2h3c2.538 7.52 4.577 15.06 6.25 22.813l.53 2.385c1.053 5.036 1.384 9.659 1.22 14.802h-1v-7h-4v2h2v2h-6v4h-3l-1-2-5 1v2h-3l-1-2h-7l-2-4 5 1-1-6-3-1v-2l-8-1 1 3 2 1-1 4h-2v-2l-2.938.563L345 243c-1-1-1-1-1.063-3.563L344 237l-2.375-.313C339 236 339 236 337 233c-3.066-.733-3.066-.733-6-1v-5l2-1 2 1v-2h3v2h2v-5l2-1v3l1.688.75c2.712 1.466 4.948 3.28 7.312 5.25l-1-4c3.154-2.103 5.285-2.398 8.992-2.781 2.372-.259 4.679-.71 7.008-1.219v-4l-7 1v3h-3l-1-5-8-2v-4l-4 1c1.88 3.571 3.17 5.547 7 7l-1 4h-4v-3l-3-1-3-2v5l-5 1 2-6h-2v3h-2v-3h-7v-4l4 1v-2l-2.813-.125C323 211 323 211 321.25 208.187L320 205l-1.25-2.188C318 201 318 201 319 198h2v2h3v-2h3c-.375 1.938-.375 1.938-1 4l-2 1v5h2v2h5l-.688-3.313C330 203 330 203 331.25 201.063 333 200 333 200 336 200v3h-3l1 2a95.33 95.33 0 0 1 .063 5.125l-.028 2.758L334 215l4-1v-3h2v-5l-4-1 5-1v-2h-2v-4h3v-3l5-2-1-5 3-1v2h2v-2c2.676-.892 4.254-1.135 7-1.125Z" fill="#FC4218"/><path d="m393 300 1.413 1.904c1.502 2.047 1.502 2.047 2.982 3.639 5.377 6.237 7.507 13.813 9.978 21.524a169.073 169.073 0 0 0 1.736 5.019c4.63 15.145 3.393 33.557-3.109 47.914-3.145 5.682-6.079 10.058-12 13-4.636.817-8.79.105-13-2v-2l-1.813-.75c-2.642-1.51-3.79-2.53-5.187-5.25-.126-6.04 2.672-10.531 5.387-15.805C389.93 346.313 391.855 323.03 393 300Z" fill="#F9BA00"/><path d="M224 150v6h-2l-1 8 5 1 1.367 6.055c.538 2.152.538 2.152 2.633 3.945 2.069.643 2.069.643 4 1l1 6h-2v5l2-1c2-.04 4-.043 6 0l1 6-2.23 1.102-2.958 1.523c-1.444.73-1.444.73-2.917 1.477-5.867 3.847-8.787 9.098-11.708 15.273l-.943 1.941c-.755 1.558-1.5 3.12-2.244 4.684h-2l-.262-2.895c-1.066-9.81-3.174-17.76-8.738-26.105l-1.582 1.906C201.092 197.1 195.385 203.274 188 207c-2.828-.293-2.828-.293-5-1l3-6v-5l10-1v-5l-4-2-1 5-2-1v-2l-3-1-1-3c1.875-2.563 1.875-2.563 4-5l1-2h-2v-3l3-1 1-2h-2c-.143-7.429-.143-7.429 1-11h2v2h2v3h5l1 3 2 1v3l4-1v2h4v-5l5-1 2 4 .938-1.875L221 166h-4v-3l-1 1.438c-3.088 2.412-6.126 2.193-10 2.562l-2 1v-2h-2v-2l3-1v-5h-6v-3l-6 1 5-5 2 2c2.57.648 2.57.648 5 1v2l5-1 1 3 2 1v-3c2.169.506 4 1 6 2v-2l2-1v-2l-2-2c2-1 2-1 5-1Z" fill="#FC4E1B"/><path d="M166.05 279.797c4.374.225 7.983 1.17 12.137 2.453 6.603 1.953 13.165 3.457 19.938 4.688 11.305 2.105 21.643 5.79 31.875 11.062-3.887 8.745-10.617 12.142-19 16-8.354 3.201-19.861 3.645-28.375 1-9.581-4.52-16.445-13.494-20.625-23-.62-3.788-.7-7.221 0-11 1-1 1-1 4.05-1.203Z" fill="#FBFBFB"/><path d="M95 316h2l.335 1.697c.507 2.54 1.023 5.078 1.54 7.615l.527 2.67.528 2.569.476 2.364c.558 2.362.558 2.362 2.594 5.085.499 1.34.954 2.696 1.375 4.063 1.865 5.795 3.88 11.658 6.746 17.042C112 361 112 361 112 364h2l3 9h2c2.636 3.027 3.25 5.413 3 9.313-.737 4.94-2.85 8.84-6 12.687-3.286 1.643-6.462 1.635-10 1-8.982-4.39-13.7-13.029-16.875-22.125C85.85 363.499 86.387 352.743 87 342l.122-2.2c.607-9 3.359-16.04 7.878-23.8Z" fill="#F9BA00"/><path d="m200 133 2 1a950.846 950.846 0 0 1-1.563 6.188c-.476 1.663-.476 1.663-.437 2.812l2 1-1 6 3-6 1 3h2l-1 4 4 1-1-4 3-1 .813 1.938c1.074 2.393 1.074 2.393 4.187 3.062v-3l2.047-.586 2.703-.789 2.672-.773c5.428-1.793 7.31-3.484 10.328-8.477l1.86-3.04L238 133c.997 2.99 1.046 4.774.938 7.875-.051 3.843.216 6.664 2.062 10.125h2c3.272 2.784 6.375 5.923 7.633 10.102.221 3.821-.693 5.995-2.696 9.21-4.272 3.91-8.361 5.78-14.125 6.188-3.812-.5-3.812-.5-6.312-2.625-1.695-3.249-1.836-5.262-1.5-8.875h-5c-1.033-2.788-1.045-3.868-.063-6.75L222 156h2v-6l-3 2v4h-2v2l-6-2v3l-3-1v-3l-5 1v-2l-2.375.125C200 154 200 154 198 152l-3 3h4v3l7-1v6l-4 1v2c3.704.18 3.704.18 6-.563 2.326-.508 3.757-.158 6 .563l1-3h2v3h4l-2 7-3-2v-3l-4 1-1 5h-4v-2l-4 1v-3l-3-1v-3h-5v-3h-2c-1.215 1.119-1.215 1.119-2.313 3.438-1.81 2.75-2.592 3.59-5.687 4.562-3.25.125-3.25.125-6 0v-3l2-1c.684-1.325 1.35-2.659 2-4l2-2-2-5h4v-3l-4-1 1-2h-2l-.75 2.375c-1.437 3.017-2.297 3.34-5.25 4.625a636.802 636.802 0 0 1 7-11l1.625-2.512 1.5-2.175 1.32-1.95c2.17-1.901 3.74-1.42 6.555-1.363 1.838-1.033 1.838-1.033 3.313-2.5L200 133Z" fill="#FB5A20"/><path d="M332 276c3.501 5.574 2.526 12.689 2 19-1.623 6.493-4.355 12.635-10.113 16.371-9.595 5.543-20.708 6.52-31.461 3.688-8.796-3.52-14.108-7.59-18.426-16.059l2.273-.7c5.106-1.626 9.978-3.302 14.727-5.8 5.565-2.918 12.613-6.5 19-6.5v-2l6-1v-2l8-2v-2c2.892-.826 4.887-1 8-1Z" fill="#FAFAFA"/><path d="m329 222 6 3v2h-3l-1 5h6l.688 1.938c1.165 2.334 1.165 2.334 3.937 2.812L344 237l1 5 2-1c2.125.438 2.125.438 4 1v2l2-1 1-3-3-1v-3c5.75-.125 5.75-.125 8 1v2l4 1v6l-5-1 2 3c3.584.25 3.584.25 7 0l1 3h3v-2l5-2 1 3h3v-4h6v-2h-2v-2h4c1.959 7.866 2.335 15.416 2.313 23.5l.048 3.57.002 3.399.01 3.076L390 278c-3 2-3 2-6 2l-2-4c-2.51.703-2.51.703-5 2l-1 4-9-1 1-4-2-1 1-2-2 1-1 3h-2l.07-3.473c.02-1.53.037-3.06.055-4.59.017-.752.034-1.504.05-2.279.044-4.951-.591-8.962-2.175-13.658-2.524 1.082-3.925 1.909-5.688 4.063-3.423 2.868-6.962 2.751-11.312 2.937l-2.563-5.125-1.652-3.3a2177.264 2177.264 0 0 1-3.601-7.243c-2.911-5.871-5.83-11.699-9.184-17.332l4-1-1-5Z" fill="#FB5920"/><path d="M335 414c1.316 3.62 2 6.096 2 10h2l.688 2.125c1.241 3.083 1.241 3.083 3.937 5.875 2.375 3 2.375 3 3.125 5.563-.98 3.182-2.739 4.532-5.492 6.304-11.687 5.864-28.455 7.187-41.07 4.258C297 447 297 447 295 445c-.633-2.602-.633-2.602-1.125-5.625l-.508-3.04L293 434c2.726-1.32 5.455-2.63 8.188-3.938l2.33-1.13c3.804-1.813 7.252-3.398 11.482-3.932v-2c2.765-1.51 5.538-3.006 8.313-4.5.785-.43 1.57-.859 2.38-1.3l2.295-1.231 2.11-1.143C332 414 332 414 335 414ZM173 422l1.844.516c4.981 1.377 9.965 2.683 14.995 3.871C206.97 430.49 206.97 430.49 213 434c1.994 3.706 2.535 6.813 2 11-4.099 4.969-8.856 5.92-15 7-12.215 1.085-26.727.288-37-7-2-3-2-3-2.125-6.313 1.414-4.635 3.282-5.548 7.18-8.132 3.022-2.415 3.784-4.925 4.945-8.555Z" fill="#F9BA00"/><path d="M172 352c4.142.61 7.436 1.783 11 4 1.619 2.944 2 4.635 2 8l1.355-1.313c2.657-2.446 4.815-4.41 8.27-5.562 4.096 1.51 5.56 5.075 7.375 8.875a103.117 103.117 0 0 1 3 9l1.863-1.313 2.45-1.687 2.425-1.688C214 369 214 369 217 369l1-3c3.102-1.994 5.851-2.965 9.438-3.813 5.023 1.146 6.308 3.917 8.984 8.137L238 373l1.703 2.832L241 378c2.709-1.548 5.08-3.07 7.438-5.125 2.916-2.134 5.003-2.544 8.562-2.875l1.242 2.152 1.633 2.786 1.617 2.777c1.305 2.392 1.305 2.392 3.508 3.285v2c2.315.43 2.315.43 5 0 2.333-2.205 2.333-2.205 4.375-5.125 3.559-4.62 7.053-8.276 11.625-11.875 2.842 1.362 4.96 2.552 7 5v2l4 1 1.355-3.027c.61-1.304 1.22-2.608 1.832-3.91l.885-1.999c2.295-4.81 2.295-4.81 5.428-6.064 3.405 0 6.287.93 9.5 2l2.375-2.5C321 356 321 356 323 356c-.533 4.529-1.975 7.576-5 11-4.268.61-7.343.34-11-2a298.709 298.709 0 0 0-4.125 10.813l-1.07 2.957L301 381c-5.387-.27-8.184-2.383-12.168-5.723-1.87-1.563-1.87-1.563-4.832-1.277v2h-2l-.781 1.703c-1.36 2.564-2.947 4.75-4.719 7.047l-1.844 2.422L273 389h-2v2c-5.859-.786-9.039-3.799-13-8-3-4.969-3-4.969-3-8h-2v2c-3.462 3-3.462 3-6 3l-2 4c-5.75.125-5.75.125-8-1v-3h-2l-6-12c-3.675.919-5.194 1.633-8.152 3.758l-2.354 1.644a687.18 687.18 0 0 0-4.851 3.47l-2.358 1.636-2.129 1.52c-2.761 1.245-4.303.81-7.156-.028l-1-6h-2l-4-9-5 1-1 3c-2.563 1.188-2.563 1.188-5 2-2.826-3.797-4.566-6.186-4-11l-2.313-.75c-2.948-1.371-4.045-2.485-5.687-5.25v-2Z" fill="#151208"/><path d="M160.98 270.73c4.87.15 9.5 1.348 14.208 2.52l2.836.691c5.735 1.425 11.342 3.036 16.913 5.012 4.07 1.391 8.185 2.594 12.313 3.797l2.317.676c1.81.526 3.622 1.05 5.433 1.574v2l2.012-.25c4.206.352 7.171 2.194 10.8 4.25l2.1 1.156c1.701.939 3.395 1.89 5.088 2.844 0 4.749-1.206 7.252-4 11-2.25 1.438-2.25 1.438-4 2v2a859.954 859.954 0 0 1-7.063 3.438l-1.99.986c-10.516 5.025-24.74 5.16-36.123 2.963-6.335-2.294-12.16-6.563-16.824-11.387l-.527-2.125L164 302a89.439 89.439 0 0 0-4-2c-4.33-5.9-6.173-13.546-5.813-20.75 2.023-8.088 2.023-8.088 6.793-8.52ZM162 281c-1.05 7.32.033 12.48 4.16 18.578 5.672 7.466 11.137 14.593 20.84 16.422 14.563.9 25.906-1.48 38-10 2.101-1.934 3.428-3.587 5-6v-2c-12.9-6.303-25.757-10.234-39.855-12.656-4.296-.745-8.144-1.542-12.145-3.344-8.377-2.85-8.377-2.85-16-1Z" fill="#100E09"/><path d="M336 270c3.784 3.131 4.492 8.32 5 13 .013 10.13-1.928 19.427-9 27-8.515 7.281-20.148 9.651-31.066 9.258-10.268-.903-19.753-4.766-26.934-12.258-2.971-3.834-3.111-6.238-3-11a2835.33 2835.33 0 0 1 7.063-3.813l1.99-1.08C291.427 285 291.427 285 297 285v-2c3.298-1.451 6.504-2.842 9.938-3.938 3.275-1.136 6.186-2.612 9.23-4.257C318 274 318 274 321 274v-2c5.449-2.39 9.053-3.75 15-2Zm-12 7v2l-8 2v2l-6 1v2l-2.875.813-1.95.566c-1.476.421-2.958.825-4.445 1.21-6.074 1.66-11.366 4.146-16.945 7.048-3.243 1.587-6.276 2.565-9.785 3.363 3.725 7.45 8.15 12.034 15.875 15.375 8.33 2.754 19.297 3.269 27.688.5 8.245-4.497 13.034-8.603 16.023-17.648.605-3.252.585-6.423.601-9.727l.043-3.969c-.209-3.202-.52-4.883-2.23-7.531-3.113 0-5.108.174-8 1Z" fill="#110F08"/><path d="m278 160 4 1v2h-2l1.5 1.375C283 166 283 166 283 168h-3l1 2c2.527.656 2.527.656 5 1v-2c3.127-1.564 6.58-1.4 10-1l3 2-1 4h2v2h2l-1-4h2v2h2c-1.002 3.793-1.81 6.715-4 10h-2v-9h-3l1 2c.04 2 .043 4 0 6l-7 1v10h3l-1-5c4.03.553 8.02 1.156 12 2v3h-4v2l3 1-1 3c-2.169-.506-4-1-6-2l-3 1c-10.984-6.746-19.556-20.635-25-32h6l1-4h2l1-3Z" fill="#FD280E"/><path d="M238 133c.997 2.99 1.046 4.774.938 7.875-.051 3.843.216 6.664 2.062 10.125h2c3.272 2.784 6.375 5.923 7.633 10.102.221 3.821-.693 5.995-2.696 9.21-4.272 3.91-8.361 5.78-14.125 6.188-3.812-.5-3.812-.5-6.011-2.633-3.327-5.296-2.598-10.839-1.801-16.867 2.27-8.763 6.519-16.827 12-24Z" fill="#FEBB00"/><path d="m365 223 2 7 2-2h3c-.506 2.169-1 4-2 6l5-2-1-4 4 1-1-5 6 1c.846 5.712 1.22 10.306 0 16-2 1.313-2 1.313-4 2l-1 2c-2.434.45-2.434.45-5.438.688l-2.996.261C367 246 367 246 365 245v-8h-4v-3c-1.937-.027-3.875-.046-5.813-.063l-3.269-.035c-2.983-.038-2.983-.038-5.918 1.098l-.625-1.938c-1.27-2.411-1.27-2.411-4.5-2.812L338 230v-2h3l1-3c3.46 1.25 6.147 2.675 9 5l-1-4c3.136-2.09 4.421-2.335 8.063-2.625l2.66-.227A65.785 65.785 0 0 1 365 223Z" fill="#FB551E"/><path d="M348 340c-.226 3.727-1.337 5.556-3.813 8.188-5.585 6.188-7.248 13.61-8.703 21.62-.902 4.083-2.833 6.483-5.609 9.505-3.829 2.247-7.516 2.638-11.875 1.687-2.377-3.565-2.566-4.796-2-9 1.88-3.658 3.87-6.346 7.457-8.422 6.66-4.133 10.283-12.605 13.402-19.547 2.67-4.754 6.244-4.216 11.141-4.031Z" fill="#FFDA77"/><path d="M467.688 273.375 470 274c1 3 1 3 1 7-2.192 3.185-5.05 5.529-8 8l-2.563 2.156a499.18 499.18 0 0 1-5.507 4.48 383.68 383.68 0 0 0-7.524 6.254c-5.24 4.441-10.57 8.485-16.406 12.11l-2-1c3.118-7.87 3.118-7.87 6-10h2l.625-2.188c1.462-2.99 3.087-4.368 5.684-6.382 1.86-1.573 3.364-3.261 4.941-5.118 14.221-16.665 14.221-16.665 19.438-15.937Z" fill="#F55D21"/><path d="M297 42c4.634 1.192 6.405 3.467 8.984 7.246 2.359 4.072 2.479 8.179 2.016 12.754-2.18 6.885-5.184 9.515-11.438 12.813-3.784 1.261-5.759 1.207-9.562.187.693-3.075 1.715-5.885 2.875-8.813 2.203-5.913 3.335-11.804 4.414-18C295 45 295 45 297 42Z" fill="#080100"/><path d="M395 175c4.063.075 6.272.367 9.375 3.063 3.7 6.687 2.97 14.617 1.625 21.937-.986 3.206-2.008 6.28-4 9-2.137.742-2.137.742-4 1l-.77-1.828-1.043-2.422-1.019-2.39c-1.078-2.402-1.078-2.402-2.785-4.333-2.991-4.385-1.731-10.642-.996-15.675 1.201-5.94 1.201-5.94 3.613-8.352Z" fill="#0C0200"/><path d="M123 150c1.125 4.02.882 6.147-.813 9.938l-1.128 2.64L120 165c-1.79 4.564-2.096 8.105-2 13-1 1-1 1-4.25 1.313-4.437-.37-5.833-.98-8.75-4.313-2.249-5.528-2.35-9.253-.184-14.82 2.554-4.703 6.195-8.044 10.809-10.68 2.768-.583 4.673-.272 7.375.5Z" fill="#0E0501"/><path d="M153 333c2.258.082 2.258.082 5 1a53.73 53.73 0 0 1 3.875 6.688c2.269 4.36 4.128 7.8 8.188 10.75L173 354c.063 3.75.063 3.75-1 7-2 2-2 2-5.813 2.313-4.588-.117-7.204-1.69-10.718-4.567-4.789-5.693-5.033-15.644-4.469-22.746l2-3Z" fill="#FA7126"/><path d="M245 138h3l.148 1.863.227 2.45c.07.8.14 1.6.21 2.425.31 2.534.31 2.534 2.415 5.262l-1-11h4c1.672-.304 3.34-.631 5-1l-1 5h-3v2l7-1v-3h4c.934 3.01 1.044 3.867 0 7l-1.813.438c-2.923.751-4.116 2.424-6.187 4.562l-3 1-1 2 2.313.875C259 158 259 158 262 160c-1.75 1.125-1.75 1.125-4 2-2.25-.875-2.25-.875-4-2v4l-4 1-.688-3.188c-1.105-3.986-3.28-6.019-6.312-8.812v-2h-2c-2.54-3.418-3.364-5.758-3-10l2.375.188L243 141l2-3Z" fill="#FC4B1A"/><path d="M336 175c2.375.313 2.375.313 5 1 2.351 3.527 2.214 5.029 2.125 9.188l-.055 3.292L343 191l2-5c2.36 2.36 2.491 3.779 3 7-3 2-3 2-6 2v3h-3v4h2v2l-4 1 3 1v5h-2v3l-4 1-1-12h3v-3h-3l-1 2v-3h3v-4h4v2h2l-1.063-2.75c-.96-3.331-.916-4.116.063-7.25.038-2 .045-4 0-6h-5l.5 2.188c.476 2.678.5 5.103.5 7.812l1 2-4-1v6a84.76 84.76 0 0 1-7-2v-4h-2l-1-2-1 2h-3c.539-3.773 1.995-5.682 5-8l4 1 1 9h2c.054-1.437.093-2.875.125-4.313l.07-2.425c-.037-2.546-.037-2.546-2.195-5.262h-2l-1-5h5v3l5-1v-4Z" fill="#FD3011"/><path d="M168 376c3 1 3 1 5.184 3.406 3.947 3.636 7.917 4.365 13.021 5.621 4.775 1.3 7.245 2.681 9.795 6.973-.193 2.773-.765 4.53-2 7-7.511.686-12.923.56-19.02-4.16-4.465-4.149-7.717-7.514-8.417-13.715C167 378 167 378 168 376Z" fill="#FFDA77"/><path d="M292 210c3.418 13.458 3.418 13.458.188 19.25L290 232l-1.313 1.875c-2.903 1.936-5.314 1.532-8.687 1.125-2.938-1.5-2.938-1.5-5-4-.94-5.122-.456-7.903 2.5-12.188 3.721-4.481 8.46-8.812 14.5-8.812Z" fill="#FB7126"/><path d="M426 206h3c1.265 3.794.53 4.688-1.098 8.262l-1.431 3.142-1.534 3.284-1.45 3.224c-7.567 16.4-7.567 16.4-14.487 19.088-2.332.078-4.668.09-7 0-.348-3.204-.235-4.648 1.582-7.367l2.23-2.508a222.701 222.701 0 0 0 11-13.938l1.38-1.884c2.088-2.866 4.08-5.736 5.945-8.752L426 206Z" fill="#0A0301"/><path d="M71.188 293.375 73 294l1.938 6.75 1.09 3.797c.48 1.71.48 1.71.972 3.453l.625 2.125c.48 2.404.47 4.676.438 7.125l-.028 2.703L78 322c-6.041-.937-9.085-2.23-12.809-7.14-3.3-5.152-3.419-8.944-2.191-14.86l1-3h2v-2c3-2 3-2 5.188-1.625Z" fill="#090301"/><path d="M143 51c2.375-.188 2.375-.188 5 0 2.137 3.205 2.236 3.942 2.16 7.605l-.033 2.733-.065 2.85c-.12 6.406.052 12.465.938 18.812.06 1.666.089 3.333.063 5l-.028 2.313L151 92h-3c-2.149-5.375-3.719-10.485-4.688-16.188l-.383-2.215C141.74 66.245 140.61 58.17 143 51Z" fill="#FC3C15"/><path d="M287 4c-.436 2.964-1.029 5.051-2.5 7.688-1.987 4.388-2.227 8.544-2.5 13.312h-8c-4-5.94-4-5.94-4-10.625 1.133-3.825 2.067-5.667 5-8.375 4.197-2.224 7.36-3.512 12-2Z" fill="#080100"/><path d="M224 270c5.37 4.254 9.769 8.306 12 15 .133 3.671.043 7.325 0 11l-15-7c.55-6.519 1.462-12.643 3-19Z" fill="#FBD775"/><path d="m341 221 1 3 3 1-3 1-1 2h-3v2l1.688-.813L342 229c2.75 2.438 2.75 2.438 5 5l2-1a65.593 65.593 0 0 1 4.438-.125l2.37-.008C358 233 358 233 361 234v3h4v3l-6-1v-2l-8-1 1 3 2 1-1 4h-2v-2l-2.938.563L345 243c-1-1-1-1-1.063-3.563L344 237l-2.375-.313C339 236 339 236 337 233c-3.066-.733-3.066-.733-6-1v-5l2-1 2 1v-2h3v2h2l-.063-2.438C340 222 340 222 341 221Z" fill="#FC3E16"/><path d="m261 152 3 1 .148 1.8.227 2.512.246 2.754c.385 2.982 1.085 5.77 1.817 8.684.896 4.615.896 4.615-.504 7.277-1.588 1.691-2.877 2.899-4.934 3.973h-4v-5l-6 1 3-6c1.875.313 1.875.313 4 1l2 3h2l-2-4 2-3-2.813.563C256 168 256 168 253 167v2h-3l1-6 3 1v-4l5 1v-2l-2-1v-2h2l2-4Z" fill="#FD3212"/><path d="M206 121c2.938.375 2.938.375 6 1l1 2 3 2 1 3-1 2 3 1-1 1.813c-1.208 2.24-1.208 2.24-1 5.187l3-3 1.207 1.395c2.092 1.872 3.807 2.479 6.48 3.292l2.45.762L232 142c-1 3-1 3-2.89 4.168-7.832 3.384-7.832 3.384-12.11 2.832v3l-4-1-1-4 2.375.125c2.786.162 2.786.162 4.625-2.125h3l-1-5-4 1v2h-3c-2.108-2.888-3-4.385-3-8h4l-1.5-1.813C212 131 212 131 212 128h-5l-1-7Z" fill="#FB4819"/><path d="M396 179h5c4.646 9.293 2.971 16.38 0 26l-1.813-2.313c-1.968-2.604-1.968-2.604-3.875-4.062-2.14-2.65-2.436-5.33-2.312-8.625.79-3.738 1.836-7.363 3-11Z" fill="#F33212"/><path d="m271 296 .688 1.75c1.66 2.846 3.704 4.248 6.312 6.25l2.5 2.563c2.447 2.385 4.469 3.886 7.5 5.437l3.25 1.688c7.749 2.794 18.95 2.808 26.625-.188L321 312h3v3c-13.507 4.952-25.164 5.654-38.563.25-6.073-2.822-11.752-6.933-14.437-13.25-.188-3.313-.188-3.313 0-6Z" fill="#312605"/><path d="M120 153c-.568 5.54-2.629 10.037-5 15h-2l1 8c-2.375-.25-2.375-.25-5-1-2.614-4.102-2.928-8.288-2-13 3.074-5.14 6.82-9 13-9Z" fill="#EF5A20"/><path d="M468 274h2c1 3 1 3 1 7-2.192 3.185-5.05 5.529-8 8l-2.563 2.156a499.18 499.18 0 0 1-5.507 4.48 383.68 383.68 0 0 0-7.524 6.254c-5.24 4.441-10.57 8.485-16.406 12.11l-2-1 2.23-1.793 2.957-2.394 2.918-2.356c2.876-2.374 2.876-2.374 5.282-4.844 3.263-3.263 6.732-6.239 10.238-9.238 1.326-1.137 2.652-2.275 3.977-3.414.87-.746.87-.746 1.76-1.506 1.676-1.445 1.676-1.445 3.225-3.14C463 283 463 283 465 283l.938-2.813L468 274Z" fill="#0C0301"/><path d="M129 276c1.56 1.56 1.245 3.09 1.313 5.25-.018 3.641-.234 4.63-2.313 7.813L126 291c-3.018-.335-4.809-.866-7.313-2.625-2.374-3.342-2.331-5.368-1.687-9.375 3.708-4.495 6.547-4.363 12-3Z" fill="#FEB802"/><path d="M298 47c3.203.582 3.783.69 5.75 3.5 1.545 4.325 2.006 7.958 1.25 12.5-2.283 3.89-4.961 6.032-9 8h-3v-3h2l.148-1.8c.585-6.483 1.602-12.814 2.852-19.2Z" fill="#FB260D"/><path d="M343.625 320.125C346 321 346 321 348 323c.458 5.497.296 9.34-3 14-2.688.875-2.688.875-5 1-3.005-5.009-3.644-8.299-3-14 2.044-3.103 2.864-4.054 6.625-3.875Z" fill="#FB7325"/><path d="m360 224-1 3c-.04 2-.044 4 0 6l2.813-1.125L365 231l3 2v2c-3 2-3 2-7 2v-3c-1.937-.027-3.875-.046-5.813-.063l-3.269-.035c-2.983-.038-2.983-.038-5.918 1.098l-.625-1.938c-1.27-2.411-1.27-2.411-4.5-2.812L338 230v-2h3l1-3c3.46 1.25 6.147 2.675 9 5l-1-4c3.644-2.43 5.712-2.162 10-2Z" fill="#FC4318"/><path d="M367 160a210.497 210.497 0 0 1 1.563 3.75l.878 2.11c.637 2.44.361 3.78-.441 6.14l-1.313-3.438L366 165l-3-1 .563 2.375C364 169 364 169 363 171l5 1-2 4-2-3-2 4-2-3 2-4h-3v-3h-2l1 5-6 1v2l-3-1c7.263-11.681 7.263-11.681 13.125-13.75C364 160 364 160 367 160Z" fill="#FD1D0A"/><path d="M165 204h2c1 3 1 3 0 6 2.076.553 3.844 1 6 1l2-4h2v-3h3c.775 4.993.775 4.993 0 8-2.583 2.912-5.372 4.622-9 6-3.16.176-5.944-.205-9-1v-3h3l-2-3h-3v-2l5-2v-3Z" fill="#FB591F"/><path d="M427 265h2c-.878 7.39-2.785 12.586-8 18-3 2-3 2-7 2-.654-1.789-.654-1.789-1-4 .956-1.708.956-1.708 2.457-3.383l1.623-1.847 1.733-1.895 1.697-1.918c2.112-2.378 4.24-4.708 6.49-6.957Z" fill="#F55B20"/><path d="m69 297 2 1c.808 2.608 1.499 5.16 2.125 7.813l.55 2.197C74.517 311.464 75 314.426 75 318c-4.495-1.156-6.58-3.313-9.047-7.066-1.562-3.17-1.527-5.49-.953-8.934 2-2.938 2-2.938 4-5Z" fill="#EB5E22"/><path d="M304 146c3.228.608 5.227 1.681 7.813 3.688l2.082 1.613c3.097 2.5 6.11 5.078 9.105 7.699-4.25 1.417-6.719.193-11-1 0 3.106.54 4.353 2 7h-2l-1 2v-2l-4-1 1-7h2v-3h-2l-2-5-2 1v-4Z" fill="#FD2A0F"/><path d="M197 172h5l-1 2.875c-1.102 2.896-1.102 2.896-1 5.125h-3l-1 6-4 1-1 5-2-1v-2l-3-1-1-3c2.064-2.949 4.393-5.523 7-8l3 1 2-6Z" fill="#FB5820"/><path d="M143 51h2l.078 3.777C145.425 66.336 146.935 76.863 150 88c.337 1.332.673 2.665 1 4h-3c-2.149-5.375-3.719-10.485-4.688-16.188l-.383-2.215C141.74 66.245 140.61 58.17 143 51Z" fill="#0D0301"/><path d="M0 285c4.166 2.364 7.867 5.116 11.625 8.063 3.075 2.4 6.127 4.772 9.375 6.937l-1 4c-2.94-1.7-5.874-3.408-8.797-5.137a132.229 132.229 0 0 0-5.781-3.195C3.377 294.568 1.659 293.626 0 292c-.5-3.813-.5-3.813 0-7Z" fill="#F84117"/><path d="M29 256c6.234 1.7 11.775 7.5 15 13v4c-4.356-1.45-7.318-3.677-10.813-6.625l-2.957-2.477L28 262l1-6Z" fill="#0B0401"/><path d="M357 167h2v3h3l-.688 2.313L361 175c1.417 1.583 1.417 1.583 3 3v4h-2v2h-2v-7h-9v2h7c-.313 1.938-.313 1.938-1 4l-3 1v-3l-4-1-1-5h3v-2l5-2v-4Z" fill="#FD3111"/><path d="M372 219h4v2l5 1v2h-4l1 5-4-1 1 4-5 2 2-6h-3l-1 3-2-1c-.75-2.438-.75-2.438-1-5l2-2 1 3 1-4h3v-3Z" fill="#FC4117"/><path d="M163 68c3.166.313 4.61.576 6.8 2.96l1.512 2.415 1.551 2.398C174 78 174 78 174 81c-4.161.325-6.312-.42-9.75-2.75l-2.36-1.547c-2.1-1.892-2.53-2.945-2.89-5.703l4-1v-2Z" fill="#0B0301"/><path d="M383 220c3.103 3.103 3.266 6.914 4.125 11.125.182.83.364 1.66.55 2.516 1.09 5.228 1.51 10.02 1.325 15.359h-1v-7h-4v2h-6c1-2 1-2 4-3 1.23-3.512 1.23-3.512 2-7l-2-1 .5-2.313c.591-2.723.591-2.723.5-5.687h-2v-3h2v-2Z" fill="#ED4C1B"/><path d="M259 305c1 1 1 1 1.313 3.813-.313 3.187-.313 3.187-2 5.625C256 316 256 316 253.25 315.75L251 315c-1.329-6.401-1.329-6.401.063-8.938 2.729-1.496 4.88-1.328 7.937-1.062Z" fill="#FB7226"/><path d="m271 296 .688 1.75c1.66 2.846 3.704 4.248 6.312 6.25l2.5 2.563c3.74 3.646 7.635 5.63 12.5 7.437-3 2-3 2-5.625 2.063-6.222-1.96-10.8-6.182-14.938-11.125-1.593-3.258-1.778-5.358-1.437-8.938Z" fill="#1D1A11"/><path d="m381 354 4 1c-2.233 7.444-5.403 14.12-9 21h-3l-3 2c1.875-4.75 1.875-4.75 3-7h2l.25-2c.835-3.342 2.187-6.016 3.813-9.035.943-1.977 1.48-3.829 1.937-5.965Z" fill="#160B02"/><path d="M320 185v2c-4.75 1.125-4.75 1.125-7 0l2 10h2v3h-4v-3h-2l-1 5h-4v-4l4-2v-3l-2-1c2.303-6.733 5.141-7.259 12-7Z" fill="#FC3D16"/><path d="m444 294 4 2a158.814 158.814 0 0 1-5 6h-2l-1 3c-2.066 1.824-2.066 1.824-4.563 3.688l-2.503 1.886L431 312l-1-3c2.313-3.188 2.313-3.188 5-6h2l.688-2.25c1.556-3.261 3.397-4.679 6.312-6.75Z" fill="#F56D1F"/><path d="m457 217 6 1c-.428 5.706-2.843 9.41-6 14l-3-1c.412-4.97.796-9.445 3-14Z" fill="#F54B1B"/><path d="M28 270c2.415 1.987 3.797 4.162 5.188 6.938l1.042 2.027C35 281 35 281 35 285c-1.75-.125-1.75-.125-4-1a150.052 150.052 0 0 1-4-6l-3-2c-.188-2.625-.188-2.625 0-5 1.813-.688 1.813-.688 4-1Z" fill="#EE5920"/><path d="M363 164c1.875.25 1.875.25 4 1 1.721 2.582 2 3.85 2 7h2l1 8h-4v-2h-3l2-5-4-2v-7Z" fill="#EE2A0F"/><path d="M307 365c2.962.613 4.38 1.254 7 3-7.114 8.815-7.114 8.815-12 10 .515-5.281 2.255-8.572 5-13Z" fill="#F2CF70"/><path d="M347 251h3v2l3 1v3l2 1c-4.23 2.417-7.123 3.348-12 3l-1-3h2l1-4h2v-3Z" fill="#FB5F20"/><path d="M389 252h1v17l-2-1-3 3-3-1-2 4h-2v-3l-4-1v-2l5 1v-3l1.688.75c2.452.467 2.452.467 5-1 3.487-4.147 3.212-8.48 3.312-13.75Z" fill="#FC541E"/><path d="M426 206h3c1.126 3.38.963 3.73-.434 6.793l-.966 2.158-1.038 2.237-1.025 2.271A798.88 798.88 0 0 1 423 225l-2-3c.875-3.188.875-3.188 2-6h-2c.616-4.005 2.55-6.83 5-10Z" fill="#010000"/><path d="m285 7-1.875 1.313C279.9 12.392 279.663 16.937 279 22h-3c-1.586-3.47-2.667-6.186-2-10 5.692-6.77 5.692-6.77 11-5Z" fill="#C7230C"/><path d="M312 158c4.714.48 8.666.968 13 3l-1 4h4l2 7h-4v-3h-2c-1.46-2.647-2-3.894-2-7l-3.313.063C315 162 315 162 312 161l-1 3c0-4 0-4 1-6Z" fill="#FD1206"/><path d="M420 219c1 3 1 3-.512 6.215a258.752 258.752 0 0 1-2.175 3.722l-1.069 1.881c-2.039 3.5-3.989 6.723-7.244 9.182-2.25-.25-2.25-.25-4-1l2.012-2.598c4.43-5.732 8.841-11.459 12.988-17.402Z" fill="#DB491A"/><path d="m305 192 2 1v3h-2l-1 9c-4.164-1.041-6.594-2.446-10-5v-2h2l1-3 2 4h3v-2l-2-1v-2c2.375-1.063 2.375-1.063 5-2Z" fill="#FE1806"/><path d="M377 195c1.694 3.047 2.495 5.828 3.125 9.25l.508 2.703L381 209h-3v2l-4-2c0-4.192.134-7.889 1-12h2v-2Z" fill="#FD2D10"/><path d="m171 162 4 2-1 3h-3l.25 3.313C171 174 171 174 169 175.938L167 177c-1-1-1-1-1.063-3.563L166 171l-2-1 7-8Z" fill="#FC501D"/><path d="M179 313c1.774.487 3.547.977 5.316 1.48 7.677 1.487 16.04.99 23.684-.48-.895 1.973-.895 1.973-3 4-3.228.613-6.412.51-9.688.438l-2.646.021c-5.872-.057-10.29-1.1-15.666-3.459l2-2Z" fill="#1F1805"/><path d="m465 273 3 1c.313 2.188.313 2.188 0 5-2.188 2.875-2.188 2.875-5 5-2.813-.188-2.813-.188-5-1 .152-2.657.52-4.452 2.297-6.48 1.578-1.395 1.578-1.395 4.703-3.52Z" fill="#F7541E"/><path d="M341 238h2l-.035 2.23c-.01.976-.018 1.952-.027 2.958l-.036 2.917c.093 2.75.477 5.22 1.098 7.895h-5l-3-9h3v-5h2v-2Z" fill="#FC591E"/><path d="m337 201 4 1v2l-4 1 3 1v5h-2v3l-4 1-1-12h4v-2Z" fill="#FD2A0F"/><path d="m447 297 3 1c-5.087 6.6-12.404 14.587-21 16 3.492-3.595 7.145-6.788 11-10a280.711 280.711 0 0 0 5-5l2-2Z" fill="#291005"/><path d="m327 199 5 4h-2l1 7h-5v-2h-2l-1-6 3-1 1-2Z" fill="#FD2A0F"/><path d="M264 76c2.01 3.015 2.992 5.575 4.125 9l1.07 3.188C270 91 270 91 270 94l-4-2v-2h-2l-.148-2.152-.227-2.785c-.07-.917-.14-1.834-.21-2.778-.138-.754-.274-1.508-.415-2.285l-2-1 3-3Z" fill="#F34117"/><path d="m296 58 1 4 3 1 2 2 1-4h2c-1.192 4.635-3.498 6.451-7.246 9.082C296 71 296 71 293 71v-3h2l1-10Z" fill="#E02A0F"/><path d="m329 222 6 3v2h-3l-1 5h6l-1 3h-6l-4-7 4-1-1-5Z" fill="#FC521C"/><path d="M148 68c1.616 2.87 2.273 5.045 2.414 8.328l.117 2.422.094 2.5.117 2.547c.094 2.067.177 4.135.258 6.203-4.076-4.076-4.903-11.098-5.188-16.688L146 71h2v-3Z" fill="#EC4919"/><path d="M336 175c2.375.313 2.375.313 5 1 2.21 3.314 2.225 4.345 2.125 8.188l-.055 2.73L343 189l-3-2c-.188-3.125-.188-3.125 0-6h-5l1-6Z" fill="#FB3814"/><path d="M396 179h5c2.682 5.364 3.315 9.01 3 15l-.875-1.938c-.953-2.214-.953-2.214-3.125-3.062l1-7-3 1v2h-3l1-6Z" fill="#EA2D10"/><path d="m29 257 12 12-1 3-12-10 1-5Z" fill="#EA541D"/><path d="M266 90c2.688 2.375 2.688 2.375 5 5v2l-10 1v-5l-2-1c2.647-1.46 3.894-2 7-2Z" fill="#FD3513"/><path d="M294 172v2h-2v2l4 1v5c-5.875-2.75-5.875-2.75-7-5l-3-1 1-3c2.463-1.231 4.28-1.072 7-1Z" fill="#FC3C15"/><path d="M160 70h4l2 6h3c1.688 1.375 1.688 1.375 3 3v2c-3.102-.634-5.482-1.673-8.188-3.313l-2.105-1.238c-2.041-1.733-2.43-2.815-2.707-5.449l1-1Z" fill="#F13713"/><path d="m259 81 3 4-5 3 .625 3.875c.352 2.18.352 2.18.375 4.125l-2 2-2-4-2 1c-.813-1.688-.813-1.688-1-4 2.25-2.438 2.25-2.438 5-5 1.053-1.634 2.073-3.292 3-5Z" fill="#F13C15"/><path d="M333 172h4l1 3h-2v4l-5 1v-3l-5-1v-1l2.938-.938c2.903-.757 2.903-.757 4.062-2.062Z" fill="#FB1808"/><path d="M0 289a259.667 259.667 0 0 1 14.438 8.75l1.927 1.246c1.546 1 3.09 2.002 4.635 3.004l-1 2a2254.6 2254.6 0 0 1-12-7l-2.578-1.473c-1.859-1.093-3.65-2.3-5.422-3.527v-3Z" fill="#CE3813"/><path d="M216 206h4v2l3 1-4 9h-2l-1-12Z" fill="#FC5B1C"/><path d="M271 158c1.62 2.572 2.044 3.677 1.625 6.75L272 167h-4l2 4-3 1c-2-3-2-3-2-7a264.271 264.271 0 0 1 5-3c.878-2.085.878-2.085 1-4Z" fill="#FC4818"/><path d="m261 152 3 1 1 12-5-2c-.688-2.063-.688-2.063-1-4l-2-1v-2h2l2-4Z" fill="#FD260D"/><path d="M356.188 198.75 358 200l3 2c-3.371 1.498-5.204 2-9 2v-2h-2l-1 2-1-4c5.396-2.207 5.396-2.207 8.188-1.25Z" fill="#FC4619"/><path d="m322 311 2 1v3c-8.197 3.343-15.303 3.04-24 2v-1l2.563-.113c10.43-.252 10.43-.252 19.437-4.887Z" fill="#26241C"/><path d="m463 283 2 1-1.758 1.723c-4.648 4.594-9.068 9.247-13.242 14.277l-2-1c2.364-4.538 5.41-7.48 9.188-10.813l1.693-1.521A813.459 813.459 0 0 1 463 283Z" fill="#1C0A03"/><path d="M421 276c-.7 3.147-1.76 6.026-3 9h-4c-.75-1.688-.75-1.688-1-4 3.068-5 3.068-5 8-5Z" fill="#F46B1D"/><path d="m352 173 4 1v2l-1.938.375L352 177l-1 2h7c-.313 1.938-.313 1.938-1 4l-3 1v-3l-4-1-1-5h3v-2Z" fill="#FC4117"/><path d="M219 194h4l-1 2.813c-1.15 3.107-1.15 3.107-1 6.187l-1 3h-4l1-6h2v-6Z" fill="#FC3B15"/><path d="M312 151c1.277.74 2.546 1.492 3.813 2.25l2.144 1.266C320 156 320 156 323 160l-11-2v-7Z" fill="#F61708"/><path d="m377 224 6 1 1 7h-4v-2h-2l-1-6Z" fill="#FB5920"/><path d="M366 188c3.083 1.199 6.063 2.477 9 4l-1 4-8-1 .563-1.813c.658-2.351.658-2.351-.563-5.187Z" fill="#FE1607"/><path d="M298 148c2 1.375 2 1.375 4 3v2l-3-1c-.688-2.063-.688-2.063-1-4Zm-5 4h6v2h-3l1 8h-3l-1-10Z" fill="#FD3212"/><path d="M185 143c1.585 3.17 1.604 6.491 2 10l-4-1 1-2h-2l-.75 2.375c-1.437 3.017-2.297 3.34-5.25 4.625a15670.218 15670.218 0 0 1 5.273-8.3A359.619 359.619 0 0 1 185 143Z" fill="#E64D1B"/><path d="M271 98c2.161 2.161 2.716 3.521 3.688 6.375l.824 2.336c.53 2.49.3 3.905-.512 6.289l-1-4h-3v-5h-3l1-3h2v-3Z" fill="#EF4017"/><path d="M332 226c1.675.286 3.344.618 5 1v4h3v2c-6.75.125-6.75.125-9-1a99.984 99.984 0 0 1 0-5l1-1Z" fill="#FD3312"/><path d="M394 195h4v2h5l-2 8-1.813-2.313c-2.027-2.6-2.027-2.6-3.937-4.375C394 197 394 197 394 195Z" fill="#EE290F"/><path d="M274 169h2c2.248 4.497 2.167 8.079 2 13-2.957-3.467-5.078-6.869-7-11h2l1-2Z" fill="#FD3811"/><path d="M367 160a210.497 210.497 0 0 1 1.563 3.75l.878 2.11c.637 2.44.361 3.78-.441 6.14l-1.188-3.375c-1.175-2.721-1.627-3.503-4.187-5.188-3.182-.53-4.792.106-7.625 1.563 3.596-3.981 5.698-5 11-5Z" fill="#E01B09"/><path d="M295 193h9l-4 1v2l3 1-1 3a84.76 84.76 0 0 1-7-2v-5Z" fill="#FD280E"/><path d="M389 271h1c.188 3.375.188 3.375 0 7-3 2-3 2-6 2l-1-6 3 1 1.438-2 1.562-2Z" fill="#F25920"/><path d="M324 162h3v2l1.813.875C331 166 331 166 334 168v2c-2 1.625-2 1.625-4 3-2.152-3.228-2.2-4.284-2-8h-4v-3Z" fill="#F81C0A"/><path d="M372 179c1.648 2.967 2.443 5.656 3 9l-9-2c1.23-3.688 2.939-4.724 6-7Z" fill="#F01F0B"/><path d="m298 52 5 1-2 6h-3l-1 3c-.125-7.75-.125-7.75 1-10Z" fill="#F73312"/><path d="m427 270 1 2c-2.398 4.889-5.002 8.335-9 12l-1-2c1.311-1.813 2.624-3.626 3.938-5.438l2.214-3.058C426 271 426 271 427 270Z" fill="#2B1204"/><path d="M397 182h4v7l-5 1-1-5h3l-1-3Z" fill="#FC4017"/><path d="m340 234 7 2v2l4 2v1h-5l-1 2c-1-1-1-1-1.063-3.563L344 237l-4-1v-2Z" fill="#FD3212"/><path d="m234 176 5 1-1 5h-2l1 3h-3l-1 2v-5h2l-1-6Z" fill="#FD3713"/><path d="M164 175v7l-3 1v-4l-5 4-2-1a197.99 197.99 0 0 1 2.75-3.5c.51-.65 1.02-1.3 1.547-1.969C160 175 160 175 164 175Z" fill="#EB541E"/><path d="M366 211h8v2h2l-1 3-3-1c-2.143.39-2.143.39-4 1v-2h-2v-3Z" fill="#FD2A0F"/><path d="m242 176 5 2v1h-5l1 1.813c1 2.187 1 2.187 1 5.187h-4c.14-1.48.288-2.959.438-4.438.08-.823.162-1.647.246-2.496C241 177 241 177 242 176Z" fill="#FD3111"/><path d="M278 160h3v2h-2v6h-5l1-5h2l1-3Z" fill="#FD200B"/><path d="m353 224 2 3h2l1 5h-6l-2-6 3-2Z" fill="#FC4E1C"/><path d="m124 211 9 3c-3.087 3.087-3.92 3.449-8 4l-1-7Z" fill="#EA571F"/><path d="M311 197h2l.313 1.938L314 201l3 1c-2.762 2.762-5.207 2.579-9 3v-2h2l1-6Z" fill="#FE1608"/><path d="M174 175h2l1 3-1 2h2l-1 4h-4l1-9Z" fill="#FC531D"/><path d="m171 162 1 2-2 3a96.465 96.465 0 0 0-1.625 4.688c-.26.808-.52 1.616-.79 2.449-.192.615-.386 1.23-.585 1.863h-1v-5l-2-1 7-8Z" fill="#E5501D"/><path d="M277 11c2 2 2 2 2.195 4.164l-.07 2.461-.055 2.477L279 22h-3a271.487 271.487 0 0 1-.625-4.375l-.352-2.46L275 13l2-2Z" fill="#EE2F11"/><path d="M377 195c1.694 3.047 2.495 5.828 3.125 9.25l.508 2.703L381 209l-1-2h-2l-.875-2.938c-.767-3.169-.767-3.169-3.125-4.062l1-3h2v-2Z" fill="#DA2D10"/><path d="M291 134c2.438 1.063 2.438 1.063 5 3 .813 3.688.813 3.688 1 7l-6-1 .563-2.25c.429-2.7.288-4.196-.563-6.75Z" fill="#F71C0A"/><path d="m216 313-1 3c-2.75.917-4.36 1.109-7.188 1.063L204 317c3.847-3.134 7.045-5.652 12-4Z" fill="#1C1A13"/><path d="M348 175c2 2 2 2 3 5l2 1-1 4-5-1 1-9Z" fill="#EC1407"/><path d="M145 51h3v5h-2v15h-1V51Z" fill="#D02F10"/><path d="M462 218c.684 1.672.684 1.672 1 4-1.215 2.578-1.215 2.578-2.938 5.25l-1.714 2.703L457 232c-1.367-2.734-.847-4.107 0-7 1.438-1.563 1.438-1.563 3-3 1.176-2.1 1.176-2.1 2-4Z" fill="#381106"/><path d="M313 161h2v2h3v3l-8 4v-3h2l1-6Z" fill="#FC3C15"/><path d="M389 252h1v17l-3-1v-2l-2-1 3-2c.583-2.656.583-2.656.688-5.625l.199-3.04L389 252Z" fill="#DD4E1C"/><path d="m180 191 3 3-3 1v2l2 1-3 3c-1-1-1-1-1.188-4.438C178 193 178 193 180 191Z" fill="#FC541E"/><path d="m182 186-1 2h-2l-1 3h-4l-1-4c5.625-2.125 5.625-2.125 9-1Z" fill="#FC531E"/><path d="M111 169h2l1 7-5-1c0-4 0-4 2-6Z" fill="#E6521D"/><path d="M251 102c3.875.875 3.875.875 5 2 .141 2.67.042 5.324 0 8l-3-1c-1-3-1-3-1-7l-1-2Z" fill="#FD3914"/><path d="M320 185v2c-4.75 1.125-4.75 1.125-7 0l1 5h-2v-3l-3-1c3.514-3.374 6.26-3.273 11-3Z" fill="#FD3011"/><path d="M285 179h2l-2 7-4 1-2-3 2.438-1.375c2.65-1.372 2.65-1.372 3.562-3.625Z" fill="#FC3B13"/><path d="M355 165h1v6l-2-1-1 2 2 1h-3v2l-3-1c.975-1.503 1.955-3.002 2.938-4.5l1.652-2.531L355 165Z" fill="#E21E0A"/><path d="M389 278h1v11l-3 1c-.178-4.548.002-7.88 2-12Z" fill="#4A1D0A"/><path d="m301 143 4 2-2 7-3-2v-3h2l-1-4Z" fill="#F61E0A"/><path d="m206 121 6 1v5l-5-1-1-5Z" fill="#F14117"/><path d="M264 76c2.125 3.188 2.502 5.265 3 9h-3l-.375-2.438L263 80l-2-1 3-3Z" fill="#E14017"/><path d="M383 232h4l1 9-1-3h-3v-4l-2-1 1-1Z" fill="#EB3C15"/><path d="M208 315c-1.05 1.52-1.05 1.52-3 3-3.355.074-3.355.074-7.188-.313l-3.855-.363L191 317v-1a1316.2 1316.2 0 0 1 7.375-1.063l2.117-.314c5.281-.736 5.281-.736 7.508.377Z" fill="#4E4C45"/><path d="m438 305 1 2c-2.883 4.214-5.043 5.76-10 7l9-9Z" fill="#6D3A08"/><path d="M378 244h8v2h-6l-1 4c-1.063-1.875-1.063-1.875-2-4l1-2Z" fill="#FC4318"/><path d="M372 219h3v4h-3l-1 4h-2v-5h3v-3Z" fill="#FD3011"/><path d="m420 215 3 1c-1.393 3.367-2.979 4.986-6 7l-1-3c1.938-2.688 1.938-2.688 4-5Z" fill="#1E0803"/><path d="m375 217 5 2v-2h2l1 5-7-1-1-4Z" fill="#FB561F"/><path d="m336 175 5 1v4h-5v-5Z" fill="#F13D16"/><path d="M367 174h2v3h2l1 3h-4v-2h-3l2-4Z" fill="#FD3613"/><path d="M266 151h2l1 7h-2l-1 3v-6l-2-1 2-3Z" fill="#FC4518"/><path d="M298 47c1.875.188 1.875.188 4 1 1.25 2.563 1.25 2.563 2 5l-6-1v-5Z" fill="#D6200B"/><path d="M235 186h5c-.75 1.938-.75 1.938-2 4-2.125.75-2.125.75-4 1l1-5Z" fill="#FB5F22"/><path d="M343 180c1.563 1.063 1.563 1.063 3 3-.125 3.563-.125 3.563-1 7l-3 2c-.027-1.625-.046-3.25-.063-4.875l-.035-2.742C342 182 342 182 343 180Z" fill="#F41A09"/><path d="M278 117c4 4.625 4 4.625 4 8l-2-1-1 2h-2l1-9Z" fill="#EA3413"/><path d="M0 285c2.5 1.25 2.5 1.25 5 3v4c-2.5-1.25-2.5-1.25-5-3v-4Z" fill="#F43714"/><path d="M29 256c2.915 1.074 4.778 1.778 7 4-.375 2.125-.375 2.125-1 4a996.58 996.58 0 0 1-3-3.438l-1.688-1.933C29 257 29 257 29 256Z" fill="#401708"/><path d="M338 238h2l-1 7-4-1 1-4h2v-2Z" fill="#FD3110"/><path d="m263 168 3 1 1 5-4 1 1-4-2-1 1-2Z" fill="#FD280D"/><path d="m221 118 1 2h2l-1 3c-3.063 1.188-3.063 1.188-6 2 1.074-2.915 1.778-4.778 4-7Z" fill="#E94218"/><path d="M231 109h5l1 2h-4l-1 6-3-1 2-7Z" fill="#FB551E"/><path d="m259 101 5 1v3l-6 2 1-6Z" fill="#FD3412"/><path d="m264 91 7 4v2l-7-1 1-3-2-1 1-1Z" fill="#FA250D"/><path d="M0 289c7.571 4.143 7.571 4.143 10 7-3.936-.562-6.792-1.617-10-4v-3Z" fill="#87220C"/><path d="M347 242h3c-.25 2.375-.25 2.375-1 5-2.063 1.313-2.063 1.313-4 2v-5h2v-2Z" fill="#FB5D21"/><path d="m341 225 4 1v4h-7v-2h3v-3Z" fill="#FB571F"/><path d="m218 209 3 1c-.523 2.763-1.109 5.326-2 8h-2c-.098-6.152-.098-6.152 0-8l1-1Z" fill="#FB6A1D"/><path d="M223 188h7v2c-2 2-2 2-5 3l-2-5Z" fill="#FD3713"/><path d="M222 165h4v5h-5l1-5Z" fill="#FD3C13"/><path d="M147 81c2.458 3.687 3.012 6.697 4 11h-3c-.575-3.735-1-7.213-1-11Z" fill="#230B03"/><path d="M183.125 313.938c1.087.291 1.087.291 2.195.59L187 315l-2 2c-5.455-.455-5.455-.455-8-3 2.547-1.274 3.428-.802 6.125-.063Z" fill="#30280F"/><path d="m362 271 4 1-2 6h-2v-7Z" fill="#FC4815"/><path d="M24 273c3.536 1.675 4.791 2.493 6.313 6.188L31 282a271.11 271.11 0 0 1-3.5-2.813l-1.969-1.582C24 276 24 276 24 273Z" fill="#1A0903"/><path d="M28 270c1.75 1.438 1.75 1.438 3 3l-4 2-3-2v-2c1.813-.688 1.813-.688 4-1Z" fill="#F34A1B"/><path d="m383 239-1 3-5 1-1-3c2.463-1.231 4.28-1.072 7-1Z" fill="#FC481A"/><path d="m317 215 3 2 3-1v3h-2l-1 3-4-6 1-1Z" fill="#FD4114"/><path d="M249 175c2 0 2 0 4.125 1.875C255 179 255 179 255 181h-4v-2h-2v-4Z" fill="#FC561E"/><path d="M304 146c3.796.542 5.472 2.201 8 5l-2.313-.5c-2.723-.591-2.723-.591-5.687-.5v-4Z" fill="#E72C0F"/><path d="M261 80h2c1.033 2.788 1.045 3.868.063 6.75L262 89l-1-4-.625-2.188L260 81l1-1Z" fill="#FB551E"/><path d="M358 297h2v5l2 1-1 3-3-1v-8Z" fill="#FB5C21"/><path d="M125 266h4c0 2 0 2-1.875 4.125C125 272 125 272 123 272c.875-4.875.875-4.875 2-6Z" fill="#FC5820"/><path d="M408 235h3l-1 4-5 1c1.313-2.5 1.313-2.5 3-5Z" fill="#D3521D"/><path d="m420 219 1 3c-1.438 2.688-1.438 2.688-3 5l-3-1 5-7Z" fill="#B73412"/><path d="M401 186h3v8l-.875-1.938c-.953-2.214-.953-2.214-3.125-3.062l1-3Z" fill="#D92A0F"/><path d="M316 154c3.367 1.393 4.986 2.979 7 6l-6-1-1-5Z" fill="#E0230D"/><path d="m250 127 4 1v4h-3v-2h-2l1-3Z" fill="#FD3814"/><path d="M165 76c4 0 4 0 5.75 1.375C172 79 172 79 172 81c-2.962-.613-4.38-1.254-7-3v-2Z" fill="#E14619"/><path d="m447 290 .313 1.938L448 294l3 1-3 2-3-2 2-5Z" fill="#F0541E"/><path d="m161 221 2 3a141.4 141.4 0 0 1-5 5h-2l1-3 2-1c1.134-2.017 1.134-2.017 2-4Z" fill="#FB5D20"/><path d="M316 206c1.75 1.438 1.75 1.438 3 3l-7 1v-3c1.813-.688 1.813-.688 4-1Z" fill="#FE1206"/><path d="m367 204 5 1v3h-5v-4Z" fill="#FE1E0A"/><path d="M149 203h3v6l-3-1-1-3 1-2Z" fill="#FC521D"/><path d="M300 185h5l2 4-7-2v-2Z" fill="#FE0602"/><path d="M286 176c2.063.438 2.063.438 4 1v2l-3 1-2-1-1 2c.875-3.875.875-3.875 2-5Z" fill="#FD280E"/><path d="m279 171 7 1v2h-8l1-3Z" fill="#FE1909"/><path d="M324 162h3v2l1.938.875C331 166 331 166 332 168h-3l-1-2c-2.025-.652-2.025-.652-4-1v-3Z" fill="#E5250D"/><path d="M305 58v3l-2 1-1 3-3-1c2.154-6 2.154-6 6-6Z" fill="#FC3513"/><path d="M148 52c2 2 2 2 2.125 4.625L150 59h-4v-3h2v-4Z" fill="#FC501D"/><path d="M72 305h1l1 9-4-4c1-3 1-3 2-5Z" fill="#CD4A1A"/><path d="M458 279h3v3l4 1c-3.133 1.044-3.99.934-7 0v-4Z" fill="#F24619"/><path d="M321 220h4v5l-4-2v-3Z" fill="#FD220A"/><path d="m363 164 4 1v5c-2-1.313-2-1.313-4-3v-3Z" fill="#FD3011"/><path d="m259 81 3 4c-4.625 3-4.625 3-8 3l1.938-2.375c2.043-2.42 2.043-2.42 3.062-4.625Z" fill="#DB4017"/></svg>