<svg width="885" height="885" fill="none" xmlns="http://www.w3.org/2000/svg"><circle cx="442.5" cy="442.5" r="433.5" fill="#000" stroke="#092821" stroke-width="18"/><path opacity=".3" d="M642.488 129l84.084 34.811v566.915l-37.596 9.946-46.488 14.919V129z" fill="url(#paint0_linear_4329_456)"/><path opacity=".3" d="M476.402 59l93.632 39.784v691.239l-93.632 34.811V59z" fill="url(#paint1_linear_4329_456)"/><path opacity=".3" d="M408.605 59l-93.631 39.784v691.239l93.631 34.811V59z" fill="url(#paint2_linear_4329_456)"/><path opacity=".3" d="M242.52 129l-84.084 34.811v566.915l37.596 9.946 46.488 14.919V129z" fill="url(#paint3_linear_4329_456)"/><g filter="url(#filter0_d_4329_456)"><path d="M371.165 392.712h-48.14c-.88-6.228-2.675-11.761-5.386-16.597-2.711-4.909-6.191-9.085-10.441-12.529-4.25-3.444-9.159-6.082-14.728-7.913-5.495-1.832-11.467-2.748-17.915-2.748-11.65 0-21.799 2.894-30.445 8.683-8.646 5.715-15.35 14.068-20.113 25.059-4.763 10.917-7.144 24.18-7.144 39.787 0 16.046 2.381 29.528 7.144 40.446 4.836 10.918 11.577 19.161 20.223 24.729 8.646 5.569 18.648 8.353 30.005 8.353 6.375 0 12.273-.842 17.696-2.527 5.495-1.686 10.368-4.14 14.617-7.364 4.25-3.298 7.767-7.291 10.552-11.98 2.857-4.69 4.836-10.039 5.935-16.047l48.14.22c-1.246 10.331-4.36 20.296-9.343 29.895-4.909 9.525-11.54 18.062-19.893 25.609-8.28 7.473-18.172 13.408-29.675 17.805-11.431 4.323-24.363 6.484-38.798 6.484-20.077 0-38.028-4.542-53.855-13.628-15.754-9.086-28.21-22.238-37.369-39.457-9.086-17.219-13.629-38.065-13.629-62.538 0-24.547 4.616-45.429 13.849-62.648 9.232-17.219 21.761-30.335 37.588-39.348 15.827-9.085 33.632-13.628 53.416-13.628 13.042 0 25.132 1.832 36.27 5.495 11.21 3.664 21.139 9.013 29.785 16.047 8.646 6.961 15.68 15.497 21.102 25.609 5.496 10.111 9.013 21.688 10.552 34.731zM388.269 539V313.907h47.59v185.856h96.5V539h-144.09zm158.583 0V313.907h90.125c16.56 0 30.372 2.455 41.436 7.364s19.38 11.724 24.949 20.443c5.569 8.646 8.353 18.611 8.353 29.895 0 8.793-1.758 16.523-5.275 23.191-3.517 6.594-8.353 12.017-14.508 16.266-6.082 4.177-13.043 7.144-20.883 8.903v2.198c8.573.367 16.596 2.785 24.07 7.254 7.547 4.47 13.665 10.735 18.355 18.795 4.689 7.986 7.034 17.512 7.034 28.576 0 11.943-2.968 22.604-8.903 31.983-5.861 9.306-14.544 16.67-26.048 22.092-11.504 5.422-25.682 8.133-42.535 8.133h-96.17zm47.591-38.908h38.798c13.262 0 22.934-2.528 29.015-7.583 6.082-5.129 9.123-11.944 9.123-20.443 0-6.228-1.502-11.724-4.506-16.487-3.005-4.762-7.291-8.499-12.86-11.21-5.495-2.711-12.053-4.067-19.673-4.067h-39.897v59.79zm0-91.993h35.28c6.522 0 12.31-1.136 17.366-3.407 5.129-2.345 9.159-5.642 12.09-9.892 3.004-4.25 4.506-9.342 4.506-15.277 0-8.134-2.894-14.691-8.683-19.674-5.715-4.983-13.848-7.474-24.399-7.474h-36.16v55.724z" fill="#fff"/></g><g filter="url(#filter1_d_4329_456)" transform="matrix(2 0 0 2 -443 -620)"><path d="M388.556 662.752c-5.112 0-9.022-1.404-11.729-4.211-2.707-2.857-4.06-6.716-4.06-11.579v-39.849h6.767v39.849c0 3.008.727 5.389 2.18 7.143 1.504 1.755 3.785 2.632 6.842 2.632 3.008 0 5.263-.877 6.767-2.632 1.504-1.754 2.256-4.135 2.256-7.143v-39.849h6.767v39.849c0 4.913-1.354 8.772-4.06 11.579-2.657 2.807-6.567 4.211-11.73 4.211zm54.407 0c-3.609 0-6.717-.602-9.324-1.805-2.556-1.203-4.536-2.932-5.939-5.188-1.404-2.255-2.131-4.937-2.181-8.045h6.767c0 2.757.927 4.938 2.782 6.542 1.905 1.604 4.536 2.406 7.895 2.406 3.158 0 5.614-.777 7.368-2.331 1.805-1.554 2.707-3.709 2.707-6.466 0-2.206-.602-4.136-1.805-5.79-1.152-1.654-2.832-2.807-5.037-3.458l-7.444-2.331c-3.759-1.153-6.666-3.083-8.722-5.79-2.005-2.706-3.007-5.889-3.007-9.548 0-2.958.652-5.514 1.955-7.67 1.353-2.205 3.233-3.909 5.639-5.112 2.406-1.253 5.238-1.88 8.496-1.88 4.812 0 8.672 1.353 11.579 4.06 2.907 2.657 4.386 6.216 4.436 10.677h-6.767c0-2.707-.827-4.812-2.481-6.316-1.604-1.554-3.885-2.331-6.842-2.331-2.907 0-5.188.702-6.842 2.105-1.604 1.404-2.406 3.359-2.406 5.865 0 2.256.601 4.211 1.804 5.865s2.933 2.832 5.188 3.534l7.519 2.406c3.659 1.152 6.491 3.107 8.496 5.864 2.005 2.757 3.008 5.99 3.008 9.699 0 3.008-.702 5.639-2.105 7.895-1.404 2.256-3.384 4.01-5.94 5.263-2.507 1.253-5.439 1.88-8.797 1.88zM481.73 662v-54.887h31.579v6.165h-24.887v16.993h22.255v6.09h-22.255v19.474h24.887V662H481.73z" fill="#fff"/></g><defs><linearGradient id="paint0_linear_4329_456" x1="690.247" y1="129.815" x2="679.56" y2="756.224" gradientUnits="userSpaceOnUse"><stop stop-color="#308F7A"/><stop offset=".391" stop-color="#24B796"/><stop offset=".745" stop-color="#18463C"/><stop offset=".953" stop-color="#125748" stop-opacity=".476"/></linearGradient><linearGradient id="paint1_linear_4329_456" x1="530.165" y1="59.917" x2="517.102" y2="825.528" gradientUnits="userSpaceOnUse"><stop stop-color="#308F7A"/><stop offset=".391" stop-color="#24B796"/><stop offset=".745" stop-color="#18463C"/><stop offset=".953" stop-color="#125748" stop-opacity=".476"/></linearGradient><linearGradient id="paint2_linear_4329_456" x1="354.843" y1="59.917" x2="367.905" y2="825.528" gradientUnits="userSpaceOnUse"><stop stop-color="#308F7A"/><stop offset=".391" stop-color="#24B796"/><stop offset=".745" stop-color="#18463C"/><stop offset=".953" stop-color="#125748" stop-opacity=".476"/></linearGradient><linearGradient id="paint3_linear_4329_456" x1="194.761" y1="129.815" x2="205.448" y2="756.224" gradientUnits="userSpaceOnUse"><stop stop-color="#308F7A"/><stop offset=".391" stop-color="#24B796"/><stop offset=".745" stop-color="#18463C"/><stop offset=".953" stop-color="#125748" stop-opacity=".476"/></linearGradient><filter id="filter1_d_4329_456" x="372.766" y="606.285" width="645.374" height="862.048" filterUnits="userSpaceOnUse" color-interpolation-filters="sRGB"><feFlood flood-opacity="0" result="BackgroundImageFix"/><feColorMatrix in="SourceAlpha" values="0 0 0 0 0 0 0 0 0 0 0 0 0 0 0 0 0 0 127 0" result="hardAlpha"/><feOffset dx="322.233" dy="622.983"/><feGaussianBlur stdDeviation="91.299"/><feComposite in2="hardAlpha" operator="out"/><feColorMatrix values="0 0 0 0 0 0 0 0 0 0 0 0 0 0 0 0 0 0 0.25 0"/><feBlend in2="BackgroundImageFix" result="effect1_dropShadow_4329_456"/><feBlend in="SourceGraphic" in2="effect1_dropShadow_4329_456" result="shape"/></filter></defs></svg>