<svg xmlns="http://www.w3.org/2000/svg" viewBox="0 0 78 75"><g stroke-width="2" fill="none"><path stroke="#928f90" vector-effect="non-scaling-stroke" d="M16.18 34.09q-.86 2.76-.97 4.66-.58 10.11 2.14 19.65a2.22 2.19 3.5 0 0 1.3 1.45l19.85 8.19q.57.23 1.15-.01 9.72-4.02 20.01-8.32.98-.42 1.18-1.44 2.37-12.31.9-24.9"/><path stroke="#921043" vector-effect="non-scaling-stroke" d="M61.74 33.37q-.57-5.47-3.84-10.23"/><path stroke="#651635" vector-effect="non-scaling-stroke" d="M57.9 23.14q1.86-.95 2.64.13"/><path stroke="#921043" vector-effect="non-scaling-stroke" d="m60.54 23.27 1.5 3.35q.3.69.52-.04 2.59-8.86.03-17.34a1.45 1.44 64.1 0 0-2.21-.77q-4.71 3.28-8.16 8.4-.23.35.11.6l1.29.94a.42.41-58.9 0 0 .62-.16c.97-2.05 4.79-7.83 7.55-4.32q1.77 2.26-.08 3.85"/><path stroke="#651635" vector-effect="non-scaling-stroke" d="M61.71 17.78q-.92-1.14-1.31-2.46a.74.73 64.5 0 0-1.11-.4q-3.94 2.7-3.44 6.72"/><path stroke="#921043" vector-effect="non-scaling-stroke" d="M55.85 21.64q-.44.24-1.01.14-.4-.08-.7-.36c-8.12-7.72-22.4-7.56-30.58-.93q-.27.21-.6.19-.31-.03-.53-.25"/><path stroke="#651635" vector-effect="non-scaling-stroke" d="M22.43 20.43q-.11-.43-.04-.92.07-.51.47-.83l1.64-1.29q.51-.39.27-.99-1.97-4.92-5.33-3.77"/><path stroke="#921043" vector-effect="non-scaling-stroke" d="M19.44 12.63q-.78-.42-.31-1.37a2.14 2.14 0 0 1 3.09-.85q2.85 1.86 4.29 5.25.14.32.48.23l1.15-.3q.3-.08.14-.35-3.37-5.58-7.99-9.4a1.63 1.63 0 0 0-2.61.83q-2.35 8.73.21 16.8.44 1.4.97.03.49-1.25 1.44-.69a.99.99 0 0 1 .31 1.44q-3.13 4.31-4.43 9.84"/><path stroke="#d20658" vector-effect="non-scaling-stroke" d="M19.44 12.63q-1 2.85.22 7.54a1.54 1.54 0 0 0 2.25.96q.15-.09.52-.7M55.85 21.64q1.13 1.08 2.05 1.5"/><path stroke="#ff80b3" vector-effect="non-scaling-stroke" d="M61.74 33.37q-1.47 7.12-8.49 7.81c-5.99.6-6.89-6.68-11.53-8.9a6.98 6.98 0 0 0-8.46 2.11c-1.86 2.36-4.26 6.65-7.46 6.79q-7.89.37-9.62-7.09"/><path stroke="#d20658" vector-effect="non-scaling-stroke" d="M60.54 23.27q1.94-2.26 1.17-5.49"/><path stroke="#3f1090" vector-effect="non-scaling-stroke" d="M30.23 14.5q.18.25.48.18 9.52-2.41 18.92 1.26.64.25 1.06-.29l1.98-2.52q.45-.57-.22-.84L39.92 7.07a2.2 2.16 44.8 0 0-1.69-.01l-9.92 4.07q-.37.15-.14.48l2.06 2.89M13.55 50.26a.16.16 0 0 0 .31-.06q.01-.47-.07-.95-2.06-12.18 2.97-22.38.18-.37.05-.75l-1.68-5.08q-.01-.05-.03 0l-6.61 15.9a1.46 1.43 45.6 0 0 0 1.13l5.06 12.19M63.98 51.52q2.79-6.85 5.53-13.43.24-.58 0-1.15L65.1 26.25q-.35-.84-.59.04-.4 1.45-1.19 2.75-.29.48-.19 1.03 2.04 11.23.43 22.45a.04.04 0 0 0 .07.02q.15-.52.35-1.02"/><path stroke="#ff80b3" vector-effect="non-scaling-stroke" d="M32.56 22.45a3.11 2.47-.2 0 0-3.12-2.46 3.11 2.47-.2 0 0-3.1 2.48 3.11 2.47-.2 0 0 3.12 2.46 3.11 2.47-.2 0 0 3.1-2.48M51.61 22.46a3.11 2.46.2 0 0-3.1-2.47 3.11 2.46.2 0 0-3.12 2.45 3.11 2.46.2 0 0 3.1 2.47 3.11 2.46.2 0 0 3.12-2.45"/><path stroke="#921043" vector-effect="non-scaling-stroke" d="M31.57 32.35a5.85 5.85 0 0 0-5.85-5.85 5.85 5.85 0 0 0-5.85 5.85 5.85 5.85 0 0 0 5.85 5.85 5.85 5.85 0 0 0 5.85-5.85M58.42 32.36a5.85 5.85 0 0 0-5.85-5.85 5.85 5.85 0 0 0-5.85 5.85 5.85 5.85 0 0 0 5.85 5.85 5.85 5.85 0 0 0 5.85-5.85"/><path stroke="#921043" vector-effect="non-scaling-stroke" d="M21.51 31.67q-.39 1.2.78.74 3.39-1.32 7.14.23a.51.51 0 0 0 .69-.56c-.99-5.18-7-5.39-8.61-.41"/><path stroke="#928f90" vector-effect="non-scaling-stroke" d="M24.96 35.92q-.67-.57-.9-1.44-.13-.48-.55-.66-.48-.21-1.08.36a.63.62-41.3 0 0-.06.87q2.48 2.97 5.85.9.74-.46.88-1.3.09-.5-.39-.66l-.49-.16a.55.55 0 0 0-.71.4q-.35 1.46-1.66 1.87-.49.15-.89-.18"/><path stroke="#921043" vector-effect="non-scaling-stroke" d="M48.27 32.06q-.03.09-.09.17-.08.12.01.24.21.24.55.12 3.92-1.5 7.15-.07 1.25.54.95-.78-.26-1.14-.93-2.11a3.59 3.59 0 0 0-2.5-1.49q-3.95-.46-5.14 3.92"/><path stroke="#928f90" vector-effect="non-scaling-stroke" d="M51.71 35.8q-.68-.7-.95-1.66-.19-.65-.8-.36l-.5.24q-.57.27-.35.86.32.83 1.3 1.31 2.98 1.46 5.33-.81.39-.38.22-.89-.14-.45-.61-.65-.78-.34-1.01.48-.32 1.16-1.38 1.7-.7.36-1.25-.22M45.46 44.88q2.11-.77 3.64-2.39.59-.63-.09-1.16l-.27-.21a.55.54-47.2 0 0-.7.03q-3.78 3.4-7.13 1.66a.52.51-41 0 1 .07-.94c1.45-.52 3.06-1.79 3.26-3.43.83-6.56-9.09-7.47-10.18-1.67q-.61 3.3 2.56 4.74 2.24 1.02-.14 1.64-3.39.89-6.05-1.94a.79.79 0 0 0-1.13-.03l-.2.19a.64.63 48.5 0 0-.05.85q1.47 1.84 3.75 2.65.53.19.31.71c-2.37 5.65-.31 11.69 5.73 12.48 7.65 1 8.66-7.49 6.34-12.5q-.23-.5.28-.68"/><path stroke="#5e1c5d" vector-effect="non-scaling-stroke" d="M41.46 37.38q-.65.45-1 1.13-.41.76.45.69 1.06-.09 1.47-1.23c.67-1.86-1.24-3.08-2.81-3.28-2.29-.28-4.9 1.73-3.33 4.03a1.34 1.33 74.1 0 0 1.01.57l.48.03a.37.37 0 0 0 .29-.63q-.51-.51-.86-1.27-1.02-2.19 1.08-.99 1.07.61 1.98-.15.56-.48 1.1.02l.2.19a.57.57 0 0 1-.06.89"/><path stroke="#912b8f" vector-effect="non-scaling-stroke" d="m38.63 52.39-.26-7.61q-.03-.7-.59-.29-.88.65-1.95.82a1.21 1.21 0 0 0-.91.72c-1.5 3.54-1.42 9.22 3.33 10.06 6.54 1.16 7.22-4.84 5.52-9.35-.51-1.37-1.73-1.66-2.93-2.14q-.63-.25-.6.43l.29 6.9q.03.81-.77.95l-.44.07q-.66.12-.69-.56"/></g><path fill="#241f20" d="M56.24 9.23q1.15-.98 2.51-1.93c5.72-4 6.73 4.45 6.9 7.64.09 1.77.03 3.31.73 4.99q3.38 8.14 6.56 15.87.7 1.7.02 3.36l-8.64 20.87c-.96 2.31-2.61 2.73-4.71 3.62q-9.51 3.99-18.95 7.83a4.45 4.44 45.1 0 1-3.38-.01l-21.13-8.78a4.36 4.36 0 0 1-2.34-2.34L4.98 39.02a3.88 3.86 44.9 0 1-.01-2.92q4.44-11.07 9.01-21.69.72-1.67.89-3.32c.25-2.48.68-5.83 2.87-7.38a1.53 1.52 30.9 0 1 1.09-.27c2.72.38 4.61 2.53 6.42 4.45q.43.46 1.02.21L37.3 3.53a4.55 4.55 0 0 1 3.5 0l14.18 5.9q.69.29 1.26-.2ZM16.18 34.09q-.86 2.76-.97 4.66-.58 10.11 2.14 19.65a2.22 2.19 3.5 0 0 1.3 1.45l19.85 8.19q.57.23 1.15-.01 9.72-4.02 20.01-8.32.98-.42 1.18-1.44 2.37-12.31.9-24.9-.57-5.47-3.84-10.23 1.86-.95 2.64.13l1.5 3.35q.3.69.52-.04 2.59-8.86.03-17.34a1.45 1.44 64.1 0 0-2.21-.77q-4.71 3.28-8.16 8.4-.23.35.11.6l1.29.94a.42.41-58.9 0 0 .62-.16c.97-2.05 4.79-7.83 7.55-4.32q1.77 2.26-.08 3.85-.92-1.14-1.31-2.46a.74.73 64.5 0 0-1.11-.4q-3.94 2.7-3.44 6.72-.44.24-1.01.14-.4-.08-.7-.36c-8.12-7.72-22.4-7.56-30.58-.93q-.27.21-.6.19-.31-.03-.53-.25-.11-.43-.04-.92.07-.51.47-.83l1.64-1.29q.51-.39.27-.99-1.97-4.92-5.33-3.77-.78-.42-.31-1.37a2.14 2.14 0 0 1 3.09-.85q2.85 1.86 4.29 5.25.14.32.48.23l1.15-.3q.3-.08.14-.35-3.37-5.58-7.99-9.4a1.63 1.63 0 0 0-2.61.83q-2.35 8.73.21 16.8.44 1.4.97.03.49-1.25 1.44-.69a.99.99 0 0 1 .31 1.44q-3.13 4.31-4.43 9.84ZM30.23 14.5q.18.25.48.18 9.52-2.41 18.92 1.26.64.25 1.06-.29l1.98-2.52q.45-.57-.22-.84L39.92 7.07a2.2 2.16 44.8 0 0-1.69-.01l-9.92 4.07q-.37.15-.14.48l2.06 2.89ZM13.55 50.26a.16.16 0 0 0 .31-.06q.01-.47-.07-.95-2.06-12.18 2.97-22.38.18-.37.05-.75l-1.68-5.08q-.01-.05-.03 0l-6.61 15.9a1.46 1.43 45.6 0 0 0 1.13l5.06 12.19Zm50.43 1.26q2.79-6.85 5.53-13.43.24-.58 0-1.15L65.1 26.25q-.35-.84-.59.04-.4 1.45-1.19 2.75-.29.48-.19 1.03 2.04 11.23.43 22.45a.04.04 0 0 0 .07.02q.15-.52.35-1.02Z"/><path fill="#f06" d="M19.44 12.63q-1 2.85.22 7.54a1.54 1.54 0 0 0 2.25.96q.15-.09.52-.7.22.22.53.25.33.02.6-.19c8.18-6.63 22.46-6.79 30.58.93q.3.28.7.36.57.1 1.01-.14 1.13 1.08 2.05 1.5 3.27 4.76 3.84 10.23-1.47 7.12-8.49 7.81c-5.99.6-6.89-6.68-11.53-8.9a6.98 6.98 0 0 0-8.46 2.11c-1.86 2.36-4.26 6.65-7.46 6.79q-7.89.37-9.62-7.09 1.3-5.53 4.43-9.84a.99.99 0 0 0-.31-1.44q-.95-.56-1.44.69-.53 1.37-.97-.03-2.56-8.07-.21-16.8a1.63 1.63 0 0 1 2.61-.83q4.62 3.82 7.99 9.4.16.27-.14.35l-1.15.3q-.34.09-.48-.23-1.44-3.39-4.29-5.25a2.14 2.14 0 0 0-3.09.85q-.47.95.31 1.37Zm13.12 9.82a3.11 2.47-.2 0 0-3.12-2.46 3.11 2.47-.2 0 0-3.1 2.48 3.11 2.47-.2 0 0 3.12 2.46 3.11 2.47-.2 0 0 3.1-2.48Zm19.05.01a3.11 2.46.2 0 0-3.1-2.47 3.11 2.46.2 0 0-3.12 2.45 3.11 2.46.2 0 0 3.1 2.47 3.11 2.46.2 0 0 3.12-2.45Zm-20.04 9.89a5.85 5.85 0 0 0-5.85-5.85 5.85 5.85 0 0 0-5.85 5.85 5.85 5.85 0 0 0 5.85 5.85 5.85 5.85 0 0 0 5.85-5.85Zm26.85.01a5.85 5.85 0 0 0-5.85-5.85 5.85 5.85 0 0 0-5.85 5.85 5.85 5.85 0 0 0 5.85 5.85 5.85 5.85 0 0 0 5.85-5.85Z"/><path fill="#5900ff" d="m30.23 14.5-2.06-2.89q-.23-.33.14-.48l9.92-4.07a2.2 2.16 44.8 0 1 1.69.01l12.53 5.22q.67.27.22.84l-1.98 2.52q-.42.54-1.06.29-9.4-3.67-18.92-1.26-.3.07-.48-.18Z"/><path fill="#f06" d="M60.54 23.27q1.94-2.26 1.17-5.49 1.85-1.59.08-3.85c-2.76-3.51-6.58 2.27-7.55 4.32a.42.41-58.9 0 1-.62.16l-1.29-.94q-.34-.25-.11-.6 3.45-5.12 8.16-8.4a1.45 1.44 64.1 0 1 2.21.77q2.56 8.48-.03 17.34-.22.73-.52.04l-1.5-3.35Z"/><path fill="#a50c49" d="M22.43 20.43q-.37.61-.52.7a1.54 1.54 0 0 1-2.25-.96q-1.22-4.69-.22-7.54 3.36-1.15 5.33 3.77.24.6-.27.99l-1.64 1.29q-.4.32-.47.83-.07.49.04.92ZM61.71 17.78q.77 3.23-1.17 5.49-.78-1.08-2.64-.13-.92-.42-2.05-1.5-.5-4.02 3.44-6.72a.74.73 64.5 0 1 1.11.4q.39 1.32 1.31 2.46Z"/><ellipse fill="#fff" transform="rotate(-.2 6449.03 -8425.56)" rx="3.11" ry="2.47"/><ellipse fill="#fff" transform="rotate(.2 -6407.2 13905.44)" rx="3.11" ry="2.46"/><path fill="#5900ff" d="M13.55 50.26 8.49 38.07a1.46 1.43 45.6 0 1 0-1.13l6.61-15.9q.02-.05.03 0l1.68 5.08q.13.38-.05.75-5.03 10.2-2.97 22.38.08.48.07.95a.16.16 0 0 1-.31.06ZM63.98 51.52q-.2.5-.35 1.02a.04.04 0 0 1-.07-.02q1.61-11.22-.43-22.45-.1-.55.19-1.03.79-1.3 1.19-2.75.24-.88.59-.04l4.41 10.69q.24.57 0 1.15-2.74 6.58-5.53 13.43Z"/><path fill="#241f20" d="M31.57 32.35a5.85 5.85 0 0 1-5.85 5.85 5.85 5.85 0 0 1-5.85-5.85 5.85 5.85 0 0 1 5.85-5.85 5.85 5.85 0 0 1 5.85 5.85Zm-10.06-.68q-.39 1.2.78.74 3.39-1.32 7.14.23a.51.51 0 0 0 .69-.56c-.99-5.18-7-5.39-8.61-.41Zm3.45 4.25q-.67-.57-.9-1.44-.13-.48-.55-.66-.48-.21-1.08.36a.63.62-41.3 0 0-.06.87q2.48 2.97 5.85.9.74-.46.88-1.3.09-.5-.39-.66l-.49-.16a.55.55 0 0 0-.71.4q-.35 1.46-1.66 1.87-.49.15-.89-.18ZM58.42 32.36a5.85 5.85 0 0 1-5.85 5.85 5.85 5.85 0 0 1-5.85-5.85 5.85 5.85 0 0 1 5.85-5.85 5.85 5.85 0 0 1 5.85 5.85Zm-10.15-.3q-.03.09-.09.17-.08.12.01.24.21.24.55.12 3.92-1.5 7.15-.07 1.25.54.95-.78-.26-1.14-.93-2.11a3.59 3.59 0 0 0-2.5-1.49q-3.95-.46-5.14 3.92Zm3.44 3.74q-.68-.7-.95-1.66-.19-.65-.8-.36l-.5.24q-.57.27-.35.86.32.83 1.3 1.31 2.98 1.46 5.33-.81.39-.38.22-.89-.14-.45-.61-.65-.78-.34-1.01.48-.32 1.16-1.38 1.7-.7.36-1.25-.22Z"/><path fill="#f06" d="M21.51 31.67c1.61-4.98 7.62-4.77 8.61.41a.51.51 0 0 1-.69.56q-3.75-1.55-7.14-.23-1.17.46-.78-.74ZM48.27 32.06q1.19-4.38 5.14-3.92a3.59 3.59 0 0 1 2.5 1.49q.67.97.93 2.11.3 1.32-.95.78-3.23-1.43-7.15.07-.34.12-.55-.12-.09-.12-.01-.24.06-.08.09-.17Z"/><path fill="#fff" d="M61.74 33.37q1.47 12.59-.9 24.9-.2 1.02-1.18 1.44-10.29 4.3-20.01 8.32-.58.24-1.15.01l-19.85-8.19a2.22 2.19 3.5 0 1-1.3-1.45q-2.72-9.54-2.14-19.65.11-1.9.97-4.66 1.73 7.46 9.62 7.09c3.2-.14 5.6-4.43 7.46-6.79a6.98 6.98 0 0 1 8.46-2.11c4.64 2.22 5.54 9.5 11.53 8.9q7.02-.69 8.49-7.81ZM45.46 44.88q2.11-.77 3.64-2.39.59-.63-.09-1.16l-.27-.21a.55.54-47.2 0 0-.7.03q-3.78 3.4-7.13 1.66a.52.51-41 0 1 .07-.94c1.45-.52 3.06-1.79 3.26-3.43.83-6.56-9.09-7.47-10.18-1.67q-.61 3.3 2.56 4.74 2.24 1.02-.14 1.64-3.39.89-6.05-1.94a.79.79 0 0 0-1.13-.03l-.2.19a.64.63 48.5 0 0-.05.85q1.47 1.84 3.75 2.65.53.19.31.71c-2.37 5.65-.31 11.69 5.73 12.48 7.65 1 8.66-7.49 6.34-12.5q-.23-.5.28-.68Z"/><path fill="#241f20" d="M45.18 45.56c2.32 5.01 1.31 13.5-6.34 12.5-6.04-.79-8.1-6.83-5.73-12.48q.22-.52-.31-.71-2.28-.81-3.75-2.65a.64.63 48.5 0 1 .05-.85l.2-.19a.79.79 0 0 1 1.13.03q2.66 2.83 6.05 1.94 2.38-.62.14-1.64-3.17-1.44-2.56-4.74c1.09-5.8 11.01-4.89 10.18 1.67-.2 1.64-1.81 2.91-3.26 3.43a.52.51-41 0 0-.07.94q3.35 1.74 7.13-1.66a.55.54-47.2 0 1 .7-.03l.27.21q.68.53.09 1.16-1.53 1.62-3.64 2.39-.51.18-.28.68Zm-3.72-8.18q-.65.45-1 1.13-.41.76.45.69 1.06-.09 1.47-1.23c.67-1.86-1.24-3.08-2.81-3.28-2.29-.28-4.9 1.73-3.33 4.03a1.34 1.33 74.1 0 0 1.01.57l.48.03a.37.37 0 0 0 .29-.63q-.51-.51-.86-1.27-1.02-2.19 1.08-.99 1.07.61 1.98-.15.56-.48 1.1.02l.2.19a.57.57 0 0 1-.06.89Zm-2.83 15.01-.26-7.61q-.03-.7-.59-.29-.88.65-1.95.82a1.21 1.21 0 0 0-.91.72c-1.5 3.54-1.42 9.22 3.33 10.06 6.54 1.16 7.22-4.84 5.52-9.35-.51-1.37-1.73-1.66-2.93-2.14q-.63-.25-.6.43l.29 6.9q.03.81-.77.95l-.44.07q-.66.12-.69-.56Z"/><path fill="#fff" d="M25.85 36.1q1.31-.41 1.66-1.87a.55.55 0 0 1 .71-.4l.49.16q.48.16.39.66-.14.84-.88 1.3-3.37 2.07-5.85-.9a.63.62-41.3 0 1 .06-.87q.6-.57 1.08-.36.42.18.55.66.23.87.9 1.44.4.33.89.18ZM52.96 36.02q1.06-.54 1.38-1.7.23-.82 1.01-.48.47.2.61.65.17.51-.22.89-2.35 2.27-5.33.81-.98-.48-1.3-1.31-.22-.59.35-.86l.5-.24q.61-.29.8.36.27.96.95 1.66.55.58 1.25.22Z"/><path fill="#971899" d="M41.46 37.38a.57.57 0 0 0 .06-.89l-.2-.19q-.54-.5-1.1-.02-.91.76-1.98.15-2.1-1.2-1.08.99.35.76.86 1.27a.37.37 0 0 1-.29.63l-.48-.03a1.34 1.33 74.1 0 1-1.01-.57c-1.57-2.3 1.04-4.31 3.33-4.03 1.57.2 3.48 1.42 2.81 3.28q-.41 1.14-1.47 1.23-.86.07-.45-.69.35-.68 1-1.13Z"/><path fill="#fe37fe" d="M38.63 52.39q.03.68.69.56l.44-.07q.8-.14.77-.95l-.29-6.9q-.03-.68.6-.43c1.2.48 2.42.77 2.93 2.14 1.7 4.51 1.02 10.51-5.52 9.35-4.75-.84-4.83-6.52-3.33-10.06a1.21 1.21 0 0 1 .91-.72q1.07-.17 1.95-.82.56-.41.59.29l.26 7.61Z"/></svg>