<?xml version="1.0" encoding="UTF-8" standalone="no"?>
<!DOCTYPE svg PUBLIC "-//W3C//DTD SVG 1.1//EN" "http://www.w3.org/Graphics/SVG/1.1/DTD/svg11.dtd">
<svg xmlns="http://www.w3.org/2000/svg" version="1.1" viewBox="0.00 0.00 78.00 75.00">
<g stroke-width="2.00" fill="none" stroke-linecap="butt">
<path stroke="#928f90" vector-effect="non-scaling-stroke" d="
  M 16.18 34.09
  Q 15.32 36.85 15.21 38.75
  Q 14.63 48.86 17.35 58.40
  A 2.22 2.19 3.5 0 0 18.65 59.85
  L 38.50 68.04
  Q 39.07 68.27 39.65 68.03
  Q 49.37 64.01 59.66 59.71
  Q 60.64 59.29 60.84 58.27
  Q 63.21 45.96 61.74 33.37"
/>
<path stroke="#921043" vector-effect="non-scaling-stroke" d="
  M 61.74 33.37
  Q 61.17 27.90 57.90 23.14"
/>
<path stroke="#651635" vector-effect="non-scaling-stroke" d="
  M 57.90 23.14
  Q 59.76 22.19 60.54 23.27"
/>
<path stroke="#921043" vector-effect="non-scaling-stroke" d="
  M 60.54 23.27
  L 62.04 26.62
  Q 62.34 27.31 62.56 26.58
  Q 65.15 17.72 62.59 9.24
  A 1.45 1.44 64.1 0 0 60.38 8.47
  Q 55.67 11.75 52.22 16.87
  Q 51.99 17.22 52.33 17.47
  L 53.62 18.41
  A 0.42 0.41 -58.9 0 0 54.24 18.25
  C 55.21 16.20 59.03 10.42 61.79 13.93
  Q 63.56 16.19 61.71 17.78"
/>
<path stroke="#651635" vector-effect="non-scaling-stroke" d="
  M 61.71 17.78
  Q 60.79 16.64 60.40 15.32
  A 0.74 0.73 64.5 0 0 59.29 14.92
  Q 55.35 17.62 55.85 21.64"
/>
<path stroke="#921043" vector-effect="non-scaling-stroke" d="
  M 55.85 21.64
  Q 55.41 21.88 54.84 21.78
  Q 54.44 21.70 54.14 21.42
  C 46.02 13.70 31.74 13.86 23.56 20.49
  Q 23.29 20.70 22.96 20.68
  Q 22.65 20.65 22.43 20.43"
/>
<path stroke="#651635" vector-effect="non-scaling-stroke" d="
  M 22.43 20.43
  Q 22.32 20.00 22.39 19.51
  Q 22.46 19.00 22.86 18.68
  L 24.50 17.39
  Q 25.01 17.00 24.77 16.40
  Q 22.80 11.48 19.44 12.63"
/>
<path stroke="#921043" vector-effect="non-scaling-stroke" d="
  M 19.44 12.63
  Q 18.66 12.21 19.13 11.26
  A 2.14 2.14 0.0 0 1 22.22 10.41
  Q 25.07 12.27 26.51 15.66
  Q 26.65 15.98 26.99 15.89
  L 28.14 15.59
  Q 28.44 15.51 28.28 15.24
  Q 24.91 9.66 20.29 5.84
  A 1.63 1.63 0.0 0 0 17.68 6.67
  Q 15.33 15.40 17.89 23.47
  Q 18.33 24.87 18.86 23.50
  Q 19.35 22.25 20.30 22.81
  A 0.99 0.99 0.0 0 1 20.61 24.25
  Q 17.48 28.56 16.18 34.09"
/>
<path stroke="#d20658" vector-effect="non-scaling-stroke" d="
  M 19.44 12.63
  Q 18.44 15.48 19.66 20.17
  A 1.54 1.54 0.0 0 0 21.91 21.13
  Q 22.06 21.04 22.43 20.43"
/>
<path stroke="#d20658" vector-effect="non-scaling-stroke" d="
  M 55.85 21.64
  Q 56.98 22.72 57.90 23.14"
/>
<path stroke="#ff80b3" vector-effect="non-scaling-stroke" d="
  M 61.74 33.37
  Q 60.27 40.49 53.25 41.18
  C 47.26 41.78 46.36 34.50 41.72 32.28
  C 38.76 30.86 35.28 31.84 33.26 34.39
  C 31.40 36.75 29.00 41.04 25.80 41.18
  Q 17.91 41.55 16.18 34.09"
/>
<path stroke="#d20658" vector-effect="non-scaling-stroke" d="
  M 60.54 23.27
  Q 62.48 21.01 61.71 17.78"
/>
<path stroke="#3f1090" vector-effect="non-scaling-stroke" d="
  M 30.23 14.50
  Q 30.41 14.75 30.71 14.68
  Q 40.23 12.27 49.63 15.94
  Q 50.27 16.19 50.69 15.65
  L 52.67 13.13
  Q 53.12 12.56 52.45 12.29
  L 39.92 7.07
  A 2.20 2.16 44.8 0 0 38.23 7.06
  L 28.31 11.13
  Q 27.94 11.28 28.17 11.61
  L 30.23 14.50"
/>
<path stroke="#3f1090" vector-effect="non-scaling-stroke" d="
  M 13.55 50.26
  A 0.16 0.16 0.0 0 0 13.86 50.20
  Q 13.87 49.73 13.79 49.25
  Q 11.73 37.07 16.76 26.87
  Q 16.94 26.50 16.81 26.12
  L 15.13 21.04
  Q 15.12 20.99 15.10 21.04
  Q 11.83 28.88 8.49 36.94
  A 1.46 1.43 45.6 0 0 8.49 38.07
  L 13.55 50.26"
/>
<path stroke="#3f1090" vector-effect="non-scaling-stroke" d="
  M 63.98 51.52
  Q 66.77 44.67 69.51 38.09
  Q 69.75 37.51 69.51 36.94
  L 65.10 26.25
  Q 64.75 25.41 64.51 26.29
  Q 64.11 27.74 63.32 29.04
  Q 63.03 29.52 63.13 30.07
  Q 65.17 41.30 63.56 52.52
  A 0.04 0.04 0.0 0 0 63.63 52.54
  Q 63.78 52.02 63.98 51.52"
/>
<path stroke="#ff80b3" vector-effect="non-scaling-stroke" d="
  M 32.5600 22.4491
  A 3.11 2.47 -0.2 0 0 29.4414 19.9900
  A 3.11 2.47 -0.2 0 0 26.3400 22.4709
  A 3.11 2.47 -0.2 0 0 29.4586 24.9300
  A 3.11 2.47 -0.2 0 0 32.5600 22.4491"
/>
<path stroke="#ff80b3" vector-effect="non-scaling-stroke" d="
  M 51.6100 22.4609
  A 3.11 2.46 0.2 0 0 48.5086 19.9900
  A 3.11 2.46 0.2 0 0 45.3900 22.4391
  A 3.11 2.46 0.2 0 0 48.4914 24.9100
  A 3.11 2.46 0.2 0 0 51.6100 22.4609"
/>
<path stroke="#921043" vector-effect="non-scaling-stroke" d="
  M 31.57 32.35
  A 5.85 5.85 0.0 0 0 25.72 26.50
  A 5.85 5.85 0.0 0 0 19.87 32.35
  A 5.85 5.85 0.0 0 0 25.72 38.20
  A 5.85 5.85 0.0 0 0 31.57 32.35"
/>
<path stroke="#921043" vector-effect="non-scaling-stroke" d="
  M 58.42 32.36
  A 5.85 5.85 0.0 0 0 52.57 26.51
  A 5.85 5.85 0.0 0 0 46.72 32.36
  A 5.85 5.85 0.0 0 0 52.57 38.21
  A 5.85 5.85 0.0 0 0 58.42 32.36"
/>
<path stroke="#921043" vector-effect="non-scaling-stroke" d="
  M 21.51 31.67
  Q 21.12 32.87 22.29 32.41
  Q 25.68 31.09 29.43 32.64
  A 0.51 0.51 0.0 0 0 30.12 32.08
  C 29.13 26.90 23.12 26.69 21.51 31.67"
/>
<path stroke="#928f90" vector-effect="non-scaling-stroke" d="
  M 24.96 35.92
  Q 24.29 35.35 24.06 34.48
  Q 23.93 34.00 23.51 33.82
  Q 23.03 33.61 22.43 34.18
  A 0.63 0.62 -41.3 0 0 22.37 35.05
  Q 24.85 38.02 28.22 35.95
  Q 28.96 35.49 29.10 34.65
  Q 29.19 34.15 28.71 33.99
  L 28.22 33.83
  A 0.55 0.55 0.0 0 0 27.51 34.23
  Q 27.16 35.69 25.85 36.10
  Q 25.36 36.25 24.96 35.92"
/>
<path stroke="#921043" vector-effect="non-scaling-stroke" d="
  M 48.27 32.06
  Q 48.24 32.15 48.18 32.23
  Q 48.10 32.35 48.19 32.47
  Q 48.40 32.71 48.74 32.59
  Q 52.66 31.09 55.89 32.52
  Q 57.14 33.06 56.84 31.74
  Q 56.58 30.60 55.91 29.63
  A 3.59 3.59 0.0 0 0 53.41 28.14
  Q 49.46 27.68 48.27 32.06"
/>
<path stroke="#928f90" vector-effect="non-scaling-stroke" d="
  M 51.71 35.80
  Q 51.03 35.10 50.76 34.14
  Q 50.57 33.49 49.96 33.78
  L 49.46 34.02
  Q 48.89 34.29 49.11 34.88
  Q 49.43 35.71 50.41 36.19
  Q 53.39 37.65 55.74 35.38
  Q 56.13 35.00 55.96 34.49
  Q 55.82 34.04 55.35 33.84
  Q 54.57 33.50 54.34 34.32
  Q 54.02 35.48 52.96 36.02
  Q 52.26 36.38 51.71 35.80"
/>
<path stroke="#928f90" vector-effect="non-scaling-stroke" d="
  M 45.46 44.88
  Q 47.57 44.11 49.10 42.49
  Q 49.69 41.86 49.01 41.33
  L 48.74 41.12
  A 0.55 0.54 -47.2 0 0 48.04 41.15
  Q 44.26 44.55 40.91 42.81
  A 0.52 0.51 -41.0 0 1 40.98 41.87
  C 42.43 41.35 44.04 40.08 44.24 38.44
  C 45.07 31.88 35.15 30.97 34.06 36.77
  Q 33.45 40.07 36.62 41.51
  Q 38.86 42.53 36.48 43.15
  Q 33.09 44.04 30.43 41.21
  A 0.79 0.79 0.0 0 0 29.30 41.18
  L 29.10 41.37
  A 0.64 0.63 48.5 0 0 29.05 42.22
  Q 30.52 44.06 32.80 44.87
  Q 33.33 45.06 33.11 45.58
  C 30.74 51.23 32.80 57.27 38.84 58.06
  C 46.49 59.06 47.50 50.57 45.18 45.56
  Q 44.95 45.06 45.46 44.88"
/>
<path stroke="#5e1c5d" vector-effect="non-scaling-stroke" d="
  M 41.46 37.38
  Q 40.81 37.83 40.46 38.51
  Q 40.05 39.27 40.91 39.20
  Q 41.97 39.11 42.38 37.97
  C 43.05 36.11 41.14 34.89 39.57 34.69
  C 37.28 34.41 34.67 36.42 36.24 38.72
  A 1.34 1.33 74.1 0 0 37.25 39.29
  L 37.73 39.32
  A 0.37 0.37 0.0 0 0 38.02 38.69
  Q 37.51 38.18 37.16 37.42
  Q 36.14 35.23 38.24 36.43
  Q 39.31 37.04 40.22 36.28
  Q 40.78 35.80 41.32 36.30
  L 41.52 36.49
  A 0.57 0.57 0.0 0 1 41.46 37.38"
/>
<path stroke="#912b8f" vector-effect="non-scaling-stroke" d="
  M 38.63 52.39
  L 38.37 44.78
  Q 38.34 44.08 37.78 44.49
  Q 36.90 45.14 35.83 45.31
  A 1.21 1.21 0.0 0 0 34.92 46.03
  C 33.42 49.57 33.50 55.25 38.25 56.09
  C 44.79 57.25 45.47 51.25 43.77 46.74
  C 43.26 45.37 42.04 45.08 40.84 44.60
  Q 40.21 44.35 40.24 45.03
  L 40.53 51.93
  Q 40.56 52.74 39.76 52.88
  L 39.32 52.95
  Q 38.66 53.07 38.63 52.39"
/>
</g>
<path fill="#241f20" d="
  M 56.24 9.23
  Q 57.39 8.25 58.75 7.30
  C 64.47 3.30 65.48 11.75 65.65 14.94
  C 65.74 16.71 65.68 18.25 66.38 19.93
  Q 69.76 28.07 72.94 35.80
  Q 73.64 37.50 72.96 39.16
  Q 68.71 49.45 64.32 60.03
  C 63.36 62.34 61.71 62.76 59.61 63.65
  Q 50.10 67.64 40.66 71.48
  A 4.45 4.44 45.1 0 1 37.28 71.47
  L 16.15 62.69
  A 4.36 4.36 0.0 0 1 13.81 60.35
  L 4.98 39.02
  A 3.88 3.86 44.9 0 1 4.97 36.10
  Q 9.41 25.03 13.98 14.41
  Q 14.70 12.74 14.87 11.09
  C 15.12 8.61 15.55 5.26 17.74 3.71
  A 1.53 1.52 30.9 0 1 18.83 3.44
  C 21.55 3.82 23.44 5.97 25.25 7.89
  Q 25.68 8.35 26.27 8.10
  L 37.30 3.53
  A 4.55 4.55 0.0 0 1 40.80 3.53
  L 54.98 9.43
  Q 55.67 9.72 56.24 9.23
  Z
  M 16.18 34.09
  Q 15.32 36.85 15.21 38.75
  Q 14.63 48.86 17.35 58.40
  A 2.22 2.19 3.5 0 0 18.65 59.85
  L 38.50 68.04
  Q 39.07 68.27 39.65 68.03
  Q 49.37 64.01 59.66 59.71
  Q 60.64 59.29 60.84 58.27
  Q 63.21 45.96 61.74 33.37
  Q 61.17 27.90 57.90 23.14
  Q 59.76 22.19 60.54 23.27
  L 62.04 26.62
  Q 62.34 27.31 62.56 26.58
  Q 65.15 17.72 62.59 9.24
  A 1.45 1.44 64.1 0 0 60.38 8.47
  Q 55.67 11.75 52.22 16.87
  Q 51.99 17.22 52.33 17.47
  L 53.62 18.41
  A 0.42 0.41 -58.9 0 0 54.24 18.25
  C 55.21 16.20 59.03 10.42 61.79 13.93
  Q 63.56 16.19 61.71 17.78
  Q 60.79 16.64 60.40 15.32
  A 0.74 0.73 64.5 0 0 59.29 14.92
  Q 55.35 17.62 55.85 21.64
  Q 55.41 21.88 54.84 21.78
  Q 54.44 21.70 54.14 21.42
  C 46.02 13.70 31.74 13.86 23.56 20.49
  Q 23.29 20.70 22.96 20.68
  Q 22.65 20.65 22.43 20.43
  Q 22.32 20.00 22.39 19.51
  Q 22.46 19.00 22.86 18.68
  L 24.50 17.39
  Q 25.01 17.00 24.77 16.40
  Q 22.80 11.48 19.44 12.63
  Q 18.66 12.21 19.13 11.26
  A 2.14 2.14 0.0 0 1 22.22 10.41
  Q 25.07 12.27 26.51 15.66
  Q 26.65 15.98 26.99 15.89
  L 28.14 15.59
  Q 28.44 15.51 28.28 15.24
  Q 24.91 9.66 20.29 5.84
  A 1.63 1.63 0.0 0 0 17.68 6.67
  Q 15.33 15.40 17.89 23.47
  Q 18.33 24.87 18.86 23.50
  Q 19.35 22.25 20.30 22.81
  A 0.99 0.99 0.0 0 1 20.61 24.25
  Q 17.48 28.56 16.18 34.09
  Z
  M 30.23 14.50
  Q 30.41 14.75 30.71 14.68
  Q 40.23 12.27 49.63 15.94
  Q 50.27 16.19 50.69 15.65
  L 52.67 13.13
  Q 53.12 12.56 52.45 12.29
  L 39.92 7.07
  A 2.20 2.16 44.8 0 0 38.23 7.06
  L 28.31 11.13
  Q 27.94 11.28 28.17 11.61
  L 30.23 14.50
  Z
  M 13.55 50.26
  A 0.16 0.16 0.0 0 0 13.86 50.20
  Q 13.87 49.73 13.79 49.25
  Q 11.73 37.07 16.76 26.87
  Q 16.94 26.50 16.81 26.12
  L 15.13 21.04
  Q 15.12 20.99 15.10 21.04
  Q 11.83 28.88 8.49 36.94
  A 1.46 1.43 45.6 0 0 8.49 38.07
  L 13.55 50.26
  Z
  M 63.98 51.52
  Q 66.77 44.67 69.51 38.09
  Q 69.75 37.51 69.51 36.94
  L 65.10 26.25
  Q 64.75 25.41 64.51 26.29
  Q 64.11 27.74 63.32 29.04
  Q 63.03 29.52 63.13 30.07
  Q 65.17 41.30 63.56 52.52
  A 0.04 0.04 0.0 0 0 63.63 52.54
  Q 63.78 52.02 63.98 51.52
  Z"
/>
<path fill="#ff0066" d="
  M 19.44 12.63
  Q 18.44 15.48 19.66 20.17
  A 1.54 1.54 0.0 0 0 21.91 21.13
  Q 22.06 21.04 22.43 20.43
  Q 22.65 20.65 22.96 20.68
  Q 23.29 20.70 23.56 20.49
  C 31.74 13.86 46.02 13.70 54.14 21.42
  Q 54.44 21.70 54.84 21.78
  Q 55.41 21.88 55.85 21.64
  Q 56.98 22.72 57.90 23.14
  Q 61.17 27.90 61.74 33.37
  Q 60.27 40.49 53.25 41.18
  C 47.26 41.78 46.36 34.50 41.72 32.28
  C 38.76 30.86 35.28 31.84 33.26 34.39
  C 31.40 36.75 29.00 41.04 25.80 41.18
  Q 17.91 41.55 16.18 34.09
  Q 17.48 28.56 20.61 24.25
  A 0.99 0.99 0.0 0 0 20.30 22.81
  Q 19.35 22.25 18.86 23.50
  Q 18.33 24.87 17.89 23.47
  Q 15.33 15.40 17.68 6.67
  A 1.63 1.63 0.0 0 1 20.29 5.84
  Q 24.91 9.66 28.28 15.24
  Q 28.44 15.51 28.14 15.59
  L 26.99 15.89
  Q 26.65 15.98 26.51 15.66
  Q 25.07 12.27 22.22 10.41
  A 2.14 2.14 0.0 0 0 19.13 11.26
  Q 18.66 12.21 19.44 12.63
  Z
  M 32.5600 22.4491
  A 3.11 2.47 -0.2 0 0 29.4414 19.9900
  A 3.11 2.47 -0.2 0 0 26.3400 22.4709
  A 3.11 2.47 -0.2 0 0 29.4586 24.9300
  A 3.11 2.47 -0.2 0 0 32.5600 22.4491
  Z
  M 51.6100 22.4609
  A 3.11 2.46 0.2 0 0 48.5086 19.9900
  A 3.11 2.46 0.2 0 0 45.3900 22.4391
  A 3.11 2.46 0.2 0 0 48.4914 24.9100
  A 3.11 2.46 0.2 0 0 51.6100 22.4609
  Z
  M 31.57 32.35
  A 5.85 5.85 0.0 0 0 25.72 26.50
  A 5.85 5.85 0.0 0 0 19.87 32.35
  A 5.85 5.85 0.0 0 0 25.72 38.20
  A 5.85 5.85 0.0 0 0 31.57 32.35
  Z
  M 58.42 32.36
  A 5.85 5.85 0.0 0 0 52.57 26.51
  A 5.85 5.85 0.0 0 0 46.72 32.36
  A 5.85 5.85 0.0 0 0 52.57 38.21
  A 5.85 5.85 0.0 0 0 58.42 32.36
  Z"
/>
<path fill="#5900ff" d="
  M 30.23 14.50
  L 28.17 11.61
  Q 27.94 11.28 28.31 11.13
  L 38.23 7.06
  A 2.20 2.16 44.8 0 1 39.92 7.07
  L 52.45 12.29
  Q 53.12 12.56 52.67 13.13
  L 50.69 15.65
  Q 50.27 16.19 49.63 15.94
  Q 40.23 12.27 30.71 14.68
  Q 30.41 14.75 30.23 14.50
  Z"
/>
<path fill="#ff0066" d="
  M 60.54 23.27
  Q 62.48 21.01 61.71 17.78
  Q 63.56 16.19 61.79 13.93
  C 59.03 10.42 55.21 16.20 54.24 18.25
  A 0.42 0.41 -58.9 0 1 53.62 18.41
  L 52.33 17.47
  Q 51.99 17.22 52.22 16.87
  Q 55.67 11.75 60.38 8.47
  A 1.45 1.44 64.1 0 1 62.59 9.24
  Q 65.15 17.72 62.56 26.58
  Q 62.34 27.31 62.04 26.62
  L 60.54 23.27
  Z"
/>
<path fill="#a50c49" d="
  M 22.43 20.43
  Q 22.06 21.04 21.91 21.13
  A 1.54 1.54 0.0 0 1 19.66 20.17
  Q 18.44 15.48 19.44 12.63
  Q 22.80 11.48 24.77 16.40
  Q 25.01 17.00 24.50 17.39
  L 22.86 18.68
  Q 22.46 19.00 22.39 19.51
  Q 22.32 20.00 22.43 20.43
  Z"
/>
<path fill="#a50c49" d="
  M 61.71 17.78
  Q 62.48 21.01 60.54 23.27
  Q 59.76 22.19 57.90 23.14
  Q 56.98 22.72 55.85 21.64
  Q 55.35 17.62 59.29 14.92
  A 0.74 0.73 64.5 0 1 60.40 15.32
  Q 60.79 16.64 61.71 17.78
  Z"
/>
<ellipse fill="#ffffff" cx="0.00" cy="0.00" transform="translate(29.45,22.46) rotate(-0.2)" rx="3.11" ry="2.47"/>
<ellipse fill="#ffffff" cx="0.00" cy="0.00" transform="translate(48.50,22.45) rotate(0.2)" rx="3.11" ry="2.46"/>
<path fill="#5900ff" d="
  M 13.55 50.26
  L 8.49 38.07
  A 1.46 1.43 45.6 0 1 8.49 36.94
  Q 11.83 28.88 15.10 21.04
  Q 15.12 20.99 15.13 21.04
  L 16.81 26.12
  Q 16.94 26.50 16.76 26.87
  Q 11.73 37.07 13.79 49.25
  Q 13.87 49.73 13.86 50.20
  A 0.16 0.16 0.0 0 1 13.55 50.26
  Z"
/>
<path fill="#5900ff" d="
  M 63.98 51.52
  Q 63.78 52.02 63.63 52.54
  A 0.04 0.04 0.0 0 1 63.56 52.52
  Q 65.17 41.30 63.13 30.07
  Q 63.03 29.52 63.32 29.04
  Q 64.11 27.74 64.51 26.29
  Q 64.75 25.41 65.10 26.25
  L 69.51 36.94
  Q 69.75 37.51 69.51 38.09
  Q 66.77 44.67 63.98 51.52
  Z"
/>
<path fill="#241f20" d="
  M 31.57 32.35
  A 5.85 5.85 0.0 0 1 25.72 38.20
  A 5.85 5.85 0.0 0 1 19.87 32.35
  A 5.85 5.85 0.0 0 1 25.72 26.50
  A 5.85 5.85 0.0 0 1 31.57 32.35
  Z
  M 21.51 31.67
  Q 21.12 32.87 22.29 32.41
  Q 25.68 31.09 29.43 32.64
  A 0.51 0.51 0.0 0 0 30.12 32.08
  C 29.13 26.90 23.12 26.69 21.51 31.67
  Z
  M 24.96 35.92
  Q 24.29 35.35 24.06 34.48
  Q 23.93 34.00 23.51 33.82
  Q 23.03 33.61 22.43 34.18
  A 0.63 0.62 -41.3 0 0 22.37 35.05
  Q 24.85 38.02 28.22 35.95
  Q 28.96 35.49 29.10 34.65
  Q 29.19 34.15 28.71 33.99
  L 28.22 33.83
  A 0.55 0.55 0.0 0 0 27.51 34.23
  Q 27.16 35.69 25.85 36.10
  Q 25.36 36.25 24.96 35.92
  Z"
/>
<path fill="#241f20" d="
  M 58.42 32.36
  A 5.85 5.85 0.0 0 1 52.57 38.21
  A 5.85 5.85 0.0 0 1 46.72 32.36
  A 5.85 5.85 0.0 0 1 52.57 26.51
  A 5.85 5.85 0.0 0 1 58.42 32.36
  Z
  M 48.27 32.06
  Q 48.24 32.15 48.18 32.23
  Q 48.10 32.35 48.19 32.47
  Q 48.40 32.71 48.74 32.59
  Q 52.66 31.09 55.89 32.52
  Q 57.14 33.06 56.84 31.74
  Q 56.58 30.60 55.91 29.63
  A 3.59 3.59 0.0 0 0 53.41 28.14
  Q 49.46 27.68 48.27 32.06
  Z
  M 51.71 35.80
  Q 51.03 35.10 50.76 34.14
  Q 50.57 33.49 49.96 33.78
  L 49.46 34.02
  Q 48.89 34.29 49.11 34.88
  Q 49.43 35.71 50.41 36.19
  Q 53.39 37.65 55.74 35.38
  Q 56.13 35.00 55.96 34.49
  Q 55.82 34.04 55.35 33.84
  Q 54.57 33.50 54.34 34.32
  Q 54.02 35.48 52.96 36.02
  Q 52.26 36.38 51.71 35.80
  Z"
/>
<path fill="#ff0066" d="
  M 21.51 31.67
  C 23.12 26.69 29.13 26.90 30.12 32.08
  A 0.51 0.51 0.0 0 1 29.43 32.64
  Q 25.68 31.09 22.29 32.41
  Q 21.12 32.87 21.51 31.67
  Z"
/>
<path fill="#ff0066" d="
  M 48.27 32.06
  Q 49.46 27.68 53.41 28.14
  A 3.59 3.59 0.0 0 1 55.91 29.63
  Q 56.58 30.60 56.84 31.74
  Q 57.14 33.06 55.89 32.52
  Q 52.66 31.09 48.74 32.59
  Q 48.40 32.71 48.19 32.47
  Q 48.10 32.35 48.18 32.23
  Q 48.24 32.15 48.27 32.06
  Z"
/>
<path fill="#ffffff" d="
  M 61.74 33.37
  Q 63.21 45.96 60.84 58.27
  Q 60.64 59.29 59.66 59.71
  Q 49.37 64.01 39.65 68.03
  Q 39.07 68.27 38.50 68.04
  L 18.65 59.85
  A 2.22 2.19 3.5 0 1 17.35 58.40
  Q 14.63 48.86 15.21 38.75
  Q 15.32 36.85 16.18 34.09
  Q 17.91 41.55 25.80 41.18
  C 29.00 41.04 31.40 36.75 33.26 34.39
  C 35.28 31.84 38.76 30.86 41.72 32.28
  C 46.36 34.50 47.26 41.78 53.25 41.18
  Q 60.27 40.49 61.74 33.37
  Z
  M 45.46 44.88
  Q 47.57 44.11 49.10 42.49
  Q 49.69 41.86 49.01 41.33
  L 48.74 41.12
  A 0.55 0.54 -47.2 0 0 48.04 41.15
  Q 44.26 44.55 40.91 42.81
  A 0.52 0.51 -41.0 0 1 40.98 41.87
  C 42.43 41.35 44.04 40.08 44.24 38.44
  C 45.07 31.88 35.15 30.97 34.06 36.77
  Q 33.45 40.07 36.62 41.51
  Q 38.86 42.53 36.48 43.15
  Q 33.09 44.04 30.43 41.21
  A 0.79 0.79 0.0 0 0 29.30 41.18
  L 29.10 41.37
  A 0.64 0.63 48.5 0 0 29.05 42.22
  Q 30.52 44.06 32.80 44.87
  Q 33.33 45.06 33.11 45.58
  C 30.74 51.23 32.80 57.27 38.84 58.06
  C 46.49 59.06 47.50 50.57 45.18 45.56
  Q 44.95 45.06 45.46 44.88
  Z"
/>
<path fill="#241f20" d="
  M 45.18 45.56
  C 47.50 50.57 46.49 59.06 38.84 58.06
  C 32.80 57.27 30.74 51.23 33.11 45.58
  Q 33.33 45.06 32.80 44.87
  Q 30.52 44.06 29.05 42.22
  A 0.64 0.63 48.5 0 1 29.10 41.37
  L 29.30 41.18
  A 0.79 0.79 0.0 0 1 30.43 41.21
  Q 33.09 44.04 36.48 43.15
  Q 38.86 42.53 36.62 41.51
  Q 33.45 40.07 34.06 36.77
  C 35.15 30.97 45.07 31.88 44.24 38.44
  C 44.04 40.08 42.43 41.35 40.98 41.87
  A 0.52 0.51 -41.0 0 0 40.91 42.81
  Q 44.26 44.55 48.04 41.15
  A 0.55 0.54 -47.2 0 1 48.74 41.12
  L 49.01 41.33
  Q 49.69 41.86 49.10 42.49
  Q 47.57 44.11 45.46 44.88
  Q 44.95 45.06 45.18 45.56
  Z
  M 41.46 37.38
  Q 40.81 37.83 40.46 38.51
  Q 40.05 39.27 40.91 39.20
  Q 41.97 39.11 42.38 37.97
  C 43.05 36.11 41.14 34.89 39.57 34.69
  C 37.28 34.41 34.67 36.42 36.24 38.72
  A 1.34 1.33 74.1 0 0 37.25 39.29
  L 37.73 39.32
  A 0.37 0.37 0.0 0 0 38.02 38.69
  Q 37.51 38.18 37.16 37.42
  Q 36.14 35.23 38.24 36.43
  Q 39.31 37.04 40.22 36.28
  Q 40.78 35.80 41.32 36.30
  L 41.52 36.49
  A 0.57 0.57 0.0 0 1 41.46 37.38
  Z
  M 38.63 52.39
  L 38.37 44.78
  Q 38.34 44.08 37.78 44.49
  Q 36.90 45.14 35.83 45.31
  A 1.21 1.21 0.0 0 0 34.92 46.03
  C 33.42 49.57 33.50 55.25 38.25 56.09
  C 44.79 57.25 45.47 51.25 43.77 46.74
  C 43.26 45.37 42.04 45.08 40.84 44.60
  Q 40.21 44.35 40.24 45.03
  L 40.53 51.93
  Q 40.56 52.74 39.76 52.88
  L 39.32 52.95
  Q 38.66 53.07 38.63 52.39
  Z"
/>
<path fill="#ffffff" d="
  M 25.85 36.10
  Q 27.16 35.69 27.51 34.23
  A 0.55 0.55 0.0 0 1 28.22 33.83
  L 28.71 33.99
  Q 29.19 34.15 29.10 34.65
  Q 28.96 35.49 28.22 35.95
  Q 24.85 38.02 22.37 35.05
  A 0.63 0.62 -41.3 0 1 22.43 34.18
  Q 23.03 33.61 23.51 33.82
  Q 23.93 34.00 24.06 34.48
  Q 24.29 35.35 24.96 35.92
  Q 25.36 36.25 25.85 36.10
  Z"
/>
<path fill="#ffffff" d="
  M 52.96 36.02
  Q 54.02 35.48 54.34 34.32
  Q 54.57 33.50 55.35 33.84
  Q 55.82 34.04 55.96 34.49
  Q 56.13 35.00 55.74 35.38
  Q 53.39 37.65 50.41 36.19
  Q 49.43 35.71 49.11 34.88
  Q 48.89 34.29 49.46 34.02
  L 49.96 33.78
  Q 50.57 33.49 50.76 34.14
  Q 51.03 35.10 51.71 35.80
  Q 52.26 36.38 52.96 36.02
  Z"
/>
<path fill="#971899" d="
  M 41.46 37.38
  A 0.57 0.57 0.0 0 0 41.52 36.49
  L 41.32 36.30
  Q 40.78 35.80 40.22 36.28
  Q 39.31 37.04 38.24 36.43
  Q 36.14 35.23 37.16 37.42
  Q 37.51 38.18 38.02 38.69
  A 0.37 0.37 0.0 0 1 37.73 39.32
  L 37.25 39.29
  A 1.34 1.33 74.1 0 1 36.24 38.72
  C 34.67 36.42 37.28 34.41 39.57 34.69
  C 41.14 34.89 43.05 36.11 42.38 37.97
  Q 41.97 39.11 40.91 39.20
  Q 40.05 39.27 40.46 38.51
  Q 40.81 37.83 41.46 37.38
  Z"
/>
<path fill="#fe37fe" d="
  M 38.63 52.39
  Q 38.66 53.07 39.32 52.95
  L 39.76 52.88
  Q 40.56 52.74 40.53 51.93
  L 40.24 45.03
  Q 40.21 44.35 40.84 44.60
  C 42.04 45.08 43.26 45.37 43.77 46.74
  C 45.47 51.25 44.79 57.25 38.25 56.09
  C 33.50 55.25 33.42 49.57 34.92 46.03
  A 1.21 1.21 0.0 0 1 35.83 45.31
  Q 36.90 45.14 37.78 44.49
  Q 38.34 44.08 38.37 44.78
  L 38.63 52.39
  Z"
/>
</svg>
