<svg width="568" height="568" fill="none" xmlns="http://www.w3.org/2000/svg"><circle cx="284" cy="284" r="276" fill="#000"/><circle cx="284" cy="284" r="276" stroke="url(#paint0_linear_4330_490)" stroke-width="16"/><circle cx="284" cy="284" r="276" stroke="#000" stroke-opacity=".2" stroke-width="16"/><g opacity=".37" fill-rule="evenodd" clip-rule="evenodd"><path d="M61.16 278.436c0 78.101 63.146 141.436 141.055 141.436h163.891c37.42-.015 73.302-14.924 99.754-41.448 26.452-26.523 41.308-62.49 41.3-99.988C507.16 200.335 444.014 137 366.106 137H202.215c-37.42.015-73.302 14.924-99.754 41.447-26.452 26.524-41.308 62.49-41.3 99.989zm392.678 0a91.687 91.687 0 01-6.932 35.03 91.526 91.526 0 01-19.784 29.703 91.32 91.32 0 01-29.623 19.853 91.14 91.14 0 01-34.95 6.979H205.884a91.138 91.138 0 01-34.967-6.963 91.287 91.287 0 01-29.642-19.849 91.526 91.526 0 01-19.798-29.71 91.679 91.679 0 01-6.938-35.043 91.68 91.68 0 016.94-35.021 91.525 91.525 0 0119.786-29.694 91.31 91.31 0 0129.619-19.846 91.145 91.145 0 0134.944-6.976h156.693a91.143 91.143 0 0134.952 6.968 91.303 91.303 0 0129.629 19.844 91.531 91.531 0 0119.793 29.697 91.7 91.7 0 016.943 35.028z" fill="url(#paint1_linear_4330_490)"/><path d="M61.16 278.436c0 78.101 63.146 141.436 141.055 141.436h163.891c37.42-.015 73.302-14.924 99.754-41.448 26.452-26.523 41.308-62.49 41.3-99.988C507.16 200.335 444.014 137 366.106 137H202.215c-37.42.015-73.302 14.924-99.754 41.447-26.452 26.524-41.308 62.49-41.3 99.989zm392.678 0a91.687 91.687 0 01-6.932 35.03 91.526 91.526 0 01-19.784 29.703 91.32 91.32 0 01-29.623 19.853 91.14 91.14 0 01-34.95 6.979H205.884a91.138 91.138 0 01-34.967-6.963 91.287 91.287 0 01-29.642-19.849 91.526 91.526 0 01-19.798-29.71 91.679 91.679 0 01-6.938-35.043 91.68 91.68 0 016.94-35.021 91.525 91.525 0 0119.786-29.694 91.31 91.31 0 0129.619-19.846 91.145 91.145 0 0134.944-6.976h156.693a91.143 91.143 0 0134.952 6.968 91.303 91.303 0 0129.629 19.844 91.531 91.531 0 0119.793 29.697 91.7 91.7 0 016.943 35.028z" fill="#000" fill-opacity=".2"/></g><path d="M435.664 174.71H273.805L374.16 279.628 270.284 393.835h165.38v76.718H159.16v-69.735l108.806-120.243-108.284-112.651V98h275.982v76.71z" fill="#fff"/><g filter="url(#filter0_d_4330_490)"><path d="M174.46 328.82v-98.204h6.291v98.204h-6.291zm18.145-66.786c-.358-3.35-1.867-5.959-4.527-7.826-2.634-1.867-6.061-2.8-10.28-2.8-2.967 0-5.512.447-7.634 1.343-2.123.895-3.747 2.109-4.872 3.644-1.125 1.534-1.701 3.286-1.726 5.255 0 1.637.37 3.056 1.112 4.258.767 1.202 1.803 2.225 3.107 3.069a21.934 21.934 0 004.335 2.072 46.918 46.918 0 004.795 1.419l7.366 1.841a50.723 50.723 0 018.554 2.801c2.762 1.176 5.23 2.659 7.404 4.45a19.75 19.75 0 015.217 6.483c1.279 2.531 1.918 5.498 1.918 8.899 0 4.604-1.177 8.657-3.529 12.161-2.353 3.478-5.754 6.202-10.204 8.171-4.425 1.943-9.782 2.915-16.074 2.915-6.112 0-11.418-.946-15.919-2.839-4.476-1.892-7.98-4.654-10.511-8.286-2.507-3.631-3.862-8.055-4.067-13.272h14.002c.205 2.736 1.049 5.012 2.532 6.828 1.483 1.816 3.414 3.171 5.792 4.066 2.404.895 5.09 1.343 8.056 1.343 3.095 0 5.806-.461 8.133-1.381 2.353-.946 4.194-2.251 5.524-3.913 1.33-1.688 2.007-3.657 2.033-5.908-.026-2.046-.627-3.733-1.803-5.063-1.176-1.356-2.826-2.481-4.949-3.376-2.097-.921-4.552-1.739-7.365-2.455l-8.938-2.302c-6.47-1.662-11.585-4.181-15.344-7.557-3.734-3.401-5.601-7.915-5.601-13.541 0-4.629 1.253-8.683 3.759-12.161 2.532-3.478 5.972-6.176 10.319-8.094 4.348-1.944 9.271-2.915 14.769-2.915 5.575 0 10.46.971 14.654 2.915 4.22 1.918 7.532 4.591 9.936 8.017 2.404 3.402 3.644 7.315 3.721 11.739h-13.695z" fill="#fff"/></g><defs><linearGradient id="paint0_linear_4330_490" x1="570.341" y1="283.919" x2="-2.366" y2="283.919" gradientUnits="userSpaceOnUse"><stop stop-color="#FF0303"/><stop offset="1" stop-color="#371E1E"/></linearGradient><linearGradient id="paint1_linear_4330_490" x1="508.998" y1="278.396" x2="59.302" y2="278.396" gradientUnits="userSpaceOnUse"><stop stop-color="#FF0303"/><stop offset="1" stop-color="#371E1E"/></linearGradient><filter id="filter0_d_4330_490" x="147.07" y="217.271" width="139.237" height="175.229" filterUnits="userSpaceOnUse" color-interpolation-filters="sRGB"><feFlood flood-opacity="0" result="BackgroundImageFix"/><feColorMatrix in="SourceAlpha" values="0 0 0 0 0 0 0 0 0 0 0 0 0 0 0 0 0 0 127 0" result="hardAlpha"/><feOffset dx="40.419" dy="25.167"/><feGaussianBlur stdDeviation="19.256"/><feComposite in2="hardAlpha" operator="out"/><feColorMatrix values="0 0 0 0 0 0 0 0 0 0 0 0 0 0 0 0 0 0 0.25 0"/><feBlend in2="BackgroundImageFix" result="effect1_dropShadow_4330_490"/><feBlend in="SourceGraphic" in2="effect1_dropShadow_4330_490" result="shape"/></filter></defs></svg>