<svg width="24" height="24" fill="none" xmlns="http://www.w3.org/2000/svg"><path d="M12.022.147a.924.924 0 0 0-.356.071l-7.74 3.207a.927.927 0 0 0-.501.503L.218 11.667a.93.93 0 0 0 0 .712l3.207 7.738a.927.927 0 0 0 .502.504l7.739 3.206a.933.933 0 0 0 .712 0l7.74-3.206a.931.931 0 0 0 .502-.504l3.206-7.739a.93.93 0 0 0 0-.712L20.62 3.928a.93.93 0 0 0-.503-.503L12.378.218a.926.926 0 0 0-.356-.07z" fill="#ddd" style="stroke-width:1.18749"/><path opacity=".2" d="M12.872 14.313h-2.016c.005-.48.041-.89.11-1.238a2.945 2.945 0 0 1 .372-.95c.178-.281.416-.56.713-.837.247-.223.463-.437.647-.639.185-.202.33-.41.436-.622.104-.218.157-.46.157-.727 0-.308-.047-.564-.142-.766a.97.97 0 0 0-.41-.47 1.316 1.316 0 0 0-.681-.16c-.226 0-.437.05-.633.152a1.18 1.18 0 0 0-.482.446c-.121.202-.184.47-.19.798H8.46c.015-.728.181-1.33.498-1.802a2.874 2.874 0 0 1 1.289-1.062 4.492 4.492 0 0 1 1.81-.351c.74 0 1.371.122 1.898.368.528.237.931.592 1.212 1.06.277.463.418 1.027.418 1.692 0 .463-.09.875-.269 1.236-.18.357-.414.69-.704.998-.29.309-.61.63-.957.958-.3.271-.506.556-.618.854-.104.297-.16.652-.166 1.062zm-2.254 2.465c0-.34.117-.622.348-.846.232-.229.543-.343.934-.343.384 0 .693.114.925.343.237.224.356.506.356.846 0 .33-.119.61-.356.838-.232.23-.54.343-.926.343-.39 0-.701-.114-.933-.343a1.132 1.132 0 0 1-.348-.838Z" fill="url(#a)" style="fill:url(#a);stroke-width:1.18749"/><defs><linearGradient id="a" x1="12" y1="7" x2="12" y2="17" gradientUnits="userSpaceOnUse" gradientTransform="matrix(1.1875 0 0 1.1875 -2.228 -2.228)"><stop stop-color="#888"/><stop offset="1"/></linearGradient></defs></svg>