<svg xmlns="http://www.w3.org/2000/svg" width="512" height="512"><path style="fill:#fff;stroke:none" d="M0 0v512h512V0H0z"/><path style="fill:#3c3c3c;stroke:none" d="M234 13.424c-41.734 5.496-80.971 17.426-116 41.602C91.511 73.305 68.303 96.767 51.053 124-9.34 219.346 2.495 351.686 85.001 430.961c30.973 29.761 68.61 50.694 109.999 61.888 29.381 7.946 61.838 9.521 92 5.866 34.902-4.231 69.252-16.284 99-35.034 25.61-16.141 47.929-36.449 66.105-60.681C533.8 294.083 507.281 136.513 398 57.152c-23.651-17.176-51.682-29.913-80-37.025-26.53-6.664-56.693-10.299-84-6.703z"/><path style="fill:#717f47;stroke:none" d="M238 72v1h4l-4-1z"/><path style="fill:#93ab4f;stroke:none" d="M242 72v1h6l-6-1z"/><path style="fill:#bbdd59;stroke:none" d="M109 363c3.855-16.663 10.883-32.812 16.333-49 12.241-36.366 24.868-72.602 37-109 4.457-13.371 9.212-26.634 13.667-40 1.399-4.197 2.511-12.376 6.419-14.972C186.132 147.561 193.721 149 198 149h41c35.845 0 77.108-5.605 112 3.378 23.155 5.962 39.582 25.103 37.91 49.622-4.099 60.145-53.051 108.707-111.91 115.845-16.852 2.044-34.034 1.155-51 1.155-4.821 0-15.298-1.972-19.298 1.028-5.551 4.163-7.41 19.555-9.755 25.972-8.811 24.111-17.004 48.589-24.947 73 59.87 24.926 122.542 28.213 180-6.45 17.987-10.851 34.311-25.076 47.335-41.55C471.969 279.125 440.917 142.335 336 90.248 241.411 43.288 123.402 91.706 85.203 189c-16.928 43.116-16.1 92.008.608 135 4.417 11.367 12.097 32.931 23.189 39z"/><path style="fill:#93ab4f;stroke:none" d="M265 72v1h5l-5-1z"/><path style="fill:#717f47;stroke:none" d="M270 72v1h5l-5-1m-40 1v1h3l-3-1z"/><path style="fill:#93ab4f;stroke:none" d="m233.667 73.333.666.334-.666-.334M277 73v1h3l-3-1z"/><path style="fill:#717f47;stroke:none" d="M280 73v1h3l-3-1m-55.333 1.333.666.334-.666-.334z"/><path style="fill:#93ab4f;stroke:none" d="m226.667 74.333.666.334-.666-.334m59 0 .666.334-.666-.334z"/><path style="fill:#717f47;stroke:none" d="m287.667 74.333.666.334-.666-.334M219 75l1 1-1-1z"/><path style="fill:#93ab4f;stroke:none" d="m220.667 75.333.666.334-.666-.334M291 75l1 1-1-1z"/><path style="fill:#717f47;stroke:none" d="m292.667 75.333.666.334-.666-.334m-78 1 .666.334-.666-.334z"/><path style="fill:#93ab4f;stroke:none" d="m216 76 1 1-1-1m79.667.333.666.334-.666-.334z"/><path style="fill:#717f47;stroke:none" d="m297.667 76.333.666.334-.666-.334M210 77l1 1-1-1z"/><path style="fill:#93ab4f;stroke:none" d="m211.667 77.333.666.334-.666-.334M300 77l1 1-1-1z"/><path style="fill:#717f47;stroke:none" d="m301.667 77.333.666.334-.666-.334m-95 1 .666.334-.666-.334z"/><path style="fill:#93ab4f;stroke:none" d="m208 78 1 1-1-1m96 0 1 1-1-1z"/><path style="fill:#717f47;stroke:none" d="m305 78 1 1-1-1m-102 1 1 1-1-1z"/><path style="fill:#93ab4f;stroke:none" d="m204 79 1 1-1-1m103 0 1 1-1-1z"/><path style="fill:#717f47;stroke:none" d="m308.667 79.333.666.334-.666-.334M200 80l1 1-1-1z"/><path style="fill:#93ab4f;stroke:none" d="m201 80 1 1-1-1m110 0 1 1-1-1z"/><path style="fill:#717f47;stroke:none" d="m312 80 1 1-1-1m-115 1 1 1-1-1z"/><path style="fill:#93ab4f;stroke:none" d="m198 81 1 1-1-1m116 0 1 1-1-1z"/><path style="fill:#717f47;stroke:none" d="m315 81 1 1-1-1m-121 1 1 1-1-1z"/><path style="fill:#93ab4f;stroke:none" d="m195 82 1 1-1-1m122 0 1 1-1-1z"/><path style="fill:#717f47;stroke:none" d="m318 82 1 1-1-1m-127 1 1 1-1-1z"/><path style="fill:#93ab4f;stroke:none" d="m192 83 1 1-1-1z"/><path style="fill:#717f47;stroke:none" d="m320 83 1 1-1-1m-131 1 1 1-1-1z"/><path style="fill:#93ab4f;stroke:none" d="m322 84 1 1-1-1z"/><path style="fill:#717f47;stroke:none" d="m323 84 1 1-1-1m-137 1 1 1-1-1z"/><path style="fill:#93ab4f;stroke:none" d="m187 85 1 1-1-1m138 0 1 1-1-1z"/><path style="fill:#717f47;stroke:none" d="m326 85 1 1-1-1m-142 1 1 1-1-1z"/><path style="fill:#93ab4f;stroke:none" d="m327 86 1 1-1-1z"/><path style="fill:#717f47;stroke:none" d="m328 86 1 1-1-1m-147 1 1 1-1-1z"/><path style="fill:#93ab4f;stroke:none" d="m182 87 1 1-1-1z"/><path style="fill:#717f47;stroke:none" d="m330 87 1 1-1-1m-151 1 1 1-1-1z"/><path style="fill:#93ab4f;stroke:none" d="m180 88 1 1-1-1m152 0 1 1-1-1z"/><path style="fill:#717f47;stroke:none" d="m177 89 1 1-1-1z"/><path style="fill:#93ab4f;stroke:none" d="m178 89 1 1-1-1m156 0 1 1-1-1z"/><path style="fill:#717f47;stroke:none" d="m335 89 1 1-1-1m-160 1 1 1-1-1z"/><path style="fill:#93ab4f;stroke:none" d="m336 90 1 1-1-1z"/><path style="fill:#717f47;stroke:none" d="m337 90 1 1-1-1m-164 1 1 1-1-1z"/><path style="fill:#93ab4f;stroke:none" d="m338 91 1 1-1-1z"/><path style="fill:#717f47;stroke:none" d="m339 91 1 1-1-1m-168 1 1 1-1-1z"/><path style="fill:#93ab4f;stroke:none" d="m340 92 1 1-1-1z"/><path style="fill:#717f47;stroke:none" d="m341 92 1 1-1-1m-172 1 1 1-1-1z"/><path style="fill:#93ab4f;stroke:none" d="m170 93 1 1-1-1m172 0 1 1-1-1z"/><path style="fill:#717f47;stroke:none" d="m167 94 1 1-1-1z"/><path style="fill:#93ab4f;stroke:none" d="m168 94 1 1-1-1z"/><path style="fill:#717f47;stroke:none" d="m344 94 1 1-1-1z"/><path style="fill:#93ab4f;stroke:none" d="m166 95 1 1-1-1z"/><path style="fill:#717f47;stroke:none" d="m346 95 1 1-1-1m-182 1 1 1-1-1z"/><path style="fill:#93ab4f;stroke:none" d="m347 96 1 1-1-1z"/><path style="fill:#717f47;stroke:none" d="m348 96 1 1-1-1m-186 1 1 1-1-1z"/><path style="fill:#93ab4f;stroke:none" d="m349 97 1 1-1-1m-188 1 1 1-1-1z"/><path style="fill:#717f47;stroke:none" d="m351 98 1 1-1-1m-192 1 1 1-1-1z"/><path style="fill:#93ab4f;stroke:none" d="m352 99 1 1-1-1z"/><path style="fill:#717f47;stroke:none" d="m353 99 1 1-1-1m-196 1 1 1-1-1z"/><path style="fill:#93ab4f;stroke:none" d="m354 100 1 1-1-1m-198 1 1 1-1-1z"/><path style="fill:#717f47;stroke:none" d="m356 101 1 1-1-1m-202 1 1 1-1-1z"/><path style="fill:#93ab4f;stroke:none" d="m357 102 1 1-1-1m-204 1 1 1-1-1z"/><path style="fill:#717f47;stroke:none" d="m359 103 1 1-1-1m-208 1 1 1-1-1z"/><path style="fill:#93ab4f;stroke:none" d="m360 104 1 1-1-1m-210 1 1 1-1-1z"/><path style="fill:#717f47;stroke:none" d="m362 105 1 1-1-1z"/><path style="fill:#93ab4f;stroke:none" d="m149 106 1 1-1-1m214 0 1 1-1-1z"/><path style="fill:#717f47;stroke:none" d="m147 107 1 1-1-1z"/><path style="fill:#93ab4f;stroke:none" d="m364 107 1 1-1-1z"/><path style="fill:#717f47;stroke:none" d="m365 107 1 1-1-1z"/><path style="fill:#93ab4f;stroke:none" d="m146 108 1 1-1-1z"/><path style="fill:#717f47;stroke:none" d="m366 108 1 1-1-1z"/><path style="fill:#93ab4f;stroke:none" d="m367 109 1 1-1-1z"/><path style="fill:#717f47;stroke:none" d="m143 110 1 1-1-1z"/><path style="fill:#93ab4f;stroke:none" d="m368 110 1 1-1-1m-226 1 1 1-1-1z"/><path style="fill:#717f47;stroke:none" d="m370 111 1 1-1-1z"/><path style="fill:#93ab4f;stroke:none" d="m141 112 1 1-1-1z"/><path style="fill:#717f47;stroke:none" d="m371 112 1 1-1-1m-232 1 1 1-1-1z"/><path style="fill:#93ab4f;stroke:none" d="m372 113 1 1-1-1z"/><path style="fill:#717f47;stroke:none" d="m138 114 1 1-1-1z"/><path style="fill:#93ab4f;stroke:none" d="m373 114 1 1-1-1z"/><path style="fill:#717f47;stroke:none" d="m137 115 1 1-1-1m238 0 1 1-1-1z"/><path style="fill:#93ab4f;stroke:none" d="m136 116 1 1-1-1z"/><path style="fill:#717f47;stroke:none" d="m376 116 1 1-1-1z"/><path style="fill:#93ab4f;stroke:none" d="m135 117 1 1-1-1z"/><path style="fill:#717f47;stroke:none" d="m377 117 1 1-1-1z"/><path style="fill:#93ab4f;stroke:none" d="m134 118 1 1-1-1z"/><path style="fill:#717f47;stroke:none" d="m378 118 1 1-1-1z"/><path style="fill:#93ab4f;stroke:none" d="m379 119 1 1-1-1z"/><path style="fill:#717f47;stroke:none" d="m131 120 1 1-1-1z"/><path style="fill:#93ab4f;stroke:none" d="m380 120 1 1-1-1z"/><path style="fill:#717f47;stroke:none" d="m130 121 1 1-1-1z"/><path style="fill:#93ab4f;stroke:none" d="m381 121 1 1-1-1z"/><path style="fill:#717f47;stroke:none" d="m129 122 1 1-1-1z"/><path style="fill:#93ab4f;stroke:none" d="m382 122 1 1-1-1z"/><path style="fill:#717f47;stroke:none" d="m128 123 1 1-1-1z"/><path style="fill:#93ab4f;stroke:none" d="m383 123 1 1-1-1z"/><path style="fill:#717f47;stroke:none" d="m127 124 1 1-1-1z"/><path style="fill:#93ab4f;stroke:none" d="m384 124 1 1-1-1z"/><path style="fill:#717f47;stroke:none" d="m126 125 1 1-1-1z"/><path style="fill:#93ab4f;stroke:none" d="m385 125 1 1-1-1z"/><path style="fill:#717f47;stroke:none" d="m125 126 1 1-1-1z"/><path style="fill:#93ab4f;stroke:none" d="m386 126 1 1-1-1z"/><path style="fill:#717f47;stroke:none" d="m124 127 1 1-1-1z"/><path style="fill:#93ab4f;stroke:none" d="m387 127 1 1-1-1z"/><path style="fill:#717f47;stroke:none" d="m123 128 1 1-1-1z"/><path style="fill:#93ab4f;stroke:none" d="m388 128 1 1-1-1z"/><path style="fill:#717f47;stroke:none" d="m122 129 1 1-1-1z"/><path style="fill:#93ab4f;stroke:none" d="m389 129 1 1-1-1z"/><path style="fill:#717f47;stroke:none" d="m121 130 1 1-1-1z"/><path style="fill:#93ab4f;stroke:none" d="m390 130 1 1-1-1m1 1 1 1-1-1m1 1 1 1-1-1z"/><path style="fill:#717f47;stroke:none" d="m393 133 1 1-1-1z"/><path style="fill:#93ab4f;stroke:none" d="m118 134 1 1-1-1z"/><path style="fill:#717f47;stroke:none" d="m394 134 1 1-1-1z"/><path style="fill:#93ab4f;stroke:none" d="m117 135 1 1-1-1z"/><path style="fill:#717f47;stroke:none" d="m395 135 1 1-1-1z"/><path style="fill:#93ab4f;stroke:none" d="m116 136 1 1-1-1z"/><path style="fill:#717f47;stroke:none" d="m396 136 1 1-1-1m-281 1 1 1-1-1m-1 1 1 1-1-1z"/><path style="fill:#93ab4f;stroke:none" d="m397 138 1 1-1-1m1 1 1 1-1-1m-285 1 1 1-1-1z"/><path style="fill:#717f47;stroke:none" d="m399 140 1 1-1-1z"/><path style="fill:#93ab4f;stroke:none" d="m112 141 1 1-1-1z"/><path style="fill:#717f47;stroke:none" d="m400 141 1 1-1-1m-289 1 1 1-1-1m-1 1 1 1-1-1z"/><path style="fill:#93ab4f;stroke:none" d="m401 143 1 1-1-1m1 1 1 1-1-1m-293 1 1 1-1-1z"/><path style="fill:#717f47;stroke:none" d="m403 145 1 1-1-1m-295 1 1 1-1-1m-1 1 1 1-1-1z"/><path style="fill:#93ab4f;stroke:none" d="m404 147 1 1-1-1z"/><path style="fill:#717f47;stroke:none" d="m405 148 1 1-1-1z"/><path style="fill:#93ab4f;stroke:none" d="m106 149 1 1-1-1z"/><path style="fill:#717f47;stroke:none" d="m181 149 1 1-1-1m144 0v1h7l-7-1z"/><path style="fill:#93ab4f;stroke:none" d="M332 149v1h3l-3-1z"/><path style="fill:#717f47;stroke:none" d="m406 149 1 1-1-1m-301 1 1 1-1-1m234.667.333.666.334-.666-.334z"/><path style="fill:#93ab4f;stroke:none" d="m341.667 150.333.666.334-.666-.334M180 151l1 1-1-1z"/><path style="fill:#717f47;stroke:none" d="m345.667 151.333.666.334-.666-.334z"/><path style="fill:#93ab4f;stroke:none" d="m347 151 1 1-1-1m60 0 1 1-1-1m-303 1 1 1-1-1z"/><path style="fill:#717f47;stroke:none" d="m180 152 1 1-1-1m170 0 1 1-1-1z"/><path style="fill:#93ab4f;stroke:none" d="m351 152 1 1-1-1z"/><path style="fill:#717f47;stroke:none" d="m408 152 1 1-1-1m-305 1 1 1-1-1m251 0 1 1-1-1z"/><path style="fill:#93ab4f;stroke:none" d="m355 153 1 1-1-1m-176 1 1 1-1-1z"/><path style="fill:#717f47;stroke:none" d="m357 154 1 1-1-1z"/><path style="fill:#93ab4f;stroke:none" d="m409 154 1 1-1-1m-307 1 1 1-1-1z"/><path style="fill:#717f47;stroke:none" d="m179 155 1 1-1-1z"/><path style="fill:#93ab4f;stroke:none" d="m360 155 1 1-1-1z"/><path style="fill:#717f47;stroke:none" d="m410 155 1 1-1-1m-309 1 1 1-1-1m261 0 1 1-1-1z"/><path style="fill:#93ab4f;stroke:none" d="m178 157 1 1-1-1z"/><path style="fill:#717f47;stroke:none" d="m364 157 1 1-1-1z"/><path style="fill:#93ab4f;stroke:none" d="m411 157 1 1-1-1m-311 1 1 1-1-1z"/><path style="fill:#717f47;stroke:none" d="m178 158 1 1-1-1m188 0 1 1-1-1m46 0 1 1-1-1m-313 1 1 1-1-1z"/><path style="fill:#93ab4f;stroke:none" d="m368 159 1 1-1-1m44 0 1 1-1-1m-235 1 1 1-1-1z"/><path style="fill:#717f47;stroke:none" d="m369 160 1 1-1-1m44 0 1 1-1-1m-315 1 1 1-1-1m79 0 1 1-1-1z"/><path style="fill:#93ab4f;stroke:none" d="m371 161 1 1-1-1z"/><path style="fill:#717f47;stroke:none" d="m372 162 1 1-1-1z"/><path style="fill:#93ab4f;stroke:none" d="m414 162 1 1-1-1m-317 1 1 1-1-1m79 0 1 1-1-1z"/><path style="fill:#717f47;stroke:none" d="m373 163 1 1-1-1m42 0 1 1-1-1m-319 1 1 1-1-1m80 0 1 1-1-1z"/><path style="fill:#93ab4f;stroke:none" d="m415 164 1 1-1-1m-319 1 1 1-1-1z"/><path style="fill:#717f47;stroke:none" d="m416 165 1 1-1-1m-321 1 1 1-1-1z"/><path style="fill:#93ab4f;stroke:none" d="m175 166 1 1-1-1z"/><path style="fill:#717f47;stroke:none" d="m417 167 1 1-1-1m-323 1 1 1-1-1m284 0 1 1-1-1m-204 1 1 1-1-1m205 0 1 1-1-1z"/><path style="fill:#93ab4f;stroke:none" d="m418 169 1 1-1-1m-325 1 1 1-1-1m287 0 1 1-1-1z"/><path style="fill:#717f47;stroke:none" d="m419 170 1 1-1-1z"/><path style="fill:#93ab4f;stroke:none" d="m419 171 1 1-1-1m-327 1 1 1-1-1z"/><path style="fill:#717f47;stroke:none" d="m173 172 1 1-1-1m208 0 1 1-1-1m39 0 1 1-1-1z"/><path style="fill:#93ab4f;stroke:none" d="m382 173 1 1-1-1m38 0 1 1-1-1m-329 1 1 1-1-1z"/><path style="fill:#717f47;stroke:none" d="m421 174 1 1-1-1m-249 1 1 1-1-1z"/><path style="fill:#93ab4f;stroke:none" d="m383 175 1 1-1-1m38 0 1 1-1-1m-331 1 1 1-1-1m81 1 1 1-1-1m213 0 1 1-1-1m38 0 1 1-1-1z"/><path style="fill:#717f47;stroke:none" d="m89 178 1 1-1-1m82 0 1 1-1-1m213 0 1 1-1-1m39 1 1 1-1-1m-335 1 1 1-1-1z"/><path style="fill:#93ab4f;stroke:none" d="m170 180 1 1-1-1z"/><path style="fill:#717f47;stroke:none" d="m385 180 1 1-1-1m-215 1 1 1-1-1m254 0 1 1-1-1m-337 1 1 1-1-1z"/><path style="fill:#93ab4f;stroke:none" d="m386 182 1 1-1-1m38 0 1 1-1-1m-337 1 1 1-1-1m82 0 1 1-1-1z"/><path style="fill:#717f47;stroke:none" d="m386 183 1 1-1-1m39 0 1 1-1-1m-256 1 1 1-1-1z"/><path style="fill:#93ab4f;stroke:none" d="m425 184 1 1-1-1m-339 1 1 1-1-1z"/><path style="fill:#717f47;stroke:none" d="m426 185 1 1-1-1z"/><path style="fill:#93ab4f;stroke:none" d="m168 186 1 1-1-1m219 0 1 1-1-1m39 0 1 1-1-1z"/><path style="fill:#717f47;stroke:none" d="m85 187 1 1-1-1m83 0 1 1-1-1m219.333.667.334.666-.334-.666z"/><path style="fill:#93ab4f;stroke:none" d="m85 188 1 1-1-1z"/><path style="fill:#717f47;stroke:none" d="m427 188 1 1-1-1z"/><path style="fill:#93ab4f;stroke:none" d="m167 189 1 1-1-1m260 0 1 1-1-1m-343 1 1 1-1-1z"/><path style="fill:#717f47;stroke:none" d="m167 190 1 1-1-1m261 1 1 1-1-1m-345 1 1 1-1-1z"/><path style="fill:#93ab4f;stroke:none" d="m166 192 1 1-1-1m222 0v4h1l-1-4m40 0 1 1-1-1m-345 1 1 1-1-1z"/><path style="fill:#717f47;stroke:none" d="m166 193 1 1-1-1m263 0 1 1-1-1z"/><path style="fill:#93ab4f;stroke:none" d="m429 194 1 1-1-1z"/><path style="fill:#717f47;stroke:none" d="m82 195 1 1-1-1z"/><path style="fill:#93ab4f;stroke:none" d="m165 195 1 1-1-1m-83 1 1 1-1-1z"/><path style="fill:#717f47;stroke:none" d="m165 196 1 1-1-1m223 0v5h1l-1-5m42 0 1 1-1-1z"/><path style="fill:#93ab4f;stroke:none" d="m430 197 1 1-1-1z"/><path style="fill:#717f47;stroke:none" d="m81 198 1 1-1-1z"/><path style="fill:#93ab4f;stroke:none" d="m164 198 1 1-1-1m-83 1 1 1-1-1z"/><path style="fill:#717f47;stroke:none" d="m164 199 1 1-1-1m267 0 1 1-1-1z"/><path style="fill:#93ab4f;stroke:none" d="m431 200 1 1-1-1z"/><path style="fill:#717f47;stroke:none" d="m80 201 1 1-1-1z"/><path style="fill:#93ab4f;stroke:none" d="m163 201 1 1-1-1m225 0v5h1l-1-5m-308 1 1 1-1-1z"/><path style="fill:#717f47;stroke:none" d="m163 202 1 1-1-1m269.333.667.334.666-.334-.666m-353 2 .334.666-.334-.666z"/><path style="fill:#93ab4f;stroke:none" d="m162 204 1 1-1-1m270 0 1 1-1-1z"/><path style="fill:#717f47;stroke:none" d="m162 205 1 1-1-1m82 0 1 1-1-1z"/><path style="fill:#bbdd59;stroke:none" d="M225 263c26.046 0 63.353 3.105 73.641-28 1.871-5.657 2.806-11.233.891-16.999C294.552 203.004 272.577 205 260 205c-4.022 0-12.072-1.531-15.157 1.603-3.521 3.578-4.617 11.719-6.176 16.397-4.456 13.366-9.31 26.609-13.667 40z"/><path style="fill:#93ab4f;stroke:none" d="m277.667 205.333.666.334-.666-.334z"/><path style="fill:#717f47;stroke:none" d="M279 205v1h3l-3-1z"/><path style="fill:#93ab4f;stroke:none" d="m79 206 1 1-1-1m205 0 1 1-1-1z"/><path style="fill:#717f47;stroke:none" d="m285.667 206.333.666.334-.666-.334M433 206l1 1-1-1z"/><path style="fill:#93ab4f;stroke:none" d="m161 207 1 1-1-1m127 0 1 1-1-1z"/><path style="fill:#717f47;stroke:none" d="m289 207 1 1-1-1z"/><path style="fill:#93ab4f;stroke:none" d="m433 207 1 1-1-1z"/><path style="fill:#717f47;stroke:none" d="m78 208 1 1-1-1m83 0 1 1-1-1m82 0 1 1-1-1m48 0 1 1-1-1z"/><path style="fill:#93ab4f;stroke:none" d="m78 209 1 1-1-1z"/><path style="fill:#717f47;stroke:none" d="m293 209 1 1-1-1m94.333.667.334.666-.334-.666m47 0 .334.666-.334-.666z"/><path style="fill:#93ab4f;stroke:none" d="m160 210 1 1-1-1m134 0 1 1-1-1z"/><path style="fill:#717f47;stroke:none" d="m160 211 1 1-1-1m82 0 1 1-1-1z"/><path style="fill:#93ab4f;stroke:none" d="m387.333 211.667.334.666-.334-.666M434 211l1 1-1-1z"/><path style="fill:#717f47;stroke:none" d="m77 212 1 1-1-1z"/><path style="fill:#93ab4f;stroke:none" d="m77.333 213.667.334.666-.334-.666M159 213l1 1-1-1m138 0 1 1-1-1z"/><path style="fill:#717f47;stroke:none" d="m435.333 213.667.334.666-.334-.666M159 214l1 1-1-1z"/><path style="fill:#93ab4f;stroke:none" d="m241 214 1 1-1-1z"/><path style="fill:#717f47;stroke:none" d="m298 214 1 1-1-1m88.333 1.667.334.666-.334-.666z"/><path style="fill:#93ab4f;stroke:none" d="m435.333 215.667.334.666-.334-.666z"/><path style="fill:#717f47;stroke:none" d="m76.333 216.667.334.666-.334-.666M158 216l1 1-1-1m82 0 1 1-1-1m59 0 1 1-1-1z"/><path style="fill:#93ab4f;stroke:none" d="m240 217 1 1-1-1m59 0 1 1-1-1m87 0 1 1-1-1m-310 1 1 1-1-1z"/><path style="fill:#717f47;stroke:none" d="m436.333 218.667.334.666-.334-.666M157 219l1 1-1-1m82 0 1 1-1-1m61 0 1 1-1-1z"/><path style="fill:#93ab4f;stroke:none" d="m239 220 1 1-1-1m61.333.667.334.666-.334-.666z"/><path style="fill:#717f47;stroke:none" d="m385 220 1 1-1-1z"/><path style="fill:#93ab4f;stroke:none" d="m436.333 220.667.334.666-.334-.666z"/><path style="fill:#717f47;stroke:none" d="m75.333 221.667.334.666-.334-.666z"/><path style="fill:#93ab4f;stroke:none" d="m385 221 1 1-1-1z"/><path style="fill:#717f47;stroke:none" d="m156 222 1 1-1-1m82 0 1 1-1-1z"/><path style="fill:#93ab4f;stroke:none" d="m75.333 223.667.334.666-.334-.666M238 223l1 1-1-1z"/><path style="fill:#717f47;stroke:none" d="m384.333 223.667.334.666-.334-.666m53 0 .334.666-.334-.666z"/><path style="fill:#93ab4f;stroke:none" d="m155 224 1 1-1-1z"/><path style="fill:#717f47;stroke:none" d="m155 225 1 1-1-1m82 0 1 1-1-1z"/><path style="fill:#93ab4f;stroke:none" d="m384 225 1 1-1-1m53.333.667.334.666-.334-.666M237 226l1 1-1-1z"/><path style="fill:#717f47;stroke:none" d="m74.333 227.667.334.666-.334-.666z"/><path style="fill:#93ab4f;stroke:none" d="m154 227 1 1-1-1m146.333.667.334.666-.334-.666z"/><path style="fill:#717f47;stroke:none" d="m383 227 1 1-1-1m-229 1 1 1-1-1m82 0 1 1-1-1z"/><path style="fill:#93ab4f;stroke:none" d="m383 228 1 1-1-1m-308.667 1.667.334.666-.334-.666M236 229l1 1-1-1z"/><path style="fill:#717f47;stroke:none" d="m300.333 229.667.334.666-.334-.666M438 229v3h1l-1-3z"/><path style="fill:#93ab4f;stroke:none" d="m153 230 1 1-1-1z"/><path style="fill:#717f47;stroke:none" d="m382 230 1 1-1-1m-229 1 1 1-1-1m82 0 1 1-1-1z"/><path style="fill:#93ab4f;stroke:none" d="m382 231 1 1-1-1m-147 1 1 1-1-1m64 0 1 1-1-1m139 0v3h1l-1-3m-286 1 1 1-1-1z"/><path style="fill:#717f47;stroke:none" d="m299 233 1 1-1-1m82 0 1 1-1-1m-308 1v3h1l-1-3m79 0 1 1-1-1m82 0 1 1-1-1z"/><path style="fill:#93ab4f;stroke:none" d="m381 234 1 1-1-1m-147 1 1 1-1-1m64 0 1 1-1-1m-147 1 1 1-1-1z"/><path style="fill:#717f47;stroke:none" d="m298 236 1 1-1-1m82 0 1 1-1-1z"/><path style="fill:#93ab4f;stroke:none" d="M73 237v3h1l-1-3z"/><path style="fill:#717f47;stroke:none" d="m151 237 1 1-1-1m82 0 1 1-1-1z"/><path style="fill:#93ab4f;stroke:none" d="m380 237 1 1-1-1m-147 1 1 1-1-1z"/><path style="fill:#717f47;stroke:none" d="m297 238 1 1-1-1m142 0v4h1l-1-4z"/><path style="fill:#93ab4f;stroke:none" d="m150 239 1 1-1-1m229 0 1 1-1-1z"/><path style="fill:#717f47;stroke:none" d="m150 240 1 1-1-1m82 0 1 1-1-1m64 0 1 1-1-1z"/><path style="fill:#93ab4f;stroke:none" d="m232 241 1 1-1-1z"/><path style="fill:#717f47;stroke:none" d="m378 241 1 1-1-1z"/><path style="fill:#93ab4f;stroke:none" d="m149 242 1 1-1-1z"/><path style="fill:#717f47;stroke:none" d="m295 242 1 1-1-1z"/><path style="fill:#93ab4f;stroke:none" d="M439 242v6h1l-1-6z"/><path style="fill:#717f47;stroke:none" d="m149 243 1 1-1-1m82 0 1 1-1-1z"/><path style="fill:#93ab4f;stroke:none" d="m294 243 1 1-1-1z"/><path style="fill:#717f47;stroke:none" d="m377 243 1 1-1-1z"/><path style="fill:#93ab4f;stroke:none" d="m231 244 1 1-1-1m146 0 1 1-1-1m-229 1 1 1-1-1z"/><path style="fill:#717f47;stroke:none" d="M72 246v19h1l-1-19m76 0 1 1-1-1m82 0 1 1-1-1m62 0 1 1-1-1z"/><path style="fill:#93ab4f;stroke:none" d="m376 246 1 1-1-1m-146 1 1 1-1-1z"/><path style="fill:#717f47;stroke:none" d="m291 247 1 1-1-1z"/><path style="fill:#93ab4f;stroke:none" d="m147 248 1 1-1-1z"/><path style="fill:#717f47;stroke:none" d="m290 248 1 1-1-1m85 0 1 1-1-1m-228 1 1 1-1-1m82 0 1 1-1-1m60 0 1 1-1-1z"/><path style="fill:#93ab4f;stroke:none" d="m229 250 1 1-1-1z"/><path style="fill:#717f47;stroke:none" d="m288 250 1 1-1-1m86 0 1 1-1-1z"/><path style="fill:#93ab4f;stroke:none" d="m146 251 1 1-1-1z"/><path style="fill:#717f47;stroke:none" d="m287 251 1 1-1-1m-141 1 1 1-1-1m82 0 1 1-1-1m145 0 1 1-1-1z"/><path style="fill:#93ab4f;stroke:none" d="m284 253 1 1-1-1m-139 1 1 1-1-1z"/><path style="fill:#717f47;stroke:none" d="m283 254 1 1-1-1z"/><path style="fill:#93ab4f;stroke:none" d="m372 254 1 1-1-1z"/><path style="fill:#717f47;stroke:none" d="m145 255 1 1-1-1m82 0 1 1-1-1z"/><path style="fill:#93ab4f;stroke:none" d="m281 255 1 1-1-1z"/><path style="fill:#717f47;stroke:none" d="m280 256 1 1-1-1z"/><path style="fill:#93ab4f;stroke:none" d="m371 256 1 1-1-1m-227 1 1 1-1-1z"/><path style="fill:#717f47;stroke:none" d="m278 257 1 1-1-1m92 0 1 1-1-1m-226 1 1 1-1-1m82 0 1 1-1-1z"/><path style="fill:#93ab4f;stroke:none" d="m275 258 1 1-1-1z"/><path style="fill:#717f47;stroke:none" d="m276 258 1 1-1-1z"/><path style="fill:#93ab4f;stroke:none" d="m272 259 1 1-1-1z"/><path style="fill:#717f47;stroke:none" d="m273 259 1 1-1-1m96 0 1 1-1-1z"/><path style="fill:#93ab4f;stroke:none" d="m143 260 1 1-1-1m126 0 1 1-1-1z"/><path style="fill:#717f47;stroke:none" d="m270 260 1 1-1-1m-127 1 1 1-1-1z"/><path style="fill:#93ab4f;stroke:none" d="m225 261 1 1-1-1m40 0 1 1-1-1z"/><path style="fill:#717f47;stroke:none" d="m266 261 1 1-1-1z"/><path style="fill:#93ab4f;stroke:none" d="m368 261 1 1-1-1m-109.333 1.333.666.334-.666-.334z"/><path style="fill:#717f47;stroke:none" d="m260.667 262.333.666.334-.666-.334M367 262l1 1-1-1m-225 1 1 1-1-1m83 0v1h28l-28-1z"/><path style="fill:#93ab4f;stroke:none" d="M439 263v6h1l-1-6m-73 1 1 1-1-1z"/><path style="fill:#717f47;stroke:none" d="m365 265 1 1-1-1m-224 1 1 1-1-1z"/><path style="fill:#93ab4f;stroke:none" d="m364 267 1 1-1-1z"/><path style="fill:#717f47;stroke:none" d="m363 268 1 1-1-1m-223 1 1 1-1-1m299 0v5h1l-1-5z"/><path style="fill:#93ab4f;stroke:none" d="M73 271v3h1l-1-3m288 0 1 1-1-1z"/><path style="fill:#717f47;stroke:none" d="m139 272 1 1-1-1m221 0 1 1-1-1m-1 1 1 1-1-1m-286 1v3h1l-1-3z"/><path style="fill:#93ab4f;stroke:none" d="m138 274 1 1-1-1z"/><path style="fill:#717f47;stroke:none" d="m138 275 1 1-1-1z"/><path style="fill:#93ab4f;stroke:none" d="m357 276 1 1-1-1m81 0v3h1l-1-3m-301 1 1 1-1-1m219 0 1 1-1-1z"/><path style="fill:#717f47;stroke:none" d="m137 278 1 1-1-1m218 0 1 1-1-1m-1 1 1 1-1-1m84 0v3h1l-1-3z"/><path style="fill:#93ab4f;stroke:none" d="m74.333 280.667.334.666-.334-.666M136 280l1 1-1-1z"/><path style="fill:#717f47;stroke:none" d="m353 280 1 1-1-1m-217 1 1 1-1-1m216 0 1 1-1-1m-278 1v3h1l-1-3m277 0 1 1-1-1z"/><path style="fill:#93ab4f;stroke:none" d="m135 283 1 1-1-1z"/><path style="fill:#717f47;stroke:none" d="m350 283 1 1-1-1m-215 1 1 1-1-1m214 0 1 1-1-1z"/><path style="fill:#93ab4f;stroke:none" d="m437.333 284.667.334.666-.334-.666z"/><path style="fill:#717f47;stroke:none" d="m348 285 1 1-1-1z"/><path style="fill:#93ab4f;stroke:none" d="m134 286 1 1-1-1z"/><path style="fill:#717f47;stroke:none" d="m347 286 1 1-1-1m90.333.667.334.666-.334-.666z"/><path style="fill:#93ab4f;stroke:none" d="m75 287 1 1-1-1z"/><path style="fill:#717f47;stroke:none" d="m134 287 1 1-1-1z"/><path style="fill:#93ab4f;stroke:none" d="m346 287 1 1-1-1z"/><path style="fill:#717f47;stroke:none" d="m75.333 288.667.334.666-.334-.666z"/><path style="fill:#93ab4f;stroke:none" d="m345 288 1 1-1-1m-212 1 1 1-1-1m211 0 1 1-1-1z"/><path style="fill:#717f47;stroke:none" d="m133 290 1 1-1-1z"/><path style="fill:#93ab4f;stroke:none" d="m436 290 1 1-1-1z"/><path style="fill:#717f47;stroke:none" d="m341 291 1 1-1-1m95.333.667.334.666-.334-.666z"/><path style="fill:#93ab4f;stroke:none" d="m76.333 292.667.334.666-.334-.666M132 292l1 1-1-1m208 0 1 1-1-1z"/><path style="fill:#717f47;stroke:none" d="m132 293 1 1-1-1z"/><path style="fill:#93ab4f;stroke:none" d="m339 293 1 1-1-1z"/><path style="fill:#717f47;stroke:none" d="m76 294 1 1-1-1m261 0 1 1-1-1z"/><path style="fill:#93ab4f;stroke:none" d="m131 295 1 1-1-1m205 0 1 1-1-1m99 0 1 1-1-1z"/><path style="fill:#717f47;stroke:none" d="m131 296 1 1-1-1m304.333.667.334.666-.334-.666z"/><path style="fill:#93ab4f;stroke:none" d="m77 297 1 1-1-1z"/><path style="fill:#717f47;stroke:none" d="m333 297 1 1-1-1m-256 1 1 1-1-1z"/><path style="fill:#93ab4f;stroke:none" d="m130 298 1 1-1-1m202 0 1 1-1-1z"/><path style="fill:#717f47;stroke:none" d="m130 299 1 1-1-1z"/><path style="fill:#93ab4f;stroke:none" d="m330 299 1 1-1-1m104 0 1 1-1-1z"/><path style="fill:#717f47;stroke:none" d="m328 300 1 1-1-1m106.333.667.334.666-.334-.666z"/><path style="fill:#93ab4f;stroke:none" d="m78 301 1 1-1-1m51 0 1 1-1-1m198 0 1 1-1-1z"/><path style="fill:#717f47;stroke:none" d="m78 302 1 1-1-1m51 0 1 1-1-1z"/><path style="fill:#93ab4f;stroke:none" d="m325 302 1 1-1-1z"/><path style="fill:#717f47;stroke:none" d="m323 303 1 1-1-1z"/><path style="fill:#93ab4f;stroke:none" d="m433 303 1 1-1-1m-305 1 1 1-1-1z"/><path style="fill:#717f47;stroke:none" d="m321 304 1 1-1-1m112.333.667.334.666-.334-.666z"/><path style="fill:#93ab4f;stroke:none" d="m79 305 1 1-1-1z"/><path style="fill:#717f47;stroke:none" d="m128 305 1 1-1-1m191 0 1 1-1-1m-240 1 1 1-1-1z"/><path style="fill:#93ab4f;stroke:none" d="m317 306 1 1-1-1m-190 1 1 1-1-1z"/><path style="fill:#717f47;stroke:none" d="m314 307 1 1-1-1z"/><path style="fill:#93ab4f;stroke:none" d="m315 307 1 1-1-1m117 0 1 1-1-1m-352 1 1 1-1-1z"/><path style="fill:#717f47;stroke:none" d="m127 308 1 1-1-1m185 0 1 1-1-1z"/><path style="fill:#93ab4f;stroke:none" d="m313 308 1 1-1-1z"/><path style="fill:#717f47;stroke:none" d="m432 308 1 1-1-1m-352 1 1 1-1-1m229 0 1 1-1-1z"/><path style="fill:#93ab4f;stroke:none" d="m310 309 1 1-1-1m-184 1 1 1-1-1z"/><path style="fill:#717f47;stroke:none" d="m307 310 1 1-1-1z"/><path style="fill:#93ab4f;stroke:none" d="m431 310 1 1-1-1z"/><path style="fill:#717f47;stroke:none" d="m304 311 1 1-1-1z"/><path style="fill:#93ab4f;stroke:none" d="m305 311 1 1-1-1z"/><path style="fill:#717f47;stroke:none" d="m431 311 1 1-1-1m-350 1 1 1-1-1m219.667.333.666.334-.666-.334M125 313l1 1-1-1m172 0 1 1-1-1z"/><path style="fill:#93ab4f;stroke:none" d="m298 313 1 1-1-1m132 0 1 1-1-1z"/><path style="fill:#717f47;stroke:none" d="m293 314 1 1-1-1z"/><path style="fill:#93ab4f;stroke:none" d="m294 314 1 1-1-1z"/><path style="fill:#717f47;stroke:none" d="m430 314 1 1-1-1m-348 1 1 1-1-1m206.667.333.666.334-.666-.334z"/><path style="fill:#93ab4f;stroke:none" d="m290 315 1 1-1-1z"/><path style="fill:#717f47;stroke:none" d="m124 316 1 1-1-1m159.667.333.666.334-.666-.334z"/><path style="fill:#93ab4f;stroke:none" d="m285 316 1 1-1-1m144 0 1 1-1-1m-346 1 1 1-1-1z"/><path style="fill:#717f47;stroke:none" d="m276.667 317.333.666.334-.666-.334z"/><path style="fill:#93ab4f;stroke:none" d="m278.667 317.333.666.334-.666-.334z"/><path style="fill:#717f47;stroke:none" d="m429 317 1 1-1-1m-346 1 1 1-1-1m182 0v1h4l-4-1z"/><path style="fill:#93ab4f;stroke:none" d="M269 318v1h3l-3-1z"/><path style="fill:#717f47;stroke:none" d="m123 319 1 1-1-1m82 0 1 1-1-1z"/><path style="fill:#93ab4f;stroke:none" d="m428 319 1 1-1-1m-344 1 1 1-1-1m121 0 1 1-1-1z"/><path style="fill:#717f47;stroke:none" d="m428 320 1 1-1-1m-344 1 1 1-1-1z"/><path style="fill:#93ab4f;stroke:none" d="m122 321 1 1-1-1z"/><path style="fill:#717f47;stroke:none" d="m122 322 1 1-1-1m82 0 1 1-1-1m223 0 1 1-1-1z"/><path style="fill:#93ab4f;stroke:none" d="m85 323 1 1-1-1m119 0 1 1-1-1m-83 1 1 1-1-1m305 0 1 1-1-1m-340 1 1 1-1-1z"/><path style="fill:#717f47;stroke:none" d="m121 325 1 1-1-1m82 0 1 1-1-1m223 0 1 1-1-1m-340 1 1 1-1-1z"/><path style="fill:#93ab4f;stroke:none" d="m203 326 1 1-1-1m-83 1 1 1-1-1z"/><path style="fill:#717f47;stroke:none" d="m425 327 1 1-1-1m-338 1 1 1-1-1m33 0 1 1-1-1m82 0 1 1-1-1z"/><path style="fill:#93ab4f;stroke:none" d="m202 329 1 1-1-1m222 0 1 1-1-1m-336 1 1 1-1-1m31 0 1 1-1-1z"/><path style="fill:#717f47;stroke:none" d="m119 331 1 1-1-1m82 0 1 1-1-1z"/><path style="fill:#93ab4f;stroke:none" d="m423 331 1 1-1-1m-334 1 1 1-1-1m112 0 1 1-1-1z"/><path style="fill:#717f47;stroke:none" d="m423 332 1 1-1-1m-334 1 1 1-1-1z"/><path style="fill:#93ab4f;stroke:none" d="m118 333 1 1-1-1m304 0 1 1-1-1m-332 1 1 1-1-1z"/><path style="fill:#717f47;stroke:none" d="m118 334 1 1-1-1m82 0 1 1-1-1m222 0 1 1-1-1m-332 1 1 1-1-1z"/><path style="fill:#93ab4f;stroke:none" d="m200 335 1 1-1-1m221 0 1 1-1-1m-330 1 1 1-1-1m26 0 1 1-1-1z"/><path style="fill:#717f47;stroke:none" d="m421 336 1 1-1-1m-330 1 1 1-1-1m26 0 1 1-1-1m82 0 1 1-1-1z"/><path style="fill:#93ab4f;stroke:none" d="m420 337 1 1-1-1m-328 1 1 1-1-1m107 0 1 1-1-1z"/><path style="fill:#717f47;stroke:none" d="m420 338 1 1-1-1m-328 1 1 1-1-1z"/><path style="fill:#93ab4f;stroke:none" d="m116 339 1 1-1-1m303 0 1 1-1-1m-326 1 1 1-1-1z"/><path style="fill:#717f47;stroke:none" d="m116 340 1 1-1-1m82 0 1 1-1-1m221 0 1 1-1-1m-326 1 1 1-1-1z"/><path style="fill:#93ab4f;stroke:none" d="m198 341 1 1-1-1m220 0 1 1-1-1m-324 1 1 1-1-1m21 0 1 1-1-1z"/><path style="fill:#717f47;stroke:none" d="m418 342 1 1-1-1m-303 1 1 1-1-1m82 0 1 1-1-1z"/><path style="fill:#93ab4f;stroke:none" d="m417 343 1 1-1-1m-322 1 1 1-1-1m102 0 1 1-1-1m-83 1 1 1-1-1m302 0 1 1-1-1z"/><path style="fill:#717f47;stroke:none" d="m96 346 1 1-1-1m18 0 1 1-1-1m82 0 1 1-1-1z"/><path style="fill:#93ab4f;stroke:none" d="m196 347 1 1-1-1z"/><path style="fill:#717f47;stroke:none" d="m415 347 1 1-1-1m-318 1 1 1-1-1z"/><path style="fill:#93ab4f;stroke:none" d="m113 348 1 1-1-1m-15 1 1 1-1-1z"/><path style="fill:#717f47;stroke:none" d="m113 349 1 1-1-1m82 0 1 1-1-1m219 0 1 1-1-1z"/><path style="fill:#93ab4f;stroke:none" d="m413 350 1 1-1-1m-314 1 1 1-1-1m13 0 1 1-1-1z"/><path style="fill:#717f47;stroke:none" d="m112 352 1 1-1-1m82 0 1 1-1-1m218 0 1 1-1-1m-312 1 1 1-1-1z"/><path style="fill:#93ab4f;stroke:none" d="m411 353 1 1-1-1m-310 1 1 1-1-1m10 0 1 1-1-1z"/><path style="fill:#717f47;stroke:none" d="m411 354 1 1-1-1m-300 1 1 1-1-1m82 0 1 1-1-1z"/><path style="fill:#93ab4f;stroke:none" d="m410 355 1 1-1-1z"/><path style="fill:#717f47;stroke:none" d="m102 356 1 1-1-1z"/><path style="fill:#93ab4f;stroke:none" d="m103 357 1 1-1-1m7 0 1 1-1-1z"/><path style="fill:#717f47;stroke:none" d="m192 357 1 1-1-1m217 0 1 1-1-1z"/><path style="fill:#93ab4f;stroke:none" d="m192 358 1 1-1-1m216 0 1 1-1-1z"/><path style="fill:#717f47;stroke:none" d="m104 359 1 1-1-1z"/><path style="fill:#93ab4f;stroke:none" d="m105 360 1 1-1-1z"/><path style="fill:#717f47;stroke:none" d="m109 360 1 1-1-1m82 0 1 1-1-1m216 0 1 1-1-1z"/><path style="fill:#93ab4f;stroke:none" d="m191 361 1 1-1-1z"/><path style="fill:#717f47;stroke:none" d="m406 361 1 1-1-1m-300 1 1 1-1-1z"/><path style="fill:#93ab4f;stroke:none" d="m405 362 1 1-1-1z"/><path style="fill:#717f47;stroke:none" d="m107.667 363.333.666.334-.666-.334M190 363l1 1-1-1z"/><path style="fill:#93ab4f;stroke:none" d="m190 364 1 1-1-1z"/><path style="fill:#717f47;stroke:none" d="m404 364 1 1-1-1z"/><path style="fill:#93ab4f;stroke:none" d="m403 365 1 1-1-1z"/><path style="fill:#717f47;stroke:none" d="m189 366 1 1-1-1z"/><path style="fill:#93ab4f;stroke:none" d="m402 366 1 1-1-1m-213 1 1 1-1-1z"/><path style="fill:#717f47;stroke:none" d="m401 368 1 1-1-1m-213 1 1 1-1-1z"/><path style="fill:#93ab4f;stroke:none" d="m400 369 1 1-1-1m-212 1 1 1-1-1m211 0 1 1-1-1z"/><path style="fill:#717f47;stroke:none" d="m187 372 1 1-1-1z"/><path style="fill:#93ab4f;stroke:none" d="m187 373 1 1-1-1z"/><path style="fill:#717f47;stroke:none" d="m397 373 1 1-1-1m-1 1 1 1-1-1m-210 1 1 1-1-1z"/><path style="fill:#93ab4f;stroke:none" d="m395 375 1 1-1-1m-209 1 1 1-1-1m208 0 1 1-1-1m-1 1 1 1-1-1z"/><path style="fill:#717f47;stroke:none" d="m185 378 1 1-1-1z"/><path style="fill:#93ab4f;stroke:none" d="m185 379 1 1-1-1z"/><path style="fill:#717f47;stroke:none" d="m184 381 1 1-1-1m206 0 1 1-1-1z"/><path style="fill:#93ab4f;stroke:none" d="m184 382 1 1-1-1z"/><path style="fill:#717f47;stroke:none" d="m389 382 1 1-1-1m-1 1 1 1-1-1m-205 1 1 1-1-1m204 0 1 1-1-1z"/><path style="fill:#93ab4f;stroke:none" d="m183 385 1 1-1-1z"/><path style="fill:#717f47;stroke:none" d="m386 385 1 1-1-1m-1 1 1 1-1-1m-203 1 1 1-1-1m202 0 1 1-1-1z"/><path style="fill:#93ab4f;stroke:none" d="m182 388 1 1-1-1z"/><path style="fill:#717f47;stroke:none" d="m383 388 1 1-1-1m-1 1 1 1-1-1m-201 1 1 1-1-1m200 0 1 1-1-1z"/><path style="fill:#93ab4f;stroke:none" d="m181 391 1 1-1-1m197 1 1 1-1-1z"/><path style="fill:#717f47;stroke:none" d="m180 393 1 1-1-1z"/><path style="fill:#93ab4f;stroke:none" d="m377 393 1 1-1-1m-197 1 1 1-1-1m196 0 1 1-1-1z"/><path style="fill:#717f47;stroke:none" d="m375 395 1 1-1-1m-196 1 1 1-1-1m195 0 1 1-1-1m-1 1 1 1-1-1z"/><path style="fill:#93ab4f;stroke:none" d="m371 398 1 1-1-1z"/><path style="fill:#717f47;stroke:none" d="m178 399 1 1-1-1z"/><path style="fill:#93ab4f;stroke:none" d="m370 399 1 1-1-1z"/><path style="fill:#717f47;stroke:none" d="m369 400 1 1-1-1m-1 1 1 1-1-1m-191 1 1 1-1-1z"/><path style="fill:#93ab4f;stroke:none" d="m366 402 1 1-1-1z"/><path style="fill:#717f47;stroke:none" d="m365 403 1 1-1-1m-189 1 1 1-1-1m188 0 1 1-1-1z"/><path style="fill:#93ab4f;stroke:none" d="m176 405 1 1-1-1m186 0 1 1-1-1z"/><path style="fill:#717f47;stroke:none" d="m361 406 1 1-1-1m-186 1 1 1-1-1z"/><path style="fill:#93ab4f;stroke:none" d="m359 407 1 1-1-1m-184 1 1 1-1-1z"/><path style="fill:#717f47;stroke:none" d="m358 408 1 1-1-1z"/><path style="fill:#93ab4f;stroke:none" d="m356 409 1 1-1-1z"/><path style="fill:#717f47;stroke:none" d="m174 410 1 1-1-1m181 0 1 1-1-1z"/><path style="fill:#93ab4f;stroke:none" d="m174 411 1 1-1-1m179 0 1 1-1-1z"/><path style="fill:#717f47;stroke:none" d="m352 412 1 1-1-1m-179 1 1 1-1-1m177 0 1 1-1-1z"/><path style="fill:#93ab4f;stroke:none" d="m173 414 1 1-1-1m175 0 1 1-1-1m-2 1 1 1-1-1z"/><path style="fill:#717f47;stroke:none" d="m347 415 1 1-1-1m-175 1 1 1-1-1m173 0 1 1-1-1z"/><path style="fill:#93ab4f;stroke:none" d="m172 417 1 1-1-1z"/><path style="fill:#717f47;stroke:none" d="m343 417 1 1-1-1m-2 1 1 1-1-1m-169 1 1 1-1-1z"/><path style="fill:#93ab4f;stroke:none" d="m173 419 1 1-1-1m166 0 1 1-1-1z"/><path style="fill:#717f47;stroke:none" d="m174 420 1 1-1-1z"/><path style="fill:#93ab4f;stroke:none" d="m175 420 1 1-1-1m162 0 1 1-1-1z"/><path style="fill:#717f47;stroke:none" d="m176 421 1 1-1-1z"/><path style="fill:#93ab4f;stroke:none" d="m177 421 1 1-1-1z"/><path style="fill:#717f47;stroke:none" d="m335 421 1 1-1-1z"/><path style="fill:#93ab4f;stroke:none" d="m179 422 1 1-1-1z"/><path style="fill:#717f47;stroke:none" d="m333 422 1 1-1-1z"/><path style="fill:#93ab4f;stroke:none" d="m181 423 1 1-1-1m149 0 1 1-1-1z"/><path style="fill:#717f47;stroke:none" d="m331 423 1 1-1-1m-148 1 1 1-1-1z"/><path style="fill:#93ab4f;stroke:none" d="m328 424 1 1-1-1z"/><path style="fill:#717f47;stroke:none" d="m329 424 1 1-1-1m-144 1 1 1-1-1z"/><path style="fill:#93ab4f;stroke:none" d="m186 425 1 1-1-1z"/><path style="fill:#717f47;stroke:none" d="m326 425 1 1-1-1m-138 1 1 1-1-1z"/><path style="fill:#93ab4f;stroke:none" d="m323 426 1 1-1-1z"/><path style="fill:#717f47;stroke:none" d="m324 426 1 1-1-1m-134 1 1 1-1-1z"/><path style="fill:#93ab4f;stroke:none" d="m191 427 1 1-1-1z"/><path style="fill:#717f47;stroke:none" d="m321 427 1 1-1-1m-128 1 1 1-1-1z"/><path style="fill:#93ab4f;stroke:none" d="m194 428 1 1-1-1m124 0 1 1-1-1z"/><path style="fill:#717f47;stroke:none" d="m319 428 1 1-1-1m-123 1 1 1-1-1z"/><path style="fill:#93ab4f;stroke:none" d="m315 429 1 1-1-1z"/><path style="fill:#717f47;stroke:none" d="m316 429 1 1-1-1m-117 1 1 1-1-1z"/><path style="fill:#93ab4f;stroke:none" d="m200 430 1 1-1-1m112 0 1 1-1-1z"/><path style="fill:#717f47;stroke:none" d="m313 430 1 1-1-1m-111 1 1 1-1-1z"/><path style="fill:#93ab4f;stroke:none" d="m203 431 1 1-1-1m106 0 1 1-1-1z"/><path style="fill:#717f47;stroke:none" d="m310 431 1 1-1-1m-105 1 1 1-1-1z"/><path style="fill:#93ab4f;stroke:none" d="m206 432 1 1-1-1m99 0 1 1-1-1z"/><path style="fill:#717f47;stroke:none" d="m306 432 1 1-1-1m-97 1 1 1-1-1z"/><path style="fill:#93ab4f;stroke:none" d="m210 433 1 1-1-1m91.667.333.666.334-.666-.334z"/><path style="fill:#717f47;stroke:none" d="m303 433 1 1-1-1m-90 1 1 1-1-1z"/><path style="fill:#93ab4f;stroke:none" d="m214 434 1 1-1-1m83.667.333.666.334-.666-.334z"/><path style="fill:#717f47;stroke:none" d="m299 434 1 1-1-1m-81.333 1.333.666.334-.666-.334z"/><path style="fill:#93ab4f;stroke:none" d="m219 435 1 1-1-1m74 0 1 1-1-1z"/><path style="fill:#717f47;stroke:none" d="m294.667 435.333.666.334-.666-.334m-72 1 .666.334-.666-.334z"/><path style="fill:#93ab4f;stroke:none" d="m224 436 1 1-1-1m63.667.333.666.334-.666-.334z"/><path style="fill:#717f47;stroke:none" d="m289.667 436.333.666.334-.666-.334m-61 1 .666.334-.666-.334z"/><path style="fill:#93ab4f;stroke:none" d="m230.667 437.333.666.334-.666-.334m51 0 .666.334-.666-.334z"/><path style="fill:#717f47;stroke:none" d="m283.667 437.333.666.334-.666-.334M235 438v1h3l-3-1z"/><path style="fill:#93ab4f;stroke:none" d="M238 438v1h3l-3-1m33 0v1h3l-3-1z"/><path style="fill:#717f47;stroke:none" d="M274 438v1h4l-4-1m-27 1v1h18l-18-1z"/></svg>