<svg xmlns="http://www.w3.org/2000/svg" version="1.1" viewBox="10.03 10.14 492.97 492.5"><path d="M 225.068 11.564 C 182.349 17.049, 139.632 34.818, 105.484 61.308 C 53.244 101.833, 20.241 159.799, 11.543 226.301 C 9.529 241.707, 9.529 271.293, 11.543 286.699 C 18.940 343.255, 43.447 392.937, 83.356 432.287 C 120.441 468.852, 165.779 491.598, 219.673 500.676 C 235.172 503.287, 277.828 503.287, 293.327 500.676 C 370.726 487.639, 433.360 444.472, 471.329 378 C 492.360 341.181, 503 300.362, 503 256.500 C 503 221.128, 496.720 190.376, 482.935 158.251 C 448.897 78.924, 373.155 22.203, 287.030 11.543 C 271.796 9.658, 239.833 9.669, 225.068 11.564 M 119.853 130.878 C 112.265 135.691, 112 137.085, 112 172.252 L 112 202.464 114.667 198.482 C 126.663 180.573, 146.951 162.555, 167.959 151.156 L 175.268 147.190 172.384 145.732 C 170.798 144.930, 161.122 140.612, 150.883 136.137 C 129.618 126.843, 126.933 126.388, 119.853 130.878 M 363 135.290 C 353.925 139.346, 344.276 143.653, 341.557 144.861 L 336.614 147.058 345.804 152.279 C 364.690 163.008, 382.245 178.200, 393.826 193.837 L 400 202.173 400 171.488 C 400 137.310, 399.824 136.256, 393.287 131.270 C 390.870 129.426, 388.325 128.544, 384.678 128.284 C 380.011 127.953, 377.870 128.645, 363 135.290 M 232.500 142.436 C 181.284 150.117, 142.240 174.162, 120.112 211.649 C 111.626 226.025, 105.497 249.092, 106.196 264.020 L 106.500 270.500 130.832 271 C 153.446 271.465, 155.265 271.637, 156.582 273.441 C 158.390 275.917, 158.366 277.033, 156.443 279.777 C 154.910 281.967, 154.536 282, 131.424 282 L 107.962 282 108.571 284.750 C 110.204 292.125, 116.596 309, 117.757 309 C 118.071 309, 122.641 306.604, 127.914 303.676 C 140.295 296.800, 140.797 296.637, 143.700 298.539 C 145.570 299.765, 146.048 300.845, 145.809 303.312 C 145.526 306.235, 144.572 307.028, 134.327 312.855 L 123.154 319.210 126.722 324.176 C 135.899 336.950, 151.176 350.786, 167 360.655 C 180.102 368.826, 202.570 377.344, 221.038 381.142 C 231.131 383.218, 235.247 383.500, 255.500 383.500 C 275.362 383.500, 280.004 383.195, 289.527 381.262 C 323.696 374.329, 350.283 360.647, 372.583 338.520 C 379.853 331.306, 387.744 321.361, 386.846 320.544 C 386.656 320.371, 381.418 317.689, 375.207 314.584 C 363.805 308.886, 361.698 306.870, 362.788 302.703 C 363.057 301.673, 364.343 300.345, 365.646 299.752 C 367.666 298.831, 369.815 299.507, 380.257 304.350 C 386.991 307.473, 392.805 310.022, 393.177 310.014 C 394.891 309.979, 403 288.416, 403 283.895 C 403 282.094, 401.934 282, 381.434 282 C 368.481 282, 359.096 281.587, 357.934 280.965 C 355.259 279.533, 355.259 273.467, 357.934 272.035 C 359.103 271.410, 368.757 271, 382.323 271 L 404.777 271 405.456 267.384 C 406.695 260.777, 403.808 240.413, 400.132 229.829 C 394.626 213.979, 385.013 198.936, 372.444 186.500 C 349.785 164.083, 323.943 150.855, 289.281 143.930 C 275.535 141.185, 246.024 140.408, 232.500 142.436 M 184.117 229.631 C 180.187 232.383, 179 236.931, 179.004 249.218 C 179.007 258.625, 179.330 261.030, 180.950 263.686 C 183.512 267.888, 186.326 269.271, 192.448 269.338 C 203.808 269.462, 206.996 264.929, 206.998 248.651 C 207 236.368, 205.573 231.865, 200.915 229.456 C 197.044 227.454, 187.076 227.558, 184.117 229.631 M 310.381 229.910 C 306.139 232.496, 305 236.469, 305 248.681 C 305 265.016, 307.927 269.333, 319 269.333 C 330.111 269.333, 333 265.034, 333 248.500 C 333 236.283, 331.641 231.900, 327.128 229.566 C 322.880 227.369, 314.257 227.546, 310.381 229.910 M 211 293 C 208.589 295.411, 208.547 296.315, 210.575 302.266 C 212.648 308.350, 218.913 315.341, 224.234 317.506 C 232.394 320.828, 245.732 319.267, 251.160 314.356 C 252.740 312.925, 253.141 312.964, 255.718 314.799 C 263.195 320.123, 275.066 321.047, 283.130 316.934 C 289.654 313.606, 296 303.518, 296 296.477 C 296 290.733, 287.963 289.384, 285.881 294.778 C 281.506 306.109, 278.581 308.591, 270.043 308.219 C 264.686 307.986, 261.267 305.747, 258.500 300.662 C 255.041 294.305, 250.143 294.590, 246.973 301.334 C 244.406 306.795, 242.107 308.097, 234.851 308.200 C 227.274 308.308, 224.288 306.266, 221.336 298.957 C 218.165 291.105, 214.822 289.178, 211 293" stroke="none" fill="#0b3b56" fill-rule="evenodd"/><path d="M 119.853 130.878 C 112.265 135.691, 112 137.085, 112 172.252 L 112 202.464 114.667 198.482 C 126.663 180.573, 146.951 162.555, 167.959 151.156 L 175.268 147.190 172.384 145.732 C 170.798 144.930, 161.122 140.612, 150.883 136.137 C 129.618 126.843, 126.933 126.388, 119.853 130.878 M 363 135.290 C 353.925 139.346, 344.276 143.653, 341.557 144.861 L 336.614 147.058 345.804 152.279 C 364.690 163.008, 382.245 178.200, 393.826 193.837 L 400 202.173 400 171.488 C 400 137.310, 399.824 136.256, 393.287 131.270 C 390.870 129.426, 388.325 128.544, 384.678 128.284 C 380.011 127.953, 377.870 128.645, 363 135.290 M 232.500 142.436 C 181.284 150.117, 142.240 174.162, 120.112 211.649 C 111.626 226.025, 105.497 249.092, 106.196 264.020 L 106.500 270.500 130.832 271 C 153.446 271.465, 155.265 271.637, 156.582 273.441 C 158.390 275.917, 158.366 277.033, 156.443 279.777 C 154.910 281.967, 154.536 282, 131.424 282 L 107.962 282 108.571 284.750 C 110.204 292.125, 116.596 309, 117.757 309 C 118.071 309, 122.641 306.604, 127.914 303.676 C 140.295 296.800, 140.797 296.637, 143.700 298.539 C 145.570 299.765, 146.048 300.845, 145.809 303.312 C 145.526 306.235, 144.572 307.028, 134.327 312.855 L 123.154 319.210 126.722 324.176 C 135.899 336.950, 151.176 350.786, 167 360.655 C 180.102 368.826, 202.570 377.344, 221.038 381.142 C 231.131 383.218, 235.247 383.500, 255.500 383.500 C 275.362 383.500, 280.004 383.195, 289.527 381.262 C 323.696 374.329, 350.283 360.647, 372.583 338.520 C 379.853 331.306, 387.744 321.361, 386.846 320.544 C 386.656 320.371, 381.418 317.689, 375.207 314.584 C 363.805 308.886, 361.698 306.870, 362.788 302.703 C 363.057 301.673, 364.343 300.345, 365.646 299.752 C 367.666 298.831, 369.815 299.507, 380.257 304.350 C 386.991 307.473, 392.805 310.022, 393.177 310.014 C 394.891 309.979, 403 288.416, 403 283.895 C 403 282.094, 401.934 282, 381.434 282 C 368.481 282, 359.096 281.587, 357.934 280.965 C 355.259 279.533, 355.259 273.467, 357.934 272.035 C 359.103 271.410, 368.757 271, 382.323 271 L 404.777 271 405.456 267.384 C 406.695 260.777, 403.808 240.413, 400.132 229.829 C 394.626 213.979, 385.013 198.936, 372.444 186.500 C 349.785 164.083, 323.943 150.855, 289.281 143.930 C 275.535 141.185, 246.024 140.408, 232.500 142.436 M 184.117 229.631 C 180.187 232.383, 179 236.931, 179.004 249.218 C 179.007 258.625, 179.330 261.030, 180.950 263.686 C 183.512 267.888, 186.326 269.271, 192.448 269.338 C 203.808 269.462, 206.996 264.929, 206.998 248.651 C 207 236.368, 205.573 231.865, 200.915 229.456 C 197.044 227.454, 187.076 227.558, 184.117 229.631 M 310.381 229.910 C 306.139 232.496, 305 236.469, 305 248.681 C 305 265.016, 307.927 269.333, 319 269.333 C 330.111 269.333, 333 265.034, 333 248.500 C 333 236.283, 331.641 231.900, 327.128 229.566 C 322.880 227.369, 314.257 227.546, 310.381 229.910 M 211 293 C 208.589 295.411, 208.547 296.315, 210.575 302.266 C 212.648 308.350, 218.913 315.341, 224.234 317.506 C 232.394 320.828, 245.732 319.267, 251.160 314.356 C 252.740 312.925, 253.141 312.964, 255.718 314.799 C 263.195 320.123, 275.066 321.047, 283.130 316.934 C 289.654 313.606, 296 303.518, 296 296.477 C 296 290.733, 287.963 289.384, 285.881 294.778 C 281.506 306.109, 278.581 308.591, 270.043 308.219 C 264.686 307.986, 261.267 305.747, 258.500 300.662 C 255.041 294.305, 250.143 294.590, 246.973 301.334 C 244.406 306.795, 242.107 308.097, 234.851 308.200 C 227.274 308.308, 224.288 306.266, 221.336 298.957 C 218.165 291.105, 214.822 289.178, 211 293" stroke="none" fill="#dee5ed" fill-rule="evenodd"/></svg>