<svg width="486.765" height="488.575" xmlns="http://www.w3.org/2000/svg"><path style="fill:#3c3c3c;stroke:none" d="M220.934 1.414c-41.734 5.496-80.97 17.426-116 41.602-26.489 18.279-49.697 41.741-66.947 68.974-60.393 95.346-48.558 227.686 33.948 306.961 30.973 29.761 68.61 50.694 110 61.888 29.38 7.946 61.837 9.521 92 5.866 34.901-4.231 69.251-16.284 99-35.034 25.61-16.141 47.928-36.449 66.104-60.681 81.695-108.917 55.176-266.487-54.105-345.848-23.65-17.176-51.682-29.913-80-37.025-26.53-6.664-56.693-10.299-84-6.703z"/><path style="fill:#717f47;stroke:none" d="M224.934 59.99v1h4z"/><path style="fill:#93ab4f;stroke:none" d="M228.934 59.99v1h6z"/><path style="fill:#bbdd59;stroke:none" d="M95.934 350.99c3.855-16.663 10.883-32.812 16.333-49 12.241-36.366 24.868-72.602 37-109 4.457-13.371 9.212-26.634 13.667-40 1.4-4.197 2.511-12.376 6.42-14.972 3.712-2.467 11.301-1.028 15.58-1.028h41c35.845 0 77.108-5.605 112 3.378 23.155 5.962 39.582 25.103 37.91 49.622-4.099 60.145-53.05 108.707-111.91 115.845-16.852 2.044-34.034 1.155-51 1.155-4.82 0-15.298-1.972-19.298 1.028-5.55 4.163-7.41 19.555-9.755 25.972-8.81 24.111-17.004 48.589-24.947 73 59.87 24.926 122.542 28.213 180-6.45 17.987-10.851 34.311-25.076 47.335-41.55 72.634-91.875 41.582-228.665-63.335-280.752-94.589-46.96-212.598 1.458-250.797 98.752-16.928 43.116-16.1 92.008.608 135 4.417 11.367 12.097 32.931 23.19 39z"/><path style="fill:#93ab4f;stroke:none" d="M251.934 59.99v1h5z"/><path style="fill:#717f47;stroke:none" d="M256.934 59.99v1h5l-5-1m-40 1v1h3z"/><path style="fill:#93ab4f;stroke:none" d="m220.601 61.323.666.334-.666-.334m43.333-.333v1h3z"/><path style="fill:#717f47;stroke:none" d="M266.934 60.99v1h3l-3-1m-55.333 1.333.666.334z"/><path style="fill:#93ab4f;stroke:none" d="m213.601 62.323.666.334-.666-.334m59 0 .666.334z"/><path style="fill:#717f47;stroke:none" d="m274.601 62.323.666.334-.666-.334m-68.667.667 1 1z"/><path style="fill:#93ab4f;stroke:none" d="m207.601 63.323.666.334-.666-.334m70.333-.333 1 1z"/><path style="fill:#717f47;stroke:none" d="m279.601 63.323.666.334-.666-.334m-78 1 .666.334z"/><path style="fill:#93ab4f;stroke:none" d="m202.934 63.99 1 1-1-1m79.667.333.666.334z"/><path style="fill:#717f47;stroke:none" d="m284.601 64.323.666.334-.666-.334m-87.667.667 1 1z"/><path style="fill:#93ab4f;stroke:none" d="m198.601 65.323.666.334-.666-.334m88.333-.333 1 1z"/><path style="fill:#717f47;stroke:none" d="m288.601 65.323.666.334-.666-.334m-95 1 .666.334z"/><path style="fill:#93ab4f;stroke:none" d="m194.934 65.99 1 1-1-1m96 0 1 1z"/><path style="fill:#717f47;stroke:none" d="m291.934 65.99 1 1-1-1m-102 1 1 1z"/><path style="fill:#93ab4f;stroke:none" d="m190.934 66.99 1 1-1-1m103 0 1 1z"/><path style="fill:#717f47;stroke:none" d="m295.601 67.323.666.334-.666-.334m-108.667.667 1 1z"/><path style="fill:#93ab4f;stroke:none" d="m187.934 67.99 1 1-1-1m110 0 1 1z"/><path style="fill:#717f47;stroke:none" d="m298.934 67.99 1 1-1-1m-115 1 1 1z"/><path style="fill:#93ab4f;stroke:none" d="m184.934 68.99 1 1-1-1m116 0 1 1z"/><path style="fill:#717f47;stroke:none" d="m301.934 68.99 1 1-1-1m-121 1 1 1z"/><path style="fill:#93ab4f;stroke:none" d="m181.934 69.99 1 1-1-1m122 0 1 1z"/><path style="fill:#717f47;stroke:none" d="m304.934 69.99 1 1-1-1m-127 1 1 1z"/><path style="fill:#93ab4f;stroke:none" d="m178.934 70.99 1 1z"/><path style="fill:#717f47;stroke:none" d="m306.934 70.99 1 1-1-1m-131 1 1 1z"/><path style="fill:#93ab4f;stroke:none" d="m308.934 71.99 1 1z"/><path style="fill:#717f47;stroke:none" d="m309.934 71.99 1 1-1-1m-137 1 1 1z"/><path style="fill:#93ab4f;stroke:none" d="m173.934 72.99 1 1-1-1m138 0 1 1z"/><path style="fill:#717f47;stroke:none" d="m312.934 72.99 1 1-1-1m-142 1 1 1z"/><path style="fill:#93ab4f;stroke:none" d="m313.934 73.99 1 1z"/><path style="fill:#717f47;stroke:none" d="m314.934 73.99 1 1-1-1m-147 1 1 1z"/><path style="fill:#93ab4f;stroke:none" d="m168.934 74.99 1 1z"/><path style="fill:#717f47;stroke:none" d="m316.934 74.99 1 1-1-1m-151 1 1 1z"/><path style="fill:#93ab4f;stroke:none" d="m166.934 75.99 1 1-1-1m152 0 1 1z"/><path style="fill:#717f47;stroke:none" d="m163.934 76.99 1 1z"/><path style="fill:#93ab4f;stroke:none" d="m164.934 76.99 1 1-1-1m156 0 1 1z"/><path style="fill:#717f47;stroke:none" d="m321.934 76.99 1 1-1-1m-160 1 1 1z"/><path style="fill:#93ab4f;stroke:none" d="m322.934 77.99 1 1z"/><path style="fill:#717f47;stroke:none" d="m323.934 77.99 1 1-1-1m-164 1 1 1z"/><path style="fill:#93ab4f;stroke:none" d="m324.934 78.99 1 1z"/><path style="fill:#717f47;stroke:none" d="m325.934 78.99 1 1-1-1m-168 1 1 1z"/><path style="fill:#93ab4f;stroke:none" d="m326.934 79.99 1 1z"/><path style="fill:#717f47;stroke:none" d="m327.934 79.99 1 1-1-1m-172 1 1 1z"/><path style="fill:#93ab4f;stroke:none" d="m156.934 80.99 1 1-1-1m172 0 1 1z"/><path style="fill:#717f47;stroke:none" d="m153.934 81.99 1 1z"/><path style="fill:#93ab4f;stroke:none" d="m154.934 81.99 1 1z"/><path style="fill:#717f47;stroke:none" d="m330.934 81.99 1 1z"/><path style="fill:#93ab4f;stroke:none" d="m152.934 82.99 1 1z"/><path style="fill:#717f47;stroke:none" d="m332.934 82.99 1 1-1-1m-182 1 1 1z"/><path style="fill:#93ab4f;stroke:none" d="m333.934 83.99 1 1z"/><path style="fill:#717f47;stroke:none" d="m334.934 83.99 1 1-1-1m-186 1 1 1z"/><path style="fill:#93ab4f;stroke:none" d="m335.934 84.99 1 1-1-1m-188 1 1 1z"/><path style="fill:#717f47;stroke:none" d="m337.934 85.99 1 1-1-1m-192 1 1 1z"/><path style="fill:#93ab4f;stroke:none" d="m338.934 86.99 1 1z"/><path style="fill:#717f47;stroke:none" d="m339.934 86.99 1 1-1-1m-196 1 1 1z"/><path style="fill:#93ab4f;stroke:none" d="m340.934 87.99 1 1-1-1m-198 1 1 1z"/><path style="fill:#717f47;stroke:none" d="m342.934 88.99 1 1-1-1m-202 1 1 1z"/><path style="fill:#93ab4f;stroke:none" d="m343.934 89.99 1 1-1-1m-204 1 1 1z"/><path style="fill:#717f47;stroke:none" d="m345.934 90.99 1 1-1-1m-208 1 1 1z"/><path style="fill:#93ab4f;stroke:none" d="m346.934 91.99 1 1-1-1m-210 1 1 1z"/><path style="fill:#717f47;stroke:none" d="m348.934 92.99 1 1z"/><path style="fill:#93ab4f;stroke:none" d="m135.934 93.99 1 1-1-1m214 0 1 1z"/><path style="fill:#717f47;stroke:none" d="m133.934 94.99 1 1z"/><path style="fill:#93ab4f;stroke:none" d="m350.934 94.99 1 1z"/><path style="fill:#717f47;stroke:none" d="m351.934 94.99 1 1z"/><path style="fill:#93ab4f;stroke:none" d="m132.934 95.99 1 1z"/><path style="fill:#717f47;stroke:none" d="m352.934 95.99 1 1z"/><path style="fill:#93ab4f;stroke:none" d="m353.934 96.99 1 1z"/><path style="fill:#717f47;stroke:none" d="m129.934 97.99 1 1z"/><path style="fill:#93ab4f;stroke:none" d="m354.934 97.99 1 1-1-1m-226 1 1 1z"/><path style="fill:#717f47;stroke:none" d="m356.934 98.99 1 1z"/><path style="fill:#93ab4f;stroke:none" d="m127.934 99.99 1 1z"/><path style="fill:#717f47;stroke:none" d="m357.934 99.99 1 1-1-1m-232 1 1 1z"/><path style="fill:#93ab4f;stroke:none" d="m358.934 100.99 1 1z"/><path style="fill:#717f47;stroke:none" d="m124.934 101.99 1 1z"/><path style="fill:#93ab4f;stroke:none" d="m359.934 101.99 1 1z"/><path style="fill:#717f47;stroke:none" d="m123.934 102.99 1 1-1-1m238 0 1 1z"/><path style="fill:#93ab4f;stroke:none" d="m122.934 103.99 1 1z"/><path style="fill:#717f47;stroke:none" d="m362.934 103.99 1 1z"/><path style="fill:#93ab4f;stroke:none" d="m121.934 104.99 1 1z"/><path style="fill:#717f47;stroke:none" d="m363.934 104.99 1 1z"/><path style="fill:#93ab4f;stroke:none" d="m120.934 105.99 1 1z"/><path style="fill:#717f47;stroke:none" d="m364.934 105.99 1 1z"/><path style="fill:#93ab4f;stroke:none" d="m365.934 106.99 1 1z"/><path style="fill:#717f47;stroke:none" d="m117.934 107.99 1 1z"/><path style="fill:#93ab4f;stroke:none" d="m366.934 107.99 1 1z"/><path style="fill:#717f47;stroke:none" d="m116.934 108.99 1 1z"/><path style="fill:#93ab4f;stroke:none" d="m367.934 108.99 1 1z"/><path style="fill:#717f47;stroke:none" d="m115.934 109.99 1 1z"/><path style="fill:#93ab4f;stroke:none" d="m368.934 109.99 1 1z"/><path style="fill:#717f47;stroke:none" d="m114.934 110.99 1 1z"/><path style="fill:#93ab4f;stroke:none" d="m369.934 110.99 1 1z"/><path style="fill:#717f47;stroke:none" d="m113.934 111.99 1 1z"/><path style="fill:#93ab4f;stroke:none" d="m370.934 111.99 1 1z"/><path style="fill:#717f47;stroke:none" d="m112.934 112.99 1 1z"/><path style="fill:#93ab4f;stroke:none" d="m371.934 112.99 1 1z"/><path style="fill:#717f47;stroke:none" d="m111.934 113.99 1 1z"/><path style="fill:#93ab4f;stroke:none" d="m372.934 113.99 1 1z"/><path style="fill:#717f47;stroke:none" d="m110.934 114.99 1 1z"/><path style="fill:#93ab4f;stroke:none" d="m373.934 114.99 1 1z"/><path style="fill:#717f47;stroke:none" d="m109.934 115.99 1 1z"/><path style="fill:#93ab4f;stroke:none" d="m374.934 115.99 1 1z"/><path style="fill:#717f47;stroke:none" d="m108.934 116.99 1 1z"/><path style="fill:#93ab4f;stroke:none" d="m375.934 116.99 1 1z"/><path style="fill:#717f47;stroke:none" d="m107.934 117.99 1 1z"/><path style="fill:#93ab4f;stroke:none" d="m376.934 117.99 1 1-1-1m1 1 1 1-1-1m1 1 1 1z"/><path style="fill:#717f47;stroke:none" d="m379.934 120.99 1 1z"/><path style="fill:#93ab4f;stroke:none" d="m104.934 121.99 1 1z"/><path style="fill:#717f47;stroke:none" d="m380.934 121.99 1 1z"/><path style="fill:#93ab4f;stroke:none" d="m103.934 122.99 1 1z"/><path style="fill:#717f47;stroke:none" d="m381.934 122.99 1 1z"/><path style="fill:#93ab4f;stroke:none" d="m102.934 123.99 1 1z"/><path style="fill:#717f47;stroke:none" d="m382.934 123.99 1 1-1-1m-281 1 1 1-1-1m-1 1 1 1z"/><path style="fill:#93ab4f;stroke:none" d="m383.934 125.99 1 1-1-1m1 1 1 1-1-1m-285 1 1 1z"/><path style="fill:#717f47;stroke:none" d="m385.934 127.99 1 1z"/><path style="fill:#93ab4f;stroke:none" d="m98.934 128.99 1 1z"/><path style="fill:#717f47;stroke:none" d="m386.934 128.99 1 1-1-1m-289 1 1 1-1-1m-1 1 1 1z"/><path style="fill:#93ab4f;stroke:none" d="m387.934 130.99 1 1-1-1m1 1 1 1-1-1m-293 1 1 1z"/><path style="fill:#717f47;stroke:none" d="m389.934 132.99 1 1-1-1m-295 1 1 1-1-1m-1 1 1 1z"/><path style="fill:#93ab4f;stroke:none" d="m390.934 134.99 1 1z"/><path style="fill:#717f47;stroke:none" d="m391.934 135.99 1 1z"/><path style="fill:#93ab4f;stroke:none" d="m92.934 136.99 1 1z"/><path style="fill:#717f47;stroke:none" d="m167.934 136.99 1 1-1-1m144 0v1h7z"/><path style="fill:#93ab4f;stroke:none" d="M318.934 136.99v1h3z"/><path style="fill:#717f47;stroke:none" d="m392.934 136.99 1 1-1-1m-301 1 1 1-1-1m234.667.333.666.334z"/><path style="fill:#93ab4f;stroke:none" d="m328.601 138.323.666.334-.666-.334m-161.667.667 1 1z"/><path style="fill:#717f47;stroke:none" d="m332.601 139.323.666.334z"/><path style="fill:#93ab4f;stroke:none" d="m333.934 138.99 1 1-1-1m60 0 1 1-1-1m-303 1 1 1z"/><path style="fill:#717f47;stroke:none" d="m166.934 139.99 1 1-1-1m170 0 1 1z"/><path style="fill:#93ab4f;stroke:none" d="m337.934 139.99 1 1z"/><path style="fill:#717f47;stroke:none" d="m394.934 139.99 1 1-1-1m-305 1 1 1-1-1m251 0 1 1z"/><path style="fill:#93ab4f;stroke:none" d="m341.934 140.99 1 1-1-1m-176 1 1 1z"/><path style="fill:#717f47;stroke:none" d="m343.934 141.99 1 1z"/><path style="fill:#93ab4f;stroke:none" d="m395.934 141.99 1 1-1-1m-307 1 1 1z"/><path style="fill:#717f47;stroke:none" d="m165.934 142.99 1 1z"/><path style="fill:#93ab4f;stroke:none" d="m346.934 142.99 1 1z"/><path style="fill:#717f47;stroke:none" d="m396.934 142.99 1 1-1-1m-309 1 1 1-1-1m261 0 1 1z"/><path style="fill:#93ab4f;stroke:none" d="m164.934 144.99 1 1z"/><path style="fill:#717f47;stroke:none" d="m350.934 144.99 1 1z"/><path style="fill:#93ab4f;stroke:none" d="m397.934 144.99 1 1-1-1m-311 1 1 1z"/><path style="fill:#717f47;stroke:none" d="m164.934 145.99 1 1-1-1m188 0 1 1-1-1m46 0 1 1-1-1m-313 1 1 1z"/><path style="fill:#93ab4f;stroke:none" d="m354.934 146.99 1 1-1-1m44 0 1 1-1-1m-235 1 1 1z"/><path style="fill:#717f47;stroke:none" d="m355.934 147.99 1 1-1-1m44 0 1 1-1-1m-315 1 1 1-1-1m79 0 1 1z"/><path style="fill:#93ab4f;stroke:none" d="m357.934 148.99 1 1z"/><path style="fill:#717f47;stroke:none" d="m358.934 149.99 1 1z"/><path style="fill:#93ab4f;stroke:none" d="m400.934 149.99 1 1-1-1m-317 1 1 1-1-1m79 0 1 1z"/><path style="fill:#717f47;stroke:none" d="m359.934 150.99 1 1-1-1m42 0 1 1-1-1m-319 1 1 1-1-1m80 0 1 1z"/><path style="fill:#93ab4f;stroke:none" d="m401.934 151.99 1 1-1-1m-319 1 1 1z"/><path style="fill:#717f47;stroke:none" d="m402.934 152.99 1 1-1-1m-321 1 1 1z"/><path style="fill:#93ab4f;stroke:none" d="m161.934 153.99 1 1z"/><path style="fill:#717f47;stroke:none" d="m403.934 154.99 1 1-1-1m-323 1 1 1-1-1m284 0 1 1-1-1m-204 1 1 1-1-1m205 0 1 1z"/><path style="fill:#93ab4f;stroke:none" d="m404.934 156.99 1 1-1-1m-325 1 1 1-1-1m287 0 1 1z"/><path style="fill:#717f47;stroke:none" d="m405.934 157.99 1 1z"/><path style="fill:#93ab4f;stroke:none" d="m405.934 158.99 1 1-1-1m-327 1 1 1z"/><path style="fill:#717f47;stroke:none" d="m159.934 159.99 1 1-1-1m208 0 1 1-1-1m39 0 1 1z"/><path style="fill:#93ab4f;stroke:none" d="m368.934 160.99 1 1-1-1m38 0 1 1-1-1m-329 1 1 1z"/><path style="fill:#717f47;stroke:none" d="m407.934 161.99 1 1-1-1m-249 1 1 1z"/><path style="fill:#93ab4f;stroke:none" d="m369.934 162.99 1 1-1-1m38 0 1 1-1-1m-331 1 1 1-1-1m81 1 1 1-1-1m213 0 1 1-1-1m38 0 1 1z"/><path style="fill:#717f47;stroke:none" d="m75.934 165.99 1 1-1-1m82 0 1 1-1-1m213 0 1 1-1-1m39 1 1 1-1-1m-335 1 1 1z"/><path style="fill:#93ab4f;stroke:none" d="m156.934 167.99 1 1z"/><path style="fill:#717f47;stroke:none" d="m371.934 167.99 1 1-1-1m-215 1 1 1-1-1m254 0 1 1-1-1m-337 1 1 1z"/><path style="fill:#93ab4f;stroke:none" d="m372.934 169.99 1 1-1-1m38 0 1 1-1-1m-337 1 1 1-1-1m82 0 1 1z"/><path style="fill:#717f47;stroke:none" d="m372.934 170.99 1 1-1-1m39 0 1 1-1-1m-256 1 1 1z"/><path style="fill:#93ab4f;stroke:none" d="m411.934 171.99 1 1-1-1m-339 1 1 1z"/><path style="fill:#717f47;stroke:none" d="m412.934 172.99 1 1z"/><path style="fill:#93ab4f;stroke:none" d="m154.934 173.99 1 1-1-1m219 0 1 1-1-1m39 0 1 1z"/><path style="fill:#717f47;stroke:none" d="m71.934 174.99 1 1-1-1m83 0 1 1-1-1m219.333.667.334.666z"/><path style="fill:#93ab4f;stroke:none" d="m71.934 175.99 1 1z"/><path style="fill:#717f47;stroke:none" d="m413.934 175.99 1 1z"/><path style="fill:#93ab4f;stroke:none" d="m153.934 176.99 1 1-1-1m260 0 1 1-1-1m-343 1 1 1z"/><path style="fill:#717f47;stroke:none" d="m153.934 177.99 1 1-1-1m261 1 1 1-1-1m-345 1 1 1z"/><path style="fill:#93ab4f;stroke:none" d="m152.934 179.99 1 1-1-1m222 0v4h1l-1-4m40 0 1 1-1-1m-345 1 1 1z"/><path style="fill:#717f47;stroke:none" d="m152.934 180.99 1 1-1-1m263 0 1 1z"/><path style="fill:#93ab4f;stroke:none" d="m415.934 181.99 1 1z"/><path style="fill:#717f47;stroke:none" d="m68.934 182.99 1 1z"/><path style="fill:#93ab4f;stroke:none" d="m151.934 182.99 1 1-1-1m-83 1 1 1z"/><path style="fill:#717f47;stroke:none" d="m151.934 183.99 1 1-1-1m223 0v5h1l-1-5m42 0 1 1z"/><path style="fill:#93ab4f;stroke:none" d="m416.934 184.99 1 1z"/><path style="fill:#717f47;stroke:none" d="m67.934 185.99 1 1z"/><path style="fill:#93ab4f;stroke:none" d="m150.934 185.99 1 1-1-1m-83 1 1 1z"/><path style="fill:#717f47;stroke:none" d="m150.934 186.99 1 1-1-1m267 0 1 1z"/><path style="fill:#93ab4f;stroke:none" d="m417.934 187.99 1 1z"/><path style="fill:#717f47;stroke:none" d="m66.934 188.99 1 1z"/><path style="fill:#93ab4f;stroke:none" d="m149.934 188.99 1 1-1-1m225 0v5h1l-1-5m-308 1 1 1z"/><path style="fill:#717f47;stroke:none" d="m149.934 189.99 1 1-1-1m269.333.667.334.666-.334-.666m-353 2 .334.666z"/><path style="fill:#93ab4f;stroke:none" d="m148.934 191.99 1 1-1-1m270 0 1 1z"/><path style="fill:#717f47;stroke:none" d="m148.934 192.99 1 1-1-1m82 0 1 1z"/><path style="fill:#bbdd59;stroke:none" d="M211.934 250.99c26.046 0 63.353 3.105 73.641-28 1.871-5.657 2.806-11.233.891-16.999-4.98-14.997-26.955-13.001-39.532-13.001-4.022 0-12.072-1.531-15.157 1.603-3.52 3.578-4.617 11.72-6.176 16.397-4.456 13.366-9.31 26.609-13.667 40z"/><path style="fill:#93ab4f;stroke:none" d="m264.601 193.323.666.334z"/><path style="fill:#717f47;stroke:none" d="M265.934 192.99v1h3z"/><path style="fill:#93ab4f;stroke:none" d="m65.934 193.99 1 1-1-1m205 0 1 1z"/><path style="fill:#717f47;stroke:none" d="m272.601 194.323.666.334-.666-.334m147.333-.333 1 1z"/><path style="fill:#93ab4f;stroke:none" d="m147.934 194.99 1 1-1-1m127 0 1 1z"/><path style="fill:#717f47;stroke:none" d="m275.934 194.99 1 1z"/><path style="fill:#93ab4f;stroke:none" d="m419.934 194.99 1 1z"/><path style="fill:#717f47;stroke:none" d="m64.934 195.99 1 1-1-1m83 0 1 1-1-1m82 0 1 1-1-1m48 0 1 1z"/><path style="fill:#93ab4f;stroke:none" d="m64.934 196.99 1 1z"/><path style="fill:#717f47;stroke:none" d="m279.934 196.99 1 1-1-1m94.333.667.334.666-.334-.666m47 0 .334.666z"/><path style="fill:#93ab4f;stroke:none" d="m146.934 197.99 1 1-1-1m134 0 1 1z"/><path style="fill:#717f47;stroke:none" d="m146.934 198.99 1 1-1-1m82 0 1 1z"/><path style="fill:#93ab4f;stroke:none" d="m374.267 199.657.334.666-.334-.666m46.667-.667 1 1z"/><path style="fill:#717f47;stroke:none" d="m63.934 199.99 1 1z"/><path style="fill:#93ab4f;stroke:none" d="m64.267 201.657.334.666-.334-.666m81.667-.667 1 1-1-1m138 0 1 1z"/><path style="fill:#717f47;stroke:none" d="m422.267 201.657.334.666-.334-.666m-276.333.333 1 1z"/><path style="fill:#93ab4f;stroke:none" d="m227.934 201.99 1 1z"/><path style="fill:#717f47;stroke:none" d="m284.934 201.99 1 1-1-1m88.333 1.667.334.666z"/><path style="fill:#93ab4f;stroke:none" d="m422.267 203.657.334.666z"/><path style="fill:#717f47;stroke:none" d="m63.267 204.657.334.666-.334-.666m81.667-.667 1 1-1-1m82 0 1 1-1-1m59 0 1 1z"/><path style="fill:#93ab4f;stroke:none" d="m226.934 204.99 1 1-1-1m59 0 1 1-1-1m87 0 1 1-1-1m-310 1 1 1z"/><path style="fill:#717f47;stroke:none" d="m423.267 206.657.334.666-.334-.666m-279.333.333 1 1-1-1m82 0 1 1-1-1m61 0 1 1z"/><path style="fill:#93ab4f;stroke:none" d="m225.934 207.99 1 1-1-1m61.333.667.334.666z"/><path style="fill:#717f47;stroke:none" d="m371.934 207.99 1 1z"/><path style="fill:#93ab4f;stroke:none" d="m423.267 208.657.334.666z"/><path style="fill:#717f47;stroke:none" d="m62.267 209.657.334.666z"/><path style="fill:#93ab4f;stroke:none" d="m371.934 208.99 1 1z"/><path style="fill:#717f47;stroke:none" d="m142.934 209.99 1 1-1-1m82 0 1 1z"/><path style="fill:#93ab4f;stroke:none" d="m62.267 211.657.334.666-.334-.666m162.667-.667 1 1z"/><path style="fill:#717f47;stroke:none" d="m371.267 211.657.334.666-.334-.666m53 0 .334.666z"/><path style="fill:#93ab4f;stroke:none" d="m141.934 211.99 1 1z"/><path style="fill:#717f47;stroke:none" d="m141.934 212.99 1 1-1-1m82 0 1 1z"/><path style="fill:#93ab4f;stroke:none" d="m370.934 212.99 1 1-1-1m53.333.667.334.666-.334-.666m-200.333.333 1 1z"/><path style="fill:#717f47;stroke:none" d="m61.267 215.657.334.666z"/><path style="fill:#93ab4f;stroke:none" d="m140.934 214.99 1 1-1-1m146.333.667.334.666z"/><path style="fill:#717f47;stroke:none" d="m369.934 214.99 1 1-1-1m-229 1 1 1-1-1m82 0 1 1z"/><path style="fill:#93ab4f;stroke:none" d="m369.934 215.99 1 1-1-1m-308.667 1.667.334.666-.334-.666m161.667-.667 1 1z"/><path style="fill:#717f47;stroke:none" d="m287.267 217.657.334.666-.334-.666m137.667-.667v3h1z"/><path style="fill:#93ab4f;stroke:none" d="m139.934 217.99 1 1z"/><path style="fill:#717f47;stroke:none" d="m368.934 217.99 1 1-1-1m-229 1 1 1-1-1m82 0 1 1z"/><path style="fill:#93ab4f;stroke:none" d="m368.934 218.99 1 1-1-1m-147 1 1 1-1-1m64 0 1 1-1-1m139 0v3h1l-1-3m-286 1 1 1z"/><path style="fill:#717f47;stroke:none" d="m285.934 220.99 1 1-1-1m82 0 1 1-1-1m-308 1v3h1l-1-3m79 0 1 1-1-1m82 0 1 1z"/><path style="fill:#93ab4f;stroke:none" d="m367.934 221.99 1 1-1-1m-147 1 1 1-1-1m64 0 1 1-1-1m-147 1 1 1z"/><path style="fill:#717f47;stroke:none" d="m284.934 223.99 1 1-1-1m82 0 1 1z"/><path style="fill:#93ab4f;stroke:none" d="M59.934 224.99v3h1z"/><path style="fill:#717f47;stroke:none" d="m137.934 224.99 1 1-1-1m82 0 1 1z"/><path style="fill:#93ab4f;stroke:none" d="m366.934 224.99 1 1-1-1m-147 1 1 1z"/><path style="fill:#717f47;stroke:none" d="m283.934 225.99 1 1-1-1m142 0v4h1z"/><path style="fill:#93ab4f;stroke:none" d="m136.934 226.99 1 1-1-1m229 0 1 1z"/><path style="fill:#717f47;stroke:none" d="m136.934 227.99 1 1-1-1m82 0 1 1-1-1m64 0 1 1z"/><path style="fill:#93ab4f;stroke:none" d="m218.934 228.99 1 1z"/><path style="fill:#717f47;stroke:none" d="m364.934 228.99 1 1z"/><path style="fill:#93ab4f;stroke:none" d="m135.934 229.99 1 1z"/><path style="fill:#717f47;stroke:none" d="m281.934 229.99 1 1z"/><path style="fill:#93ab4f;stroke:none" d="M425.934 229.99v6h1z"/><path style="fill:#717f47;stroke:none" d="m135.934 230.99 1 1-1-1m82 0 1 1z"/><path style="fill:#93ab4f;stroke:none" d="m280.934 230.99 1 1z"/><path style="fill:#717f47;stroke:none" d="m363.934 230.99 1 1z"/><path style="fill:#93ab4f;stroke:none" d="m217.934 231.99 1 1-1-1m146 0 1 1-1-1m-229 1 1 1z"/><path style="fill:#717f47;stroke:none" d="M58.934 233.99v19h1l-1-19m76 0 1 1-1-1m82 0 1 1-1-1m62 0 1 1z"/><path style="fill:#93ab4f;stroke:none" d="m362.934 233.99 1 1-1-1m-146 1 1 1z"/><path style="fill:#717f47;stroke:none" d="m277.934 234.99 1 1z"/><path style="fill:#93ab4f;stroke:none" d="m133.934 235.99 1 1z"/><path style="fill:#717f47;stroke:none" d="m276.934 235.99 1 1-1-1m85 0 1 1-1-1m-228 1 1 1-1-1m82 0 1 1-1-1m60 0 1 1z"/><path style="fill:#93ab4f;stroke:none" d="m215.934 237.99 1 1z"/><path style="fill:#717f47;stroke:none" d="m274.934 237.99 1 1-1-1m86 0 1 1z"/><path style="fill:#93ab4f;stroke:none" d="m132.934 238.99 1 1z"/><path style="fill:#717f47;stroke:none" d="m273.934 238.99 1 1-1-1m-141 1 1 1-1-1m82 0 1 1-1-1m145 0 1 1z"/><path style="fill:#93ab4f;stroke:none" d="m270.934 240.99 1 1-1-1m-139 1 1 1z"/><path style="fill:#717f47;stroke:none" d="m269.934 241.99 1 1z"/><path style="fill:#93ab4f;stroke:none" d="m358.934 241.99 1 1z"/><path style="fill:#717f47;stroke:none" d="m131.934 242.99 1 1-1-1m82 0 1 1z"/><path style="fill:#93ab4f;stroke:none" d="m267.934 242.99 1 1z"/><path style="fill:#717f47;stroke:none" d="m266.934 243.99 1 1z"/><path style="fill:#93ab4f;stroke:none" d="m357.934 243.99 1 1-1-1m-227 1 1 1z"/><path style="fill:#717f47;stroke:none" d="m264.934 244.99 1 1-1-1m92 0 1 1-1-1m-226 1 1 1-1-1m82 0 1 1z"/><path style="fill:#93ab4f;stroke:none" d="m261.934 245.99 1 1z"/><path style="fill:#717f47;stroke:none" d="m262.934 245.99 1 1z"/><path style="fill:#93ab4f;stroke:none" d="m258.934 246.99 1 1z"/><path style="fill:#717f47;stroke:none" d="m259.934 246.99 1 1-1-1m96 0 1 1z"/><path style="fill:#93ab4f;stroke:none" d="m129.934 247.99 1 1-1-1m126 0 1 1z"/><path style="fill:#717f47;stroke:none" d="m256.934 247.99 1 1-1-1m-127 1 1 1z"/><path style="fill:#93ab4f;stroke:none" d="m211.934 248.99 1 1-1-1m40 0 1 1z"/><path style="fill:#717f47;stroke:none" d="m252.934 248.99 1 1z"/><path style="fill:#93ab4f;stroke:none" d="m354.934 248.99 1 1-1-1m-109.333 1.333.666.334z"/><path style="fill:#717f47;stroke:none" d="m247.601 250.323.666.334-.666-.334m106.333-.333 1 1-1-1m-225 1 1 1-1-1m83 0v1h28z"/><path style="fill:#93ab4f;stroke:none" d="M425.934 250.99v6h1l-1-6m-73 1 1 1z"/><path style="fill:#717f47;stroke:none" d="m351.934 252.99 1 1-1-1m-224 1 1 1z"/><path style="fill:#93ab4f;stroke:none" d="m350.934 254.99 1 1z"/><path style="fill:#717f47;stroke:none" d="m349.934 255.99 1 1-1-1m-223 1 1 1-1-1m299 0v5h1z"/><path style="fill:#93ab4f;stroke:none" d="M59.934 258.99v3h1l-1-3m288 0 1 1z"/><path style="fill:#717f47;stroke:none" d="m125.934 259.99 1 1-1-1m221 0 1 1-1-1m-1 1 1 1-1-1m-286 1v3h1z"/><path style="fill:#93ab4f;stroke:none" d="m124.934 261.99 1 1z"/><path style="fill:#717f47;stroke:none" d="m124.934 262.99 1 1z"/><path style="fill:#93ab4f;stroke:none" d="m343.934 263.99 1 1-1-1m81 0v3h1l-1-3m-301 1 1 1-1-1m219 0 1 1z"/><path style="fill:#717f47;stroke:none" d="m123.934 265.99 1 1-1-1m218 0 1 1-1-1m-1 1 1 1-1-1m84 0v3h1z"/><path style="fill:#93ab4f;stroke:none" d="m61.267 268.657.334.666-.334-.666m61.667-.667 1 1z"/><path style="fill:#717f47;stroke:none" d="m339.934 267.99 1 1-1-1m-217 1 1 1-1-1m216 0 1 1-1-1m-278 1v3h1l-1-3m277 0 1 1z"/><path style="fill:#93ab4f;stroke:none" d="m121.934 270.99 1 1z"/><path style="fill:#717f47;stroke:none" d="m336.934 270.99 1 1-1-1m-215 1 1 1-1-1m214 0 1 1z"/><path style="fill:#93ab4f;stroke:none" d="m424.267 272.657.334.666z"/><path style="fill:#717f47;stroke:none" d="m334.934 272.99 1 1z"/><path style="fill:#93ab4f;stroke:none" d="m120.934 273.99 1 1z"/><path style="fill:#717f47;stroke:none" d="m333.934 273.99 1 1-1-1m90.333.667.334.666z"/><path style="fill:#93ab4f;stroke:none" d="m61.934 274.99 1 1z"/><path style="fill:#717f47;stroke:none" d="m120.934 274.99 1 1z"/><path style="fill:#93ab4f;stroke:none" d="m332.934 274.99 1 1z"/><path style="fill:#717f47;stroke:none" d="m62.267 276.657.334.666z"/><path style="fill:#93ab4f;stroke:none" d="m331.934 275.99 1 1-1-1m-212 1 1 1-1-1m211 0 1 1z"/><path style="fill:#717f47;stroke:none" d="m119.934 277.99 1 1z"/><path style="fill:#93ab4f;stroke:none" d="m422.934 277.99 1 1z"/><path style="fill:#717f47;stroke:none" d="m327.934 278.99 1 1-1-1m95.333.667.334.666z"/><path style="fill:#93ab4f;stroke:none" d="m63.267 280.657.334.666-.334-.666m55.667-.667 1 1-1-1m208 0 1 1z"/><path style="fill:#717f47;stroke:none" d="m118.934 280.99 1 1z"/><path style="fill:#93ab4f;stroke:none" d="m325.934 280.99 1 1z"/><path style="fill:#717f47;stroke:none" d="m62.934 281.99 1 1-1-1m261 0 1 1z"/><path style="fill:#93ab4f;stroke:none" d="m117.934 282.99 1 1-1-1m205 0 1 1-1-1m99 0 1 1z"/><path style="fill:#717f47;stroke:none" d="m117.934 283.99 1 1-1-1m304.333.667.334.666z"/><path style="fill:#93ab4f;stroke:none" d="m63.934 284.99 1 1z"/><path style="fill:#717f47;stroke:none" d="m319.934 284.99 1 1-1-1m-256 1 1 1z"/><path style="fill:#93ab4f;stroke:none" d="m116.934 285.99 1 1-1-1m202 0 1 1z"/><path style="fill:#717f47;stroke:none" d="m116.934 286.99 1 1z"/><path style="fill:#93ab4f;stroke:none" d="m316.934 286.99 1 1-1-1m104 0 1 1z"/><path style="fill:#717f47;stroke:none" d="m314.934 287.99 1 1-1-1m106.333.667.334.666z"/><path style="fill:#93ab4f;stroke:none" d="m64.934 288.99 1 1-1-1m51 0 1 1-1-1m198 0 1 1z"/><path style="fill:#717f47;stroke:none" d="m64.934 289.99 1 1-1-1m51 0 1 1z"/><path style="fill:#93ab4f;stroke:none" d="m311.934 289.99 1 1z"/><path style="fill:#717f47;stroke:none" d="m309.934 290.99 1 1z"/><path style="fill:#93ab4f;stroke:none" d="m419.934 290.99 1 1-1-1m-305 1 1 1z"/><path style="fill:#717f47;stroke:none" d="m307.934 291.99 1 1-1-1m112.333.667.334.666z"/><path style="fill:#93ab4f;stroke:none" d="m65.934 292.99 1 1z"/><path style="fill:#717f47;stroke:none" d="m114.934 292.99 1 1-1-1m191 0 1 1-1-1m-240 1 1 1z"/><path style="fill:#93ab4f;stroke:none" d="m303.934 293.99 1 1-1-1m-190 1 1 1z"/><path style="fill:#717f47;stroke:none" d="m300.934 294.99 1 1z"/><path style="fill:#93ab4f;stroke:none" d="m301.934 294.99 1 1-1-1m117 0 1 1-1-1m-352 1 1 1z"/><path style="fill:#717f47;stroke:none" d="m113.934 295.99 1 1-1-1m185 0 1 1z"/><path style="fill:#93ab4f;stroke:none" d="m299.934 295.99 1 1z"/><path style="fill:#717f47;stroke:none" d="m418.934 295.99 1 1-1-1m-352 1 1 1-1-1m229 0 1 1z"/><path style="fill:#93ab4f;stroke:none" d="m296.934 296.99 1 1-1-1m-184 1 1 1z"/><path style="fill:#717f47;stroke:none" d="m293.934 297.99 1 1z"/><path style="fill:#93ab4f;stroke:none" d="m417.934 297.99 1 1z"/><path style="fill:#717f47;stroke:none" d="m290.934 298.99 1 1z"/><path style="fill:#93ab4f;stroke:none" d="m291.934 298.99 1 1z"/><path style="fill:#717f47;stroke:none" d="m417.934 298.99 1 1-1-1m-350 1 1 1-1-1m219.667.333.666.334-.666-.334m-175.667.667 1 1-1-1m172 0 1 1z"/><path style="fill:#93ab4f;stroke:none" d="m284.934 300.99 1 1-1-1m132 0 1 1z"/><path style="fill:#717f47;stroke:none" d="m279.934 301.99 1 1z"/><path style="fill:#93ab4f;stroke:none" d="m280.934 301.99 1 1z"/><path style="fill:#717f47;stroke:none" d="m416.934 301.99 1 1-1-1m-348 1 1 1-1-1m206.667.333.666.334z"/><path style="fill:#93ab4f;stroke:none" d="m276.934 302.99 1 1z"/><path style="fill:#717f47;stroke:none" d="m110.934 303.99 1 1-1-1m159.667.333.666.334z"/><path style="fill:#93ab4f;stroke:none" d="m271.934 303.99 1 1-1-1m144 0 1 1-1-1m-346 1 1 1z"/><path style="fill:#717f47;stroke:none" d="m263.601 305.323.666.334z"/><path style="fill:#93ab4f;stroke:none" d="m265.601 305.323.666.334z"/><path style="fill:#717f47;stroke:none" d="m415.934 304.99 1 1-1-1m-346 1 1 1-1-1m182 0v1h4z"/><path style="fill:#93ab4f;stroke:none" d="M255.934 305.99v1h3z"/><path style="fill:#717f47;stroke:none" d="m109.934 306.99 1 1-1-1m82 0 1 1z"/><path style="fill:#93ab4f;stroke:none" d="m414.934 306.99 1 1-1-1m-344 1 1 1-1-1m121 0 1 1z"/><path style="fill:#717f47;stroke:none" d="m414.934 307.99 1 1-1-1m-344 1 1 1z"/><path style="fill:#93ab4f;stroke:none" d="m108.934 308.99 1 1z"/><path style="fill:#717f47;stroke:none" d="m108.934 309.99 1 1-1-1m82 0 1 1-1-1m223 0 1 1z"/><path style="fill:#93ab4f;stroke:none" d="m71.934 310.99 1 1-1-1m119 0 1 1-1-1m-83 1 1 1-1-1m305 0 1 1-1-1m-340 1 1 1z"/><path style="fill:#717f47;stroke:none" d="m107.934 312.99 1 1-1-1m82 0 1 1-1-1m223 0 1 1-1-1m-340 1 1 1z"/><path style="fill:#93ab4f;stroke:none" d="m189.934 313.99 1 1-1-1m-83 1 1 1z"/><path style="fill:#717f47;stroke:none" d="m411.934 314.99 1 1-1-1m-338 1 1 1-1-1m33 0 1 1-1-1m82 0 1 1z"/><path style="fill:#93ab4f;stroke:none" d="m188.934 316.99 1 1-1-1m222 0 1 1-1-1m-336 1 1 1-1-1m31 0 1 1z"/><path style="fill:#717f47;stroke:none" d="m105.934 318.99 1 1-1-1m82 0 1 1z"/><path style="fill:#93ab4f;stroke:none" d="m409.934 318.99 1 1-1-1m-334 1 1 1-1-1m112 0 1 1z"/><path style="fill:#717f47;stroke:none" d="m409.934 319.99 1 1-1-1m-334 1 1 1z"/><path style="fill:#93ab4f;stroke:none" d="m104.934 320.99 1 1-1-1m304 0 1 1-1-1m-332 1 1 1z"/><path style="fill:#717f47;stroke:none" d="m104.934 321.99 1 1-1-1m82 0 1 1-1-1m222 0 1 1-1-1m-332 1 1 1z"/><path style="fill:#93ab4f;stroke:none" d="m186.934 322.99 1 1-1-1m221 0 1 1-1-1m-330 1 1 1-1-1m26 0 1 1z"/><path style="fill:#717f47;stroke:none" d="m407.934 323.99 1 1-1-1m-330 1 1 1-1-1m26 0 1 1-1-1m82 0 1 1z"/><path style="fill:#93ab4f;stroke:none" d="m406.934 324.99 1 1-1-1m-328 1 1 1-1-1m107 0 1 1z"/><path style="fill:#717f47;stroke:none" d="m406.934 325.99 1 1-1-1m-328 1 1 1z"/><path style="fill:#93ab4f;stroke:none" d="m102.934 326.99 1 1-1-1m303 0 1 1-1-1m-326 1 1 1z"/><path style="fill:#717f47;stroke:none" d="m102.934 327.99 1 1-1-1m82 0 1 1-1-1m221 0 1 1-1-1m-326 1 1 1z"/><path style="fill:#93ab4f;stroke:none" d="m184.934 328.99 1 1-1-1m220 0 1 1-1-1m-324 1 1 1-1-1m21 0 1 1z"/><path style="fill:#717f47;stroke:none" d="m404.934 329.99 1 1-1-1m-303 1 1 1-1-1m82 0 1 1z"/><path style="fill:#93ab4f;stroke:none" d="m403.934 330.99 1 1-1-1m-322 1 1 1-1-1m102 0 1 1-1-1m-83 1 1 1-1-1m302 0 1 1z"/><path style="fill:#717f47;stroke:none" d="m82.934 333.99 1 1-1-1m18 0 1 1-1-1m82 0 1 1z"/><path style="fill:#93ab4f;stroke:none" d="m182.934 334.99 1 1z"/><path style="fill:#717f47;stroke:none" d="m401.934 334.99 1 1-1-1m-318 1 1 1z"/><path style="fill:#93ab4f;stroke:none" d="m99.934 335.99 1 1-1-1m-15 1 1 1z"/><path style="fill:#717f47;stroke:none" d="m99.934 336.99 1 1-1-1m82 0 1 1-1-1m219 0 1 1z"/><path style="fill:#93ab4f;stroke:none" d="m399.934 337.99 1 1-1-1m-314 1 1 1-1-1m13 0 1 1z"/><path style="fill:#717f47;stroke:none" d="m98.934 339.99 1 1-1-1m82 0 1 1-1-1m218 0 1 1-1-1m-312 1 1 1z"/><path style="fill:#93ab4f;stroke:none" d="m397.934 340.99 1 1-1-1m-310 1 1 1-1-1m10 0 1 1z"/><path style="fill:#717f47;stroke:none" d="m397.934 341.99 1 1-1-1m-300 1 1 1-1-1m82 0 1 1z"/><path style="fill:#93ab4f;stroke:none" d="m396.934 342.99 1 1z"/><path style="fill:#717f47;stroke:none" d="m88.934 343.99 1 1z"/><path style="fill:#93ab4f;stroke:none" d="m89.934 344.99 1 1-1-1m7 0 1 1z"/><path style="fill:#717f47;stroke:none" d="m178.934 344.99 1 1-1-1m217 0 1 1z"/><path style="fill:#93ab4f;stroke:none" d="m178.934 345.99 1 1-1-1m216 0 1 1z"/><path style="fill:#717f47;stroke:none" d="m90.934 346.99 1 1z"/><path style="fill:#93ab4f;stroke:none" d="m91.934 347.99 1 1z"/><path style="fill:#717f47;stroke:none" d="m95.934 347.99 1 1-1-1m82 0 1 1-1-1m216 0 1 1z"/><path style="fill:#93ab4f;stroke:none" d="m177.934 348.99 1 1z"/><path style="fill:#717f47;stroke:none" d="m392.934 348.99 1 1-1-1m-300 1 1 1z"/><path style="fill:#93ab4f;stroke:none" d="m391.934 349.99 1 1z"/><path style="fill:#717f47;stroke:none" d="m94.601 351.323.666.334-.666-.334m82.333-.333 1 1z"/><path style="fill:#93ab4f;stroke:none" d="m176.934 351.99 1 1z"/><path style="fill:#717f47;stroke:none" d="m390.934 351.99 1 1z"/><path style="fill:#93ab4f;stroke:none" d="m389.934 352.99 1 1z"/><path style="fill:#717f47;stroke:none" d="m175.934 353.99 1 1z"/><path style="fill:#93ab4f;stroke:none" d="m388.934 353.99 1 1-1-1m-213 1 1 1z"/><path style="fill:#717f47;stroke:none" d="m387.934 355.99 1 1-1-1m-213 1 1 1z"/><path style="fill:#93ab4f;stroke:none" d="m386.934 356.99 1 1-1-1m-212 1 1 1-1-1m211 0 1 1z"/><path style="fill:#717f47;stroke:none" d="m173.934 359.99 1 1z"/><path style="fill:#93ab4f;stroke:none" d="m173.934 360.99 1 1z"/><path style="fill:#717f47;stroke:none" d="m383.934 360.99 1 1-1-1m-1 1 1 1-1-1m-210 1 1 1z"/><path style="fill:#93ab4f;stroke:none" d="m381.934 362.99 1 1-1-1m-209 1 1 1-1-1m208 0 1 1-1-1m-1 1 1 1z"/><path style="fill:#717f47;stroke:none" d="m171.934 365.99 1 1z"/><path style="fill:#93ab4f;stroke:none" d="m171.934 366.99 1 1z"/><path style="fill:#717f47;stroke:none" d="m170.934 368.99 1 1-1-1m206 0 1 1z"/><path style="fill:#93ab4f;stroke:none" d="m170.934 369.99 1 1z"/><path style="fill:#717f47;stroke:none" d="m375.934 369.99 1 1-1-1m-1 1 1 1-1-1m-205 1 1 1-1-1m204 0 1 1z"/><path style="fill:#93ab4f;stroke:none" d="m169.934 372.99 1 1z"/><path style="fill:#717f47;stroke:none" d="m372.934 372.99 1 1-1-1m-1 1 1 1-1-1m-203 1 1 1-1-1m202 0 1 1z"/><path style="fill:#93ab4f;stroke:none" d="m168.934 375.99 1 1z"/><path style="fill:#717f47;stroke:none" d="m369.934 375.99 1 1-1-1m-1 1 1 1-1-1m-201 1 1 1-1-1m200 0 1 1z"/><path style="fill:#93ab4f;stroke:none" d="m167.934 378.99 1 1-1-1m197 1 1 1z"/><path style="fill:#717f47;stroke:none" d="m166.934 380.99 1 1z"/><path style="fill:#93ab4f;stroke:none" d="m363.934 380.99 1 1-1-1m-197 1 1 1-1-1m196 0 1 1z"/><path style="fill:#717f47;stroke:none" d="m361.934 382.99 1 1-1-1m-196 1 1 1-1-1m195 0 1 1-1-1m-1 1 1 1z"/><path style="fill:#93ab4f;stroke:none" d="m357.934 385.99 1 1z"/><path style="fill:#717f47;stroke:none" d="m164.934 386.99 1 1z"/><path style="fill:#93ab4f;stroke:none" d="m356.934 386.99 1 1z"/><path style="fill:#717f47;stroke:none" d="m355.934 387.99 1 1-1-1m-1 1 1 1-1-1m-191 1 1 1z"/><path style="fill:#93ab4f;stroke:none" d="m352.934 389.99 1 1z"/><path style="fill:#717f47;stroke:none" d="m351.934 390.99 1 1-1-1m-189 1 1 1-1-1m188 0 1 1z"/><path style="fill:#93ab4f;stroke:none" d="m162.934 392.99 1 1-1-1m186 0 1 1z"/><path style="fill:#717f47;stroke:none" d="m347.934 393.99 1 1-1-1m-186 1 1 1z"/><path style="fill:#93ab4f;stroke:none" d="m345.934 394.99 1 1-1-1m-184 1 1 1z"/><path style="fill:#717f47;stroke:none" d="m344.934 395.99 1 1z"/><path style="fill:#93ab4f;stroke:none" d="m342.934 396.99 1 1z"/><path style="fill:#717f47;stroke:none" d="m160.934 397.99 1 1-1-1m181 0 1 1z"/><path style="fill:#93ab4f;stroke:none" d="m160.934 398.99 1 1-1-1m179 0 1 1z"/><path style="fill:#717f47;stroke:none" d="m338.934 399.99 1 1-1-1m-179 1 1 1-1-1m177 0 1 1z"/><path style="fill:#93ab4f;stroke:none" d="m159.934 401.99 1 1-1-1m175 0 1 1-1-1m-2 1 1 1z"/><path style="fill:#717f47;stroke:none" d="m333.934 402.99 1 1-1-1m-175 1 1 1-1-1m173 0 1 1z"/><path style="fill:#93ab4f;stroke:none" d="m158.934 404.99 1 1z"/><path style="fill:#717f47;stroke:none" d="m329.934 404.99 1 1-1-1m-2 1 1 1-1-1m-169 1 1 1z"/><path style="fill:#93ab4f;stroke:none" d="m159.934 406.99 1 1-1-1m166 0 1 1z"/><path style="fill:#717f47;stroke:none" d="m160.934 407.99 1 1z"/><path style="fill:#93ab4f;stroke:none" d="m161.934 407.99 1 1-1-1m162 0 1 1z"/><path style="fill:#717f47;stroke:none" d="m162.934 408.99 1 1z"/><path style="fill:#93ab4f;stroke:none" d="m163.934 408.99 1 1z"/><path style="fill:#717f47;stroke:none" d="m321.934 408.99 1 1z"/><path style="fill:#93ab4f;stroke:none" d="m165.934 409.99 1 1z"/><path style="fill:#717f47;stroke:none" d="m319.934 409.99 1 1z"/><path style="fill:#93ab4f;stroke:none" d="m167.934 410.99 1 1-1-1m149 0 1 1z"/><path style="fill:#717f47;stroke:none" d="m317.934 410.99 1 1-1-1m-148 1 1 1z"/><path style="fill:#93ab4f;stroke:none" d="m314.934 411.99 1 1z"/><path style="fill:#717f47;stroke:none" d="m315.934 411.99 1 1-1-1m-144 1 1 1z"/><path style="fill:#93ab4f;stroke:none" d="m172.934 412.99 1 1z"/><path style="fill:#717f47;stroke:none" d="m312.934 412.99 1 1-1-1m-138 1 1 1z"/><path style="fill:#93ab4f;stroke:none" d="m309.934 413.99 1 1z"/><path style="fill:#717f47;stroke:none" d="m310.934 413.99 1 1-1-1m-134 1 1 1z"/><path style="fill:#93ab4f;stroke:none" d="m177.934 414.99 1 1z"/><path style="fill:#717f47;stroke:none" d="m307.934 414.99 1 1-1-1m-128 1 1 1z"/><path style="fill:#93ab4f;stroke:none" d="m180.934 415.99 1 1-1-1m124 0 1 1z"/><path style="fill:#717f47;stroke:none" d="m305.934 415.99 1 1-1-1m-123 1 1 1z"/><path style="fill:#93ab4f;stroke:none" d="m301.934 416.99 1 1z"/><path style="fill:#717f47;stroke:none" d="m302.934 416.99 1 1-1-1m-117 1 1 1z"/><path style="fill:#93ab4f;stroke:none" d="m186.934 417.99 1 1-1-1m112 0 1 1z"/><path style="fill:#717f47;stroke:none" d="m299.934 417.99 1 1-1-1m-111 1 1 1z"/><path style="fill:#93ab4f;stroke:none" d="m189.934 418.99 1 1-1-1m106 0 1 1z"/><path style="fill:#717f47;stroke:none" d="m296.934 418.99 1 1-1-1m-105 1 1 1z"/><path style="fill:#93ab4f;stroke:none" d="m192.934 419.99 1 1-1-1m99 0 1 1z"/><path style="fill:#717f47;stroke:none" d="m292.934 419.99 1 1-1-1m-97 1 1 1z"/><path style="fill:#93ab4f;stroke:none" d="m196.934 420.99 1 1-1-1m91.667.333.666.334z"/><path style="fill:#717f47;stroke:none" d="m289.934 420.99 1 1-1-1m-90 1 1 1z"/><path style="fill:#93ab4f;stroke:none" d="m200.934 421.99 1 1-1-1m83.667.333.666.334z"/><path style="fill:#717f47;stroke:none" d="m285.934 421.99 1 1-1-1m-81.333 1.333.666.334z"/><path style="fill:#93ab4f;stroke:none" d="m205.934 422.99 1 1-1-1m74 0 1 1z"/><path style="fill:#717f47;stroke:none" d="m281.601 423.323.666.334-.666-.334m-72 1 .666.334z"/><path style="fill:#93ab4f;stroke:none" d="m210.934 423.99 1 1-1-1m63.667.333.666.334z"/><path style="fill:#717f47;stroke:none" d="m276.601 424.323.666.334-.666-.334m-61 1 .666.334z"/><path style="fill:#93ab4f;stroke:none" d="m217.601 425.323.666.334-.666-.334m51 0 .666.334z"/><path style="fill:#717f47;stroke:none" d="m270.601 425.323.666.334-.666-.334m-48.667.667v1h3z"/><path style="fill:#93ab4f;stroke:none" d="M224.934 425.99v1h3l-3-1m33 0v1h3z"/><path style="fill:#717f47;stroke:none" d="M260.934 425.99v1h4l-4-1m-27 1v1h18z"/></svg>