<?xml version="1.0" encoding="utf-8"?>
<!-- Generator: Adobe Illustrator 25.3.1, SVG Export Plug-In . SVG Version: 6.00 Build 0)  -->
<svg version="1.1" id="Layer_1" xmlns="http://www.w3.org/2000/svg" xmlns:xlink="http://www.w3.org/1999/xlink" x="0px" y="0px"
	 viewBox="0 0 1000 1000" style="enable-background:new 0 0 1000 1000;" xml:space="preserve">
<style type="text/css">
	.st0{fill:#5900FF;}
	.st1{fill:#FFA100;}
	.st2{fill:#FFFFFF;}
	.st3{fill:#241F20;}
	.st4{fill:#A5660C;}
	.st5{fill:#FF5537;}
	.st6{fill:#DC5537;}
	.st7{fill:#9E3219;}
</style>
<g id="Layer_1_1_">
</g>
<g id="Layer_15">
	<g>
		<path class="st0" d="M117.2,503.5c0,3.9,0.8,7.8,2.3,11.5l103.3,249.5c3,7.3,8.9,13.2,16.2,16.2L488.5,884c7.3,3,15.6,3,22.9,0
			L761,780.7c7.3-3,13.2-8.9,16.2-16.2L880.6,515c1.5-3.7,2.3-7.6,2.3-11.5s-0.8-7.8-2.3-11.5L777.2,242.5
			c-3-7.3-8.9-13.2-16.2-16.2L511.5,122.9c-7.3-3-15.6-3-22.9,0L239,226.3c-7.3,3-13.2,8.9-16.2,16.2L119.4,492
			C117.9,495.7,117.2,499.6,117.2,503.5L117.2,503.5z"/>
		<path class="st1" d="M231.3,585c-1.2-41.8-15.9-121.8-10.7-139.8s33.8-77.7,33.8-77.7s-57.1-175.6-1.2-241.3
			c35.5-41.6,101.2,76.2,138.4,120.6c0,0,63.5-12.3,121.8-11.1s123.4,31.1,123.4,31.1S734.5,120.3,775.9,147
			c54.7,35.2,30.4,191.8-1.9,253.8c0,45.3,16.5,98.5-22.4,165.5C712.7,633.2,647.1,720,647.1,720s-272.7,17.7-278,15.3
			S231.3,585,231.3,585z"/>
		<path class="st2" d="M762.1,407.2c23.4,84.5-32.6,140.1-104.9,140.1c-72.2,0-73.2-112.7-159-113l0,0c-0.1,0-0.1,0-0.2,0
			s-0.1,0-0.2,0l0,0c-85.8,0.4-86.7,113-159,113s-128.3-55.6-104.9-140.1c0,0-27.6,55.9-26.1,140.1c1.4,84.1,43.4,238.8,43.4,238.8
			l246.6,85.4v0.1l0.2-0.1l0.2,0.1v-0.1L761,780.7c0,0,25.8-149.2,27.3-233.4C789.7,463.2,762.1,407.2,762.1,407.2z"/>
		<g>
			<path class="st3" d="M239,791.9c-4.9,0-9.5-3.3-10.8-8.3c-73.9-275.3-5.8-382.9,35-447.2l2.4-3.8c3.3-5.2,10.2-6.8,15.5-3.5
				c5.2,3.3,6.8,10.2,3.5,15.5l-2.4,3.8c-20.3,32-45.5,71.8-57.5,137.5c-6.6,36-8.4,76.5-5.4,120.3c3.6,51.3,13.9,109,30.7,171.6
				c1.6,6-1.9,12.1-7.9,13.7C240.9,791.8,240,791.9,239,791.9z"/>
		</g>
		<path class="st4" d="M312.8,450.4c-0.1-2.4-0.2-4.8-0.2-7.3c0-30.6,9.3-55.9,38.9-59.8c-2.6-0.3-5.3-0.5-8-0.5
			c-33.3,0-60.3,27-60.3,60.3c0,9,2,17.6,5.6,25.3C294.6,460.8,302.9,454.5,312.8,450.4z"/>
		<path class="st4" d="M632.3,450.4c-0.1-2.4-0.2-4.8-0.2-7.3c0-30.6,9.3-55.9,38.9-59.8c-2.6-0.3-5.3-0.5-8-0.5
			c-33.3,0-60.3,27-60.3,60.3c0,9,2,17.6,5.6,25.3C614,460.8,622.4,454.5,632.3,450.4z"/>
		<ellipse class="st2" cx="341.4" cy="474.3" rx="50.1" ry="29.2"/>
		<ellipse class="st2" cx="659.9" cy="474.3" rx="50.1" ry="29.2"/>
		<path class="st5" d="M554.5,587c27.8,27.8,50.2,150.6-45.7,150.6S425.6,614.8,453.4,587l52.5-13.8L554.5,587z"/>
		<g>
			<g>
				<g>
					<g>
						<path class="st3" d="M343.5,512.3c-38.1,0-69.1-31-69.1-69.1s31-69.1,69.1-69.1s69.1,31,69.1,69.1S381.6,512.3,343.5,512.3z
							 M343.5,391.7c-28.4,0-51.5,23.1-51.5,51.5s23.1,51.5,51.5,51.5s51.5-23.1,51.5-51.5S371.9,391.7,343.5,391.7z"/>
					</g>
					<g>
						<path class="st3" d="M395.9,480.1c-4.9,0-8.8-3.9-8.8-8.8c0-3.3-4-7.4-10.4-10.6c-8.6-4.3-20.6-6.7-33.1-6.7
							s-24.5,2.5-33.1,6.7c-6.4,3.2-10.4,7.3-10.4,10.6c0,4.9-3.9,8.8-8.8,8.8s-8.8-3.9-8.8-8.8c0-19.9,26.3-34.9,61.1-34.9
							c34.8,0,61.1,15,61.1,34.9C404.7,476.2,400.8,480.1,395.9,480.1z"/>
					</g>
					<path class="st3" d="M343.5,443.2c-9.1,0-17.7,1.3-25.5,3.5c1,22.5,12,40.3,25.5,40.3s24.5-17.7,25.5-40.3
						C361.2,444.4,352.6,443.2,343.5,443.2z"/>
				</g>
			</g>
			<g>
				<g>
					<g>
						<path class="st3" d="M659.9,512.3c-38.1,0-69.1-31-69.1-69.1s31-69.1,69.1-69.1c38.1,0,69.1,31,69.1,69.1
							S698,512.3,659.9,512.3z M659.9,391.7c-28.4,0-51.5,23.1-51.5,51.5s23.1,51.5,51.5,51.5c28.4,0,51.5-23.1,51.5-51.5
							S688.3,391.7,659.9,391.7z"/>
					</g>
					<g>
						<path class="st3" d="M712.2,480.1c-4.9,0-8.8-3.9-8.8-8.8c0-3.3-4-7.4-10.4-10.6c-8.6-4.3-20.6-6.7-33.1-6.7
							s-24.5,2.5-33.1,6.7c-6.4,3.2-10.4,7.3-10.4,10.6c0,4.9-3.9,8.8-8.8,8.8s-8.8-3.9-8.8-8.8c0-19.9,26.3-34.9,61.1-34.9
							s61.1,15,61.1,34.9C721,476.2,717.1,480.1,712.2,480.1z"/>
					</g>
					<path class="st3" d="M659.9,443.2c-9.1,0-17.7,1.3-25.5,3.5c1.1,22.6,12.1,40.3,25.5,40.3c13.5,0,24.5-17.7,25.5-40.3
						C677.6,444.4,669,443.2,659.9,443.2z"/>
				</g>
			</g>
		</g>
		<path class="st6" d="M501.7,577.2l-43.1,7.8c-38,27.8-69.1,156.4,62.3,156.4c6.2,0,9.4-13.9,15-14.4
			C423.9,716.4,465.5,603.6,501.7,577.2z"/>
		<path class="st4" d="M350.2,267.1c-18.7-51.8-56.3-89.2-75.2-66.7c-13.7,16.3-15.1,72.4,0.1,105.8c4.4,9.7,17,12.2,25,5.2
			L350.2,267.1z"/>
		<ellipse class="st7" cx="501.7" cy="503.5" rx="50.6" ry="43.8"/>
		<path class="st4" d="M682.8,302.8c18.7-51.8,56.3-89.2,75.2-66.7c13.7,16.3,15.1,72.4-0.1,105.8c-4.4,9.7-17,12.2-25,5.2
			L682.8,302.8z"/>
		<g>
			<path class="st3" d="M688.6,319.2c-3,0-6-1.2-8.2-3.5c-40.2-42.7-106.8-68-182.7-69.5c-72.4-1.4-139.5,19.6-175.1,54.7
				c-4.4,4.3-11.5,4.3-15.9-0.1c-4.3-4.4-4.3-11.5,0.1-15.9c39.7-39.2,113-62.6,191.2-61.1c81.9,1.5,154.3,29.4,198.6,76.5
				c4.2,4.5,4,11.6-0.5,15.8C694.1,318.2,691.4,319.2,688.6,319.2z"/>
		</g>
		<g>
			<path class="st3" d="M761,791.9c-1.2,0-2.3-0.2-3.5-0.6c-5.9-1.9-9.1-8.3-7.2-14.1c7-21.4,21.9-103.4,24.5-195.6
				c3.8-140.4-22.7-206-45.5-236.3c-3.7-4.9-2.8-12,2.2-15.7c4.9-3.7,12-2.8,15.7,2.2c19.9,26.3,34.1,64.1,42.2,112.6
				c6.6,39.5,9.3,85.9,7.9,137.8c-2.6,95.7-17.9,178.8-25.6,202C770.1,788.9,765.7,791.9,761,791.9z"/>
		</g>
		<g>
			<g>
				<g>
					<path class="st3" d="M452.4,595.5c-22.8,0-46.6-11.4-68.3-33.1c-4.1-4.1-4.1-10.7,0-14.8c4.1-4.1,10.7-4.1,14.8,0
						c23.7,23.8,49.6,32.3,71.1,23.5c13.3-5.5,21.3-16.4,21.3-23.8c0-5.8,4.7-10.4,10.4-10.4c5.8,0,10.4,4.7,10.4,10.4
						c0,17.1-14.1,34.8-34.2,43.1C469.7,593.8,461.2,595.5,452.4,595.5z"/>
				</g>
				<g>
					<path class="st3" d="M551,595.5c-8.7,0-17.3-1.7-25.5-5.1c-20.1-8.3-34.2-26.1-34.2-43.1c0-5.8,4.7-10.4,10.4-10.4
						c5.8,0,10.4,4.7,10.4,10.4c0,7.4,8,18.3,21.3,23.8c21.4,8.9,47.3,0.3,71.1-23.5c4.1-4.1,10.7-4.1,14.8,0
						c4.1,4.1,4.1,10.7,0,14.8C597.6,584.1,573.7,595.5,551,595.5z"/>
				</g>
			</g>
			<g>
				<path class="st3" d="M501.7,557.7c-33.7,0-61-24.3-61-54.2s27.4-54.2,61-54.2s61,24.3,61,54.2S535.4,557.7,501.7,557.7z
					 M501.7,470.1c-22.1,0-40.2,15-40.2,33.4c0,18.4,18,33.4,40.2,33.4c22.1,0,40.2-15,40.2-33.4
					C541.9,485.1,523.8,470.1,501.7,470.1z"/>
			</g>
			<g>
				<path class="st3" d="M479.5,547.5c-9,0-24.6-4.1-36.3-29c-2.5-5.2-0.2-11.4,5-13.9c5.2-2.5,11.4-0.2,13.9,5
					c5.4,11.4,12.4,17.9,18.5,17c3.6-0.5,6.6-3.6,7.2-7.3c0.8-5.1-3.1-10.2-10.8-13.9c-5.2-2.5-7.3-8.8-4.8-14s8.8-7.3,14-4.8
					c16.2,8,24.5,21.4,22.2,36c-2,12.8-12.2,22.9-24.8,24.7C482.4,547.4,481,547.5,479.5,547.5z"/>
			</g>
			<g>
				<path class="st3" d="M523.8,547.5c-1.5,0-2.9-0.1-4-0.3c-12.6-1.8-22.8-12-24.8-24.7c-2.3-14.5,6-28,22.2-36
					c5.2-2.5,11.4-0.4,14,4.8c2.5,5.2,0.4,11.4-4.8,14c-7.7,3.8-11.6,8.8-10.8,13.9c0.6,3.7,3.6,6.8,7.2,7.3c6,0.9,13.1-5.6,18.5-17
					c2.5-5.2,8.7-7.4,13.9-5c5.2,2.5,7.4,8.7,5,13.9C548.4,543.4,532.8,547.5,523.8,547.5z"/>
			</g>
			<g>
				<path class="st3" d="M506.6,746c-37,0-64.5-17.4-77.6-49c-8-19.2-10.4-43.2-6.8-67.5c3.3-22.3,11.3-41.7,21.5-51.9
					c4.1-4.1,10.7-4.1,14.8,0s4.1,10.7,0,14.8c-6.9,6.9-13,22.7-15.6,40.2c-3.1,20.6-1.1,40.7,5.4,56.5c9.9,24,29.5,36.1,58.3,36.1
					c26.7,0,44.7-10.6,53.4-31.5c6.4-15.5,7.6-36.2,3.4-58.1c-4.1-21.2-12.2-36.9-18.4-43.1c-4.1-4.1-4.1-10.7,0-14.8
					s10.7-4.1,14.8,0c20.2,20.2,37.3,81.2,19.6,124C570.9,721.9,551.4,746,506.6,746z"/>
			</g>
			<g>
				<path class="st3" d="M506.6,685.6c-6,0-11-4.7-11.2-10.8l-4.9-127.1c-0.2-6.2,4.6-11.4,10.8-11.6c6.2-0.3,11.4,4.6,11.6,10.8
					l4.9,127.1c0.2,6.2-4.6,11.4-10.8,11.6C506.9,685.6,506.7,685.6,506.6,685.6z"/>
			</g>
		</g>
		<g>
			<path class="st3" d="M350.2,278.3c-4.6,0-8.9-2.8-10.5-7.4c-6.8-18.7-17.8-37.4-30.3-51.3c-13-14.4-21.3-16.8-23.1-16.6
				c-0.2,0.2-0.5,0.7-0.8,1.5c-2.3,5.8-8.8,8.6-14.5,6.3c-5.8-2.3-8.6-8.8-6.3-14.5c4-10.1,12-15.8,22.1-15.7
				c8.6,0.1,22.8,4.8,41.5,26.5c13.6,15.8,25.2,35.8,32.6,56.2c2.1,5.8-0.9,12.2-6.7,14.3C352.7,278.1,351.5,278.3,350.2,278.3z"/>
		</g>
		<g>
			<path class="st3" d="M682.8,308.1c-1.3,0-2.5-0.2-3.8-0.7c-5.8-2.1-8.8-8.5-6.7-14.3c6.9-19.1,18.2-38.7,31-53.8
				c10.9-12.8,27.5-27.8,45.1-26.1c11.5,1.1,26.2,9.4,31.5,42.7c1,6.1-3.2,11.9-9.3,12.8c-6.1,1-11.9-3.2-12.8-9.3
				c-2.3-14.3-6.7-23.4-11.5-23.9c-4.4-0.4-13.9,4.1-25.9,18.3c-11,13-21.1,30.5-27,46.9C691.7,305.3,687.4,308.1,682.8,308.1z"/>
		</g>
		<g>
			<ellipse class="st2" cx="387.4" cy="326.5" rx="37.2" ry="29.5"/>
			<ellipse class="st2" cx="611.9" cy="326.5" rx="37.2" ry="29.5"/>
		</g>
		<g>
			<path class="st3" d="M692.4,219.2c-2.7,0-5.5-0.5-8.1-1.6l-180.9-74.9c-2.1-0.8-4.6-0.8-6.7,0L351,203
				c-10.9,4.5-23.3-0.7-27.8-11.5c-4.5-10.9,0.7-23.3,11.5-27.8l145.7-60.3c12.5-5.1,26.7-5.1,39.1,0l181,74.9
				c10.9,4.5,16,16.9,11.5,27.8C708.7,214.2,700.7,219.2,692.4,219.2z"/>
		</g>
		<g>
			<path class="st3" d="M499.8,907.5c-6.7,0-13.3-1.3-19.5-3.8L230.8,800.4c-12.5-5.1-22.6-15.3-27.7-27.8L99.7,523.1
				c0,0,0-0.1-0.1-0.1c-2.6-6.3-3.9-12.9-3.9-19.5s1.3-13.2,3.9-19.5c0-0.1,0-0.1,0.1-0.2l103.4-249.5c5.1-12.5,15.2-22.6,27.8-27.7
				c10.9-4.5,23.3,0.7,27.8,11.6c4.5,10.9-0.7,23.3-11.6,27.8c-2,0.8-3.8,2.6-4.6,4.6L139.1,500c-0.5,1.2-0.7,2.4-0.7,3.5
				s0.2,2.3,0.7,3.5l103.3,249.4c0.9,2.1,2.6,3.8,4.6,4.7l249.6,103.3c2.1,0.8,4.6,0.8,6.7,0L752.9,761c2.1-0.9,3.8-2.6,4.7-4.6
				L860.9,507c0.5-1.2,0.7-2.4,0.7-3.5c0-1.1-0.2-2.3-0.7-3.5l-83.6-201.6c-4.5-10.9,0.7-23.3,11.5-27.8
				c10.9-4.5,23.3,0.7,27.8,11.5l83.6,201.7c0,0.1,0,0.1,0.1,0.2c2.6,6.3,3.9,12.9,3.9,19.5c0,6.6-1.3,13.2-3.9,19.5
				c0,0.1,0,0.1-0.1,0.2L796.8,772.6c-5.1,12.5-15.2,22.6-27.8,27.7L519.4,903.7C513.2,906.2,506.5,907.5,499.8,907.5z"/>
		</g>
		
			<ellipse transform="matrix(0.7071 -0.7071 0.7071 0.7071 66.0957 560.8198)" class="st1" cx="710" cy="200.6" rx="46.5" ry="13.9"/>
		
			<ellipse transform="matrix(6.218502e-02 -0.9981 0.9981 6.218502e-02 442.9742 1065.1924)" class="st1" cx="788.3" cy="296.9" rx="46.5" ry="13.9"/>
		<g>
			<path class="st3" d="M774.1,411.9c-2.8,0-5.6-1-7.8-3.1c-4.5-4.3-4.6-11.4-0.3-15.8c13.6-14.1,23.6-53.2,26.1-102.1
				c2.4-47.6-2.9-94.1-13.6-118.3c-3.9-8.9-8.6-14.5-12.1-14.5c0,0-0.1,0-0.1,0c-22.1,0.6-59.1,39.7-74,56.5
				c-25.7,29-46.1,58.2-46.3,58.5c-3.5,5.1-10.5,6.3-15.6,2.8c-5.1-3.5-6.3-10.5-2.8-15.6c0.9-1.2,21.2-30.5,47.8-60.5
				c37.7-42.5,67.3-63.5,90.3-64.2c9.5-0.3,23,4.4,33.4,27.8c12.2,27.6,18.1,76.8,15.5,128.4c-1.3,26.3-7.1,90.4-32.4,116.5
				C780,410.8,777,411.9,774.1,411.9z"/>
		</g>
		<path class="st1" d="M224.4,231.4c0,25.7,7.7,46.5,17.2,46.5s20.7-25.9,20.7-51.6s-11.1-41.4-20.7-41.4S224.4,205.7,224.4,231.4z"
			/>
		
			<ellipse transform="matrix(0.8055 -0.5926 0.5926 0.8055 -43.6758 232.732)" class="st1" cx="332.7" cy="182.9" rx="13.9" ry="46.5"/>
		<g>
			<path class="st3" d="M254.3,378.7c-2.9,0-5.9-1.1-8.1-3.4c-25.3-26.1-31.1-90.1-32.4-116.4c-2.6-51.6,3.3-100.8,15.4-128.4
				c5.7-13,16.2-28.5,33.5-28c23.3,0.6,53,24,90.7,71.3c26.5,33.2,46.8,65.8,47.7,67.1c3.3,5.3,1.7,12.2-3.6,15.4
				c-5.3,3.3-12.2,1.7-15.4-3.6c-0.2-0.3-20.6-32.9-46.3-65.1c-44.7-56-66.4-62.5-73.7-62.7c-3.6-0.1-8.3,5.5-12.3,14.6
				c-10.7,24.2-16,70.7-13.6,118.2c2.5,48.8,12.5,87.9,26.2,102c4.3,4.4,4.2,11.5-0.3,15.8C259.9,377.7,257.1,378.7,254.3,378.7z"/>
		</g>
	</g>
</g>
</svg>
