<?xml version="1.0" encoding="UTF-8" standalone="no"?>
<svg
   width="25"
   height="24"
   viewBox="0 0 25 24"
   fill="none"
   version="1.1"
   id="svg89"
   sodipodi:docname="erdoge.svg"
   inkscape:version="1.1.1 (c3084ef, 2021-09-22)"
   xmlns:inkscape="http://www.inkscape.org/namespaces/inkscape"
   xmlns:sodipodi="http://sodipodi.sourceforge.net/DTD/sodipodi-0.dtd"
   xmlns="http://www.w3.org/2000/svg"
   xmlns:svg="http://www.w3.org/2000/svg">
  <defs
     id="defs93" />
  <sodipodi:namedview
     id="namedview91"
     pagecolor="#ffffff"
     bordercolor="#666666"
     borderopacity="1.0"
     inkscape:pageshadow="2"
     inkscape:pageopacity="0.0"
     inkscape:pagecheckerboard="0"
     showgrid="false"
     inkscape:zoom="11.333333"
     inkscape:cx="-0.97058826"
     inkscape:cy="11.294118"
     inkscape:window-width="1417"
     inkscape:window-height="766"
     inkscape:window-x="0"
     inkscape:window-y="25"
     inkscape:window-maximized="0"
     inkscape:current-layer="svg89" />
  <g
     id="g256"
     transform="matrix(0.9154752,0,0,0.9154752,1.5064703,1.0142976)">
    <path
       d="m 0.638673,11.9989 c 0,0.1158 0.023765,0.2317 0.068323,0.3416 L 3.7756,19.7521 c 0.08912,0.2168 0.26438,0.3921 0.48123,0.4812 l 7.41157,3.0686 c 0.2169,0.0891 0.4634,0.0891 0.6803,0 l 7.4145,-3.0686 c 0.2169,-0.0891 0.3921,-0.2644 0.4813,-0.4812 l 3.0715,-7.4116 c 0.0446,-0.1099 0.0683,-0.2258 0.0683,-0.3416 0,-0.1159 -0.0237,-0.2317 -0.0683,-0.3416 L 20.2445,4.24569 C 20.1553,4.02884 19.9801,3.85357 19.7632,3.76446 L 12.3516,0.692883 c -0.2168,-0.089117 -0.4634,-0.089117 -0.6802,0 L 4.25683,3.76446 C 4.03998,3.85357 3.86472,4.02884 3.7756,4.24569 L 0.704026,11.6573 C 0.659467,11.7672 0.638673,11.883 0.638673,11.9989 Z"
       fill="#5900ff"
       id="path9" />
    <path
       d="M 4.0281,14.4199 C 3.99245,13.1782 3.55578,10.8017 3.71025,10.267 3.86472,9.73234 4.7143,7.95891 4.7143,7.95891 c 0,0 -1.6962,-5.21633 -0.03565,-7.167996 1.05456,-1.235758 3.00622,2.263576 4.11128,3.582506 0,0 1.88627,-0.36538 3.61817,-0.32973 1.7318,0.03565 3.6657,0.92385 3.6657,0.92385 0,0 2.9022,-4.35189 4.132,-3.55875 1.6249,1.04564 0.9031,5.69756 -0.0564,7.53932 0,1.34569 0.4901,2.92599 -0.6654,4.91629 -1.1556,1.9873 -3.1043,4.5658 -3.1043,4.5658 0,0 -8.10071,0.5258 -8.25815,0.4545 C 7.96411,18.8134 4.0281,14.4199 4.0281,14.4199 Z"
       fill="#ffa100"
       id="path11" />
    <path
       d="M 19.7959,9.13822 C 20.491,11.6484 18.8275,13.3 16.6798,13.3 c -2.1448,0 -2.1745,-3.34784 -4.7232,-3.35675 -0.003,0 -0.003,0 -0.006,0 -0.003,0 -0.003,0 -0.0059,0 C 9.39592,9.95513 9.36919,13.3 7.22146,13.3 5.07374,13.3 3.41022,11.6484 4.10533,9.13822 c 0,0 -0.81988,1.66058 -0.77532,4.16178 0.04159,2.4982 1.28923,7.0937 1.28923,7.0937 l 7.32546,2.5369 v 0.003 l 0.0059,-0.003 0.006,0.003 v -0.003 l 7.8066,-2.6973 c 0,0 0.7664,-4.4321 0.811,-6.9333 0.0416,-2.4983 -0.7783,-4.16178 -0.7783,-4.16178 z"
       fill="#ffffff"
       id="path13" />
    <path
       d="M 4.25683,20.566 C 4.11127,20.566 3.97462,20.468 3.93601,20.3195 1.74075,12.1415 3.76371,8.94514 4.97571,7.03506 L 5.047,6.92218 c 0.09803,-0.15447 0.303,-0.202 0.46044,-0.10397 0.15447,0.09803 0.202,0.303 0.10397,0.46044 L 5.54012,7.39153 C 4.93709,8.34211 4.18851,9.5244 3.83204,11.4761 c -0.19606,1.0694 -0.24953,2.2725 -0.16041,3.5736 0.10694,1.5239 0.41291,3.2379 0.91196,5.0975 0.04753,0.1782 -0.05644,0.3594 -0.23467,0.4069 -0.03565,0.009 -0.06239,0.0119 -0.09209,0.0119 z"
       fill="#241f20"
       id="path15" />
    <path
       d="M 6.44911,10.4215 C 6.44614,10.3502 6.44317,10.2789 6.44317,10.2047 6.44317,9.29567 6.71944,8.54411 7.59873,8.42826 7.52149,8.41935 7.44128,8.41341 7.36108,8.41341 c -0.9892,0 -1.79126,0.80205 -1.79126,1.79129 0,0.2673 0.05941,0.5228 0.16636,0.7515 0.17229,-0.2257 0.41885,-0.4129 0.71293,-0.5347 z"
       fill="#a5660c"
       id="path17" />
    <path
       d="m 15.9401,10.4215 c -0.003,-0.0713 -0.0059,-0.1426 -0.0059,-0.2168 0,-0.90903 0.2762,-1.66059 1.1555,-1.77644 -0.0772,-0.00891 -0.1574,-0.01485 -0.2376,-0.01485 -0.9892,0 -1.7913,0.80205 -1.7913,1.79129 0,0.2673 0.0594,0.5228 0.1664,0.7515 0.1693,-0.2257 0.4188,-0.4129 0.7129,-0.5347 z"
       fill="#a5660c"
       id="path19" />
    <path
       d="m 7.2987,11.9989 c 0.82194,0 1.48825,-0.3884 1.48825,-0.8674 0,-0.4791 -0.66631,-0.8674 -1.48825,-0.8674 -0.82194,0 -1.48826,0.3883 -1.48826,0.8674 0,0.479 0.66632,0.8674 1.48826,0.8674 z"
       fill="#ffffff"
       id="path21" />
    <path
       d="m 16.76,11.9989 c 0.8219,0 1.4882,-0.3884 1.4882,-0.8674 0,-0.4791 -0.6663,-0.8674 -1.4882,-0.8674 -0.822,0 -1.4883,0.3883 -1.4883,0.8674 0,0.479 0.6663,0.8674 1.4883,0.8674 z"
       fill="#ffffff"
       id="path23" />
    <path
       d="m 13.629,14.4793 c 0.8258,0.8258 1.4912,4.4737 -1.3576,4.4737 -2.84874,0 -2.47148,-3.6479 -1.6457,-4.4737 l 1.5596,-0.4099 z"
       fill="#ff5537"
       id="path25" />
    <path
       d="m 7.36108,12.2603 c -1.13179,0 -2.05267,-0.9209 -2.05267,-2.0527 0,-1.13175 0.92088,-2.05263 2.05267,-2.05263 1.13179,0 2.05266,0.92088 2.05266,2.05263 0,1.1318 -0.92087,2.0527 -2.05266,2.0527 z m 0,-3.58251 c -0.84364,0 -1.52985,0.6862 -1.52985,1.52981 0,0.8437 0.68621,1.5299 1.52985,1.5299 0.84364,0 1.52984,-0.6862 1.52984,-1.5299 0,-0.84361 -0.6862,-1.52981 -1.52984,-1.52981 z"
       fill="#241f20"
       id="path27" />
    <path
       d="m 8.9176,11.3038 c -0.14556,0 -0.26141,-0.1159 -0.26141,-0.2614 0,-0.0981 -0.11882,-0.2199 -0.30894,-0.3149 -0.25547,-0.1278 -0.61194,-0.199 -0.98326,-0.199 -0.37132,0 -0.72779,0.0742 -0.98326,0.199 -0.19012,0.095 -0.30894,0.2168 -0.30894,0.3149 0,0.1455 -0.11585,0.2614 -0.26141,0.2614 -0.14556,0 -0.26141,-0.1159 -0.26141,-0.2614 0,-0.5912 0.78126,-1.0368 1.81502,-1.0368 1.03376,0 1.81502,0.4456 1.81502,1.0368 0,0.1455 -0.11585,0.2614 -0.26141,0.2614 z"
       fill="#241f20"
       id="path29" />
    <path
       d="m 7.36102,10.2076 c -0.27032,0 -0.52579,0.0387 -0.7575,0.104 0.02971,0.6684 0.35647,1.1971 0.7575,1.1971 0.40102,0 0.72779,-0.5257 0.75749,-1.1971 -0.2317,-0.0683 -0.48717,-0.104 -0.75749,-0.104 z"
       fill="#241f20"
       id="path31" />
    <path
       d="m 16.7599,12.2603 c -1.1318,0 -2.0527,-0.9209 -2.0527,-2.0527 0,-1.13175 0.9209,-2.05263 2.0527,-2.05263 1.1318,0 2.0527,0.92088 2.0527,2.05263 0,1.1318 -0.9209,2.0527 -2.0527,2.0527 z m 0,-3.58251 c -0.8436,0 -1.5298,0.6862 -1.5298,1.52981 0,0.8437 0.6862,1.5299 1.5298,1.5299 0.8437,0 1.5299,-0.6862 1.5299,-1.5299 0,-0.84361 -0.6862,-1.52981 -1.5299,-1.52981 z"
       fill="#241f20"
       id="path33" />
    <path
       d="m 18.3135,11.3038 c -0.1455,0 -0.2614,-0.1159 -0.2614,-0.2614 0,-0.0981 -0.1188,-0.2199 -0.3089,-0.3149 -0.2555,-0.1278 -0.6119,-0.199 -0.9833,-0.199 -0.3713,0 -0.7278,0.0742 -0.9832,0.199 -0.1901,0.095 -0.309,0.2168 -0.309,0.3149 0,0.1455 -0.1158,0.2614 -0.2614,0.2614 -0.1455,0 -0.2614,-0.1159 -0.2614,-0.2614 0,-0.5912 0.7813,-1.0368 1.815,-1.0368 1.0338,0 1.8151,0.4456 1.8151,1.0368 0,0.1455 -0.1159,0.2614 -0.2615,0.2614 z"
       fill="#241f20"
       id="path35" />
    <path
       d="m 16.7599,10.2076 c -0.2703,0 -0.5258,0.0387 -0.7575,0.104 0.0327,0.6714 0.3595,1.1971 0.7575,1.1971 0.4011,0 0.7278,-0.5257 0.7575,-1.1971 -0.2317,-0.0683 -0.4871,-0.104 -0.7575,-0.104 z"
       fill="#241f20"
       id="path37" />
    <path
       d="m 12.0605,14.1882 -1.2803,0.2317 c -1.12881,0.8258 -2.05266,4.646 1.8507,4.646 0.1841,0 0.2792,-0.4129 0.4456,-0.4278 -3.32708,-0.3149 -2.0913,-3.6657 -1.016,-4.4499 z"
       fill="#dc5537"
       id="path39" />
    <path
       d="M 7.56011,4.97645 C 7.00461,3.4377 5.88768,2.3267 5.32624,2.99508 4.91927,3.47928 4.87768,5.14577 5.32921,6.13795 c 0.13071,0.28814 0.505,0.36241 0.74264,0.15447 z"
       fill="#a5660c"
       id="path41" />
    <path
       d="m 12.0605,13.3 c 0.8302,0 1.5031,-0.5825 1.5031,-1.3011 0,-0.7186 -0.6729,-1.3011 -1.5031,-1.3011 -0.8301,0 -1.5031,0.5825 -1.5031,1.3011 0,0.7186 0.673,1.3011 1.5031,1.3011 z"
       fill="#9e3219"
       id="path43" />
    <path
       d="m 17.4402,6.03694 c 0.5555,-1.53875 1.6725,-2.64975 2.2339,-1.98137 0.407,0.48421 0.4486,2.1507 -0.003,3.14287 -0.1307,0.28814 -0.505,0.36241 -0.7426,0.15447 z"
       fill="#a5660c"
       id="path45" />
    <path
       d="m 17.6125,6.52412 c -0.0891,0 -0.1782,-0.03565 -0.2436,-0.10397 C 16.1748,5.15171 14.1964,4.40016 11.9417,4.3556 9.79101,4.31401 7.79775,4.93783 6.74023,5.9805 6.60952,6.10824 6.39861,6.10824 6.26791,5.97753 6.14017,5.84683 6.14017,5.63592 6.27088,5.50521 7.45019,4.34075 9.62762,3.64563 11.9506,3.69019 c 2.4329,0.04456 4.5836,0.87335 5.8996,2.27249 0.1247,0.13368 0.1188,0.34459 -0.0149,0.46935 -0.0594,0.06238 -0.1396,0.09209 -0.2228,0.09209 z"
       fill="#241f20"
       id="path47" />
    <path
       d="m 19.7632,20.566 c -0.0356,0 -0.0683,-0.0059 -0.1039,-0.0178 -0.1753,-0.0564 -0.2704,-0.2466 -0.2139,-0.4189 0.2079,-0.6357 0.6505,-3.0715 0.7278,-5.8104 0.1128,-4.1707 -0.6744,-6.11938 -1.3517,-7.01946 -0.1099,-0.14556 -0.0831,-0.35647 0.0654,-0.46638 0.1456,-0.10991 0.3565,-0.08318 0.4664,0.06535 0.5911,0.78126 1.0129,1.90414 1.2536,3.34489 0.196,1.1734 0.2762,2.5517 0.2346,4.0934 -0.0772,2.8429 -0.5317,5.3114 -0.7604,6.0006 -0.0476,0.1396 -0.1783,0.2287 -0.3179,0.2287 z"
       fill="#241f20"
       id="path49" />
    <path
       d="m 10.596,14.7318 c -0.6773,0 -1.3843,-0.3386 -2.02891,-0.9832 -0.1218,-0.1218 -0.1218,-0.3179 0,-0.4397 0.12179,-0.1218 0.31785,-0.1218 0.43964,0 0.70403,0.707 1.47337,0.9595 2.11207,0.6981 0.3951,-0.1634 0.6327,-0.4872 0.6327,-0.707 0,-0.1723 0.1397,-0.3089 0.309,-0.3089 0.1723,0 0.3089,0.1396 0.3089,0.3089 0,0.508 -0.4188,1.0338 -1.0159,1.2803 -0.2436,0.101 -0.4961,0.1515 -0.7575,0.1515 z"
       fill="#241f20"
       id="path51" />
    <path
       d="m 13.5249,14.7318 c -0.2584,0 -0.5139,-0.0505 -0.7575,-0.1515 -0.5971,-0.2465 -1.0159,-0.7753 -1.0159,-1.2803 0,-0.1723 0.1396,-0.3089 0.3089,-0.3089 0.1723,0 0.309,0.1396 0.309,0.3089 0,0.2198 0.2376,0.5436 0.6327,0.707 0.6357,0.2644 1.4051,0.0089 2.1121,-0.6981 0.1218,-0.1218 0.3178,-0.1218 0.4396,0 0.1218,0.1218 0.1218,0.3179 0,0.4397 -0.6446,0.6446 -1.3546,0.9832 -2.0289,0.9832 z"
       fill="#241f20"
       id="path53" />
    <path
       d="m 12.0605,13.6089 c -1.0011,0 -1.8121,-0.7218 -1.8121,-1.61 0,-0.8882 0.814,-1.6101 1.8121,-1.6101 0.9981,0 1.812,0.7219 1.812,1.6101 0,0.8882 -0.8109,1.61 -1.812,1.61 z m 0,-2.6022 c -0.6565,0 -1.1942,0.4456 -1.1942,0.9922 0,0.5466 0.5347,0.9922 1.1942,0.9922 0.6565,0 1.1942,-0.4456 1.1942,-0.9922 0,-0.5466 -0.5377,-0.9922 -1.1942,-0.9922 z"
       fill="#241f20"
       id="path55" />
    <path
       d="m 11.401,13.3059 c -0.2673,0 -0.7308,-0.1217 -1.0783,-0.8614 -0.0743,-0.1545 -0.006,-0.3387 0.1485,-0.4129 0.1545,-0.0743 0.3387,-0.006 0.4129,0.1485 0.1604,0.3386 0.3684,0.5317 0.5496,0.505 0.1069,-0.0149 0.196,-0.1069 0.2139,-0.2169 0.0237,-0.1515 -0.0921,-0.303 -0.3209,-0.4129 -0.1544,-0.0742 -0.2168,-0.2614 -0.1425,-0.4158 0.0742,-0.1545 0.2614,-0.2169 0.4158,-0.1426 0.4813,0.2376 0.7278,0.6357 0.6595,1.0694 -0.0594,0.3802 -0.3624,0.6802 -0.7367,0.7337 -0.0356,0.003 -0.0772,0.0059 -0.1218,0.0059 z"
       fill="#241f20"
       id="path57" />
    <path
       d="m 12.717,13.3059 c -0.0446,0 -0.0862,-0.0029 -0.1188,-0.0089 -0.3743,-0.0534 -0.6773,-0.3564 -0.7368,-0.7337 -0.0683,-0.4307 0.1783,-0.8318 0.6595,-1.0694 0.1545,-0.0743 0.3387,-0.0119 0.4159,0.1426 0.0743,0.1544 0.0119,0.3386 -0.1426,0.4159 -0.2287,0.1128 -0.3446,0.2614 -0.3208,0.4129 0.0178,0.1099 0.1069,0.202 0.2139,0.2168 0.1782,0.0268 0.3891,-0.1663 0.5495,-0.505 0.0743,-0.1544 0.2585,-0.2198 0.4129,-0.1485 0.1545,0.0743 0.2199,0.2584 0.1486,0.4129 -0.3506,0.7426 -0.814,0.8644 -1.0813,0.8644 z"
       fill="#241f20"
       id="path59" />
    <path
       d="m 12.206,19.2025 c -1.0991,0 -1.916,-0.5168 -2.30513,-1.4555 -0.23764,-0.5704 -0.30894,-1.2833 -0.202,-2.0052 0.09803,-0.6624 0.33563,-1.2387 0.63863,-1.5417 0.1218,-0.1218 0.3179,-0.1218 0.4397,0 0.1218,0.1218 0.1218,0.3178 0,0.4396 -0.205,0.205 -0.3862,0.6744 -0.4634,1.1942 -0.0921,0.6119 -0.0327,1.209 0.1604,1.6784 0.2941,0.7129 0.8763,1.0724 1.7318,1.0724 0.7932,0 1.3279,-0.3149 1.5863,-0.9358 0.1901,-0.4604 0.2258,-1.0753 0.101,-1.7259 -0.1218,-0.6297 -0.3624,-1.0961 -0.5466,-1.2803 -0.1218,-0.1218 -0.1218,-0.3178 0,-0.4396 0.1218,-0.1218 0.3179,-0.1218 0.4397,0 0.6,0.6 1.108,2.4121 0.5822,3.6835 -0.2525,0.6 -0.8317,1.3159 -2.1626,1.3159 z"
       fill="#241f20"
       id="path61" />
    <path
       d="m 12.206,17.4083 c -0.1782,0 -0.3267,-0.1396 -0.3327,-0.3208 l -0.1455,-3.7756 c -0.006,-0.1842 0.1366,-0.3387 0.3208,-0.3446 0.1842,-0.0089 0.3386,0.1366 0.3446,0.3208 l 0.1455,3.7756 c 0.006,0.1842 -0.1366,0.3387 -0.3208,0.3446 -0.003,0 -0.0089,0 -0.0119,0 z"
       fill="#241f20"
       id="path63" />
    <path
       d="M 7.56011,5.30916 C 7.42346,5.30916 7.29573,5.22598 7.2482,5.08933 7.0462,4.53384 6.71944,3.97834 6.34811,3.56543 5.96194,3.13767 5.71538,3.06637 5.66191,3.07231 5.65597,3.07826 5.64706,3.09311 5.63815,3.11687 5.56982,3.28917 5.37674,3.37234 5.20741,3.30402 5.03512,3.2357 4.95195,3.04261 5.02027,2.87329 5.13909,2.57326 5.37674,2.40394 5.67676,2.40691 c 0.25547,0.00297 0.6773,0.14258 1.23279,0.7872 0.404,0.46935 0.74859,1.06346 0.96841,1.66946 0.06238,0.17229 -0.02674,0.36241 -0.19903,0.42479 -0.04456,0.01486 -0.0802,0.0208 -0.11882,0.0208 z"
       fill="#241f20"
       id="path65" />
    <path
       d="m 17.4402,6.19439 c -0.0386,0 -0.0742,-0.00594 -0.1129,-0.02079 -0.1722,-0.06239 -0.2614,-0.2525 -0.199,-0.4248 0.205,-0.56737 0.5407,-1.14961 0.9209,-1.59816 0.3238,-0.38024 0.8169,-0.82582 1.3397,-0.77532 0.3416,0.03267 0.7783,0.27923 0.9358,1.26843 0.0297,0.18121 -0.0951,0.3535 -0.2763,0.38023 C 19.8672,5.05369 19.6949,4.92893 19.6682,4.74772 19.5998,4.32293 19.4691,4.05261 19.3265,4.03775 19.1958,4.02587 18.9136,4.15955 18.5572,4.58137 18.2304,4.96754 17.9304,5.48739 17.7551,5.97457 17.7046,6.11121 17.5769,6.19439 17.4402,6.19439 Z"
       fill="#241f20"
       id="path67" />
    <path
       d="m 8.66516,7.61729 c 0.6103,0 1.10505,-0.39234 1.10505,-0.87632 0,-0.48397 -0.49475,-0.87632 -1.10505,-0.87632 -0.6103,0 -1.10505,0.39235 -1.10505,0.87632 0,0.48398 0.49475,0.87632 1.10505,0.87632 z"
       fill="#ffffff"
       id="path69" />
    <path
       d="m 15.3341,7.61729 c 0.6104,0 1.1051,-0.39234 1.1051,-0.87632 0,-0.48397 -0.4947,-0.87632 -1.1051,-0.87632 -0.6103,0 -1.105,0.39235 -1.105,0.87632 0,0.48398 0.4947,0.87632 1.105,0.87632 z"
       fill="#ffffff"
       id="path71" />
    <path
       d="m 17.7254,3.55355 c -0.0802,0 -0.1634,-0.01486 -0.2406,-0.04753 L 12.111,1.28106 c -0.0624,-0.02377 -0.1366,-0.02377 -0.199,0 L 7.58387,3.07231 C 7.26008,3.20599 6.89173,3.05152 6.75805,2.7307 6.62438,2.40691 6.77885,2.03856 7.09967,1.90488 L 11.4278,0.113624 c 0.3713,-0.1514988 0.7931,-0.1514988 1.1615,0 L 17.966,2.33858 c 0.3238,0.13368 0.4753,0.50203 0.3416,0.82582 -0.098,0.24062 -0.3356,0.38915 -0.5822,0.38915 z"
       fill="#241f20"
       id="path73" />
    <path
       d="m 12.0041,24 c -0.199,0 -0.3951,-0.0386 -0.5793,-0.1129 L 4.01324,20.8185 C 3.64192,20.667 3.34189,20.364 3.1904,19.9927 L 0.118823,12.5811 c 0,0 0,-0.003 -0.002971,-0.003 C 0.0386175,12.391 0,12.1949 0,11.9989 c 0,-0.1961 0.0386175,-0.3921 0.115852,-0.5793 0,-0.0029 0,-0.0029 0.002971,-0.0059 L 3.1904,4.0021 C 3.34189,3.63078 3.64192,3.33075 4.01621,3.17925 4.34001,3.04558 4.70836,3.20005 4.84203,3.52384 4.97571,3.84763 4.82124,4.21598 4.49745,4.34966 4.43804,4.37342 4.38457,4.42689 4.3608,4.48631 L 1.28923,11.8949 c -0.01485,0.0357 -0.0208,0.0713 -0.0208,0.104 0,0.0327 0.00595,0.0683 0.0208,0.104 l 3.0686,7.4086 c 0.02674,0.0623 0.07724,0.1128 0.13665,0.1396 l 7.41452,3.0686 c 0.0624,0.0237 0.1367,0.0237 0.1991,0 l 7.4145,-3.0716 c 0.0624,-0.0267 0.1129,-0.0772 0.1396,-0.1366 l 3.0686,-7.4086 c 0.0149,-0.0357 0.0208,-0.0713 0.0208,-0.104 0,-0.0327 -0.0059,-0.0683 -0.0208,-0.104 L 20.2474,5.90624 C 20.1137,5.58245 20.2682,5.2141 20.589,5.08042 c 0.3238,-0.13368 0.6922,0.02079 0.8259,0.34162 l 2.4834,5.99166 c 0,0.003 0,0.003 0.0029,0.0059 0.0773,0.1872 0.1159,0.3832 0.1159,0.5793 0,0.196 -0.0386,0.3921 -0.1159,0.5792 0,0.003 0,0.003 -0.0029,0.006 l -3.0716,7.4086 c -0.1515,0.3713 -0.4515,0.6713 -0.8258,0.8228 l -7.4146,3.0716 C 12.4021,23.9614 12.2031,24 12.0041,24 Z"
       fill="#241f20"
       id="path75" />
    <path
       d="m 18.5396,3.29368 c 0.5395,-0.53943 0.846,-1.10745 0.6848,-1.2687 -0.1613,-0.16125 -0.7293,0.14533 -1.2687,0.68476 -0.5394,0.53943 -0.846,1.10745 -0.6848,1.2687 0.1613,0.16125 0.7293,-0.14533 1.2687,-0.68476 z"
       fill="#ffa100"
       id="path77" />
    <path
       d="M 20.9872,5.88596 C 21.0347,5.12453 20.8886,4.49578 20.661,4.4816 20.4334,4.46741 20.2104,5.07318 20.163,5.83461 c -0.0475,0.76143 0.0986,1.39019 0.3262,1.40437 0.2276,0.01418 0.4506,-0.59159 0.498,-1.35302 z"
       fill="#ffa100"
       id="path79" />
    <path
       d="m 20.1524,9.27784 c -0.0832,0 -0.1664,-0.02971 -0.2317,-0.09209 C 19.787,9.05802 19.784,8.84711 19.9118,8.7164 20.3157,8.29755 20.6128,7.13606 20.6871,5.68345 20.7584,4.26945 20.6009,2.88814 20.2831,2.16926 20.1672,1.90488 20.0276,1.73853 19.9236,1.73853 H 19.9207 C 19.2642,1.75635 18.1651,2.91784 17.7224,3.4169 16.959,4.27837 16.353,5.14577 16.3471,5.15468 16.2431,5.30618 16.0352,5.34183 15.8837,5.23786 15.7322,5.13389 15.6965,4.92595 15.8005,4.77445 c 0.0267,-0.03565 0.6297,-0.90602 1.4199,-1.7972 1.1199,-1.26249 1.9992,-1.88631 2.6824,-1.9071 0.2822,-0.00892 0.6833,0.1307 0.9922,0.82582 0.3624,0.81987 0.5377,2.2814 0.4604,3.81421 -0.0386,0.78126 -0.2109,2.6854 -0.9624,3.46072 -0.0654,0.07426 -0.1545,0.10694 -0.2406,0.10694 z"
       fill="#241f20"
       id="path81" />
    <path
       d="m 3.82313,3.91595 c 0,0.76344 0.22873,1.38132 0.51093,1.38132 0.28221,0 0.61491,-0.76938 0.61491,-1.53282 0,-0.76343 -0.32973,-1.22981 -0.61491,-1.22981 -0.28517,0 -0.51093,0.61788 -0.51093,1.38131 z"
       fill="#ffa100"
       id="path83" />
    <path
       d="M 7.85884,3.58788 C 8.04253,3.45274 7.82496,2.84504 7.37287,2.23054 6.92079,1.61604 6.4054,1.22744 6.22171,1.36258 6.03802,1.49772 6.25559,2.10542 6.70767,2.71992 c 0.45209,0.6145 0.96748,1.0031 1.15117,0.86796 z"
       fill="#ffa100"
       id="path85" />
    <path
       d="m 4.71133,8.29161 c -0.08615,0 -0.17527,-0.03267 -0.24062,-0.101 C 3.71916,7.41529 3.54686,5.51413 3.50825,4.73287 3.43101,3.20005 3.60627,1.73853 3.96571,0.918651 4.13504,0.532476 4.44695,0.0720376 4.96086,0.0868905 5.653,0.104714 6.53526,0.799828 7.65516,2.20491 8.44237,3.19114 9.04539,4.15955 9.07213,4.19816 9.17016,4.3556 9.12263,4.56057 8.96519,4.65563 8.80775,4.75366 8.60278,4.70613 8.50772,4.54869 8.50178,4.53978 7.89578,3.57137 7.13234,2.61485 5.8045,0.951327 5.15988,0.75824 4.94303,0.752299 4.83609,0.749328 4.69647,0.91568 4.57765,1.186 4.2598,1.90488 4.10236,3.2862 4.17365,4.69722 4.24792,6.14686 4.54497,7.30835 4.95194,7.7272 5.07968,7.85791 5.07671,8.06882 4.94303,8.19655 4.87768,8.26191 4.7945,8.29161 4.71133,8.29161 Z"
       fill="#241f20"
       id="path87" />
  </g>
</svg>
