<?xml version="1.0" encoding="UTF-8" standalone="no"?>
<!DOCTYPE svg PUBLIC "-//W3C//DTD SVG 1.1//EN" "http://www.w3.org/Graphics/SVG/1.1/DTD/svg11.dtd">
<svg width="100%" height="100%" viewBox="0 0 460 460" version="1.1" xmlns="http://www.w3.org/2000/svg" xmlns:xlink="http://www.w3.org/1999/xlink" xml:space="preserve" xmlns:serif="http://www.serif.com/" style="fill-rule:evenodd;clip-rule:evenodd;stroke-linejoin:round;stroke-miterlimit:2;">
    <g transform="matrix(1,0,0,1,-20,-20)">
        <path d="M250,20.6C123.3,20.6 20.6,123.3 20.6,250C20.6,376.7 123.3,479.4 250,479.4C376.7,479.4 479.4,376.7 479.4,250C479.4,123.3 376.7,20.6 250,20.6ZM341,365.1C340.8,367 339.2,368.4 337.4,368.4L155.6,368.4C153.6,368.4 151.9,366.8 151.9,364.7L151.9,364C151.9,363.1 152.2,362.2 152.8,361.6L245.3,258.7C246.5,257.4 246.6,255.4 245.5,254L155.4,138.6C154.9,138 154.6,137.2 154.6,136.3L154.6,135.3C154.6,133.3 156.2,131.6 158.3,131.6L329.7,131.6C331.7,131.6 333.4,133.2 333.4,135.3L333.4,190.9C333.4,192.9 331.8,194.6 329.7,194.6L324.3,194.6C322.6,194.6 321.2,193.5 320.8,191.8C318.2,181.7 313.7,172.2 307.4,163.2C300.4,153.4 293.2,147.9 285.8,146.7C282.5,146.2 277.7,145.7 271.5,145.5C265.3,145.2 260.3,145.1 256.4,145.1L212.2,145.1C209.1,145.1 207.4,148.6 209.3,151L278.3,239.4C278.8,240 279.1,240.8 279.1,241.7C279.1,242.6 278.8,243.5 278.2,244.2L197.8,333.2C195.7,335.6 197.3,339.3 200.5,339.3L301.3,339.3C306.3,339.3 310.8,337.8 314.7,334.8C318.6,331.8 321.9,328 324.7,323.3C327.3,319.1 329.5,314.4 331.5,309.2C333.1,305 334.6,301 336,297.2C336.5,295.7 337.9,294.8 339.4,294.8L344.4,294.8C346.6,294.8 348.3,296.7 348,298.9L341,365.1Z" style="fill:url(#_Linear1);fill-rule:nonzero;"/>
    </g>
    <defs>
        <linearGradient id="_Linear1" x1="0" y1="0" x2="1" y2="0" gradientUnits="userSpaceOnUse" gradientTransform="matrix(458.804,0,0,458.804,20.5978,250)"><stop offset="0" style="stop-color:rgb(193,1,254);stop-opacity:1"/><stop offset="1" style="stop-color:rgb(42,195,169);stop-opacity:1"/></linearGradient>
    </defs>
</svg>
