<?xml version="1.0" encoding="utf-8"?>
<!-- Generator: Adobe Illustrator 26.1.0, SVG Export Plug-In . SVG Version: 6.00 Build 0)  -->
<svg version="1.1" id="Calque_1" xmlns="http://www.w3.org/2000/svg" xmlns:xlink="http://www.w3.org/1999/xlink" x="0px" y="0px"
	 viewBox="0 0 500 500" style="enable-background:new 0 0 500 500;" xml:space="preserve">
<style type="text/css">
	.st0{fill:url(#SVGID_1_);}
</style>
<linearGradient id="SVGID_1_" gradientUnits="userSpaceOnUse" x1="20.5978" y1="250" x2="479.4022" y2="250">
	<stop  offset="0" style="stop-color:#C101FE"/>
	<stop  offset="1" style="stop-color:#2AC3A9"/>
</linearGradient>
<path class="st0" d="M250,20.6C123.3,20.6,20.6,123.3,20.6,250S123.3,479.4,250,479.4S479.4,376.7,479.4,250S376.7,20.6,250,20.6z
	 M341,365.1c-0.2,1.9-1.8,3.3-3.6,3.3H155.6c-2,0-3.7-1.6-3.7-3.7V364c0-0.9,0.3-1.8,0.9-2.4l92.5-102.9c1.2-1.3,1.3-3.3,0.2-4.7
	l-90.1-115.4c-0.5-0.6-0.8-1.4-0.8-2.3v-1c0-2,1.6-3.7,3.7-3.7h171.4c2,0,3.7,1.6,3.7,3.7v55.6c0,2-1.6,3.7-3.7,3.7h-5.4
	c-1.7,0-3.1-1.1-3.5-2.8c-2.6-10.1-7.1-19.6-13.4-28.6c-7-9.8-14.2-15.3-21.6-16.5c-3.3-0.5-8.1-1-14.3-1.2
	c-6.2-0.3-11.2-0.4-15.1-0.4h-44.2c-3.1,0-4.8,3.5-2.9,5.9l69,88.4c0.5,0.6,0.8,1.4,0.8,2.3c0,0.9-0.3,1.8-0.9,2.5l-80.4,89
	c-2.1,2.4-0.5,6.1,2.7,6.1h100.8c5,0,9.5-1.5,13.4-4.5c3.9-3,7.2-6.8,10-11.5c2.6-4.2,4.8-8.9,6.8-14.1c1.6-4.2,3.1-8.2,4.5-12
	c0.5-1.5,1.9-2.4,3.4-2.4h5c2.2,0,3.9,1.9,3.6,4.1L341,365.1z"/>
</svg>
