<?xml version="1.0" encoding="UTF-8" standalone="no"?>
<!-- Generator: Adobe Illustrator 26.1.0, SVG Export Plug-In . SVG Version: 6.00 Build 0)  -->

<svg
   version="1.1"
   id="Calque_1"
   x="0px"
   y="0px"
   viewBox="0 0 500 500"
   style="enable-background:new 0 0 500 500;"
   xml:space="preserve"
   sodipodi:docname="ergone.svg"
   inkscape:version="1.1.1 (c3084ef, 2021-09-22)"
   xmlns:inkscape="http://www.inkscape.org/namespaces/inkscape"
   xmlns:sodipodi="http://sodipodi.sourceforge.net/DTD/sodipodi-0.dtd"
   xmlns="http://www.w3.org/2000/svg"
   xmlns:svg="http://www.w3.org/2000/svg"><defs
   id="defs21" /><sodipodi:namedview
   id="namedview19"
   pagecolor="#ffffff"
   bordercolor="#666666"
   borderopacity="1.0"
   inkscape:pageshadow="2"
   inkscape:pageopacity="0.0"
   inkscape:pagecheckerboard="0"
   showgrid="false"
   inkscape:zoom="1.088"
   inkscape:cx="249.54044"
   inkscape:cy="250"
   inkscape:window-width="1312"
   inkscape:window-height="766"
   inkscape:window-x="0"
   inkscape:window-y="25"
   inkscape:window-maximized="0"
   inkscape:current-layer="Calque_1" />
<style
   type="text/css"
   id="style9">
	.st0{fill:url(#SVGID_1_);}
</style>
<linearGradient
   id="SVGID_1_"
   gradientUnits="userSpaceOnUse"
   x1="20.5978"
   y1="250"
   x2="479.4022"
   y2="250"
   gradientTransform="matrix(1.084139,0,0,1.084139,-20.115616,-20.115616)">
	<stop
   offset="0"
   style="stop-color:#C101FE"
   id="stop11" />
	<stop
   offset="1"
   style="stop-color:#2AC3A9"
   id="stop13" />
</linearGradient>
<path
   class="st0"
   d="m 250.91911,2.2176471 c -137.3604,0 -248.7014629,111.3410629 -248.7014629,248.7014629 0,137.36041 111.3410629,248.70148 248.7014629,248.70148 137.36041,0 248.70148,-111.34107 248.70148,-248.70148 0,-137.3604 -111.34107,-248.7014629 -248.70148,-248.7014629 z M 349.57576,375.70351 c -0.21683,2.05986 -1.95145,3.57766 -3.9029,3.57766 H 148.5764 c -2.16827,0 -4.01132,-1.73463 -4.01132,-4.01132 v -0.75889 c 0,-0.97573 0.32525,-1.95145 0.97573,-2.60193 l 100.28285,-111.5579 c 1.30097,-1.40939 1.40939,-3.57766 0.21684,-5.09545 L 148.35958,130.14604 c -0.54208,-0.65049 -0.86732,-1.51779 -0.86732,-2.49352 v -1.08413 c 0,-2.16829 1.73463,-4.01132 4.01132,-4.01132 h 185.82141 c 2.16828,0 4.01131,1.73462 4.01131,4.01132 v 60.27811 c 0,2.16829 -1.73461,4.01132 -4.01131,4.01132 h -5.85435 c -1.84303,0 -3.36083,-1.19255 -3.79448,-3.03559 -2.81876,-10.94981 -7.69739,-21.24912 -14.52747,-31.00637 -7.58897,-10.62457 -15.39477,-16.58733 -23.4174,-17.88829 -3.57766,-0.54207 -8.78152,-1.08415 -15.50318,-1.30097 -6.72166,-0.32524 -12.14237,-0.43366 -16.3705,-0.43366 h -47.91895 c -3.36082,0 -5.20386,3.7945 -3.144,6.39642 l 74.80559,95.83788 c 0.54207,0.65049 0.86731,1.51779 0.86731,2.49352 0,0.97573 -0.32524,1.95145 -0.97572,2.71035 l -87.16477,96.48837 c -2.2767,2.60193 -0.54207,6.61324 2.92717,6.61324 h 109.28121 c 5.42069,0 10.29932,-1.62621 14.52745,-4.87862 4.22815,-3.25241 7.80581,-7.37215 10.8414,-12.4676 2.81876,-4.55339 5.20386,-9.64884 7.37215,-15.28636 1.73461,-4.55338 3.36082,-8.88993 4.87861,-13.00966 0.54208,-1.62621 2.05987,-2.60194 3.68608,-2.60194 h 5.42069 c 2.3851,0 4.22815,2.05986 3.90291,4.44497 z"
   id="path16"
   style="fill:url(#SVGID_1_);stroke-width:1.08414" />
</svg>
