<svg width="457" height="456" viewBox="0 0 457 456" fill="none" xmlns="http://www.w3.org/2000/svg">
<path d="M228.21 455.6C354.02 455.6 456.01 353.61 456.01 227.8C456.01 101.99 354.02 0 228.21 0C102.399 0 0.410034 101.99 0.410034 227.8C0.410034 353.61 102.399 455.6 228.21 455.6Z" fill="#4C61DF"/>
<path d="M392.67 259.99C388.68 256.33 383.31 256.53 379.32 259.99C377.31 261.73 375.26 263.41 373.17 265.05C362.34 273.27 350.51 280.1 338.03 285.49C324.51 291.06 310.33 294.92 295.85 296.98C281.73 298.75 267.44 298.8 253.32 297.02C235.78 294.46 218.97 288.8 202.5 282.37C215.88 276.38 228.89 269.59 241.54 262.14C248.69 257.93 255.73 253.51 262.66 248.94C274.56 250.8 286.7 251.33 298.68 250.43C307.53 249.76 316.37 248.44 325.01 246.43C332.51 244.69 339.85 242.48 346.83 239.19C355.77 234.99 364.6 228.04 368.7 218.8C370.64 214.43 371.93 209.86 371.74 205.03C371.57 200.46 370.41 196.13 368.24 192.11C364.31 184.82 356.61 179.33 348.47 177.85C337.9 175.92 327.38 178.7 318.32 184.33C313.94 187.05 310.01 190.45 305.99 193.66C302.64 196.34 299.28 199.01 295.91 201.66C294.48 202.78 293.04 203.9 291.6 205.02C280.82 213.33 269.83 221.36 258.57 228.99C247.82 226.65 237.4 223.14 227.19 218.92C218.53 215.23 210.05 211.13 201.68 206.81C213.67 202.15 225.37 196.73 236.81 190.89C253.26 182.5 269.24 173.19 285 163.57C289.12 161.06 293.21 158.52 297.31 155.97C301.5 153.36 303.52 147.42 300.7 143.05C297.99 138.85 292.27 136.87 287.78 139.66C265.77 153.38 243.46 166.76 220.13 178.15C214.42 180.94 208.65 183.59 202.81 186.08C195.13 189.28 187.31 192.19 179.36 194.68C179.18 194.58 179 194.48 178.83 194.38C170.77 189.84 162.77 185.21 154.74 180.62C147.08 176.24 139.45 171.7 131.59 167.69C126.28 164.98 120.61 162.63 114.74 161.44C109.04 160.28 103.65 160.07 97.92 160.94C89.84 162.16 81.93 167.05 77.93 174.31C73.58 182.19 74 191.37 78.07 199.26C82.72 208.28 91.91 213.93 101.11 217.37C107.09 219.6 113.42 220.65 119.75 221.31C126.91 222.06 134.17 221.93 141.35 221.38C153.45 220.45 165.4 218.25 177.09 215.05C185.01 219.42 193 223.67 201.12 227.65C212.76 233.35 224.74 238.75 237.11 242.8C229.53 247.39 221.83 251.78 213.99 255.9C205.53 260.34 196.89 264.46 188.1 268.22C184.65 269.65 181.18 271.04 177.68 272.34C166.62 267.8 155.54 263.28 144.3 259.2C133.88 255.42 123.32 251.99 112.61 249.12C107.81 247.83 103.09 246.71 98.13 246.24C94.41 245.89 90.81 246.21 87.12 246.77C75.54 248.54 64.35 257.17 61.7 268.93C60.28 275.25 61.12 281.48 64.02 287.25C66.78 292.74 71.91 297.26 77.32 300.03C84.85 303.89 93.1899 305.46 101.59 305.79C111.84 306.19 122.15 305.13 132.28 303.72C147.65 301.58 162.73 297.65 177.37 292.5C189.15 297.36 200.95 302.19 213 306.34C231.79 312.81 251.24 316.86 271.16 317.24C291.57 317.63 312.27 314.46 331.64 308C351.78 301.29 370.41 291.21 387.05 278.05C388.97 276.53 390.85 274.97 392.7 273.37C396.45 270.12 396.27 263.3 392.7 260.02L392.67 259.99ZM318.94 207.34C320.67 205.96 322.39 204.57 324.12 203.2C326.83 201.19 329.7 199.41 332.76 197.98C334.87 197.16 337.05 196.53 339.28 196.13C340.74 196.01 342.2 196 343.67 196.13C344.77 196.35 345.85 196.64 346.91 197.02C347.72 197.43 348.5 197.88 349.25 198.39C349.86 198.93 350.43 199.5 350.97 200.1C351.41 200.75 351.8 201.43 352.16 202.13C352.43 202.9 352.64 203.69 352.81 204.5C352.87 205.37 352.87 206.24 352.81 207.1C352.6 208.14 352.32 209.16 351.97 210.16C351.37 211.4 350.66 212.59 349.87 213.72C348.48 215.38 346.92 216.89 345.24 218.27C342.49 220.24 339.52 221.89 336.44 223.29C327 227.12 316.72 229.3 306.64 230.74C300.12 231.56 293.56 231.98 287 231.97C297.84 224.02 308.45 215.75 318.95 207.35L318.94 207.34ZM118.22 202.22C113.88 201.54 109.61 200.49 105.51 198.91C103.17 197.85 100.93 196.59 98.8399 195.1C97.7199 194.15 96.6799 193.12 95.7199 192C95.1699 191.19 94.6599 190.34 94.2199 189.47C93.9799 188.78 93.79 188.09 93.64 187.38C93.61 186.81 93.61 186.24 93.64 185.68C93.75 185.17 93.89 184.67 94.05 184.18C94.29 183.72 94.5499 183.27 94.8399 182.84C95.2499 182.38 95.69 181.95 96.15 181.54C96.82 181.1 97.5099 180.7 98.2299 180.34C99.4099 179.92 100.62 179.59 101.85 179.35C104.02 179.15 106.19 179.19 108.36 179.42C111.83 180.02 115.2 181.04 118.47 182.33C124.4 184.95 130.01 188.33 135.65 191.51C141.3 194.7 146.93 197.93 152.55 201.16C151.4 201.35 150.24 201.53 149.08 201.69C138.89 202.99 128.45 203.48 118.23 202.23L118.22 202.22ZM127.6 285.42C122.2 286.11 116.78 286.59 111.34 286.8C106.43 286.99 101.51 287.04 96.62 286.49C93.68 286.01 90.78 285.3 88 284.25C86.43 283.52 84.92 282.67 83.5 281.67C82.77 281.03 82.08 280.35 81.44 279.62C81.04 279.02 80.6699 278.39 80.3399 277.75C80.1399 277.16 79.9799 276.55 79.8499 275.94C79.8199 275.34 79.8199 274.73 79.8499 274.13C79.9999 273.45 80.18 272.79 80.4 272.13C80.75 271.44 81.1499 270.78 81.5799 270.13C82.1899 269.44 82.84 268.78 83.54 268.18C84.51 267.51 85.5399 266.91 86.5999 266.39C88.1299 265.83 89.69 265.4 91.29 265.11C93.74 264.88 96.19 264.92 98.64 265.18C102.76 265.88 106.8 267.08 110.81 268.2C116.27 269.72 121.7 271.39 127.09 273.17C134.57 275.64 141.97 278.34 149.33 281.17C146.4 281.9 143.45 282.59 140.49 283.2C136.22 284.08 131.93 284.82 127.62 285.43L127.6 285.42Z" fill="white"/>
</svg>
