<?xml version="1.0" encoding="UTF-8" standalone="no"?>
<svg
   version="1.1"
   id="svg2"
   xml:space="preserve"
   width="500"
   height="500"
   viewBox="0 0 500 500"
   sodipodi:docname="getblock.svg"
   inkscape:version="1.1.1 (c3084ef, 2021-09-22)"
   xmlns:inkscape="http://www.inkscape.org/namespaces/inkscape"
   xmlns:sodipodi="http://sodipodi.sourceforge.net/DTD/sodipodi-0.dtd"
   xmlns="http://www.w3.org/2000/svg"
   xmlns:svg="http://www.w3.org/2000/svg"
   xmlns:rdf="http://www.w3.org/1999/02/22-rdf-syntax-ns#"
   xmlns:cc="http://creativecommons.org/ns#"
   xmlns:dc="http://purl.org/dc/elements/1.1/"><metadata
     id="metadata8"><rdf:RDF><cc:Work
         rdf:about=""><dc:format>image/svg+xml</dc:format><dc:type
           rdf:resource="http://purl.org/dc/dcmitype/StillImage" /></cc:Work></rdf:RDF></metadata><defs
     id="defs6"><clipPath
       clipPathUnits="userSpaceOnUse"
       id="clipPath20"><path
         d="m 1493.7,1245.3 181.86,104.34 181.3,-105.36 -0.56,-209.58 -181.86,-104.341 -181.3,105.361 z m 183.89,845.09 -318.03,-181.53 V 957.969 l 314.43,-183.778 317.3,182.09 1.01,365.749 -316.29,183.78 -182.99,-105.01 v 135.55 l 183.33,105.13 433.59,-251.95 -1.35,-501.421 L 1673.65,638.52 1238.26,890.469 V 1112 v 0 433.48 l -131.84,-75.16 -1.8,-657.48 568.58,-330.488 570.38,327.328 1.8,657.48 -568.58,330.49 -183.78,-105.47 v 136.46 l 184.12,105.69 686.89,-399.11 -2.25,-794.271 -688.92,-395.277 -686.891,399.109 2.254,794.269 250.037,142.88 v 155.84 l -385.026,-220.29 -2.593,-950.449 821.769,-477.422 824.36,472.911 2.59,950.34 z"
         id="path18" /></clipPath><linearGradient
       x1="0"
       y1="0"
       x2="1"
       y2="0"
       gradientUnits="userSpaceOnUse"
       gradientTransform="matrix(1648.72,0,0,-1648.72,850.642,1140)"
       spreadMethod="pad"
       id="linearGradient26"><stop
         style="stop-opacity:1;stop-color:#ec1d27"
         offset="0"
         id="stop22" /><stop
         style="stop-opacity:1;stop-color:#f14621"
         offset="1"
         id="stop24" /></linearGradient></defs><sodipodi:namedview
     pagecolor="#ffffff"
     bordercolor="#666666"
     borderopacity="1"
     objecttolerance="10"
     gridtolerance="10"
     guidetolerance="10"
     inkscape:pageopacity="0"
     inkscape:pageshadow="2"
     inkscape:window-width="1420"
     inkscape:window-height="756"
     id="namedview4"
     inkscape:pagecheckerboard="0"
     showgrid="false"
     width="446.66666px"
     inkscape:snap-midpoints="false"
     inkscape:snap-bbox="false"
     inkscape:zoom="0.63267449"
     inkscape:cx="56.111003"
     inkscape:cy="262.37821"
     inkscape:window-x="0"
     inkscape:window-y="25"
     inkscape:window-maximized="0"
     inkscape:current-layer="g10" /><g
     id="g10"
     inkscape:groupmode="layer"
     inkscape:label="ink_ext_XXXXXX"
     transform="matrix(1.3333333,0,0,-1.3333333,0,304)"><g
       id="g12"
       transform="matrix(0.19310844,0,0,0.19310844,-135.95673,-179.64352)"><g
         id="g14"><g
           id="g16"
           clip-path="url(#clipPath20)"><path
             d="m 1493.7,1245.3 181.86,104.34 181.3,-105.36 -0.56,-209.58 -181.86,-104.341 -181.3,105.361 z m 183.89,845.09 -318.03,-181.53 V 957.969 l 314.43,-183.778 317.3,182.09 1.01,365.749 -316.29,183.78 -182.99,-105.01 v 135.55 l 183.33,105.13 433.59,-251.95 -1.35,-501.421 L 1673.65,638.52 1238.26,890.469 V 1112 v 0 433.48 l -131.84,-75.16 -1.8,-657.48 568.58,-330.488 570.38,327.328 1.8,657.48 -568.58,330.49 -183.78,-105.47 v 136.46 l 184.12,105.69 686.89,-399.11 -2.25,-794.271 -688.92,-395.277 -686.891,399.109 2.254,794.269 250.037,142.88 v 155.84 l -385.026,-220.29 -2.593,-950.449 821.769,-477.422 824.36,472.911 2.59,950.34 -821.77,477.53"
             style="fill:url(#linearGradient26);fill-opacity:1;fill-rule:nonzero;stroke:none"
             id="path28" /></g></g></g></g></svg>
