<svg xmlns="http://www.w3.org/2000/svg" width="400" height="400" style="shape-rendering:geometricPrecision;text-rendering:geometricPrecision;image-rendering:optimizeQuality;fill-rule:evenodd;clip-rule:evenodd"><path style="opacity:.999" fill="#e3e4d3" d="M193.5 19.5c4.88-.3 9.55.53 14 2.5a6377.34 6377.34 0 0 0 118 48l3.5 3.5c17.52 42.05 35.35 84.05 53.5 126-17.1 42.83-34.1 85.16-51 127a22.1 22.1 0 0 1-7 5.5 6592.24 6592.24 0 0 0-119 51c-2.67.67-5.33.67-8 0a5162.33 5162.33 0 0 0-126-50.5 39.07 39.07 0 0 0-4-9c.2-.59.54-1.09 1-1.5a22 22 0 0 1-4.5-6.5c-3.42-10-7.58-19.67-12.5-29 .2-1.76.2-3.26 0-4.5a9.46 9.46 0 0 1-2.5-1.5c-10.53-25.71-21.03-51.38-31.5-77a58.29 58.29 0 0 1 9-22.5l-1-1c4.1-10.32 8.6-20.48 13.5-30.5 8.64-23.93 17.64-47.6 27-71a51.54 51.54 0 0 1 7-7 3866.23 3866.23 0 0 0 120.5-52Z"/><path style="opacity:1" fill="#16cfcf" d="M271.5 65.5c1.24 1.6 2.9 2.76 5 3.5a226.46 226.46 0 0 1 23 8.5 58.82 58.82 0 0 0 14 4 459.3 459.3 0 0 0 12.5 26 2512.67 2512.67 0 0 0 37 88c.67 3.33.67 6.67 0 10-2.17 2.33-3.83 5-5 8a473.02 473.02 0 0 1-22 54 109.05 109.05 0 0 0-4 14 444.85 444.85 0 0 0-14.5 33c-2.3 1.94-4.8 3.6-7.5 5a2081.21 2081.21 0 0 0-38.5 16 89.64 89.64 0 0 0-16 8 40.65 40.65 0 0 0-16 6c-1.42 1.8-3.42 2.48-6 2h-10c1.04-14.31 1.88-28.64 2.5-43a6.02 6.02 0 0 1 6.5 0 18.23 18.23 0 0 1 2.5 9c.42 1.26 1.25 1.92 2.5 2-.17 5.34 0 10.68.5 16 1.67 5.33 3.33 5.33 5 0 .47-8.74-.03-17.4-1.5-26h1c-.36 7.44 1.3 7.94 5 1.5a10.1 10.1 0 0 1 6-1.5c.77-3.4.43-6.74-1-10a64.62 64.62 0 0 1 1-16c-.16 1.37.01 2.7.5 4 1-3.94 1.66-7.94 2-12l1 3c1.7-1.86 3.2-3.86 4.5-6a4.85 4.85 0 0 1 4-1 92.38 92.38 0 0 0 7.5-18c.5-3.99.67-7.99.5-12 .85-5.38 2.01-10.72 3.5-16 .81-4.19.64-8.19-.5-12-1.25-3.97-3.91-6.47-8-7.5-9.68-.83-19.35-.66-29 .5-4.72.29-7.89 2.62-9.5 7a247.5 247.5 0 0 1-4 15 23.71 23.71 0 0 1-8.5 9c-4.94.87-8.6-.8-11-5l-19-7v4c-3.28.53-4.61 2.53-4 6h5v-4h8v4h-5v4c3.06-1.47 6.23-2.8 9.5-4 3.6.08 4.1 1.08 1.5 3l-7 2 5.5 1c4.14-.95 8.3-1.61 12.5-2a20.36 20.36 0 0 1-6 3 45.64 45.64 0 0 1-19 0 72.14 72.14 0 0 1-11-9 64.01 64.01 0 0 1-10-20v-26c1.54.73 2.38 2.06 2.5 4l3-12c.67 2.67 1.33 2.67 2 0 .5-2.65.66-5.31.5-8 3.66-1.17 7-3 10-5.5 3.72-.8 7.39-1.8 11-3l-1-1a55.86 55.86 0 0 1 30 7.5l1 2a28.23 28.23 0 0 1 2.5 11 16.65 16.65 0 0 0 10.5 8.5c10.66.5 21.33.67 32 .5 1.32-4.3 3.49-8.3 6.5-12 .78-1.89.61-3.55-.5-5a35.7 35.7 0 0 0 .5-13 10.56 10.56 0 0 0-2.5-6 71.26 71.26 0 0 0-15-28c-15.35-14.53-33.02-22.53-53-24a26.75 26.75 0 0 0-10.5-2c-3.9.01-7.4.68-10.5 2a76.76 76.76 0 0 0-34 14 45.86 45.86 0 0 0-19 20 5.81 5.81 0 0 0-2 4c-.98.64-1.98 1.3-3 2-2.71 6.74-5.38 13.4-8 20-1.4 4.01-2.9 8.01-4.5 12-.5 10.66-.67 21.33-.5 32a4.64 4.64 0 0 0-1 3 238.3 238.3 0 0 1 3 23c3.06 9.41 6.06 18.75 9 28h3a127.2 127.2 0 0 0 3.5 22l1 20c2.79 2.63 4.79 1.96 6-2 .5-4.65.67-9.32.5-14a4.85 4.85 0 0 1 4 1 26.15 26.15 0 0 1 3.5 9c1.9 13.4 3.4 28.06 4.5 44v4h-3a2598.64 2598.64 0 0 0-51-20.5 14.43 14.43 0 0 0-10-4 36 36 0 0 1-4.5-3.5c-9.85-21.7-19.18-43.7-28-66a99.87 99.87 0 0 0-6.5-12 95.21 95.21 0 0 0-10-24 11.9 11.9 0 0 1-2.5-4c-.73-3.35-1.56-6.69-2.5-10 13.1-31.02 25.6-62.35 37.5-94 1.8-4.94 4.14-9.6 7-14 .5-1.97.66-3.97.5-6a2209.05 2209.05 0 0 1 117.5-50l5.5.5a297.1 297.1 0 0 0 30 13c4.19.5 8.19 1.67 12 3.5a76.98 76.98 0 0 0 27 11Z"/><path style="opacity:1" fill="#c8e9dd" d="M271.5 65.5a81.42 81.42 0 0 0 19 5c3.3 2.13 6.3 4.46 9 7a226.46 226.46 0 0 0-23-8.5c-2.1-.74-3.76-1.9-5-3.5Z"/><path style="opacity:1" fill="#83e5d6" d="M207.5 103.5h-21c3.1-1.32 6.6-1.99 10.5-2 3.9.01 7.4.68 10.5 2Z"/><path style="opacity:1" fill="#e4e4d3" d="M186.5 103.5h21c19.98 1.47 37.65 9.47 53 24 .01 2.05.34 4.05 1 6-2.82 3.03-2.49 5.7 1 8a19.89 19.89 0 0 1 3.5-4 25.78 25.78 0 0 1 2 8 20.5 20.5 0 0 1 3.5 4c-6 .88-11.34-.45-16-4a303.49 303.49 0 0 1-20-11.5c-3.72-.64-7.39-1.48-11-2.5a4.85 4.85 0 0 1-1-4c-7.82-.71-15.66-1.38-23.5-2-6.5.8-13 1.64-19.5 2.5a161.63 161.63 0 0 1-20 14c-.16 1.12-.5 2.28-1 3.5a8.25 8.25 0 0 0-5.5 5l-1-1a29.72 29.72 0 0 0-9 9l-1 4a28.54 28.54 0 0 0-8.5 7 41.69 41.69 0 0 1-8 14l-4-4c-1 5.3-1.33 10.63-1 16a37.9 37.9 0 0 0-3 12h-3c-.17-10.67 0-21.34.5-32 1.6-3.99 3.1-7.99 4.5-12 1.68-.68 2.34-2.02 2-4h5v-4c10.67-.67 10.67-1.33 0-2l4-12a5.81 5.81 0 0 1 2-4c1.9-2.6 4.57-4.26 8-5a11.23 11.23 0 0 0 2-7 28.73 28.73 0 0 0 8-5c.63-.92.96-1.92 1-3a76.76 76.76 0 0 1 34-14Z"/><path style="opacity:1" fill="#d2ebde" d="M152.5 117.5a5.58 5.58 0 0 1-1 3 28.73 28.73 0 0 1-8 5c.11 2.55-.55 4.88-2 7-3.43.74-6.1 2.4-8 5a45.86 45.86 0 0 1 19-20Z"/><path style="opacity:1" fill="#d1ecdc" d="M260.5 127.5a71.26 71.26 0 0 1 15 28 3.3 3.3 0 0 1-1.5-2c-.42 1.46-1.26 1.96-2.5 1.5.64-1.7.64-3.54 0-5.5a20.5 20.5 0 0 0-3.5-4c-.24-2.79-.9-5.46-2-8a19.89 19.89 0 0 0-3.5 4c-3.49-2.3-3.82-4.97-1-8a19.05 19.05 0 0 1-1-6Z"/><path style="opacity:1" fill="#f4f7ef" d="M236.5 179.5a11.1 11.1 0 0 1-4.5-3 32.73 32.73 0 0 0-5.5-11 18.58 18.58 0 0 0-5-7.5c-11.97-7.52-24.3-8.35-37-2.5a21.6 21.6 0 0 1 4-7c2.47-.62 4.8-1.46 7-2.5l-3-1c3.63-2.1 7.46-3.6 11.5-4.5a136.07 136.07 0 0 1 17.5 7c1.9-.97 3.9-1.64 6-2 3.9 1.31 7.9 1.98 12 2v6c3.82.24 5.82 2.24 6 6a4.39 4.39 0 0 1 3.5 1 22.08 22.08 0 0 0 6 11c.5 1.97.66 3.97.5 6h-16a404.41 404.41 0 0 1-6.5-19c-1.96-3.49-4.46-5.82-7.5-7a5.41 5.41 0 0 0-1.5 6 368.6 368.6 0 0 1 12.5 22Z"/><path style="opacity:1" fill="#efeee1" d="M255.5 145.5c4.66 3.55 10 4.88 16 4 .64 1.96.64 3.8 0 5.5 1.24.46 2.08-.04 2.5-1.5a3.3 3.3 0 0 0 1.5 2 10.56 10.56 0 0 1 2.5 6c.63 4.37.46 8.7-.5 13a6.55 6.55 0 0 1-3 3 198.88 198.88 0 0 1-38 2 368.6 368.6 0 0 0-12.5-22 5.41 5.41 0 0 1 1.5-6c3.04 1.18 5.54 3.51 7.5 7a404.41 404.41 0 0 0 6.5 19h16c.16-2.03 0-4.03-.5-6a22.08 22.08 0 0 1-6-11 4.39 4.39 0 0 0-3.5-1c-.18-3.76-2.18-5.76-6-6v-6c-4.1-.02-8.1-.69-12-2-2.1.36-4.1 1.03-6 2a136.07 136.07 0 0 0-17.5-7c-4.04.9-7.87 2.4-11.5 4.5l3 1a38.09 38.09 0 0 1-7 2.5 21.6 21.6 0 0 0-4 7h-6v-4c2.1.3 4.1-.03 6-1a3.1 3.1 0 0 0-3-1c.28-4.96 2.62-8.62 7-11 10-4.44 19.67-3.94 29 1.5 5 .85 9.84.35 14.5-1.5a28.09 28.09 0 0 0 15.5 5.5c2.5.88 4.83 2.05 7 3.5.8-.46 1.13-1.12 1-2Z"/><path style="opacity:1" fill="#eae9d9" d="M255.5 145.5c.13.88-.2 1.54-1 2a31.41 31.41 0 0 0-7-3.5 28.09 28.09 0 0 1-15.5-5.5 26.54 26.54 0 0 1-14.5 1.5c-9.33-5.44-19-5.94-29-1.5-4.38 2.38-6.72 6.04-7 11a3.1 3.1 0 0 1 3 1c-1.9.97-3.9 1.3-6 1v4h5a40.47 40.47 0 0 0-13 20h-5c.3 2.1-.03 4.1-1 6-1.7-2.14-3.37-4.14-5-6-3.23.06-5.06 1.73-5.5 5a10.67 10.67 0 0 0-7 5 8.34 8.34 0 0 1-1-7l6.5-18.5c-.78-1.23-1.78-1.56-3-1a16.36 16.36 0 0 0-7 10.5 15.32 15.32 0 0 0-7 11 14.59 14.59 0 0 1-6 4c.84 3.48-.16 6.48-3 9-.7-.53-1.2-1.2-1.5-2a7.59 7.59 0 0 1-3.5 4c-.33-5.38 0-10.7 1-16l4 4a41.69 41.69 0 0 0 8-14c2.4-2.9 5.23-5.23 8.5-7l1-4a29.72 29.72 0 0 1 9-9l1 1a8.25 8.25 0 0 1 5.5-5c.5-1.22.84-2.38 1-3.5a161.63 161.63 0 0 0 20-14c6.5-.86 13-1.7 19.5-2.5 7.84.62 15.68 1.29 23.5 2a4.85 4.85 0 0 0 1 4c3.61 1.02 7.28 1.86 11 2.5a303.49 303.49 0 0 0 20 11.5Z"/><path style="opacity:1" fill="#cfebda" d="m131.5 141.5-4 12c10.67.67 10.67 1.33 0 2v4h-5c.34 1.98-.32 3.32-2 4 2.62-6.6 5.29-13.26 8-20 1.02-.7 2.02-1.36 3-2Z"/><path style="opacity:1" fill="#239f9c" d="M226.5 165.5c-4.96-1.5-9.96-3-15-4.5a7.7 7.7 0 0 0-3-3.5h-14a127.75 127.75 0 0 0-12 4.5 198.57 198.57 0 0 0-12 13.5 40.47 40.47 0 0 1 13-20h1c12.7-5.85 25.03-5.02 37 2.5a18.58 18.58 0 0 1 5 7.5Z"/><path style="opacity:1" fill="#16bcbe" d="M226.5 165.5a6.92 6.92 0 0 1-1 4 55.86 55.86 0 0 0-30-7.5l1 1c-3.61 1.2-7.28 2.2-11 3-3 2.5-6.34 4.33-10 5.5.16 2.69 0 5.35-.5 8-.67 2.67-1.33 2.67-2 0l-3 12c-.12-1.94-.96-3.27-2.5-4 .54-4.02 1.2-8.02 2-12h1c3.74-4.62 7.74-9.12 12-13.5 3.88-1.68 7.88-3.18 12-4.5h14a7.7 7.7 0 0 1 3 3.5c5.04 1.5 10.04 3 15 4.5Z"/><path style="opacity:1" fill="#0d201e" d="M209.5 177.5a28.74 28.74 0 0 1-7-2c-1.54-.05-2.54.62-3 2a35.12 35.12 0 0 1-10 2 20.89 20.89 0 0 1 8-7.5c5.71-1.75 10.04-.09 13 5-.23.4-.56.56-1 .5Z"/><path style="opacity:1" fill="#6e6c73" d="M209.5 177.5v2c-1.84.54-3.51-.12-5-2a3 3 0 0 0-2 2h-2l-1-2c.46-1.38 1.46-2.05 3-2 2.26.97 4.6 1.63 7 2Z"/><path style="opacity:1" fill="#f2f2e5" d="M159.5 175.5a7.11 7.11 0 0 1-1 5 40.48 40.48 0 0 0-9.5 9 86.55 86.55 0 0 0-3.5 18h-6a495.5 495.5 0 0 0 4-32h-5c1.12 5.46-.55 9.8-5 13a91.33 91.33 0 0 0-7 15c-1.62-2.56-3.12-2.56-4.5 0a46.23 46.23 0 0 1-2 12 14.68 14.68 0 0 1-1.5-8 37.9 37.9 0 0 1 3-12 7.59 7.59 0 0 0 3.5-4c.3.8.8 1.47 1.5 2 2.84-2.52 3.84-5.52 3-9a14.59 14.59 0 0 0 6-4 15.32 15.32 0 0 1 7-11 16.36 16.36 0 0 1 7-10.5c1.22-.56 2.22-.23 3 1l-6.5 18.5a8.34 8.34 0 0 0 1 7 10.67 10.67 0 0 1 7-5c.44-3.27 2.27-4.94 5.5-5Z"/><path style="opacity:1" fill="#15303a" d="M209.5 179.5c-.71 2.34-2.04 2.68-4 1-.7-.9-1.7-1.24-3-1a3 3 0 0 1 2-2c1.49 1.88 3.16 2.54 5 2Z"/><path style="opacity:1" fill="#247f7f" d="M200.5 179.5h2c1.3-.24 2.3.1 3 1-2.4-.05-4.74.28-7 1a3 3 0 0 1 2-2Z"/><path style="opacity:1" fill="#2ca2a1" d="M226.5 165.5a32.73 32.73 0 0 1 5.5 11 11.1 11.1 0 0 0 4.5 3 3.3 3.3 0 0 0 2 1.5c11 .67 22 .67 33 0a10.52 10.52 0 0 1 3-2.5c.44-.06.77.1 1 .5a12.5 12.5 0 0 0-4.5 6.5c-1.4.73-2.9 1.23-4.5 1.5-9.68.83-19.35.66-29-.5a19.14 19.14 0 0 1-6-6 37.5 37.5 0 0 0-3-8c-.46-.8-1.12-1.13-2-1l-1-2a6.92 6.92 0 0 0 1-4Z"/><path style="opacity:1" fill="#368d8d" d="M195.5 185.5a82.73 82.73 0 0 0-1 14l-2-6c1.24-2.11 1.24-4.11 0-6a7.07 7.07 0 0 1 3-2Z"/><path style="opacity:1" fill="#10b8ba" d="M226.5 171.5c.88-.13 1.54.2 2 1a37.5 37.5 0 0 1 3 8 19.14 19.14 0 0 0 6 6 140.77 140.77 0 0 0 29 .5c1.6-.27 3.1-.77 4.5-1.5a12.5 12.5 0 0 1 4.5-6.5c-.23-.4-.56-.56-1-.5v-1a6.55 6.55 0 0 0 3-3c1.11 1.45 1.28 3.11.5 5a35.37 35.37 0 0 0-6.5 12c-10.67.17-21.34 0-32-.5a16.65 16.65 0 0 1-10.5-8.5c-.1-3.89-.94-7.56-2.5-11Z"/><path style="opacity:1" fill="#def8eb" d="M274.5 177.5v1a10.52 10.52 0 0 0-3 2.5c-11 .67-22 .67-33 0a3.3 3.3 0 0 1-2-1.5c12.8.54 25.47-.12 38-2Z"/><path style="opacity:1" fill="#cecdd7" d="M192.5 187.5c1.24 1.89 1.24 3.89 0 6-.84.34-1.17 1-1 2a4.61 4.61 0 0 1-1-4c.23-1.56.9-2.9 2-4Z"/><path style="opacity:1" fill="#f6f8f2" d="M159.5 175.5c1.63 1.86 3.3 3.86 5 6 .97-1.9 1.3-3.9 1-6h4c-.8 3.98-1.46 7.98-2 12v24a55.94 55.94 0 0 1-3-12l-1.5-6a46.1 46.1 0 0 0-10 14c-.63-2.5-1.46-2.5-2.5 0a113.49 113.49 0 0 0 .5 32c3.93 3.73 4.6 7.73 2 12a20.23 20.23 0 0 1-7.5-7.5l2-1a7.7 7.7 0 0 0-3-3.5 307.29 307.29 0 0 1-15 14.5c.6 1.95 1.28 3.78 2 5.5a5.37 5.37 0 0 1 3.5 3c.3 4.11 1.14 8.11 2.5 12l-1 3c-.7-2.25-1.7-4.25-3-6a59.6 59.6 0 0 1-4-10 66.78 66.78 0 0 0-4.5-10 148.35 148.35 0 0 1-8.5-44h2c-.25 2.82.25 5.49 1.5 8a46.23 46.23 0 0 0 2-12c1.38-2.56 2.88-2.56 4.5 0a91.33 91.33 0 0 1 7-15c4.45-3.2 6.12-7.54 5-13h5a495.5 495.5 0 0 1-4 32h6c.53-6.1 1.7-12.1 3.5-18a40.48 40.48 0 0 1 9.5-9 7.11 7.11 0 0 0 1-5Z"/><path style="opacity:1" fill="#093533" d="M205.5 191.5v-1c2.82-.25 5.49.25 8 1.5 1.3 1.62 1.3 3.12 0 4.5v-3a23.14 23.14 0 0 0-8-2Z"/><path style="opacity:1" fill="#181f1e" d="M205.5 191.5c2.8.2 5.47.86 8 2v3a4.93 4.93 0 0 0-3 .5c.46 1.72.63 3.56.5 5.5.38-.56.88-.89 1.5-1 2.55 2.7 3.55 5.7 3 9-2.33-2.6-4.66-5.28-7-8a12.66 12.66 0 0 1-5-3.5c2.83-1.9 2.5-2.74-1-2.5-.58-2.78.42-4.45 3-5Z"/><path style="opacity:1" fill="#b2cac2" d="M213.5 196.5c.13 1.8-.2 3.46-1 5-.62.11-1.12.44-1.5 1 .13-1.94-.04-3.78-.5-5.5a4.93 4.93 0 0 1 3-.5Z"/><path style="opacity:1" fill="#31b8bc" d="M205.5 190.5c3.4-1.51 6.74-1.18 10 1a79.63 79.63 0 0 1 1 34h-5l1-2c2.27-2.1 3.6-4.76 4-8 .05-1.54-.62-2.54-2-3l1-2c.55-3.3-.45-6.3-3-9a9.15 9.15 0 0 0 1-5c1.3-1.38 1.3-2.88 0-4.5a14.68 14.68 0 0 0-8-1.5Z"/><path style="opacity:1" fill="#736f75" d="M190.5 191.5a4.61 4.61 0 0 0 1 4 48.6 48.6 0 0 0 3 15 4.25 4.25 0 0 1-2.5-3 26.44 26.44 0 0 1-1.5-16Z"/><path style="opacity:1" fill="#53878b" d="M182.5 201.5a3.3 3.3 0 0 1 1.5 2 3.3 3.3 0 0 1 1.5-2 19.22 19.22 0 0 1-1 6 7.12 7.12 0 0 1-2-6Z"/><path style="opacity:1" fill="#b0c4c4" d="M185.5 201.5h1c.7 3.29 1.04 6.62 1 10a9.82 9.82 0 0 1-3-4c.65-1.94.98-3.94 1-6Z"/><path style="opacity:1" fill="#e4e4d2" d="M164.5 199.5a55.94 55.94 0 0 0 3 12v2c-.35 4.72-1.01 9.38-2 14h7c-.12 3.54 1.54 5.54 5 6a72.14 72.14 0 0 0 11 9 45.64 45.64 0 0 0 19 0c2.25-.7 4.25-1.7 6-3a5.81 5.81 0 0 0 4-2 23.71 23.71 0 0 0 8.5-9 247.5 247.5 0 0 0 4-15c1.61-4.38 4.78-6.71 9.5-7a140.77 140.77 0 0 1 29-.5c4.09 1.03 6.75 3.53 8 7.5a34.87 34.87 0 0 1-3 14c.31-2.75-.02-5.41-1-8a4.85 4.85 0 0 0-1 4h-3c.18 2.82-1.15 4.49-4 5a3.1 3.1 0 0 0-1 3 61.19 61.19 0 0 0-21 13.5c-1.63.54-2.97.04-4-1.5a29.14 29.14 0 0 1-2.5 5c-1.05-1.02-2.22-1.18-3.5-.5a24.16 24.16 0 0 0-5 6.5 4.85 4.85 0 0 1-4 1 19.78 19.78 0 0 1-8 7.5c-15.24 3.3-29.58 1.14-43-6.5a30.56 30.56 0 0 0-8-7 22.62 22.62 0 0 0-5-8.5c1.78-1.68 2.12-3.51 1-5.5a6.8 6.8 0 0 0-1.5 3c-1.62-1.04-1.78-2.2-.5-3.5-2.94-4.71-3.78-9.88-2.5-15.5.64-4.25 1.8-8.25 3.5-12 1.68-1.66 2.35-4.32 2-8h3Z"/><path style="opacity:1" fill="#121919" d="m192.5 193.5 2 6c1.34 4.17 3.34 8 6 11.5 1.33.67 2.67.67 4 0a19.67 19.67 0 0 0 3-6.5c2.38.93 3.38 2.76 3 5.5-.88 6.94-4.55 8.94-11 6-1.33-2.2-3-4.02-5-5.5a48.6 48.6 0 0 1-3-15c-.17-1 .16-1.66 1-2Z"/><path style="opacity:1" fill="#828281" d="M208.5 202.5c2.34 2.72 4.67 5.4 7 8l-1 2a7.06 7.06 0 0 1-2.5-2 18.84 18.84 0 0 1-2.5 7c-7.56 3.39-12.56 1.05-15-7 2 1.48 3.67 3.3 5 5.5 6.45 2.94 10.12.94 11-6 .38-2.74-.62-4.57-3-5.5-1.53-1.43-1.2-2.1 1-2Z"/><path style="opacity:1" fill="#141718" d="m199.5 177.5 1 2a3 3 0 0 0-2 2 4.73 4.73 0 0 0-3 4 7.07 7.07 0 0 0-3 2 6.99 6.99 0 0 0-2 4 26.44 26.44 0 0 0 1.5 16 4.25 4.25 0 0 0 2.5 3c2.44 8.05 7.44 10.39 15 7a2.26 2.26 0 0 1-1 1.5 43.07 43.07 0 0 1-9 2 4.3 4.3 0 0 0 2 1.5c1.42 1.68 2.75 3.35 4 5-9.44-1.44-15.44-6.77-18-16 .04-3.38-.3-6.71-1-10-.16-3.02 0-6.02.5-9a213.1 213.1 0 0 0 5-11c-5.85 5.42-8.02 12.09-6.5 20a3.3 3.3 0 0 0-1.5 2 3.3 3.3 0 0 0-1.5-2c-2.27-8.98.07-16.31 7-22 3.48-.2 6.82-.86 10-2Z"/><path style="opacity:1" fill="#797670" d="M186.5 201.5h-1c-1.52-7.91.65-14.58 6.5-20a213.1 213.1 0 0 1-5 11c-.5 2.98-.66 5.98-.5 9Z"/><path style="opacity:1" fill="#0f1514" d="M214.5 212.5c1.38.46 2.05 1.46 2 3-.4 3.24-1.73 5.9-4 8a4.61 4.61 0 0 1-1-4c0-1.33-.67-2-2-2a18.84 18.84 0 0 0 2.5-7c.7.88 1.54 1.55 2.5 2Z"/><path style="opacity:1" fill="#d2ebd8" d="M167.5 213.5a64.01 64.01 0 0 0 10 20c-3.46-.46-5.12-2.46-5-6h-7c.99-4.62 1.65-9.28 2-14Z"/><path style="opacity:1" fill="#a6a9a7" d="M209.5 217.5c1.33 0 2 .67 2 2a7.49 7.49 0 0 0-3 3.5 11.6 11.6 0 0 1-7-.5 4.3 4.3 0 0 1-2-1.5 43.07 43.07 0 0 0 9-2c.56-.38.89-.88 1-1.5Z"/><path style="opacity:1" fill="#c5eadf" d="M39.5 215.5a95.21 95.21 0 0 1 10 24 57.2 57.2 0 0 1-10-24Z"/><path style="opacity:1" fill="#f1f6ed" d="M276.5 213.5a24.76 24.76 0 0 1 .5 12 137.83 137.83 0 0 0-3.5 16 73.2 73.2 0 0 1-6.5 15 81.43 81.43 0 0 0-11.5 15 4.27 4.27 0 0 0-2-4.5l1-1c-1.7-.2-3.37-.2-5 0l9-3a4.6 4.6 0 0 1-2.5-2.5c-1.88 1.43-3.38 1.1-4.5-1l-9-2c.2-.59.54-1.09 1-1.5-5.23-.9-5.23-2.07 0-3.5a66.5 66.5 0 0 1 6-8c7.22-4.44 14.89-8.1 23-11 0-2.04.33-4.04 1-6a34.87 34.87 0 0 0 3-14Z"/><path style="opacity:1" fill="#f3f2e6" d="M164.5 199.5h-3c.35 3.68-.32 6.34-2 8-2.89-.28-4.39 1.05-4.5 4a101.3 101.3 0 0 0-.5 28 73.32 73.32 0 0 1 5.5 10l5 5a4.7 4.7 0 0 1-.5 5 35.74 35.74 0 0 0-25-4 46.91 46.91 0 0 1 2 16h-3a100.6 100.6 0 0 0-3-16h-4v4a61.16 61.16 0 0 1-2-5.5 307.29 307.29 0 0 0 15-14.5 7.7 7.7 0 0 1 3 3.5l-2 1a20.23 20.23 0 0 0 7.5 7.5c2.6-4.27 1.93-8.27-2-12a113.49 113.49 0 0 1-.5-32c1.04-2.5 1.87-2.5 2.5 0a46.1 46.1 0 0 1 10-14l1.5 6Z"/><path style="opacity:1" fill="#46b3b4" d="M115.5 207.5h1c.6 15.07 3.43 29.74 8.5 44a66.78 66.78 0 0 1 4.5 10h-3c-2.94-9.25-5.94-18.59-9-28a238.3 238.3 0 0 0-3-23 4.64 4.64 0 0 1 1-3Z"/><path style="opacity:1" fill="#2dafae" d="M273.5 241.5c.17 4.01 0 8.01-.5 12a92.38 92.38 0 0 1-7.5 18 4.85 4.85 0 0 0-4 1 39.45 39.45 0 0 1-4.5 6l-1-3c-.34 4.06-1 8.06-2 12a8.43 8.43 0 0 1-.5-4c.54-4.02 1.2-8.02 2-12a81.43 81.43 0 0 1 11.5-15 73.2 73.2 0 0 0 6.5-15Z"/><path style="opacity:1" fill="#ebeada" d="M159.5 207.5a45.53 45.53 0 0 0-3.5 12c-1.28 5.62-.44 10.79 2.5 15.5-1.28 1.3-1.12 2.46.5 3.5a6.8 6.8 0 0 1 1.5-3c1.12 1.99.78 3.82-1 5.5a22.62 22.62 0 0 1 5 8.5 30.56 30.56 0 0 1 8 7c13.42 7.64 27.76 9.8 43 6.5a19.78 19.78 0 0 0 8-7.5 4.85 4.85 0 0 0 4-1 24.16 24.16 0 0 1 5-6.5c1.28-.68 2.45-.52 3.5.5a29.14 29.14 0 0 0 2.5-5c1.03 1.54 2.37 2.04 4 1.5a61.19 61.19 0 0 1 21-13.5 3.1 3.1 0 0 1 1-3c2.85-.51 4.18-2.18 4-5h3a4.85 4.85 0 0 1 1-4 16.87 16.87 0 0 1 1 8c-.67 1.96-1 3.96-1 6a121.75 121.75 0 0 0-23 11 66.5 66.5 0 0 0-6 8c-5.23 1.43-5.23 2.6 0 3.5-.46.41-.8.91-1 1.5l9 2c1.12 2.1 2.62 2.43 4.5 1a4.6 4.6 0 0 0 2.5 2.5l-9 3c1.63-.2 3.3-.2 5 0l-1 1a4.27 4.27 0 0 1 2 4.5c-.8 3.98-1.46 7.98-2 12a64.62 64.62 0 0 0-1 16c-1 3.5-3.33 5.33-7 5.5a6.87 6.87 0 0 0-3 4.5h-1a4.8 4.8 0 0 1-4-2c-.38-2.2-1.04-4.2-2-6a3.92 3.92 0 0 0-2-3.5c-3.6-.84-6.94-.34-10 1.5.64-.98 1.3-1.98 2-3a8.78 8.78 0 0 1-2-7c-3.02.4-4.02-.6-3-3a18.33 18.33 0 0 1-4-6 362.28 362.28 0 0 0-33.5-3c-6.22.73-10.06 4.06-11.5 10a4.85 4.85 0 0 1 4 1l-11 2c4.87.02 7.2 2.35 7 7a40.18 40.18 0 0 0-12-4v-6a3.1 3.1 0 0 0-3 1 29.82 29.82 0 0 1-2 5c-1.04-2.5-1.87-2.5-2.5 0a10.17 10.17 0 0 0-4.5-6 22.59 22.59 0 0 1-4-8 13.83 13.83 0 0 1-2-8 46.91 46.91 0 0 0-2-16 35.74 35.74 0 0 1 25 4 4.7 4.7 0 0 0 .5-5l-5-5a73.32 73.32 0 0 0-5.5-10 101.3 101.3 0 0 1 .5-28c.11-2.95 1.61-4.28 4.5-4Z"/><path style="opacity:1" fill="#18cdd3" d="M217.5 237.5a5.81 5.81 0 0 1-4 2c-4.2.39-8.36 1.05-12.5 2l-5.5-1 7-2c2.6-1.92 2.1-2.92-1.5-3-3.27 1.2-6.44 2.53-9.5 4v-4h5v-4h-8v4h-5c-.61-3.47.72-5.47 4-6v-4l19 7c2.4 4.2 6.06 5.87 11 5Z"/><path style="opacity:1" fill="#425054" d="M211.5 219.5a4.61 4.61 0 0 0 1 4l-1 2c-1.8 1.23-3.8 1.9-6 2a119.87 119.87 0 0 0-4-5 11.6 11.6 0 0 0 7 .5 7.49 7.49 0 0 1 3-3.5Z"/><path style="opacity:1" fill="#daeedf" d="M141.5 271.5c-.13 2.92.53 5.58 2 8-1.59-.91-3.09-.91-4.5 0 .13 6 .13 12 0 18a4.27 4.27 0 0 1-4.5 2c.08-4.85.4-9.68 1-14.5-.43-4.55-1.1-9.05-2-13.5 1.3 1.75 2.3 3.75 3 6l1-3a46.37 46.37 0 0 1-2.5-12 5.37 5.37 0 0 0-3.5-3v-4h4a100.6 100.6 0 0 1 3 16h3Z"/><path style="opacity:1" fill="#f5f6ed" d="M223.5 299.5c-2.09-.05-3.42.95-4 3 .9 2.92 1.24 5.92 1 9a4.8 4.8 0 0 1-4-2v-2c.1-2.74-.24-5.4-1-8v-6h4c.18-2.83-1.16-4.5-4-5 2.18-1.78 2.18-3.78 0-6a107.47 107.47 0 0 0-28 0 46.96 46.96 0 0 0-5 10c.6 1.3 1.1 2.63 1.5 4a24.54 24.54 0 0 1 9.5-1v14h-4a8.43 8.43 0 0 0-.5-4 3.3 3.3 0 0 1-1.5 2c1.12-4.66-.54-7.5-5-8.5l1-1c-3.99-.5-7.99-.67-12-.5.2-4.65-2.13-6.98-7-7l11-2a4.85 4.85 0 0 0-4-1c1.44-5.94 5.28-9.27 11.5-10 11.22.48 22.39 1.48 33.5 3a18.33 18.33 0 0 0 4 6c-1.02 2.4-.02 3.4 3 3a8.78 8.78 0 0 0 2 7c-.7 1.02-1.36 2.02-2 3Z"/><path style="opacity:1" fill="#f9faf6" d="M215.5 299.5a9.19 9.19 0 0 0-9 4c-1.23-1.15-1.23-2.32 0-3.5-1.24-.46-2.08.04-2.5 1.5-.42-1.26-1.25-1.92-2.5-2a4.85 4.85 0 0 0-4 1 14.7 14.7 0 0 0-2 9 3.3 3.3 0 0 0-1.5 2c-.17 7.02-.67 14.02-1.5 21a16.87 16.87 0 0 1-1-8 12.7 12.7 0 0 0-2-9c-.08-2.83-.75-5.5-2-8a3.3 3.3 0 0 0 1.5-2c.49 1.3.66 2.63.5 4h4v-14c-3.28-.28-6.44.05-9.5 1-.4-1.37-.9-2.7-1.5-4 1.3-3.6 2.97-6.94 5-10a107.47 107.47 0 0 1 28 0c2.18 2.22 2.18 4.22 0 6 2.84.5 4.18 2.17 4 5h-4v6Z"/><path style="opacity:1" fill="#e0efe4" d="M147.5 287.5a10.17 10.17 0 0 1 4.5 6c.63-2.5 1.46-2.5 2.5 0 .82-1.6 1.49-3.27 2-5a3.1 3.1 0 0 1 3-1v6c4.3.73 8.3 2.06 12 4 4.01-.17 8.01 0 12 .5l-1 1c4.46 1 6.12 3.84 5 8.5a26.12 26.12 0 0 1-3.5-6 9.45 9.45 0 0 0-2.5-1.5l-16-1c-1.98-3.63-4.32-4.13-7-1.5a361.6 361.6 0 0 0-1 38v14a4.51 4.51 0 0 0-3 2 4.85 4.85 0 0 1-1-4c-1.98.34-3.32-.32-4-2h3v-4c.17-14.02-.33-28.02-1.5-42a85.22 85.22 0 0 1-3.5-12Z"/><path style="opacity:1" fill="#3db1ad" d="M129.5 261.5a59.6 59.6 0 0 0 4 10c.9 4.45 1.57 8.95 2 13.5-.6 4.82-.92 9.65-1 14.5 1.95.27 3.45-.4 4.5-2 .13-6 .13-12 0-18 1.41-.91 2.91-.91 4.5 0a22.59 22.59 0 0 0 4 8 85.22 85.22 0 0 0 3.5 12 441.97 441.97 0 0 1 1.5 42c-1.1-15.94-2.6-30.6-4.5-44a26.15 26.15 0 0 0-3.5-9 4.85 4.85 0 0 0-4-1c.17 4.68 0 9.35-.5 14-1.21 3.96-3.21 4.63-6 2l-1-20a127.2 127.2 0 0 1-3.5-22Z"/><path style="opacity:1" fill="#2a9998" d="M235.5 301.5a163.2 163.2 0 0 0-10 2.5 30.23 30.23 0 0 0-3 3.5c-.1-2.74.24-5.4 1-8a12.97 12.97 0 0 1 10-1.5 3.92 3.92 0 0 1 2 3.5Z"/><path style="opacity:1" fill="#259f9d" d="M187.5 307.5a18.97 18.97 0 0 1 2 8 101.64 101.64 0 0 1-5-8.5 102.95 102.95 0 0 0-19-2 32.45 32.45 0 0 0-6-2.5 9.1 9.1 0 0 1-1-5c2.68-2.63 5.02-2.13 7 1.5l16 1c.92.37 1.75.87 2.5 1.5.94 2.23 2.1 4.23 3.5 6Z"/><path style="opacity:1" fill="#ddf9f9" d="M201.5 299.5c1.25.08 2.08.74 2.5 2 .42-1.46 1.26-1.96 2.5-1.5-1.23 1.18-1.23 2.35 0 3.5a9.19 9.19 0 0 1 9-4c.76 2.6 1.1 5.26 1 8-.9-1.8-1.9-3.62-3-5.5-1.87-.71-3.37-.21-4.5 1.5l-1 10a6.48 6.48 0 0 1-4.5 1 12.26 12.26 0 0 1 0-9.5c-.26-2-.93-3.84-2-5.5Z"/><path style="opacity:1" fill="#26b6b5" d="M158.5 297.5a9.1 9.1 0 0 0 1 5c2.12.65 4.12 1.48 6 2.5 6.44.08 12.78.75 19 2 1.57 2.98 3.23 5.81 5 8.5a12.7 12.7 0 0 1 2 9 28.17 28.17 0 0 0 0 14c2.12.18 4.12-.16 6-1 .2 2.42-.13 4.75-1 7-3.34 1.33-5.84.33-7.5-3 .38-6.64.38-13.31 0-20-2.25-3.33-3.75-7-4.5-11a164.72 164.72 0 0 0-25-5 867 867 0 0 1-2 30 361.6 361.6 0 0 1 1-38Z"/><path style="opacity:1" fill="#21a8a4" d="M252.5 299.5a15.68 15.68 0 0 1 1 10 10.1 10.1 0 0 0-6 1.5c-3.7 6.44-5.36 5.94-5-1.5a6.87 6.87 0 0 1 3-4.5c3.67-.17 6-2 7-5.5Z"/><path style="opacity:1" fill="#3bc1bf" d="M235.5 301.5c.96 1.8 1.63 3.8 2 6v12c-1.25-.08-2.08-.74-2.5-2-.06-3.26-.9-6.26-2.5-9a6.02 6.02 0 0 0-6.5 0c-.63 14.36-1.46 28.69-2.5 43h10c.17 1-.16 1.66-1 2a28.79 28.79 0 0 1-10 2 318.33 318.33 0 0 1 0-48 30.23 30.23 0 0 1 3-3.5 163.2 163.2 0 0 1 10-2.5Z"/><path style="opacity:1" fill="#def2e7" d="M237.5 307.5a4.8 4.8 0 0 0 4 2c1.47 8.6 1.97 17.26 1.5 26-1.67 5.33-3.33 5.33-5 0a128.5 128.5 0 0 1-.5-16v-12Z"/><path style="opacity:1" fill="#3ab6b8" d="M216.5 307.5v2c.65 13.16 1.32 26.33 2 39.5 0 3.35-.34 6.52-1 9.5-.5-11.7-1.5-23.36-3-35a49.9 49.9 0 0 0 .5-15 9.09 9.09 0 0 1-5.5 1c.62 4.46-.38 8.46-3 12a7.6 7.6 0 0 1-3-7 6.48 6.48 0 0 0 4.5-1l1-10c1.13-1.71 2.63-2.21 4.5-1.5 1.1 1.88 2.1 3.7 3 5.5Z"/><path style="opacity:1" fill="#1bcdcb" d="M201.5 299.5a13.02 13.02 0 0 1 2 5.5 12.26 12.26 0 0 0 0 9.5 7.6 7.6 0 0 0 3 7 15.82 15.82 0 0 0 3-12c1.97.24 3.8-.1 5.5-1a49.9 49.9 0 0 1-.5 15c1.5 11.64 2.5 23.3 3 35l-4 3c-3.74-.9-5.74.43-6 4a84.88 84.88 0 0 1-32-10.5 101.18 101.18 0 0 0-18-5.5v-14a867 867 0 0 0 2-30 164.72 164.72 0 0 1 25 5c.75 4 2.25 7.67 4.5 11 .38 6.69.38 13.36 0 20 1.66 3.33 4.16 4.33 7.5 3 .87-2.25 1.2-4.58 1-7a158.17 158.17 0 0 1-2-28 14.7 14.7 0 0 1 2-9 4.85 4.85 0 0 1 4-1Z"/><path style="opacity:1" fill="#dbf9f9" d="M195.5 309.5c-.16 9.41.5 18.75 2 28a12.03 12.03 0 0 1-6 1 28.17 28.17 0 0 1 0-14c-.31 2.75.02 5.41 1 8 .83-6.98 1.33-13.98 1.5-21a3.3 3.3 0 0 1 1.5-2Z"/><path style="opacity:1" fill="#c0ecdd" d="M271.5 335.5a4.51 4.51 0 0 1-2 3 60.37 60.37 0 0 1-14 5 89.64 89.64 0 0 1 16-8Z"/><path style="opacity:1" fill="#d4f4ee" d="M223.5 299.5c-.76 2.6-1.1 5.26-1 8a318.33 318.33 0 0 0 0 48c3.47-.08 6.8-.74 10-2a11.83 11.83 0 0 1-7.5 4c-1.66-.18-3-.84-4-2-.68 4.4-3.18 6.4-7.5 6l4-3c.66-2.98 1-6.15 1-9.5-.68-13.17-1.35-26.34-2-39.5a4.8 4.8 0 0 0 4 2c.24-3.08-.1-6.08-1-9 .58-2.05 1.91-3.05 4-3Z"/><path style="opacity:1" fill="#b5ead8" d="M255.5 343.5c-4.5 3.8-9.83 5.8-16 6a40.65 40.65 0 0 1 16-6Z"/></svg>