<?xml version="1.0" encoding="UTF-8"?>
<!DOCTYPE svg PUBLIC "-//W3C//DTD SVG 1.1//EN" "http://www.w3.org/Graphics/SVG/1.1/DTD/svg11.dtd">
<svg xmlns="http://www.w3.org/2000/svg" version="1.1" width="400px" height="400px" style="shape-rendering:geometricPrecision; text-rendering:geometricPrecision; image-rendering:optimizeQuality; fill-rule:evenodd; clip-rule:evenodd" xmlns:xlink="http://www.w3.org/1999/xlink">
<g><path style="opacity:0.999" fill="#e3e4d3" d="M 193.5,19.5 C 198.382,19.193 203.049,20.0264 207.5,22C 246.662,38.3881 285.995,54.3881 325.5,70C 326.667,71.1667 327.833,72.3333 329,73.5C 346.521,115.552 364.354,157.552 382.5,199.5C 365.398,242.327 348.398,284.66 331.5,326.5C 329.53,328.816 327.196,330.649 324.5,332C 284.663,348.612 244.996,365.612 205.5,383C 202.833,383.667 200.167,383.667 197.5,383C 155.526,365.536 113.526,348.703 71.5,332.5C 70.5635,329.37 69.2302,326.37 67.5,323.5C 67.7093,322.914 68.0426,322.414 68.5,322C 66.61,320.109 65.11,317.942 64,315.5C 60.5844,305.496 56.4177,295.829 51.5,286.5C 51.6952,284.735 51.6952,283.235 51.5,282C 50.5838,281.626 49.7504,281.126 49,280.5C 38.4734,254.789 27.9734,229.122 17.5,203.5C 18.8094,195.657 21.8094,188.157 26.5,181C 26.1667,180.667 25.8333,180.333 25.5,180C 29.6075,169.684 34.1075,159.517 39,149.5C 47.6394,125.566 56.6394,101.899 66,78.5C 68.1123,75.9385 70.4456,73.6052 73,71.5C 113.471,54.844 153.638,37.5107 193.5,19.5 Z"/></g>
<g><path style="opacity:1" fill="#16cfcf" d="M 271.5,65.5 C 272.737,67.0968 274.404,68.2635 276.5,69C 284.384,71.4416 292.051,74.275 299.5,77.5C 303.991,79.4103 308.658,80.7437 313.5,81.5C 317.343,90.1909 321.51,98.8576 326,107.5C 337.755,137.018 350.089,166.352 363,195.5C 363.667,198.833 363.667,202.167 363,205.5C 360.833,207.83 359.166,210.497 358,213.5C 351.785,231.934 344.451,249.934 336,267.5C 334.358,272.066 333.025,276.732 332,281.5C 326.715,292.317 321.882,303.317 317.5,314.5C 315.201,316.438 312.701,318.104 310,319.5C 297.048,324.732 284.215,330.065 271.5,335.5C 265.752,337.707 260.419,340.374 255.5,343.5C 249.686,344.387 244.353,346.387 239.5,349.5C 238.082,351.308 236.082,351.975 233.5,351.5C 230.167,351.5 226.833,351.5 223.5,351.5C 224.541,337.188 225.375,322.855 226,308.5C 228.139,307.231 230.305,307.231 232.5,308.5C 234.102,311.237 234.936,314.237 235,317.5C 235.417,318.756 236.25,319.423 237.5,319.5C 237.334,324.844 237.501,330.177 238,335.5C 239.667,340.833 241.333,340.833 243,335.5C 243.47,326.758 242.97,318.092 241.5,309.5C 241.833,309.5 242.167,309.5 242.5,309.5C 242.141,316.939 243.808,317.439 247.5,311C 249.345,309.872 251.345,309.372 253.5,309.5C 254.268,306.093 253.934,302.76 252.5,299.5C 252.179,293.974 252.512,288.64 253.5,283.5C 253.343,284.873 253.51,286.207 254,287.5C 254.993,283.558 255.66,279.558 256,275.5C 256.333,276.5 256.667,277.5 257,278.5C 258.692,276.641 260.192,274.641 261.5,272.5C 262.689,271.571 264.022,271.238 265.5,271.5C 268.599,265.851 271.099,259.851 273,253.5C 273.499,249.514 273.666,245.514 273.5,241.5C 274.345,236.117 275.512,230.784 277,225.5C 277.812,221.311 277.645,217.311 276.5,213.5C 275.255,209.534 272.589,207.034 268.5,206C 258.816,205.168 249.149,205.335 239.5,206.5C 234.78,206.786 231.614,209.119 230,213.5C 228.819,218.56 227.485,223.56 226,228.5C 223.95,232.267 221.117,235.267 217.5,237.5C 212.56,238.365 208.893,236.699 206.5,232.5C 200.115,230.151 193.782,227.818 187.5,225.5C 187.5,226.833 187.5,228.167 187.5,229.5C 184.221,230.031 182.887,232.031 183.5,235.5C 185.167,235.5 186.833,235.5 188.5,235.5C 188.5,234.167 188.5,232.833 188.5,231.5C 191.167,231.5 193.833,231.5 196.5,231.5C 196.5,232.833 196.5,234.167 196.5,235.5C 194.833,235.5 193.167,235.5 191.5,235.5C 191.5,236.833 191.5,238.167 191.5,239.5C 194.56,238.025 197.727,236.692 201,235.5C 204.605,235.584 205.105,236.584 202.5,238.5C 200.167,239.167 197.833,239.833 195.5,240.5C 197.333,240.833 199.167,241.167 201,241.5C 205.141,240.553 209.308,239.886 213.5,239.5C 211.745,240.792 209.745,241.792 207.5,242.5C 201.167,243.833 194.833,243.833 188.5,242.5C 184.514,239.843 180.847,236.843 177.5,233.5C 172.98,227.394 169.647,220.727 167.5,213.5C 167.5,212.833 167.5,212.167 167.5,211.5C 167.5,203.5 167.5,195.5 167.5,187.5C 169.045,188.23 169.878,189.563 170,191.5C 171,187.5 172,183.5 173,179.5C 173.667,182.167 174.333,182.167 175,179.5C 175.497,176.854 175.664,174.187 175.5,171.5C 179.165,170.329 182.498,168.495 185.5,166C 189.224,165.203 192.89,164.203 196.5,163C 196.167,162.667 195.833,162.333 195.5,162C 206.247,161.687 216.247,164.187 225.5,169.5C 225.833,170.167 226.167,170.833 226.5,171.5C 228.061,174.943 228.894,178.61 229,182.5C 231.346,186.855 234.846,189.688 239.5,191C 250.161,191.5 260.828,191.667 271.5,191.5C 272.819,187.206 274.985,183.206 278,179.5C 278.78,177.613 278.613,175.946 277.5,174.5C 278.463,170.204 278.629,165.871 278,161.5C 277.76,159.148 276.927,157.148 275.5,155.5C 272.574,144.977 267.574,135.644 260.5,127.5C 245.151,112.967 227.484,104.967 207.5,103.5C 204.402,102.179 200.902,101.512 197,101.5C 193.098,101.512 189.598,102.179 186.5,103.5C 173.964,105.44 162.631,110.107 152.5,117.5C 144.092,122.24 137.759,128.907 133.5,137.5C 132.326,138.514 131.66,139.847 131.5,141.5C 130.518,142.141 129.518,142.807 128.5,143.5C 125.789,150.239 123.123,156.906 120.5,163.5C 119.105,167.515 117.605,171.515 116,175.5C 115.5,186.161 115.333,196.828 115.5,207.5C 114.853,208.274 114.52,209.274 114.5,210.5C 115.872,218.108 116.872,225.774 117.5,233.5C 120.557,242.915 123.557,252.248 126.5,261.5C 127.5,261.5 128.5,261.5 129.5,261.5C 130.021,268.922 131.188,276.256 133,283.5C 133.333,290.167 133.667,296.833 134,303.5C 136.789,306.129 138.789,305.462 140,301.5C 140.499,296.845 140.666,292.179 140.5,287.5C 141.978,287.238 143.311,287.571 144.5,288.5C 146.227,291.287 147.394,294.287 148,297.5C 149.895,310.895 151.395,325.562 152.5,341.5C 152.5,342.833 152.5,344.167 152.5,345.5C 151.5,345.5 150.5,345.5 149.5,345.5C 132.675,338.528 115.675,331.695 98.5,325C 95.7246,322.393 92.3912,321.06 88.5,321C 86.9095,319.954 85.4095,318.787 84,317.5C 74.1508,295.792 64.8174,273.792 56,251.5C 54.0137,247.18 51.8471,243.18 49.5,239.5C 47.2463,231 43.913,223 39.5,215.5C 38.4415,214.4 37.6082,213.066 37,211.5C 36.2709,208.145 35.4376,204.812 34.5,201.5C 47.5976,170.483 60.0976,139.149 72,107.5C 73.8035,102.56 76.1368,97.893 79,93.5C 79.4955,91.5273 79.6621,89.5273 79.5,87.5C 118.177,69.7043 157.344,53.0377 197,37.5C 198.833,37.6667 200.667,37.8333 202.5,38C 212.286,42.8947 222.286,47.228 232.5,51C 236.689,51.5064 240.689,52.6731 244.5,54.5C 252.797,59.8855 261.797,63.5522 271.5,65.5 Z"/></g>
<g><path style="opacity:1" fill="#c8e9dd" d="M 271.5,65.5 C 277.573,67.9183 283.907,69.585 290.5,70.5C 293.804,72.6271 296.804,74.9605 299.5,77.5C 292.051,74.275 284.384,71.4416 276.5,69C 274.404,68.2635 272.737,67.0968 271.5,65.5 Z"/></g>
<g><path style="opacity:1" fill="#83e5d6" d="M 207.5,103.5 C 200.5,103.5 193.5,103.5 186.5,103.5C 189.598,102.179 193.098,101.512 197,101.5C 200.902,101.512 204.402,102.179 207.5,103.5 Z"/></g>
<g><path style="opacity:1" fill="#e4e4d3" d="M 186.5,103.5 C 193.5,103.5 200.5,103.5 207.5,103.5C 227.484,104.967 245.151,112.967 260.5,127.5C 260.511,129.547 260.844,131.547 261.5,133.5C 258.678,136.535 259.012,139.202 262.5,141.5C 263.48,140.019 264.647,138.685 266,137.5C 267.092,140.044 267.759,142.711 268,145.5C 269.388,146.736 270.554,148.069 271.5,149.5C 265.491,150.382 260.158,149.048 255.5,145.5C 248.733,141.946 242.066,138.113 235.5,134C 231.779,133.356 228.113,132.523 224.5,131.5C 223.571,130.311 223.238,128.978 223.5,127.5C 215.676,126.787 207.842,126.121 200,125.5C 193.494,126.304 186.994,127.138 180.5,128C 174.221,133.147 167.554,137.813 160.5,142C 160.335,143.117 160.002,144.284 159.5,145.5C 156.874,146.293 155.04,147.96 154,150.5C 153.667,150.167 153.333,149.833 153,149.5C 149.324,151.876 146.324,154.876 144,158.5C 143.667,159.833 143.333,161.167 143,162.5C 139.73,164.267 136.897,166.6 134.5,169.5C 132.707,174.752 130.041,179.419 126.5,183.5C 125.167,182.167 123.833,180.833 122.5,179.5C 121.505,184.792 121.172,190.125 121.5,195.5C 119.869,199.232 118.869,203.232 118.5,207.5C 117.833,207.5 117.167,207.5 116.5,207.5C 116.167,207.5 115.833,207.5 115.5,207.5C 115.333,196.828 115.5,186.161 116,175.5C 117.605,171.515 119.105,167.515 120.5,163.5C 122.176,162.817 122.843,161.483 122.5,159.5C 124.167,159.5 125.833,159.5 127.5,159.5C 127.5,158.167 127.5,156.833 127.5,155.5C 138.167,154.833 138.167,154.167 127.5,153.5C 128.833,149.5 130.167,145.5 131.5,141.5C 131.66,139.847 132.326,138.514 133.5,137.5C 135.409,134.909 138.075,133.242 141.5,132.5C 142.946,130.382 143.613,128.049 143.5,125.5C 146.375,124.316 149.042,122.649 151.5,120.5C 152.127,119.583 152.461,118.583 152.5,117.5C 162.631,110.107 173.964,105.44 186.5,103.5 Z"/></g>
<g><path style="opacity:1" fill="#d2ebde" d="M 152.5,117.5 C 152.461,118.583 152.127,119.583 151.5,120.5C 149.042,122.649 146.375,124.316 143.5,125.5C 143.613,128.049 142.946,130.382 141.5,132.5C 138.075,133.242 135.409,134.909 133.5,137.5C 137.759,128.907 144.092,122.24 152.5,117.5 Z"/></g>
<g><path style="opacity:1" fill="#d1ecdc" d="M 260.5,127.5 C 267.574,135.644 272.574,144.977 275.5,155.5C 274.778,155.082 274.278,154.416 274,153.5C 273.577,154.956 272.744,155.456 271.5,155C 272.138,153.293 272.138,151.46 271.5,149.5C 270.554,148.069 269.388,146.736 268,145.5C 267.759,142.711 267.092,140.044 266,137.5C 264.647,138.685 263.48,140.019 262.5,141.5C 259.012,139.202 258.678,136.535 261.5,133.5C 260.844,131.547 260.511,129.547 260.5,127.5 Z"/></g>
<g><path style="opacity:1" fill="#f4f7ef" d="M 236.5,179.5 C 234.771,178.883 233.271,177.883 232,176.5C 230.812,172.387 228.979,168.72 226.5,165.5C 225.474,162.628 223.808,160.128 221.5,158C 209.535,150.482 197.201,149.648 184.5,155.5C 185.378,152.944 186.711,150.61 188.5,148.5C 190.966,147.877 193.299,147.043 195.5,146C 194.5,145.667 193.5,145.333 192.5,145C 196.127,142.904 199.96,141.404 204,140.5C 209.984,142.424 215.817,144.758 221.5,147.5C 223.392,146.527 225.392,145.86 227.5,145.5C 231.407,146.811 235.407,147.478 239.5,147.5C 239.5,149.5 239.5,151.5 239.5,153.5C 243.324,153.735 245.324,155.735 245.5,159.5C 246.822,159.33 247.989,159.663 249,160.5C 249.976,164.816 251.976,168.483 255,171.5C 255.495,173.473 255.662,175.473 255.5,177.5C 250.167,177.5 244.833,177.5 239.5,177.5C 237.184,171.243 235.017,164.91 233,158.5C 231.036,155.013 228.536,152.68 225.5,151.5C 223.744,153.191 223.244,155.191 224,157.5C 228.46,164.763 232.626,172.096 236.5,179.5 Z"/></g>
<g><path style="opacity:1" fill="#efeee1" d="M 255.5,145.5 C 260.158,149.048 265.491,150.382 271.5,149.5C 272.138,151.46 272.138,153.293 271.5,155C 272.744,155.456 273.577,154.956 274,153.5C 274.278,154.416 274.778,155.082 275.5,155.5C 276.927,157.148 277.76,159.148 278,161.5C 278.629,165.871 278.463,170.204 277.5,174.5C 276.833,175.833 275.833,176.833 274.5,177.5C 261.974,179.377 249.307,180.044 236.5,179.5C 232.626,172.096 228.46,164.763 224,157.5C 223.244,155.191 223.744,153.191 225.5,151.5C 228.536,152.68 231.036,155.013 233,158.5C 235.017,164.91 237.184,171.243 239.5,177.5C 244.833,177.5 250.167,177.5 255.5,177.5C 255.662,175.473 255.495,173.473 255,171.5C 251.976,168.483 249.976,164.816 249,160.5C 247.989,159.663 246.822,159.33 245.5,159.5C 245.324,155.735 243.324,153.735 239.5,153.5C 239.5,151.5 239.5,149.5 239.5,147.5C 235.407,147.478 231.407,146.811 227.5,145.5C 225.392,145.86 223.392,146.527 221.5,147.5C 215.817,144.758 209.984,142.424 204,140.5C 199.96,141.404 196.127,142.904 192.5,145C 193.5,145.333 194.5,145.667 195.5,146C 193.299,147.043 190.966,147.877 188.5,148.5C 186.711,150.61 185.378,152.944 184.5,155.5C 184.167,155.5 183.833,155.5 183.5,155.5C 181.833,155.5 180.167,155.5 178.5,155.5C 178.5,154.167 178.5,152.833 178.5,151.5C 180.604,151.799 182.604,151.466 184.5,150.5C 183.675,149.614 182.675,149.281 181.5,149.5C 181.785,144.545 184.118,140.878 188.5,138.5C 198.506,134.055 208.173,134.555 217.5,140C 222.506,140.85 227.339,140.35 232,138.5C 236.575,141.865 241.742,143.698 247.5,144C 250,144.885 252.333,146.052 254.5,147.5C 255.298,147.043 255.631,146.376 255.5,145.5 Z"/></g>
<g><path style="opacity:1" fill="#eae9d9" d="M 255.5,145.5 C 255.631,146.376 255.298,147.043 254.5,147.5C 252.333,146.052 250,144.885 247.5,144C 241.742,143.698 236.575,141.865 232,138.5C 227.339,140.35 222.506,140.85 217.5,140C 208.173,134.555 198.506,134.055 188.5,138.5C 184.118,140.878 181.785,144.545 181.5,149.5C 182.675,149.281 183.675,149.614 184.5,150.5C 182.604,151.466 180.604,151.799 178.5,151.5C 178.5,152.833 178.5,154.167 178.5,155.5C 180.167,155.5 181.833,155.5 183.5,155.5C 177.147,160.876 172.814,167.543 170.5,175.5C 170.167,175.5 169.833,175.5 169.5,175.5C 168.167,175.5 166.833,175.5 165.5,175.5C 165.799,177.604 165.466,179.604 164.5,181.5C 162.796,179.359 161.13,177.359 159.5,175.5C 156.27,175.561 154.437,177.228 154,180.5C 150.965,181.184 148.631,182.851 147,185.5C 145.627,183.305 145.294,180.971 146,178.5C 148.191,172.255 150.358,166.089 152.5,160C 151.725,158.77 150.725,158.437 149.5,159C 145.756,161.574 143.423,165.074 142.5,169.5C 138.515,172.145 136.181,175.812 135.5,180.5C 133.844,182.329 131.844,183.663 129.5,184.5C 130.341,187.978 129.341,190.978 126.5,193.5C 125.808,192.975 125.308,192.308 125,191.5C 124.26,193.319 123.093,194.652 121.5,195.5C 121.172,190.125 121.505,184.792 122.5,179.5C 123.833,180.833 125.167,182.167 126.5,183.5C 130.041,179.419 132.707,174.752 134.5,169.5C 136.897,166.6 139.73,164.267 143,162.5C 143.333,161.167 143.667,159.833 144,158.5C 146.324,154.876 149.324,151.876 153,149.5C 153.333,149.833 153.667,150.167 154,150.5C 155.04,147.96 156.874,146.293 159.5,145.5C 160.002,144.284 160.335,143.117 160.5,142C 167.554,137.813 174.221,133.147 180.5,128C 186.994,127.138 193.494,126.304 200,125.5C 207.842,126.121 215.676,126.787 223.5,127.5C 223.238,128.978 223.571,130.311 224.5,131.5C 228.113,132.523 231.779,133.356 235.5,134C 242.066,138.113 248.733,141.946 255.5,145.5 Z"/></g>
<g><path style="opacity:1" fill="#cfebda" d="M 131.5,141.5 C 130.167,145.5 128.833,149.5 127.5,153.5C 138.167,154.167 138.167,154.833 127.5,155.5C 127.5,156.833 127.5,158.167 127.5,159.5C 125.833,159.5 124.167,159.5 122.5,159.5C 122.843,161.483 122.176,162.817 120.5,163.5C 123.123,156.906 125.789,150.239 128.5,143.5C 129.518,142.807 130.518,142.141 131.5,141.5 Z"/></g>
<g><path style="opacity:1" fill="#239f9c" d="M 226.5,165.5 C 221.536,164.002 216.536,162.502 211.5,161C 210.845,159.513 209.845,158.347 208.5,157.5C 203.822,157.506 199.155,157.506 194.5,157.5C 190.38,158.816 186.38,160.316 182.5,162C 178.241,166.379 174.241,170.879 170.5,175.5C 172.814,167.543 177.147,160.876 183.5,155.5C 183.833,155.5 184.167,155.5 184.5,155.5C 197.201,149.648 209.535,150.482 221.5,158C 223.808,160.128 225.474,162.628 226.5,165.5 Z"/></g>
<g><path style="opacity:1" fill="#16bcbe" d="M 226.5,165.5 C 226.567,166.959 226.234,168.292 225.5,169.5C 216.247,164.187 206.247,161.687 195.5,162C 195.833,162.333 196.167,162.667 196.5,163C 192.89,164.203 189.224,165.203 185.5,166C 182.498,168.495 179.165,170.329 175.5,171.5C 175.664,174.187 175.497,176.854 175,179.5C 174.333,182.167 173.667,182.167 173,179.5C 172,183.5 171,187.5 170,191.5C 169.878,189.563 169.045,188.23 167.5,187.5C 168.038,183.476 168.705,179.476 169.5,175.5C 169.833,175.5 170.167,175.5 170.5,175.5C 174.241,170.879 178.241,166.379 182.5,162C 186.38,160.316 190.38,158.816 194.5,157.5C 199.155,157.506 203.822,157.506 208.5,157.5C 209.845,158.347 210.845,159.513 211.5,161C 216.536,162.502 221.536,164.002 226.5,165.5 Z"/></g>
<g><path style="opacity:1" fill="#0d201e" d="M 209.5,177.5 C 207.095,177.134 204.762,176.467 202.5,175.5C 200.962,175.453 199.962,176.12 199.5,177.5C 196.316,178.643 192.983,179.309 189.5,179.5C 191.445,176.338 194.112,173.838 197.5,172C 203.212,170.245 207.545,171.911 210.5,177C 210.272,177.399 209.938,177.565 209.5,177.5 Z"/></g>
<g><path style="opacity:1" fill="#6e6c73" d="M 209.5,177.5 C 209.5,178.167 209.5,178.833 209.5,179.5C 207.657,180.043 205.99,179.376 204.5,177.5C 203.478,177.855 202.811,178.522 202.5,179.5C 201.833,179.5 201.167,179.5 200.5,179.5C 200.167,178.833 199.833,178.167 199.5,177.5C 199.962,176.12 200.962,175.453 202.5,175.5C 204.762,176.467 207.095,177.134 209.5,177.5 Z"/></g>
<g><path style="opacity:1" fill="#f2f2e5" d="M 159.5,175.5 C 159.785,177.288 159.452,178.955 158.5,180.5C 154.88,182.952 151.713,185.952 149,189.5C 147.193,195.392 146.026,201.392 145.5,207.5C 143.5,207.5 141.5,207.5 139.5,207.5C 141.191,196.79 142.525,186.124 143.5,175.5C 141.833,175.5 140.167,175.5 138.5,175.5C 139.62,180.962 137.953,185.295 133.5,188.5C 130.713,193.287 128.38,198.287 126.5,203.5C 124.88,200.942 123.38,200.942 122,203.5C 121.857,207.619 121.19,211.619 120,215.5C 118.748,212.986 118.248,210.32 118.5,207.5C 118.869,203.232 119.869,199.232 121.5,195.5C 123.093,194.652 124.26,193.319 125,191.5C 125.308,192.308 125.808,192.975 126.5,193.5C 129.341,190.978 130.341,187.978 129.5,184.5C 131.844,183.663 133.844,182.329 135.5,180.5C 136.181,175.812 138.515,172.145 142.5,169.5C 143.423,165.074 145.756,161.574 149.5,159C 150.725,158.437 151.725,158.77 152.5,160C 150.358,166.089 148.191,172.255 146,178.5C 145.294,180.971 145.627,183.305 147,185.5C 148.631,182.851 150.965,181.184 154,180.5C 154.437,177.228 156.27,175.561 159.5,175.5 Z"/></g>
<g><path style="opacity:1" fill="#15303a" d="M 209.5,179.5 C 208.789,181.842 207.456,182.175 205.5,180.5C 204.791,179.596 203.791,179.263 202.5,179.5C 202.811,178.522 203.478,177.855 204.5,177.5C 205.99,179.376 207.657,180.043 209.5,179.5 Z"/></g>
<g><path style="opacity:1" fill="#247f7f" d="M 200.5,179.5 C 201.167,179.5 201.833,179.5 202.5,179.5C 203.791,179.263 204.791,179.596 205.5,180.5C 203.097,180.448 200.764,180.781 198.5,181.5C 198.833,180.5 199.5,179.833 200.5,179.5 Z"/></g>
<g><path style="opacity:1" fill="#2ca2a1" d="M 226.5,165.5 C 228.979,168.72 230.812,172.387 232,176.5C 233.271,177.883 234.771,178.883 236.5,179.5C 236.918,180.222 237.584,180.722 238.5,181C 249.5,181.667 260.5,181.667 271.5,181C 272.373,179.955 273.373,179.122 274.5,178.5C 274.938,178.435 275.272,178.601 275.5,179C 273.294,180.684 271.794,182.851 271,185.5C 269.601,186.227 268.101,186.727 266.5,187C 256.816,187.832 247.149,187.665 237.5,186.5C 235.058,184.956 233.058,182.956 231.5,180.5C 230.805,177.72 229.805,175.053 228.5,172.5C 228.043,171.702 227.376,171.369 226.5,171.5C 226.167,170.833 225.833,170.167 225.5,169.5C 226.234,168.292 226.567,166.959 226.5,165.5 Z"/></g>
<g><path style="opacity:1" fill="#368d8d" d="M 195.5,185.5 C 194.771,190.13 194.437,194.797 194.5,199.5C 193.833,197.5 193.167,195.5 192.5,193.5C 193.742,191.389 193.742,189.389 192.5,187.5C 193.29,186.599 194.29,185.932 195.5,185.5 Z"/></g>
<g><path style="opacity:1" fill="#10b8ba" d="M 226.5,171.5 C 227.376,171.369 228.043,171.702 228.5,172.5C 229.805,175.053 230.805,177.72 231.5,180.5C 233.058,182.956 235.058,184.956 237.5,186.5C 247.149,187.665 256.816,187.832 266.5,187C 268.101,186.727 269.601,186.227 271,185.5C 271.794,182.851 273.294,180.684 275.5,179C 275.272,178.601 274.938,178.435 274.5,178.5C 274.5,178.167 274.5,177.833 274.5,177.5C 275.833,176.833 276.833,175.833 277.5,174.5C 278.613,175.946 278.78,177.613 278,179.5C 274.985,183.206 272.819,187.206 271.5,191.5C 260.828,191.667 250.161,191.5 239.5,191C 234.846,189.688 231.346,186.855 229,182.5C 228.894,178.61 228.061,174.943 226.5,171.5 Z"/></g>
<g><path style="opacity:1" fill="#def8eb" d="M 274.5,177.5 C 274.5,177.833 274.5,178.167 274.5,178.5C 273.373,179.122 272.373,179.955 271.5,181C 260.5,181.667 249.5,181.667 238.5,181C 237.584,180.722 236.918,180.222 236.5,179.5C 249.307,180.044 261.974,179.377 274.5,177.5 Z"/></g>
<g><path style="opacity:1" fill="#cecdd7" d="M 192.5,187.5 C 193.742,189.389 193.742,191.389 192.5,193.5C 191.662,193.842 191.328,194.508 191.5,195.5C 190.566,194.432 190.232,193.099 190.5,191.5C 190.733,189.938 191.4,188.605 192.5,187.5 Z"/></g>
<g><path style="opacity:1" fill="#f6f8f2" d="M 159.5,175.5 C 161.13,177.359 162.796,179.359 164.5,181.5C 165.466,179.604 165.799,177.604 165.5,175.5C 166.833,175.5 168.167,175.5 169.5,175.5C 168.705,179.476 168.038,183.476 167.5,187.5C 167.5,195.5 167.5,203.5 167.5,211.5C 166.082,207.713 165.082,203.713 164.5,199.5C 164.005,197.518 163.505,195.518 163,193.5C 158.816,197.501 155.482,202.167 153,207.5C 152.374,205.009 151.541,205.009 150.5,207.5C 149.155,218.195 149.322,228.862 151,239.5C 154.932,243.228 155.599,247.228 153,251.5C 149.833,249.667 147.333,247.167 145.5,244C 146.167,243.667 146.833,243.333 147.5,243C 146.845,241.513 145.845,240.347 144.5,239.5C 139.652,244.515 134.652,249.348 129.5,254C 130.109,255.948 130.776,257.782 131.5,259.5C 133.074,259.937 134.241,260.937 135,262.5C 135.302,266.611 136.136,270.611 137.5,274.5C 137.167,275.5 136.833,276.5 136.5,277.5C 135.792,275.255 134.792,273.255 133.5,271.5C 131.863,268.283 130.53,264.95 129.5,261.5C 128.286,258.07 126.786,254.736 125,251.5C 119.934,237.241 117.101,222.574 116.5,207.5C 117.167,207.5 117.833,207.5 118.5,207.5C 118.248,210.32 118.748,212.986 120,215.5C 121.19,211.619 121.857,207.619 122,203.5C 123.38,200.942 124.88,200.942 126.5,203.5C 128.38,198.287 130.713,193.287 133.5,188.5C 137.953,185.295 139.62,180.962 138.5,175.5C 140.167,175.5 141.833,175.5 143.5,175.5C 142.525,186.124 141.191,196.79 139.5,207.5C 141.5,207.5 143.5,207.5 145.5,207.5C 146.026,201.392 147.193,195.392 149,189.5C 151.713,185.952 154.88,182.952 158.5,180.5C 159.452,178.955 159.785,177.288 159.5,175.5 Z"/></g>
<g><path style="opacity:1" fill="#093533" d="M 205.5,191.5 C 205.5,191.167 205.5,190.833 205.5,190.5C 208.32,190.248 210.986,190.748 213.5,192C 214.801,193.616 214.801,195.116 213.5,196.5C 213.5,195.5 213.5,194.5 213.5,193.5C 210.975,192.36 208.308,191.693 205.5,191.5 Z"/></g>
<g><path style="opacity:1" fill="#181f1e" d="M 205.5,191.5 C 208.308,191.693 210.975,192.36 213.5,193.5C 213.5,194.5 213.5,195.5 213.5,196.5C 212.448,196.351 211.448,196.517 210.5,197C 210.962,198.722 211.128,200.555 211,202.5C 211.383,201.944 211.883,201.611 212.5,201.5C 215.051,204.206 216.051,207.206 215.5,210.5C 213.168,207.891 210.835,205.225 208.5,202.5C 206.622,201.792 204.955,200.626 203.5,199C 206.332,197.092 205.999,196.259 202.5,196.5C 201.916,193.715 202.916,192.048 205.5,191.5 Z"/></g>
<g><path style="opacity:1" fill="#b2cac2" d="M 213.5,196.5 C 213.634,198.292 213.301,199.958 212.5,201.5C 211.883,201.611 211.383,201.944 211,202.5C 211.128,200.555 210.962,198.722 210.5,197C 211.448,196.517 212.448,196.351 213.5,196.5 Z"/></g>
<g><path style="opacity:1" fill="#31b8bc" d="M 205.5,190.5 C 208.909,188.986 212.242,189.32 215.5,191.5C 218.284,202.82 218.617,214.154 216.5,225.5C 214.833,225.5 213.167,225.5 211.5,225.5C 211.833,224.833 212.167,224.167 212.5,223.5C 214.767,221.407 216.1,218.741 216.5,215.5C 216.547,213.962 215.88,212.962 214.5,212.5C 214.833,211.833 215.167,211.167 215.5,210.5C 216.051,207.206 215.051,204.206 212.5,201.5C 213.301,199.958 213.634,198.292 213.5,196.5C 214.801,195.116 214.801,193.616 213.5,192C 210.986,190.748 208.32,190.248 205.5,190.5 Z"/></g>
<g><path style="opacity:1" fill="#736f75" d="M 190.5,191.5 C 190.232,193.099 190.566,194.432 191.5,195.5C 191.712,200.678 192.712,205.678 194.5,210.5C 193.21,209.942 192.377,208.942 192,207.5C 189.823,202.136 189.323,196.802 190.5,191.5 Z"/></g>
<g><path style="opacity:1" fill="#53878b" d="M 182.5,201.5 C 183.222,201.918 183.722,202.584 184,203.5C 184.278,202.584 184.778,201.918 185.5,201.5C 185.483,203.565 185.15,205.565 184.5,207.5C 182.926,205.898 182.259,203.898 182.5,201.5 Z"/></g>
<g><path style="opacity:1" fill="#b0c4c4" d="M 185.5,201.5 C 185.833,201.5 186.167,201.5 186.5,201.5C 187.207,204.786 187.54,208.119 187.5,211.5C 186.143,210.41 185.143,209.076 184.5,207.5C 185.15,205.565 185.483,203.565 185.5,201.5 Z"/></g>
<g><path style="opacity:1" fill="#e4e4d2" d="M 164.5,199.5 C 165.082,203.713 166.082,207.713 167.5,211.5C 167.5,212.167 167.5,212.833 167.5,213.5C 167.154,218.216 166.487,222.883 165.5,227.5C 167.833,227.5 170.167,227.5 172.5,227.5C 172.377,231.04 174.043,233.04 177.5,233.5C 180.847,236.843 184.514,239.843 188.5,242.5C 194.833,243.833 201.167,243.833 207.5,242.5C 209.745,241.792 211.745,240.792 213.5,239.5C 215.153,239.34 216.486,238.674 217.5,237.5C 221.117,235.267 223.95,232.267 226,228.5C 227.485,223.56 228.819,218.56 230,213.5C 231.614,209.119 234.78,206.786 239.5,206.5C 249.149,205.335 258.816,205.168 268.5,206C 272.589,207.034 275.255,209.534 276.5,213.5C 276.416,218.615 275.416,223.282 273.5,227.5C 273.813,224.753 273.48,222.086 272.5,219.5C 271.571,220.689 271.238,222.022 271.5,223.5C 270.5,223.5 269.5,223.5 268.5,223.5C 268.684,226.321 267.351,227.988 264.5,228.5C 263.614,229.325 263.281,230.325 263.5,231.5C 255.625,234.523 248.625,239.023 242.5,245C 240.865,245.54 239.532,245.04 238.5,243.5C 237.813,245.274 236.98,246.941 236,248.5C 234.951,247.483 233.784,247.316 232.5,248C 230.482,249.857 228.815,252.024 227.5,254.5C 226.311,255.429 224.978,255.762 223.5,255.5C 221.664,258.637 218.997,261.137 215.5,263C 200.257,266.305 185.924,264.138 172.5,256.5C 170.249,253.705 167.582,251.372 164.5,249.5C 163.453,246.29 161.786,243.456 159.5,241C 161.282,239.322 161.615,237.489 160.5,235.5C 159.749,236.376 159.249,237.376 159,238.5C 157.383,237.464 157.216,236.297 158.5,235C 155.557,230.29 154.724,225.123 156,219.5C 156.642,215.246 157.809,211.246 159.5,207.5C 161.182,205.844 161.848,203.177 161.5,199.5C 162.5,199.5 163.5,199.5 164.5,199.5 Z"/></g>
<g><path style="opacity:1" fill="#121919" d="M 192.5,193.5 C 193.167,195.5 193.833,197.5 194.5,199.5C 195.835,203.669 197.835,207.502 200.5,211C 201.833,211.667 203.167,211.667 204.5,211C 205.926,208.955 206.926,206.788 207.5,204.5C 209.884,205.425 210.884,207.258 210.5,210C 209.62,216.942 205.953,218.942 199.5,216C 198.167,213.809 196.5,211.976 194.5,210.5C 192.712,205.678 191.712,200.678 191.5,195.5C 191.328,194.508 191.662,193.842 192.5,193.5 Z"/></g>
<g><path style="opacity:1" fill="#828281" d="M 208.5,202.5 C 210.835,205.225 213.168,207.891 215.5,210.5C 215.167,211.167 214.833,211.833 214.5,212.5C 213.542,212.047 212.708,211.381 212,210.5C 211.621,213.03 210.787,215.363 209.5,217.5C 201.935,220.886 196.935,218.553 194.5,210.5C 196.5,211.976 198.167,213.809 199.5,216C 205.953,218.942 209.62,216.942 210.5,210C 210.884,207.258 209.884,205.425 207.5,204.5C 205.969,203.075 206.302,202.409 208.5,202.5 Z"/></g>
<g><path style="opacity:1" fill="#141718" d="M 199.5,177.5 C 199.833,178.167 200.167,178.833 200.5,179.5C 199.5,179.833 198.833,180.5 198.5,181.5C 196.738,182.262 195.738,183.596 195.5,185.5C 194.29,185.932 193.29,186.599 192.5,187.5C 191.4,188.605 190.733,189.938 190.5,191.5C 189.323,196.802 189.823,202.136 192,207.5C 192.377,208.942 193.21,209.942 194.5,210.5C 196.935,218.553 201.935,220.886 209.5,217.5C 209.389,218.117 209.056,218.617 208.5,219C 205.576,219.988 202.576,220.654 199.5,221C 200.044,221.717 200.711,222.217 201.5,222.5C 202.916,224.179 204.25,225.846 205.5,227.5C 196.062,226.064 190.062,220.73 187.5,211.5C 187.54,208.119 187.207,204.786 186.5,201.5C 186.335,198.482 186.502,195.482 187,192.5C 188.834,188.742 190.5,185.075 192,181.5C 186.15,186.92 183.983,193.587 185.5,201.5C 184.778,201.918 184.278,202.584 184,203.5C 183.722,202.584 183.222,201.918 182.5,201.5C 180.234,192.524 182.568,185.19 189.5,179.5C 192.983,179.309 196.316,178.643 199.5,177.5 Z"/></g>
<g><path style="opacity:1" fill="#797670" d="M 186.5,201.5 C 186.167,201.5 185.833,201.5 185.5,201.5C 183.983,193.587 186.15,186.92 192,181.5C 190.5,185.075 188.834,188.742 187,192.5C 186.502,195.482 186.335,198.482 186.5,201.5 Z"/></g>
<g><path style="opacity:1" fill="#0f1514" d="M 214.5,212.5 C 215.88,212.962 216.547,213.962 216.5,215.5C 216.1,218.741 214.767,221.407 212.5,223.5C 211.566,222.432 211.232,221.099 211.5,219.5C 211.5,218.167 210.833,217.5 209.5,217.5C 210.787,215.363 211.621,213.03 212,210.5C 212.708,211.381 213.542,212.047 214.5,212.5 Z"/></g>
<g><path style="opacity:1" fill="#d2ebd8" d="M 167.5,213.5 C 169.647,220.727 172.98,227.394 177.5,233.5C 174.043,233.04 172.377,231.04 172.5,227.5C 170.167,227.5 167.833,227.5 165.5,227.5C 166.487,222.883 167.154,218.216 167.5,213.5 Z"/></g>
<g><path style="opacity:1" fill="#a6a9a7" d="M 209.5,217.5 C 210.833,217.5 211.5,218.167 211.5,219.5C 210.163,220.315 209.163,221.482 208.5,223C 206.115,223.556 203.782,223.39 201.5,222.5C 200.711,222.217 200.044,221.717 199.5,221C 202.576,220.654 205.576,219.988 208.5,219C 209.056,218.617 209.389,218.117 209.5,217.5 Z"/></g>
<g><path style="opacity:1" fill="#c5eadf" d="M 39.5,215.5 C 43.913,223 47.2463,231 49.5,239.5C 44.3676,232.371 41.0342,224.371 39.5,215.5 Z"/></g>
<g><path style="opacity:1" fill="#f1f6ed" d="M 276.5,213.5 C 277.645,217.311 277.812,221.311 277,225.5C 275.512,230.784 274.345,236.117 273.5,241.5C 271.941,246.633 269.774,251.633 267,256.5C 262.537,261.116 258.703,266.116 255.5,271.5C 255.773,269.549 255.107,268.049 253.5,267C 253.833,266.667 254.167,266.333 254.5,266C 252.793,265.805 251.126,265.805 249.5,266C 252.5,265 255.5,264 258.5,263C 257.333,262.5 256.5,261.667 256,260.5C 254.12,261.93 252.62,261.596 251.5,259.5C 248.5,258.833 245.5,258.167 242.5,257.5C 242.709,256.914 243.043,256.414 243.5,256C 238.27,255.091 238.27,253.925 243.5,252.5C 245.325,249.648 247.325,246.982 249.5,244.5C 256.719,240.058 264.386,236.392 272.5,233.5C 272.498,231.463 272.832,229.463 273.5,227.5C 275.416,223.282 276.416,218.615 276.5,213.5 Z"/></g>
<g><path style="opacity:1" fill="#f3f2e6" d="M 164.5,199.5 C 163.5,199.5 162.5,199.5 161.5,199.5C 161.848,203.177 161.182,205.844 159.5,207.5C 156.612,207.22 155.112,208.553 155,211.5C 153.537,220.824 153.37,230.158 154.5,239.5C 156.604,242.71 158.437,246.043 160,249.5C 161.667,251.167 163.333,252.833 165,254.5C 165.798,256.259 165.631,257.926 164.5,259.5C 156.62,255.11 148.287,253.777 139.5,255.5C 141.085,260.678 141.752,266.012 141.5,271.5C 140.5,271.5 139.5,271.5 138.5,271.5C 137.927,266.058 136.927,260.724 135.5,255.5C 134.167,255.5 132.833,255.5 131.5,255.5C 131.5,256.833 131.5,258.167 131.5,259.5C 130.776,257.782 130.109,255.948 129.5,254C 134.652,249.348 139.652,244.515 144.5,239.5C 145.845,240.347 146.845,241.513 147.5,243C 146.833,243.333 146.167,243.667 145.5,244C 147.333,247.167 149.833,249.667 153,251.5C 155.599,247.228 154.932,243.228 151,239.5C 149.322,228.862 149.155,218.195 150.5,207.5C 151.541,205.009 152.374,205.009 153,207.5C 155.482,202.167 158.816,197.501 163,193.5C 163.505,195.518 164.005,197.518 164.5,199.5 Z"/></g>
<g><path style="opacity:1" fill="#46b3b4" d="M 115.5,207.5 C 115.833,207.5 116.167,207.5 116.5,207.5C 117.101,222.574 119.934,237.241 125,251.5C 126.786,254.736 128.286,258.07 129.5,261.5C 128.5,261.5 127.5,261.5 126.5,261.5C 123.557,252.248 120.557,242.915 117.5,233.5C 116.872,225.774 115.872,218.108 114.5,210.5C 114.52,209.274 114.853,208.274 115.5,207.5 Z"/></g>
<g><path style="opacity:1" fill="#2dafae" d="M 273.5,241.5 C 273.666,245.514 273.499,249.514 273,253.5C 271.099,259.851 268.599,265.851 265.5,271.5C 264.022,271.238 262.689,271.571 261.5,272.5C 260.192,274.641 258.692,276.641 257,278.5C 256.667,277.5 256.333,276.5 256,275.5C 255.66,279.558 254.993,283.558 254,287.5C 253.51,286.207 253.343,284.873 253.5,283.5C 254.038,279.476 254.705,275.476 255.5,271.5C 258.703,266.116 262.537,261.116 267,256.5C 269.774,251.633 271.941,246.633 273.5,241.5 Z"/></g>
<g><path style="opacity:1" fill="#ebeada" d="M 159.5,207.5 C 157.809,211.246 156.642,215.246 156,219.5C 154.724,225.123 155.557,230.29 158.5,235C 157.216,236.297 157.383,237.464 159,238.5C 159.249,237.376 159.749,236.376 160.5,235.5C 161.615,237.489 161.282,239.322 159.5,241C 161.786,243.456 163.453,246.29 164.5,249.5C 167.582,251.372 170.249,253.705 172.5,256.5C 185.924,264.138 200.257,266.305 215.5,263C 218.997,261.137 221.664,258.637 223.5,255.5C 224.978,255.762 226.311,255.429 227.5,254.5C 228.815,252.024 230.482,249.857 232.5,248C 233.784,247.316 234.951,247.483 236,248.5C 236.98,246.941 237.813,245.274 238.5,243.5C 239.532,245.04 240.865,245.54 242.5,245C 248.625,239.023 255.625,234.523 263.5,231.5C 263.281,230.325 263.614,229.325 264.5,228.5C 267.351,227.988 268.684,226.321 268.5,223.5C 269.5,223.5 270.5,223.5 271.5,223.5C 271.238,222.022 271.571,220.689 272.5,219.5C 273.48,222.086 273.813,224.753 273.5,227.5C 272.832,229.463 272.498,231.463 272.5,233.5C 264.386,236.392 256.719,240.058 249.5,244.5C 247.325,246.982 245.325,249.648 243.5,252.5C 238.27,253.925 238.27,255.091 243.5,256C 243.043,256.414 242.709,256.914 242.5,257.5C 245.5,258.167 248.5,258.833 251.5,259.5C 252.62,261.596 254.12,261.93 256,260.5C 256.5,261.667 257.333,262.5 258.5,263C 255.5,264 252.5,265 249.5,266C 251.126,265.805 252.793,265.805 254.5,266C 254.167,266.333 253.833,266.667 253.5,267C 255.107,268.049 255.773,269.549 255.5,271.5C 254.705,275.476 254.038,279.476 253.5,283.5C 252.512,288.64 252.179,293.974 252.5,299.5C 251.5,302.997 249.167,304.831 245.5,305C 243.859,306.129 242.859,307.629 242.5,309.5C 242.167,309.5 241.833,309.5 241.5,309.5C 239.801,309.473 238.467,308.806 237.5,307.5C 237.125,305.302 236.458,303.302 235.5,301.5C 235.489,299.983 234.823,298.816 233.5,298C 229.897,297.157 226.564,297.657 223.5,299.5C 224.141,298.518 224.807,297.518 225.5,296.5C 223.827,294.477 223.16,292.144 223.5,289.5C 220.477,289.895 219.477,288.895 220.5,286.5C 218.774,284.772 217.441,282.772 216.5,280.5C 205.387,278.982 194.22,277.982 183,277.5C 176.777,278.23 172.944,281.564 171.5,287.5C 172.978,287.238 174.311,287.571 175.5,288.5C 171.833,289.167 168.167,289.833 164.5,290.5C 169.371,290.519 171.704,292.852 171.5,297.5C 167.795,295.561 163.795,294.228 159.5,293.5C 159.5,291.5 159.5,289.5 159.5,287.5C 158.325,287.281 157.325,287.614 156.5,288.5C 155.985,290.225 155.318,291.892 154.5,293.5C 153.459,291.009 152.626,291.009 152,293.5C 151.186,290.823 149.686,288.823 147.5,287.5C 145.659,285.151 144.326,282.485 143.5,279.5C 142.032,277.084 141.365,274.417 141.5,271.5C 141.752,266.012 141.085,260.678 139.5,255.5C 148.287,253.777 156.62,255.11 164.5,259.5C 165.631,257.926 165.798,256.259 165,254.5C 163.333,252.833 161.667,251.167 160,249.5C 158.437,246.043 156.604,242.71 154.5,239.5C 153.37,230.158 153.537,220.824 155,211.5C 155.112,208.553 156.612,207.22 159.5,207.5 Z"/></g>
<g><path style="opacity:1" fill="#18cdd3" d="M 217.5,237.5 C 216.486,238.674 215.153,239.34 213.5,239.5C 209.308,239.886 205.141,240.553 201,241.5C 199.167,241.167 197.333,240.833 195.5,240.5C 197.833,239.833 200.167,239.167 202.5,238.5C 205.105,236.584 204.605,235.584 201,235.5C 197.727,236.692 194.56,238.025 191.5,239.5C 191.5,238.167 191.5,236.833 191.5,235.5C 193.167,235.5 194.833,235.5 196.5,235.5C 196.5,234.167 196.5,232.833 196.5,231.5C 193.833,231.5 191.167,231.5 188.5,231.5C 188.5,232.833 188.5,234.167 188.5,235.5C 186.833,235.5 185.167,235.5 183.5,235.5C 182.887,232.031 184.221,230.031 187.5,229.5C 187.5,228.167 187.5,226.833 187.5,225.5C 193.782,227.818 200.115,230.151 206.5,232.5C 208.893,236.699 212.56,238.365 217.5,237.5 Z"/></g>
<g><path style="opacity:1" fill="#425054" d="M 211.5,219.5 C 211.232,221.099 211.566,222.432 212.5,223.5C 212.167,224.167 211.833,224.833 211.5,225.5C 209.703,226.73 207.703,227.396 205.5,227.5C 204.25,225.846 202.916,224.179 201.5,222.5C 203.782,223.39 206.115,223.556 208.5,223C 209.163,221.482 210.163,220.315 211.5,219.5 Z"/></g>
<g><path style="opacity:1" fill="#daeedf" d="M 141.5,271.5 C 141.365,274.417 142.032,277.084 143.5,279.5C 141.914,278.587 140.414,278.587 139,279.5C 139.132,285.493 139.132,291.493 139,297.5C 137.951,299.107 136.451,299.773 134.5,299.5C 134.576,294.652 134.909,289.819 135.5,285C 135.071,280.455 134.404,275.955 133.5,271.5C 134.792,273.255 135.792,275.255 136.5,277.5C 136.833,276.5 137.167,275.5 137.5,274.5C 136.136,270.611 135.302,266.611 135,262.5C 134.241,260.937 133.074,259.937 131.5,259.5C 131.5,258.167 131.5,256.833 131.5,255.5C 132.833,255.5 134.167,255.5 135.5,255.5C 136.927,260.724 137.927,266.058 138.5,271.5C 139.5,271.5 140.5,271.5 141.5,271.5 Z"/></g>
<g><path style="opacity:1" fill="#f5f6ed" d="M 223.5,299.5 C 221.41,299.45 220.077,300.45 219.5,302.5C 220.407,305.421 220.74,308.421 220.5,311.5C 218.801,311.473 217.467,310.806 216.5,309.5C 216.5,308.833 216.5,308.167 216.5,307.5C 216.599,304.763 216.265,302.096 215.5,299.5C 215.5,297.5 215.5,295.5 215.5,293.5C 216.833,293.5 218.167,293.5 219.5,293.5C 219.675,290.671 218.342,289.004 215.5,288.5C 217.679,286.717 217.679,284.717 215.5,282.5C 206.158,281.279 196.824,281.279 187.5,282.5C 185.47,285.565 183.803,288.898 182.5,292.5C 183.098,293.795 183.598,295.128 184,296.5C 187.057,295.549 190.223,295.216 193.5,295.5C 193.5,300.167 193.5,304.833 193.5,309.5C 192.167,309.5 190.833,309.5 189.5,309.5C 189.657,308.127 189.49,306.793 189,305.5C 188.722,306.416 188.222,307.082 187.5,307.5C 188.624,302.837 186.957,300.003 182.5,299C 182.833,298.667 183.167,298.333 183.5,298C 179.514,297.501 175.514,297.334 171.5,297.5C 171.704,292.852 169.371,290.519 164.5,290.5C 168.167,289.833 171.833,289.167 175.5,288.5C 174.311,287.571 172.978,287.238 171.5,287.5C 172.944,281.564 176.777,278.23 183,277.5C 194.22,277.982 205.387,278.982 216.5,280.5C 217.441,282.772 218.774,284.772 220.5,286.5C 219.477,288.895 220.477,289.895 223.5,289.5C 223.16,292.144 223.827,294.477 225.5,296.5C 224.807,297.518 224.141,298.518 223.5,299.5 Z"/></g>
<g><path style="opacity:1" fill="#f9faf6" d="M 215.5,299.5 C 211.719,299.093 208.719,300.426 206.5,303.5C 205.269,302.349 205.269,301.183 206.5,300C 205.256,299.544 204.423,300.044 204,301.5C 203.583,300.244 202.75,299.577 201.5,299.5C 200.022,299.238 198.689,299.571 197.5,300.5C 195.87,303.276 195.203,306.276 195.5,309.5C 194.778,309.918 194.278,310.584 194,311.5C 193.831,318.524 193.331,325.524 192.5,332.5C 191.52,329.914 191.187,327.247 191.5,324.5C 191.932,321.123 191.265,318.123 189.5,315.5C 189.416,312.673 188.75,310.006 187.5,307.5C 188.222,307.082 188.722,306.416 189,305.5C 189.49,306.793 189.657,308.127 189.5,309.5C 190.833,309.5 192.167,309.5 193.5,309.5C 193.5,304.833 193.5,300.167 193.5,295.5C 190.223,295.216 187.057,295.549 184,296.5C 183.598,295.128 183.098,293.795 182.5,292.5C 183.803,288.898 185.47,285.565 187.5,282.5C 196.824,281.279 206.158,281.279 215.5,282.5C 217.679,284.717 217.679,286.717 215.5,288.5C 218.342,289.004 219.675,290.671 219.5,293.5C 218.167,293.5 216.833,293.5 215.5,293.5C 215.5,295.5 215.5,297.5 215.5,299.5 Z"/></g>
<g><path style="opacity:1" fill="#e0efe4" d="M 147.5,287.5 C 149.686,288.823 151.186,290.823 152,293.5C 152.626,291.009 153.459,291.009 154.5,293.5C 155.318,291.892 155.985,290.225 156.5,288.5C 157.325,287.614 158.325,287.281 159.5,287.5C 159.5,289.5 159.5,291.5 159.5,293.5C 163.795,294.228 167.795,295.561 171.5,297.5C 175.514,297.334 179.514,297.501 183.5,298C 183.167,298.333 182.833,298.667 182.5,299C 186.957,300.003 188.624,302.837 187.5,307.5C 186.108,305.727 184.941,303.727 184,301.5C 183.25,300.874 182.416,300.374 181.5,300C 176.167,299.667 170.833,299.333 165.5,299C 163.517,295.371 161.184,294.871 158.5,297.5C 157.505,309.989 157.171,322.656 157.5,335.5C 157.5,340.167 157.5,344.833 157.5,349.5C 156.265,349.721 155.265,350.388 154.5,351.5C 153.571,350.311 153.238,348.978 153.5,347.5C 151.517,347.843 150.183,347.176 149.5,345.5C 150.5,345.5 151.5,345.5 152.5,345.5C 152.5,344.167 152.5,342.833 152.5,341.5C 152.666,327.476 152.166,313.476 151,299.5C 149.537,295.578 148.371,291.578 147.5,287.5 Z"/></g>
<g><path style="opacity:1" fill="#3db1ad" d="M 129.5,261.5 C 130.53,264.95 131.863,268.283 133.5,271.5C 134.404,275.955 135.071,280.455 135.5,285C 134.909,289.819 134.576,294.652 134.5,299.5C 136.451,299.773 137.951,299.107 139,297.5C 139.132,291.493 139.132,285.493 139,279.5C 140.414,278.587 141.914,278.587 143.5,279.5C 144.326,282.485 145.659,285.151 147.5,287.5C 148.371,291.578 149.537,295.578 151,299.5C 152.166,313.476 152.666,327.476 152.5,341.5C 151.395,325.562 149.895,310.895 148,297.5C 147.394,294.287 146.227,291.287 144.5,288.5C 143.311,287.571 141.978,287.238 140.5,287.5C 140.666,292.179 140.499,296.845 140,301.5C 138.789,305.462 136.789,306.129 134,303.5C 133.667,296.833 133.333,290.167 133,283.5C 131.188,276.256 130.021,268.922 129.5,261.5 Z"/></g>
<g><path style="opacity:1" fill="#2a9998" d="M 235.5,301.5 C 232.157,302.224 228.824,303.057 225.5,304C 224.364,305.145 223.364,306.312 222.5,307.5C 222.401,304.763 222.735,302.096 223.5,299.5C 226.564,297.657 229.897,297.157 233.5,298C 234.823,298.816 235.489,299.983 235.5,301.5 Z"/></g>
<g><path style="opacity:1" fill="#259f9d" d="M 187.5,307.5 C 188.75,310.006 189.416,312.673 189.5,315.5C 187.734,312.812 186.067,309.979 184.5,307C 178.275,305.749 171.942,305.083 165.5,305C 163.624,303.983 161.624,303.149 159.5,302.5C 158.691,300.929 158.357,299.262 158.5,297.5C 161.184,294.871 163.517,295.371 165.5,299C 170.833,299.333 176.167,299.667 181.5,300C 182.416,300.374 183.25,300.874 184,301.5C 184.941,303.727 186.108,305.727 187.5,307.5 Z"/></g>
<g><path style="opacity:1" fill="#ddf9f9" d="M 201.5,299.5 C 202.75,299.577 203.583,300.244 204,301.5C 204.423,300.044 205.256,299.544 206.5,300C 205.269,301.183 205.269,302.349 206.5,303.5C 208.719,300.426 211.719,299.093 215.5,299.5C 216.265,302.096 216.599,304.763 216.5,307.5C 215.609,305.709 214.609,303.876 213.5,302C 211.633,301.289 210.133,301.789 209,303.5C 208.667,306.833 208.333,310.167 208,313.5C 206.644,314.38 205.144,314.714 203.5,314.5C 202.223,311.36 202.223,308.193 203.5,305C 203.242,302.991 202.575,301.157 201.5,299.5 Z"/></g>
<g><path style="opacity:1" fill="#26b6b5" d="M 158.5,297.5 C 158.357,299.262 158.691,300.929 159.5,302.5C 161.624,303.149 163.624,303.983 165.5,305C 171.942,305.083 178.275,305.749 184.5,307C 186.067,309.979 187.734,312.812 189.5,315.5C 191.265,318.123 191.932,321.123 191.5,324.5C 190.322,329.021 190.322,333.688 191.5,338.5C 193.621,338.675 195.621,338.341 197.5,337.5C 197.708,339.92 197.374,342.253 196.5,344.5C 193.165,345.833 190.665,344.833 189,341.5C 189.378,334.856 189.378,328.189 189,321.5C 186.747,318.17 185.247,314.503 184.5,310.5C 176.27,308.182 167.937,306.516 159.5,305.5C 158.997,315.66 158.33,325.66 157.5,335.5C 157.171,322.656 157.505,309.989 158.5,297.5 Z"/></g>
<g><path style="opacity:1" fill="#21a8a4" d="M 252.5,299.5 C 253.934,302.76 254.268,306.093 253.5,309.5C 251.345,309.372 249.345,309.872 247.5,311C 243.808,317.439 242.141,316.939 242.5,309.5C 242.859,307.629 243.859,306.129 245.5,305C 249.167,304.831 251.5,302.997 252.5,299.5 Z"/></g>
<g><path style="opacity:1" fill="#3bc1bf" d="M 235.5,301.5 C 236.458,303.302 237.125,305.302 237.5,307.5C 237.5,311.5 237.5,315.5 237.5,319.5C 236.25,319.423 235.417,318.756 235,317.5C 234.936,314.237 234.102,311.237 232.5,308.5C 230.305,307.231 228.139,307.231 226,308.5C 225.375,322.855 224.541,337.188 223.5,351.5C 226.833,351.5 230.167,351.5 233.5,351.5C 233.672,352.492 233.338,353.158 232.5,353.5C 229.306,354.758 225.973,355.424 222.5,355.5C 221.292,339.343 221.292,323.343 222.5,307.5C 223.364,306.312 224.364,305.145 225.5,304C 228.824,303.057 232.157,302.224 235.5,301.5 Z"/></g>
<g><path style="opacity:1" fill="#def2e7" d="M 237.5,307.5 C 238.467,308.806 239.801,309.473 241.5,309.5C 242.97,318.092 243.47,326.758 243,335.5C 241.333,340.833 239.667,340.833 238,335.5C 237.501,330.177 237.334,324.844 237.5,319.5C 237.5,315.5 237.5,311.5 237.5,307.5 Z"/></g>
<g><path style="opacity:1" fill="#3ab6b8" d="M 216.5,307.5 C 216.5,308.167 216.5,308.833 216.5,309.5C 217.15,322.663 217.817,335.83 218.5,349C 218.498,352.352 218.165,355.518 217.5,358.5C 216.995,346.804 215.995,335.137 214.5,323.5C 215.423,318.517 215.59,313.517 215,308.5C 213.301,309.406 211.467,309.739 209.5,309.5C 210.115,313.96 209.115,317.96 206.5,321.5C 204.248,319.703 203.248,317.37 203.5,314.5C 205.144,314.714 206.644,314.38 208,313.5C 208.333,310.167 208.667,306.833 209,303.5C 210.133,301.789 211.633,301.289 213.5,302C 214.609,303.876 215.609,305.709 216.5,307.5 Z"/></g>
<g><path style="opacity:1" fill="#1bcdcb" d="M 201.5,299.5 C 202.575,301.157 203.242,302.991 203.5,305C 202.223,308.193 202.223,311.36 203.5,314.5C 203.248,317.37 204.248,319.703 206.5,321.5C 209.115,317.96 210.115,313.96 209.5,309.5C 211.467,309.739 213.301,309.406 215,308.5C 215.59,313.517 215.423,318.517 214.5,323.5C 215.995,335.137 216.995,346.804 217.5,358.5C 216.167,359.5 214.833,360.5 213.5,361.5C 209.759,360.599 207.759,361.932 207.5,365.5C 196.265,364.181 185.598,360.681 175.5,355C 169.639,352.598 163.639,350.764 157.5,349.5C 157.5,344.833 157.5,340.167 157.5,335.5C 158.33,325.66 158.997,315.66 159.5,305.5C 167.937,306.516 176.27,308.182 184.5,310.5C 185.247,314.503 186.747,318.17 189,321.5C 189.378,328.189 189.378,334.856 189,341.5C 190.665,344.833 193.165,345.833 196.5,344.5C 197.374,342.253 197.708,339.92 197.5,337.5C 196.005,328.245 195.338,318.912 195.5,309.5C 195.203,306.276 195.87,303.276 197.5,300.5C 198.689,299.571 200.022,299.238 201.5,299.5 Z"/></g>
<g><path style="opacity:1" fill="#dbf9f9" d="M 195.5,309.5 C 195.338,318.912 196.005,328.245 197.5,337.5C 195.621,338.341 193.621,338.675 191.5,338.5C 190.322,333.688 190.322,329.021 191.5,324.5C 191.187,327.247 191.52,329.914 192.5,332.5C 193.331,325.524 193.831,318.524 194,311.5C 194.278,310.584 194.778,309.918 195.5,309.5 Z"/></g>
<g><path style="opacity:1" fill="#c0ecdd" d="M 271.5,335.5 C 271.279,336.735 270.612,337.735 269.5,338.5C 264.994,340.76 260.327,342.426 255.5,343.5C 260.419,340.374 265.752,337.707 271.5,335.5 Z"/></g>
<g><path style="opacity:1" fill="#d4f4ee" d="M 223.5,299.5 C 222.735,302.096 222.401,304.763 222.5,307.5C 221.292,323.343 221.292,339.343 222.5,355.5C 225.973,355.424 229.306,354.758 232.5,353.5C 230.632,355.689 228.132,357.022 225,357.5C 223.342,357.325 222.009,356.658 221,355.5C 220.325,359.898 217.825,361.898 213.5,361.5C 214.833,360.5 216.167,359.5 217.5,358.5C 218.165,355.518 218.498,352.352 218.5,349C 217.817,335.83 217.15,322.663 216.5,309.5C 217.467,310.806 218.801,311.473 220.5,311.5C 220.74,308.421 220.407,305.421 219.5,302.5C 220.077,300.45 221.41,299.45 223.5,299.5 Z"/></g>
<g><path style="opacity:1" fill="#b5ead8" d="M 255.5,343.5 C 251.001,347.296 245.668,349.296 239.5,349.5C 244.353,346.387 249.686,344.387 255.5,343.5 Z"/></g>
</svg>
