<svg xmlns="http://www.w3.org/2000/svg" viewBox="0 0 500 455" xml:space="preserve"><path fill="#010101" d="M1 241c0-3.03 0-6.06.36-9.58 2.5-6.12 6.42-9.84 12.29-11.35 4.59-1.18 9.27-2.03 13.8-3.4 7.72-2.32 12.67-8.82 12.5-16.94-.42-18.47-1.43-36.93-1.67-55.4-.25-19.47-.04-38.95.26-58.43.27-16.47 1.1-32.93 1.4-49.4.12-6.79-1.78-9.11-8.33-11.1-5.96-1.8-12.08-3.12-18.08-4.82-4.84-1.36-7.13-5.35-6.4-10.64.88-6.35 2.69-7.98 9.07-7.92 2.33.03 4.64.36 6.97.48 12.43.65 24.87 1.81 37.3 1.78 19.3-.04 38.6-1 57.9-1.25 1.88-.03 4.6 1.77 5.54 3.49 4.07 7.37 3.05 12.57-4.18 17.4-5.97 3.98-8.19 9.04-7.76 15.82.1 1.48-.25 2.98-.32 4.47-.86 18.77-1.67 37.53 1.32 56.21.63 3.92 2.61 5.74 6.64 5.62 5-.15 10-.04 15-.04 6.64 0 8.38-1.76 8.39-8.58.01-19.28-.2-38.57.1-57.85.12-7.99-2.28-13.56-10.04-16.84-5.63-2.38-7.3-13.76-3.02-18.11a6.13 6.13 0 0 1 3.98-1.55c7.65-.04 15.31.14 22.96.27 14.12.23 28.24.64 42.36.7 14.16.05 28.31-.37 42.47-.33 6.2.02 9.4 3.3 9.18 8.57-.22 5.62-3.8 10.86-9.08 12.38a66.32 66.32 0 0 1-12.09 2.27c-6.98.66-12.66 5.66-12.73 12.8-.13 12.8.28 25.6.53 38.4.26 13.47.94 26.95.81 40.41-.25 26.47-1.04 52.93-1.36 79.4-.08 7.05 3.52 12.07 10.2 14.92 10.65 4.55 21.8 5.98 33.84 6.18-1.53-2.45-2.9-4.45-4.09-6.56-4.9-8.69-10.62-17.05-14.48-26.2-8.99-21.28-10.89-43.59-8.77-66.61 1.87-20.35 8.88-38.7 19.3-55.72 9.85-16.07 22.98-29.32 38.8-39.93a132.98 132.98 0 0 1 43.11-18.98C341.6 3.44 348.32 2.34 355 1c7.69 0 15.38 0 23.72.37 2.66.47 4.7.33 6.64.7 24.01 4.54 46.26 12.97 65.44 28.72 22.4 18.42 37.83 41.26 45.22 69.35 1.99 7.54 3.34 15.24 4.98 22.86 0 8.69 0 17.38-.39 26.67-3.6 12.97-5.73 25.73-10.26 37.58-6.5 17.02-16.99 31.75-30.27 44.5-12.28 11.78-25.9 21.5-41.81 27.38-12.03 4.45-24.58 7.49-37.4 11.3.34 4.68 1 10.13 1.09 15.6.63 44.93.11 89.83-3.52 134.66-.44 5.5 1.4 8.42 6.9 8.73 13.88.8 26.44-3.33 37.75-10.74 11.69-7.67 22.9-16.09 34-24.6 5.85-4.5 11.8-9.17 14.5-16.64a154.8 154.8 0 0 1 5.93-13.99c1.38-2.89 3.76-4.28 7.28-3.8 6.63.91 9.3 3.34 9.1 10.42-.24 7.6-.98 15.2-2.08 22.73-2.44 16.64-5.23 33.24-7.9 49.85-1.26 7.82-5.03 11.03-13.19 11.01-10.99-.03-21.98-.33-32.97-.28-41.8.15-83.6.32-125.4.7-6.79.07-13.57 1.25-20.36 1.92-6.69 0-13.38 0-20.73-.3-1.58-.62-2.52-.89-3.41-1.26-4.31-1.81-7.87-3.84-7-9.76.8-5.58 3.9-7.23 8.97-7.85 7.54-.92 14-4.53 18.06-11.01 6.08-9.7 11.7-19.7 17.35-29.65a82.31 82.31 0 0 0 10.48-37.13c.83-18.87 1.22-37.84-2.62-56.64-4.53-22.16-14.7-40.73-32.8-54.52-9.07-6.9-19.56-10.75-30.9-11.8-7.94-.75-15.93-.92-23.9-1.34 2.22 2 4.66 2.77 6.91 3.9 16.11 8.19 30.54 18.63 40 34.28 5.14 8.5 9.81 17.73 12.28 27.25a143.39 143.39 0 0 1 3.36 54.73c-1.83 14.1-5.32 27.7-12.3 40.1-8.2 14.51-19.22 26.43-33 36.18-15.74 11.14-32.95 18.07-51.64 21.8-5.68 1.14-11.4 2.02-17.11 3.02-11.69 0-23.38 0-35.7-.4a648.8 648.8 0 0 0-36.54-1.2c-25.45.05-50.91.54-76.36.46-4.66-.01-9.46-1.36-13.91-2.91-5.6-1.96-7.44-6.93-4.57-11.31 2.78-4.27 6.95-6.6 12.1-6.27 9.77.61 19.52 1.53 29.29 2.27 5.92.45 12.6-3.58 12.65-7.8.08-7.82.14-15.66-.2-23.47-1.04-24.24-2.94-48.47-3.25-72.72-.3-23.75 1-47.52 1.45-71.28.15-7.96-4.3-12.5-12.28-12.29-7.6.2-15.25.72-22.8 1.74C12.1 252.42 6.25 250.15 1 241M437.18 77.37l-1.82-1.55c-7.12-9.8-16.81-16.39-27.8-22.46-.92-.35-1.89-.62-2.77-1.06-17.43-8.72-36.06-10.23-54.73-7a86.69 86.69 0 0 0-50.77 28.26c-17.38 19.52-25.41 42.43-23.38 68.82 1.42 18.55 7.9 34.92 19.1 49.61 0 0 .08-.05.12.47.26.22.51.43 1.08 1.25 7.88 10.46 17.77 18.55 29.27 24.7 1.54.82 3.39 1.5 5.1 1.52 8.8.1 17.6-.03 27.35.04 12.31 0 24.69-.77 36.9.26 11.53.97 19.97-4.63 27.44-11.32a134.9 134.9 0 0 0 21.4-24.44c8.9-13.1 13.5-27.98 14.42-44.02.92-16.23-2.44-31.48-9.6-45.84-2.64-5.33-6.87-9.88-10.42-14.69 0 0 .1.02.55-.6-.53-.46-1.05-.93-1.6-1.33 0 0 .07-.01.16-.62m-151.54-2.38c.28-.45.55-.9.93-1.48 0 0 .1-.15.64-.43 1.38-1.67 2.76-3.34 4.53-5.3.4-.5.79-1 1.82-1.8 1.57-1.69 3.15-3.38 5.06-5.13.24-.09.39-.25 1.1-.7.82-1.01 1.64-2.02 2.34-3.09 0 0 .07.12.77.04 7.63-4.54 15.07-9.44 22.93-13.55 19.35-10.11 40.3-10.56 61-7.1 19.87 3.3 37.2 13.24 51.45 27.58a100.74 100.74 0 0 1 23.8 38.31c5.5 15.82 6.14 31.96 4.04 48.42-2.5 19.52-10.58 36.47-23.33 51.25-5.44 6.3-11.37 12.18-16.81 17.97 1.31 0 3.32-.15 5.3.04 1.94.18 3.85.71 5.99 1.8 3.65 8.21.13 14.17-9 15.2-4.75.55-9.52.97-14.25 1.65-9.44 1.37-18.9 2.66-28.26 4.5-2.1.4-4.96 2.67-5.4 4.56-.85 3.7-.25 7.75-.25 12.51 9.75-2.32 18.78-3.73 27.27-6.67a125.98 125.98 0 0 0 44.64-27c14.23-13.2 24.91-28.93 31.53-47.02 6.76-18.45 10.65-37.63 7.39-57.4-1.52-9.19-4.41-18.15-6.8-28-4.82-15.9-13.16-29.65-25.29-41.89-1.53-1.92-2.89-4.04-4.63-5.75-15.68-15.36-34.46-25.34-55.36-31.53-26.33-7.79-52.25-5.35-77.57 4.13-16.05 6-30.2 15.49-42.3 27.61a124.53 124.53 0 0 0-29.56 46.7c-8.62 24.25-10.07 48.7-3.3 73.52 5.13 18.85 13.64 35.99 26.96 50.47 1.16 1.26 3.28 1.64 5.88 2.57h30.36c-4.82-4.3-9.21-7.6-12.86-11.57-14.76-16.1-25.07-34.38-28.79-56.36-2.32-13.68-2.34-27.21 1.34-40.28 3.1-10.95 8.61-21.22 13.04-31.78l.65-.17c.85-1.57 1.7-3.15 2.46-4.75 0 0 .04.1.54-.08M133 410.18c1.16 4.6 1.82 9.4 3.67 13.7 1.03 2.4 3.73 4.7 6.23 5.72 2.93 1.2 6.46 1.37 9.71 1.33 8.78-.12 17.56-.5 26.32-.95 12.5-.66 22.57-6.27 29.14-16.76 4.12-6.58 7.22-13.95 9.83-21.3 7.27-20.43 6.9-41.75 5.73-62.96-.98-17.63-4.54-34.8-12.46-50.87-5.96-12.09-13.72-22.34-25.68-29.17-11.55-6.6-24.14-7.02-36.6-5.58-10.97 1.28-18.66 10.76-18.17 19.82 1.7 31.73 2.56 63.5 3.16 95.28.32 16.92-.55 33.87-.88 51.74M113 166.5c0 9.81-.1 19.63.05 29.44.06 4.45.06 9.02 1.1 13.29 2.1 8.6 9.9 13.27 19.02 11.72 7.63-1.3 10.45-4.14 10.23-15-.4-19.27-.3-38.55-.4-57.83-.01-2.5.13-5-.03-7.48-.45-6.55-2.75-8.64-9.28-8.64-4 0-7.99-.04-11.98.01-4.79.06-7.41 2.33-7.67 7.11-.48 8.79-.7 17.59-1.04 27.38m-41 112c-.2 13.14-.6 26.28-.56 39.41.09 31.3.23 62.58.72 93.86.1 5.69 1.63 11.42 3.06 16.99.52 2.03 2.66 3.64 4.07 5.44 1.48-2.01 3.85-3.86 4.25-6.06a92.2 92.2 0 0 0 1.4-16.3c.1-47.65.1-95.3.02-142.93 0-5.3-.58-10.6-.97-15.9-.2-2.66-.32-5.22-4.32-5.03-3.44.17-6.48.21-6.67 4.67-.36 8.28-.67 16.57-1 25.85m225.94-37.97c4.08 5.98 8.83 11.6 12.1 17.99 9.73 19.05 16 39.11 18.3 60.61 2.17 20.32 2.3 40.38-2.42 60.25-3.99 16.76-10.07 32.67-21.04 46.38-1.86 2.32-2.47 5.64-3.66 8.5l1.55.89c7.66-2.77 14.05-7.58 17.79-14.79 4.99-9.62 10.16-19.42 13.08-29.76 3.15-11.17 4.06-23 5.46-34.61 2.28-18.79.5-37.46-3.06-55.91-2.99-15.46-9.03-29.94-16.47-43.75-3.76-6.98-8.08-13.74-15.18-18.03-3.8-2.29-5.79-1.86-6.45 2.23M156 140.5c.2 26.36-.45 52.75.4 78.9 8.48.97 8.49.89 8.64-5.9.07-3.48.74-6.95.73-10.42-.22-53.91-.43-107.83-.9-161.74-.04-4.51-2-9-3.05-13.5l-2-.06c-.92 1.97-2.36 3.87-2.65 5.94-.69 4.75-1.11 9.58-1.13 14.38-.09 30.46-.04 60.93-.04 92.4M56.5 29.06c-1.12 1.5-2.88 2.85-3.24 4.5a54.7 54.7 0 0 0-1.21 11.34c-.08 51.78-.08 103.56 0 155.34 0 3.56.8 7.11 1.28 11.16 3.23-1.17 7.61 1.63 7.7-4.34.14-8.8.66-17.6.75-26.41.16-16.98.3-33.97.17-50.94-.2-29.28-.48-58.56-1.1-87.83-.1-4.24-2.34-8.43-4.34-12.82z"/><path fill="#FEFEFE" d="M292.47 456c6.32-.67 13.1-1.85 19.9-1.92 41.8-.38 83.6-.55 125.4-.7 10.98-.05 21.97.25 32.96.28 8.16.02 11.93-3.2 13.2-11.01 2.66-16.61 5.45-33.2 7.89-49.85 1.1-7.52 1.84-15.14 2.07-22.73.22-7.08-2.46-9.5-9.1-10.42-3.5-.48-5.9.91-7.27 3.8a154.8 154.8 0 0 0-5.94 14c-2.7 7.46-8.64 12.13-14.5 16.62-11.09 8.52-22.3 16.94-34 24.6-11.3 7.42-23.86 11.55-37.74 10.75-5.5-.31-7.34-3.23-6.9-8.73 3.63-44.83 4.15-89.73 3.52-134.67-.08-5.46-.75-10.91-1.08-15.58 12.81-3.82 25.36-6.86 37.39-11.31 15.9-5.89 29.53-15.6 41.81-27.38 13.28-12.75 23.77-27.48 30.27-44.5 4.53-11.85 6.67-24.61 10.26-37.11.39 101.77.39 203.69.39 305.86H292.47zM354.53 1c-6.2 1.33-12.94 2.43-19.55 4.04a132.98 132.98 0 0 0-43.11 18.98c-15.82 10.6-28.95 23.86-38.8 39.93-10.42 17.02-17.43 35.37-19.3 55.72-2.12 23.02-.22 45.33 8.77 66.61 3.86 9.15 9.57 17.51 14.48 26.2 1.2 2.1 2.56 4.11 4.09 6.56-12.04-.2-23.2-1.63-33.84-6.18-6.68-2.85-10.28-7.87-10.2-14.92.32-26.47 1.11-52.93 1.36-79.4.13-13.46-.55-26.94-.81-40.4-.25-12.8-.66-25.6-.53-38.4.07-7.15 5.75-12.15 12.73-12.8a66.32 66.32 0 0 0 12.1-2.28c5.26-1.52 8.85-6.76 9.07-12.38.22-5.26-2.98-8.55-9.18-8.57-14.16-.04-28.31.38-42.47.32-14.12-.05-28.24-.46-42.36-.7-7.65-.12-15.3-.3-22.96-.26-1.35.01-3.06.61-3.98 1.55-4.28 4.35-2.61 15.73 3.02 18.11 7.76 3.28 10.16 8.85 10.04 16.84-.3 19.28-.09 38.57-.1 57.85-.01 6.82-1.75 8.57-8.4 8.58-5 0-10-.11-15 .04-4.02.12-6-1.7-6.63-5.62-2.99-18.68-2.18-37.44-1.32-56.2.07-1.5.41-3 .32-4.48-.43-6.78 1.79-11.84 7.76-15.83 7.23-4.82 8.25-10.02 4.18-17.4-.95-1.7-3.66-3.5-5.54-3.48-19.3.25-38.6 1.2-57.9 1.25-12.43.03-24.87-1.13-37.3-1.78-2.33-.12-4.64-.45-6.97-.48-6.38-.06-8.19 1.57-9.07 7.92-.73 5.3 1.56 9.28 6.4 10.64 6 1.7 12.12 3.02 18.08 4.83 6.55 1.98 8.45 4.3 8.33 11.09-.3 16.47-1.13 32.93-1.4 49.4-.3 19.48-.51 38.96-.26 58.43.24 18.47 1.25 36.93 1.66 55.4.18 8.12-4.77 14.62-12.49 16.94-4.53 1.37-9.21 2.22-13.8 3.4-5.87 1.5-9.8 5.23-12.3 10.9C1 154.39 1 77.78 1 1h353.53zM1 241.47c5.24 8.68 11.1 10.96 22.89 9.35a210.78 210.78 0 0 1 22.8-1.74c7.97-.21 12.42 4.33 12.27 12.29-.45 23.76-1.76 47.53-1.45 71.28.3 24.25 2.2 48.48 3.25 72.72.34 7.81.28 15.65.2 23.47-.05 4.22-6.73 8.25-12.65 7.8-9.77-.74-19.52-1.66-29.29-2.27-5.15-.32-9.32 2-12.1 6.27-2.87 4.38-1.03 9.35 4.57 11.31 4.45 1.55 9.25 2.9 13.9 2.91 25.46.08 50.92-.4 76.37-.46 11.97-.02 23.94.5 36.07 1.2-45.44.4-91.05.4-136.83.4V241.47z"/><path fill="#FDFDFE" d="M174.47 456c5.23-1 10.96-1.88 16.64-3.02 18.7-3.73 35.9-10.66 51.64-21.8 13.78-9.75 24.8-21.67 33-36.19 6.98-12.39 10.47-25.99 12.3-40.1a143.39 143.39 0 0 0-3.36-54.72c-2.47-9.52-7.14-18.76-12.28-27.25-9.46-15.65-23.89-26.1-40-34.27-2.25-1.14-4.69-1.9-6.91-3.91 7.97.42 15.96.6 23.9 1.33 11.34 1.06 21.83 4.9 30.9 11.81 18.1 13.8 28.27 32.36 32.8 54.52 3.84 18.8 3.45 37.77 2.62 56.64a82.31 82.31 0 0 1-10.48 37.13c-5.65 9.96-11.27 19.95-17.35 29.65-4.07 6.48-10.52 10.09-18.06 11-5.07.63-8.17 2.28-8.98 7.86-.86 5.92 2.7 7.95 7.01 9.76.9.37 1.83.64 2.95 1.26-31.83.3-63.85.3-96.34.3z"/><path fill="#FEFEFE" d="M501 122.53c-1.64-7.15-3-14.85-4.98-22.39-7.39-28.1-22.82-50.93-45.22-69.35-19.18-15.75-41.43-24.18-65.44-28.72-1.94-.37-3.98-.23-6.17-.7C419.6 1 460.2 1 501 1v121.53zM133 409.71c.33-17.4 1.2-34.35.88-51.27-.6-31.77-1.45-63.55-3.16-95.28-.49-9.06 7.2-18.54 18.16-19.82 12.47-1.44 25.06-1.02 36.61 5.58 11.96 6.83 19.72 17.08 25.68 29.17 7.92 16.07 11.48 33.24 12.46 50.87 1.17 21.2 1.54 42.53-5.73 62.97-2.61 7.34-5.7 14.7-9.83 21.29-6.57 10.49-16.63 16.1-29.14 16.76-8.76.46-17.54.83-26.32.95-3.25.04-6.78-.12-9.71-1.33-2.5-1.03-5.2-3.31-6.23-5.72-1.85-4.3-2.51-9.1-3.67-14.17z"/><path fill="#EF5931" d="M408.02 53.9c10.53 5.53 20.22 12.12 27.68 22.42.69.89 1.04 1.27 1.39 1.66 0 0-.08.01-.09.31.38.75.78 1.2 1.18 1.65 0 0-.1-.02-.14.34 5.74 18.5 9.09 36.84 5 55.92-2.77 12.9-7.04 25.1-14.99 35.51l-15.82-44.35c-3.87 1.56-7.4 3.74-11.19 4.32-4.54.7-4.32 2.85-3.6 6.21 1.36 6.44 2.44 12.93 3.67 19.53l-44.37 17.2c.4-1.88.5-2.66.75-3.38 4.86-13.96 9.6-27.96 14.72-41.82 1.18-3.2.38-4.8-2.04-6.65-7.6-5.83-15.12-11.77-22.57-17.8-4.67-3.78-9.16-7.8-14.22-12.13 10.54-4.14 20.4-7.8 30.06-11.92 3.82-1.63 5.62-.57 7.49 2.73 3.52 6.27 7.4 12.32 11.01 18.26l15.14-5.83-14.91-34.25c-12.61 4.9-24.65 9.65-36.74 14.27a169.14 169.14 0 0 1-14.3 4.68 87.21 87.21 0 0 1 28.4-18.31 118.8 118.8 0 0 1 48.49-8.58z"/><path fill="#F05931" d="M357 219.85c-8.81.05-17.62.18-26.42.08-1.71-.02-3.56-.7-5.1-1.52-11.5-6.15-21.4-14.24-29.46-25.25-.43-.78-.68-1-.93-1.22 0 0-.09.05-.04-.42-.65-6.86-1.83-13.26-1.94-19.67-.14-8.6.18-17.26.97-25.83 1.25-13.6 6.33-25.9 14.35-37.02 14.47 11.17 28.64 22.2 43.06 33.44-3.91 11.3-7.3 22.87-11.92 33.93-4.73 11.33-5.72 21.92 1.66 32.4 16.84-6.54 33.67-13.1 50.53-19.6a987.07 987.07 0 0 1 32.26-11.84c-3.17 4.14-6.05 8.2-9.51 11.67-9.5 9.53-20.04 17.75-32.79 22.54-8.13 3.05-16.48 5.56-24.73 8.31z"/><path fill="#F59F8C" d="M299.06 60.35c-.05.25-.2.41-1 .5a45.44 45.44 0 0 0-5.14 5.43c-.4.5-.79 1-1.75 1.57-1.89 1.87-3.2 3.7-4.5 5.51 0 0-.1.15-.48.06-.6.53-.83 1.14-1.05 1.75 0 0-.04-.1-.34-.03-1.15 1.67-1.99 3.27-2.82 4.86l-.34-.04c-1.23.9-2.4 1.7-2.93 2.8-4.2 8.82-8.96 17.45-12.27 26.6-9.17 25.35-10.88 51.25-2.35 77.1 3.76 11.4 9.2 22.27 13.88 33.38-1.67-.79-3.79-1.17-4.95-2.43-13.32-14.48-21.83-31.62-26.96-50.47-6.77-24.82-5.32-49.27 3.3-73.51a124.53 124.53 0 0 1 29.56-46.7c12.1-12.13 26.25-21.62 42.3-27.62 25.32-9.48 51.24-11.92 77.57-4.13 20.9 6.19 39.68 16.17 55.36 31.53a28 28 0 0 1 4.4 6.08 4.03 4.03 0 0 1-2.31-.89c-15.02-12.45-31.69-21.3-51.01-25.32-16.6-3.46-33.03-2.72-49.17 1.24-19.14 4.68-36.34 13.88-51.93 25.95-1 .78-1.35 2.39-2 3.6 0 0-.07-.1-.39-.17a21.34 21.34 0 0 0-2.68 3.35z"/><path fill="#EF5932" d="M302.48 57.14c.3-1.18.65-2.8 1.65-3.57 15.59-12.07 32.79-21.27 51.93-25.95 16.14-3.96 32.56-4.7 49.17-1.24 19.32 4.02 36 12.87 51 25.32.62.51 1.4.82 2.45 1.2 12.23 11.6 20.57 25.36 25.38 42.1-.34 13.96.54 27.23-1.25 40.12-4.71 34.08-19.2 63.38-45.83 85.99-1.92-.38-3.83-.9-5.77-1.1-1.98-.18-3.99-.03-5.3-.03 5.44-5.8 11.37-11.67 16.8-17.97 12.76-14.78 20.84-31.73 23.34-51.25 2.1-16.46 1.46-32.6-4.05-48.42a100.74 100.74 0 0 0-23.79-38.31c-14.26-14.34-31.58-24.27-51.46-27.59-20.7-3.45-41.64-3-60.99 7.11-7.86 4.11-15.3 9-23.28 13.59z"/><path fill="#A22522" d="M308.12 108.87c-7.71 11.24-12.79 23.55-14.04 37.15-.79 8.57-1.1 17.22-.97 25.83.1 6.41 1.3 12.8 1.98 19.64-11.28-14.2-17.76-30.56-19.18-49.1-2.03-26.4 6-49.3 23.38-68.83a86.69 86.69 0 0 1 50.77-28.26c18.67-3.23 37.3-1.72 54.73 7 .88.44 1.85.71 3 1.33a123.26 123.26 0 0 0-48.27 8.84 87.85 87.85 0 0 0-28.4 18.28c-.1.3-.04.27-.33.27-.75.27-1.2.54-2 .97L298.9 94.44c1.73 6.26 3.96 11.34 9.22 14.43z"/><path fill="#F69F8C" d="M357.46 219.9c7.78-2.8 16.13-5.31 24.26-8.36 12.75-4.79 23.29-13 32.79-22.54 3.46-3.48 6.34-7.53 9.72-11.96 2.62-1.1 5.65-1 3.96-4.98 7.8-10.77 12.08-22.97 14.84-35.86 4.1-19.08.75-37.41-4.97-55.97 3.56 4.5 7.79 9.05 10.44 14.38 7.15 14.36 10.51 29.6 9.59 45.84-.91 16.04-5.52 30.92-14.41 44.02a134.9 134.9 0 0 1-21.4 24.44c-7.48 6.7-15.92 12.3-27.44 11.32-12.22-1.03-24.6-.25-37.38-.32z"/><path fill="#FEFEFE" d="M113 166c.33-9.3.56-18.1 1.04-26.88.26-4.78 2.88-7.05 7.67-7.11 4-.05 7.98-.01 11.98-.01 6.53 0 8.83 2.09 9.28 8.64.16 2.48.02 4.98.03 7.48.1 19.28 0 38.56.4 57.83.22 10.86-2.6 13.7-10.23 15-9.12 1.55-16.92-3.13-19.02-11.72-1.04-4.27-1.04-8.84-1.1-13.29-.15-9.8-.05-19.63-.05-29.94z"/><path fill="#EC5932" d="M72 278c.33-8.78.64-17.07 1-25.35.19-4.46 3.23-4.5 6.67-4.67 4-.2 4.13 2.37 4.32 5.04.39 5.29.96 10.59.97 15.89.08 47.64.09 95.28-.01 142.92a92.2 92.2 0 0 1-1.4 16.3c-.41 2.21-2.78 4.06-4.26 6.07-1.4-1.8-3.55-3.41-4.07-5.44-1.43-5.57-2.97-11.3-3.06-16.99-.49-31.28-.63-62.57-.72-93.86-.04-13.13.36-26.27.55-39.91z"/><path fill="#A12622" d="M437.09 221.46c26.52-22.96 41-52.26 45.72-86.34 1.79-12.9.9-26.16 1.31-39.72 2.34 8.6 5.23 17.56 6.75 26.75 3.26 19.77-.63 38.95-7.39 57.4-6.62 18.1-17.3 33.83-31.53 47.01a125.98 125.98 0 0 1-44.64 27.01c-8.5 2.94-17.52 4.35-27.27 6.67 0-4.76-.6-8.8.26-12.51.43-1.9 3.3-4.16 5.4-4.57 9.34-1.83 18.8-3.12 28.25-4.49 4.73-.68 9.5-1.1 14.26-1.64 9.12-1.04 12.64-7 8.88-15.57z"/><path fill="#EB5A33" d="M297.77 240.2c.83-3.76 2.81-4.19 6.62-1.9 7.1 4.29 11.42 11.05 15.18 18.03 7.44 13.81 13.48 28.3 16.47 43.75 3.56 18.45 5.34 37.12 3.06 55.9-1.4 11.61-2.3 23.45-5.46 34.62-2.92 10.34-8.1 20.14-13.08 29.76-3.74 7.21-10.13 12.02-17.79 14.79l-1.55-.9c1.19-2.85 1.8-6.17 3.66-8.49 10.97-13.7 17.05-29.62 21.04-46.38 4.72-19.87 4.6-39.93 2.42-60.25-2.3-21.5-8.57-41.56-18.3-60.61-3.27-6.39-8.02-12.01-12.27-18.31z"/><path fill="#EE5A32" d="M156 140c0-30.97-.05-61.44.04-91.9.02-4.8.44-9.63 1.13-14.38.3-2.07 1.73-3.97 2.65-5.94l2 .06c1.06 4.5 3 8.99 3.05 13.5.47 53.91.68 107.83.9 161.74.01 3.47-.66 6.94-.73 10.41-.15 6.8-.16 6.88-8.63 5.92-.86-26.16-.21-52.55-.41-79.41z"/><path fill="#ED5A32" d="M56.88 29.15c1.63 4.3 3.87 8.5 3.96 12.73.63 29.27.9 58.55 1.11 87.83.12 16.97 0 33.96-.17 50.94-.1 8.8-.6 17.6-.74 26.4-.1 5.98-4.48 3.18-7.71 4.35-.49-4.05-1.27-7.6-1.28-11.16-.08-51.78-.08-103.56 0-155.34 0-3.79.42-7.64 1.21-11.33.36-1.66 2.12-3.02 3.62-4.42z"/><path fill="#EF5A32" d="M278.43 219.9c-5.14-11.17-10.58-22.03-14.34-33.45-8.53-25.84-6.82-51.74 2.35-77.09 3.3-9.15 8.07-17.78 12.27-26.6.53-1.1 1.7-1.9 2.93-2.81-4.08 10.6-9.6 20.87-12.69 31.82-3.68 13.07-3.66 26.6-1.34 40.28 3.72 21.98 14.03 40.26 28.79 56.36 3.65 3.98 8.04 7.27 12.86 11.57-10.64 0-20.5 0-30.83-.07z"/><path fill="#EF5932" d="M286.94 73.22a30.65 30.65 0 0 1 4.03-5.24c-1 1.76-2.38 3.43-4.03 5.24zM293.24 66.13a35.76 35.76 0 0 1 4.64-5.25 35.76 35.76 0 0 1-4.64 5.25z"/><path fill="#EF5A32" d="M282.3 79.91c.51-1.5 1.35-3.1 2.55-4.75a18.2 18.2 0 0 1-2.54 4.75z"/><path fill="#EF5932" d="M299.4 60.24a9.61 9.61 0 0 1 2.4-3.2 9.61 9.61 0 0 1-2.4 3.2zM285.39 75.08c-.03-.52.2-1.13.74-1.59.06.6-.21 1.05-.74 1.59z"/><path fill="#F69F8C" d="M438.4 79.63c-.62-.14-1.02-.6-1.38-1.37.55.13 1.07.6 1.38 1.37zM437.13 77.67c-.4-.08-.74-.46-1.17-1.13.36.1.79.46 1.17 1.13z"/><path fill="#A22522" d="M295.1 192.2c.24-.04.49.18.77.66-.23.03-.48-.18-.76-.66z"/><path fill="#010101" d="M428.05 171.71c1.83 4.33-1.2 4.24-3.8 4.98-10.97 4.35-21.75 8.35-32.49 12.48-16.86 6.5-33.7 13.06-50.53 19.6-7.38-10.48-6.39-21.07-1.66-32.4 4.62-11.06 8-22.63 11.92-33.93-14.42-11.24-28.59-22.27-43.06-33.44-5.57-3.22-7.8-8.3-9.53-14.56 9.8-4.08 19.67-8.19 30.18-12.41a9 9 0 0 0 2-1s-.07.02-.05.05c4.8-1.63 9.66-3.17 14.4-4.98 12.09-4.62 24.13-9.37 36.74-14.27l14.9 34.25-15.13 5.83c-3.6-5.94-7.5-12-11.01-18.26-1.87-3.3-3.67-4.36-7.49-2.73-9.66 4.12-19.52 7.78-30.06 11.92 5.06 4.34 9.55 8.35 14.22 12.13 7.45 6.03 14.97 11.97 22.57 17.8 2.42 1.86 3.22 3.45 2.04 6.65-5.11 13.86-9.86 27.86-14.72 41.82-.25.72-.34 1.5-.75 3.38l44.37-17.2c-1.23-6.6-2.31-13.1-3.68-19.53-.71-3.36-.93-5.5 3.61-6.2 3.78-.6 7.32-2.77 11.19-4.33l15.82 44.35z"/><path fill="#EF5931" d="M330.8 81.02c-.18.3-.64.6-1.4.85.18-.31.64-.58 1.4-.85z"/></svg>