<svg version="1.1" id="Layer_1" xmlns="http://www.w3.org/2000/svg" xmlns:xlink="http://www.w3.org/1999/xlink" x="0px" y="0px"
	 width="100%" viewBox="0 0 500 455" enable-background="new 0 0 500 455" xml:space="preserve">
<path fill="#010101" opacity="1.000000" stroke="none" 
	d="
M1.000000,241.000000 
	C1.000000,237.969406 1.000000,234.938812 1.358609,231.424438 
	C3.854092,225.296143 7.777235,221.578918 13.650306,220.069275 
	C18.239073,218.889740 22.921434,218.038757 27.451414,216.674026 
	C35.170643,214.348480 40.123344,207.852661 39.941998,199.726974 
	C39.529831,181.259186 38.516968,162.802124 38.279812,144.333847 
	C38.029747,124.860535 38.236130,105.376740 38.544922,85.902298 
	C38.806103,69.430328 39.633259,52.967670 39.935024,36.495857 
	C40.059269,29.714123 38.159054,27.390457 31.612623,25.407936 
	C25.646675,23.601204 19.534912,22.281734 13.533361,20.584993 
	C8.690278,19.215776 6.401543,15.233974 7.134448,9.935053 
	C8.012002,3.590310 9.819862,1.964175 16.203022,2.024900 
	C18.525087,2.046990 20.842424,2.381089 23.165606,2.501927 
	C35.601345,3.148764 48.039471,4.309540 60.474476,4.281348 
	C79.773232,4.237593 99.068817,3.276138 118.369919,3.027804 
	C120.248192,3.003638 122.962189,4.802844 123.909775,6.517479 
	C127.984055,13.889760 126.959419,19.086973 119.731445,23.912285 
	C113.759567,27.899046 111.540161,32.957462 111.967705,39.740395 
	C112.060905,41.218941 111.721313,42.720146 111.652832,44.214207 
	C110.792671,62.980118 109.983223,81.741188 112.970848,100.423485 
	C113.597557,104.342400 115.580467,106.156258 119.609268,106.036705 
	C124.603683,105.888496 129.605835,106.004868 134.604645,106.000313 
	C141.245041,105.994263 142.989777,104.239075 142.995514,97.420906 
	C143.011749,78.136269 142.802094,58.848568 143.096771,39.568424 
	C143.218872,31.580032 140.820053,26.011393 133.060410,22.733398 
	C127.429192,20.354540 125.764565,8.973616 130.040192,4.619933 
	C130.961166,3.682145 132.670227,3.081114 134.020157,3.074146 
	C141.674133,3.034635 149.329544,3.208595 156.984009,3.336619 
	C171.103531,3.572773 185.222198,3.978243 199.342300,4.032059 
	C213.496536,4.086006 227.652451,3.674304 241.806915,3.714437 
	C248.007278,3.732018 251.210098,7.018809 250.994843,12.282584 
	C250.765015,17.903181 247.181946,23.142578 241.913269,24.660868 
	C237.987030,25.792299 233.893646,26.548475 229.823853,26.931347 
	C222.835571,27.588778 217.163239,32.586075 217.088638,39.734524 
	C216.955109,52.530552 217.370178,65.333282 217.616974,78.132034 
	C217.876740,91.602905 218.560028,105.075706 218.433350,118.541786 
	C218.184372,145.009491 217.393768,171.471802 217.072464,197.939346 
	C216.986847,204.990891 220.585419,210.009445 227.268372,212.861633 
	C237.919296,217.407288 249.074326,218.838333 261.109009,219.038483 
	C259.575531,216.589828 258.211731,214.586899 257.023712,212.484650 
	C252.110962,203.791458 246.404068,195.426102 242.542694,186.284027 
	C233.552505,164.999161 231.654236,142.692429 233.768188,119.667336 
	C235.636368,99.319290 242.651779,80.973808 253.077072,63.951569 
	C262.922211,47.876564 276.052826,34.629124 291.868378,24.017061 
	C305.173492,15.089491 319.502594,8.798178 334.980835,5.039451 
	C341.591064,3.434233 348.323242,2.331220 355.000000,1.000002 
	C362.687592,1.000000 370.375153,1.000000 378.724457,1.370800 
	C381.378815,1.838389 383.415802,1.700473 385.357330,2.067629 
	C409.370667,6.608675 431.620850,15.035254 450.795044,30.791916 
	C473.203888,49.206722 488.633820,72.049179 496.023285,100.142433 
	C498.005035,107.676704 499.358246,115.376305 501.000000,123.000000 
	C501.000000,131.687561 501.000000,140.375137 500.611389,149.671753 
	C497.016327,162.635941 494.877106,175.398926 490.348846,187.248947 
	C483.845367,204.267899 473.362518,219.002258 460.079803,231.748596 
	C447.801636,243.530975 434.177032,253.242722 418.268921,259.127441 
	C406.241608,263.576538 393.694397,266.620209 380.877716,270.438568 
	C381.213684,275.106110 381.879456,280.561218 381.956421,286.024658 
	C382.589203,330.957031 382.070465,375.858734 378.444641,420.687927 
	C378.000000,426.185211 379.848694,429.108215 385.341553,429.423492 
	C399.223938,430.220245 411.778503,426.090149 423.086182,418.676788 
	C434.775391,411.013275 445.991943,402.591583 457.085815,394.072571 
	C462.941376,389.576050 468.882996,384.908142 471.584137,377.441284 
	C473.305054,372.684082 475.336517,368.021820 477.517090,363.454651 
	C478.898193,360.561920 481.282379,359.171112 484.795715,359.653198 
	C491.431824,360.563751 494.105072,362.985565 493.892059,370.070740 
	C493.663788,377.662292 492.916840,385.276428 491.816132,392.795807 
	C489.379395,409.442505 486.592163,426.038116 483.921722,442.650330 
	C482.664795,450.469482 478.885712,453.682770 470.733734,453.661224 
	C459.743195,453.632141 448.752502,453.333984 437.762756,453.375824 
	C395.964081,453.534912 354.165009,453.699921 312.368103,454.084869 
	C305.573425,454.147461 298.789093,455.333344 292.000000,456.000000 
	C285.312347,456.000000 278.624725,456.000000 271.274323,455.695221 
	C269.693268,455.075928 268.753296,454.812958 267.860321,454.438141 
	C263.547058,452.627686 259.994202,450.598297 260.853516,444.681732 
	C261.663574,439.104614 264.755066,437.450104 269.827423,436.829254 
	C277.371674,435.905853 283.821259,432.301422 287.890350,425.816376 
	C293.972961,416.122314 299.586792,406.129028 305.243011,396.173859 
	C311.775543,384.676239 315.143829,371.922943 315.715240,359.038391 
	C316.551880,340.172424 316.942932,321.200653 313.098267,302.402649 
	C308.565155,280.238617 298.405548,261.673889 280.299591,247.884445 
	C271.226776,240.974609 260.743561,237.130096 249.399521,236.072998 
	C241.460037,235.333160 233.467621,235.161346 225.498840,234.735855 
	C227.721283,236.741898 230.161270,237.507431 232.410553,238.648758 
	C248.524094,246.825180 262.952209,257.266479 272.414124,272.922028 
	C277.545135,281.411774 282.219543,290.648010 284.691925,300.172607 
	C289.326843,318.028168 290.441956,336.406433 288.049805,354.895813 
	C286.224823,369.001312 282.734741,382.600128 275.740570,394.993347 
	C267.547821,409.510468 256.525330,421.429596 242.751801,431.177460 
	C227.013855,442.315521 209.803574,449.249023 191.106812,452.984619 
	C185.430313,454.118774 179.703674,455.001892 174.000000,456.000000 
	C162.312439,456.000000 150.624878,456.000000 138.301331,455.591248 
	C125.697151,454.906006 113.728500,454.381622 101.760887,454.404144 
	C76.305237,454.452057 50.849686,454.935394 25.395182,454.862335 
	C20.743706,454.848999 15.937031,453.502991 11.489120,451.949890 
	C5.890132,449.994843 4.052410,445.023407 6.918136,440.636292 
	C9.701836,436.374725 13.872016,434.046021 19.020344,434.370026 
	C28.791315,434.984985 38.542885,435.902618 48.306683,436.639221 
	C54.231613,437.086243 60.907642,433.064636 60.955624,428.843872 
	C61.044556,421.020660 61.097908,413.184601 60.761055,405.371338 
	C59.715797,381.126648 57.817909,356.898651 57.507145,332.648071 
	C57.202785,308.897705 58.508282,285.128906 58.961651,261.365417 
	C59.113384,253.412369 54.658012,248.867859 46.682922,249.081055 
	C39.071510,249.284561 31.428429,249.795166 23.888128,250.822784 
	C12.100909,252.429184 6.242120,250.154434 1.000000,241.000000 
M437.175201,77.370102 
	C436.746521,77.000381 436.317841,76.630661 435.355133,75.817047 
	C428.238281,66.019035 418.548096,59.429726 407.565125,53.360088 
	C406.637878,53.011345 405.670471,52.742863 404.789307,52.301987 
	C387.363892,43.583393 368.732513,42.070751 350.062592,45.299870 
	C330.150635,48.743809 312.821686,58.369099 299.292145,73.561104 
	C281.906830,93.082695 273.876068,115.988708 275.907043,142.382172 
	C277.334595,160.933365 283.813690,177.295120 295.004700,191.990692 
	C295.004700,191.990692 295.087433,191.940109 295.130005,192.455460 
	C295.386566,192.675140 295.643127,192.894821 296.207123,193.712021 
	C304.088684,204.168045 313.978027,212.262955 325.481689,218.407181 
	C327.023834,219.230865 328.866394,219.907700 330.578430,219.927933 
	C339.382050,220.032089 348.188507,219.899536 357.930634,219.968124 
	C370.239929,219.979111 382.615906,219.199188 394.839142,220.230286 
	C406.361816,221.202301 414.800201,215.604645 422.270874,208.911179 
	C430.293549,201.723160 437.623138,193.378189 443.675964,184.465561 
	C452.567902,171.372345 457.176147,156.487534 458.087921,140.449478 
	C459.010681,124.219154 455.648163,108.967827 448.498505,94.605530 
	C445.845978,89.277077 441.623718,84.730049 438.072510,79.923988 
	C438.072510,79.923988 438.178589,79.939186 438.616760,79.326416 
	C438.094604,78.860397 437.572479,78.394379 437.013916,77.993233 
	C437.013916,77.993233 437.086395,77.976448 437.175201,77.370102 
M285.643616,74.987511 
	C285.915161,74.537422 286.186707,74.087334 286.571167,73.505119 
	C286.571167,73.505119 286.671997,73.363533 287.209167,73.075127 
	C288.588409,71.405296 289.967682,69.735466 291.743134,67.788216 
	C292.134552,67.285286 292.525970,66.782364 293.555878,65.978706 
	C295.130463,64.291489 296.705048,62.604263 298.619263,60.848289 
	C298.859009,60.763428 299.006958,60.596958 299.722137,60.140705 
	C300.541321,59.137417 301.360535,58.134129 302.063751,57.062622 
	C302.063751,57.062622 302.133026,57.177956 302.825867,57.096645 
	C310.458038,52.558456 317.902222,47.660755 325.759521,43.553185 
	C345.110260,33.437149 366.057892,32.989662 386.751099,36.441853 
	C406.626099,39.757553 423.950958,49.686337 438.211731,64.028168 
	C449.000427,74.878166 456.925720,87.767075 462.002930,102.340904 
	C467.514008,118.160194 468.146729,134.299469 466.046448,150.755920 
	C463.554047,170.284393 455.468689,187.232544 442.718842,202.006805 
	C437.280762,208.308334 431.351410,214.185883 425.909454,219.975067 
	C427.220428,219.975067 429.230408,219.827820 431.208282,220.016891 
	C433.149780,220.202484 435.058563,220.729904 437.198883,221.812012 
	C440.846283,230.032043 437.328949,235.985474 428.207397,237.027237 
	C423.453796,237.570160 418.682648,237.990341 413.949463,238.674179 
	C404.508087,240.038223 395.044342,241.326508 385.691315,243.162781 
	C383.594696,243.574432 380.731659,245.838989 380.295471,247.729126 
	C379.440277,251.434799 380.044098,255.477173 380.044098,260.243347 
	C389.785461,257.916626 398.816254,256.514923 407.312195,253.570175 
	C424.026764,247.776779 438.920807,238.636230 451.949677,226.563110 
	C466.179901,213.376740 476.860718,197.641937 483.484528,179.546524 
	C490.235687,161.103256 494.134827,141.918411 490.867859,122.151093 
	C489.349060,112.961418 486.455750,103.998901 484.067352,94.148277 
	C479.245636,78.257744 470.910278,64.499443 458.782104,52.261879 
	C457.246735,50.335583 455.893433,48.223549 454.147522,46.512028 
	C438.473450,31.146721 419.690338,21.167667 398.790924,14.981823 
	C372.464539,7.189696 346.535339,9.631630 321.219177,19.105509 
	C305.174408,25.109819 291.011505,34.596992 278.918365,46.722755 
	C265.647888,60.029041 255.720642,75.562248 249.363235,93.428680 
	C240.737534,117.669792 239.291763,142.115631 246.057938,166.943405 
	C251.194595,185.791748 259.698059,202.928619 273.024597,217.408340 
	C274.184113,218.668152 276.296082,219.051346 278.897034,219.976242 
	C288.756287,219.976242 298.615570,219.976242 309.259918,219.976242 
	C304.441193,215.682922 300.046783,212.387711 296.398560,208.408417 
	C281.637451,192.307770 271.327454,174.027924 267.610016,152.054245 
	C265.294617,138.367874 265.269653,124.836075 268.954712,111.774406 
	C272.045227,100.820229 277.559601,90.549904 281.990845,79.991707 
	C281.990845,79.991707 281.976379,80.002258 282.636200,79.820816 
	C283.490601,78.246780 284.345001,76.672737 285.103394,75.071884 
	C285.103394,75.071884 285.136780,75.165810 285.643616,74.987511 
M133.000549,410.180481 
	C134.158554,414.775269 134.820801,419.583191 136.668869,423.881287 
	C137.703125,426.286652 140.404388,428.572449 142.895599,429.598785 
	C145.830017,430.807770 149.355118,430.971985 152.614990,430.927124 
	C161.389954,430.806427 170.165497,430.436737 178.930817,429.975739 
	C191.439285,429.317841 201.499130,423.708191 208.072220,413.216705 
	C212.193146,406.639252 215.290359,399.273743 217.903320,391.926239 
	C225.170944,371.490265 224.799469,350.168274 223.628006,328.961151 
	C222.654022,311.329315 219.088898,294.164154 211.170700,278.093842 
	C205.213379,266.003235 197.447510,255.753143 185.493958,248.922348 
	C173.941223,242.320572 161.348175,241.895737 148.881546,243.342789 
	C137.916443,244.615540 130.234390,254.104324 130.720993,263.161133 
	C132.425583,294.887604 133.284164,326.669495 133.884567,358.441284 
	C134.204330,375.362976 133.333710,392.307159 133.000549,410.180481 
M112.999565,166.500015 
	C112.999565,176.314621 112.895935,186.130829 113.046318,195.943130 
	C113.114388,200.385147 113.110085,204.960327 114.152199,209.227570 
	C116.251648,217.824432 124.048752,222.504181 133.173035,220.951248 
	C140.800430,219.653076 143.623154,216.808426 143.400421,205.947540 
	C143.005219,186.676971 143.105484,167.396210 143.001923,148.119705 
	C142.988510,145.624542 143.133896,143.119949 142.966263,140.635880 
	C142.524231,134.085800 140.221375,132.000931 133.687256,131.999710 
	C129.694870,131.998962 125.702003,131.960861 121.710205,132.009567 
	C116.922478,132.067978 114.298508,134.341278 114.039665,139.123444 
	C113.564140,147.908676 113.332733,156.707123 112.999565,166.500015 
M71.994308,278.500000 
	C71.795105,291.638275 71.398720,304.777069 71.436081,317.914673 
	C71.525055,349.201416 71.674690,380.489838 72.162056,411.771912 
	C72.250671,417.460052 73.787628,423.190887 75.215271,428.758606 
	C75.735497,430.787415 77.884964,432.398499 79.291107,434.200165 
	C80.767181,432.189636 83.138489,430.342560 83.541443,428.136078 
	C84.517647,422.790588 84.937927,417.278442 84.949112,411.832153 
	C85.046959,364.190338 85.036880,316.548187 84.961868,268.906281 
	C84.953529,263.609039 84.379707,258.309814 83.991287,253.017136 
	C83.795410,250.348114 83.667473,247.786575 79.665955,247.980270 
	C76.234131,248.146393 73.186806,248.193939 72.997261,252.645447 
	C72.644516,260.929535 72.326675,269.215118 71.994308,278.500000 
M297.944611,240.533569 
	C302.016571,246.507446 306.768707,252.133713 310.032776,258.520477 
	C319.767883,277.569153 326.048584,297.631683 328.343628,319.133942 
	C330.512390,339.452789 330.642639,359.507141 325.918640,379.377625 
	C321.934143,396.137604 315.851532,412.052795 304.880554,425.760529 
	C303.022125,428.082581 302.405945,431.398834 301.215820,434.255768 
	C301.735229,434.553314 302.254639,434.850830 302.774048,435.148376 
	C310.429535,432.383026 316.815430,427.571136 320.555786,420.363800 
	C325.548035,410.744171 330.723450,400.939423 333.641357,390.599304 
	C336.791992,379.434448 337.696594,367.592987 339.104095,355.988800 
	C341.382568,337.203979 339.598785,318.530304 336.035065,300.077026 
	C333.050446,284.622650 327.011322,270.139740 319.570587,256.325897 
	C315.812683,249.349258 311.493561,242.590378 304.385101,238.303986 
	C300.582245,236.010864 298.603302,236.443512 297.944611,240.533569 
M155.996933,140.500000 
	C156.195938,166.863678 155.549561,193.246628 156.406403,219.405869 
	C164.875168,220.365494 164.886307,220.286423 165.036545,213.494904 
	C165.113434,210.019547 165.783890,206.550903 165.769958,203.080902 
	C165.553574,149.165939 165.343094,95.250603 164.865021,41.337715 
	C164.825043,36.828568 162.876984,32.336346 161.815414,27.836260 
	C161.150482,27.817699 160.485535,27.799139 159.820602,27.780579 
	C158.900742,29.754496 157.462784,31.653784 157.165527,33.717384 
	C156.481262,38.467697 156.059265,43.297005 156.044525,48.095837 
	C155.950882,78.563652 155.996933,109.031898 155.996933,140.500000 
M56.507732,29.060604 
	C55.381756,30.552774 53.616188,31.907526 53.260052,33.565102 
	C52.465328,37.264008 52.050388,41.113602 52.045082,44.902596 
	C51.972569,96.680740 51.971294,148.459061 52.050983,200.237167 
	C52.056458,203.795044 52.844082,207.351715 53.326248,211.398087 
	C56.556618,210.233597 60.942024,213.033783 61.036076,207.056335 
	C61.174614,198.250977 61.688904,189.450668 61.775967,180.645554 
	C61.943848,163.666382 62.071835,146.684296 61.950581,129.705322 
	C61.741501,100.429558 61.473366,71.152130 60.841984,41.883778 
	C60.750496,37.642769 58.508865,33.448147 56.507732,29.060604 
z"/>
<path fill="#FEFEFE" opacity="1.000000" stroke="none" 
	d="
M292.468658,456.000000 
	C298.789093,455.333344 305.573425,454.147461 312.368103,454.084869 
	C354.165009,453.699921 395.964081,453.534912 437.762756,453.375824 
	C448.752502,453.333984 459.743195,453.632141 470.733734,453.661224 
	C478.885712,453.682770 482.664795,450.469482 483.921722,442.650330 
	C486.592163,426.038116 489.379395,409.442505 491.816132,392.795807 
	C492.916840,385.276428 493.663788,377.662292 493.892059,370.070740 
	C494.105072,362.985565 491.431824,360.563751 484.795715,359.653198 
	C481.282379,359.171112 478.898193,360.561920 477.517090,363.454651 
	C475.336517,368.021820 473.305054,372.684082 471.584137,377.441284 
	C468.882996,384.908142 462.941376,389.576050 457.085815,394.072571 
	C445.991943,402.591583 434.775391,411.013275 423.086182,418.676788 
	C411.778503,426.090149 399.223938,430.220245 385.341553,429.423492 
	C379.848694,429.108215 378.000000,426.185211 378.444641,420.687927 
	C382.070465,375.858734 382.589203,330.957031 381.956421,286.024658 
	C381.879456,280.561218 381.213684,275.106110 380.877716,270.438568 
	C393.694397,266.620209 406.241608,263.576538 418.268921,259.127441 
	C434.177032,253.242722 447.801636,243.530975 460.079803,231.748596 
	C473.362518,219.002258 483.845367,204.267899 490.348846,187.248947 
	C494.877106,175.398926 497.016327,162.635941 500.611389,150.140411 
	C501.000000,251.913315 501.000000,353.826630 501.000000,456.000000 
	C431.645996,456.000000 362.291656,456.000000 292.468658,456.000000 
z"/>
<path fill="#FEFEFE" opacity="1.000000" stroke="none" 
	d="
M354.531342,1.000002 
	C348.323242,2.331220 341.591064,3.434233 334.980835,5.039451 
	C319.502594,8.798178 305.173492,15.089491 291.868378,24.017061 
	C276.052826,34.629124 262.922211,47.876564 253.077072,63.951569 
	C242.651779,80.973808 235.636368,99.319290 233.768188,119.667336 
	C231.654236,142.692429 233.552505,164.999161 242.542694,186.284027 
	C246.404068,195.426102 252.110962,203.791458 257.023712,212.484650 
	C258.211731,214.586899 259.575531,216.589828 261.109009,219.038483 
	C249.074326,218.838333 237.919296,217.407288 227.268372,212.861633 
	C220.585419,210.009445 216.986847,204.990891 217.072464,197.939346 
	C217.393768,171.471802 218.184372,145.009491 218.433350,118.541786 
	C218.560028,105.075706 217.876740,91.602905 217.616974,78.132034 
	C217.370178,65.333282 216.955109,52.530552 217.088638,39.734524 
	C217.163239,32.586075 222.835571,27.588778 229.823853,26.931347 
	C233.893646,26.548475 237.987030,25.792299 241.913269,24.660868 
	C247.181946,23.142578 250.765015,17.903181 250.994843,12.282584 
	C251.210098,7.018809 248.007278,3.732018 241.806915,3.714437 
	C227.652451,3.674304 213.496536,4.086006 199.342300,4.032059 
	C185.222198,3.978243 171.103531,3.572773 156.984009,3.336619 
	C149.329544,3.208595 141.674133,3.034635 134.020157,3.074146 
	C132.670227,3.081114 130.961166,3.682145 130.040192,4.619933 
	C125.764565,8.973616 127.429192,20.354540 133.060410,22.733398 
	C140.820053,26.011393 143.218872,31.580032 143.096771,39.568424 
	C142.802094,58.848568 143.011749,78.136269 142.995514,97.420906 
	C142.989777,104.239075 141.245041,105.994263 134.604645,106.000313 
	C129.605835,106.004868 124.603683,105.888496 119.609268,106.036705 
	C115.580467,106.156258 113.597557,104.342400 112.970848,100.423485 
	C109.983223,81.741188 110.792671,62.980118 111.652832,44.214207 
	C111.721313,42.720146 112.060905,41.218941 111.967705,39.740395 
	C111.540161,32.957462 113.759567,27.899046 119.731445,23.912285 
	C126.959419,19.086973 127.984055,13.889760 123.909775,6.517479 
	C122.962189,4.802844 120.248192,3.003638 118.369919,3.027804 
	C99.068817,3.276138 79.773232,4.237593 60.474476,4.281348 
	C48.039471,4.309540 35.601345,3.148764 23.165606,2.501927 
	C20.842424,2.381089 18.525087,2.046990 16.203022,2.024900 
	C9.819862,1.964175 8.012002,3.590310 7.134448,9.935053 
	C6.401543,15.233974 8.690278,19.215776 13.533361,20.584993 
	C19.534912,22.281734 25.646675,23.601204 31.612623,25.407936 
	C38.159054,27.390457 40.059269,29.714123 39.935024,36.495857 
	C39.633259,52.967670 38.806103,69.430328 38.544922,85.902298 
	C38.236130,105.376740 38.029747,124.860535 38.279812,144.333847 
	C38.516968,162.802124 39.529831,181.259186 39.941998,199.726974 
	C40.123344,207.852661 35.170643,214.348480 27.451414,216.674026 
	C22.921434,218.038757 18.239073,218.889740 13.650306,220.069275 
	C7.777235,221.578918 3.854092,225.296143 1.358609,230.970337 
	C1.000000,154.390778 1.000000,77.781570 1.000000,1.000000 
	C118.687508,1.000000 236.375092,1.000000 354.531342,1.000002 
z"/>
<path fill="#FEFEFE" opacity="1.000000" stroke="none" 
	d="
M1.000000,241.468658 
	C6.242120,250.154434 12.100909,252.429184 23.888128,250.822784 
	C31.428429,249.795166 39.071510,249.284561 46.682922,249.081055 
	C54.658012,248.867859 59.113384,253.412369 58.961651,261.365417 
	C58.508282,285.128906 57.202785,308.897705 57.507145,332.648071 
	C57.817909,356.898651 59.715797,381.126648 60.761055,405.371338 
	C61.097908,413.184601 61.044556,421.020660 60.955624,428.843872 
	C60.907642,433.064636 54.231613,437.086243 48.306683,436.639221 
	C38.542885,435.902618 28.791315,434.984985 19.020344,434.370026 
	C13.872016,434.046021 9.701836,436.374725 6.918136,440.636292 
	C4.052410,445.023407 5.890132,449.994843 11.489120,451.949890 
	C15.937031,453.502991 20.743706,454.848999 25.395182,454.862335 
	C50.849686,454.935394 76.305237,454.452057 101.760887,454.404144 
	C113.728500,454.381622 125.697151,454.906006 137.832672,455.591248 
	C92.390152,456.000000 46.780296,456.000000 1.000000,456.000000 
	C1.000000,384.645874 1.000000,313.291595 1.000000,241.468658 
z"/>
<path fill="#FDFDFE" opacity="1.000000" stroke="none" 
	d="
M174.468658,456.000000 
	C179.703674,455.001892 185.430313,454.118774 191.106812,452.984619 
	C209.803574,449.249023 227.013855,442.315521 242.751801,431.177460 
	C256.525330,421.429596 267.547821,409.510468 275.740570,394.993347 
	C282.734741,382.600128 286.224823,369.001312 288.049805,354.895813 
	C290.441956,336.406433 289.326843,318.028168 284.691925,300.172607 
	C282.219543,290.648010 277.545135,281.411774 272.414124,272.922028 
	C262.952209,257.266479 248.524094,246.825180 232.410553,238.648758 
	C230.161270,237.507431 227.721283,236.741898 225.498840,234.735855 
	C233.467621,235.161346 241.460037,235.333160 249.399521,236.072998 
	C260.743561,237.130096 271.226776,240.974609 280.299591,247.884445 
	C298.405548,261.673889 308.565155,280.238617 313.098267,302.402649 
	C316.942932,321.200653 316.551880,340.172424 315.715240,359.038391 
	C315.143829,371.922943 311.775543,384.676239 305.243011,396.173859 
	C299.586792,406.129028 293.972961,416.122314 287.890350,425.816376 
	C283.821259,432.301422 277.371674,435.905853 269.827423,436.829254 
	C264.755066,437.450104 261.663574,439.104614 260.853516,444.681732 
	C259.994202,450.598297 263.547058,452.627686 267.860321,454.438141 
	C268.753296,454.812958 269.693268,455.075928 270.805786,455.695221 
	C238.979111,456.000000 206.958206,456.000000 174.468658,456.000000 
z"/>
<path fill="#FEFEFE" opacity="1.000000" stroke="none" 
	d="
M501.000000,122.531342 
	C499.358246,115.376305 498.005035,107.676704 496.023285,100.142433 
	C488.633820,72.049179 473.203888,49.206722 450.795044,30.791916 
	C431.620850,15.035254 409.370667,6.608675 385.357330,2.067629 
	C383.415802,1.700473 381.378815,1.838389 379.193085,1.370800 
	C419.593628,1.000000 460.187256,1.000000 501.000000,1.000000 
	C501.000000,41.353962 501.000000,81.708321 501.000000,122.531342 
z"/>
<path fill="#FEFEFE" opacity="1.000000" stroke="none" 
	d="
M133.000458,409.710846 
	C133.333710,392.307159 134.204330,375.362976 133.884567,358.441284 
	C133.284164,326.669495 132.425583,294.887604 130.720993,263.161133 
	C130.234390,254.104324 137.916443,244.615540 148.881546,243.342789 
	C161.348175,241.895737 173.941223,242.320572 185.493958,248.922348 
	C197.447510,255.753143 205.213379,266.003235 211.170700,278.093842 
	C219.088898,294.164154 222.654022,311.329315 223.628006,328.961151 
	C224.799469,350.168274 225.170944,371.490265 217.903320,391.926239 
	C215.290359,399.273743 212.193146,406.639252 208.072220,413.216705 
	C201.499130,423.708191 191.439285,429.317841 178.930817,429.975739 
	C170.165497,430.436737 161.389954,430.806427 152.614990,430.927124 
	C149.355118,430.971985 145.830017,430.807770 142.895599,429.598785 
	C140.404388,428.572449 137.703125,426.286652 136.668869,423.881287 
	C134.820801,419.583191 134.158554,414.775269 133.000458,409.710846 
z"/>
<path fill="#EF5931" opacity="1.000000" stroke="none" 
	d="
M408.015442,53.890888 
	C418.548096,59.429726 428.238281,66.019035 435.695282,76.319611 
	C436.385742,77.206932 436.736053,77.591690 437.086395,77.976456 
	C437.086395,77.976448 437.013916,77.993233 436.999634,78.290359 
	C437.383118,79.038055 437.780853,79.488617 438.178589,79.939186 
	C438.178589,79.939186 438.072510,79.923988 438.039001,80.279419 
	C443.775726,98.786438 447.128693,117.123779 443.033997,136.204208 
	C440.267975,149.093430 435.997040,161.293427 428.054321,171.713318 
	C422.747681,156.856247 417.575073,142.348831 412.229553,127.356491 
	C408.356293,128.921295 404.823517,131.095764 401.044098,131.682953 
	C396.501068,132.388809 396.719391,134.527435 397.434113,137.893967 
	C398.800232,144.328430 399.883881,150.822861 401.108459,157.420120 
	C386.426910,163.112427 371.998352,168.706665 356.741150,174.622162 
	C357.149261,172.737640 357.235046,171.959625 357.486053,171.239166 
	C362.348297,157.281845 367.095734,143.281830 372.208099,129.416412 
	C373.385376,126.223457 372.588715,124.627190 370.173187,122.773148 
	C362.573029,116.939583 355.052582,110.998596 347.604950,104.971107 
	C342.931824,101.189056 338.444855,97.176956 333.378784,92.844223 
	C343.922333,88.699905 353.780640,85.041374 363.441559,80.920067 
	C367.258911,79.291626 369.064209,80.345154 370.925720,83.653389 
	C374.449127,89.915237 378.335327,95.972939 381.943298,101.905769 
	C387.250275,99.862526 391.982819,98.040451 397.076996,96.079140 
	C392.147522,84.756149 387.187744,73.363609 382.166321,61.829445 
	C369.559326,66.734932 357.516296,71.476631 345.427002,76.097244 
	C340.685028,77.909668 335.839355,79.450905 331.127289,80.783707 
	C339.499420,72.646591 349.079834,66.700638 359.523010,62.469769 
	C375.005585,56.197304 391.258728,53.402809 408.015442,53.890888 
z"/>
<path fill="#F05931" opacity="1.000000" stroke="none" 
	d="
M356.993958,219.849640 
	C348.188507,219.899536 339.382050,220.032089 330.578430,219.927933 
	C328.866394,219.907700 327.023834,219.230865 325.481689,218.407181 
	C313.978027,212.262955 304.088684,204.168045 296.021515,193.155563 
	C295.586426,192.379440 295.336914,192.159775 295.087433,191.940109 
	C295.087433,191.940109 295.004700,191.990692 295.053894,191.524841 
	C294.400818,184.655960 293.219421,178.260818 293.113922,171.847977 
	C292.972412,163.243958 293.293091,154.592255 294.080780,146.022202 
	C295.330933,132.419815 300.408478,120.113800 308.427551,109.004105 
	C322.903381,120.167839 337.067261,131.202118 351.490112,142.438126 
	C347.578583,153.739746 344.194458,165.312241 339.574280,176.368179 
	C334.840485,187.695862 333.849670,198.289520 341.227905,208.769592 
	C358.069153,202.234314 374.899384,195.662674 391.761719,189.174500 
	C402.498840,185.043152 413.283569,181.035538 424.022095,177.328583 
	C420.851166,181.472031 417.969025,185.522278 414.508331,188.996216 
	C405.006226,198.534760 394.473022,206.754776 381.722687,211.536987 
	C373.585236,214.589066 365.243866,217.097473 356.993958,219.849640 
z"/>
<path fill="#F59F8C" opacity="1.000000" stroke="none" 
	d="
M299.063049,60.348869 
	C299.006958,60.596958 298.859009,60.763428 298.054504,60.848724 
	C295.965576,62.659245 294.441467,64.469337 292.917358,66.279434 
	C292.525970,66.782364 292.134552,67.285286 291.166260,67.845657 
	C289.283630,69.723236 287.977814,71.543388 286.671997,73.363541 
	C286.671997,73.363533 286.571167,73.505119 286.188416,73.424454 
	C285.582733,73.951134 285.359772,74.558472 285.136780,75.165810 
	C285.136780,75.165810 285.103394,75.071884 284.797699,75.142830 
	C283.653442,76.809937 282.814911,78.406097 281.976379,80.002258 
	C281.976379,80.002258 281.990845,79.991707 281.636169,79.956711 
	C280.408081,80.861488 279.235291,81.658577 278.708618,82.763618 
	C274.505615,91.581955 269.747589,100.213509 266.436554,109.364334 
	C257.265198,134.711273 255.558716,160.613235 264.087067,186.452316 
	C267.854126,197.865677 273.288300,208.728806 277.965637,219.841736 
	C276.296082,219.051346 274.184113,218.668152 273.024597,217.408340 
	C259.698059,202.928619 251.194595,185.791748 246.057938,166.943405 
	C239.291763,142.115631 240.737534,117.669792 249.363235,93.428680 
	C255.720642,75.562248 265.647888,60.029041 278.918365,46.722755 
	C291.011505,34.596992 305.174408,25.109819 321.219177,19.105509 
	C346.535339,9.631630 372.464539,7.189696 398.790924,14.981823 
	C419.690338,21.167667 438.473450,31.146721 454.147522,46.512028 
	C455.893433,48.223549 457.246735,50.335583 458.555908,52.593910 
	C457.627930,52.523369 456.849121,52.213600 456.235596,51.704620 
	C441.222931,39.251114 424.552490,30.403849 405.227173,26.380089 
	C388.623779,22.923061 372.201660,23.662556 356.059509,27.615288 
	C336.920197,32.301937 319.720245,41.504990 304.127411,53.574509 
	C303.130280,54.346317 302.782745,55.957340 302.133026,57.177959 
	C302.133026,57.177956 302.063751,57.062622 301.742065,57.004501 
	C300.634644,58.080540 299.848846,59.214699 299.063049,60.348869 
z"/>
<path fill="#EF5932" opacity="1.000000" stroke="none" 
	d="
M302.479431,57.137306 
	C302.782745,55.957340 303.130280,54.346317 304.127411,53.574509 
	C319.720245,41.504990 336.920197,32.301937 356.059509,27.615288 
	C372.201660,23.662556 388.623779,22.923061 405.227173,26.380089 
	C424.552490,30.403849 441.222931,39.251114 456.235596,51.704620 
	C456.849121,52.213600 457.627930,52.523369 458.680481,52.908772 
	C470.910278,64.499443 479.245636,78.257744 484.061005,95.006683 
	C483.718536,108.962067 484.595184,122.226799 482.811218,135.123505 
	C478.097351,169.200897 463.606201,198.496704 436.981720,221.107315 
	C435.058563,220.729904 433.149780,220.202484 431.208282,220.016891 
	C429.230408,219.827820 427.220428,219.975067 425.909454,219.975067 
	C431.351410,214.185883 437.280762,208.308334 442.718842,202.006805 
	C455.468689,187.232544 463.554047,170.284393 466.046448,150.755920 
	C468.146729,134.299469 467.514008,118.160194 462.002930,102.340904 
	C456.925720,87.767075 449.000427,74.878166 438.211731,64.028168 
	C423.950958,49.686337 406.626099,39.757553 386.751099,36.441853 
	C366.057892,32.989662 345.110260,33.437149 325.759521,43.553185 
	C317.902222,47.660755 310.458038,52.558456 302.479431,57.137306 
z"/>
<path fill="#A22522" opacity="1.000000" stroke="none" 
	d="
M308.115662,108.874657 
	C300.408478,120.113800 295.330933,132.419815 294.080780,146.022202 
	C293.293091,154.592255 292.972412,163.243958 293.113922,171.847977 
	C293.219421,178.260818 294.400818,184.655960 295.089111,191.491394 
	C283.813690,177.295120 277.334595,160.933365 275.907043,142.382172 
	C273.876068,115.988708 281.906830,93.082695 299.292145,73.561104 
	C312.821686,58.369099 330.150635,48.743809 350.062592,45.299870 
	C368.732513,42.070751 387.363892,43.583393 404.789307,52.301987 
	C405.670471,52.742863 406.637878,53.011345 407.790283,53.625488 
	C391.258728,53.402809 375.005585,56.197304 359.523010,62.469769 
	C349.079834,66.700638 339.499420,72.646591 331.113434,80.751297 
	C331.013214,81.050842 331.077454,81.022972 330.792328,81.017532 
	C330.043915,81.285957 329.580658,81.559807 328.784149,81.987000 
	C318.573639,86.252014 308.696350,90.363693 298.900574,94.441437 
	C300.627563,100.697365 302.860382,105.777229 308.115662,108.874657 
z"/>
<path fill="#F69F8C" opacity="1.000000" stroke="none" 
	d="
M357.462280,219.908875 
	C365.243866,217.097473 373.585236,214.589066 381.722687,211.536987 
	C394.473022,206.754776 405.006226,198.534760 414.508331,188.996216 
	C417.969025,185.522278 420.851166,181.472031 424.225830,177.042892 
	C426.851715,175.947174 429.884460,176.040237 428.188324,172.062988 
	C435.997040,161.293427 440.267975,149.093430 443.033997,136.204208 
	C447.128693,117.123779 443.775726,98.786438 438.061432,80.230751 
	C441.623718,84.730049 445.845978,89.277077 448.498505,94.605530 
	C455.648163,108.967827 459.010681,124.219154 458.087921,140.449478 
	C457.176147,156.487534 452.567902,171.372345 443.675964,184.465561 
	C437.623138,193.378189 430.293549,201.723160 422.270874,208.911179 
	C414.800201,215.604645 406.361816,221.202301 394.839142,220.230286 
	C382.615906,219.199188 370.239929,219.979111 357.462280,219.908875 
z"/>
<path fill="#FEFEFE" opacity="1.000000" stroke="none" 
	d="
M112.999565,166.000031 
	C113.332733,156.707123 113.564140,147.908676 114.039665,139.123444 
	C114.298508,134.341278 116.922478,132.067978 121.710205,132.009567 
	C125.702003,131.960861 129.694870,131.998962 133.687256,131.999710 
	C140.221375,132.000931 142.524231,134.085800 142.966263,140.635880 
	C143.133896,143.119949 142.988510,145.624542 143.001923,148.119705 
	C143.105484,167.396210 143.005219,186.676971 143.400421,205.947540 
	C143.623154,216.808426 140.800430,219.653076 133.173035,220.951248 
	C124.048752,222.504181 116.251648,217.824432 114.152199,209.227570 
	C113.110085,204.960327 113.114388,200.385147 113.046318,195.943130 
	C112.895935,186.130829 112.999565,176.314621 112.999565,166.000031 
z"/>
<path fill="#EC5932" opacity="1.000000" stroke="none" 
	d="
M71.994308,278.000031 
	C72.326675,269.215118 72.644516,260.929535 72.997261,252.645447 
	C73.186806,248.193939 76.234131,248.146393 79.665955,247.980270 
	C83.667473,247.786575 83.795410,250.348114 83.991287,253.017136 
	C84.379707,258.309814 84.953529,263.609039 84.961868,268.906281 
	C85.036880,316.548187 85.046959,364.190338 84.949112,411.832153 
	C84.937927,417.278442 84.517647,422.790588 83.541443,428.136078 
	C83.138489,430.342560 80.767181,432.189636 79.291107,434.200165 
	C77.884964,432.398499 75.735497,430.787415 75.215271,428.758606 
	C73.787628,423.190887 72.250671,417.460052 72.162056,411.771912 
	C71.674690,380.489838 71.525055,349.201416 71.436081,317.914673 
	C71.398720,304.777069 71.795105,291.638275 71.994308,278.000031 
z"/>
<path fill="#A12622" opacity="1.000000" stroke="none" 
	d="
M437.090302,221.459656 
	C463.606201,198.496704 478.097351,169.200897 482.811218,135.123505 
	C484.595184,122.226799 483.718536,108.962067 484.120056,95.399246 
	C486.455750,103.998901 489.349060,112.961418 490.867859,122.151093 
	C494.134827,141.918411 490.235687,161.103256 483.484528,179.546524 
	C476.860718,197.641937 466.179901,213.376740 451.949677,226.563110 
	C438.920807,238.636230 424.026764,247.776779 407.312195,253.570175 
	C398.816254,256.514923 389.785461,257.916626 380.044098,260.243347 
	C380.044098,255.477173 379.440277,251.434799 380.295471,247.729126 
	C380.731659,245.838989 383.594696,243.574432 385.691315,243.162781 
	C395.044342,241.326508 404.508087,240.038223 413.949463,238.674179 
	C418.682648,237.990341 423.453796,237.570160 428.207397,237.027237 
	C437.328949,235.985474 440.846283,230.032043 437.090302,221.459656 
z"/>
<path fill="#EB5A33" opacity="1.000000" stroke="none" 
	d="
M297.773529,240.206238 
	C298.603302,236.443512 300.582245,236.010864 304.385101,238.303986 
	C311.493561,242.590378 315.812683,249.349258 319.570587,256.325897 
	C327.011322,270.139740 333.050446,284.622650 336.035065,300.077026 
	C339.598785,318.530304 341.382568,337.203979 339.104095,355.988800 
	C337.696594,367.592987 336.791992,379.434448 333.641357,390.599304 
	C330.723450,400.939423 325.548035,410.744171 320.555786,420.363800 
	C316.815430,427.571136 310.429535,432.383026 302.774048,435.148376 
	C302.254639,434.850830 301.735229,434.553314 301.215820,434.255768 
	C302.405945,431.398834 303.022125,428.082581 304.880554,425.760529 
	C315.851532,412.052795 321.934143,396.137604 325.918640,379.377625 
	C330.642639,359.507141 330.512390,339.452789 328.343628,319.133942 
	C326.048584,297.631683 319.767883,277.569153 310.032776,258.520477 
	C306.768707,252.133713 302.016571,246.507446 297.773529,240.206238 
z"/>
<path fill="#EE5A32" opacity="1.000000" stroke="none" 
	d="
M155.996933,140.000000 
	C155.996933,109.031898 155.950882,78.563652 156.044525,48.095837 
	C156.059265,43.297005 156.481262,38.467697 157.165527,33.717384 
	C157.462784,31.653784 158.900742,29.754496 159.820602,27.780579 
	C160.485535,27.799139 161.150482,27.817699 161.815414,27.836260 
	C162.876984,32.336346 164.825043,36.828568 164.865021,41.337715 
	C165.343094,95.250603 165.553574,149.165939 165.769958,203.080902 
	C165.783890,206.550903 165.113434,210.019547 165.036545,213.494904 
	C164.886307,220.286423 164.875168,220.365494 156.406403,219.405869 
	C155.549561,193.246628 156.195938,166.863678 155.996933,140.000000 
z"/>
<path fill="#ED5A32" opacity="1.000000" stroke="none" 
	d="
M56.884972,29.146332 
	C58.508865,33.448147 60.750496,37.642769 60.841984,41.883778 
	C61.473366,71.152130 61.741501,100.429558 61.950581,129.705322 
	C62.071835,146.684296 61.943848,163.666382 61.775967,180.645554 
	C61.688904,189.450668 61.174614,198.250977 61.036076,207.056335 
	C60.942024,213.033783 56.556618,210.233597 53.326248,211.398087 
	C52.844082,207.351715 52.056458,203.795044 52.050983,200.237167 
	C51.971294,148.459061 51.972569,96.680740 52.045082,44.902596 
	C52.050388,41.113602 52.465328,37.264008 53.260052,33.565102 
	C53.616188,31.907526 55.381756,30.552774 56.884972,29.146332 
z"/>
<path fill="#EF5A32" opacity="1.000000" stroke="none" 
	d="
M278.431335,219.908981 
	C273.288300,208.728806 267.854126,197.865677 264.087067,186.452316 
	C255.558716,160.613235 257.265198,134.711273 266.436554,109.364334 
	C269.747589,100.213509 274.505615,91.581955 278.708618,82.763618 
	C279.235291,81.658577 280.408081,80.861488 281.641144,79.949249 
	C277.559601,90.549904 272.045227,100.820229 268.954712,111.774406 
	C265.269653,124.836075 265.294617,138.367874 267.610016,152.054245 
	C271.327454,174.027924 281.637451,192.307770 296.398560,208.408417 
	C300.046783,212.387711 304.441193,215.682922 309.259918,219.976242 
	C298.615570,219.976242 288.756287,219.976242 278.431335,219.908981 
z"/>
<path fill="#EF5932" opacity="1.000000" stroke="none" 
	d="
M286.940582,73.219330 
	C287.977814,71.543388 289.283630,69.723236 290.968201,67.984360 
	C289.967682,69.735466 288.588409,71.405296 286.940582,73.219330 
z"/>
<path fill="#EF5932" opacity="1.000000" stroke="none" 
	d="
M293.236633,66.129066 
	C294.441467,64.469337 295.965576,62.659245 297.884644,60.883099 
	C296.705048,62.604263 295.130463,64.291489 293.236633,66.129066 
z"/>
<path fill="#EF5A32" opacity="1.000000" stroke="none" 
	d="
M282.306274,79.911537 
	C282.814911,78.406097 283.653442,76.809937 284.845703,75.156235 
	C284.345001,76.672737 283.490601,78.246780 282.306274,79.911537 
z"/>
<path fill="#EF5932" opacity="1.000000" stroke="none" 
	d="
M299.392578,60.244781 
	C299.848846,59.214699 300.634644,58.080540 301.800049,57.038605 
	C301.360535,58.134129 300.541321,59.137417 299.392578,60.244781 
z"/>
<path fill="#EF5932" opacity="1.000000" stroke="none" 
	d="
M285.390198,75.076660 
	C285.359772,74.558472 285.582733,73.951134 286.131958,73.490524 
	C286.186707,74.087334 285.915161,74.537422 285.390198,75.076660 
z"/>
<path fill="#F69F8C" opacity="1.000000" stroke="none" 
	d="
M438.397675,79.632797 
	C437.780853,79.488617 437.383118,79.038055 437.017853,78.257919 
	C437.572479,78.394379 438.094604,78.860397 438.397675,79.632797 
z"/>
<path fill="#F69F8C" opacity="1.000000" stroke="none" 
	d="
M437.130798,77.673279 
	C436.736053,77.591690 436.385742,77.206932 435.962280,76.541550 
	C436.317841,76.630661 436.746521,77.000381 437.130798,77.673279 
z"/>
<path fill="#A22522" opacity="1.000000" stroke="none" 
	d="
M295.108704,192.197784 
	C295.336914,192.159775 295.586426,192.379440 295.867798,192.856812 
	C295.643127,192.894821 295.386566,192.675140 295.108704,192.197784 
z"/>
<path fill="#010101" opacity="1.000000" stroke="none" 
	d="
M428.054321,171.713318 
	C429.884460,176.040237 426.851715,175.947174 424.250671,176.686737 
	C413.283569,181.035538 402.498840,185.043152 391.761719,189.174500 
	C374.899384,195.662674 358.069153,202.234314 341.227905,208.769592 
	C333.849670,198.289520 334.840485,187.695862 339.574280,176.368179 
	C344.194458,165.312241 347.578583,153.739746 351.490112,142.438126 
	C337.067261,131.202118 322.903381,120.167839 308.427551,109.004105 
	C302.860382,105.777229 300.627563,100.697365 298.900574,94.441437 
	C308.696350,90.363693 318.573639,86.252014 329.075562,82.026993 
	C330.159302,81.616760 330.618378,81.319870 331.077454,81.022972 
	C331.077454,81.022972 331.013214,81.050842 331.027069,81.083244 
	C335.839355,79.450905 340.685028,77.909668 345.427002,76.097244 
	C357.516296,71.476631 369.559326,66.734932 382.166321,61.829445 
	C387.187744,73.363609 392.147522,84.756149 397.076996,96.079140 
	C391.982819,98.040451 387.250275,99.862526 381.943298,101.905769 
	C378.335327,95.972939 374.449127,89.915237 370.925720,83.653389 
	C369.064209,80.345154 367.258911,79.291626 363.441559,80.920067 
	C353.780640,85.041374 343.922333,88.699905 333.378784,92.844223 
	C338.444855,97.176956 342.931824,101.189056 347.604950,104.971107 
	C355.052582,110.998596 362.573029,116.939583 370.173187,122.773148 
	C372.588715,124.627190 373.385376,126.223457 372.208099,129.416412 
	C367.095734,143.281830 362.348297,157.281845 357.486053,171.239166 
	C357.235046,171.959625 357.149261,172.737640 356.741150,174.622162 
	C371.998352,168.706665 386.426910,163.112427 401.108459,157.420120 
	C399.883881,150.822861 398.800232,144.328430 397.434113,137.893967 
	C396.719391,134.527435 396.501068,132.388809 401.044098,131.682953 
	C404.823517,131.095764 408.356293,128.921295 412.229553,127.356491 
	C417.575073,142.348831 422.747681,156.856247 428.054321,171.713318 
z"/>
<path fill="#EF5931" opacity="1.000000" stroke="none" 
	d="
M330.792328,81.017532 
	C330.618378,81.319870 330.159302,81.616760 329.408813,81.873657 
	C329.580658,81.559807 330.043915,81.285957 330.792328,81.017532 
z"/>
</svg>