<?xml version="1.0" encoding="UTF-8" standalone="no"?>
<!-- Generator: Adobe Illustrator 25.3.1, SVG Export Plug-In . SVG Version: 6.00 Build 0)  -->

<svg
   version="1.1"
   x="0px"
   y="0px"
   viewBox="0 0 1920 1920"
   style="enable-background:new 0 0 1920 1920;"
   xml:space="preserve"
   id="svg48"
   sodipodi:docname="kushti.svg"
   inkscape:version="1.1.1 (c3084ef, 2021-09-22)"
   xmlns:inkscape="http://www.inkscape.org/namespaces/inkscape"
   xmlns:sodipodi="http://sodipodi.sourceforge.net/DTD/sodipodi-0.dtd"
   xmlns:xlink="http://www.w3.org/1999/xlink"
   xmlns="http://www.w3.org/2000/svg"
   xmlns:svg="http://www.w3.org/2000/svg"><defs
   id="defs52" /><sodipodi:namedview
   id="namedview50"
   pagecolor="#ffffff"
   bordercolor="#666666"
   borderopacity="1.0"
   inkscape:pageshadow="2"
   inkscape:pageopacity="0.0"
   inkscape:pagecheckerboard="0"
   showgrid="false"
   inkscape:zoom="0.28333333"
   inkscape:cx="961.76471"
   inkscape:cy="960"
   inkscape:window-width="1312"
   inkscape:window-height="766"
   inkscape:window-x="0"
   inkscape:window-y="25"
   inkscape:window-maximized="0"
   inkscape:current-layer="svg48" />
<style
   type="text/css"
   id="style9">
	.st0{fill:url(#SVGID_1_);}
	.st1{fill:#FFFFFF;}
	.st2{fill:#FF5537;}
</style>
<g
   id="Layer_1">
</g>
<g
   id="logo-text"
   transform="matrix(1.0869998,0,0,1.0869998,-83.519808,-83.506221)">
	<g
   id="g45">
		<g
   id="g23">
			<g
   id="g21">
				<g
   id="g19">
					<linearGradient
   id="SVGID_1_"
   gradientUnits="userSpaceOnUse"
   x1="329.5119"
   y1="1215.9406"
   x2="1976.0071"
   y2="547.56128">
						<stop
   offset="0"
   style="stop-color:#5E0EFF"
   id="stop12" />
						<stop
   offset="0.9992"
   style="stop-color:#000000"
   id="stop14" />
					</linearGradient>
					<path
   class="st0"
   d="M 1779.7,935.3 1557.1,397.9 c -6.6,-15.8 -19.1,-28.4 -35,-35 L 984.7,140.3 c -15.8,-6.6 -33.6,-6.6 -49.4,0 L 397.9,362.9 c -15.8,6.6 -28.4,19.1 -35,35 L 140.3,935.3 c -6.6,15.8 -6.6,33.6 0,49.4 l 222.6,537.4 c 6.6,15.8 19.1,28.4 35,35 l 537.4,222.6 c 15.8,6.6 33.6,6.6 49.4,0 l 537.4,-222.6 c 15.8,-6.6 28.4,-19.1 35,-35 l 222.6,-537.4 c 6.5,-15.8 6.5,-33.6 0,-49.4 z"
   id="path17"
   style="fill:url(#SVGID_1_)" />
				</g>
			</g>
		</g>
		<g
   id="g27">
			<path
   class="st1"
   d="M 582.3,1285 V 635 c 0,-64.2 52,-116.2 116.2,-116.2 h 63.8 c 64.2,0 116.2,52 116.2,116.2 v 309.3 l 203.2,-355.8 c 24.6,-43.1 70.4,-69.7 120,-69.7 v 0 c 107.3,0 173.7,117 118.7,209.2 l -130,217.5 136.3,235.6 c 56.5,97.7 -14,220 -126.9,220 v 0 c -54.7,0 -104.9,-30.5 -130.1,-79.1 L 878.4,954 v 331 c 0,64.2 -52,116.2 -116.2,116.2 h -63.8 c -64.1,0 -116.1,-52 -116.1,-116.2 z"
   id="path25" />
		</g>
		<g
   id="g35">
			<defs
   id="defs30">
				<path
   id="SVGID_2_"
   d="M 1779.7,935.3 1557.1,397.9 c -6.6,-15.8 -19.1,-28.4 -35,-35 L 984.7,140.3 c -15.8,-6.6 -33.6,-6.6 -49.4,0 L 397.9,362.9 c -15.8,6.6 -28.4,19.1 -34.9,35 L 140.3,935.3 c -6.6,15.8 -6.6,33.6 0,49.4 l 222.6,537.4 c 6.6,15.8 19.1,28.4 34.9,35 l 537.4,222.6 c 15.8,6.6 33.6,6.6 49.4,0 L 1522,1557.1 c 15.8,-6.6 28.4,-19.1 35,-35 l 222.6,-537.4 c 6.6,-15.8 6.6,-33.6 0.1,-49.4 z" />
			</defs>
			<clipPath
   id="SVGID_3_">
				<use
   xlink:href="#SVGID_2_"
   style="overflow:visible"
   id="use32"
   x="0"
   y="0"
   width="100%"
   height="100%" />
			</clipPath>
		</g>
		<g
   id="g43">
			<g
   id="g41">
				<g
   id="g39">
					<path
   class="st2"
   d="m 960,1832.2 c -14.5,0 -29.1,-2.9 -42.9,-8.6 L 379.7,1601 C 352,1589.5 330.5,1568 319,1540.3 L 96.4,1002.9 C 84.9,975.2 84.9,944.7 96.4,917 L 319,379.7 C 330.5,352 352,330.5 379.7,319 L 917.1,96.4 c 27.7,-11.5 58.2,-11.5 85.9,0 L 1540.3,319 c 27.7,11.5 49.2,33 60.7,60.7 l 222.6,537.4 c 0,0 0,0 0,0 11.5,27.7 11.5,58.2 0,85.8 L 1601,1540.3 c -11.5,27.7 -33,49.2 -60.7,60.7 l -537.4,222.6 c -13.8,5.8 -28.4,8.6 -42.9,8.6 z M 960,183 c -2.2,0 -4.4,0.4 -6.5,1.3 L 416.1,406.9 c -4.2,1.7 -7.5,5 -9.2,9.2 L 184.3,953.5 c -1.7,4.2 -1.7,8.8 0,13 l 222.6,537.4 c 1.7,4.2 5,7.5 9.2,9.2 l 537.4,222.6 c 4.2,1.7 8.8,1.7 13,0 l 537.4,-222.6 c 4.2,-1.7 7.5,-5 9.2,-9.2 l 222.6,-537.4 c 1.7,-4.2 1.7,-8.8 0,-13 L 1513.1,416.1 c -1.7,-4.2 -5,-7.5 -9.2,-9.2 L 966.5,184.3 c -2.1,-0.9 -4.3,-1.3 -6.5,-1.3 z"
   id="path37" />
				</g>
			</g>
		</g>
	</g>
</g>
</svg>
