<?xml version="1.0" encoding="utf-8"?>
<!-- Generator: Adobe Illustrator 25.3.1, SVG Export Plug-In . SVG Version: 6.00 Build 0)  -->
<svg version="1.1" xmlns="http://www.w3.org/2000/svg" xmlns:xlink="http://www.w3.org/1999/xlink" x="0px" y="0px"
	 viewBox="0 0 1920 1920" style="enable-background:new 0 0 1920 1920;" xml:space="preserve">
<style type="text/css">
	.st0{fill:url(#SVGID_1_);}
	.st1{fill:#FFFFFF;}
	.st2{fill:#FF5537;}
</style>
<g id="Layer_1">
</g>
<g id="logo-text">
	<g>
		<g>
			<g>
				<g>
					<linearGradient id="SVGID_1_" gradientUnits="userSpaceOnUse" x1="329.5119" y1="1215.9406" x2="1976.0071" y2="547.5613">
						<stop  offset="0" style="stop-color:#5E0EFF"/>
						<stop  offset="0.9992" style="stop-color:#000000"/>
					</linearGradient>
					<path class="st0" d="M1779.7,935.3l-222.6-537.4c-6.6-15.8-19.1-28.4-35-35L984.7,140.3c-15.8-6.6-33.6-6.6-49.4,0L397.9,362.9
						c-15.8,6.6-28.4,19.1-35,35L140.3,935.3c-6.6,15.8-6.6,33.6,0,49.4l222.6,537.4c6.6,15.8,19.1,28.4,35,35l537.4,222.6
						c15.8,6.6,33.6,6.6,49.4,0l537.4-222.6c15.8-6.6,28.4-19.1,35-35l222.6-537.4C1786.2,968.9,1786.2,951.1,1779.7,935.3z"/>
				</g>
			</g>
		</g>
		<g>
			<path class="st1" d="M582.3,1285V635c0-64.2,52-116.2,116.2-116.2h63.8c64.2,0,116.2,52,116.2,116.2v309.3l203.2-355.8
				c24.6-43.1,70.4-69.7,120-69.7h0c107.3,0,173.7,117,118.7,209.2l-130,217.5l136.3,235.6c56.5,97.7-14,220-126.9,220h0
				c-54.7,0-104.9-30.5-130.1-79.1L878.4,954v331c0,64.2-52,116.2-116.2,116.2h-63.8C634.3,1401.2,582.3,1349.2,582.3,1285z"/>
		</g>
		<g>
			<defs>
				<path id="SVGID_2_" d="M1779.7,935.3l-222.6-537.4c-6.6-15.8-19.1-28.4-35-35L984.7,140.3c-15.8-6.6-33.6-6.6-49.4,0
					L397.9,362.9c-15.8,6.6-28.4,19.1-34.9,35L140.3,935.3c-6.6,15.8-6.6,33.6,0,49.4l222.6,537.4c6.6,15.8,19.1,28.4,34.9,35
					l537.4,222.6c15.8,6.6,33.6,6.6,49.4,0l537.4-222.6c15.8-6.6,28.4-19.1,35-35l222.6-537.4
					C1786.2,968.9,1786.2,951.1,1779.7,935.3z"/>
			</defs>
			<clipPath id="SVGID_3_">
				<use xlink:href="#SVGID_2_"  style="overflow:visible;"/>
			</clipPath>
		</g>
		<g>
			<g>
				<g>
					<path class="st2" d="M960,1832.2c-14.5,0-29.1-2.9-42.9-8.6L379.7,1601c-27.7-11.5-49.2-33-60.7-60.7L96.4,1002.9
						c-11.5-27.7-11.5-58.2,0-85.9L319,379.7c11.5-27.7,33-49.2,60.7-60.7L917.1,96.4c27.7-11.5,58.2-11.5,85.9,0L1540.3,319
						c27.7,11.5,49.2,33,60.7,60.7l222.6,537.4c0,0,0,0,0,0c11.5,27.7,11.5,58.2,0,85.8L1601,1540.3c-11.5,27.7-33,49.2-60.7,60.7
						l-537.4,222.6C989.1,1829.4,974.5,1832.2,960,1832.2z M960,183c-2.2,0-4.4,0.4-6.5,1.3L416.1,406.9c-4.2,1.7-7.5,5-9.2,9.2
						L184.3,953.5c-1.7,4.2-1.7,8.8,0,13l222.6,537.4c1.7,4.2,5,7.5,9.2,9.2l537.4,222.6c4.2,1.7,8.8,1.7,13,0l537.4-222.6
						c4.2-1.7,7.5-5,9.2-9.2l222.6-537.4c1.7-4.2,1.7-8.8,0-13l-222.6-537.4c-1.7-4.2-5-7.5-9.2-9.2L966.5,184.3
						C964.4,183.4,962.2,183,960,183z"/>
				</g>
			</g>
		</g>
	</g>
</g>
</svg>
