<?xml version="1.0" encoding="UTF-8" standalone="no"?>
<!-- Created with Inkscape (http://www.inkscape.org/) -->

<svg
   width="3.5999999in"
   height="3.55in"
   viewBox="0 0 91.439998 90.170001"
   version="1.1"
   id="svg3668"
   inkscape:version="1.1.2 (b8e25be833, 2022-02-05)"
   sodipodi:docname="151f9e9e0cb4aca29b8c8eaa765661c9f6cb4e018131b09bc63680e3e2585576.svg"
   xmlns:inkscape="http://www.inkscape.org/namespaces/inkscape"
   xmlns:sodipodi="http://sodipodi.sourceforge.net/DTD/sodipodi-0.dtd"
   xmlns="http://www.w3.org/2000/svg"
   xmlns:svg="http://www.w3.org/2000/svg">
  <sodipodi:namedview
     id="namedview3670"
     pagecolor="#ffffff"
     bordercolor="#666666"
     borderopacity="1.0"
     inkscape:pageshadow="2"
     inkscape:pageopacity="0.0"
     inkscape:pagecheckerboard="true"
     inkscape:document-units="mm"
     showgrid="false"
     inkscape:zoom="1.017006"
     inkscape:cx="335.78956"
     inkscape:cy="359.87988"
     inkscape:window-width="1920"
     inkscape:window-height="1009"
     inkscape:window-x="-8"
     inkscape:window-y="-8"
     inkscape:window-maximized="1"
     inkscape:current-layer="layer2"
     units="in"
     height="10in"
     showborder="true"
     inkscape:showpageshadow="false" />
  <defs
     id="defs3665">
    <rect
       x="112.43114"
       y="367.76541"
       width="407.16885"
       height="60.418602"
       id="rect29998" />
    <rect
       x="335.19189"
       y="347.80099"
       width="234.84448"
       height="52.012535"
       id="rect26360" />
    <rect
       x="131.87016"
       y="391.93283"
       width="160.76602"
       height="60.943981"
       id="rect23452" />
    <rect
       x="131.87016"
       y="378.27298"
       width="163.39291"
       height="40.454193"
       id="rect19930" />
    <rect
       x="113.4819"
       y="374.06995"
       width="340.97107"
       height="56.740948"
       id="rect13050" />
    <rect
       x="121.88796"
       y="416.62567"
       width="281.60321"
       height="63.045498"
       id="rect5390" />
    <inkscape:path-effect
       effect="bspline"
       id="path-effect2687"
       is_visible="true"
       lpeversion="1"
       weight="33.333333"
       steps="2"
       helper_size="0"
       apply_no_weight="true"
       apply_with_weight="true"
       only_selected="false" />
    <inkscape:path-effect
       effect="bspline"
       id="path-effect1298"
       is_visible="true"
       lpeversion="1"
       weight="33.333333"
       steps="2"
       helper_size="0"
       apply_no_weight="true"
       apply_with_weight="true"
       only_selected="false" />
    <inkscape:path-effect
       effect="bspline"
       id="path-effect873"
       is_visible="true"
       lpeversion="1"
       weight="33.333333"
       steps="2"
       helper_size="0"
       apply_no_weight="true"
       apply_with_weight="true"
       only_selected="false" />
    <inkscape:path-effect
       effect="bspline"
       id="path-effect12230"
       is_visible="true"
       lpeversion="1"
       weight="33.333333"
       steps="2"
       helper_size="0"
       apply_no_weight="true"
       apply_with_weight="true"
       only_selected="false" />
    <inkscape:path-effect
       effect="bspline"
       id="path-effect11947"
       is_visible="true"
       lpeversion="1"
       weight="33.333333"
       steps="2"
       helper_size="0"
       apply_no_weight="true"
       apply_with_weight="true"
       only_selected="false" />
    <inkscape:path-effect
       effect="bspline"
       id="path-effect11321"
       is_visible="true"
       lpeversion="1"
       weight="33.333333"
       steps="2"
       helper_size="0"
       apply_no_weight="true"
       apply_with_weight="true"
       only_selected="false" />
    <inkscape:path-effect
       effect="powerstroke"
       id="path-effect10451"
       is_visible="true"
       lpeversion="1"
       offset_points="0,1"
       not_jump="false"
       sort_points="true"
       interpolator_type="CubicBezierJohan"
       interpolator_beta="0.2"
       start_linecap_type="zerowidth"
       linejoin_type="extrp_arc"
       miter_limit="4"
       scale_width="1"
       end_linecap_type="zerowidth" />
    <inkscape:path-effect
       effect="powerstroke"
       id="path-effect10334"
       is_visible="true"
       lpeversion="1"
       offset_points="0,1"
       not_jump="false"
       sort_points="true"
       interpolator_type="CubicBezierJohan"
       interpolator_beta="0.2"
       start_linecap_type="zerowidth"
       linejoin_type="extrp_arc"
       miter_limit="4"
       scale_width="1"
       end_linecap_type="zerowidth" />
    <inkscape:path-effect
       effect="bspline"
       id="path-effect8355"
       is_visible="true"
       lpeversion="1"
       weight="33.333333"
       steps="2"
       helper_size="0"
       apply_no_weight="true"
       apply_with_weight="true"
       only_selected="false" />
  </defs>
  <g
     inkscape:groupmode="layer"
     id="layer2"
     inkscape:label="Circles"
     style="display:inline">
    <g
       id="g51970"
       style="stroke:#010101;stroke-opacity:1"
       transform="translate(-67.64136,-88.974405)">
      <g
         id="g23940"
         style="fill:#f9f9f9;fill-opacity:1;stroke:#010101;stroke-width:0.2;stroke-miterlimit:4;stroke-dasharray:none;stroke-opacity:1">
        <ellipse
           style="fill:#f9f9f9;fill-opacity:1;stroke:#010101;stroke-width:0.2;stroke-linecap:round;stroke-linejoin:round;stroke-miterlimit:4;stroke-dasharray:none;stroke-opacity:1"
           id="path3751"
           cx="113.47277"
           cy="134.41373"
           rx="44.824177"
           ry="44.215122" />
        <ellipse
           style="fill:#f9f9f9;fill-opacity:1;stroke:#010101;stroke-width:0.2;stroke-linecap:round;stroke-linejoin:round;stroke-miterlimit:4;stroke-dasharray:none;stroke-opacity:1"
           id="path3751-6"
           cx="113.55789"
           cy="133.96968"
           rx="40.590824"
           ry="40.492527" />
      </g>
    </g>
    <path
       style="opacity:1;fill:#ff5555;fill-opacity:1;stroke:#d15151;stroke-width:0.425;stroke-linecap:round;stroke-linejoin:round;stroke-miterlimit:4;stroke-dasharray:none;stroke-opacity:1"
       d="m 54.1122,83.987718 c -0.08291,-0.21201 -0.325908,-1.091533 -0.539986,-1.954492 -0.41054,-1.654914 -1.045019,-2.937997 -1.652262,-3.341304 -0.291533,-0.193625 -1.026115,-0.216453 -6.046784,-0.187921 -5.337173,0.03033 -7.43744,-0.04151 -11.29097,-0.386207 -1.715497,-0.15345 -5.567965,-1.011443 -7.481908,-1.666314 -1.372082,-0.469471 -1.944455,-0.520255 -2.630927,-0.233428 -0.606271,0.253317 -1.003572,0.780806 -1.115555,1.481111 l -0.0912,0.570362 -0.72662,-0.524984 C 19.667692,75.672195 16.559946,72.744427 14.51504,70.18811 9.8401089,64.344023 6.9470409,57.550706 5.8720309,49.893153 5.5899639,47.883921 5.6304959,41.786077 5.9399419,39.67617 7.2907429,30.465953 11.274169,22.594504 17.796648,16.246716 27.656664,6.6507782 41.335339,2.7822027 54.823424,5.7748672 c 5.756105,1.277136 11.624087,4.112334 16.402775,7.9252288 1.661697,1.325859 4.896432,4.58248 6.23448,6.276652 9.412695,11.917937 11.397634,27.74537 5.207973,41.527095 C 77.833389,72.2699 68.048558,80.650608 56.719465,83.729326 54.067409,84.450033 54.284589,84.428509 54.1122,83.987718 Z m -4.819751,-6.842632 c 1.525265,-0.16051 2.160972,-0.449295 2.438848,-1.107901 0.179911,-0.426413 0.189682,-0.8739 0.06851,-3.138445 -0.09209,-1.721069 -0.09457,-3.004304 -0.0071,-3.683675 0.180978,-1.406088 0.07892,-2.944677 -0.226229,-3.410389 -0.332333,-0.507209 -1.204209,-0.850074 -2.442297,-0.96044 -1.380766,-0.123087 -5.725189,-0.731234 -6.602812,-0.92429 -0.382268,-0.08409 -1.414391,-0.360344 -2.29361,-0.613899 -0.879215,-0.253556 -2.176946,-0.593374 -2.883844,-0.755153 -0.706901,-0.161777 -2.302,-0.670311 -3.544668,-1.130072 -1.242669,-0.459767 -2.51487,-0.928325 -2.827113,-1.04125 -0.312242,-0.112921 -1.156708,-0.556209 -1.876589,-0.98508 -2.048108,-1.220174 -2.69508,-1.486221 -3.35685,-1.3804 -0.310134,0.04959 -0.738622,0.214598 -0.952199,0.366675 -0.536577,0.382077 -1.065747,1.542428 -1.232416,2.702414 -0.189941,1.321973 -0.424127,6.601085 -0.424127,9.560896 0,2.797837 -0.149069,2.487467 1.701586,3.542787 2.974946,1.69644 7.676999,2.688291 14.214668,2.998446 2.135513,0.101312 9.163484,0.07372 10.24627,-0.04022 z m 3.127674,-13.62446 c 0.352984,-0.215225 0.493046,-0.440428 0.669695,-1.07678 0.647499,-2.332529 0.982118,-3.188869 1.63711,-4.189621 1.062167,-1.62287 1.254021,-2.141739 1.266901,-3.426338 0.0088,-0.877409 -0.04818,-1.21471 -0.270044,-1.598576 -0.3424,-0.592426 -1.30528,-1.112052 -2.060654,-1.112052 -0.939716,0 -5.731259,-1.220512 -8.84818,-2.253826 -4.275908,-1.417537 -7.543432,-3.092852 -10.634001,-5.452227 -2.471978,-1.887135 -3.143628,-2.30242 -3.723767,-2.30242 -0.770086,0 -1.175689,0.219557 -1.466228,0.793687 -0.66806,1.320133 -3.103462,7.369416 -3.358052,8.341045 -0.237093,0.904854 -0.551495,2.955679 -0.555744,3.625075 -0.0019,0.284191 1.209918,1.504286 2.043398,2.057516 0.417907,0.277392 1.80214,1.033812 3.076072,1.680932 4.651783,2.362973 12.915874,4.806135 17.050938,5.040868 3.552986,0.20169 4.678436,0.173996 5.172556,-0.127283 z M 57.730126,51.42888 c 0.268835,-0.143875 0.339693,-0.277628 1.660429,-3.134302 1.420681,-3.072844 2.987263,-7.823449 3.643556,-11.04896 0.07023,-0.345176 0.190696,-1.702567 0.267698,-3.01643 0.206753,-3.527766 -0.07163,-3.915804 -1.336331,-1.862685 -0.902954,1.465855 -2.74715,3.37408 -4.601253,4.760994 -1.262586,0.944449 -1.697672,1.172636 -3.905374,2.048232 -1.398627,0.554713 -3.147018,1.135375 -4.000373,1.328579 l -1.51588,0.343202 -0.571854,-0.276146 c -1.373537,-0.663271 -2.616325,-2.432889 -4.045495,-5.760423 -0.83148,-1.935933 -1.206728,-5.423266 -0.854668,-7.942787 0.180703,-1.293193 0.09647,-1.857176 -0.277389,-1.857176 -0.280659,0 -2.369349,2.101612 -4.60946,4.637981 -1.709851,1.93598 -6.326439,8.705406 -6.474264,9.493385 -0.0501,0.267081 -0.02341,0.634119 0.05928,0.815642 0.297593,0.653145 2.152671,2.43646 3.206284,3.08225 0.581338,0.356317 1.578896,0.983004 2.216799,1.39264 2.790957,1.792237 8.328009,4.196918 12.554468,5.452266 0.790583,0.234818 2.657208,0.737166 4.148053,1.11633 2.144559,0.54542 2.866083,0.67524 3.455029,0.621641 0.409422,-0.03726 0.850758,-0.124664 0.980745,-0.194233 z m 22.02118,-2.559376 c 1.428417,-0.596831 1.921346,-3.136786 0.922428,-4.753067 -0.620414,-1.003853 -2.259526,-1.537618 -3.609261,-1.175327 -0.776957,0.20855 -1.675585,1.099754 -1.915141,1.899322 -0.212569,0.709491 -0.220639,2.643238 -0.01445,3.462094 l 0.155512,0.617583 h 0.817536 c 0.449646,0 0.817504,-0.04692 0.817467,-0.104257 -4e-5,-0.05734 -0.125145,-0.433329 -0.278013,-0.83553 -0.460576,-1.211787 -0.276085,-2.581423 0.396184,-2.941209 0.573574,-0.30697 0.592653,-0.239739 0.549145,1.935112 l -0.04172,2.085306 0.873257,-1.41e-4 c 0.480287,-1.16e-4 1.077463,-0.08553 1.327052,-0.189817 z M 78.166547,40.85989 c 1.404758,-0.304623 2.582979,-0.582735 2.618269,-0.618025 0.07472,-0.07471 -0.208761,-1.409044 -0.385969,-1.816753 -0.06646,-0.152908 -0.142647,-0.692738 -0.169304,-1.199621 -0.05812,-1.104985 -0.50429,-1.806205 -1.411351,-2.218116 -1.484312,-0.674058 -3.797649,0.04826 -4.344241,1.356434 -0.361566,0.865349 -0.148503,2.180058 0.462767,2.855503 0.211058,0.233217 0.199345,0.248348 -0.192268,0.248348 -0.778301,0 -1.177806,-0.793417 -1.170135,-2.323888 l 0.005,-1.003324 -0.446789,0.08787 c -1.156779,0.227518 -1.144603,0.217001 -1.110366,0.959054 0.09095,1.971244 0.726977,3.566292 1.592053,3.992584 0.71932,0.354467 1.788324,0.279307 4.552307,-0.320069 z M 51.617542,38.706054 c 2.054397,-0.689051 4.084029,-1.794687 5.807292,-3.163506 1.420399,-1.128247 1.486119,-1.25534 1.368044,-2.64559 -0.17979,-2.116865 -0.705827,-3.599707 -1.208559,-3.406791 -0.11085,0.04254 -0.473628,0.600308 -0.806175,1.239488 -1.579724,3.036351 -3.356046,5.11691 -5.827199,6.82525 -0.791924,0.547468 -1.471062,1.076696 -1.509191,1.176062 -0.08382,0.218427 0.04633,0.597686 0.205102,0.597686 0.06292,0 0.94973,-0.28017 1.970686,-0.622599 z M 75.3984,33.345482 c 2.387825,-1.211601 2.692797,-1.521081 2.611157,-2.649749 -0.06499,-0.898424 -0.522523,-1.6388 -1.242986,-2.011365 -0.381842,-0.197459 -0.399788,-0.235135 -0.186362,-0.3912 0.218043,-0.159435 0.202859,-0.238696 -0.197808,-1.032409 -0.238691,-0.472842 -0.472937,-0.859716 -0.520552,-0.859716 -0.13807,0 -5.191678,2.650254 -5.191678,2.722663 0,0.03597 0.188259,0.438338 0.418354,0.894151 l 0.418354,0.828757 1.884916,-0.936974 1.884912,-0.936974 0.407361,0.453964 c 0.46129,0.514064 0.521896,1.000289 0.1641,1.316524 -0.133795,0.118253 -0.946984,0.566341 -1.807086,0.995752 -0.860105,0.429413 -1.563825,0.841393 -1.563825,0.915514 0,0.23731 0.748435,1.669997 0.872403,1.669997 0.0657,0 0.987631,-0.440521 2.04874,-0.978935 z M 19.645628,31.713538 c 0.644295,-0.753391 1.333669,-2.084875 1.473539,-2.846055 0.247205,-1.345313 -0.351044,-2.508612 -1.519611,-2.95489 -0.979649,-0.374131 -1.547381,-0.135006 -2.996787,1.262224 -0.668851,0.644774 -1.316974,1.172318 -1.44027,1.172318 -0.449675,0 -0.546455,-0.507465 -0.23228,-1.217959 0.350618,-0.792908 0.837628,-1.328142 1.637654,-1.799812 0.328234,-0.193516 0.576136,-0.413798 0.550894,-0.489519 -0.02524,-0.07572 -0.40758,-0.334044 -0.849643,-0.57405 l -0.803751,-0.436372 -0.759622,0.834038 c -2.313688,2.540357 -2.224177,5.536422 0.178978,5.990648 0.779843,0.147402 1.429575,-0.19576 2.718691,-1.435904 0.724072,-0.696564 1.308579,-1.151499 1.444977,-1.124657 1.067385,0.210061 -0.129743,2.481697 -1.741014,3.303707 -0.314467,0.16043 -0.571759,0.350186 -0.571759,0.421682 0,0.0715 0.35968,0.342366 0.799288,0.60193 l 0.799288,0.471934 0.375306,-0.261747 c 0.20642,-0.143957 0.627673,-0.556842 0.936122,-0.917516 z m 5.50033,-4.478896 0.685017,-0.695476 -0.812271,-0.820838 -0.812271,-0.820835 0.414158,-0.21417 c 0.227788,-0.117793 0.604483,-0.430935 0.837099,-0.69587 1.122815,-1.278819 0.875631,-2.92145 -0.645416,-4.289002 -1.608683,-1.446344 -3.489947,-1.110223 -4.14745,0.741014 -0.171606,0.483166 -0.301334,0.660987 -0.442656,0.606758 -0.119737,-0.04595 -0.469508,0.188836 -0.872183,0.585459 l -0.672279,0.66217 2.815616,2.81813 c 1.54859,1.549975 2.849819,2.818133 2.891618,2.818133 0.0418,0 0.384257,-0.312962 0.761018,-0.695473 z m 46.329989,-0.972606 c 0.838208,-0.726308 1.625343,-1.486596 1.749187,-1.689526 0.344074,-0.5638 0.279365,-1.33954 -0.177938,-2.133153 -0.382027,-0.662977 -2.220254,-2.575766 -2.467763,-2.56786 -0.06478,0.0021 -0.363451,0.232023 -0.663724,0.511008 l -0.545951,0.507249 0.333835,0.218776 c 1.317413,0.863354 2.085501,1.792729 1.894014,2.291731 -0.08179,0.21314 -0.187449,0.16566 -0.795758,-0.357566 -0.385797,-0.331835 -0.961136,-0.775359 -1.27853,-0.985608 -1.700448,-1.126394 -3.615177,0.434314 -2.832103,2.308471 0.230085,0.55067 1.096558,1.2959 1.647397,1.416886 0.321397,0.07059 0.367591,0.12513 0.238114,0.281141 -0.127278,0.153358 -0.0382,0.339807 0.428871,0.897671 0.324231,0.38726 0.669798,0.685488 0.767922,0.662725 0.09813,-0.02275 0.864216,-0.635634 1.702427,-1.361945 z m -4.13294,-6.769251 c 1.316971,-1.658842 2.416167,-3.113196 2.442654,-3.231903 0.04127,-0.184944 -1.146198,-1.258377 -1.392062,-1.258377 -0.04302,0 -1.21098,1.42308 -2.59547,3.1624 l -2.517251,3.162398 0.671253,0.58792 c 0.369189,0.323355 0.74441,0.589206 0.833818,0.590778 0.08941,0.0016 1.240084,-1.354376 2.557058,-3.013216 z m -38.184918,1.391354 c 0.39251,-0.281966 0.735833,-0.528291 0.762937,-0.547388 0.0271,-0.0191 -0.712359,-1.134179 -1.643253,-2.477966 l -1.692534,-2.44325 -0.372343,0.220184 c -0.204788,0.1211 -0.577443,0.387847 -0.828122,0.592772 l -0.455785,0.372589 1.63734,2.391513 c 0.900536,1.315334 1.69151,2.394371 1.75772,2.397863 0.06621,0.0035 0.441528,-0.22435 0.83404,-0.506317 z M 62.858105,19.5165 c 0.168143,-0.346086 0.305713,-0.690126 0.305713,-0.764535 0,-0.07441 -0.331761,-0.135289 -0.737243,-0.135289 -0.838282,0 -2.072658,-0.530307 -2.383269,-1.023887 -0.278799,-0.443029 -0.362945,-0.829387 -0.227586,-1.044962 0.09595,-0.152812 0.477319,-0.0031 1.858795,0.729785 0.955943,0.507124 1.801628,0.922044 1.879301,0.922044 0.2022,0 0.694069,-1.079437 0.801103,-1.758075 0.125934,-0.798451 -0.130717,-1.466826 -0.793001,-2.065162 -0.79067,-0.714323 -1.635805,-1.041993 -2.687524,-1.041993 -0.758367,0 -0.966602,0.0608 -1.54719,0.451773 -1.404885,0.946044 -1.876402,2.845739 -1.035461,4.17177 0.653283,1.030118 2.654687,2.168787 3.836578,2.182765 0.367159,0.0043 0.4651,-0.07944 0.729784,-0.624234 z m -28.93187,-1.200142 c 0.395084,-0.146913 0.989338,-0.508082 1.320562,-0.802595 l 0.602232,-0.535482 -0.38076,-0.779378 c -0.209417,-0.428657 -0.442383,-0.779378 -0.517704,-0.779378 -0.07532,0 -0.226439,0.172022 -0.33582,0.382267 -0.432295,0.830951 -1.344324,1.367428 -2.058141,1.210649 -0.841944,-0.184923 -1.499865,-1.723676 -1.075791,-2.516066 0.285965,-0.534328 0.886363,-0.77648 1.887961,-0.761455 0.484923,0.0073 0.881679,-0.0095 0.881679,-0.03733 0,-0.02781 -0.156149,-0.403632 -0.346993,-0.83517 -0.297071,-0.671732 -0.392065,-0.775364 -0.660281,-0.720339 -0.17231,0.03535 -0.560591,0.104378 -0.862851,0.153392 -1.061236,0.172093 -2.369939,1.068348 -2.815799,1.928379 -0.36685,0.707631 -0.307224,1.834938 0.146055,2.761414 0.809051,1.653635 2.182244,2.087221 4.215651,1.331092 z m 22.534589,-5.169056 c 0.409924,-2.052484 0.721741,-3.7553658 0.692928,-3.7841768 -0.108924,-0.108926 -2.116045,-0.482197 -2.271681,-0.422473 -0.08958,0.03437 -0.652811,0.755867 -1.251638,1.6033188 -0.677013,0.958107 -1.123571,1.474838 -1.180793,1.366351 -0.05061,-0.09596 -0.265819,-0.956381 -0.478234,-1.9120538 -0.212418,-0.955669 -0.446453,-1.776833 -0.520081,-1.824807 -0.173416,-0.112993 -2.178619,-0.456787 -2.243913,-0.38472 -0.02737,0.03021 -0.373652,1.650026 -0.769514,3.5995948 -0.395861,1.949566 -0.748826,3.64522 -0.784362,3.768119 -0.05065,0.17517 0.106256,0.257768 0.726186,0.382268 1.311878,0.263464 1.186148,0.422076 1.714979,-2.163496 l 0.474982,-2.322311 0.338617,1.615342 0.338616,1.615339 0.502444,0.08885 c 0.276344,0.04887 0.600273,0.117316 0.719846,0.152103 0.150027,0.04365 0.470911,-0.309948 1.035386,-1.140949 0.449892,-0.66231 0.841174,-1.134637 0.869514,-1.049615 0.02834,0.08502 -0.113094,0.986073 -0.314301,2.002329 -0.201206,1.01626 -0.377556,1.93969 -0.391885,2.052066 -0.02826,0.22161 1.089025,0.558959 1.705803,0.515046 0.333713,-0.02376 0.359399,-0.112517 1.087101,-3.756128 z m -15.887901,3.081086 c 0.304533,-0.07811 0.858327,-0.296373 1.230649,-0.485045 l 0.676952,-0.343037 -0.09503,-0.633691 c -0.171304,-1.142349 -0.245268,-1.201364 -0.861285,-0.68721 -0.917244,0.765572 -1.977569,1.048819 -2.737535,0.731285 -0.265459,-0.110919 -0.549534,-0.326628 -0.631272,-0.479359 -0.139155,-0.260017 -0.07129,-0.295426 1.066112,-0.556265 0.6681,-0.153218 1.601777,-0.358024 2.074839,-0.455129 0.854959,-0.175498 0.859671,-0.179107 0.786289,-0.602308 -0.0406,-0.234164 -0.239996,-0.769792 -0.443093,-1.190289 -0.295179,-0.611142 -0.493707,-0.827286 -0.989499,-1.077298 -1.428287,-0.7202438 -3.661,-0.02506 -4.454633,1.387033 -0.468043,0.83277 -0.444313,2.05587 0.05988,3.086407 0.698529,1.427747 2.14,1.863396 4.317621,1.304906 z M 25.484374,15.342976 c 0.66785,-0.479804 0.701434,-0.531897 0.521493,-0.808916 -0.105777,-0.162851 -0.279484,-0.436835 -0.386013,-0.608857 -0.10653,-0.172018 -0.244944,-0.312764 -0.307589,-0.312764 -0.169429,0 -1.614914,1.025269 -1.621039,1.149784 -0.01217,0.247224 0.749033,1.220327 0.907124,1.159661 0.09471,-0.03634 0.493424,-0.296852 0.886024,-0.578908 z"
       id="path47198" />
  </g>
  <g
     inkscape:label="Worm"
     inkscape:groupmode="layer"
     id="layer1"
     style="display:inline">
    <g
       id="g58984"
       style="stroke-width:0.15;stroke-miterlimit:4;stroke-dasharray:none"
       transform="translate(-67.64136,-88.974405)">
      <g
         id="g12113"
         style="stroke-width:0.15;stroke-miterlimit:4;stroke-dasharray:none">
        <path
           style="display:inline;fill:none;stroke:#000000;stroke-width:0.15;stroke-linecap:butt;stroke-linejoin:miter;stroke-miterlimit:4;stroke-dasharray:none;stroke-opacity:1"
           d="m 90.985769,162.00865 c 1.050002,0.675 2.099691,1.3498 3.571137,1.92145 1.471447,0.57165 3.364637,1.04026 5.126626,1.34952 1.761988,0.30927 3.392718,0.45922 5.173458,0.57168 1.78075,0.11246 3.71139,0.18743 5.41715,0.21555 1.70576,0.0281 3.18654,0.009 4.59239,-0.0281 1.40585,-0.0375 2.73663,-0.0937 3.46754,-0.35606 0.7309,-0.26234 0.86211,-0.73094 0.91837,-0.95595 0.0562,-0.22502 0.0375,-0.20632 0.0188,-0.18757"
           id="path11319"
           inkscape:path-effect="#path-effect11321"
           inkscape:original-d="m 90.985769,162.00865 c 1.049959,0.67507 2.099648,1.34987 3.149077,2.02441 1.89346,0.46888 3.786651,0.93749 5.67958,1.40584 1.631074,0.15022 3.261804,0.30017 4.892314,0.44987 1.93099,0.0752 3.86163,0.15022 5.79205,0.22493 1.48111,-0.0185 2.96189,-0.0372 4.44244,-0.0562 1.33116,-0.056 2.66194,-0.1122 3.99258,-0.16871 0.13148,-0.46836 0.26269,-0.93696 0.39363,-1.40583 -0.0185,0.019 -0.0372,0.0377 -0.0562,0.0562"
           sodipodi:nodetypes="ccccccccc" />
        <path
           style="display:inline;fill:none;stroke:#000000;stroke-width:0.15;stroke-linecap:butt;stroke-linejoin:miter;stroke-miterlimit:4;stroke-dasharray:none;stroke-opacity:1"
           d="m 90.985767,162.00865 c -0.01874,-1.16189 -0.03748,-2.32405 -0.01874,-3.53308 0.01874,-1.20904 0.07497,-2.4649 0.121833,-3.6177 0.04686,-1.15279 0.08435,-2.20246 0.131206,-3.04598 0.04686,-0.84352 0.103088,-1.48082 0.21554,-2.05257 0.112453,-0.57175 0.281153,-1.07785 0.515484,-1.4903 0.234331,-0.41245 0.534238,-0.73111 0.815535,-0.89981 0.281297,-0.16871 0.543712,-0.18744 0.806147,-0.1968 0.262436,-0.009 0.524854,-0.009 0.881024,0.14069 0.35617,0.15006 0.806031,0.44995 1.255908,0.72173 0.449876,0.27178 0.899737,0.51545 1.227757,0.71229 0.32802,0.19685 0.534209,0.3468 0.85288,0.50609 0.31867,0.15928 0.749783,0.32797 1.237145,0.49666 0.487361,0.16869 1.030938,0.33739 1.555788,0.52485 0.52486,0.18746 1.03094,0.39365 1.57454,0.60921 0.5436,0.21556 1.12466,0.44049 1.82759,0.6279 0.70292,0.18741 1.52766,0.33737 2.26808,0.52484 0.74042,0.18748 1.39646,0.41241 1.94942,0.58109 0.55297,0.16869 1.00283,0.28115 1.55579,0.40298 0.55297,0.12183 1.20902,0.25304 1.93068,0.35612 0.72166,0.10308 1.50891,0.17806 2.16499,0.2718 0.65607,0.0937 1.1809,0.20621 1.67762,0.27178 0.49672,0.0656 0.96532,0.0843 1.37771,0.11243 0.4124,0.0281 0.76852,0.0656 1.10594,0.17815 0.33742,0.11255 0.65607,0.29999 0.86217,0.49688 0.20611,0.19689 0.29983,0.40307 0.37476,0.70298 0.0749,0.2999 0.13116,0.69353 0.14988,1.04965 0.0187,0.35613 -1e-5,0.67477 -0.0469,0.93715 -0.0469,0.26237 -0.12185,0.46856 -0.16869,0.881 -0.0468,0.41244 -0.0656,1.03099 -0.0562,1.55586 0.009,0.52486 0.0469,0.95598 0.0844,1.50895 0.0375,0.55297 0.075,1.22775 0.0843,1.78071 0.009,0.55295 -0.009,0.98407 -0.0281,1.41494"
           id="path11945"
           inkscape:path-effect="#path-effect11947"
           inkscape:original-d="m 90.985767,162.00865 c -0.01848,-1.16189 -0.03722,-2.32405 -0.05623,-3.48647 0.0565,-1.25564 0.112733,-2.5115 0.168701,-3.76764 0.03776,-1.04945 0.07524,-2.09912 0.112466,-3.14908 0.0565,-0.63706 0.112734,-1.27436 0.168701,-1.91194 0.168968,-0.50584 0.337667,-1.01194 0.506103,-1.5183 0.30018,-0.3184 0.600088,-0.63705 0.899734,-0.95597 0.262694,-0.0185 0.525111,-0.0372 0.78727,-0.0562 0.262692,2.6e-4 0.52511,2.6e-4 0.787268,0 0.450141,0.30017 0.9,0.60007 1.349604,0.8997 0.450141,0.24395 0.9,0.48763 1.349603,0.73104 0.206458,0.15022 0.412644,0.30018 0.618568,0.44987 0.431397,0.16897 0.862512,0.33766 1.293371,0.5061 0.543865,0.16897 1.087444,0.33766 1.630774,0.5061 0.50637,0.20646 1.01246,0.41264 1.5183,0.61857 0.58136,0.2252 1.16242,0.45013 1.74324,0.6748 0.82504,0.15022 1.64978,0.30018 2.47427,0.44987 0.65634,0.2252 1.31238,0.45013 1.96817,0.6748 0.45014,0.11273 0.9,0.2252 1.34961,0.3374 0.65633,0.13148 1.31238,0.26269 1.96817,0.39363 0.78755,0.0752 1.5748,0.15023 2.3618,0.22494 0.52513,0.11273 1.04996,0.2252 1.57454,0.3374 0.46889,0.019 0.93749,0.0377 1.40584,0.0562 0.35642,0.0378 0.71255,0.0752 1.06844,0.11247 0.31892,0.18771 0.63757,0.37515 0.95596,0.56233 0.094,0.20646 0.18771,0.41265 0.28117,0.61857 0.0565,0.39391 0.11273,0.78754 0.1687,1.18091 -0.0185,0.31892 -0.0372,0.63757 -0.0562,0.95597 -0.0747,0.20645 -0.14969,0.41264 -0.22494,0.61856 -0.0185,0.61885 -0.0372,1.2374 -0.0562,1.85571 0.0378,0.43139 0.0752,0.86251 0.11247,1.29337 0.0378,0.67508 0.0752,1.34987 0.11247,2.0244 -0.0185,0.4314 -0.0372,0.86252 -0.0562,1.29338" />
      </g>
      <path
         style="fill:none;stroke:#000000;stroke-width:0.15;stroke-linecap:butt;stroke-linejoin:miter;stroke-miterlimit:4;stroke-dasharray:none;stroke-opacity:1"
         d="m 121.53002,173.71456 c -0.27171,0.0656 -0.81529,0.1968 -1.40574,0.30927 -0.59044,0.11247 -1.22771,0.20617 -1.77131,0.26241 -0.54359,0.0562 -0.99344,0.075 -1.48082,0.11244 -0.48737,0.0375 -1.0122,0.0937 -1.55578,0.12184 -0.54358,0.0281 -1.10591,0.0281 -1.62138,0.0281 -0.51548,0 -0.98409,0 -1.21853,0 -0.23444,0 -0.23444,0 -0.73104,-0.0187 -0.4966,-0.0187 -1.49001,-0.0562 -2.19293,-0.13116 -0.70291,-0.0749 -1.11528,-0.18739 -1.53706,-0.25302 -0.42177,-0.0656 -0.85289,-0.0844 -1.28399,-0.1593 -0.43111,-0.0749 -0.86222,-0.20614 -1.28399,-0.29989 -0.42177,-0.0937 -0.83414,-0.14998 -1.24651,-0.23431 -0.41237,-0.0843 -0.82475,-0.1968 -1.19027,-0.30925 -0.36551,-0.11246 -0.68416,-0.22492 -1.05906,-0.3655 -0.37489,-0.14058 -0.806,-0.30927 -1.22776,-0.45924 -0.42176,-0.14997 -0.83413,-0.28118 -1.190283,-0.39365 -0.356154,-0.11247 -0.65605,-0.20619 -0.965335,-0.30928 -0.309286,-0.10309 -0.627937,-0.21555 -0.909107,-0.33736 -0.281171,-0.12182 -0.524844,-0.25303 -0.777898,-0.38425 -0.253054,-0.13121 -0.515468,-0.26242 -0.834128,-0.41239 -0.318661,-0.14996 -0.693545,-0.31866 -1.049694,-0.49672 -0.356149,-0.17806 -0.693546,-0.3655 -1.002831,-0.5342 -0.309285,-0.16871 -0.590447,-0.31866 -0.909118,-0.52482 -0.318671,-0.20617 -0.674805,-0.46859 -1.002826,-0.66545 -0.328021,-0.19686 -0.627928,-0.32807 -0.778044,-0.55294 -0.150115,-0.22487 -0.150115,-0.54352 -0.122019,-0.84347 0.0281,-0.29994 0.08433,-0.58111 0.187446,-0.79677 0.103115,-0.21567 0.25307,-0.36562 0.403105,-0.46875 0.150035,-0.10312 0.299978,-0.15935 0.478053,-0.22496 0.178075,-0.0656 0.384264,-0.14058 0.609268,-0.16866 0.225004,-0.0281 0.468682,-0.009 0.721752,0.0469 0.253069,0.0563 0.515482,0.15 0.86226,0.28122 0.346779,0.13122 0.777895,0.29991 1.237134,0.44047 0.45924,0.14056 0.946586,0.25302 1.471438,0.37487 0.524853,0.12184 1.087175,0.25305 1.602653,0.37489 0.515479,0.12184 0.984083,0.23431 1.443314,0.32802 0.45924,0.0937 0.90911,0.16868 1.39645,0.20615 0.48734,0.0375 1.01218,0.0375 1.50894,0.0844 0.49675,0.0469 0.96535,0.14062 1.35898,0.19682 0.39362,0.0562 0.71226,0.0749 1.15276,0.0843 0.4405,0.009 1.00282,0.009 1.49956,0.009 0.49673,0 0.92784,0 1.43395,0 0.50611,0 1.08717,0 1.65889,0.009 0.57172,0.009 1.13404,0.0281 1.69639,0.0562 0.56234,0.0281 1.12466,0.0656 1.64012,0.0656 0.51547,-2e-5 0.98407,-0.0375 1.5558,-0.0469 0.57173,-0.009 1.24651,0.009 1.73382,-0.0188 0.48732,-0.0282 0.78723,-0.10313 1.11531,-0.12184 0.32808,-0.0187 0.68422,0.0188 0.95603,0.0751 0.27181,0.0563 0.45926,0.13127 0.60917,0.24382 0.14991,0.11255 0.26238,0.2625 0.41232,0.47807 0.14995,0.21557 0.33739,0.49673 0.48731,0.76854 0.14993,0.27181 0.26239,0.53423 0.37482,0.95598 0.11243,0.42175 0.2249,1.00279 0.2811,1.29318 0.0562,0.2904 0.0562,0.2904 0.0562,0.2904 0.075,0.28117 0.15004,0.56265 0.22503,0.79695 0.075,0.23429 0.14998,0.42177 0.22496,0.6092 0.075,0.18744 0.14996,0.37489 0.18738,0.46846 0.0374,0.0936 0.0374,0.0937 -0.23427,0.15927 z"
         id="path12228"
         inkscape:path-effect="#path-effect12230"
         inkscape:original-d="m 121.80172,173.64898 c -0.54333,0.13148 -1.08692,0.26269 -1.63077,0.39364 -0.63706,0.094 -1.27434,0.18768 -1.91194,0.28113 -0.44962,0.019 -0.89947,0.0378 -1.34961,0.0562 -0.52459,0.0565 -1.04942,0.11273 -1.57453,0.1687 -0.56208,2.7e-4 -1.12441,2.7e-4 -1.68701,0 -0.46835,2.7e-4 -0.93696,2.7e-4 -1.40584,0 2.6e-4,2.6e-4 2.6e-4,2.6e-4 0,0 -0.99321,-0.0372 -1.98662,-0.0747 -2.98037,-0.11246 -0.41212,-0.1122 -0.82449,-0.22465 -1.23714,-0.33737 -0.43086,-0.0185 -0.86198,-0.0372 -1.29337,-0.0562 -0.43086,-0.13095 -0.86197,-0.26216 -1.29337,-0.39364 -0.41212,-0.056 -0.82449,-0.1122 -1.23713,-0.16869 -0.41212,-0.11221 -0.8245,-0.22467 -1.23714,-0.33741 -0.3184,-0.1122 -0.63705,-0.22466 -0.95597,-0.3374 -0.43086,-0.16844 -0.86198,-0.33713 -1.29337,-0.5061 -0.41212,-0.13095 -0.824491,-0.26216 -1.237136,-0.39363 -0.299651,-0.0935 -0.599559,-0.18718 -0.899734,-0.28117 -0.318399,-0.1122 -0.637048,-0.22467 -0.955968,-0.3374 -0.24342,-0.13095 -0.487093,-0.26216 -0.731036,-0.39364 -0.262165,-0.13095 -0.524582,-0.26215 -0.787268,-0.39363 -0.374634,-0.16844 -0.749517,-0.33714 -1.12467,-0.5061 -0.337145,-0.18718 -0.674539,-0.37463 -1.012203,-0.56234 -0.280908,-0.14969 -0.56207,-0.29964 -0.843502,-0.44986 -0.355888,-0.26217 -0.712025,-0.52458 -1.068438,-0.78727 -0.299651,-0.13095 -0.599559,-0.26216 -0.899734,-0.39364 2.65e-4,-0.31839 2.65e-4,-0.63704 0,-0.95597 0.0565,-0.2809 0.112731,-0.56207 0.168701,-0.8435 0.150223,-0.14969 0.300175,-0.29965 0.449866,-0.44987 0.150225,-0.056 0.300178,-0.1122 0.449868,-0.1687 0.20646,-0.0747 0.412644,-0.14969 0.61857,-0.22493 0.243948,0.019 0.487621,0.0378 0.731035,0.0562 0.262692,0.094 0.525108,0.18771 0.787268,0.28117 0.431395,0.16897 0.86251,0.33767 1.293371,0.5061 0.487629,0.11274 0.974976,0.2252 1.462069,0.3374 0.562612,0.13148 1.124934,0.26269 1.687004,0.39364 0.468887,0.11273 0.93749,0.2252 1.405837,0.3374 0.45014,0.0752 0.9,0.15022 1.34961,0.22493 0.52511,2.7e-4 1.04995,2.7e-4 1.57453,0 0.46889,0.094 0.93749,0.18771 1.40584,0.28117 0.31893,0.019 0.63757,0.0377 0.95597,0.0562 0.56261,2.7e-4 1.12493,2.7e-4 1.687,0 0.4314,2.7e-4 0.86251,2.7e-4 1.29337,0 0.58136,2.7e-4 1.16242,2.7e-4 1.74324,0 0.56261,0.019 1.12493,0.0378 1.68701,0.0562 0.56261,0.0377 1.12493,0.0752 1.687,0.11246 0.46889,-0.0372 0.93749,-0.0747 1.40584,-0.11246 0.67508,0.019 1.34986,0.0377 2.0244,0.0562 0.30018,-0.0747 0.60009,-0.14969 0.89974,-0.22493 0.35641,0.0377 0.71255,0.0752 1.06843,0.11246 0.18772,0.0752 0.37516,0.15022 0.56234,0.22494 0.11273,0.15022 0.2252,0.30017 0.3374,0.44986 0.18771,0.28144 0.37515,0.5626 0.56233,0.84351 0.11274,0.26269 0.2252,0.52511 0.3374,0.78727 0.11274,0.58136 0.2252,1.1624 0.33741,1.74323 2.6e-4,2.6e-4 0,0 0,0 0,0 0.15022,0.5626 0.22493,0.8435 0.0752,0.1877 0.15022,0.37516 0.22493,0.56234 0.0752,0.18771 0.15022,0.37515 0.22494,0.56233 z"
         sodipodi:nodetypes="ccccccccccccccccccccccccccccccccccccccccccccccccccccccccccsc" />
      <path
         style="fill:none;stroke:#000000;stroke-width:0.15;stroke-linecap:butt;stroke-linejoin:miter;stroke-miterlimit:4;stroke-dasharray:none;stroke-opacity:1"
         d="m 96.961174,131.71773 c -0.09396,0.16913 -0.281833,0.5073 -0.488499,0.97701 -0.206665,0.46972 -0.432108,1.0709 -0.676345,1.6533 -0.244236,0.58239 -0.507253,1.146 -0.732703,1.69086 -0.225451,0.54486 -0.413319,1.07089 -0.619982,1.55934 -0.206663,0.48845 -0.432104,0.93933 -0.601187,1.39027 -0.169084,0.45094 -0.281806,0.90183 -0.413319,1.42788 -0.131512,0.52605 -0.281807,1.12723 -0.356933,1.67211 -0.07513,0.54487 -0.07513,1.03333 -0.09394,1.33388 -0.01881,0.30054 -0.05639,0.41326 0.05649,0.61999 0.112874,0.20672 0.375895,0.50732 0.676518,0.7891 0.300623,0.28178 0.638789,0.5448 1.15974,0.89132 0.520951,0.34651 1.16992,0.74311 1.733547,1.02488 0.563626,0.28177 1.014513,0.43206 1.427829,0.63877 0.413316,0.20672 0.789056,0.46973 1.265231,0.71652 0.476175,0.24679 1.026822,0.46705 1.515292,0.65492 0.48847,0.18786 0.90179,0.33816 1.3339,0.48846 0.43211,0.15029 0.883,0.30059 1.35797,0.45251 0.47496,0.15192 0.95286,0.29896 1.476,0.49366 0.52314,0.19469 1.01743,0.40653 1.50588,0.53799 0.48846,0.13145 0.93934,0.16903 1.40905,0.2818 0.4697,0.11278 0.95816,0.30065 1.50299,0.45092 0.54483,0.15026 1.14601,0.26298 1.67206,0.37572 0.52606,0.11273 0.97695,0.22545 1.47868,0.32938 0.50173,0.10392 1.05432,0.19907 1.89974,0.25541 0.84542,0.0563 1.98365,0.0739 2.55266,0.0827 0.56901,0.009 0.56901,0.009 0.85097,0.0464 0.28197,0.0376 0.84558,0.11274 1.2588,0.0751 0.41321,-0.0376 0.67623,-0.18792 0.88285,-0.33819 0.20661,-0.15028 0.35691,-0.30058 0.48841,-0.67622 0.13149,-0.37565 0.24421,-0.97683 0.43208,-1.6532 0.18786,-0.67638 0.45088,-1.42786 0.77028,-2.0479 0.3194,-0.62005 0.69514,-1.1085 0.97694,-1.54058 0.2818,-0.43208 0.46967,-0.80782 0.60119,-1.22109 0.13152,-0.41327 0.20666,-0.86416 0.22548,-1.31503 0.0188,-0.45086 -0.0187,-0.90174 -0.16894,-1.27749 -0.15019,-0.37575 -0.41321,-0.67634 -0.6762,-0.86431 -0.26299,-0.18797 -0.52601,-0.26312 -0.77025,-0.3195 -0.24424,-0.0564 -0.4697,-0.094 -0.75152,-0.11277 -0.28183,-0.0188 -0.61999,-0.0188 -1.08965,-0.1127 -0.46967,-0.0939 -1.07085,-0.28176 -1.61569,-0.43207 -0.54484,-0.15032 -1.0333,-0.26303 -1.61571,-0.39455 -0.58242,-0.13151 -1.25875,-0.28181 -1.74722,-0.39453 -0.48847,-0.11272 -0.78906,-0.18787 -1.08966,-0.28178 -0.30059,-0.0939 -0.60118,-0.20664 -0.93935,-0.33815 -0.33817,-0.13151 -0.71392,-0.28181 -1.14603,-0.43212 -0.43212,-0.15032 -0.92058,-0.30061 -1.39026,-0.45091 -0.46969,-0.15029 -0.92058,-0.30059 -1.39026,-0.50722 -0.46969,-0.20663 -0.95815,-0.46964 -1.44662,-0.71389 -0.48848,-0.24425 -0.97694,-0.4697 -1.22133,-0.58249 -0.24439,-0.1128 -0.24439,-0.1128 -0.24439,-0.1128 -0.37575,-0.26302 -0.75118,-0.52583 -1.18329,-0.7701 -0.43211,-0.24427 -0.92057,-0.46971 -1.3527,-0.7327 -0.43212,-0.26298 -0.80786,-0.56357 -1.1836,-0.84539 -0.37574,-0.28182 -0.75149,-0.54484 -1.12725,-0.84542 -0.37576,-0.30058 -0.7515,-0.63875 -1.08965,-0.88303 -0.338155,-0.24428 -0.638747,-0.39458 -0.920577,-0.58241 -0.28183,-0.18783 -0.544846,-0.41327 -0.80788,-0.52612 -0.263034,-0.11284 -0.526051,-0.11284 -0.770367,-0.0565 -0.244316,0.0563 -0.469759,0.16905 -0.582536,0.22544 -0.112776,0.0564 -0.112776,0.0564 -0.206736,0.22554 z"
         id="path871"
         inkscape:path-effect="#path-effect873"
         inkscape:original-d="m 97.055134,131.5486 c -0.187608,0.33843 -0.37548,0.6766 -0.563618,1.01451 -0.225186,0.60147 -0.45063,1.20265 -0.676343,1.80358 -0.262763,0.56389 -0.52578,1.1275 -0.789065,1.69086 -0.187613,0.52632 -0.375483,1.05235 -0.56362,1.57813 -0.225187,0.45117 -0.450631,0.90205 -0.676341,1.35268 -0.112462,0.45117 -0.225185,0.90206 -0.338172,1.35269 -0.150038,0.60147 -0.300332,1.20265 -0.450895,1.80358 2.64e-4,0.48874 2.64e-4,0.9772 0,1.46541 -0.03731,0.11299 -0.07488,0.22571 -0.112723,0.33817 0.263292,0.30086 0.526309,0.60146 0.789066,0.90179 0.338442,0.26329 0.676606,0.52631 1.014513,0.78906 0.714196,0.4136 1.35295,0.82691 2.029027,1.23997 0.45117,0.15056 0.902054,0.30086 1.352684,0.45089 0.376018,0.26329 0.751756,0.52631 1.127239,0.78906 0.563893,0.2633 1.127504,0.45116 1.690854,0.67635 0.41359,0.15056 0.82691,0.30086 1.23996,0.45089 0.45117,0.15057 0.90206,0.30086 1.35269,0.4509 0.48874,0.18814 0.9772,0.30086 1.46541,0.45089 0.56389,0.22572 1.05235,0.45116 1.57813,0.67634 0.45117,0.0378 0.90205,0.0754 1.35268,0.11273 0.48875,0.18814 0.97721,0.37601 1.46541,0.56362 0.60147,0.11299 1.20265,0.22571 1.80358,0.33817 0.45117,0.11299 0.90206,0.22571 1.35269,0.33817 0.55285,0.0954 1.10543,0.19056 1.65776,0.28545 1.13855,0.0178 2.27678,0.0354 3.4148,0.0527 2.6e-4,2.6e-4 2.6e-4,2.6e-4 0,0 0.5639,0.0754 1.12751,0.15056 1.69086,0.22545 0.26329,-0.15004 0.52631,-0.30033 0.78907,-0.4509 0.15056,-0.15003 0.30086,-0.30033 0.45089,-0.45089 0.11299,-0.60094 0.22571,-1.20212 0.33817,-1.80358 0.26329,-0.75124 0.52631,-1.50272 0.78907,-2.25448 0.37602,-0.48821 0.75175,-0.97667 1.12724,-1.4654 0.18814,-0.37549 0.37601,-0.75123 0.56361,-1.12724 0.0754,-0.45064 0.15057,-0.90153 0.22545,-1.35269 -0.0373,-0.45064 -0.0749,-0.90152 -0.11272,-1.35268 -0.26276,-0.30034 -0.52578,-0.60093 -0.78907,-0.90179 -0.26276,-0.0749 -0.52578,-0.15003 -0.78906,-0.22545 -0.22519,-0.0373 -0.45064,-0.0749 -0.67635,-0.11272 -0.33791,2.6e-4 -0.67607,2.6e-4 -1.01451,0 -0.60094,-0.18761 -1.20212,-0.37548 -1.80358,-0.56362 -0.48822,-0.11246 -0.97667,-0.22518 -1.46541,-0.33817 -0.67609,-0.15004 -1.35242,-0.30033 -2.02903,-0.4509 -0.30033,-0.0749 -0.60093,-0.15003 -0.90179,-0.22544 -0.30033,-0.11247 -0.60092,-0.22519 -0.90179,-0.33818 -0.37548,-0.15003 -0.75122,-0.30033 -1.12723,-0.45089 -0.48822,-0.15004 -0.97668,-0.30033 -1.46541,-0.4509 -0.45064,-0.15003 -0.90153,-0.30033 -1.35269,-0.45089 -0.48821,-0.26276 -0.97667,-0.52578 -1.46541,-0.78907 -0.48821,-0.22519 -0.97667,-0.45063 -1.4654,-0.67634 2.6e-4,2.6e-4 0,0 0,0 0,0 -0.75122,-0.52578 -1.12724,-0.78907 -0.48822,-0.22518 -0.97667,-0.45063 -1.46541,-0.67634 -0.37549,-0.30034 -0.75123,-0.60093 -1.12724,-0.90179 -0.37548,-0.26276 -0.75122,-0.52578 -1.12723,-0.78906 -0.37549,-0.33792 -0.75123,-0.67608 -1.12724,-1.01452 -0.30034,-0.15003 -0.60093,-0.30033 -0.901791,-0.45089 -0.262763,-0.22519 -0.52578,-0.45063 -0.789067,-0.67634 -0.262763,2.6e-4 -0.52578,2.6e-4 -0.789066,0 -0.225187,0.11299 -0.450631,0.22571 -0.676342,0.33817 z"
         sodipodi:nodetypes="cccccccccccccccccccccccccccccccccccccccccccccccccccccccccccc" />
      <path
         style="display:inline;fill:none;stroke:#000000;stroke-width:0.15;stroke-linecap:butt;stroke-linejoin:miter;stroke-miterlimit:4;stroke-dasharray:none;stroke-opacity:1"
         d="m 106.31121,117.69885 c -0.50435,0.61053 -1.00873,1.22108 -1.40688,1.65905 -0.39815,0.43797 -0.69013,0.70341 -0.95561,1.02199 -0.26548,0.31857 -0.50437,0.69019 -0.78309,1.12819 -0.27873,0.43799 -0.59726,0.94233 -1.0087,1.56613 -0.41144,0.62379 -0.91578,1.36703 -1.32723,1.97757 -0.41144,0.61053 -0.72997,1.08832 -0.995415,1.45993 -0.265442,0.37162 -0.477794,0.63706 -0.623804,0.90258 -0.146009,0.26551 -0.225641,0.53096 -0.265433,0.78318 -0.03979,0.25222 -0.03979,0.49112 0.05326,0.69019 0.09305,0.19908 0.278861,0.35835 0.504462,0.61055 0.225601,0.2522 0.49104,0.59727 0.83615,0.95561 0.34512,0.35833 0.76982,0.72994 1.23438,1.04844 0.46455,0.3185 0.96888,0.58394 1.60596,0.96886 0.63708,0.38492 1.40684,0.88925 1.79159,1.14132 0.38475,0.25208 0.38475,0.25208 0.78309,0.46453 0.39833,0.21244 1.19465,0.63715 1.87155,0.96895 0.6769,0.33179 1.23432,0.57069 1.99085,0.9025 0.75654,0.33181 1.71212,0.75652 2.535,1.08831 0.82289,0.3318 1.51304,0.5707 2.44212,0.88924 0.92907,0.31854 2.09701,0.7167 3.09135,1.00066 0.99433,0.28397 1.7132,0.4327 2.52282,0.61852 0.80963,0.18582 1.65904,0.39817 2.22975,0.55746 0.57071,0.15928 0.8627,0.26546 1.15466,0.30521 0.29196,0.0398 0.58393,0.0132 0.8494,-3e-5 0.26546,-0.0133 0.50436,-0.0133 0.71657,-0.11943 0.21222,-0.10617 0.39803,-0.31852 0.58383,-0.70336 0.18579,-0.38483 0.3716,-0.94226 0.65033,-1.55282 0.27872,-0.61056 0.65034,-1.27418 0.96887,-1.96431 0.31854,-0.69014 0.58398,-1.40683 0.82412,-2.10084 0.24014,-0.69402 0.45002,-1.34991 0.66238,-1.96045 0.21236,-0.61054 0.42471,-1.16797 0.61053,-1.77848 0.18581,-0.61051 0.34508,-1.27411 0.4778,-1.80501 0.13272,-0.5309 0.2389,-0.92906 0.35836,-1.43341 0.11945,-0.50435 0.25217,-1.11486 0.33182,-1.69882 0.0796,-0.58396 0.10617,-1.14138 0.13271,-1.76519 0.0265,-0.6238 0.0531,-1.31395 0.0663,-1.95102 0.0133,-0.63707 0.0133,-1.22104 -0.14602,-1.27423 -0.1593,-0.0532 -0.47782,0.42461 -0.74328,0.87589 -0.26546,0.45129 -0.47781,0.87599 -0.74323,1.24757 -0.26542,0.37157 -0.58395,0.6901 -0.94232,1.07501 -0.35836,0.38491 -0.75652,0.83616 -1.15466,1.20777 -0.39815,0.3716 -0.79631,0.66358 -1.26085,1.02194 -0.46454,0.35836 -0.99542,0.78307 -1.40685,1.08832 -0.41143,0.30526 -0.70342,0.49107 -1.10155,0.67688 -0.39814,0.18581 -0.90247,0.37161 -1.47319,0.59724 -0.57072,0.22564 -1.20778,0.49108 -1.77849,0.71671 -0.57071,0.22563 -1.07505,0.41144 -1.53955,0.54417 -0.46451,0.13274 -0.88921,0.21237 -1.27413,0.30527 -0.38492,0.0929 -0.73,0.19907 -1.08831,0.26544 -0.35832,0.0664 -0.72995,0.0929 -1.10155,-0.053 -0.37161,-0.14587 -0.74322,-0.4644 -1.06177,-0.75638 -0.31854,-0.29199 -0.58399,-0.55743 -0.8229,-0.8096 -0.23891,-0.25217 -0.45126,-0.49106 -0.66367,-0.82285 -0.2124,-0.3318 -0.42475,-0.7565 -0.66366,-1.24758 -0.23891,-0.49109 -0.50435,-1.04851 -0.7698,-1.61922 -0.26546,-0.57072 -0.5309,-1.15469 -0.70349,-1.69887 -0.17259,-0.54418 -0.25222,-1.04852 -0.34513,-1.69887 -0.0929,-0.65035 -0.19909,-1.44668 -0.2522,-2.15013 -0.0531,-0.70345 -0.0531,-1.31397 -0.0266,-1.83162 0.0265,-0.51764 0.0796,-0.94234 0.13271,-1.32724 0.0531,-0.38491 0.10618,-0.72998 0.11948,-1.03521 0.0133,-0.30524 -0.0132,-0.57068 -0.0928,-0.66375 -0.0796,-0.0931 -0.21232,-0.0134 -0.37163,0.11931 -0.15931,0.13275 -0.34511,0.31855 -0.62384,0.61056 -0.27873,0.292 -0.65035,0.69015 -1.10161,1.16797 -0.45126,0.47781 -0.98211,1.03523 -1.51299,1.59267 z"
         id="path1296"
         inkscape:path-effect="#path-effect1298"
         inkscape:original-d="m 106.31121,117.69885 c 0,0 -1.00844,1.22132 -1.51305,1.83158 -0.29173,0.26572 -0.58371,0.53116 -0.87597,0.79634 -0.23864,0.37189 -0.47754,0.74351 -0.7167,1.11487 -0.31828,0.50462 -0.63681,1.00896 -0.95561,1.51305 -0.50409,0.74352 -1.00843,1.48676 -1.51304,2.22974 -0.31828,0.47808 -0.63681,0.95587 -0.955608,1.43341 -0.212098,0.26572 -0.42445,0.53116 -0.637072,0.79634 -0.07937,0.26572 -0.159004,0.53116 -0.238903,0.79634 2.65e-4,0.23917 2.65e-4,0.47807 0,0.7167 0.186082,0.15954 0.371891,0.31881 0.557438,0.47781 0.265715,0.34535 0.531156,0.69042 0.796335,1.03524 0.42499,0.3719 0.8497,0.74351 1.27415,1.11487 0.50462,0.26572 1.00895,0.53116 1.51304,0.79634 0.77008,0.50462 1.53984,1.00895 2.30938,1.51304 2.6e-4,2.6e-4 2.6e-4,2.6e-4 0,0 0.79662,0.42499 1.59294,0.8497 2.38902,1.27415 0.55771,0.23917 1.11514,0.47806 1.67231,0.7167 0.95589,0.42499 1.91147,0.84969 2.86682,1.27414 0.69043,0.23917 1.38058,0.47807 2.07048,0.71671 1.16825,0.39844 2.33619,0.7966 3.50389,1.19451 0.82316,0.15953 1.53985,0.31879 2.30938,0.4778 0.84971,0.21262 1.69912,0.42498 2.54828,0.63707 0.29226,0.10644 0.58425,0.21262 0.87598,0.31853 0.29226,-0.0263 0.58424,-0.0528 0.87597,-0.0796 0.23917,2.6e-4 0.47807,2.6e-4 0.7167,0 0.18608,-0.21209 0.37189,-0.42445 0.55744,-0.63707 0.18608,-0.55718 0.37189,-1.11461 0.55744,-1.67231 0.37189,-0.66336 0.74351,-1.32697 1.11487,-1.99085 0.26572,-0.71645 0.53116,-1.43314 0.79634,-2.15011 0.23917,-0.66337 0.42498,-1.32697 0.63707,-1.99085 0.21263,-0.55718 0.42498,-1.11461 0.63707,-1.67231 0.15954,-0.66336 0.3188,-1.32697 0.4778,-1.99085 0.10645,-0.39791 0.21263,-0.79607 0.31854,-1.1945 0.13299,-0.61028 0.26571,-1.22079 0.39817,-1.83158 0.0268,-0.55719 0.0533,-1.11461 0.0796,-1.67231 0.0268,-0.68991 0.0534,-1.38006 0.0796,-2.07049 2.6e-4,-0.58372 2.6e-4,-1.16769 0,-1.75194 -0.31828,0.47808 -0.63681,0.95587 -0.95561,1.43341 -0.2121,0.42499 -0.42445,0.84969 -0.63707,1.27414 -0.31828,0.31881 -0.63681,0.63734 -0.95561,0.95561 -0.39791,0.45153 -0.79607,0.90278 -1.1945,1.35377 -0.39792,0.29227 -0.79608,0.58425 -1.19451,0.87598 -0.53064,0.42498 -1.06152,0.84969 -1.59268,1.27414 -0.29173,0.18608 -0.58372,0.37189 -0.87597,0.55743 -0.5041,0.18609 -1.00843,0.37189 -1.51304,0.55744 -0.63682,0.26572 -1.27388,0.53116 -1.91122,0.79634 -0.50409,0.18608 -1.00843,0.37189 -1.51304,0.55744 -0.42446,0.0799 -0.84916,0.15953 -1.27414,0.2389 -0.34482,0.10644 -0.6899,0.21262 -1.03524,0.31853 -0.37137,0.0268 -0.74299,0.0534 -1.11488,0.0796 -0.37137,-0.31828 -0.74298,-0.63681 -1.11487,-0.95561 -0.26519,-0.26518 -0.53063,-0.53063 -0.79634,-0.79634 -0.2121,-0.23864 -0.42445,-0.47753 -0.63707,-0.7167 -0.2121,-0.42446 -0.42445,-0.84916 -0.63707,-1.27414 -0.26519,-0.55719 -0.53063,-1.11461 -0.79634,-1.67231 -0.26519,-0.58373 -0.53063,-1.1677 -0.79634,-1.75195 -0.0794,-0.50409 -0.159,-1.00843 -0.2389,-1.51304 -0.10592,-0.79609 -0.21209,-1.59242 -0.31854,-2.38902 2.7e-4,-0.61027 2.7e-4,-1.22079 0,-1.83158 0.0534,-0.42446 0.10645,-0.84916 0.15927,-1.27414 0.0534,-0.34482 0.10644,-0.68989 0.15927,-1.03524 -0.0263,-0.26519 -0.0528,-0.53063 -0.0796,-0.79634 -0.13247,0.0799 -0.26519,0.15953 -0.39817,0.2389 -0.18556,0.18608 -0.37136,0.37189 -0.55744,0.55744 -0.37137,0.39844 -0.74298,0.7966 -1.11488,1.19451 -0.53063,0.55772 -1.59263,1.67232 -1.59263,1.67232 z"
         sodipodi:nodetypes="ccccccccccccccccccccccccccccccccccccccccccccccccccccccccccccccccccc" />
      <path
         style="display:inline;fill:none;stroke:#000000;stroke-width:0.15;stroke-linecap:butt;stroke-linejoin:miter;stroke-miterlimit:4;stroke-dasharray:none;stroke-opacity:1"
         d="m 117.3273,128.0779 c -0.18589,1.6e-4 -0.18589,-0.13256 0.0265,-0.35834 0.21238,-0.22577 0.63709,-0.5443 1.00873,-0.79649 0.37165,-0.25218 0.69018,-0.43799 0.95561,-0.61053 0.26543,-0.17253 0.47778,-0.3318 0.69012,-0.5176 0.21234,-0.1858 0.42469,-0.39815 0.7565,-0.72996 0.33181,-0.3318 0.78306,-0.78305 1.00869,-1.00869 0.22564,-0.22563 0.22564,-0.22563 0.34507,-0.41141 0.11942,-0.18578 0.35832,-0.5574 0.57071,-0.82289 0.2124,-0.2655 0.38509,-0.41352 0.5907,-0.6978 0.2056,-0.28428 0.41796,-0.68245 0.63032,-1.04082 0.21236,-0.35837 0.42472,-0.67691 0.67689,-1.19449 0.25216,-0.51758 0.54416,-1.23428 0.78313,-1.23419 0.23898,1e-4 0.42478,0.71679 0.5575,1.23441 0.13272,0.51762 0.21235,0.83615 0.25213,1.18121 0.0398,0.34506 0.0398,0.66359 0.0663,1.03524 0.0266,0.37165 0.0797,0.7698 -0.0663,1.08817 -0.14599,0.31837 -0.49106,0.55727 -0.87598,0.86254 -0.38492,0.30528 -0.80963,0.6769 -1.19449,0.9556 -0.38486,0.2787 -0.72994,0.46452 -1.03521,0.63706 -0.30527,0.17254 -0.57072,0.33181 -0.88926,0.5309 -0.31855,0.19909 -0.69016,0.43798 -1.00865,0.59725 -0.31848,0.15926 -0.58392,0.2389 -0.84937,0.31853 -0.26545,0.0796 -0.53089,0.15927 -0.87599,0.27872 -0.3451,0.11945 -0.7698,0.27871 -1.16797,0.42471 -0.39817,0.14599 -0.76979,0.27871 -0.95568,0.27887 z"
         id="path2685"
         inkscape:path-effect="#path-effect2687"
         inkscape:original-d="m 117.14141,128.21052 c 2.6e-4,-0.13246 2.7e-4,-0.26518 0,-0.39817 0.42498,-0.31827 0.84969,-0.6368 1.27415,-0.9556 0.31879,-0.18555 0.63732,-0.37136 0.9556,-0.55744 0.21262,-0.15901 0.42498,-0.31827 0.63707,-0.47781 0.21262,-0.21209 0.42498,-0.42444 0.63707,-0.63707 0.45152,-0.45099 0.90277,-0.90224 1.35378,-1.35377 2.6e-4,2.6e-4 2.6e-4,2.6e-4 0,0 0.23916,-0.37136 0.47806,-0.74298 0.7167,-1.11488 0.18608,-0.159 0.37189,-0.29172 0.55744,-0.4778 0.21262,-0.3979 0.42497,-0.79607 0.63707,-1.19451 0.21262,-0.31827 0.42498,-0.6368 0.63707,-0.95561 0.29225,-0.71643 0.58424,-1.43313 0.87598,-2.15011 0.18608,0.71699 0.37189,1.43368 0.55743,2.15012 0.0799,0.3188 0.15954,0.63733 0.2389,0.9556 2.7e-4,0.3719 2.7e-4,0.69043 0,1.03524 0.0534,0.39845 0.10645,0.79661 0.15927,1.19451 -0.34482,0.23917 -0.68989,0.47807 -1.03524,0.71671 -0.42446,0.37189 -0.84916,0.74351 -1.27414,1.11487 -0.34482,0.18608 -0.6899,0.37189 -1.03524,0.55744 -0.26519,0.15953 -0.53063,0.3188 -0.79634,0.4778 -0.37137,0.23917 -0.74298,0.47807 -1.11487,0.71671 -0.26519,0.0799 -0.53063,0.15953 -0.79634,0.2389 -0.26519,0.0799 -0.53063,0.15953 -0.79634,0.2389 -0.42446,0.15953 -0.84916,0.3188 -1.27414,0.4778 -0.37137,0.13299 -0.74299,0.26571 -1.11488,0.39817 z"
         sodipodi:nodetypes="cccccccccccccccccccccccccc" />
      <path
         style="opacity:1;fill:#ffffff;stroke:none;stroke-width:0.566929;stroke-linecap:round;stroke-linejoin:round;stroke-miterlimit:4;stroke-dasharray:none"
         d="m 454.45296,526.68279 c -28.31868,-7.28935 -48.94448,-16.26861 -70.31845,-30.61254 -2.98759,-2.00495 -9.53918,-9.10642 -9.53918,-10.33981 0,-1.64639 1.43363,-4.07461 9.97406,-16.89371 8.87785,-13.32557 10.24378,-15.02768 23.65021,-29.4709 4.50791,-4.85653 6.6229,-6.80045 6.74475,-6.19921 0.0976,0.48175 -0.0797,2.78701 -0.39404,5.1228 -0.77176,5.73462 -0.71969,9.70112 0.22388,17.05605 1.0528,8.20641 2.13468,11.60838 6.48282,20.38535 3.0182,6.09242 4.21715,7.93389 6.9829,10.72506 4.34437,4.3843 5.89501,5.29461 9.02302,5.29704 3.95173,0.003 12.27588,-2.34979 21.81253,-6.1654 7.94652,-3.1794 9.2779,-3.90738 14.83584,-8.11199 7.42811,-5.61941 13.74673,-12.08843 16.75757,-17.15643 1.23628,-2.08097 2.47262,-3.92253 2.74742,-4.09237 0.7065,-0.43664 0.005,13.71283 -0.95464,19.2414 -2.42582,13.98262 -10.31023,36.48871 -18.21855,52.00494 -0.85007,1.66786 -2.76246,2.63201 -5.09952,2.57099 -1.01136,-0.0264 -7.63113,-1.53898 -14.71062,-3.36127 z"
         id="path47430"
         transform="scale(0.26458333)" />
      <path
         style="opacity:1;fill:#ffffff;stroke:none;stroke-width:0.566929;stroke-linecap:round;stroke-linejoin:round;stroke-miterlimit:4;stroke-dasharray:none"
         d="m 444.73345,575.99994 c -13.61191,-0.80554 -17.93398,-1.32176 -25.36941,-3.03004 -4.41754,-1.01492 -8.23313,-1.96968 -8.47908,-2.12168 -0.24595,-0.152 -2.18026,-0.64094 -4.29847,-1.08652 -2.1182,-0.44558 -8.70513,-2.47588 -14.6376,-4.5118 -16.3659,-5.61645 -33.52221,-14.3764 -38.11719,-19.46249 l -1.92337,-2.12895 0.36921,-3.75452 c 0.54585,-5.55077 2.56027,-12.94868 5.30904,-19.49732 1.33847,-3.18876 3.37244,-8.04374 4.51993,-10.78885 4.45622,-10.66049 5.2179,-12.08451 6.66104,-12.45324 0.74913,-0.19141 1.75494,-0.32105 2.23512,-0.28808 1.18597,0.0814 5.91318,3.23748 12.24968,8.17834 2.89604,2.25817 6.92047,5.0743 8.94318,6.25807 2.02271,1.18376 4.75111,2.81622 6.06311,3.62769 7.29553,4.51225 27.27697,12.57032 36.22992,14.61071 1.58927,0.36219 6.19947,1.48298 10.24489,2.49063 4.04542,1.00765 9.47212,2.15652 12.05934,2.55305 5.19322,0.79594 6.88484,1.70949 8.29829,4.48141 1.96917,3.86179 0.90144,8.65941 -3.46236,15.55739 -2.71396,4.29004 -3.99323,7.49462 -6.75924,16.93197 -1.13813,3.88321 -3.31978,4.83761 -10.13603,4.43423 z"
         id="path47469"
         transform="scale(0.26458333)" />
      <path
         style="opacity:1;fill:#ffffff;stroke:none;stroke-width:0.566929;stroke-linecap:round;stroke-linejoin:round;stroke-miterlimit:4;stroke-dasharray:none"
         d="m 402.17774,626.44753 c -15.03889,-0.8522 -25.16672,-2.2136 -34.67503,-4.6611 -8.20215,-2.11129 -13.17904,-4.08613 -18.79995,-7.4599 l -4.20267,-2.52251 0.35245,-17.07482 c 0.54539,-26.42253 1.26742,-31.80537 4.78041,-35.63871 1.57899,-1.72297 2.03217,-1.92231 4.30088,-1.8918 2.18659,0.0294 3.46199,0.58271 9.25861,4.01664 3.69747,2.1904 8.18946,4.5136 9.9822,5.16266 1.79274,0.64907 6.3516,2.32845 10.1308,3.73196 3.77921,1.40351 10.5172,3.49233 14.97331,4.64183 4.45611,1.14949 10.22981,2.68528 12.83043,3.41285 2.60063,0.72758 7.21083,1.67581 10.2449,2.1072 7.37519,1.04861 16.19739,2.2541 20.98341,2.86723 5.90415,0.75638 7.87568,2.68257 7.8515,7.67093 -0.15445,31.86014 -0.1644,32.13584 -1.19992,33.28123 -1.90608,2.1083 -3.9319,2.31117 -24.22003,2.42544 -10.69146,0.0602 -20.85755,0.0291 -22.5913,-0.0691 z"
         id="path47508"
         transform="scale(0.26458333)" />
      <path
         style="opacity:1;fill:#ffffff;stroke:none;stroke-width:0.566929;stroke-linecap:round;stroke-linejoin:round;stroke-miterlimit:4;stroke-dasharray:none"
         d="m 417.15104,657.93974 c -11.02836,-0.82452 -27.18561,-4.2672 -38.33167,-8.16747 -12.55474,-4.3932 -32.58654,-14.70768 -33.37237,-17.18362 -0.53037,-1.67103 0.68883,-5.20339 2.11952,-6.14081 2.36237,-1.54789 5.35956,-1.48144 9.95399,0.22067 6.85934,2.5412 21.84235,5.81823 29.41217,6.43292 3.70938,0.30121 6.92606,0.65997 7.14818,0.79725 0.22213,0.13728 12.98516,0.35514 28.3623,0.48413 27.47386,0.23045 27.97869,0.25355 29.12718,1.3325 2.01854,1.89632 3.92999,6.06907 4.97748,10.86596 0.55561,2.5444 1.35609,5.60578 1.77883,6.80307 l 0.76862,2.17689 -5.60478,0.85405 c -11.14239,1.69787 -25.79711,2.31264 -36.33945,1.52446 z"
         id="path47547"
         transform="scale(0.26458333)" />
      <path
         style="opacity:1;fill:#ffffff;stroke:none;stroke-width:0.566929;stroke-linecap:round;stroke-linejoin:round;stroke-miterlimit:4;stroke-dasharray:none"
         d="m 444.99614,482.5743 c 0,-0.13703 2.06868,-1.65188 4.59707,-3.36635 8.06521,-5.46891 16.39607,-15.10375 21.3453,-24.68637 1.6033,-3.10429 2.71581,-4.71948 3.03252,-4.40276 1.30311,1.3031 3.01809,11.84589 2.35605,14.48368 -0.83285,3.31834 -15.10492,12.52417 -24.75767,15.9693 -6.86286,2.4494 -6.57327,2.36118 -6.57327,2.0025 z"
         id="path47586"
         transform="scale(0.26458333)" />
    </g>
  </g>
  <g
     inkscape:groupmode="layer"
     id="layer5"
     inkscape:label="text"
     style="display:inline">
    <g
       aria-label="Spice Melange"
       transform="rotate(-157.05296,70.631996,96.411667)"
       id="text29996"
       style="font-weight:bold;font-size:10.5833px;line-height:1.25;-inkscape-font-specification:'sans-serif Bold';white-space:pre;fill:#ffffff;stroke:#010101;stroke-width:0.3;stroke-miterlimit:4;stroke-dasharray:none;stroke-opacity:1">
      <path
         d="m 144.68592,141.37775 q -1.12795,-0.14225 -1.71456,-1.19023 -0.58214,-1.04221 -0.37523,-2.68286 0.11962,-0.94849 0.37292,-1.63533 0.25777,-0.68106 0.59172,-1.26398 l 1.83034,0.23084 -0.0272,0.21533 q -0.56401,0.54869 -0.92053,1.26939 -0.35718,0.72582 -0.44512,1.42309 -0.0226,0.17945 -0.0287,0.47557 -0.006,0.29612 0.0424,0.48974 0.0638,0.23723 0.18416,0.39824 0.11968,0.16614 0.39141,0.20041 0.25122,0.0317 0.45782,-0.16102 0.21109,-0.18693 0.36023,-0.5848 0.15685,-0.41774 0.30479,-0.88869 0.15242,-0.46517 0.34387,-0.86813 0.43431,-0.92443 1.02119,-1.28273 0.59135,-0.35252 1.38604,-0.2523 1.06642,0.13449 1.61779,1.17282 0.55585,1.0441 0.3664,2.54632 -0.0951,0.75367 -0.33619,1.46808 -0.23667,0.72019 -0.52503,1.23072 l -1.75856,-0.22178 0.0265,-0.21021 q 0.42734,-0.41488 0.75814,-1.05548 0.33528,-0.63483 0.42322,-1.3321 0.031,-0.2461 0.0262,-0.49672 -3.7e-4,-0.24485 -0.0642,-0.48208 -0.0517,-0.20965 -0.19252,-0.37325 -0.1357,-0.16296 -0.33566,-0.18817 -0.30249,-0.0382 -0.49565,0.17187 -0.18804,0.21067 -0.40216,0.83474 -0.14018,0.40942 -0.27071,0.7836 -0.13117,0.37931 -0.33098,0.80726 -0.39769,0.84051 -0.94738,1.19307 -0.54521,0.35835 -1.33477,0.25877 z"
         id="path45090"
         style="fill:#ffffff;stroke:#010101;stroke-width:0.3;stroke-miterlimit:4;stroke-dasharray:none;stroke-opacity:1" />
      <path
         d="m 142.43865,149.03236 q -0.66767,-0.26489 -1.13332,-0.68869 -0.46754,-0.41899 -0.6915,-0.89145 -0.23746,-0.49449 -0.25618,-1.00783 -0.0187,-0.51333 0.17948,-1.01289 0.18295,-0.46112 0.4115,-0.74293 0.22375,-0.28372 0.53487,-0.54944 l -2.24799,-0.89187 0.68605,-1.72923 7.37323,2.92525 -0.68606,1.72923 -0.56199,-0.22297 q 0.15885,0.52446 0.1919,1.01568 0.0311,0.49603 -0.1842,1.03882 -0.4002,1.00871 -1.36098,1.27243 -0.96269,0.26852 -2.25481,-0.24411 z m 0.67339,-1.7954 q 0.78776,0.31253 1.24993,0.18456 0.46217,-0.12797 0.69276,-0.70918 0.0972,-0.24497 0.12324,-0.53485 0.0309,-0.28797 -0.0151,-0.5786 l -2.71392,-1.07672 q -0.13586,0.14624 -0.2332,0.33556 -0.0974,0.18932 -0.17358,0.38145 -0.27251,0.68689 -0.007,1.1813 0.27009,0.49632 1.07706,0.81648 z"
         id="path45092"
         style="fill:#ffffff;stroke:#010101;stroke-width:0.3;stroke-miterlimit:4;stroke-dasharray:none;stroke-opacity:1" />
      <path
         d="m 137.86623,150.61352 0.99482,-1.57202 4.90381,3.10328 -0.99482,1.57201 z m 5.57485,3.58908 1.05008,-1.65934 1.19211,0.7544 -1.05008,1.65935 z"
         id="path45094"
         style="fill:#ffffff;stroke:#010101;stroke-width:0.3;stroke-miterlimit:4;stroke-dasharray:none;stroke-opacity:1" />
      <path
         d="m 134.75787,154.23352 q 0.50669,-0.56597 1.06196,-0.91505 0.55183,-0.34523 1.1431,-0.44012 0.58783,-0.091 1.1841,0.1029 0.59626,0.19395 1.16993,0.70753 0.60447,0.54116 0.86415,1.1343 0.25623,0.597 0.22099,1.21743 -0.0403,0.59509 -0.32343,1.167 -0.28312,0.57191 -0.72432,1.06473 -0.39639,0.44277 -0.82698,0.73006 -0.4306,0.28729 -0.87414,0.47283 l -1.182,-1.05819 0.17579,-0.19635 q 0.14169,-0.0188 0.3375,-0.0516 0.19236,-0.0289 0.42913,-0.11521 0.22602,-0.082 0.44882,-0.22243 0.22665,-0.13695 0.45069,-0.38721 0.49635,-0.55442 0.41099,-1.17184 -0.085,-0.61012 -0.68942,-1.15128 -0.62373,-0.55839 -1.21944,-0.54377 -0.59916,0.0185 -1.1024,0.5806 -0.23438,0.26181 -0.36276,0.52142 -0.12798,0.26691 -0.17121,0.4779 -0.0402,0.19984 -0.0451,0.37577 -0.005,0.17594 1.1e-4,0.33302 l -0.17579,0.19636 -1.18199,-1.05818 q 0.13897,-0.46514 0.37098,-0.90248 0.22471,-0.43694 0.61075,-0.86815 z"
         id="path45096"
         style="fill:#ffffff;stroke:#010101;stroke-width:0.3;stroke-miterlimit:4;stroke-dasharray:none;stroke-opacity:1" />
      <path
         d="m 129.4318,162.02233 3.474,-2.46231 q -0.42818,-0.53261 -1.02523,-0.55281 -0.60126,-0.0172 -1.36014,0.52067 -0.48063,0.34066 -0.80923,0.83325 -0.32859,0.4926 -0.44954,0.87603 l -0.16864,0.11953 -0.8636,-1.21843 q 0.36793,-0.57115 0.75752,-0.98664 0.38959,-0.41548 0.94188,-0.80694 1.42502,-1.01002 2.63811,-0.90707 1.2131,0.10295 2.05279,1.28765 0.83074,1.17205 0.59811,2.36305 -0.23386,1.1982 -1.48601,2.0857 -1.15519,0.81878 -2.15237,0.64513 -0.99419,-0.16943 -1.77113,-1.26559 z m 2.13986,-0.18021 q 0.35032,0.46744 0.74409,0.54938 0.39378,0.0819 0.86598,-0.25275 0.43846,-0.31078 0.55957,-0.73865 0.12111,-0.42788 -0.20077,-0.95349 z"
         id="path45098"
         style="fill:#ffffff;stroke:#010101;stroke-width:0.3;stroke-miterlimit:4;stroke-dasharray:none;stroke-opacity:1" />
      <path
         d="m 115.44874,163.75414 1.93448,-0.3932 1.02624,5.04888 0.73171,-3.56055 1.34198,-0.27278 2.06366,2.99236 -1.02625,-5.04888 1.8332,-0.37261 1.53267,7.5404 -2.25857,0.45908 -2.46538,-3.43803 -0.92249,4.12665 -2.25858,0.45909 z"
         id="path45100"
         style="fill:#ffffff;stroke:#010101;stroke-width:0.3;stroke-miterlimit:4;stroke-dasharray:none;stroke-opacity:1" />
      <path
         d="m 107.61691,165.68872 4.24097,0.38182 q 0.02,-0.68309 -0.42108,-1.08599 -0.44621,-0.40338 -1.37264,-0.48678 -0.58673,-0.0528 -1.15644,0.10861 -0.56971,0.16144 -0.91059,0.37461 l -0.20587,-0.0185 0.13391,-1.48743 q 0.65062,-0.19566 1.21667,-0.25884 0.56605,-0.0632 1.24028,-0.002 1.73962,0.15662 2.59562,1.02234 0.85599,0.86572 0.72578,2.31198 -0.12882,1.43081 -1.07885,2.18582 -0.95563,0.75969 -2.48423,0.62207 -1.41023,-0.12697 -2.05608,-0.90632 -0.64631,-0.77421 -0.52583,-2.11238 z m 1.74479,1.25186 q -0.0369,0.58298 0.20944,0.90091 0.24637,0.31793 0.82281,0.36982 0.53527,0.0482 0.90513,-0.19869 0.36986,-0.24688 0.46618,-0.85564 z"
         id="path45102"
         style="fill:#ffffff;stroke:#010101;stroke-width:0.3;stroke-miterlimit:4;stroke-dasharray:none;stroke-opacity:1" />
      <path
         d="m 104.78919,162.2122 1.79187,0.50011 -2.16158,7.74484 -1.79186,-0.50011 z"
         id="path45104"
         style="fill:#ffffff;stroke:#010101;stroke-width:0.3;stroke-miterlimit:4;stroke-dasharray:none;stroke-opacity:1" />
      <path
         d="m 99.262446,161.54385 -0.532282,1.08577 q 0.352372,0.13821 0.771798,0.28052 0.417152,0.14695 0.653158,0.18208 0.28923,0.0439 0.49886,-0.0432 0.20271,-0.0848 0.32327,-0.33072 0.0796,-0.1624 0.10182,-0.27813 0.0222,-0.11573 -0.0437,-0.26312 -0.0612,-0.14512 -0.18696,-0.26431 -0.12801,-0.11455 -0.44354,-0.26923 -0.25056,-0.12284 -0.555806,-0.14587 -0.309887,-0.0253 -0.586658,0.0462 z m 0.395799,-0.80737 q 0.184605,-0.0361 0.454645,-0.0822 0.27004,-0.046 0.4873,-0.0431 0.30052,0.009 0.59002,0.0878 0.29178,0.074 0.60731,0.22866 0.7424,0.36395 1.01833,1.06898 0.27593,0.70504 -0.0744,1.4196 -0.27979,0.57073 -0.71242,0.80755 -0.43263,0.23681 -1.00364,0.21587 -0.56636,-0.0187 -1.296312,-0.26717 -0.729947,-0.24849 -1.488187,-0.56841 l -0.01365,0.0278 q -0.211547,0.43152 0.06148,0.7668 0.270754,0.33992 0.957482,0.67658 0.412964,0.20245 0.954407,0.28371 0.53916,0.0859 0.78199,0.10711 l 0.15312,0.0751 -0.61644,1.25745 q -0.29861,-0.06 -0.938032,-0.25842 -0.646335,-0.19599 -1.244902,-0.48943 -1.424496,-0.69833 -1.839445,-1.4485 -0.421865,-0.7478 0.03763,-1.68509 l 1.737877,-3.545 1.656498,0.81207 z"
         id="path45106"
         style="fill:#ffffff;stroke:#010101;stroke-width:0.3;stroke-miterlimit:4;stroke-dasharray:none;stroke-opacity:1" />
      <path
         d="m 92.367902,154.66414 1.425594,1.21125 -1.863721,2.19353 q -0.227528,0.26779 -0.424143,0.55506 -0.199962,0.29122 -0.240086,0.47412 -0.04504,0.21263 0.05166,0.41007 0.09277,0.19409 0.364496,0.42497 0.192967,0.16395 0.447346,0.27159 0.250441,0.10429 0.599899,0.16387 l 2.663415,-3.13473 1.417717,1.20456 -3.757556,4.42249 -1.417717,-1.20456 0.414904,-0.48833 q -0.629008,-0.0258 -1.109401,-0.16278 -0.484332,-0.14027 -0.909647,-0.50163 -0.716735,-0.60898 -0.763745,-1.36771 -0.05095,-0.76207 0.655056,-1.59301 z"
         id="path45108"
         style="fill:#ffffff;stroke:#010101;stroke-width:0.3;stroke-miterlimit:4;stroke-dasharray:none;stroke-opacity:1" />
      <path
         d="m 87.409365,149.14569 q 0.667125,-0.47074 1.257205,-0.6025 0.590079,-0.13177 1.088967,0.0285 0.50311,0.15729 0.959736,0.56241 0.45787,0.39792 0.886896,1.00593 0.348583,0.49401 0.629116,1.01707 0.277553,0.51883 0.440392,0.92887 l -1.186468,0.83719 -0.131091,-0.18578 q -0.08686,-0.35613 -0.281226,-0.81982 -0.190147,-0.46667 -0.413598,-0.78334 -0.297934,-0.42223 -0.562877,-0.6274 -0.2637,-0.21238 -0.505577,-0.25042 -0.227473,-0.0356 -0.4803,0.0543 -0.252826,0.0899 -0.548387,0.29841 l -0.08867,0.0626 q 0.41744,0.11654 0.783699,0.35774 0.36626,0.24121 0.655256,0.65077 0.703125,0.99647 0.484914,1.95999 -0.218212,0.96352 -1.442681,1.82753 -0.586901,0.41413 -1.129549,0.55037 -0.542647,0.13625 -1.070853,0.0599 -0.492199,-0.0701 -0.942886,-0.35926 -0.453666,-0.29337 -0.754579,-0.71983 -0.271121,-0.38423 -0.398701,-0.76222 -0.134783,-0.37924 -0.156075,-0.75002 l -0.249847,0.0941 -1.03979,-1.47359 z m 0.122545,2.19038 -2.149155,1.51649 q 0.03747,0.16962 0.141984,0.38048 0.100292,0.21384 0.207548,0.36584 0.423067,0.59957 0.98083,0.65505 0.55354,0.0584 1.169997,-0.37653 0.684014,-0.48265 0.775481,-0.92667 0.08849,-0.44824 -0.266054,-0.95069 -0.160885,-0.22801 -0.38759,-0.39692 -0.226705,-0.16891 -0.473041,-0.26705 z"
         id="path45110"
         style="fill:#ffffff;stroke:#010101;stroke-width:0.3;stroke-miterlimit:4;stroke-dasharray:none;stroke-opacity:1" />
      <path
         d="m 82.677936,142.78121 1.541479,3.96932 q 0.620895,-0.28547 0.785988,-0.8596 0.163221,-0.57895 -0.173509,-1.44603 -0.213263,-0.54915 -0.610933,-0.98789 -0.39767,-0.43873 -0.740061,-0.64947 l -0.07483,-0.19268 1.392151,-0.54064 q 0.464268,0.49602 0.772284,0.97512 0.308015,0.47909 0.55308,1.11013 0.632305,1.6282 0.236832,2.77963 -0.395473,1.15143 -1.749087,1.67711 -1.339162,0.52006 -2.437561,0.004 -1.105086,-0.5188 -1.660692,-1.94948 -0.512579,-1.3199 -0.101158,-2.24469 0.406604,-0.92293 1.659058,-1.40932 z m -0.346694,2.11926 q -0.538724,0.22584 -0.714152,0.58778 -0.175428,0.36194 0.03409,0.90146 0.194555,0.50098 0.580019,0.72271 0.385464,0.22173 0.973668,0.0377 z"
         id="path45112"
         style="fill:#ffffff;stroke:#010101;stroke-width:0.3;stroke-miterlimit:4;stroke-dasharray:none;stroke-opacity:1" />
    </g>
    <path
       style="opacity:1;fill:#ff5555;fill-opacity:1;stroke:none;stroke-width:0;stroke-linecap:round;stroke-linejoin:round;stroke-miterlimit:4;stroke-dasharray:none;stroke-opacity:1"
       d="m 22.257407,22.957142 c -0.514011,-0.51798 -0.934567,-1.009968 -0.934567,-1.093306 0,-0.245621 0.570196,-0.898247 0.887273,-1.015543 0.446595,-0.165205 1.009589,0.09929 1.546494,0.726541 0.603264,0.704779 0.641538,1.283129 0.1255,1.896406 -0.197932,0.235228 -0.434181,0.427686 -0.525005,0.427686 -0.09082,0 -0.585684,-0.423802 -1.099695,-0.941784 z"
       id="path50763" />
    <path
       style="opacity:1;fill:#ff5555;fill-opacity:1;stroke:none;stroke-width:0;stroke-linecap:round;stroke-linejoin:round;stroke-miterlimit:4;stroke-dasharray:none;stroke-opacity:1"
       d="m 37.725615,12.58126 c 0,-0.567026 0.602229,-1.05392 1.30357,-1.05392 0.288089,0 1.021408,0.640498 0.887095,0.774811 -0.04989,0.04989 -1.894342,0.47625 -2.060284,0.47625 -0.07171,0 -0.130381,-0.08871 -0.130381,-0.197141 z"
       id="path50802" />
    <path
       style="opacity:1;fill:#ff5555;fill-opacity:1;stroke:none;stroke-width:0;stroke-linecap:round;stroke-linejoin:round;stroke-miterlimit:4;stroke-dasharray:none;stroke-opacity:1"
       d="m 61.51321,15.76755 c -1.105644,-0.593029 -1.117886,-0.606137 -0.789972,-0.845913 0.764545,-0.559051 2.166768,0.254831 1.802561,1.046248 -0.12187,0.264824 -0.15907,0.257466 -1.012589,-0.200335 z"
       id="path50841" />
    <path
       style="opacity:1;fill:#ff5555;fill-opacity:1;stroke:none;stroke-width:0;stroke-linecap:round;stroke-linejoin:round;stroke-miterlimit:4;stroke-dasharray:none;stroke-opacity:1"
       d="m 68.950456,24.861192 c -0.52519,-0.413115 -0.685434,-0.76299 -0.504388,-1.101273 0.229505,-0.428836 0.818973,-0.341254 1.459569,0.216861 l 0.556024,0.484436 -0.390019,0.344384 c -0.474917,0.419349 -0.647841,0.427924 -1.121186,0.05559 z"
       id="path50880" />
    <path
       style="opacity:1;fill:#ff5555;fill-opacity:1;stroke:none;stroke-width:0;stroke-linecap:round;stroke-linejoin:round;stroke-miterlimit:4;stroke-dasharray:none;stroke-opacity:1"
       d="m 76.309627,38.872414 c -0.30544,-0.472313 -0.397353,-1.01609 -0.225898,-1.336458 0.321175,-0.600123 1.581031,-0.918697 2.239505,-0.566293 0.335044,0.17931 0.687332,0.845648 0.687332,1.300056 0,0.317913 -0.08441,0.36285 -1.077302,0.573522 -0.592516,0.125719 -1.155366,0.253082 -1.25078,0.283025 -0.09542,0.02994 -0.2632,-0.08429 -0.372857,-0.253852 z"
       id="path50919" />
    <path
       style="opacity:1;fill:#ff5555;fill-opacity:1;stroke:none;stroke-width:0;stroke-linecap:round;stroke-linejoin:round;stroke-miterlimit:4;stroke-dasharray:none;stroke-opacity:1"
       d="m 78.871559,46.000969 c 0,-1.221119 0.126301,-1.369923 0.670803,-0.790329 0.394975,0.420433 0.40722,1.24138 0.02424,1.624369 -0.551331,0.551328 -0.695034,0.378886 -0.695034,-0.83404 z"
       id="path50958" />
  </g>
</svg>
