<svg width="374.213" height="367.61" xmlns="http://www.w3.org/2000/svg"><path d="M188.92.008c-.016.013-3.14.073-6.945.134-7.64.123-8.53.154-11.917.415-2.317.179-2.914.24-4.833.504l-2.417.33c-.779.107-1.994.309-2.7.448-.708.14-1.619.267-2.027.283-.408.015-.715.072-.682.125.033.053-.593.184-1.39.292-.798.107-1.6.227-1.784.267-.183.04-1.083.23-2 .42-.917.193-2.192.49-2.833.663-.642.173-1.28.314-1.417.315-.138 0-1.413.303-2.833.674-3.82.995-3.808.992-5.25 1.337-.734.175-2.214.589-3.29.919-1.076.33-2.103.6-2.282.6-.179 0-.372.077-.43.17-.058.093-.169.129-.248.08-.079-.048-.192-.011-.25.084-.059.095-.18.127-.269.072-.089-.056-.253-.03-.364.059-.11.088-.426.198-.7.245-.563.094-2.268.585-4.5 1.296-.826.262-1.688.507-1.917.543-.229.036-.642.16-.917.276-.463.193-1.949.67-2.333.749-.092.019-.467.165-.834.325-.366.159-.89.329-1.166.377-.275.048-.613.13-.75.183-.138.053-.3.103-.36.11a.517.517 0 0 0-.238.14c-.068.069-.256.125-.416.125-.16 0-.317.073-.347.162-.03.089-.243.196-.473.237-.229.042-.435.09-.458.109a.609.609 0 0 1-.167.068c-.068.019-.487.197-.93.396-.443.199-.899.36-1.014.36a.54.54 0 0 0-.333.126.52.52 0 0 1-.237.14c-.06.008-.477.185-.926.393-.448.208-.898.392-1 .407-.1.016-.522.188-.935.383-.412.195-1.5.706-2.416 1.134-2.787 1.304-7.765 3.808-7.854 3.95-.045.075-.185.135-.309.135-.125 0-.814.348-1.532.774-.718.426-1.535.87-1.816.989-.282.119-.919.485-1.417.814-.498.329-1.243.76-1.656.96-.412.2-.889.493-1.059.65-.17.158-.545.384-.833.502-.288.119-.67.349-.847.513-.178.164-.41.298-.517.298-.106 0-.373.157-.593.35-.22.192-.663.494-.984.672-.93.513-2.174 1.329-3.397 2.228-.624.458-1.2.833-1.28.833-.08 0-.299.132-.486.292-.188.16-.415.292-.506.292-.09 0-.164.063-.164.14 0 .079-.655.585-1.455 1.126-.8.54-1.643 1.154-1.875 1.362-.23.208-.627.47-.879.582-.252.113-.458.248-.458.302 0 .054-.356.35-.792.659-.435.309-.829.606-.875.66-.046.056-.346.283-.666.505a57.71 57.71 0 0 0-1.834 1.37c-.687.53-1.325 1.02-1.416 1.088-.092.067-.552.44-1.023.83-.472.39-.922.713-1 .717-.079.005-.444.304-.81.666-.367.36-.745.657-.839.658-.094 0-.28.15-.412.335-.132.183-.33.333-.439.333-.11 0-.225.056-.255.125-.067.15-1.057.996-1.707 1.458-.258.184-.555.409-.66.5-.105.092-.64.542-1.19 1-.549.459-1.157.984-1.35 1.167-.194.183-.705.63-1.137.992-.432.362-.986.837-1.232 1.055-1.522 1.353-2.22 1.997-3.084 2.839-.535.52-1.047.927-1.138.902-.09-.026-.12.026-.067.114.055.088-.09.297-.323.463-.41.294-3.606 3.435-6.043 5.942-.664.683-1.208 1.325-1.208 1.426 0 .1-.106.184-.236.184s-.26.07-.292.157c-.1.282-5.01 5.843-5.16 5.843-.08 0-.145.074-.145.165 0 .187-.429.723-1.459 1.822-.389.416-.708.814-.708.885 0 .07-.13.26-.292.423-.16.162-.7.818-1.202 1.458a47.17 47.17 0 0 1-1.208 1.497c-.879.983-1.298 1.503-1.298 1.613 0 .067-.187.309-.417.538-.229.229-.416.48-.416.56 0 .078-.15.304-.335.5-.184.199-.527.644-.762.99-.235.348-.648.875-.918 1.172a7.72 7.72 0 0 0-.779 1.032c-.47.803-1.254 1.899-1.66 2.326-.209.218-.38.5-.38.625s-.075.227-.166.227a.168.168 0 0 0-.167.169c0 .173-1.257 2.012-1.735 2.539-.146.16-.226.292-.179.292.047 0-.084.252-.292.56-1.357 2.019-1.732 2.606-2.085 3.273-.219.413-.524.847-.678.966-.155.118-.264.268-.243.333.075.229-1.649 3.037-1.805 2.94-.087-.053-.138-.035-.113.04.025.076-.292.764-.704 1.53-.412.765-.855 1.59-.984 1.833-1.124 2.115-1.98 3.506-2.097 3.4-.076-.068-.085-.032-.019.082.065.114-.137.673-.453 1.25-1.868 3.412-6.172 11.94-6.373 12.626-.066.23-.433 1.054-.815 1.834-.382.779-.703 1.475-.714 1.546-.03.21-1.63 4.49-1.913 5.12a4.44 4.44 0 0 0-.223.584c-.046.21-1.9 5.912-2.032 6.25-.137.35-.14.36-.274.916-.407 1.683-.497 2.017-.582 2.167-.052.092-.11.268-.128.392-.13.857-1.298 5.119-1.415 5.164-.08.03-.103.125-.05.209.051.085.017.397-.076.694-.282.904-1.382 5.319-1.545 6.208-.085.458-.2.945-.259 1.083-.058.137-.124.41-.148.606-.024.197-.132.684-.24 1.084-.109.4-.23.952-.269 1.227a57.37 57.37 0 0 1-.305 1.75c-.128.687-.392 2.176-.586 3.307-.194 1.132-.419 2.23-.499 2.442-.08.21-.116.413-.08.449.036.036-.156 1.6-.427 3.475-.5 3.467-.813 6.796-1.229 13.077-.128 1.925-.284 3.65-.347 3.833-.093.268-.08.285.064.083.147-.204.181-.171.183.18.001.238-.04.475-.095.528-.147.148-.117 9.102.043 12.876.081 1.899.08 3.378-.004 3.438-.08.057-.07.132.023.166.092.035.213.912.267 1.95.055 1.04.133 1.944.174 2.01.041.067.118.792.172 1.612.054.82.285 2.878.514 4.574.23 1.695.446 3.42.481 3.833.035.412.102.862.15 1 .046.137.322 1.675.613 3.417.291 1.74.67 3.814.842 4.605.173.79.347 1.69.388 2 .203 1.538 2.412 10.207 4.18 16.395 2.896 10.148 7.414 20.947 12.966 30.997.556 1.006 1.011 1.925 1.011 2.04 0 .118.05.213.112.213s.322.393.577.875c.256.48.686 1.228.957 1.66.274.439.438.874.37.984-.076.122-.053.155.06.086.107-.066.413.28.747.849a98.965 98.965 0 0 0 1.636 2.619c.587.91 1.05 1.718 1.027 1.792-.023.074.023.135.103.135.172 0 1.044 1.284 1.092 1.608.018.125.311.553.651.952.34.398 1.376 1.766 2.303 3.04 2.066 2.84 4.277 5.74 6.721 8.816a204.293 204.293 0 0 1 2.346 2.995c.271.363.61.782.755.93.145.147 1.191 1.425 2.325 2.838 2.43 3.029 3.945 4.81 7.651 8.985 4.265 4.806 5.24 5.833 5.54 5.834.152 0 .64.158 1.082.348 2.81 1.209 5.162 1.75 6.85 1.576 4.033-.415 10.167-2.14 13.913-3.913l1.124-.533-.29-.4c-.16-.221-.412-.442-.559-.492-.448-.153-3.698-3.52-5.179-5.366-3.89-4.852-7.028-13.34-7.379-19.97a282.59 282.59 0 0 0-.183-3.082c-.35-5.35 1.31-15.207 3.577-21.225.695-1.845 3.971-8.62 4.687-9.691a101.4 101.4 0 0 0 1.69-2.75c2.731-4.574 8.808-12.924 10.776-14.807 6.801-6.508 8.848-8.075 17.362-13.291 1.237-.758 2.438-1.522 2.667-1.697.23-.175 1.182-.741 2.12-1.258 2.194-1.211 5.795-3.511 9.006-5.754 1.4-.977 3.137-2.152 3.862-2.61 1.716-1.084 3.674-2.407 4.095-2.767 6.24-5.332 6.822-7.162 3.7-11.618-.497-.708-.956-1.454-1.02-1.66-.066-.204-.18-.372-.256-.372-.075 0-.268-.281-.43-.625-.318-.674-.489-.914-1.96-2.751-1.754-2.186-2.346-2.856-3.949-4.463-3.726-3.735-8.996-7.494-10.505-7.494-.506 0-1.34-.342-1.83-.748-.138-.115-.888-.45-1.667-.746a143.397 143.397 0 0 1-4.083-1.673c-3.347-1.425-5.266-2.165-6.333-2.444a128.47 128.47 0 0 1-2-.544c-.642-.18-1.552-.33-2.024-.335-.47-.006-1.47-.127-2.222-.27-1.08-.204-1.547-.22-2.242-.076-.625.13-1.49.133-3 .01-1.169-.095-4.237-.248-6.818-.34-5.204-.185-6.144-.261-7.36-.596a21.648 21.648 0 0 0-2.084-.413c-2.154-.317-5.356-1.242-8.917-2.577-2.378-.891-7.395-3.566-11.149-5.944-4.807-3.045-6.337-4.663-7.498-7.93-.236-.665-.538-1.377-.67-1.583-.609-.943-1.007-7.881-.544-9.472.927-3.184 4.031-4.45 8.944-3.644 1.146.188 2.91.45 3.917.582 1.008.133 2.433.357 3.167.497 2.71.519 3.367.604 4.916.632 2.507.045 8.714-1.061 10.192-1.818.242-.124.805-.306 1.25-.405 1.901-.42 5.443-2.114 7.308-3.495.367-.271.93-.672 1.25-.891 2.122-1.447 6.665-7.458 8.271-10.944l.73-1.583c.835-1.816 2.048-5.548 2.491-7.667 2.196-10.495 4.447-17.2 7.813-23.273 1.207-2.178 1.66-2.912 3.518-5.704a75.802 75.802 0 0 1 2.22-3.21c.205-.285.678-.96 1.05-1.5 9.407-13.648 23.994-26.751 36.19-32.505 8.387-3.958 19.421-7.547 26.322-8.561 1.237-.182 3.988-.663 6.114-1.07 6.9-1.317 17.17-1.501 24.865-.445.55.075 2.087.264 3.416.42 1.33.155 2.904.39 3.5.52.596.132 1.646.32 2.334.422 7.393 1.08 20.46 4.145 27 6.333 9.19 3.073 19.218 8.71 28.19 15.845.791.63 1.516 1.145 1.61 1.145.31 0 .652-8.636.687-17.25.026-6.536.354-10.52 1.083-13.167.127-.458.281-1.202.344-1.654.246-1.764 2.388-6.795 3.336-7.834.853-.936 1.083-.73-3.12-2.813-3.832-1.898-5.709-2.782-5.91-2.782-.057 0-.505-.187-.995-.417-2.254-1.053-2.713-1.253-3.77-1.65a39.55 39.55 0 0 1-1.667-.66 59.931 59.931 0 0 0-2.205-.863 79.904 79.904 0 0 1-2.167-.837c-1.927-.824-4.108-1.573-4.577-1.573-.156 0-.333-.05-.393-.11-.2-.2-4.31-1.573-7.156-2.39-.62-.177-1.632-.473-2.25-.658-.618-.184-2.024-.57-3.124-.855-1.1-.286-2.337-.621-2.75-.744-1.99-.592-3.468-.948-5.916-1.424a365.469 365.469 0 0 1-3.334-.661c-.366-.078-2.054-.371-3.75-.652-1.696-.28-3.458-.58-3.916-.666a47.392 47.392 0 0 0-2.334-.338c-.825-.1-1.95-.25-2.5-.334a90.063 90.063 0 0 0-5.666-.67l-3.5-.311c-.825-.072-2.775-.15-4.334-.17-5.004-.066-9.11-.101-9.138-.077m94.262 26.107c-1.8 2.3-3.457 8.463-3.558 13.233-.038 1.782-.225 1.54 6.318 8.137 7.071 7.128 13.83 14.517 21.875 23.917 12.15 14.194 17.848 21.193 21.502 26.409l1.395 1.992.123-.576c.068-.317.243-1.588.39-2.826 1.077-9.16 3.186-14.652 7.386-19.247.488-.533.53-.644.334-.914l-1.002-1.398c-.873-1.22-6.419-8.2-7.238-9.107a217.516 217.516 0 0 1-3.399-3.843c-.817-.955-2.23-2.464-4.5-4.81-.412-.425-1.433-1.484-2.268-2.352-.834-.868-1.884-1.907-2.333-2.31a266.752 266.752 0 0 1-3.133-2.916c-2.816-2.656-2.416-2.308-8.516-7.42a90.582 90.582 0 0 0-2.666-2.134 355.759 355.759 0 0 1-2.75-2.122c-.78-.608-1.84-1.4-2.358-1.76-.517-.36-1.042-.753-1.166-.874-.125-.12-.75-.567-1.393-.993a165.62 165.62 0 0 1-2.833-1.947c-1.465-1.03-4.772-3.173-6.304-4.084a38.799 38.799 0 0 1-1.446-.937c-1.457-.987-2.273-1.358-2.46-1.118m-5.615 28.438c-.362.587-.58 8.895-.358 13.673l.15 3.242.946 1.175c.842 1.047 2.976 4.014 4.202 5.842 7.488 11.164 10.7 23.583 10.8 41.75l.012 2.25 2.37 2.52c15.43 16.41 26.357 28.689 31.156 35.01l1.415 1.863.111-5.113.195-8.947c.273-12.434.384-33.65.176-33.821-.119-.098-1.929-2.204-4.024-4.68-2.094-2.474-4.64-5.474-5.657-6.666a33194.596 33194.596 0 0 1-24.73-29.077c-17.882-21.05-16.488-19.467-16.764-19.021m68.386 32.983c-.343.356-2.299 3.523-2.855 4.622-.71 1.405-1.276 3.493-1.547 5.707-.143 1.166-.295 2.27-.337 2.453-.065.285-.502 3.856-1.08 8.833-.17 1.472-.506 28.176-.9 71.834-.143 15.675-.334 34.275-.427 41.333-.092 7.058-.245 19.733-.34 28.167-.095 8.433-.23 20.283-.3 26.333-.13 11.055-.126 11.388.15 10.895.357-.638 1.802-2.453 2.503-3.144.983-.97 2.542-3.112 2.415-3.318-.054-.088-.01-.214.096-.281.122-.075.151-.048.077.072-.066.106-.08.193-.032.193s.172-.16.276-.354c.154-.286.147-.327-.035-.214-.124.076.058-.234.404-.69.346-.454.788-1.126.982-1.492a11.05 11.05 0 0 1 1.691-2.334c.49-.514 1.781-2.603 1.781-2.88 0-.086.2-.448.445-.805.422-.615.78-1.215 2.145-3.593.325-.566.711-1.117.86-1.225.147-.108.214-.282.15-.388-.066-.106-.036-.192.067-.192.102 0 .148-.061.102-.135-.046-.075.067-.356.25-.625.184-.27.405-.663.491-.875.093-.23.234-.337.35-.266.12.075.146.046.07-.077-.067-.11.334-1.06.91-2.151a202.717 202.717 0 0 0 4.414-8.871c1.401-3.025 1.505-3.266 1.753-4.083.112-.367.258-.742.324-.834.067-.091.326-.71.576-1.375.251-.664.508-1.208.571-1.208.064 0 .132-.192.151-.428.02-.235.413-1.416.874-2.625.886-2.323 2.756-7.957 3.246-9.78.16-.596.438-1.554.62-2.13.18-.574.465-1.7.633-2.5.168-.8.542-2.28.83-3.287.288-1.008.56-2.021.604-2.25.045-.23.22-.871.391-1.426.17-.556.36-1.406.421-1.89.061-.482.223-1.266.36-1.74.135-.473.314-1.273.396-1.777.083-.505.265-1.48.406-2.167.857-4.19 1.376-7.176 1.701-9.792.163-1.306.36-2.375.436-2.375.076 0 .093-.074.037-.166-.057-.091.012-1.197.152-2.458.4-3.583.58-5.9.69-8.876.055-1.512.161-4.1.235-5.75.075-1.65.1-3.06.055-3.134-.045-.075-.15-2.362-.234-5.084-.083-2.721-.22-5.848-.302-6.948-.083-1.1-.197-2.638-.253-3.417-.097-1.334-.188-2.064-.595-4.792-.092-.618-.282-2.062-.42-3.208-.285-2.335-.659-4.832-.912-6.083a67.09 67.09 0 0 1-.333-1.834 50.927 50.927 0 0 0-.34-1.833c-.097-.458-.242-1.171-.324-1.583a94.287 94.287 0 0 0-.329-1.584c-.1-.458-.212-.983-.25-1.166a73.361 73.361 0 0 0-.59-2.584c-.084-.321-.302-1.221-.485-2a88.976 88.976 0 0 0-.493-2c-.088-.321-.32-1.183-.518-1.916-.197-.734-.729-2.574-1.18-4.09-.454-1.516-.825-2.848-.825-2.961 0-.112-.067-.334-.149-.493-.287-.556-1.684-4.626-1.684-4.905 0-.155-.075-.328-.167-.385-.09-.056-.166-.25-.166-.428 0-.18-.067-.456-.148-.616-.17-.335-.412-.94-.622-1.554-.18-.531-1.353-3.55-1.645-4.235l-.499-1.167a37.433 37.433 0 0 1-.417-1c-.708-1.811-1.165-2.894-1.758-4.166-.385-.825-.816-1.763-.957-2.084a204.862 204.862 0 0 0-2.286-4.833c-.164-.321-.67-1.296-1.126-2.167l-1.742-3.333a71.409 71.409 0 0 0-1.36-2.5c-.247-.413-.652-1.111-.902-1.552-1.577-2.781-3.033-5.235-3.24-5.461a2.091 2.091 0 0 1-.348-.541c-.132-.346-.289-.34-.639.022m-53.602 51.343c.051.196.025.356-.058.356s-.15.297-.15.66c0 2.302-4.565 16.33-6.68 20.535-1.919 3.81-5.553 9.188-8.61 12.74l-1.016 1.18 2.831 2.817c4.068 4.048 10.505 10.896 14.858 15.807a494.677 494.677 0 0 0 2.75 3.077c.614.679 1.442 1.616 1.842 2.084.4.467 1.404 1.553 2.232 2.412 1.253 1.3 2.99 3.249 6.811 7.646.547.63.844.67 1.454.2.244-.187 1.418-1.005 2.61-1.818 3.085-2.103 4.88-3.476 5.123-3.92 1.578-2.878 3.874-5.831 6.572-8.453.853-.83 4.366-2.967 4.875-2.967.41 0 .483-1.655.351-7.834l-.1-4.75-.812-1.394c-.86-1.48-.204-.745-22.926-25.676-5.546-6.085-10.442-11.483-10.88-11.996-.884-1.036-1.22-1.257-1.077-.706m-27.245 45.633c-2.945 2.73-6.33 5.535-8.967 7.429-2.892 2.078-10 6.656-11.58 7.458-.367.186-1.117.582-1.667.88-.55.3-1.923 1.03-3.05 1.625l-2.05 1.08 3.293.115c10.037.348 19.504 1.713 24.008 3.462.705.273 1.293.48 1.308.46.015-.02-.034-.561-.108-1.203-.17-1.487-.169-15 .004-19.167.072-1.741.11-3.191.085-3.222-.026-.031-.6.457-1.276 1.083m10.87 9.31c0 2.015-.049 6.625-.107 10.246l-.105 6.583 2.981 1.028c7.994 2.758 10.855 3.454 14.23 3.464 2.502.008 4.904-.44 4.051-.755-.639-.237-.318.132-18.526-21.32a167.046 167.046 0 0 0-2.217-2.58c-.3-.32-.308-.233-.308 3.335m50.616 67.828c-.074.275-.383 1.025-.686 1.667-1.08 2.287-1.252 2.682-1.693 3.917-1.49 4.166-4.812 11.449-6.69 14.666-2.164 3.705-3.697 6.103-6.396 10-1.427 2.06-3.533 4.528-5.209 6.1-.868.817-2.64 2.587-3.937 3.937l-2.358 2.452 5.968 3c9.981 5.019 10.134 5.105 10.47 5.9l.198.475 1.15-1.294c1.627-1.831 1.727-1.927 1.905-1.817.087.054.121 0 .075-.12-.075-.195 1.585-2.147 5.004-5.883.671-.733 1.47-1.708 1.777-2.166l.556-.834-.083-4.25c-.046-2.337-.027-11.15.042-19.583.133-16.28.13-16.994-.093-16.167m-91.949 96.25c-.344.11-.358.136-.084.148.184.008.446-.06.584-.148.292-.188.09-.188-.5 0" fill="#4c74fb" fill-rule="evenodd"/><path d="M186.394 41.25c-1.924.069-4.062.2-4.75.296-.689.094-1.89.217-2.669.274-2.352.173-6.726 1.146-13.75 3.06-9.389 2.56-10.823 2.976-12.083 3.506a80.54 80.54 0 0 1-2.167.85c-1.235.466-2.588 1.103-6.018 2.834-.456.23-.883.492-.949.583-.066.09-.83.53-1.7.976-3.19 1.635-6.429 4.13-12.75 9.82-2.456 2.212-6.974 6.964-8.646 9.094-.744.949-1.69 2.155-2.104 2.68-3.787 4.819-4.044 5.187-7.789 11.178-4.055 6.488-6.392 11.712-7.714 17.25l-.836 3.507a93.953 93.953 0 0 0-.735 3.583c-.229 1.234-.55 2.769-.714 3.41-.164.642-.274 1.362-.246 1.6l.052.434 2.033.105c3.267.17 5.517.787 7.85 2.152a47 47 0 0 0 2.1 1.153c1.252.629 5.05 4.653 6 6.356 1.45 2.603 1.581 3.29 1.568 8.2-.023 8.398-1.932 12.267-9.197 18.64l-1.639 1.439.896.96c4.16 4.465 3.067 11.469-2.212 14.182-.55.282-.858.517-.684.52.174.006.774.228 1.334.496s1.767.834 2.683 1.26c7.677 3.56 13.535 7.84 21.088 15.41 7.757 7.773 9.093 10.266 8.093 15.104-.48 2.325-4.705 7.759-6.353 8.172-.244.06-.368.158-.277.214.246.153-2.48 2.173-4.3 3.187-.872.485-3.122 1.796-5 2.914-4.129 2.457-5.812 3.362-9.084 4.886-9.158 4.266-19.839 11.19-23.98 15.547-2.349 2.47-8.104 9.897-10.19 13.15-4.073 6.349-7.948 17.814-8.602 25.454-.488 5.692-.187 13.729.615 16.42 1.984 6.668 7.32 15.37 10.145 16.55.311.13.59.302.622.38.057.146 4.867-2.496 5.64-3.097.23-.178.604-.381.833-.451.23-.07.54-.233.688-.364.823-.721 10.24-5.326 12.396-6.062 9.527-3.253 26.75-3.991 36.73-1.574 5.886 1.425 9.914 3.26 16.27 7.412 4.005 2.617 4.882 3.124 9.583 5.544 5.25 2.702 6.391 3.17 16.583 6.816 10.224 3.657 15.858 3.197 27.944-2.281 7.413-3.36 7.533-3.426 14.486-7.844 7.962-5.06 11.06-6.59 16.851-8.324 14.238-4.263 28.08-3.765 46.652 1.678 3.087.905 3.171.92 3.541.628.35-.276 1.13-.97 4.38-3.893.668-.602 1.534-1.502 1.924-2a40.94 40.94 0 0 1 1.62-1.906c2.88-3.157 5.528-7.082 7.875-11.667 2.013-3.931 4.868-10.171 6.328-13.833.365-.917.81-2.004.986-2.417.378-.883 1.877-5.28 2.33-6.833.173-.596.545-1.833.825-2.75 2.073-6.79 3.882-16.237 4.658-24.333.982-10.25 1.185-25.764.38-28.968-.11-.441-.193-.352-1.449 1.58-2.123 3.266-4.168 5.205-7.914 7.505-.963.59-2.163 1.34-2.667 1.665-.504.325-1.666.973-2.583 1.44-.917.469-2.154 1.125-2.75 1.459-4.105 2.3-10.477 3.373-15.833 2.663-5.323-.705-8.913-1.432-11.167-2.26-.779-.286-1.605-.55-1.836-.586-.23-.036-1.993-.588-3.916-1.227-1.924-.638-4.698-1.43-6.165-1.758-4.644-1.04-5.423-1.237-9.674-2.443-5.175-1.468-7.536-1.947-10.409-2.11-3.394-.192-8.582-.147-10.083.087-.734.115-2.796.32-4.584.457-8.743.67-9.38.557-10.079-1.792-.46-1.554-.156-3.828.583-4.346.18-.126.285-.273.232-.325-.156-.156 1.52-1.396 2.555-1.89.527-.252 1.078-.558 1.223-.681.145-.122 1.215-.627 2.378-1.123 1.162-.496 2.806-1.31 3.653-1.81.846-.5 1.876-1.1 2.29-1.331 13.253-7.45 18.165-10.278 18.165-10.46 0-.077.544-.416 1.21-.754 2.071-1.052 6.614-4.3 8.57-6.126 6.988-6.53 14.2-18 18.662-29.682 3.474-9.097 4.185-23.033 1.822-35.718-.218-1.173-.449-2.62-.513-3.216-.368-3.435-2.516-11.492-4.198-15.75-1.898-4.804-4.858-10.526-6.835-13.216a644.373 644.373 0 0 1-1.583-2.168c-9.168-12.616-22.446-22.343-39.759-29.126-9.265-3.63-28.043-7.631-38.292-8.16a129.57 129.57 0 0 1-2.417-.141c-.32-.027-2.157.008-4.08.076m-9.003 61.723c5.068.502 9.083 2.68 9.083 4.928 0 2.848-5.139 4.169-15.125 3.886-4.406-.125-4.893.236-2.02 1.498.514.227.983.489 1.04.582.058.093.65.448 1.313.789 7.027 3.606 7.274 8.597.64 12.88l-.598.386.5-.1c.275-.053 2.075-.142 4-.197 8.836-.25 14.366 2.63 12.183 6.345-1.492 2.539-5.43 3.029-21.746 2.702-3.06-.061-5.62-.146-5.689-.19-.069-.041-.678-.154-1.354-.25-4.3-.607-5.587-3.698-3.125-7.506 1.445-2.236 5.091-5.29 7.98-6.682 1.538-.742 1.511-.933-.267-1.882-2.216-1.183-6.355-5.301-7.466-7.427-2.538-4.861 1.413-8.628 9.984-9.52 1.008-.104 2.246-.244 2.75-.311 1.57-.206 5.478-.172 7.917.069m-73.92 65.507c.22.266 1.183.503 1.536.379.262-.093-.936-.624-1.407-.624-.275 0-.298.043-.13.245" fill="#f4fb1c" fill-rule="evenodd"/><path d="M178.43.188c.295.037.82.038 1.166.002s.104-.067-.538-.067c-.64-.001-.924.028-.628.065M156.683 2.35c.161.04.423.04.584 0 .16-.042.03-.077-.292-.077-.32 0-.452.035-.292.077m-70.49 27.147-.468.429.542-.377c.298-.207.541-.4.541-.43 0-.131-.184-.018-.615.378m182.654 7.238c0 .32.034.452.076.29.042-.16.042-.422 0-.582-.042-.16-.076-.03-.076.292m-.15 3.083c0 .642.03.884.066.538a6.222 6.222 0 0 0 0-1.167c-.038-.296-.067-.013-.067.629m10.818.083c0 .32.034.452.076.292.042-.16.042-.423 0-.583-.042-.161-.076-.03-.076.29m2.711 4c.544.55 1.027 1 1.073 1 .046 0-.362-.45-.906-1-.545-.55-1.027-1-1.073-1-.046 0 .362.45.906 1M60.381 49.61l-.489.54.541-.488c.505-.456.62-.594.49-.594-.029 0-.273.244-.542.542m208.136 1.208c.002.367.036.497.076.29.04-.208.038-.508-.003-.667-.042-.16-.075.01-.073.377m20.708.083c.358.367.688.667.734.667.046 0-.209-.3-.567-.667-.358-.366-.689-.666-.735-.666-.045 0 .21.3.568.666M57.652 52.076c-.499.454-.834.825-.744.825.09 0 .532-.375.984-.833 1.045-1.062.93-1.058-.24.008m234.65 2.034c.69.736.84.868.84.743 0-.027-.357-.383-.792-.792l-.792-.743.743.792m1.674 1.843c0 .029.244.273.542.542l.541.49-.489-.542c-.456-.505-.594-.618-.594-.49M277.19 57.15c.002.459.034.626.072.373a2.933 2.933 0 0 0-.002-.833c-.04-.205-.07.002-.07.46m-.152 3.667c.001 1.008.028 1.399.061.869a16.72 16.72 0 0 0 0-1.833c-.034-.478-.06-.044-.06.964m-.015 4.833c.001.459.033.626.072.373a2.968 2.968 0 0 0-.003-.833c-.039-.205-.07.002-.069.46m-232.308.125-.49.542.542-.49c.505-.456.618-.593.49-.593-.03 0-.273.243-.542.54m232.484 3.21c0 .733.03 1.012.065.62a8.344 8.344 0 0 0 0-1.333c-.037-.341-.066-.021-.065.713M26.312 90.86a26.73 26.73 0 0 1-.945 1.416c-.489.67-.729 1.38-.318.942.287-.308 1.944-3.15 1.836-3.15-.046 0-.304.356-.573.792m-3.61 6.166c-.185.252-.993 1.717-1.796 3.256-.804 1.538-1.71 3.167-2.015 3.62-.305.453-.607 1.07-.67 1.37-.158.734-.094.644.924-1.287 1.366-2.593 3.164-5.928 3.617-6.71.468-.804.438-.928-.06-.25m-5.31 10.043c-.143.275-.22.5-.176.5.046 0 .2-.225.342-.5.143-.275.221-.5.176-.5-.046 0-.2.225-.342.5m-.76 1.45c-.212.44-.435.837-.497.883-.214.158-.66 1.15-.65 1.45.003.165.383-.44.842-1.342.46-.903.802-1.676.761-1.717-.04-.041-.247.285-.457.726m-2.876 6.14c-.392.822-.337.962.073.186.186-.352.308-.67.272-.706-.036-.036-.19.198-.345.52m315.125 8.077c0 2.062.024 2.906.053 1.875a80.83 80.83 0 0 0 0-3.75c-.029-1.032-.053-.188-.053 1.875m-32.572 3.083c.498.504.943.917.99.917.045 0-.325-.413-.823-.917-.498-.504-.943-.917-.989-.917-.045 0 .324.413.822.917m43.402 2.333c0 1.559.025 2.219.056 1.467.03-.752.03-2.027 0-2.833-.03-.807-.056-.192-.056 1.366m-40.152 1.084c.358.366.69.666.735.666.045 0-.21-.3-.568-.666-.358-.367-.688-.667-.734-.667-.046 0 .21.3.567.667m2.084 2.25c.311.32.603.583.648.583.046 0-.17-.263-.482-.583-.31-.321-.603-.584-.648-.584-.046 0 .171.263.482.584m2.166 2.333c.311.32.603.583.65.583.045 0-.172-.262-.483-.583-.31-.321-.603-.583-.649-.583-.046 0 .171.262.482.583m-297.3 2.094c-.12.192-.252.736-.294 1.21l-.076.863.335-1.084c.363-1.177.375-1.535.034-.99m322.205 3.157c0 1.97.025 2.777.054 1.792.03-.986.03-2.598 0-3.584-.029-.985-.054-.18-.054 1.792M5.404 140.497c-.062.244-.08.476-.04.515.04.039.121-.128.182-.373.062-.244.08-.476.04-.515-.039-.04-.12.128-.182.373m288.571-.21c0 .029.244.272.542.54l.541.49-.489-.541c-.456-.505-.594-.618-.594-.49m45.57 3.365c0 1.834.024 2.606.054 1.718.03-.89.03-2.39 0-3.334-.029-.944-.054-.217-.054 1.616M5.001 142.094c-.109.47-.168.888-.13.925.036.037.158-.316.271-.784.112-.47.171-.885.13-.925-.04-.041-.162.312-.27.784m323.521 9.224c.001.458.033.626.072.373a2.975 2.975 0 0 0-.003-.834c-.039-.205-.07.003-.069.46M2.6 152.582c-.26.863-.59 3.828-.408 3.654.134-.128.82-4.14.746-4.362-.036-.108-.188.21-.338.708m325.764 2.487c0 .688.03.969.066.625a7.247 7.247 0 0 0 0-1.25c-.036-.344-.066-.062-.066.625m11.015 3.833c0 1.88.024 2.648.054 1.709.03-.94.03-2.477 0-3.417s-.054-.171-.054 1.708M1.646 158.52c-.208.809-.45 3.7-.299 3.548.121-.121.673-4.177.582-4.27-.043-.041-.17.283-.283.722m310.996 2.267c0 .029.243.272.541.54l.542.49-.49-.541c-.456-.505-.593-.618-.593-.49M1.184 162.819c.002.367.036.497.076.29a1.834 1.834 0 0 0-.004-.667c-.042-.16-.074.01-.072.377m-.596 4.386c-.17 1.028-.3 3.064-.35 5.46-.064 3.2-.052 3.496.075 1.82.083-1.1.27-3.527.415-5.393.296-3.807.26-4.297-.14-1.887m318.887 1.083c0 .029.244.272.542.54l.541.49-.489-.541c-.456-.505-.594-.618-.594-.49m19.74 7.865c0 2.2.022 3.077.051 1.949a91.955 91.955 0 0 0 0-4c-.029-1.072-.053-.15-.052 2.05M.016 177.679c-.026.353.023.537.125.474.194-.12.227-.861.042-.975-.068-.042-.144.183-.167.5m.025 4.558c0 1.329.026 1.873.058 1.208a31.42 31.42 0 0 0 0-2.417c-.032-.664-.058-.12-.058 1.209m282.517-1c.545.55 1.027 1 1.073 1 .046 0-.362-.45-.906-1s-1.027-1-1.073-1c-.046 0 .362.45.906 1m45.652 3c0 1.604.025 2.26.056 1.458.03-.802.03-2.115 0-2.917-.03-.802-.056-.145-.056 1.459m-42.402.416c.311.32.603.584.65.584.045 0-.172-.263-.483-.584-.31-.321-.603-.583-.649-.583-.046 0 .171.262.482.583m2.167 2.334c.311.32.603.583.65.583.045 0-.172-.263-.483-.583-.31-.321-.603-.584-.649-.584-.046 0 .171.263.482.584m-287.957 2c-.006 1.1.047 2.412.117 2.916.173 1.256.184-2.072.012-3.75-.108-1.058-.12-.98-.129.834m328.177.75c0 .595.03.839.067.54a5.297 5.297 0 0 0 0-1.082c-.037-.298-.067-.054-.067.542m10.853 3.416c0 2.475.023 3.51.051 2.302.03-1.21.03-3.234.001-4.5-.029-1.266-.052-.277-.052 2.198m-72.842-2.166c.001 1.19.027 1.657.06 1.034.032-.622.031-1.597 0-2.166-.034-.57-.06-.06-.06 1.132m24.936-.532c0 .029.243.273.541.542l.542.49-.49-.542c-.456-.505-.593-.618-.593-.49m5.5 6.167c0 .029.243.273.541.542l.542.489-.49-.541c-.456-.505-.593-.62-.593-.49m-296.128.615c0 .32.034.452.076.29.042-.16.042-.422 0-.582-.042-.16-.076-.03-.076.292m.17 1.916c.002.367.036.497.076.29a1.835 1.835 0 0 0-.004-.667c-.042-.16-.074.01-.072.377m300.728 2.834c1.27 1.466 2.94 3.304 3.71 4.083l1.398 1.417-1.075-1.25c-2.317-2.695-3.769-4.306-5.029-5.584-.954-.967-.68-.601.996 1.334M.85 200.818c.002.367.036.497.076.29.04-.208.04-.508-.003-.667-.042-.16-.074.01-.073.377m.17 1.75c0 .412.033.58.073.375a2.418 2.418 0 0 0 0-.75c-.04-.206-.073-.037-.073.375m.14 1.434c-.019.699.603 5.076.74 5.213.12.12.082-.236-.332-3.147-.215-1.513-.399-2.442-.409-2.066m337.725 7.149c0 3.575.022 5.014.05 3.198a260.8 260.8 0 0 0 0-6.5c-.028-1.76-.05-.273-.05 3.302m-63.298-3.46c-.076 1.03-.208 1.917-.292 1.969-.253.156-.172.698.122.81.406.157.406.16.356-2.337l-.047-2.315-.139 1.874m-9.278-1.168c0 .25.49.817.495.574.003-.121-.107-.333-.245-.47-.137-.138-.25-.184-.25-.104M1.99 209.838c-.008.194.09.982.22 1.75.128.768.283 1.772.343 2.23.13.984.417 2.144.508 2.053.035-.035-.188-1.487-.496-3.225-.307-1.74-.566-3.002-.575-2.808m369 4.118c-.116.535-.177 1.005-.136 1.047.125.125.491-1.373.417-1.707-.038-.171-.164.126-.28.66M3.328 217.568c-.018.44.391 2.134.554 2.297.104.104-.018-.584-.334-1.88-.126-.513-.21-.673-.22-.417m366.73.833c-.064.288-.08.559-.039.6.043.044.126-.161.184-.454.14-.695.004-.83-.146-.146m-31.343 7.417c0 2.567.023 3.593.051 2.282.03-1.312.028-3.412 0-4.667s-.05-.182-.05 2.385m-333.639.513c-.14.367.013.522.267.268.14-.14.146-.25.02-.376s-.21-.094-.287.108m362.577 1.929c-.394 1.709-.368 2.17.038.688.332-1.211.513-2.213.4-2.213-.048 0-.245.686-.438 1.525m-361.846.225c0 .574.398 2.23.517 2.156.083-.051.15-.001.15.112 0 .112.036.168.08.124.086-.086-.509-2.293-.658-2.443-.049-.048-.089-.026-.089.05m.954 3.519c-.156.156.053.928.324 1.2.27.268.268.286.004-.6-.118-.392-.265-.662-.328-.6m359.991.023c-.174.29-1.117 3.925-1.039 4.004.11.108.137.02.738-2.254.448-1.697.52-2.114.301-1.75M338.54 238.4c0 1.238.027 1.744.06 1.125a26.38 26.38 0 0 0 0-2.25c-.033-.618-.06-.112-.06 1.125m26.69-1.175c-.06.1-.143.348-.182.553l-.15.777c-.129.64.166.17.394-.63.2-.7.167-1.07-.062-.7m-356.794.915a.93.93 0 0 0 .23.787c.17.197.31.434.31.527 0 .093.031.137.07.097.04-.04-.063-.47-.228-.956-.26-.771-.31-.83-.382-.455m354.04 6.677c-.203.608-.323 1.15-.268 1.205.055.055.1 0 .1-.122s.04-.184.085-.137c.047.047-.028.406-.166.799-.297.84-.297.838-.097.838.143 0 .31-.343.363-.75.012-.091.084-.33.16-.53.088-.231.072-.386-.042-.424-.124-.042-.098-.346.084-.964.378-1.29.217-1.228-.22.085m-.667 1.774c0 .044-.184.55-.41 1.126-.264.673-.326.977-.176.852.277-.23.832-1.812.687-1.957-.056-.055-.1-.065-.1-.021m-349.834 1.774c0 .429.3 1.146.702 1.683.391.522.378.442-.135-.827-.502-1.24-.567-1.337-.567-.856m348.658 1.142c-.092.242-.136.47-.099.508.038.038.15-.16.246-.44.217-.621.086-.682-.147-.068m-22.257 3.81c0 1.467.026 2.044.056 1.284.031-.761.031-1.961 0-2.667-.03-.706-.056-.084-.056 1.383m-324.557-.556c-.01.296 1.032 2.834 1.394 3.392.12.184.27.559.332.833.062.274.291.628.51.787.33.242.224-.072-.643-1.916l-1.31-2.79c-.15-.321-.277-.46-.283-.306m344.757 3.403c-.062.163-.025.239.097.198.25-.083.386-.462.167-.462-.089 0-.208.119-.264.264m-31.268 3.153c-.11.333-.162.643-.116.689.046.046.173-.19.283-.522.11-.333.162-.644.117-.69-.046-.045-.174.19-.284.523m28.506 1.736c-.113.273-.17.595-.129.714.042.119.16-.08.262-.441.226-.798.15-.955-.133-.273m-28.937 2.764c0 1.558.024 2.218.055 1.467.031-.752.031-2.027.001-2.834-.03-.806-.056-.191-.056 1.367m-307.735-.048c0 .14.124.36.277.486.254.209.26.193.061-.188-.29-.56-.338-.601-.338-.298m.833 1.585c0 .097.154.353.343.57l.343.393-.292-.5c-.386-.658-.394-.668-.394-.463m318.236 4.38c0 1.787.025 2.518.055 1.625.03-.894.03-2.357 0-3.25-.03-.894-.055-.163-.055 1.625M21.704 268.47c.07.192.031.373-.096.45-.139.087-.089.123.148.105.307-.023.334-.077.184-.368-.244-.47-.376-.574-.236-.187m.468.847c.118.357.98 1.917 1.06 1.917.044 0-.104-.357-.33-.792-.412-.79-.835-1.442-.73-1.125m1.726 3.167c.762 1.432 2.597 4.25 2.77 4.25.068 0-.16-.432-.509-.96a95.564 95.564 0 0 1-1.59-2.54c-1.179-1.951-1.5-2.31-.67-.75m302.79 9.5.013 10.666.158-10.135c.107-6.885.102-10.306-.014-10.667-.12-.373-.166 2.638-.157 10.136m22.758-10.093c-.192.338-.212.463-.064.406.238-.091.655-.897.463-.896-.066 0-.246.22-.399.49m-1.933 3.552c-.725 1.197-.687 1.422.055.32.327-.484.57-.955.54-1.046-.03-.09-.298.237-.595.726m-1.642 1.663c-.699 1.025-.822 1.28-.344.71.457-.543 1.01-1.416.895-1.416-.039 0-.287.318-.55.706m-317.657 2.075c.141.293.34.583.441.646.224.138-.017-.337-.428-.843-.25-.31-.252-.296-.013.197m1.19 1.803c1.476 2.435 4.034 6 4.52 6.3.118.073.216.216.216.318 0 .262 2.304 3.298 2.503 3.298.09 0 .167.094.172.209.005.114.422.695.928 1.29 1.005 1.187 3.862 4.729 4.956 6.145.38.492 1.133 1.429 1.673 2.084.54.654 1.17 1.47 1.397 1.814.228.344.52.625.647.625.128 0 .3.177.382.394.128.338.478.606.792.606.05 0-.317-.47-.816-1.042-.498-.573-1.832-2.198-2.965-3.612-1.133-1.413-2.178-2.691-2.323-2.838a12.397 12.397 0 0 1-.755-.93 204.026 204.026 0 0 0-2.349-2.995c-1.922-2.414-5.743-7.441-7.539-9.916-.565-.78-1.188-1.604-1.385-1.834l-.358-.416.303.5m308.636 3.5c0 1.283.026 1.786.058 1.117.032-.668.031-1.718 0-2.333-.033-.615-.059-.068-.058 1.216m-.733 4.833c-.115.139-.133.25-.04.25.091 0 .26-.113.374-.25.115-.14.133-.25.04-.25-.09 0-.26.112-.374.25m-217.25 6.939c-10.05.604-15.38 1.986-23.283 6.039-4.742 2.433-4.96 2.549-5.279 2.828a2.146 2.146 0 0 1-.688.36 2.405 2.405 0 0 0-.75.412c-.183.159-.933.614-1.666 1.012-.734.397-2.527 1.427-3.985 2.288-6.114 3.609-10.424 5.319-16.237 6.439-4.466.86-6.008.699-10.084-1.054-1.672-.72-1.843-.41-.466.845.54.49 1.578 1.642 2.311 2.559 1.34 1.676 1.988 2.359 2.186 2.303.06-.017.483.327.941.763a23.62 23.62 0 0 0 1.584 1.365c.412.314.975.769 1.25 1.01 1.188 1.04 2.682 2.26 3.315 2.707.375.265.758.576.85.69.227.28 6.196 4.73 6.945 5.176.167.1.436.297.597.437.161.14 1.043.766 1.96 1.39.916.623 1.691 1.195 1.722 1.27a.24.24 0 0 0 .208.139c.085 0 .922.512 1.861 1.138 2.088 1.39 5.446 3.528 5.543 3.528.04 0 .593.338 1.231.75.638.413 1.197.75 1.242.75.046 0 .745.384 1.554.854.81.469 1.922 1.095 2.472 1.392.55.296 1.337.727 1.75.959.412.23 1.462.792 2.333 1.247.871.454 1.733.91 1.917 1.013.458.259 6.241 3.035 6.32 3.035.035 0 .69.294 1.455.653.765.359 1.88.849 2.475 1.09.596.242 1.233.505 1.416.586.338.15 2.155.903 2.917 1.209.23.093.547.234.706.315.16.08.37.147.466.147.098 0 .488.15.867.334.38.183.774.333.876.333.103 0 .557.179 1.011.398.453.218.974.438 1.157.487.184.05 1.31.436 2.5.857 2.545.9 4.033 1.398 5.75 1.919.688.208 1.4.438 1.584.51.405.163 1.76.576 2.666.815.367.097 1.148.327 1.736.512.588.184 1.24.335 1.45.335.207 0 .424.075.481.167.057.092.252.167.433.167.182 0 .796.139 1.365.309.57.17 1.598.436 2.285.59 1.255.28 1.83.42 3.103.754.377.099.917.18 1.2.18.28 0 .552.067.603.149.051.082.374.19.718.239.345.05.964.167 1.376.26.95.214 3.261.679 3.917.788.275.046 1.175.198 2 .339 3.272.559 4.078.68 6.917 1.039.687.086 1.362.2 1.5.254.137.054 1.45.207 2.916.34a99 99 0 0 1 4.417.505c1.535.227 5.254.629 7.75.836.458.038 1.068.117 1.355.177.287.059.561.044.61-.034.047-.078 1.5-.08 3.227-.002 7.36.328 10.491.168 17.391-.89 1.146-.175 2.76-.4 3.584-.497 3.916-.467 13.518-2.215 18.916-3.444 19.731-4.492 33.55-9.157 46.07-15.554 1.957-1 3.446-1.663 3.626-1.616.167.044.27.022.225-.05-.159-.257 2.306-1.834 2.526-1.615.158.158.72-.214.72-.477 0-.132.206-.286.458-.341.796-.173 1.375-.44 1.38-.635.005-.166 2.657-1.71 6.731-3.918 3.773-2.045 9.31-5.6 12.598-8.09 2.577-1.951 4.527-3.46 4.85-3.754.154-.142.94-.784 1.745-1.426 5.936-4.735 14.936-12.958 12.613-11.525-.13.08-.208.036-.208-.122 0-.766-.548-1.084-10.5-6.087-9.175-4.612-10.189-5.034-16.669-6.933-18.49-5.42-32.46-5.92-46.634-1.673-5.794 1.736-8.89 3.266-16.85 8.324-6.954 4.418-7.074 4.484-14.487 7.844-12.086 5.478-17.72 5.938-27.944 2.28-10.192-3.644-11.333-4.113-16.583-6.815-4.7-2.42-5.578-2.927-9.583-5.544-11.41-7.454-20.63-9.617-36.834-8.643m206.622 3.81c0 .322.035.453.077.293a1.402 1.402 0 0 0 0-.584c-.042-.16-.077-.03-.077.292m-.494 2.704c-.094.117-.218.37-.277.56-.117.383-.934 1.227-.934.965 0-.09.056-.237.125-.328.328-.436-1.41 1.427-3.174 3.4-1.659 1.856-2.6 3.179-1.239 1.74.24-.251.532-.542.653-.646.12-.103.344-.328.498-.5.154-.171.38-.405.5-.518.398-.374.898-.947 1.637-1.877.967-1.217 1.075-1.323.931-.917-.197.55.88-.563 1.263-1.307.33-.64.34-.974.017-.572m-6.617 7.284c-.165.183-.238.413-.168.527.071.114.056.16-.033.105-.212-.131-.379-.005-1.155.865-.683.767-.306.719.416-.053.222-.238.507-.432.634-.432.216 0 .807-1.127.665-1.27-.036-.036-.198.08-.359.258m-266.429.508c.097.18.343.416.547.522.31.16.29.105-.118-.33-.567-.604-.676-.653-.429-.192m1.835 1.889c0 .029.244.273.542.542l.541.49-.489-.542c-.456-.505-.594-.618-.594-.49m2.478 3.23c.201.387.496.633.616.513.04-.04-.126-.253-.367-.475-.418-.384-.43-.386-.249-.037m4.648 4.8c.203.376.84 1.084.975 1.084.13 0-.539-.908-.87-1.181-.258-.213-.268-.204-.105.098M235.142 357.9c-.138.089-.4.156-.584.148-.274-.012-.26-.038.084-.148.59-.188.792-.188.5 0" fill="#8cd3fb" fill-rule="evenodd"/><path d="M190.12-4.104c-.243.073-1.105.109-1.918.08-1.56-.055-3.932.228-3.792.454.045.074-.03.09-.167.038-.138-.052-1.173.057-2.3.243-3.16.523-14.876 2.18-15.602 2.207-1.244.048.89.299 2.551.3 1.513.002 6.868-.608 7.916-.902.138-.038 1.263-.186 2.5-.328 1.238-.142 3.737-.563 5.555-.936l3.305-.677 2.112.592c1.161.326 2.75.71 3.528.855.78.145 2.692.524 4.25.84 2.782.569 4.234.679 5.917.453l.75-.101-1.333-.271c-.94-.191-1.405-.22-1.574-.098-.17.123-.208.12-.129-.013.114-.191-1.09-.487-5.047-1.24-1.57-.297-4.715-1.126-5.834-1.537-.137-.05-.447-.032-.689.04m1.064 4.129c.436.034 1.148.034 1.584 0 .435-.034.08-.063-.792-.063-.87 0-1.227.029-.792.063m82.53 21.37c-.6.692-1.586 2.308-1.985 3.257-.695 1.654-1.43 3.864-1.65 4.965l-.599 2.952c-.53 2.605-.659 4.633-.84 13.25-.256 12.098-.362 15.31-.516 15.609-.11.215.101.473.98 1.194.617.505 1.347 1.172 1.622 1.48a166.85 166.85 0 0 0 2.316 2.473 101.286 101.286 0 0 1 2.913 3.2c1.325 1.556 1.325 1.556 1.171-1.623-.262-5.39-.068-12.262.383-13.522l.187-.523.881.953c.917.989 1.616 1.808 19.577 22.926l20.891 24.562 9.977 11.73-.11 11.27c-.189 19.189-.276 24.809-.44 28.52a185.209 185.209 0 0 0-.17 5.75l-.01 2.168-.367-.486c-4.083-5.426-11.27-13.757-20.936-24.264-4.939-5.37-8.247-8.932-9.835-10.588a163.241 163.241 0 0 1-2.798-2.992c-.57-.634-1.074-1.115-1.12-1.07-.046.047-.09 2.18-.099 4.742-.01 3.289-.11 5.609-.339 7.896-.316 3.162-.316 3.247-.012 3.584l11.533 12.678c26.282 28.885 23.542 25.545 23.842 29.059.093 1.09.146 3.949.117 6.35l-.052 4.366.441.088c.461.092 1.09 1.792 2.79 7.553.837 2.834 1.96 10.417 2.344 15.834.554 7.813-.237 21.233-1.66 28.14a74.48 74.48 0 0 1-1.178 4.75 362.439 362.439 0 0 0-1.406 5.026c-.397 1.467-.957 3.304-1.245 4.084-.289.779-.592 1.736-.676 2.127-.083.39-.219.84-.303 1-.339.647-.387 2.239-.446 14.99-.034 7.315-.104 16.32-.157 20.012l-.095 6.712.38-.212c.207-.117.51-.318.67-.447.171-.137.291-.161.291-.056 0 .248.55.143.638-.122.05-.147-.002-.172-.156-.077-.454.28 1.081-1.63 2.055-2.558 1.264-1.205 2.98-3.337 4.955-6.161.85-1.215 1.616-2.208 1.703-2.208.087 0 .115-.07.062-.156-.053-.085.043-.254.213-.375.557-.395.567-.686.781-22.22.05-5.041.164-15.58.253-23.416.19-16.643.4-36.9.746-71.417.665-66.323.533-61.665 2.08-73 .688-5.05 2.342-9.22 4.598-11.592.502-.528.508-.733.03-1.068-.206-.145-.346-.305-.31-.357.081-.122-3.25-5.213-4.574-6.99-.563-.754-1.194-1.647-1.4-1.983-.475-.766-.48-.761-2.53 1.959-3.219 4.269-4.845 9.058-5.81 17.105-.488 4.07-.42 3.953-1.42 2.485-7.185-10.526-31.616-38.896-44.83-52.06-2.486-2.474-4.76-4.853-5.057-5.287l-.538-.788.172-2.43c.311-4.37 1.182-7.728 2.805-10.81l.808-1.536-.845-.488c-.465-.27-1.258-.72-1.762-1.003l-1.709-.961a101.947 101.947 0 0 0-3.458-1.89l-1.25-.652-.512.59M374.747 149.61c-.258.96-.077 3.685.47 7.109 1.677 10.482 2.132 14.4 2.112 18.182-.054 9.995-.663 19.485-1.796 28a164.968 164.968 0 0 1-.65 4.48c-.268 1.553-.324 4.02-.092 4.02.168 0 .584-2.155.444-2.296-.05-.05-.024-.172.057-.272.081-.1.38-1.832.665-3.848.285-2.017.594-4.192.687-4.834.093-.641.245-2.141.338-3.333.094-1.192.245-2.83.335-3.64.091-.81.202-2.338.247-3.396.046-1.057.118-1.978.161-2.047.227-.367.38-8.877.207-11.5a865.04 865.04 0 0 1-.374-6.334c-.136-2.43-.323-4.866-.414-5.416a38.175 38.175 0 0 1-.168-1.052c0-.028-.076-.005-.168.052-.09.056-.166.029-.166-.06 0-.09.085-.191.19-.226.298-.1-.302-3.963-.662-4.26-.153-.126-.185-.182-.07-.124.281.143-.32-4.803-.619-5.08-.049-.046-.112-.494-.14-.996-.027-.501-.102-.951-.166-1-.114-.085-.189-.868-.189-1.963 0-.631-.097-.698-.239-.166M-.482 154.4c-.109.506-.352 1.668-.54 2.585-.188.916-.499 2.32-.69 3.122-.193.8-.306 1.573-.25 1.717.055.144.038.223-.037.176-.166-.102-.579 2.014-.438 2.242.054.088.031.159-.05.159-.32 0-.588 2.31-.363 3.114.268.956.381.75.731-1.317.151-.891.345-1.828.431-2.083.086-.255.267-1.101.402-1.88.135-.78.433-2.167.661-3.084.575-2.301.63-2.804.477-4.333l-.134-1.333-.2.916m273.04 23.302c-1.74 1.719-3.704 3.557-4.36 4.085-1.91 1.537-1.778 1.03-1.912 7.363-.237 11.296-.136 17.272.3 17.554a.747.747 0 0 1 .246.34c.184.576 8.31 3.538 8.31 3.03 0-.177.064-.36.142-.41.282-.173.562-5.382.667-12.401l.107-7.141 3.271 3.847a31055.3 31055.3 0 0 1 9.636 11.348c8.667 10.212 7.815 9.506 10.154 8.413.583-.273 1.122-.496 1.198-.496.16 0 4.2-2.335 4.325-2.5.166-.22 2.164-1.508 2.588-1.67l.435-.164-.356-.453c-.195-.25-1.082-1.205-1.97-2.124-.887-.92-3.22-3.51-5.183-5.756-5.529-6.325-8.413-9.546-12.83-14.332-3.539-3.834-11.205-11.668-11.412-11.663-.104.002-1.614 1.41-3.356 3.13m-276.29 22.532c-.265 1.966-.204 2.259.582 2.783.76.507 1.058 1.17 1.465 3.27.177.909.208.955.48.709.16-.144.448-.262.642-.262.355 0 .65-.277.478-.45-.103-.102-.727-.118-1.093-.026-.165.04-.297-.215-.442-.858-.424-1.886-1.048-3-1.68-3-.153 0-.226-.428-.26-1.541-.046-1.474-.054-1.501-.172-.625m8.207 24.168c0 .109.124.62.276 1.139.294 1.005.514.923.291-.108a7.178 7.178 0 0 1-.143-.852c-.01-.285-.424-.46-.424-.18m.667 2.438c0 .058.085.392.19.742.216.719.64 1.038.514.387-.042-.22-.147-.401-.234-.401-.086 0-.115-.068-.063-.152.12-.195-.064-.681-.258-.681-.082 0-.149.047-.149.105m1.233 4.297c.048.359.174.734.278.833.142.135.16.033.07-.402-.182-.886-.456-1.224-.348-.431m.6 2.056c0 .147 1.126 4.269 1.332 4.875l.142.417.013-.45c.007-.247-.168-1.035-.389-1.75a112.09 112.09 0 0 1-.67-2.26c-.238-.84-.428-1.211-.428-.832m376.17 4.722a1.1 1.1 0 0 0 .166.486c.131.199.154.174.113-.12-.059-.427-.284-.72-.28-.366m-374.477 1.61c.091.345.303 1.039.471 1.543.17.504.504 1.554.744 2.333.241.779.503 1.567.583 1.75.08.184.305.746.503 1.25.483 1.236.991 2.153 1 1.803.004-.154-.225-.904-.508-1.666a191.96 191.96 0 0 1-1.34-3.803c-1.197-3.503-1.324-3.834-1.479-3.834-.076 0-.065.282.026.625m3.963 10.75c.558 1.423 1.167 2.654 1.172 2.37.006-.34-1.074-2.745-1.233-2.745-.047 0-.02.169.061.375m3.178 7.357c0 .065.381.92.847 1.9a67.864 67.864 0 0 1 1.317 2.952c.62 1.536 3.77 6.973 3.388 5.847-.079-.231-.05-.283.103-.188.168.104.172.056.02-.227-.107-.2-.274-.307-.378-.243-.12.075-.15.019-.08-.16.06-.16.028-.26-.077-.236-.1.022-.219-.064-.265-.192-.055-.15-.013-.187.117-.106.125.077.1-.073-.065-.392-.147-.285-.359-.5-.472-.477-.113.022-.194-.09-.182-.25.013-.16-.03-.256-.097-.215-.066.04-.12-.147-.12-.417 0-.53-.498-1.216-.762-1.053-.097.06-.119-.037-.054-.242.093-.294-.644-1.971-1.554-3.533-.08-.137-.357-.72-.614-1.295-.407-.905-1.072-1.82-1.072-1.473m4 7.685c0 .092-.15-.08-.334-.38-.43-.707-.43-.938.001-.287.182.275.331.575.332.667M336.99 291.55c-.283.357-.51.75-.507.875.01.289 1.16-1.003 1.16-1.301 0-.34-.096-.277-.653.426m-290.847 11.6c0 .086 3.704 4.257 5.254 5.918 2.775 2.972 3.994 4.24 4.608 4.794 1.202 1.083.618.279-1.15-1.583a130.474 130.474 0 0 1-3.568-3.961c-1.024-1.192-2.075-2.37-2.336-2.616-.26-.247-.475-.523-.475-.613 0-.091-.146-.212-.325-.268a.733.733 0 0 1-.425-.42.74.74 0 0 0-.435-.422c-.184-.058-.403-.287-.487-.51-.127-.333-.66-.591-.66-.318m250.25 29.476-1.835.857c-.55.257-2.228 1.054-3.728 1.773-1.5.718-2.813 1.257-2.917 1.198-.103-.06-.133-.046-.066.028.068.075-.045.225-.25.333-.204.109-1.172.618-2.15 1.13-3.693 1.939-7.729 4.253-7.615 4.368.043.043 1.012-.453 2.153-1.102 2.446-1.393 8.81-4.698 11.41-5.924 4.672-2.205 5.351-2.54 5.663-2.782.462-.361.304-.332-.666.12m-20.246 10.435c-.437.277-.048.374.44.11.39-.211.414-.257.14-.26a1.244 1.244 0 0 0-.58.15m-2.02 1.22c-.515.296-1.066.647-1.227.78-.329.274-.563.418-1.61.989-.402.22-.956.565-1.23.767-.276.203-.613.419-.75.48-.138.06-.926.558-1.75 1.104-.826.545-1.858 1.2-2.296 1.454-1.558.908-4.525 2.88-4.332 2.88.235 0 1.965-1.041 6.377-3.835 4.305-2.725 5.018-3.17 6.54-4.083 1.831-1.098 2.074-1.57.277-.536m-41.067 17.626c-.64.172-.885.279-.54.237 1.241-.151 1.79-.282 1.79-.428 0-.081-.018-.142-.04-.134-.024.007-.568.154-1.21.325m-4.083.845c-3.064.724-5.227 1.336-4.333 1.226.412-.051 1.387-.244 2.166-.428 3.331-.79 4.921-1.188 4.986-1.25.183-.173-.927.005-2.819.452m-88.75 5.324c.276.092 4.008.238 8.333.326 15.553.314 25.768.9 29.167 1.673.886.2 5.353.193 7.75-.014 3.4-.294 3.727-.326 5.25-.508.825-.098 1.8-.213 2.167-.254 1.844-.206 6.237-.79 8.083-1.072l2.083-.32-2.083.072c-1.146.04-3.77.265-5.833.5l-7.334.835c-6.588.749-8.237.837-9.927.527-2.357-.431-5.064-.755-7.796-.934-7.916-.516-8.764-.544-22.527-.756-3.39-.052-6.54-.128-7-.17-.725-.063-.768-.051-.333.095" fill="#fbfafb" fill-rule="evenodd"/><path d="M182.898 36.432c-1.096.082-3.735.484-5.865.893-2.129.408-4.883.89-6.12 1.073-6.9 1.014-17.935 4.603-26.323 8.56-12.195 5.755-26.777 18.853-36.189 32.507-.372.539-.845 1.214-1.05 1.5l-.75 1.042c-.447.62-2.307 3.41-3.192 4.787-4.278 6.652-7.112 14.427-9.609 26.357-.443 2.119-1.656 5.85-2.492 7.667l-.729 1.583c-1.606 3.486-6.149 9.497-8.27 10.944-.32.219-.884.62-1.25.89-1.866 1.382-5.408 3.076-7.309 3.496-.445.099-1.008.28-1.25.405-1.478.757-7.685 1.863-10.192 1.818-1.549-.028-2.207-.113-4.916-.632a69.086 69.086 0 0 0-3.167-.497 148.775 148.775 0 0 1-3.917-.582c-4.913-.805-8.017.46-8.944 3.644-.463 1.59-.065 8.529.543 9.472.133.206.435.918.671 1.583 1.161 3.267 2.691 4.885 7.498 7.93 3.754 2.378 8.771 5.053 11.15 5.944 3.56 1.335 6.762 2.26 8.916 2.577.687.1 1.625.287 2.083.413 1.217.335 2.157.41 7.361.597 2.581.09 5.65.244 6.817.339 1.511.123 2.376.12 3.001-.01.695-.144 1.161-.128 2.242.077.751.142 1.751.263 2.222.269.472.005 1.382.156 2.024.335.641.18 1.541.425 2 .544 1.067.279 2.986 1.019 6.333 2.444 1.467.625 3.304 1.378 4.083 1.673.78.296 1.53.63 1.667.746.49.406 1.324.748 1.83.748 1.51 0 6.78 3.759 10.505 7.494 1.603 1.607 2.195 2.277 3.948 4.463 1.472 1.837 1.643 2.077 1.961 2.75.162.345.355.626.43.626.075 0 .19.168.255.373s.524.95 1.02 1.659c3.123 4.456 2.54 6.286-3.699 11.618-.42.36-2.379 1.683-4.095 2.767-.725.458-2.463 1.633-3.862 2.61-3.21 2.243-6.812 4.543-9.007 5.754-.937.517-1.89 1.083-2.119 1.258-.229.175-1.43.939-2.667 1.697-8.514 5.216-10.56 6.783-17.362 13.29-1.968 1.884-8.045 10.234-10.777 14.808a101.4 101.4 0 0 1-1.689 2.75c-4.888 7.319-8.84 22.11-8.264 30.916.057.87.14 2.258.183 3.083.351 6.629 3.488 15.117 7.38 19.969 1.35 1.683 4.791 5.282 5.05 5.282.073 0 .325.206.56.458l.428.458 1.37-.715c3.03-1.58 3.334-1.872 2.375-2.272-2.29-.958-6.987-7.938-9.147-13.596-1.578-4.133-1.822-5.794-1.824-12.417-.003-8.275.361-10.712 2.824-18.916 2.5-8.321 5.876-14.245 13.438-23.57 5.062-6.241 15.018-13.187 26.705-18.63 3.272-1.524 4.955-2.43 9.083-4.886a277.015 277.015 0 0 1 5-2.914c1.82-1.014 4.547-3.034 4.301-3.187-.09-.056.033-.153.277-.214 1.648-.413 5.872-5.847 6.353-8.172 1-4.838-.336-7.331-8.093-15.104-7.553-7.57-13.41-11.85-21.088-15.41-.916-.426-2.124-.992-2.683-1.26-.56-.268-1.16-.49-1.334-.495-.174-.004.134-.24.684-.521 5.28-2.713 6.372-9.717 2.212-14.181l-.896-.961 1.64-1.438c7.264-6.374 9.173-10.243 9.196-18.641.013-4.91-.119-5.597-1.569-8.2-.949-1.703-4.747-5.727-6-6.356a47 47 0 0 1-2.099-1.153c-2.333-1.365-4.583-1.982-7.85-2.152l-2.033-.105-.052-.434c-.028-.238.082-.958.246-1.6.164-.641.485-2.176.714-3.41.23-1.234.56-2.846.735-3.583l.836-3.507c1.322-5.538 3.66-10.762 7.714-17.25 3.745-5.991 4.002-6.36 7.79-11.178.412-.525 1.36-1.731 2.103-2.68 5.072-6.463 16.065-16.181 21.395-18.914.87-.446 1.635-.885 1.701-.976.066-.091.493-.353.95-.583 3.43-1.731 4.782-2.368 6.017-2.833a80.54 80.54 0 0 0 2.167-.851c1.26-.53 2.694-.946 12.083-3.505 10.804-2.945 15.163-3.617 23.667-3.653 12.762-.052 33.785 4.452 46.333 9.927 15.501 6.764 27.248 15.79 35.718 27.446.486.669 1.2 1.645 1.583 2.168 1.977 2.69 4.937 8.412 6.835 13.216 1.682 4.258 3.83 12.315 4.198 15.75.064.596.295 2.043.513 3.216 2.046 10.982 1.823 22.872-.597 31.8-3.395 12.534-13.889 29.29-22.306 35.62-2.337 1.757-4.915 3.478-6.152 4.106-.665.338-1.209.677-1.209.754 0 .182-4.912 3.01-18.166 10.46-.413.232-1.443.83-2.289 1.33-.847.5-2.49 1.315-3.653 1.81-1.163.497-2.233 1.002-2.378 1.124-.145.123-.696.429-1.223.68-1.036.495-2.71 1.735-2.555 1.89.053.053-.052.2-.232.326-.739.518-1.044 2.792-.583 4.346.698 2.349 1.336 2.462 10.08 1.792 1.787-.137 3.85-.342 4.583-.457 1.501-.234 6.69-.28 10.083-.086 2.873.162 5.234.64 10.41 2.109 4.25 1.206 5.03 1.403 9.673 2.443 1.467.328 4.241 1.12 6.165 1.758 1.923.639 3.686 1.19 3.916 1.227.231.036 1.057.3 1.836.586 2.254.828 5.844 1.555 11.167 2.26 5.356.71 11.728-.362 15.833-2.663.596-.334 1.833-.99 2.75-1.458.917-.468 2.08-1.116 2.583-1.441.504-.325 1.704-1.074 2.667-1.665 3.746-2.3 5.791-4.24 7.914-7.505 1.256-1.932 1.338-2.021 1.45-1.58.804 3.204.601 18.718-.38 28.968-.777 8.096-2.586 17.543-4.659 24.333-.28.917-.652 2.154-.825 2.75-.453 1.554-1.952 5.95-2.33 6.833-.177.413-.62 1.5-.986 2.417-1.46 3.662-4.315 9.902-6.328 13.833-2.347 4.585-4.996 8.51-7.875 11.667a40.94 40.94 0 0 0-1.62 1.906c-.694.887-1.408 1.566-4.828 4.594-.93.825-1.695 1.538-1.697 1.584 0 .046.841.37 1.872.72 1.032.35 2.663 1 3.625 1.443l1.75.804 4.26-4.275c5.225-5.245 5.663-5.766 9.171-10.902 2.137-3.13 4.9-7.792 6.492-10.957 1.142-2.271 3.904-8.691 4.732-11a30.972 30.972 0 0 1 1.625-3.75c.19-.367.704-1.717 1.143-3a181.197 181.197 0 0 1 1.326-3.75c.29-.78.852-2.617 1.25-4.084.396-1.466 1.03-3.728 1.405-5.026 1.937-6.673 2.992-16.028 3.005-26.64.01-7.327-1.142-17.451-2.51-22.084-2.188-7.404-2.313-7.666-3.66-7.666-.51 0-4.022 2.136-4.877 2.967-2.697 2.62-4.99 5.57-6.57 8.45-.426.775-7.234 5.596-8.958 6.344-.623.27-2.565 1.497-2.75 1.739-.157.203-3.405 2.053-4.829 2.75-4.74 2.32-8.142 2.302-15.838-.085-3.843-1.192-13.483-4.631-17-6.065-6.168-2.515-14.213-3.832-25.89-4.236l-3.293-.114 2.05-1.081c1.127-.594 2.5-1.325 3.05-1.624.55-.3 1.3-.695 1.666-.881 2.668-1.354 11.588-7.305 14.584-9.73 2.062-1.67 6.468-5.507 7.75-6.751.275-.267.987-.884 1.583-1.37 6.203-5.065 13.427-14.045 16.987-21.118 2.116-4.204 6.68-18.233 6.68-20.535 0-.363.056-.661.125-.661.068 0 .137-.206.153-.458.016-.252.18-1.865.363-3.586.218-2.044.338-4.352.346-6.666.007-1.947.056-4.927.11-6.623.517-16.161-2.505-29.702-9.092-40.75-4.512-7.567-11.44-15.761-17.005-20.11-11.692-9.14-22.008-14.675-32.917-17.662-9.01-2.467-17.003-4.245-23.083-5.134a40.867 40.867 0 0 1-2.334-.421c-.596-.131-2.17-.366-3.5-.521a261.35 261.35 0 0 1-3.416-.42c-4.41-.605-13.93-.831-18.994-.451m-13.423 66.472c-.504.067-1.742.207-2.75.312-8.57.89-12.522 4.658-9.984 9.519 1.111 2.126 5.25 6.244 7.466 7.427 1.778.949 1.805 1.14.266 1.882-2.888 1.393-6.534 4.446-7.979 6.682-2.462 3.808-1.175 6.899 3.125 7.506.676.096 1.285.209 1.354.25.07.044 2.63.129 5.69.19 16.314.327 20.253-.163 21.745-2.702 1.56-2.652-.918-5.012-6.3-6.005-2.349-.433-8-.514-9.883-.142l-.5.099.597-.385c6.635-4.284 6.388-9.275-.639-12.881-.664-.341-1.255-.696-1.313-.79-.057-.092-.526-.354-1.04-.581-2.873-1.262-2.386-1.623 2.02-1.498 9.986.283 15.125-1.038 15.125-3.886 0-3.406-8.998-6.051-17-4.997m-64.895 65.604c.714.304.52.485-.347.322-.668-.125-1.167-.595-.632-.595.183 0 .624.123.98.273" fill="#f45b25" fill-rule="evenodd"/></svg>