<?xml version="1.0" encoding="UTF-8"?><svg id="Layer_2" xmlns="http://www.w3.org/2000/svg" xmlns:xlink="http://www.w3.org/1999/xlink" viewBox="0 0 104.78 103.61"><defs><style>.cls-1{stroke:#666;}.cls-1,.Graphic_Style,.cls-2,.cls-3,.cls-4,.cls-5,.cls-6{stroke-miterlimit:10;}.cls-1,.cls-2,.cls-3,.cls-4,.cls-7,.cls-5,.cls-8,.cls-6{fill:none;}.cls-1,.cls-2,.cls-3,.cls-4,.cls-5{opacity:.76;}.Graphic_Style{fill:rgba(83,64,95,.2);stroke:url(#radial-gradient);}.cls-9{fill:url(#New_Gradient_Swatch_2-2);}.cls-9,.cls-7,.cls-10{stroke-width:0px;}.cls-2{stroke:#999;}.cls-3{stroke:gray;}.cls-4,.cls-6{stroke:#ccc;}.cls-5{stroke:#b3b3b3;}.cls-8{stroke:url(#New_Gradient_Swatch_2);stroke-width:7px;}.cls-11{clip-path:url(#clippath);}.cls-10{fill:url(#New_Gradient_Swatch_2-3);}</style><radialGradient id="radial-gradient" cx="52.39" cy="51.81" fx="52.39" fy="51.81" r="56.54" gradientUnits="userSpaceOnUse"><stop offset="0" stop-color="#fff"/><stop offset="1" stop-color="#000"/></radialGradient><clipPath id="clippath"><path class="cls-7" d="m84.02,15.71l-28.2-11.53c-2.2-.9-4.66-.9-6.86,0l-28.2,11.53c-2.23.91-4,2.67-4.93,4.88l-11.62,27.71c-.94,2.24-.94,4.77,0,7.01l11.62,27.71c.93,2.22,2.7,3.97,4.93,4.88l28.2,11.53c2.2.9,4.66.9,6.86,0l28.2-11.53c2.23-.91,4-2.67,4.93-4.88l11.62-27.71c.94-2.24.94-4.77,0-7.01l-11.62-27.71c-.93-2.22-2.7-3.97-4.93-4.88Z"/></clipPath><linearGradient id="New_Gradient_Swatch_2" x1="52.39" y1="-1514.17" x2="52.39" y2="-1618.1" gradientTransform="translate(0 -1514.32) scale(1 -1)" gradientUnits="userSpaceOnUse"><stop offset="0" stop-color="#ff9a03"/><stop offset="0" stop-color="#8f314f"/><stop offset="1" stop-color="#dd704f"/></linearGradient><linearGradient id="New_Gradient_Swatch_2-2" y1="-1589.05" x2="52.39" y2="-1543.21" xlink:href="#New_Gradient_Swatch_2"/><linearGradient id="New_Gradient_Swatch_2-3" x1="58.1" y1="-1594.03" x2="58.1" y2="-1541.91" xlink:href="#New_Gradient_Swatch_2"/></defs><g id="Rosen_Small"><g class="cls-11"><polygon class="Graphic_Style" points="-1.72 73.67 6.4 15.87 60.51 -5.99 106.5 29.94 98.38 87.74 44.27 109.6 -1.72 73.67"/><polygon class="cls-6" points="37.64 60.32 37.64 43.29 52.39 34.77 67.14 43.29 67.14 60.32 52.39 68.84 37.64 60.32"/><polygon class="cls-4" points="35.33 58.7 37.89 40.48 54.95 33.59 69.45 44.91 66.89 63.13 49.83 70.02 35.33 58.7"/><polygon class="cls-5" points="33.11 56.61 38.59 37.51 57.87 32.7 71.67 47 66.19 66.1 46.91 70.91 33.11 56.61"/><polygon class="cls-5" points="31.05 54.05 39.77 34.44 61.12 32.2 73.73 49.56 65 69.17 43.66 71.41 31.05 54.05"/><polygon class="cls-5" points="29.23 51 41.51 31.34 64.67 32.15 75.55 52.61 63.27 72.27 40.11 71.46 29.23 51"/><polygon class="cls-5" points="27.74 47.46 43.83 28.28 68.48 32.63 77.04 56.15 60.95 75.33 36.3 70.98 27.74 47.46"/><polygon class="cls-5" points="26.68 43.45 46.77 25.36 72.48 33.72 78.1 60.16 58.01 78.25 32.3 69.89 26.68 43.45"/><polygon class="cls-2" points="26.15 39.01 50.35 22.68 76.59 35.48 78.63 64.6 54.43 80.93 28.18 68.13 26.15 39.01"/><polygon class="cls-2" points="26.25 34.17 54.59 20.35 80.73 37.98 78.53 69.44 50.19 83.26 24.05 65.63 26.25 34.17"/><polygon class="cls-2" points="27.08 29.02 59.47 18.5 84.78 41.28 77.7 74.59 45.31 85.11 20 62.33 27.08 29.02"/><polygon class="cls-2" points="28.75 23.63 64.97 17.25 88.61 45.42 76.03 79.98 39.81 86.37 16.17 58.19 28.75 23.63"/><polygon class="cls-3" points="31.34 18.12 71.04 16.73 92.08 50.42 73.44 85.49 33.74 86.88 12.69 53.19 31.34 18.12"/><polygon class="cls-3" points="34.94 12.62 77.6 17.1 95.05 56.29 69.84 90.99 27.17 86.51 9.73 47.32 34.94 12.62"/><polygon class="cls-3" points="39.62 7.27 84.57 18.48 97.34 63.01 65.16 96.34 20.21 85.13 7.43 40.6 39.62 7.27"/><polygon class="cls-1" points="45.42 2.26 91.82 21 98.78 70.55 59.35 101.35 12.96 82.61 6 33.06 45.42 2.26"/><polygon class="cls-1" points="52.39 -2.23 99.19 24.79 99.19 78.82 52.39 105.84 5.59 78.82 5.59 24.79 52.39 -2.23"/></g><path class="cls-8" d="m84.02,15.71l-28.2-11.53c-2.2-.9-4.66-.9-6.86,0l-28.2,11.53c-2.23.91-4,2.67-4.93,4.88l-11.62,27.71c-.94,2.24-.94,4.77,0,7.01l11.62,27.71c.93,2.22,2.7,3.97,4.93,4.88l28.2,11.53c2.2.9,4.66.9,6.86,0l28.2-11.53c2.23-.91,4-2.67,4.93-4.88l11.62-27.71c.94-2.24.94-4.77,0-7.01l-11.62-27.71c-.93-2.22-2.7-3.97-4.93-4.88Z"/><path class="cls-9" d="m82.21,38.52l-9.05-9.45H22.57l22.34,23-22.34,22.46h12.74l23.45-22.46-13.85-13.55h37.3Z"/><path class="cls-10" d="m66.28,42.66h-13l10.03,9.44-23.59,22.43h13.56l23.22-22.43-10.22-9.44Z"/></g></svg>