<svg width="24" height="24" viewBox="0 0 24 24" fill="none" xmlns="http://www.w3.org/2000/svg">
<circle cx="12" cy="12" r="12" fill="#DBDBDB"/>
<g clip-path="url(#clip0)">
<path d="M7.48267 11.9351C7.44 12.6571 8.01067 13.2753 8.752 13.3169C8.77867 13.3169 8.80534 13.3169 8.83201 13.3169C9.57867 13.3169 10.1813 12.7299 10.176 12.0026C10.176 11.2753 9.57334 10.6883 8.82667 10.6935C8.112 10.6935 7.52 11.239 7.48267 11.9351Z" fill="#0033AD"/>
<path d="M2.45867 11.5974C2.21867 11.5818 2.01067 11.7636 2 11.9974C1.98934 12.2312 2.17067 12.4338 2.41067 12.4441C2.65067 12.4597 2.85334 12.2779 2.86934 12.0442C2.88534 11.8104 2.69867 11.613 2.45867 11.5974Z" fill="#0033AD"/>
<path d="M7.39734 4.31949C7.61068 4.21559 7.69601 3.95585 7.58934 3.74806C7.48268 3.54026 7.21601 3.45715 7.00268 3.56104C6.78934 3.66494 6.70401 3.91949 6.81068 4.12728C6.91734 4.34026 7.17868 4.42858 7.39734 4.31949C7.39734 4.31949 7.39201 4.31949 7.39734 4.31949Z" fill="#0033AD"/>
<path d="M8.76267 6.64157C9.09334 6.48053 9.22667 6.08572 9.06134 5.76365C8.896 5.44157 8.49067 5.3117 8.16 5.47274C7.82933 5.63378 7.696 6.02858 7.86133 6.35066C8.02667 6.67274 8.432 6.8026 8.76267 6.64157Z" fill="#0033AD"/>
<path d="M4.16534 8.23638C4.42134 8.39742 4.76268 8.32989 4.93334 8.08054C5.09868 7.83118 5.02934 7.49872 4.77334 7.33248C4.51734 7.17144 4.17601 7.23897 4.00534 7.48833C3.83468 7.73768 3.90934 8.07534 4.16534 8.23638Z" fill="#0033AD"/>
<path d="M4.98134 11.3636C4.60801 11.3429 4.29334 11.6182 4.27201 11.9818C4.25067 12.3455 4.53334 12.652 4.90667 12.6727C5.28001 12.6935 5.59467 12.4182 5.61601 12.0546C5.63734 11.6961 5.35467 11.3844 4.98134 11.3636Z" fill="#0033AD"/>
<path d="M4.24 15.7636C3.968 15.8987 3.856 16.2208 3.99467 16.4909C4.13334 16.7559 4.464 16.865 4.74134 16.7299C5.01334 16.5948 5.12534 16.2727 4.98667 16.0026C4.848 15.7377 4.512 15.6286 4.24 15.7636Z" fill="#0033AD"/>
<path d="M6.85335 10.0078C7.22135 10.2416 7.71201 10.1429 7.94668 9.78443C8.18668 9.42599 8.08535 8.94807 7.71735 8.71949C7.34935 8.48573 6.85868 8.58443 6.62401 8.94287C6.38401 9.29612 6.48535 9.77404 6.85335 10.0078Z" fill="#0033AD"/>
<path d="M15.1467 6.58961C15.456 6.78701 15.8773 6.70389 16.08 6.40259C16.2827 6.10129 16.1973 5.6909 15.888 5.4935C15.5787 5.2961 15.1573 5.37922 14.9547 5.68051C14.7467 5.98701 14.832 6.3922 15.1467 6.58961Z" fill="#0033AD"/>
<path d="M16.5227 4.27794C16.7253 4.40781 16.992 4.35066 17.1253 4.15326C17.2587 3.95586 17.2 3.69612 16.9973 3.56625C16.7947 3.43638 16.528 3.49352 16.3947 3.68573C16.2667 3.88313 16.3253 4.14807 16.5227 4.27794Z" fill="#0033AD"/>
<path d="M15.248 10.6831C14.5067 10.6416 13.8667 11.1974 13.8293 11.9195C13.7867 12.6416 14.3573 13.2649 15.0987 13.3013C15.1253 13.3013 15.152 13.3013 15.1733 13.3013C15.9147 13.3013 16.5173 12.7143 16.5173 11.987C16.5227 11.2961 15.9627 10.7195 15.248 10.6831Z" fill="#0033AD"/>
<path d="M9.20535 9.91429C9.43468 10.3559 9.89868 10.6364 10.4107 10.6364C11.152 10.6364 11.7547 10.0494 11.7547 9.32209C11.7547 9.11949 11.7067 8.91689 11.6107 8.72988C11.2747 8.08053 10.464 7.82079 9.80268 8.14806C9.13601 8.48053 8.86935 9.27014 9.20535 9.91429Z" fill="#0033AD"/>
<path d="M19.76 8.23638C20.032 8.10131 20.1387 7.77404 20 7.5091C19.8613 7.24417 19.5253 7.14027 19.2533 7.27533C18.9813 7.4104 18.8747 7.73248 19.008 7.99741C19.152 8.26235 19.4827 8.37144 19.76 8.23638Z" fill="#0033AD"/>
<path d="M16.3467 8.65196C15.9573 8.84416 15.7973 9.3065 15.9947 9.68572C16.192 10.0649 16.6667 10.2208 17.056 10.0286C17.4453 9.83637 17.6053 9.37403 17.408 8.99481C17.2107 8.61559 16.736 8.46494 16.3467 8.65196Z" fill="#0033AD"/>
<path d="M11.9467 4.08053C12.2507 4.09611 12.512 3.86754 12.5333 3.57144C12.5547 3.27533 12.3147 3.02079 12.0107 3.00001C11.7067 2.98442 11.4453 3.2078 11.424 3.50391C11.408 3.8052 11.6427 4.05975 11.9467 4.08053Z" fill="#0033AD"/>
<path d="M11.9413 7.47274C12.3787 7.49871 12.752 7.17144 12.7733 6.74546C12.8 6.31949 12.464 5.95585 12.0267 5.93507C11.5893 5.9091 11.216 6.23637 11.1947 6.66235C11.1733 7.08832 11.504 7.45196 11.9413 7.47274Z" fill="#0033AD"/>
<path d="M7.65333 15.3481C8.04266 15.1559 8.20266 14.6935 8.00533 14.3143C7.808 13.9351 7.33333 13.7792 6.944 13.9714C6.55467 14.1636 6.39467 14.626 6.592 15.0052C6.78934 15.3844 7.264 15.5403 7.65333 15.3481Z" fill="#0033AD"/>
<path d="M12.4533 8.6C12.048 9.2078 12.2187 10.0182 12.8427 10.413C13.4667 10.8078 14.2987 10.6416 14.704 10.0338C15.1093 9.42598 14.9387 8.61559 14.3147 8.22078C14.096 8.08052 13.84 8.0078 13.5787 8.0078C13.1253 8.0078 12.704 8.23117 12.4533 8.6Z" fill="#0033AD"/>
<path d="M14.7947 14.0857C14.4587 13.4364 13.648 13.1766 12.9867 13.5039C12.32 13.8312 12.0533 14.6208 12.3893 15.2649C12.7253 15.9143 13.536 16.174 14.1973 15.8468C14.8587 15.5247 15.1307 14.7455 14.8 14.0961C14.8 14.0909 14.8 14.0909 14.7947 14.0857Z" fill="#0033AD"/>
<path d="M17.1467 13.9922C16.7787 13.7585 16.288 13.8572 16.0533 14.2156C15.8133 14.574 15.9147 15.052 16.2827 15.2805C16.6507 15.5143 17.1413 15.4156 17.376 15.0572C17.616 14.7039 17.5147 14.226 17.1467 13.9922Z" fill="#0033AD"/>
<path d="M19.728 12.0234C19.7493 11.6597 19.4667 11.3533 19.0933 11.3325C18.72 11.3117 18.4053 11.587 18.384 11.9507C18.3627 12.3143 18.6453 12.6208 19.0187 12.6416C19.3867 12.6623 19.7067 12.3818 19.728 12.0234Z" fill="#0033AD"/>
<path d="M21.5893 11.5559C21.3493 11.5403 21.1413 11.7221 21.1307 11.9558C21.12 12.1896 21.3013 12.3922 21.5413 12.4026C21.7813 12.4182 21.984 12.2364 22 12.0026C22.0107 11.7688 21.8293 11.5714 21.5893 11.5559Z" fill="#0033AD"/>
<path d="M19.8347 15.7636C19.5787 15.6026 19.2373 15.6701 19.0667 15.9195C18.9013 16.1688 18.9707 16.5013 19.2267 16.6675C19.4827 16.8286 19.824 16.7611 19.9947 16.5117C20.1653 16.2623 20.0907 15.9247 19.8347 15.7636Z" fill="#0033AD"/>
<path d="M7.47199 19.7221C7.26933 19.5922 7.00266 19.6494 6.86933 19.8416C6.73599 20.039 6.79466 20.2987 6.99199 20.4286C7.19466 20.5584 7.46133 20.5013 7.59466 20.3091C7.73333 20.1169 7.67466 19.852 7.47199 19.7221Z" fill="#0033AD"/>
<path d="M16.6027 19.6805C16.3893 19.7844 16.304 20.0442 16.4107 20.252C16.5173 20.4598 16.784 20.5429 16.9973 20.439C17.2107 20.3351 17.296 20.0805 17.1893 19.8727C17.0827 19.6597 16.8213 19.5714 16.6027 19.6805C16.6027 19.6805 16.608 19.6805 16.6027 19.6805Z" fill="#0033AD"/>
<path d="M11.5467 15.4C11.952 14.7922 11.7813 13.9818 11.1573 13.5818C10.5333 13.187 9.70134 13.3533 9.29067 13.9611C8.88001 14.5689 9.05601 15.3792 9.68001 15.7792C9.89867 15.9195 10.1547 15.9922 10.416 15.9922C10.8747 15.9974 11.296 15.774 11.5467 15.4Z" fill="#0033AD"/>
<path d="M8.85332 17.4104C8.54399 17.213 8.12265 17.2961 7.91999 17.5974C7.71732 17.8987 7.80265 18.3091 8.11199 18.5065C8.42132 18.7039 8.84266 18.6208 9.04532 18.3195C9.25332 18.0182 9.16799 17.6078 8.85332 17.4104Z" fill="#0033AD"/>
<path d="M11.9947 19.9195C11.6907 19.9039 11.4293 20.1325 11.408 20.4286C11.3867 20.7247 11.6267 20.9792 11.9307 21C12.2347 21.0156 12.496 20.7922 12.5173 20.4961C12.5333 20.1948 12.2987 19.9403 11.9947 19.9195Z" fill="#0033AD"/>
<path d="M12 16.5273C11.5627 16.5013 11.1893 16.8286 11.168 17.2546C11.1413 17.6805 11.4773 18.0442 11.9147 18.065C12.352 18.0857 12.7253 17.7637 12.7467 17.3377C12.7733 16.9169 12.4373 16.5481 12 16.5273Z" fill="#0033AD"/>
<path d="M15.2373 17.3585C14.9067 17.5247 14.7733 17.9195 14.944 18.2416C15.1147 18.5637 15.52 18.6935 15.8507 18.5273C16.1813 18.3663 16.3147 17.9714 16.1493 17.6494C15.9787 17.3273 15.5733 17.1922 15.2373 17.3585Z" fill="#0033AD"/>
</g>
<defs>
<clipPath id="clip0">
<rect width="20" height="18" fill="white" transform="translate(2 3)"/>
</clipPath>
</defs>
</svg>
