<svg xmlns="http://www.w3.org/2000/svg" width="532" height="514" style="shape-rendering:geometricPrecision;text-rendering:geometricPrecision;image-rendering:optimizeQuality;fill-rule:evenodd;clip-rule:evenodd"><path style="opacity:1" fill="#fefefe" d="M-.5-.5h532v514H-.5V-.5Z"/><path style="opacity:1" fill="#252021" d="M260.5 9.5c7.64-.68 14.97.48 22 3.5 33.75 13.8 67.41 27.8 101 42 3.46.82 6.8.48 10-1 9.26-8.6 19.6-15.6 31-21 11.75-2.75 20.58 1.08 26.5 11.5a111.7 111.7 0 0 1 11 40c.6 13.37 1.6 26.7 3 40l52 126a36.23 36.23 0 0 1-2 25c-21.2 50.59-42.2 101.25-63 152-5.97 10.58-14.8 17.75-26.5 21.5a7511.26 7511.26 0 0 1-152 62 36.66 36.66 0 0 1-19-2 17299.29 17299.29 0 0 1-161-68l-6.5-6.5a16420 16420 0 0 1-66-157 35.99 35.99 0 0 1-3-26c21.55-54 43.89-107.66 67-161a172.4 172.4 0 0 0 6-20c5.14-69 30.64-77.66 76.5-26a6.9 6.9 0 0 0 4 2 5427.13 5427.13 0 0 0 89-37Z"/><path style="opacity:1" fill="#92cf50" d="M123.5 78.5c.13 1.8-.2 3.46-1 5a96.14 96.14 0 0 0 2 43c-.12 11.72 5.55 16.89 17 15.5a12.16 12.16 0 0 0 5-5.5 9.71 9.71 0 0 0 7 .5c26.7-20.8 57.03-32.8 91-36 52.24-5 97.91 9.66 137 44 2.98.5 5.98.66 9 .5 5 3.83 10.33 7.17 16 10a150.81 150.81 0 0 1 28 76c-11.93 43.14-39.93 60.64-84 52.5-7.5-3.84-14-9.01-19.5-15.5a235.75 235.75 0 0 0-33.5-40.5c-25.46-16.08-48.96-13.58-70.5 7.5a262.6 262.6 0 0 1-34.5 42.5c-12.94 9.53-27.27 12.2-43 8-16.16-3-28.99-11.16-38.5-24.5-4.6-8-8.1-16.33-10.5-25a177.35 177.35 0 0 1 12.5-39 739 739 0 0 1 21.5-38.5c-1.19-4.02-3.85-6.52-8-7.5a6.94 6.94 0 0 0-4.5 3l-3.5 7a4.85 4.85 0 0 1-4 1c-13.7-42.7-14.54-85.7-2.5-129 3.63-5.66 8.8-7.82 15.5-6.5A248.98 248.98 0 0 1 188 95.5a8.8 8.8 0 0 1 1.5 5c-3.5.6-7 1.27-10.5 2l-2.5-1a80.09 80.09 0 0 0-33-39.5c-11.78-4.11-19.45-.28-23 11.5.6 1.92 1.6 3.59 3 5Z"/><path style="opacity:1" fill="#d56cca" d="M263.5 36.5c4.1-.27 8.1.23 12 1.5l93 39a4.16 4.16 0 0 1 .5 4.5L351.5 103l-3.5.5a264.5 264.5 0 0 0-88-17 522.6 522.6 0 0 0-56.5 6.5A775.4 775.4 0 0 0 188 71.5c-.68-1.28-.52-2.45.5-3.5 25.09-10.55 50.09-21.05 75-31.5Z"/><path style="opacity:1" fill="#91cd4f" d="M425.5 156.5c9.48-12.06 12.48-25.72 9-41 5.53-4.76 7.36-10.76 5.5-18-8.02-18.05-20.19-21.55-36.5-10.5a160.6 160.6 0 0 0-26 34 5.36 5.36 0 0 1-5-1 52.28 52.28 0 0 1-9-8 214.73 214.73 0 0 1 61-64c9.95-2.75 15.78 1.08 17.5 11.5 10.33 40.8 9.66 81.47-2 122l-2 2a247.52 247.52 0 0 1-12.5-27Z"/><path style="opacity:1" fill="#3c7b23" d="M146.5 136.5a12.16 12.16 0 0 1-5 5.5c-11.45 1.39-17.12-3.78-17-15.5a268.96 268.96 0 0 1-2-43 9.15 9.15 0 0 0 1-5c12.9-4.38 23.4-1.05 31.5 10 3.27 5.54 6.27 11.2 9 17 .67 2 .67 4 0 6a80.4 80.4 0 0 0-16 14 27.87 27.87 0 0 0-1.5 11Z"/><path style="opacity:1" fill="#3c7c23" d="M434.5 115.5c3.48 15.28.48 28.94-9 41-2.13-3.1-5.13-4.44-9-4-3.76-.1-7.1.9-10 3a98.66 98.66 0 0 1-16-10c-1.17-22.32 7.83-39.15 27-50.5 2.8-.92 4.98-.09 6.5 2.5a151.73 151.73 0 0 0 7 15 5.37 5.37 0 0 0 3.5 3Z"/><path style="opacity:1" fill="#766b3a" d="M122.5 83.5c-.5 14.2.18 28.53 2 43a96.14 96.14 0 0 1-2-43Z"/><path style="opacity:1" fill="#fdfcfb" d="M191.5 132.5c10.48-1.67 19.32 1.33 26.5 9 5.24 13.68.74 22.51-13.5 26.5-11.3 2.57-20.47-.6-27.5-9.5-4.16-9.21-1.99-16.71 6.5-22.5 2.8-1.1 5.48-2.26 8-3.5ZM330.5 132.5c9.63-1.47 18.13.86 25.5 7 7.28 12.16 4.45 21.33-8.5 27.5-11.2 3.64-21.04 1.47-29.5-6.5-5.42-8.8-4.25-16.63 3.5-23.5l9-4.5Z"/><path style="opacity:1" fill="#d36bc8" d="M92.5 139.5c5 12.84 9.34 26.01 13 39.5A347.31 347.31 0 0 1 94 207.5C78.7 253.73 75.2 300.9 83.5 349l-1 5.5a4.33 4.33 0 0 1-2.5-3 3877.7 3877.7 0 0 0-32-77 84.15 84.15 0 0 1-4.5-14.5 3771.17 3771.17 0 0 1 49-120.5Z"/><path style="opacity:1" fill="#d36bc9" d="M455.5 175.5c2.39.72 3.89 2.38 4.5 5 11.2 26.43 21.7 53.1 31.5 80a20.7 20.7 0 0 1-1.5 7 6910.28 6910.28 0 0 0-42 103c1.39-16.3 2.72-32.63 4-49 .67-17.67.67-35.33 0-53a895 895 0 0 0-7.5-64.5l.5-4.5a120.85 120.85 0 0 0 10.5-24Z"/><path style="opacity:1" fill="#272121" d="M160.5 180.5c27.04-3.08 44.54 8.25 52.5 34 2.5 26.53-9 43.36-34.5 50.5-26.5 2.5-43.34-9-50.5-34.5-1.96-25.1 8.87-41.76 32.5-50Z"/><path style="opacity:1" fill="#282121" d="M357.5 180.5c27.77-2.72 45.27 9.28 52.5 36 1.41 25.34-10.09 41.51-34.5 48.5-25.96 2.45-42.79-8.72-50.5-33.5-2.7-25.78 8.14-42.78 32.5-51Z"/><path style="opacity:1" fill="#91cc4f" d="M166.5 191.5c21.2.37 33.04 11.04 35.5 32a3.97 3.97 0 0 1-3.5 2 83.75 83.75 0 0 0-42-5.5 146.85 146.85 0 0 1-17 4 7.16 7.16 0 0 1 0-7c4.71-13.22 13.71-21.72 27-25.5Z"/><path style="opacity:1" fill="#90cc4f" d="M360.5 191.5c23.32-1.17 35.82 9.83 37.5 33-4.43 1.1-8.6.26-12.5-2.5a70.53 70.53 0 0 0-19.5-2.5 140.25 140.25 0 0 0-31.5 5c2.27-16.3 10.94-27.3 26-33Z"/><path style="opacity:1" fill="#fefdfd" d="M434.5 231.5a590.8 590.8 0 0 1-7.5 185 15.3 15.3 0 0 1-6.5 6.5A7190.37 7190.37 0 0 1 268 485.5 5921.76 5921.76 0 0 1 116.5 424a20.53 20.53 0 0 1-8.5-12.5 453.56 453.56 0 0 1-14-151 106.05 106.05 0 0 1 6.5-24c2.4 8.67 5.9 17 10.5 25 9.51 13.34 22.34 21.5 38.5 24.5 15.73 4.2 30.06 1.53 43-8a262.6 262.6 0 0 0 34.5-42.5c21.54-21.08 45.04-23.58 70.5-7.5a235.75 235.75 0 0 1 33.5 40.5c5.5 6.49 12 11.66 19.5 15.5 44.07 8.14 72.07-9.36 84-52.5Z"/><path style="opacity:1" fill="#262123" d="M258.5 227.5c16.32-2.4 30.15 2.27 41.5 14 12.88 23.99 6.71 41.15-18.5 51.5-2.1 1.73-2.44 3.73-1 6 13.96 6.4 27.63 5.74 41-2 4.89-3.73 9.89-7.23 15-10.5 7.27 1.9 8.77 5.9 4.5 12a83.94 83.94 0 0 1-26.5 16.5 4.66 4.66 0 0 0-2 3 96.89 96.89 0 0 1 6.5 57.5c-7.8 27.5-25.97 39.33-54.5 35.5-26.6-4.93-42.1-20.76-46.5-47.5a83.14 83.14 0 0 1 6.5-45.5l-1-2.5a69.22 69.22 0 0 1-27.5-18c-4.09-7.97-1.59-11.47 7.5-10.5 14.8 16.63 32.47 20.63 53 12 1.44-2.27 1.1-4.27-1-6-24.81-10.44-30.98-27.61-18.5-51.5a44.25 44.25 0 0 1 21.5-14Z"/><path style="opacity:1" fill="#f7f6f6" d="M348.5 232.5a6.48 6.48 0 0 1 4.5 1 33.12 33.12 0 0 0 10.5 16.5c4.4 1.14 8.06-.03 11-3.5 3.2-3.4 5.36-7.4 6.5-12a3.97 3.97 0 0 1 3.5-2c9.85 4.25 10.51 9.75 2 16.5-15.1 9.58-29.26 8.42-42.5-3.5a10.4 10.4 0 0 1-2-9 59.8 59.8 0 0 0 6.5-4Z"/><path style="opacity:1" fill="#f7f7f7" d="M149.5 233.5c2.49-.2 4.82.3 7 1.5a74.18 74.18 0 0 0 6.5 12.5c6.37 4.12 12.04 3.12 17-3 1.72-3.61 3.55-7.11 5.5-10.5 10.41-.41 12.74 3.76 7 12.5-16.46 12.94-31.96 11.94-46.5-3-2.51-4.61-1.35-7.95 3.5-10Z"/><path style="opacity:1" fill="#10729b" d="M261.5 239.5a37.03 37.03 0 0 1 26 6.5c6.55 6.22 7.71 13.39 3.5 21.5-3.6 4.05-8.1 5.71-13.5 5-.16-1.7 0-3.37.5-5 3.2-3.87 6.38-7.7 9.5-11.5-1.17-4.75-4.17-6.75-9-6-7.03 5.92-14.03 5.92-21 0-5.17-1.5-7 .33-5.5 5.5 2 5.35 5 10.01 9 14 .68 1.28.52 2.45-.5 3.5-8.63 2.39-14.13-.78-16.5-9.5-1.3-9.9 2.53-17.07 11.5-21.5a21.3 21.3 0 0 0 6-2.5Z"/><path style="opacity:1" fill="#82c8e9" d="M259.5 310.5a4.39 4.39 0 0 1 3.5 1c.69 19.67 1.36 39.33 2 59 .37.92.87 1.75 1.5 2.5 4.66 1.3 8.5.13 11.5-3.5.44-16.52-.06-33.02-1.5-49.5l1-7.5c7.98.56 15.15 3.56 21.5 9 8.73 15.99 11.4 32.99 8 51-5.3 17.16-16.97 25.5-35 25-18.47.44-31.13-7.9-38-25a80.02 80.02 0 0 1 2-46c2.2-7.03 7.03-10.53 14.5-10.5 3.4-1.36 6.4-3.19 9-5.5Z"/></svg>