<svg id="Layer_1" data-name="Layer 1" xmlns="http://www.w3.org/2000/svg" xmlns:xlink="http://www.w3.org/1999/xlink" viewBox="0 0 24 24"><defs><style>.cls-1,.cls-2,.cls-3{fill-rule:evenodd;}.cls-1{fill:url(#linear-gradient);}.cls-2{fill:url(#linear-gradient-2);}.cls-3{fill:url(#linear-gradient-3);}.cls-4{fill:#fff;}</style><linearGradient id="linear-gradient" x1="-286.53" y1="213" x2="-286.47" y2="213" gradientTransform="matrix(0.64, -413.16, -413.16, -0.64, 88198.46, -118222.28)" gradientUnits="userSpaceOnUse"><stop offset="0" stop-color="#6ba8b8"/><stop offset="1" stop-color="#c1d8ff"/></linearGradient><linearGradient id="linear-gradient-2" x1="-286.53" y1="213" x2="-286.47" y2="213" gradientTransform="matrix(0.85, -348.75, -348.75, -0.85, 74540.05, -99726.06)" gradientUnits="userSpaceOnUse"><stop offset="0" stop-color="#5e2a4b"/><stop offset="1" stop-color="#56a4dc"/></linearGradient><linearGradient id="linear-gradient-3" x1="-286.53" y1="213" x2="-286.47" y2="213" gradientTransform="matrix(0.85, -348.75, -348.75, -0.85, 74540.05, -99726.06)" gradientUnits="userSpaceOnUse"><stop offset="0" stop-color="#004d76" stop-opacity="0.38"/><stop offset="1" stop-color="#56dcc7" stop-opacity="0.38"/></linearGradient></defs><path class="cls-1" d="M12,0l8.48,3.52L24,12l-3.52,8.48L12,24,3.52,20.48,0,12,3.52,3.52,12,0Z"/><path class="cls-2" d="M12,1l7.78,3.22L23,12,19.78,19.8,12,23,4.22,19.8,1,12,4.22,4.24,12,1Z"/><path class="cls-3" d="M12,1l7.78,3.22L23,12,19.78,19.8,12,23,4.22,19.8,1,12,4.22,4.24,12,1Z"/><path class="cls-4" d="M10.76,6.71l-1.5,1.5H8.14v7.58l-1.49,1.5V8.21H4l1.49-1.5Z"/><path class="cls-4" d="M9.62,9.07h1.5v2.24h2v-3l1.49-1.5v8.22H13.1V12.81h-2v3l-1.5,1.5Z"/><path class="cls-4" d="M15.44,15.05,17.8,12H15.44l1-1H20L17.49,14H20l-.89,1Z"/></svg>
