<svg width="650" height="650" viewBox="0 0 650 650" fill="none" xmlns="http://www.w3.org/2000/svg">
<path d="M325.377 0.5C328.463 0.5 331.559 1.28012 334.732 2.06055L547.277 90.7861V90.7871C552.747 93.1129 558.192 97.7831 560.499 103.97L560.502 103.978L560.506 103.985L647.757 315.563V315.564C650.08 321.793 650.081 328.789 647.76 335.019L559.729 546.598C557.376 552.043 552.705 557.488 546.519 559.796L546.51 559.8L546.502 559.803L334.744 647.757C328.707 650.008 321.925 650.079 315.842 647.968L315.256 647.757L103.498 559.803H103.497C98.0307 557.477 92.6132 552.807 90.2803 546.62L90.2744 546.604L2.23926 335.019C-0.0814392 328.789 -0.080725 321.792 2.24219 315.563L91.0518 103.213C93.4039 97.7675 98.0751 92.3229 104.262 90.0156L104.27 90.0117L104.278 90.0088L316.021 2.06055C319.188 1.25594 322.289 0.50001 325.377 0.5ZM325.187 58.9756L137.202 136.64L137.011 136.719L136.932 136.911L59.1895 324.715L59.1104 324.905L59.1895 325.097L136.932 512.9L137.011 513.093L137.202 513.172L325.187 590.836L325.377 590.915L325.568 590.836L513.552 513.172L513.743 513.093L513.823 512.9L591.564 325.097L591.644 324.905L591.564 324.715L513.823 136.911L513.743 136.719L513.552 136.64L325.568 58.9756L325.377 58.8965L325.187 58.9756Z" fill="black" stroke="black"/>
<path d="M408.333 224.444L403.543 220.452C391.56 210.468 376.46 205 360.863 205H283.333C251.117 205 225 231.117 225 263.333C225 295.55 251.117 321.667 283.333 321.667H366.667C398.883 321.667 425 347.783 425 380C425 412.217 398.883 438.333 366.667 438.333H272.067C254.71 438.333 238.038 431.563 225.594 419.467L225 418.89" stroke="black" stroke-width="66.6667" stroke-linecap="round" stroke-linejoin="round"/>
<path d="M325 188.333V155" stroke="black" stroke-width="66.6667" stroke-linecap="round" stroke-linejoin="round"/>
<path d="M325 488.333V455" stroke="black" stroke-width="66.6667" stroke-linecap="round" stroke-linejoin="round"/>
</svg>
