<svg xmlns="http://www.w3.org/2000/svg" xmlns:xlink="http://www.w3.org/1999/xlink" width="510" height="510" overflow="visible" xml:space="preserve"><switch><g><circle fill="#A78471" stroke="#000" stroke-width="10" cx="255" cy="255" r="250"/><g stroke="#000"><path stroke-width="2" d="M449.204 153.622s11.099-11.524 20.305-10.99c0 0 49.237 98.795-.206 177.521 0 0 26.608-89.612-20.099-166.531z"/><path d="M323.639 46.348s-.095-16 6.869-22.041c0 0 104.217 36.385 123.754 127.271 0 .001-43.49-82.744-130.623-105.23zM48.433 180.313s-15.987-.611-21.715-7.836c0 0 40.944-102.51 132.603-118.022-.001 0-84.582 39.799-110.888 125.858z"/><circle fill="none" stroke-width="10" cx="254.885" cy="254.963" r="219.713"/><path d="M158.076 58.521s-11.208-11.418-10.415-20.604c0 0 100.139-46.445 177.443 5.189 0 0-88.828-29.113-167.028 15.415zM59.177 350.827s-11.457 11.167-20.64 10.343c0 0-46.095-100.301 5.808-177.424.001 0-29.423 88.726 14.832 167.081zM185.984 462.813s.037 15.998-6.948 22.015c0 0-104.087-36.755-123.302-127.71 0-.001 43.195 82.897 130.25 105.695zM353.508 450.521s11.34 11.284 10.654 20.478c0 0-99.587 47.615-177.491-3.109 0 0 89.162 28.069 166.837-17.369z"/><path d="M463.139 325.125s15.997.063 21.97 7.085c0 0-37.4 103.856-128.472 122.507 0 0 83.163-42.681 106.502-129.592z"/></g><defs><path id="a" transform="rotate(134.999 388.09 121.907)" d="M341.61 75.432h92.958v92.96H341.61z"/></defs><clipPath id="b"><use xlink:href="#a"/></clipPath><path clip-path="url(#b)" d="M338.789 105.479h65.731v65.731"/><defs><path id="c" transform="rotate(-45.001 121.91 388.095)" d="M75.432 341.609h92.958v92.959H75.432z"/></defs><clipPath id="d"><use xlink:href="#c"/></clipPath><path clip-path="url(#d)" d="M171.21 404.521h-65.731v-65.729"/><defs><path id="e" transform="rotate(45.001 121.913 121.907)" d="M75.433 75.431h92.958v92.96H75.433z"/></defs><clipPath id="f"><use xlink:href="#e"/></clipPath><path clip-path="url(#f)" d="M105.479 171.21v-65.731h65.731"/><defs><path id="g" transform="rotate(-134.999 388.092 388.09)" d="M341.607 341.609h92.96v92.96h-92.96z"/></defs><clipPath id="h"><use xlink:href="#g"/></clipPath><path clip-path="url(#h)" d="M404.521 338.791v65.729H338.79"/><defs><path id="i" d="M20.306 208.521h92.958v92.958H20.306z"/></defs><clipPath id="j"><use xlink:href="#i"/></clipPath><path clip-path="url(#j)" d="M90.025 301.479 43.546 255l46.479-46.479"/><defs><path id="k" d="M396.735 208.521h92.959v92.958h-92.959z"/></defs><clipPath id="l"><use xlink:href="#k"/></clipPath><path clip-path="url(#l)" d="M419.975 208.521 466.454 255l-46.479 46.479"/><defs><path id="m" d="M208.521 396.735h92.958v92.959h-92.958z"/></defs><clipPath id="n"><use xlink:href="#m"/></clipPath><path clip-path="url(#n)" d="M301.479 419.975 255 466.454l-46.479-46.479"/><path stroke="#000" stroke-width="2.9999700000000002" d="m138.178 390.606-18.831-18.842L371.85 119.402l18.831 18.842z"/><path stroke="#000" stroke-width="2.99994" d="m118.086 139.688 18.63-19.043L391.9 370.295l-18.63 19.043z"/><path stroke="#000" stroke-width="3.00003" d="m76.565 269.123-.12-26.64 357-1.607.12 26.64z"/><path stroke="#000" stroke-width="3" d="M241.68 76.5h26.64v357h-26.64z"/><defs><path id="o" transform="rotate(89.754 255.213 67)" d="M208.736 20.521h92.959v92.957h-92.959z"/></defs><clipPath id="p"><use xlink:href="#o"/></clipPath><path clip-path="url(#p)" d="m208.837 90.44 46.278-46.679 46.678 46.279"/></g></switch></svg>