<?xml version="1.0" encoding="UTF-8" standalone="no"?>
<!-- Generator: Adobe Illustrator 25.3.1, SVG Export Plug-In . SVG Version: 6.00 Build 0)  -->

<svg
   version="1.1"
   id="Layer_1"
   x="0px"
   y="0px"
   viewBox="0 0 1920 1920"
   style="enable-background:new 0 0 1920 1920;"
   xml:space="preserve"
   sodipodi:docname="sigusd.svg"
   inkscape:version="1.1.1 (c3084ef, 2021-09-22)"
   xmlns:inkscape="http://www.inkscape.org/namespaces/inkscape"
   xmlns:sodipodi="http://sodipodi.sourceforge.net/DTD/sodipodi-0.dtd"
   xmlns="http://www.w3.org/2000/svg"
   xmlns:svg="http://www.w3.org/2000/svg"><defs
   id="defs35" /><sodipodi:namedview
   id="namedview33"
   pagecolor="#ffffff"
   bordercolor="#666666"
   borderopacity="1.0"
   inkscape:pageshadow="2"
   inkscape:pageopacity="0.0"
   inkscape:pagecheckerboard="0"
   showgrid="false"
   inkscape:zoom="0.28333333"
   inkscape:cx="961.76471"
   inkscape:cy="960"
   inkscape:window-width="1312"
   inkscape:window-height="766"
   inkscape:window-x="0"
   inkscape:window-y="25"
   inkscape:window-maximized="0"
   inkscape:current-layer="Layer_1" />
<style
   type="text/css"
   id="style9">
	.st0{fill:url(#SVGID_1_);}
	.st1{fill:#2D2D2D;}
	.st2{fill:#FFFFFF;}
	.st3{fill-rule:evenodd;clip-rule:evenodd;fill:#FFFFFF;}
</style>
<g
   id="g30"
   transform="matrix(1.0549772,0,0,1.0549772,-52.824302,-52.830861)">
	<g
   id="g18">
		<linearGradient
   id="SVGID_1_"
   gradientUnits="userSpaceOnUse"
   x1="61.200001"
   y1="960"
   x2="1858.8"
   y2="960">
			<stop
   offset="0.2481"
   style="stop-color:#6100FB"
   id="stop11" />
			<stop
   offset="1"
   style="stop-color:#2E5CF5"
   id="stop13" />
		</linearGradient>
		<path
   class="st0"
   d="M 1853.4,933.1 1610.8,347.3 c -7.1,-17.2 -20.8,-31 -38.1,-38.1 L 986.9,66.6 c -17.2,-7.1 -36.6,-7.1 -53.9,0 L 347.3,309.2 c -17.2,7.1 -31,20.8 -38.1,38.1 L 66.6,933.1 c -7.1,17.2 -7.1,36.6 0,53.9 l 242.6,585.8 c 7.1,17.2 20.8,31 38.1,38.1 l 585.8,242.6 c 17.2,7.1 36.6,7.1 53.9,0 l 585.8,-242.6 c 17.2,-7.1 31,-20.8 38.1,-38.1 L 1853.5,987 c 7.1,-17.3 7.1,-36.7 -0.1,-53.9 z"
   id="path16"
   style="fill:url(#SVGID_1_)" />
	</g>
	<path
   class="st1"
   d="M 1345.7,1388.6 980,1540.1 569.8,1370.2 400,960 569.9,549.8 980,379.9 1345.7,531.4 1463.4,446.5 1001.3,255.1 c -6.8,-2.8 -14,-4.2 -21.3,-4.2 -7.3,0 -14.4,1.4 -21.3,4.2 L 496.6,446.6 c -13.6,5.6 -24.4,16.4 -30.1,30.1 l -191.4,462 c -5.6,13.6 -5.6,28.9 0,42.5 l 191.4,462.1 c 5.6,13.6 16.4,24.4 30.1,30.1 l 462.1,191.4 c 6.8,2.8 14,4.2 21.3,4.2 7.3,0 14.4,-1.4 21.3,-4.2 l 462.1,-191.4 z"
   id="path20" />
	<g
   id="g24">
		<path
   class="st2"
   d="m 1514.1,646.3 v 67.5 c 75.5,14.5 119.7,69.9 119.7,157.5 v 7.2 h -106.1 v -12.9 c 0,-44.2 -20.9,-67.5 -56.3,-67.5 -36.2,0 -53.8,21.7 -53.8,53 0,37.8 41.8,54.6 88.4,72.3 l 16.1,5.6 c 58.7,21.7 127,53 127,139.8 0,72.3 -43.4,136.6 -135,149.5 v 62.7 h -76.3 v -63.5 c -80.4,-12.1 -128.6,-64.3 -128.6,-147.9 v -18.5 h 105.3 v 12.9 c 0,44.2 20.1,68.3 64.3,68.3 41.8,0 60.3,-25.7 60.3,-58.7 0,-34.6 -29.7,-44.2 -69.9,-58.7 l -32.9,-12.1 c -61.1,-21.7 -127.8,-49 -127.8,-146.3 0,-83.6 54.6,-133.4 129.4,-144.6 V 646 h 76.2 z"
   id="path22" />
	</g>
	<g
   id="Layer_x0020_1_16_">
		<g
   id="_1841840793312_16_">
			<polygon
   class="st3"
   points="931.2,953.8 751.4,766.6 751.4,650.3 1209.5,650.3 1209.5,777.9 940.8,777.9 1107.4,952.3 935,1142.1 1209.5,1142.1 1209.5,1269.7 750.6,1269.7 750.6,1153.7 "
   id="polygon26" />
		</g>
	</g>
</g>
</svg>
