<svg width="128" height="128" fill="none" xmlns="http://www.w3.org/2000/svg"><g filter="url(#a)"><rect x="10" y="50" width="108" height="36" rx="2" fill="#BEBEBE"/></g><g filter="url(#b)"><path d="M21 61a1 1 0 0 1 1-1h58a1 1 0 0 1 1 1v14a1 1 0 0 1-1 1H22a1 1 0 0 1-1-1V61Z" fill="#000" fill-opacity=".3"/></g><mask id="d" style="mask-type:alpha" maskUnits="userSpaceOnUse" x="79" y="22" width="43" height="71"><path fill="url(#c)" d="M79 22h43v71H79z"/></mask><g filter="url(#e)" mask="url(#d)"><path d="M114.184 80.468c-7.03 7.03-18.427 7.03-25.456 0-7.03-7.03-7.03-18.426 0-25.456L120.74 23l.456 50.456-7.012 7.012Z" fill="url(#f)" shape-rendering="crispEdges"/></g><circle cx="101" cy="68" r="8" fill="#fff"/><path fill-rule="evenodd" clip-rule="evenodd" d="M111 68c0 5.523-4.477 10-10 10s-10-4.477-10-10 4.477-10 10-10 10 4.477 10 10Zm-10 8a8 8 0 1 0 0-16 8 8 0 0 0 0 16Z" fill="#000" fill-opacity=".6"/><path d="M18 49a1 1 0 0 1 1-1h14a1 1 0 0 1 1 1v1H18v-1ZM67 49a1 1 0 0 1 1-1h14a1 1 0 0 1 1 1v1H67v-1Z" fill="#000" fill-opacity=".7"/><defs><filter id="a" x="10" y="50" width="108" height="51" filterUnits="userSpaceOnUse" color-interpolation-filters="sRGB"><feFlood flood-opacity="0" result="BackgroundImageFix"/><feColorMatrix in="SourceAlpha" values="0 0 0 0 0 0 0 0 0 0 0 0 0 0 0 0 0 0 127 0" result="hardAlpha"/><feMorphology radius="10" in="SourceAlpha" result="effect1_dropShadow_43_5796"/><feOffset dy="15"/><feGaussianBlur stdDeviation="5"/><feComposite in2="hardAlpha" operator="out"/><feColorMatrix values="0 0 0 0 0 0 0 0 0 0 0 0 0 0 0 0 0 0 0.15 0"/><feBlend in2="BackgroundImageFix" result="effect1_dropShadow_43_5796"/><feColorMatrix in="SourceAlpha" values="0 0 0 0 0 0 0 0 0 0 0 0 0 0 0 0 0 0 127 0" result="hardAlpha"/><feMorphology radius="5" in="SourceAlpha" result="effect2_dropShadow_43_5796"/><feOffset dy="6"/><feGaussianBlur stdDeviation="2"/><feComposite in2="hardAlpha" operator="out"/><feColorMatrix values="0 0 0 0 0 0 0 0 0 0 0 0 0 0 0 0 0 0 0.15 0"/><feBlend in2="effect1_dropShadow_43_5796" result="effect2_dropShadow_43_5796"/><feBlend in="SourceGraphic" in2="effect2_dropShadow_43_5796" result="shape"/></filter><filter id="b" x="21" y="60" width="60" height="16" filterUnits="userSpaceOnUse" color-interpolation-filters="sRGB"><feFlood flood-opacity="0" result="BackgroundImageFix"/><feBlend in="SourceGraphic" in2="BackgroundImageFix" result="shape"/><feColorMatrix in="SourceAlpha" values="0 0 0 0 0 0 0 0 0 0 0 0 0 0 0 0 0 0 127 0" result="hardAlpha"/><feOffset dy="1"/><feComposite in2="hardAlpha" operator="arithmetic" k2="-1" k3="1"/><feColorMatrix values="0 0 0 0 0 0 0 0 0 0 0 0 0 0 0 0 0 0 0.2 0"/><feBlend in2="shape" result="effect1_innerShadow_43_5796"/></filter><filter id="e" x="79.456" y="20" width="43.74" height="68.74" filterUnits="userSpaceOnUse" color-interpolation-filters="sRGB"><feFlood flood-opacity="0" result="BackgroundImageFix"/><feColorMatrix in="SourceAlpha" values="0 0 0 0 0 0 0 0 0 0 0 0 0 0 0 0 0 0 127 0" result="hardAlpha"/><feOffset dx="-1"/><feGaussianBlur stdDeviation="1.5"/><feComposite in2="hardAlpha" operator="out"/><feColorMatrix values="0 0 0 0 0 0 0 0 0 0 0 0 0 0 0 0 0 0 0.25 0"/><feBlend in2="BackgroundImageFix" result="effect1_dropShadow_43_5796"/><feBlend in="SourceGraphic" in2="effect1_dropShadow_43_5796" result="shape"/></filter><linearGradient id="c" x1="122" y1="52" x2="81.5" y2="52" gradientUnits="userSpaceOnUse"><stop stop-color="#C4C4C4" stop-opacity="0"/><stop offset="1" stop-color="#C4C4C4"/></linearGradient><linearGradient id="f" x1="103.5" y1="44.5" x2="122" y2="44.5" gradientUnits="userSpaceOnUse"><stop stop-color="#fff" stop-opacity=".56"/><stop offset="1" stop-color="#fff"/></linearGradient></defs></svg>