<svg version="1.1" id="layer" x="0" y="0" xml:space="preserve" xmlns="http://www.w3.org/2000/svg" viewBox="0 0 123.6 123.7"><g id="g33" transform="translate(-13.887 -10.813)"><g id="g235" transform="translate(-6.413 -237.287)"><path id="Shape" class="st0" d="M124 248.1H67.4v76.3h76.3v-56.5c.1-11-8.8-19.8-19.7-19.8z"/><path class="st0" d="M49.8 248.1h-9.7c-10.9 0-19.7 8.8-19.7 19.7v9.7h29.5v-29.4z" id="path12"/><path id="Rectangle-path" class="st0" d="M20.3 295.2h29.5v29.5H20.3z"/><path class="st0" d="M114.5 371.5h9.7c10.9 0 19.7-8.8 19.7-19.7v-9.5h-29.5v29.2z" id="path15"/><path class="st0" id="polygon17" d="M67.4 342.3h29.5v29.5H67.4z"/><path class="st0" d="M20.3 342.3v9.7c0 10.9 8.8 19.7 19.7 19.7h9.7v-29.5H20.3Z" id="path19"/></g></g></svg>