<svg width="112" height="79" viewBox="0 0 112 79" fill="none" xmlns="http://www.w3.org/2000/svg">
<g filter="url(#filter0_dd_43_5794)">
<rect y="28" width="108" height="36" rx="2" fill="#BEBEBE"/>
</g>
<g filter="url(#filter1_i_43_5794)">
<path d="M11 39C11 38.4477 11.4477 38 12 38H70C70.5523 38 71 38.4477 71 39V53C71 53.5523 70.5523 54 70 54H12C11.4477 54 11 53.5523 11 53V39Z" fill="black" fill-opacity="0.3"/>
</g>
<mask id="mask0_43_5794" style="mask-type:alpha" maskUnits="userSpaceOnUse" x="69" y="0" width="43" height="71">
<rect x="69" width="43" height="71" fill="url(#paint0_linear_43_5794)"/>
</mask>
<g mask="url(#mask0_43_5794)">
<g filter="url(#filter2_d_43_5794)">
<path d="M104.184 58.468C97.1543 65.4974 85.7573 65.4974 78.7279 58.468V58.468C71.6984 51.4386 71.6984 40.0416 78.7279 33.0122L110.74 0.999962L111.196 51.4558L104.184 58.468Z" fill="url(#paint1_linear_43_5794)" shape-rendering="crispEdges"/>
</g>
</g>
<circle cx="91" cy="46" r="8" fill="white"/>
<path fill-rule="evenodd" clip-rule="evenodd" d="M101 46C101 51.5228 96.5228 56 91 56C85.4772 56 81 51.5228 81 46C81 40.4772 85.4772 36 91 36C96.5228 36 101 40.4772 101 46ZM91 54C95.4183 54 99 50.4183 99 46C99 41.5817 95.4183 38 91 38C86.5817 38 83 41.5817 83 46C83 50.4183 86.5817 54 91 54Z" fill="black" fill-opacity="0.6"/>
<path d="M8 27C8 26.4477 8.44772 26 9 26H23C23.5523 26 24 26.4477 24 27V28H8V27Z" fill="black" fill-opacity="0.7"/>
<path d="M57 27C57 26.4477 57.4477 26 58 26H72C72.5523 26 73 26.4477 73 27V28H57V27Z" fill="black" fill-opacity="0.7"/>
<defs>
<filter id="filter0_dd_43_5794" x="0" y="28" width="108" height="51" filterUnits="userSpaceOnUse" color-interpolation-filters="sRGB">
<feFlood flood-opacity="0" result="BackgroundImageFix"/>
<feColorMatrix in="SourceAlpha" type="matrix" values="0 0 0 0 0 0 0 0 0 0 0 0 0 0 0 0 0 0 127 0" result="hardAlpha"/>
<feMorphology radius="10" operator="erode" in="SourceAlpha" result="effect1_dropShadow_43_5794"/>
<feOffset dy="15"/>
<feGaussianBlur stdDeviation="5"/>
<feComposite in2="hardAlpha" operator="out"/>
<feColorMatrix type="matrix" values="0 0 0 0 0 0 0 0 0 0 0 0 0 0 0 0 0 0 0.15 0"/>
<feBlend mode="normal" in2="BackgroundImageFix" result="effect1_dropShadow_43_5794"/>
<feColorMatrix in="SourceAlpha" type="matrix" values="0 0 0 0 0 0 0 0 0 0 0 0 0 0 0 0 0 0 127 0" result="hardAlpha"/>
<feMorphology radius="5" operator="erode" in="SourceAlpha" result="effect2_dropShadow_43_5794"/>
<feOffset dy="6"/>
<feGaussianBlur stdDeviation="2"/>
<feComposite in2="hardAlpha" operator="out"/>
<feColorMatrix type="matrix" values="0 0 0 0 0 0 0 0 0 0 0 0 0 0 0 0 0 0 0.15 0"/>
<feBlend mode="normal" in2="effect1_dropShadow_43_5794" result="effect2_dropShadow_43_5794"/>
<feBlend mode="normal" in="SourceGraphic" in2="effect2_dropShadow_43_5794" result="shape"/>
</filter>
<filter id="filter1_i_43_5794" x="11" y="38" width="60" height="16" filterUnits="userSpaceOnUse" color-interpolation-filters="sRGB">
<feFlood flood-opacity="0" result="BackgroundImageFix"/>
<feBlend mode="normal" in="SourceGraphic" in2="BackgroundImageFix" result="shape"/>
<feColorMatrix in="SourceAlpha" type="matrix" values="0 0 0 0 0 0 0 0 0 0 0 0 0 0 0 0 0 0 127 0" result="hardAlpha"/>
<feOffset dy="1"/>
<feComposite in2="hardAlpha" operator="arithmetic" k2="-1" k3="1"/>
<feColorMatrix type="matrix" values="0 0 0 0 0 0 0 0 0 0 0 0 0 0 0 0 0 0 0.2 0"/>
<feBlend mode="normal" in2="shape" result="effect1_innerShadow_43_5794"/>
</filter>
<filter id="filter2_d_43_5794" x="69.4558" y="-2" width="43.7401" height="68.7401" filterUnits="userSpaceOnUse" color-interpolation-filters="sRGB">
<feFlood flood-opacity="0" result="BackgroundImageFix"/>
<feColorMatrix in="SourceAlpha" type="matrix" values="0 0 0 0 0 0 0 0 0 0 0 0 0 0 0 0 0 0 127 0" result="hardAlpha"/>
<feOffset dx="-1"/>
<feGaussianBlur stdDeviation="1.5"/>
<feComposite in2="hardAlpha" operator="out"/>
<feColorMatrix type="matrix" values="0 0 0 0 0 0 0 0 0 0 0 0 0 0 0 0 0 0 0.25 0"/>
<feBlend mode="normal" in2="BackgroundImageFix" result="effect1_dropShadow_43_5794"/>
<feBlend mode="normal" in="SourceGraphic" in2="effect1_dropShadow_43_5794" result="shape"/>
</filter>
<linearGradient id="paint0_linear_43_5794" x1="112" y1="30" x2="71.5" y2="30" gradientUnits="userSpaceOnUse">
<stop stop-color="#C4C4C4" stop-opacity="0"/>
<stop offset="1" stop-color="#C4C4C4"/>
</linearGradient>
<linearGradient id="paint1_linear_43_5794" x1="93.5" y1="22.5" x2="112" y2="22.5" gradientUnits="userSpaceOnUse">
<stop stop-color="white" stop-opacity="0.56"/>
<stop offset="1" stop-color="white"/>
</linearGradient>
</defs>
</svg>
